solid CATIA STL
  facet normal  1.000000e+000  0.000000e+000  0.000000e+000
    outer loop
      vertex -3.705814e+001 -8.000000e+000  4.000000e+000
      vertex -3.705814e+001 -8.000000e+000  0.000000e+000
      vertex -3.705814e+001 -3.337814e-001  1.037608e+000
    endloop
  endfacet
  facet normal  1.000000e+000  0.000000e+000  0.000000e+000
    outer loop
      vertex -3.705814e+001 -8.000000e+000  4.000000e+000
      vertex -3.705814e+001 -3.337814e-001  1.037608e+000
      vertex -3.705814e+001 -9.352347e-001  1.327253e+000
    endloop
  endfacet
  facet normal  9.999999e-001  0.000000e+000  0.000000e+000
    outer loop
      vertex -3.705814e+001 -8.000000e+000  4.000000e+000
      vertex -3.705814e+001 -9.352347e-001  1.327253e+000
      vertex -3.705814e+001 -1.351453e+000  1.849174e+000
    endloop
  endfacet
  facet normal  1.000000e+000  0.000000e+000  0.000000e+000
    outer loop
      vertex -3.705814e+001 -8.000000e+000  4.000000e+000
      vertex -3.705814e+001 -1.351453e+000  1.849174e+000
      vertex -3.705814e+001 -1.500000e+000  2.500000e+000
    endloop
  endfacet
  facet normal  1.000000e+000  0.000000e+000  -0.000000e+000
    outer loop
      vertex -3.705814e+001 -8.000000e+000  4.000000e+000
      vertex -3.705814e+001 -1.500000e+000  2.500000e+000
      vertex -3.705814e+001 -1.385819e+000  3.074025e+000
    endloop
  endfacet
  facet normal  1.000000e+000  0.000000e+000  -0.000000e+000
    outer loop
      vertex -3.705814e+001 -8.000000e+000  4.000000e+000
      vertex -3.705814e+001 -1.385819e+000  3.074025e+000
      vertex -3.705814e+001 -1.060660e+000  3.560660e+000
    endloop
  endfacet
  facet normal  1.000000e+000  0.000000e+000  -0.000000e+000
    outer loop
      vertex -3.705814e+001 -8.000000e+000  4.000000e+000
      vertex -3.705814e+001 -1.060660e+000  3.560660e+000
      vertex -3.705814e+001 -5.740252e-001  3.885819e+000
    endloop
  endfacet
  facet normal  1.000000e+000  0.000000e+000  -0.000000e+000
    outer loop
      vertex -3.705814e+001 -8.000000e+000  4.000000e+000
      vertex -3.705814e+001 -5.740252e-001  3.885819e+000
      vertex -3.705814e+001 -8.881784e-016  4.000000e+000
    endloop
  endfacet
  facet normal  1.000000e+000  -0.000000e+000  0.000000e+000
    outer loop
      vertex -3.705814e+001  8.000000e+000  4.000000e+000
      vertex -3.705814e+001 -8.881784e-016  4.000000e+000
      vertex -3.705814e+001  5.740252e-001  3.885819e+000
    endloop
  endfacet
  facet normal  1.000000e+000  -0.000000e+000  0.000000e+000
    outer loop
      vertex -3.705814e+001  8.000000e+000  4.000000e+000
      vertex -3.705814e+001  5.740252e-001  3.885819e+000
      vertex -3.705814e+001  1.060660e+000  3.560660e+000
    endloop
  endfacet
  facet normal  1.000000e+000  -0.000000e+000  0.000000e+000
    outer loop
      vertex -3.705814e+001  8.000000e+000  4.000000e+000
      vertex -3.705814e+001  1.060660e+000  3.560660e+000
      vertex -3.705814e+001  1.385819e+000  3.074025e+000
    endloop
  endfacet
  facet normal  1.000000e+000  -0.000000e+000  0.000000e+000
    outer loop
      vertex -3.705814e+001  8.000000e+000  4.000000e+000
      vertex -3.705814e+001  1.385819e+000  3.074025e+000
      vertex -3.705814e+001  1.500000e+000  2.500000e+000
    endloop
  endfacet
  facet normal  1.000000e+000  -0.000000e+000  0.000000e+000
    outer loop
      vertex -3.705814e+001  8.000000e+000  4.000000e+000
      vertex -3.705814e+001  1.500000e+000  2.500000e+000
      vertex -3.705814e+001  8.000000e+000  0.000000e+000
    endloop
  endfacet
  facet normal  1.000000e+000  0.000000e+000  0.000000e+000
    outer loop
      vertex -3.705814e+001  8.000000e+000  0.000000e+000
      vertex -3.705814e+001  1.500000e+000  2.500000e+000
      vertex -3.705814e+001  1.351453e+000  1.849174e+000
    endloop
  endfacet
  facet normal  1.000000e+000  0.000000e+000  0.000000e+000
    outer loop
      vertex -3.705814e+001  8.000000e+000  0.000000e+000
      vertex -3.705814e+001  1.351453e+000  1.849174e+000
      vertex -3.705814e+001  9.352347e-001  1.327253e+000
    endloop
  endfacet
  facet normal  1.000000e+000  0.000000e+000  0.000000e+000
    outer loop
      vertex -3.705814e+001  8.000000e+000  0.000000e+000
      vertex -3.705814e+001  9.352347e-001  1.327253e+000
      vertex -3.705814e+001  3.337814e-001  1.037608e+000
    endloop
  endfacet
  facet normal  1.000000e+000  0.000000e+000  0.000000e+000
    outer loop
      vertex -3.705814e+001  8.000000e+000  0.000000e+000
      vertex -3.705814e+001  3.337814e-001  1.037608e+000
      vertex -3.705814e+001 -3.337814e-001  1.037608e+000
    endloop
  endfacet
  facet normal  1.000000e+000  0.000000e+000  0.000000e+000
    outer loop
      vertex -3.705814e+001  8.000000e+000  0.000000e+000
      vertex -3.705814e+001 -3.337814e-001  1.037608e+000
      vertex -3.705814e+001 -8.000000e+000  0.000000e+000
    endloop
  endfacet
  facet normal  0.000000e+000  0.000000e+000  1.000000e+000
    outer loop
      vertex  4.500000e+001  1.236844e+001  4.000000e+000
      vertex  4.914023e+001  9.232434e+000  4.000000e+000
      vertex  4.831950e+001  1.285403e+001  4.000000e+000
    endloop
  endfacet
  facet normal  0.000000e+000  -0.000000e+000  1.000000e+000
    outer loop
      vertex  4.500000e+001 -1.758590e+001  4.000000e+000
      vertex  4.588446e+001 -1.986495e+001  4.000000e+000
      vertex  4.723224e+001 -1.640473e+001  4.000000e+000
    endloop
  endfacet
  facet normal  0.000000e+000  0.000000e+000  1.000000e+000
    outer loop
      vertex  4.500000e+001 -1.236844e+001  4.000000e+000
      vertex  4.500000e+001 -1.758590e+001  4.000000e+000
      vertex  4.723224e+001 -1.640473e+001  4.000000e+000
    endloop
  endfacet
  facet normal  0.000000e+000  -0.000000e+000  1.000000e+000
    outer loop
      vertex  4.500000e+001 -1.236844e+001  4.000000e+000
      vertex  4.723224e+001 -1.640473e+001  4.000000e+000
      vertex  4.831950e+001 -1.285403e+001  4.000000e+000
    endloop
  endfacet
  facet normal  0.000000e+000  -0.000000e+000  9.999999e-001
    outer loop
      vertex  4.500000e+001 -1.236844e+001  4.000000e+000
      vertex  4.831950e+001 -1.285403e+001  4.000000e+000
      vertex  4.914023e+001 -9.232434e+000  4.000000e+000
    endloop
  endfacet
  facet normal  0.000000e+000  0.000000e+000  1.000000e+000
    outer loop
      vertex  4.500000e+001 -1.236844e+001  4.000000e+000
      vertex  4.914023e+001 -9.232434e+000  4.000000e+000
      vertex -4.912392e+001 -9.318827e+000  4.000000e+000
    endloop
  endfacet
  facet normal  0.000000e+000  0.000000e+000  1.000000e+000
    outer loop
      vertex  4.500000e+001 -1.236844e+001  4.000000e+000
      vertex -4.912392e+001 -9.318827e+000  4.000000e+000
      vertex -4.844607e+001 -1.236844e+001  4.000000e+000
    endloop
  endfacet
  facet normal  0.000000e+000  0.000000e+000  1.000000e+000
    outer loop
      vertex -4.912392e+001 -9.318827e+000  4.000000e+000
      vertex  4.914023e+001 -9.232434e+000  4.000000e+000
      vertex  3.694252e+001 -8.000000e+000  4.000000e+000
    endloop
  endfacet
  facet normal  0.000000e+000  0.000000e+000  1.000000e+000
    outer loop
      vertex -4.912392e+001 -9.318827e+000  4.000000e+000
      vertex  3.694252e+001 -8.000000e+000  4.000000e+000
      vertex -3.705814e+001 -8.000000e+000  4.000000e+000
    endloop
  endfacet
  facet normal  0.000000e+000  0.000000e+000  1.000000e+000
    outer loop
      vertex -4.912392e+001 -9.318827e+000  4.000000e+000
      vertex -3.705814e+001 -8.000000e+000  4.000000e+000
      vertex -4.961000e+001 -6.232836e+000  4.000000e+000
    endloop
  endfacet
  facet normal  0.000000e+000  0.000000e+000  1.000000e+000
    outer loop
      vertex -3.705814e+001  8.000000e+000  4.000000e+000
      vertex -4.912392e+001  9.318827e+000  4.000000e+000
      vertex -3.705814e+001 -8.881784e-016  4.000000e+000
    endloop
  endfacet
  facet normal  0.000000e+000  0.000000e+000  1.000000e+000
    outer loop
      vertex -3.705814e+001 -8.881784e-016  4.000000e+000
      vertex -4.912392e+001  9.318827e+000  4.000000e+000
      vertex -4.961000e+001  6.232836e+000  4.000000e+000
    endloop
  endfacet
  facet normal  0.000000e+000  0.000000e+000  1.000000e+000
    outer loop
      vertex -3.705814e+001 -8.881784e-016  4.000000e+000
      vertex -4.961000e+001  6.232836e+000  4.000000e+000
      vertex -5.000000e+001  6.123234e-015  4.000000e+000
    endloop
  endfacet
  facet normal  0.000000e+000  0.000000e+000  1.000000e+000
    outer loop
      vertex -5.000000e+001  6.123234e-015  4.000000e+000
      vertex -4.961000e+001  6.232836e+000  4.000000e+000
      vertex -4.990240e+001  3.122513e+000  4.000000e+000
    endloop
  endfacet
  facet normal  -0.000000e+000  0.000000e+000  1.000000e+000
    outer loop
      vertex  4.428359e+001  2.321559e+001  4.000000e+000
      vertex -4.428359e+001  2.321559e+001  4.000000e+000
      vertex  4.588446e+001  1.986495e+001  4.000000e+000
    endloop
  endfacet
  facet normal  0.000000e+000  0.000000e+000  1.000000e+000
    outer loop
      vertex  4.588446e+001  1.986495e+001  4.000000e+000
      vertex -4.428359e+001  2.321559e+001  4.000000e+000
      vertex -4.563135e+001  2.043967e+001  4.000000e+000
    endloop
  endfacet
  facet normal  0.000000e+000  0.000000e+000  1.000000e+000
    outer loop
      vertex  4.588446e+001  1.986495e+001  4.000000e+000
      vertex -4.563135e+001  2.043967e+001  4.000000e+000
      vertex  4.500000e+001  1.758590e+001  4.000000e+000
    endloop
  endfacet
  facet normal  0.000000e+000  0.000000e+000  1.000000e+000
    outer loop
      vertex  4.500000e+001  1.758590e+001  4.000000e+000
      vertex -4.563135e+001  2.043967e+001  4.000000e+000
      vertex -4.680530e+001  1.758590e+001  4.000000e+000
    endloop
  endfacet
  facet normal  0.000000e+000  0.000000e+000  1.000000e+000
    outer loop
      vertex  4.500000e+001  1.236844e+001  4.000000e+000
      vertex  4.831950e+001  1.285403e+001  4.000000e+000
      vertex  4.500000e+001  1.758590e+001  4.000000e+000
    endloop
  endfacet
  facet normal  0.000000e+000  0.000000e+000  1.000000e+000
    outer loop
      vertex  4.500000e+001  1.758590e+001  4.000000e+000
      vertex  4.831950e+001  1.285403e+001  4.000000e+000
      vertex  4.723224e+001  1.640473e+001  4.000000e+000
    endloop
  endfacet
  facet normal  0.000000e+000  0.000000e+000  1.000000e+000
    outer loop
      vertex  4.500000e+001  1.758590e+001  4.000000e+000
      vertex  4.723224e+001  1.640473e+001  4.000000e+000
      vertex  4.588446e+001  1.986495e+001  4.000000e+000
    endloop
  endfacet
  facet normal  -0.000000e+000  0.000000e+000  1.000000e+000
    outer loop
      vertex  4.500000e+001  1.236844e+001  4.000000e+000
      vertex -4.844607e+001  1.236844e+001  4.000000e+000
      vertex  4.914023e+001  9.232434e+000  4.000000e+000
    endloop
  endfacet
  facet normal  0.000000e+000  0.000000e+000  1.000000e+000
    outer loop
      vertex  4.914023e+001  9.232434e+000  4.000000e+000
      vertex -4.844607e+001  1.236844e+001  4.000000e+000
      vertex -4.912392e+001  9.318827e+000  4.000000e+000
    endloop
  endfacet
  facet normal  0.000000e+000  0.000000e+000  9.999999e-001
    outer loop
      vertex  4.914023e+001  9.232434e+000  4.000000e+000
      vertex -4.912392e+001  9.318827e+000  4.000000e+000
      vertex  3.694252e+001  8.000000e+000  4.000000e+000
    endloop
  endfacet
  facet normal  0.000000e+000  0.000000e+000  1.000000e+000
    outer loop
      vertex  3.694252e+001  8.000000e+000  4.000000e+000
      vertex -4.912392e+001  9.318827e+000  4.000000e+000
      vertex -3.705814e+001  8.000000e+000  4.000000e+000
    endloop
  endfacet
  facet normal  0.000000e+000  0.000000e+000  1.000000e+000
    outer loop
      vertex  4.968991e+001  5.559909e+000  4.000000e+000
      vertex  4.914023e+001  9.232434e+000  4.000000e+000
      vertex  4.996552e+001  1.856717e+000  4.000000e+000
    endloop
  endfacet
  facet normal  0.000000e+000  0.000000e+000  1.000000e+000
    outer loop
      vertex  4.996552e+001  1.856717e+000  4.000000e+000
      vertex  4.914023e+001  9.232434e+000  4.000000e+000
      vertex  3.694252e+001  8.000000e+000  4.000000e+000
    endloop
  endfacet
  facet normal  0.000000e+000  0.000000e+000  9.999999e-001
    outer loop
      vertex  4.996552e+001  1.856717e+000  4.000000e+000
      vertex  3.694252e+001  8.000000e+000  4.000000e+000
      vertex  4.996552e+001 -1.856717e+000  4.000000e+000
    endloop
  endfacet
  facet normal  0.000000e+000  0.000000e+000  9.999999e-001
    outer loop
      vertex  4.996552e+001 -1.856717e+000  4.000000e+000
      vertex  3.694252e+001  8.000000e+000  4.000000e+000
      vertex  3.694252e+001 -8.000000e+000  4.000000e+000
    endloop
  endfacet
  facet normal  0.000000e+000  0.000000e+000  1.000000e+000
    outer loop
      vertex  4.996552e+001 -1.856717e+000  4.000000e+000
      vertex  3.694252e+001 -8.000000e+000  4.000000e+000
      vertex  4.968991e+001 -5.559909e+000  4.000000e+000
    endloop
  endfacet
  facet normal  0.000000e+000  0.000000e+000  1.000000e+000
    outer loop
      vertex  4.968991e+001 -5.559909e+000  4.000000e+000
      vertex  3.694252e+001 -8.000000e+000  4.000000e+000
      vertex  4.914023e+001 -9.232434e+000  4.000000e+000
    endloop
  endfacet
  facet normal  0.000000e+000  0.000000e+000  1.000000e+000
    outer loop
      vertex -3.705814e+001 -8.881784e-016  4.000000e+000
      vertex -5.000000e+001  6.123234e-015  4.000000e+000
      vertex -3.705814e+001 -8.000000e+000  4.000000e+000
    endloop
  endfacet
  facet normal  0.000000e+000  0.000000e+000  1.000000e+000
    outer loop
      vertex -3.705814e+001 -8.000000e+000  4.000000e+000
      vertex -5.000000e+001  6.123234e-015  4.000000e+000
      vertex -4.990240e+001 -3.122513e+000  4.000000e+000
    endloop
  endfacet
  facet normal  0.000000e+000  0.000000e+000  1.000000e+000
    outer loop
      vertex -3.705814e+001 -8.000000e+000  4.000000e+000
      vertex -4.990240e+001 -3.122513e+000  4.000000e+000
      vertex -4.961000e+001 -6.232836e+000  4.000000e+000
    endloop
  endfacet
  facet normal  -0.000000e+000  0.000000e+000  9.999999e-001
    outer loop
      vertex  4.500000e+001 -1.758590e+001  4.000000e+000
      vertex -4.680530e+001 -1.758590e+001  4.000000e+000
      vertex  4.588446e+001 -1.986495e+001  4.000000e+000
    endloop
  endfacet
  facet normal  0.000000e+000  0.000000e+000  1.000000e+000
    outer loop
      vertex  4.588446e+001 -1.986495e+001  4.000000e+000
      vertex -4.680530e+001 -1.758590e+001  4.000000e+000
      vertex -4.563135e+001 -2.043967e+001  4.000000e+000
    endloop
  endfacet
  facet normal  -0.000000e+000  0.000000e+000  1.000000e+000
    outer loop
      vertex  4.588446e+001 -1.986495e+001  4.000000e+000
      vertex -4.563135e+001 -2.043967e+001  4.000000e+000
      vertex  4.428359e+001 -2.321559e+001  4.000000e+000
    endloop
  endfacet
  facet normal  0.000000e+000  0.000000e+000  1.000000e+000
    outer loop
      vertex  4.428359e+001 -2.321559e+001  4.000000e+000
      vertex -4.563135e+001 -2.043967e+001  4.000000e+000
      vertex -4.428359e+001 -2.321559e+001  4.000000e+000
    endloop
  endfacet
  facet normal -9.535223e-001 -3.011579e-001  9.965515e-003
    outer loop
      vertex -4.723224e+001 -1.640473e+001  0.000000e+000
      vertex -4.712756e+001 -1.670309e+001  1.000000e+000
      vertex -4.817204e+001 -1.339606e+001  1.000000e+000
    endloop
  endfacet
  facet normal -9.560270e-001 -2.927434e-001 -1.770478e-002
    outer loop
      vertex -4.723224e+001 -1.640473e+001  0.000000e+000
      vertex -4.817204e+001 -1.339606e+001  1.000000e+000
      vertex -4.831950e+001 -1.285403e+001  0.000000e+000
    endloop
  endfacet
  facet normal -9.560270e-001  2.927434e-001 -1.770478e-002
    outer loop
      vertex -4.723224e+001  1.640473e+001  0.000000e+000
      vertex -4.831950e+001  1.285403e+001  0.000000e+000
      vertex -4.817204e+001  1.339606e+001  1.000000e+000
    endloop
  endfacet
  facet normal -9.535223e-001  3.011579e-001  9.965515e-003
    outer loop
      vertex -4.817204e+001  1.339606e+001  1.000000e+000
      vertex -4.712756e+001  1.670309e+001  1.000000e+000
      vertex -4.723224e+001  1.640473e+001  0.000000e+000
    endloop
  endfacet
  facet normal -9.761601e-001 -2.169748e-001  5.766564e-003
    outer loop
      vertex -4.898477e+001 -1.002458e+001  1.000000e+000
      vertex -4.844607e+001 -1.236844e+001  4.000000e+000
      vertex -4.912392e+001 -9.318827e+000  4.000000e+000
    endloop
  endfacet
  facet normal -9.812436e-001 -1.927718e-001 -1.630170e-004
    outer loop
      vertex -4.898477e+001 -1.002458e+001  1.000000e+000
      vertex -4.912392e+001 -9.318827e+000  4.000000e+000
      vertex -4.914023e+001 -9.232434e+000  0.000000e+000
    endloop
  endfacet
  facet normal -9.750016e-001 -2.209562e-001 -2.345957e-002
    outer loop
      vertex -4.898477e+001 -1.002458e+001  1.000000e+000
      vertex -4.914023e+001 -9.232434e+000  0.000000e+000
      vertex -4.831950e+001 -1.285403e+001  0.000000e+000
    endloop
  endfacet
  facet normal -9.720234e-001 -2.343161e-001  1.632295e-002
    outer loop
      vertex -4.898477e+001 -1.002458e+001  1.000000e+000
      vertex -4.831950e+001 -1.285403e+001  0.000000e+000
      vertex -4.817204e+001 -1.339606e+001  1.000000e+000
    endloop
  endfacet
  facet normal -9.303322e-001 -3.665224e-001 -1.196394e-002
    outer loop
      vertex -4.585635e+001 -1.992976e+001  1.000000e+000
      vertex -4.712756e+001 -1.670309e+001  1.000000e+000
      vertex -4.723224e+001 -1.640473e+001  0.000000e+000
    endloop
  endfacet
  facet normal -9.318063e-001 -3.629462e-001  2.670376e-003
    outer loop
      vertex -4.585635e+001 -1.992976e+001  1.000000e+000
      vertex -4.723224e+001 -1.640473e+001  0.000000e+000
      vertex -4.588446e+001 -1.986495e+001  0.000000e+000
    endloop
  endfacet
  facet normal -9.133179e-001 -4.072468e-001 -7.205300e-004
    outer loop
      vertex -4.585635e+001 -1.992976e+001  1.000000e+000
      vertex -4.588446e+001 -1.986495e+001  0.000000e+000
      vertex -4.563135e+001 -2.043967e+001  4.000000e+000
    endloop
  endfacet
  facet normal -9.247969e-001 -3.804321e-001  4.698107e-003
    outer loop
      vertex -4.585635e+001 -1.992976e+001  1.000000e+000
      vertex -4.563135e+001 -2.043967e+001  4.000000e+000
      vertex -4.680530e+001 -1.758590e+001  4.000000e+000
    endloop
  endfacet
  facet normal -9.247969e-001  3.804321e-001  4.698114e-003
    outer loop
      vertex -4.585635e+001  1.992976e+001  1.000000e+000
      vertex -4.680530e+001  1.758590e+001  4.000000e+000
      vertex -4.563135e+001  2.043967e+001  4.000000e+000
    endloop
  endfacet
  facet normal -9.133179e-001  4.072468e-001 -7.205139e-004
    outer loop
      vertex -4.585635e+001  1.992976e+001  1.000000e+000
      vertex -4.563135e+001  2.043967e+001  4.000000e+000
      vertex -4.588446e+001  1.986495e+001  0.000000e+000
    endloop
  endfacet
  facet normal -9.318063e-001  3.629462e-001  2.670381e-003
    outer loop
      vertex -4.585635e+001  1.992976e+001  1.000000e+000
      vertex -4.588446e+001  1.986495e+001  0.000000e+000
      vertex -4.723224e+001  1.640473e+001  0.000000e+000
    endloop
  endfacet
  facet normal -9.303322e-001  3.665224e-001 -1.196394e-002
    outer loop
      vertex -4.585635e+001  1.992976e+001  1.000000e+000
      vertex -4.723224e+001  1.640473e+001  0.000000e+000
      vertex -4.712756e+001  1.670309e+001  1.000000e+000
    endloop
  endfacet
  facet normal -9.720234e-001  2.343161e-001  1.632295e-002
    outer loop
      vertex -4.898477e+001  1.002458e+001  1.000000e+000
      vertex -4.817204e+001  1.339606e+001  1.000000e+000
      vertex -4.831950e+001  1.285403e+001  0.000000e+000
    endloop
  endfacet
  facet normal -9.750016e-001  2.209562e-001 -2.345959e-002
    outer loop
      vertex -4.898477e+001  1.002458e+001  1.000000e+000
      vertex -4.831950e+001  1.285403e+001  0.000000e+000
      vertex -4.914023e+001  9.232434e+000  0.000000e+000
    endloop
  endfacet
  facet normal -9.812436e-001  1.927718e-001 -1.630167e-004
    outer loop
      vertex -4.898477e+001  1.002458e+001  1.000000e+000
      vertex -4.914023e+001  9.232434e+000  0.000000e+000
      vertex -4.912392e+001  9.318827e+000  4.000000e+000
    endloop
  endfacet
  facet normal -9.761601e-001  2.169748e-001  5.766561e-003
    outer loop
      vertex -4.898477e+001  1.002458e+001  1.000000e+000
      vertex -4.912392e+001  9.318827e+000  4.000000e+000
      vertex -4.844607e+001  1.236844e+001  4.000000e+000
    endloop
  endfacet
  facet normal -9.859625e-001 -3.081660e-002  1.640990e-001
    outer loop
      vertex -4.990240e+001 -3.122513e+000  4.000000e+000
      vertex -5.000000e+001  6.123234e-015  4.000000e+000
      vertex -4.999782e+001 -4.672859e-001  3.925357e+000
    endloop
  endfacet
  facet normal -9.985595e-001 -3.473261e-002  4.089888e-002
    outer loop
      vertex -4.990240e+001 -3.122513e+000  4.000000e+000
      vertex -4.999782e+001 -4.672859e-001  3.925357e+000
      vertex -4.999203e+001 -8.929669e-001  3.705238e+000
    endloop
  endfacet
  facet normal -9.991435e-001 -3.799703e-002  1.638473e-002
    outer loop
      vertex -4.990240e+001 -3.122513e+000  4.000000e+000
      vertex -4.999203e+001 -8.929669e-001  3.705238e+000
      vertex -4.998493e+001 -1.227497e+000  3.362120e+000
    endloop
  endfacet
  facet normal -9.991295e-001 -4.109577e-002  7.177172e-003
    outer loop
      vertex -4.990240e+001 -3.122513e+000  4.000000e+000
      vertex -4.998493e+001 -1.227497e+000  3.362120e+000
      vertex -4.997954e+001 -1.430246e+000  2.952092e+000
    endloop
  endfacet
  facet normal -9.990237e-001 -4.411803e-002  2.288754e-003
    outer loop
      vertex -4.990240e+001 -3.122513e+000  4.000000e+000
      vertex -4.997954e+001 -1.430246e+000  2.952092e+000
      vertex -4.997749e+001 -1.500000e+000  2.500000e+000
    endloop
  endfacet
  facet normal -9.987898e-001 -4.908456e-002 -3.095128e-003
    outer loop
      vertex -4.990240e+001 -3.122513e+000  4.000000e+000
      vertex -4.997749e+001 -1.500000e+000  2.500000e+000
      vertex -4.997959e+001 -1.428539e+000  2.042542e+000
    endloop
  endfacet
  facet normal -9.990707e-001 -4.304713e-002  2.140705e-003
    outer loop
      vertex -4.990240e+001 -3.122513e+000  4.000000e+000
      vertex -4.997959e+001 -1.428539e+000  2.042542e+000
      vertex -4.996552e+001 -1.856717e+000  0.000000e+000
    endloop
  endfacet
  facet normal -9.972121e-001 -7.421593e-002 -7.751956e-003
    outer loop
      vertex -4.990240e+001 -3.122513e+000  4.000000e+000
      vertex -4.996552e+001 -1.856717e+000  0.000000e+000
      vertex -4.968991e+001 -5.559909e+000  0.000000e+000
    endloop
  endfacet
  facet normal -9.956014e-001 -9.359858e-002  4.144406e-003
    outer loop
      vertex -4.990240e+001 -3.122513e+000  4.000000e+000
      vertex -4.968991e+001 -5.559909e+000  0.000000e+000
      vertex -4.961000e+001 -6.232836e+000  4.000000e+000
    endloop
  endfacet
  facet normal -9.980193e-001 -1.444084e-002 -6.122913e-002
    outer loop
      vertex -4.996552e+001  1.856717e+000  0.000000e+000
      vertex -4.999782e+001 -4.672859e-001  1.074643e+000
      vertex -5.000000e+001 -1.244772e-006  1.000000e+000
    endloop
  endfacet
  facet normal -9.997710e-001  7.848050e-003 -1.990535e-002
    outer loop
      vertex -4.996552e+001  1.856717e+000  0.000000e+000
      vertex -5.000000e+001 -1.244772e-006  1.000000e+000
      vertex -4.999782e+001  4.672859e-001  1.074643e+000
    endloop
  endfacet
  facet normal -9.998195e-001  1.746509e-002 -7.472710e-003
    outer loop
      vertex -4.996552e+001  1.856717e+000  0.000000e+000
      vertex -4.999782e+001  4.672859e-001  1.074643e+000
      vertex -4.999203e+001  8.929669e-001  1.294762e+000
    endloop
  endfacet
  facet normal -9.997101e-001  2.393017e-002 -2.658219e-003
    outer loop
      vertex -4.996552e+001  1.856717e+000  0.000000e+000
      vertex -4.999203e+001  8.929669e-001  1.294762e+000
      vertex -4.998493e+001  1.227497e+000  1.637880e+000
    endloop
  endfacet
  facet normal -9.995947e-001  2.845280e-002 -9.194034e-004
    outer loop
      vertex -4.996552e+001  1.856717e+000  0.000000e+000
      vertex -4.998493e+001  1.227497e+000  1.637880e+000
      vertex -4.997954e+001  1.430246e+000  2.047908e+000
    endloop
  endfacet
  facet normal -9.995086e-001  3.134701e-002 -3.161012e-004
    outer loop
      vertex -4.996552e+001  1.856717e+000  0.000000e+000
      vertex -4.997954e+001  1.430246e+000  2.047908e+000
      vertex -4.997749e+001  1.500000e+000  2.500000e+000
    endloop
  endfacet
  facet normal -9.989969e-001  4.475412e-002  1.599366e-003
    outer loop
      vertex -4.996552e+001  1.856717e+000  0.000000e+000
      vertex -4.997749e+001  1.500000e+000  2.500000e+000
      vertex -4.990240e+001  3.122513e+000  4.000000e+000
    endloop
  endfacet
  facet normal -9.972121e-001  7.421593e-002 -7.751956e-003
    outer loop
      vertex -4.996552e+001  1.856717e+000  0.000000e+000
      vertex -4.990240e+001  3.122513e+000  4.000000e+000
      vertex -4.968991e+001  5.559909e+000  0.000000e+000
    endloop
  endfacet
  facet normal -9.995952e-001 -2.843615e-002 -9.258048e-004
    outer loop
      vertex -4.996552e+001 -1.856717e+000  0.000000e+000
      vertex -4.997959e+001 -1.428539e+000  2.042542e+000
      vertex -4.998493e+001 -1.227497e+000  1.637880e+000
    endloop
  endfacet
  facet normal -9.997101e-001 -2.393014e-002 -2.658231e-003
    outer loop
      vertex -4.996552e+001 -1.856717e+000  0.000000e+000
      vertex -4.998493e+001 -1.227497e+000  1.637880e+000
      vertex -4.999203e+001 -8.929662e-001  1.294762e+000
    endloop
  endfacet
  facet normal -9.998195e-001 -1.746510e-002 -7.472695e-003
    outer loop
      vertex -4.996552e+001 -1.856717e+000  0.000000e+000
      vertex -4.999203e+001 -8.929662e-001  1.294762e+000
      vertex -4.999782e+001 -4.672859e-001  1.074643e+000
    endloop
  endfacet
  facet normal -9.995485e-001  0.000000e+000 -3.004559e-002
    outer loop
      vertex -4.996552e+001 -1.856717e+000  0.000000e+000
      vertex -4.999782e+001 -4.672859e-001  1.074643e+000
      vertex -4.996552e+001  1.856717e+000  0.000000e+000
    endloop
  endfacet
  facet normal -9.990246e-001  4.409426e-002  2.314504e-003
    outer loop
      vertex -4.990240e+001  3.122513e+000  4.000000e+000
      vertex -4.997749e+001  1.500000e+000  2.500000e+000
      vertex -4.997959e+001  1.428539e+000  2.957458e+000
    endloop
  endfacet
  facet normal -9.991297e-001  4.108302e-002  7.215096e-003
    outer loop
      vertex -4.990240e+001  3.122513e+000  4.000000e+000
      vertex -4.997959e+001  1.428539e+000  2.957458e+000
      vertex -4.998493e+001  1.227497e+000  3.362120e+000
    endloop
  endfacet
  facet normal -9.991436e-001  3.799702e-002  1.638478e-002
    outer loop
      vertex -4.990240e+001  3.122513e+000  4.000000e+000
      vertex -4.998493e+001  1.227497e+000  3.362120e+000
      vertex -4.999203e+001  8.929662e-001  3.705238e+000
    endloop
  endfacet
  facet normal -9.985595e-001  3.473261e-002  4.089887e-002
    outer loop
      vertex -4.990240e+001  3.122513e+000  4.000000e+000
      vertex -4.999203e+001  8.929662e-001  3.705238e+000
      vertex -4.999782e+001  4.672859e-001  3.925357e+000
    endloop
  endfacet
  facet normal -9.859625e-001  3.081660e-002  1.640990e-001
    outer loop
      vertex -4.990240e+001  3.122513e+000  4.000000e+000
      vertex -4.999782e+001  4.672859e-001  3.925357e+000
      vertex -5.000000e+001  6.123234e-015  4.000000e+000
    endloop
  endfacet
  facet normal -8.995626e-001 -4.367531e-001 -5.830443e-003
    outer loop
      vertex -4.563135e+001 -2.043967e+001  4.000000e+000
      vertex -4.588446e+001 -1.986495e+001  0.000000e+000
      vertex -4.428359e+001 -2.321559e+001  4.000000e+000
    endloop
  endfacet
  facet normal -9.023032e-001 -4.311021e-001  -0.000000e+000
    outer loop
      vertex -4.428359e+001 -2.321559e+001  4.000000e+000
      vertex -4.588446e+001 -1.986495e+001  0.000000e+000
      vertex -4.428359e+001 -2.321559e+001  0.000000e+000
    endloop
  endfacet
  facet normal -9.878009e-001 -1.555891e-001 -6.440205e-003
    outer loop
      vertex -4.961000e+001 -6.232836e+000  4.000000e+000
      vertex -4.968991e+001 -5.559909e+000  0.000000e+000
      vertex -4.912392e+001 -9.318827e+000  4.000000e+000
    endloop
  endfacet
  facet normal -9.889832e-001 -1.480254e-001  8.349760e-004
    outer loop
      vertex -4.912392e+001 -9.318827e+000  4.000000e+000
      vertex -4.968991e+001 -5.559909e+000  0.000000e+000
      vertex -4.914023e+001 -9.232434e+000  0.000000e+000
    endloop
  endfacet
  facet normal -9.878211e-001  1.555923e-001  6.668063e-004
    outer loop
      vertex -4.912392e+001  9.318827e+000  4.000000e+000
      vertex -4.914023e+001  9.232434e+000  0.000000e+000
      vertex -4.961000e+001  6.232836e+000  4.000000e+000
    endloop
  endfacet
  facet normal -9.889705e-001  1.480235e-001 -5.144055e-003
    outer loop
      vertex -4.961000e+001  6.232836e+000  4.000000e+000
      vertex -4.914023e+001  9.232434e+000  0.000000e+000
      vertex -4.968991e+001  5.559909e+000  0.000000e+000
    endloop
  endfacet
  facet normal -9.956014e-001  9.359858e-002  4.144406e-003
    outer loop
      vertex -4.961000e+001  6.232836e+000  4.000000e+000
      vertex -4.968991e+001  5.559909e+000  0.000000e+000
      vertex -4.990240e+001  3.122513e+000  4.000000e+000
    endloop
  endfacet
  facet normal -8.995626e-001  4.367531e-001 -5.830448e-003
    outer loop
      vertex -4.563135e+001  2.043967e+001  4.000000e+000
      vertex -4.428359e+001  2.321559e+001  4.000000e+000
      vertex -4.588446e+001  1.986495e+001  0.000000e+000
    endloop
  endfacet
  facet normal -9.023032e-001  4.311021e-001  0.000000e+000
    outer loop
      vertex -4.588446e+001  1.986495e+001  0.000000e+000
      vertex -4.428359e+001  2.321559e+001  4.000000e+000
      vertex -4.428359e+001  2.321559e+001  0.000000e+000
    endloop
  endfacet
  facet normal -2.694159e-003 -7.818287e-001  6.234875e-001
    outer loop
      vertex -4.998493e+001  1.227497e+000  1.637880e+000
      vertex -3.705814e+001  9.352347e-001  1.327253e+000
      vertex -3.705814e+001  1.351453e+000  1.849174e+000
    endloop
  endfacet
  facet normal -2.694158e-003  7.818287e-001  6.234875e-001
    outer loop
      vertex -4.998493e+001 -1.227497e+000  1.637880e+000
      vertex -3.705814e+001 -1.351453e+000  1.849174e+000
      vertex -3.705814e+001 -9.352347e-001  1.327253e+000
    endloop
  endfacet
  facet normal  1.198746e-003  1.577424e-001  9.874795e-001
    outer loop
      vertex -5.000000e+001 -1.244772e-006  1.000000e+000
      vertex -4.999782e+001 -4.672859e-001  1.074643e+000
      vertex -3.705814e+001 -3.337814e-001  1.037608e+000
    endloop
  endfacet
  facet normal -2.905918e-003  0.000000e+000  9.999958e-001
    outer loop
      vertex -5.000000e+001 -1.244772e-006  1.000000e+000
      vertex -3.705814e+001 -3.337814e-001  1.037608e+000
      vertex -3.705814e+001  3.337814e-001  1.037608e+000
    endloop
  endfacet
  facet normal  1.198755e-003 -1.577416e-001  9.874797e-001
    outer loop
      vertex -5.000000e+001 -1.244772e-006  1.000000e+000
      vertex -3.705814e+001  3.337814e-001  1.037608e+000
      vertex -4.999782e+001  4.672859e-001  1.074643e+000
    endloop
  endfacet
  facet normal  1.350868e-003 -8.964053e-001  4.432333e-001
    outer loop
      vertex -4.998493e+001  1.227497e+000  1.637880e+000
      vertex -3.705814e+001  1.351453e+000  1.849174e+000
      vertex -4.997954e+001  1.430246e+000  2.047908e+000
    endloop
  endfacet
  facet normal -2.522540e-003 -9.749248e-001  2.225202e-001
    outer loop
      vertex -4.997954e+001  1.430246e+000  2.047908e+000
      vertex -3.705814e+001  1.351453e+000  1.849174e+000
      vertex -3.705814e+001  1.500000e+000  2.500000e+000
    endloop
  endfacet
  facet normal  0.000000e+000 -9.883054e-001  1.524872e-001
    outer loop
      vertex -4.997954e+001  1.430246e+000  2.047908e+000
      vertex -3.705814e+001  1.500000e+000  2.500000e+000
      vertex -4.997749e+001  1.500000e+000  2.500000e+000
    endloop
  endfacet
  facet normal  5.863140e-004 -7.160162e-001  6.980833e-001
    outer loop
      vertex -4.998493e+001  1.227497e+000  1.637880e+000
      vertex -4.999203e+001  8.929669e-001  1.294762e+000
      vertex -3.705814e+001  9.352347e-001  1.327253e+000
    endloop
  endfacet
  facet normal -7.303471e-004 -4.593159e-001  8.882727e-001
    outer loop
      vertex -3.705814e+001  9.352347e-001  1.327253e+000
      vertex -4.999203e+001  8.929669e-001  1.294762e+000
      vertex -4.999782e+001  4.672859e-001  1.074643e+000
    endloop
  endfacet
  facet normal -1.897926e-003 -4.338829e-001  9.009673e-001
    outer loop
      vertex -3.705814e+001  9.352347e-001  1.327253e+000
      vertex -4.999782e+001  4.672859e-001  1.074643e+000
      vertex -3.705814e+001  3.337814e-001  1.037608e+000
    endloop
  endfacet
  facet normal  5.863207e-004  7.160161e-001  6.980835e-001
    outer loop
      vertex -4.998493e+001 -1.227497e+000  1.637880e+000
      vertex -3.705814e+001 -9.352347e-001  1.327253e+000
      vertex -4.999203e+001 -8.929662e-001  1.294762e+000
    endloop
  endfacet
  facet normal -8.453700e-004  4.338835e-001  9.009686e-001
    outer loop
      vertex -4.999203e+001 -8.929662e-001  1.294762e+000
      vertex -3.705814e+001 -9.352347e-001  1.327253e+000
      vertex -3.705814e+001 -3.337814e-001  1.037608e+000
    endloop
  endfacet
  facet normal -2.196467e-003  4.592988e-001  8.882793e-001
    outer loop
      vertex -4.999203e+001 -8.929662e-001  1.294762e+000
      vertex -3.705814e+001 -3.337814e-001  1.037608e+000
      vertex -4.999782e+001 -4.672859e-001  1.074643e+000
    endloop
  endfacet
  facet normal  1.315376e-003  8.955716e-001  4.449155e-001
    outer loop
      vertex -4.998493e+001 -1.227497e+000  1.637880e+000
      vertex -4.997959e+001 -1.428539e+000  2.042542e+000
      vertex -3.705814e+001 -1.351453e+000  1.849174e+000
    endloop
  endfacet
  facet normal -3.584268e-003  9.880087e-001  1.543563e-001
    outer loop
      vertex -3.705814e+001 -1.351453e+000  1.849174e+000
      vertex -4.997959e+001 -1.428539e+000  2.042542e+000
      vertex -4.997749e+001 -1.500000e+000  2.500000e+000
    endloop
  endfacet
  facet normal  -0.000000e+000  9.749279e-001  2.225209e-001
    outer loop
      vertex -3.705814e+001 -1.351453e+000  1.849174e+000
      vertex -4.997749e+001 -1.500000e+000  2.500000e+000
      vertex -3.705814e+001 -1.500000e+000  2.500000e+000
    endloop
  endfacet
  facet normal -2.091140e-003 -5.555690e-001 -8.314679e-001
    outer loop
      vertex -4.999203e+001  8.929662e-001  3.705238e+000
      vertex -3.705814e+001  1.060660e+000  3.560660e+000
      vertex -3.705814e+001  5.740252e-001  3.885819e+000
    endloop
  endfacet
  facet normal  1.480355e-003 -7.160245e-001 -6.980736e-001
    outer loop
      vertex -3.705814e+001  1.060660e+000  3.560660e+000
      vertex -4.999203e+001  8.929662e-001  3.705238e+000
      vertex -4.998493e+001  1.227497e+000  3.362120e+000
    endloop
  endfacet
  facet normal -2.198285e-003 -8.314675e-001 -5.555690e-001
    outer loop
      vertex -4.998493e+001  1.227497e+000  3.362120e+000
      vertex -3.705814e+001  1.385819e+000  3.074025e+000
      vertex -3.705814e+001  1.060660e+000  3.560660e+000
    endloop
  endfacet
  facet normal  1.074894e-003 -4.593347e-001 -8.882626e-001
    outer loop
      vertex -4.999203e+001  8.929662e-001  3.705238e+000
      vertex -3.705814e+001  5.740252e-001  3.885819e+000
      vertex -4.999782e+001  4.672859e-001  3.925357e+000
    endloop
  endfacet
  facet normal -1.387561e-003 -1.950903e-001 -9.807842e-001
    outer loop
      vertex -4.999782e+001  4.672859e-001  3.925357e+000
      vertex -3.705814e+001  5.740252e-001  3.885819e+000
      vertex -3.705814e+001 -8.881784e-016  4.000000e+000
    endloop
  endfacet
  facet normal -8.545590e-017 -1.577369e-001 -9.874812e-001
    outer loop
      vertex -4.999782e+001  4.672859e-001  3.925357e+000
      vertex -3.705814e+001 -8.881784e-016  4.000000e+000
      vertex -5.000000e+001  6.123234e-015  4.000000e+000
    endloop
  endfacet
  facet normal  1.052857e-003 -8.955705e-001 -4.449183e-001
    outer loop
      vertex -4.998493e+001  1.227497e+000  3.362120e+000
      vertex -4.997959e+001  1.428539e+000  2.957458e+000
      vertex -3.705814e+001  1.385819e+000  3.074025e+000
    endloop
  endfacet
  facet normal -1.874070e-003 -9.880146e-001 -1.543494e-001
    outer loop
      vertex -3.705814e+001  1.385819e+000  3.074025e+000
      vertex -4.997959e+001  1.428539e+000  2.957458e+000
      vertex -4.997749e+001  1.500000e+000  2.500000e+000
    endloop
  endfacet
  facet normal  0.000000e+000 -9.807854e-001 -1.950903e-001
    outer loop
      vertex -3.705814e+001  1.385819e+000  3.074025e+000
      vertex -4.997749e+001  1.500000e+000  2.500000e+000
      vertex -3.705814e+001  1.500000e+000  2.500000e+000
    endloop
  endfacet
  facet normal -2.198285e-003  8.314675e-001 -5.555690e-001
    outer loop
      vertex -4.998493e+001 -1.227497e+000  3.362120e+000
      vertex -3.705814e+001 -1.060660e+000  3.560660e+000
      vertex -3.705814e+001 -1.385819e+000  3.074025e+000
    endloop
  endfacet
  facet normal  1.480348e-003  7.160247e-001 -6.980733e-001
    outer loop
      vertex -4.999203e+001 -8.929669e-001  3.705238e+000
      vertex -3.705814e+001 -1.060660e+000  3.560660e+000
      vertex -4.998493e+001 -1.227497e+000  3.362120e+000
    endloop
  endfacet
  facet normal -2.091140e-003  5.555690e-001 -8.314679e-001
    outer loop
      vertex -3.705814e+001 -5.740252e-001  3.885819e+000
      vertex -3.705814e+001 -1.060660e+000  3.560660e+000
      vertex -4.999203e+001 -8.929669e-001  3.705238e+000
    endloop
  endfacet
  facet normal  1.100564e-003  8.964043e-001 -4.432360e-001
    outer loop
      vertex -4.998493e+001 -1.227497e+000  3.362120e+000
      vertex -3.705814e+001 -1.385819e+000  3.074025e+000
      vertex -4.997954e+001 -1.430246e+000  2.952092e+000
    endloop
  endfacet
  facet normal -1.531187e-003  9.807841e-001 -1.950901e-001
    outer loop
      vertex -4.997954e+001 -1.430246e+000  2.952092e+000
      vertex -3.705814e+001 -1.385819e+000  3.074025e+000
      vertex -3.705814e+001 -1.500000e+000  2.500000e+000
    endloop
  endfacet
  facet normal  0.000000e+000  9.883054e-001 -1.524872e-001
    outer loop
      vertex -4.997954e+001 -1.430246e+000  2.952092e+000
      vertex -3.705814e+001 -1.500000e+000  2.500000e+000
      vertex -4.997749e+001 -1.500000e+000  2.500000e+000
    endloop
  endfacet
  facet normal  1.074896e-003  4.593348e-001 -8.882625e-001
    outer loop
      vertex -4.999203e+001 -8.929669e-001  3.705238e+000
      vertex -4.999782e+001 -4.672859e-001  3.925357e+000
      vertex -3.705814e+001 -5.740252e-001  3.885819e+000
    endloop
  endfacet
  facet normal -1.716218e-003  1.577288e-001 -9.874809e-001
    outer loop
      vertex -3.705814e+001 -5.740252e-001  3.885819e+000
      vertex -4.999782e+001 -4.672859e-001  3.925357e+000
      vertex -5.000000e+001  6.123234e-015  4.000000e+000
    endloop
  endfacet
  facet normal  1.056927e-016  1.950905e-001 -9.807852e-001
    outer loop
      vertex -3.705814e+001 -5.740252e-001  3.885819e+000
      vertex -5.000000e+001  6.123234e-015  4.000000e+000
      vertex -3.705814e+001 -8.881784e-016  4.000000e+000
    endloop
  endfacet
  facet normal -1.000000e+000  0.000000e+000  -0.000000e+000
    outer loop
      vertex  4.500000e+001 -1.992976e+001  1.000000e+000
      vertex  4.500000e+001 -1.758590e+001  4.000000e+000
      vertex  4.500000e+001 -1.002458e+001  1.000000e+000
    endloop
  endfacet
  facet normal -9.999999e-001  0.000000e+000  0.000000e+000
    outer loop
      vertex  4.500000e+001 -1.002458e+001  1.000000e+000
      vertex  4.500000e+001 -1.758590e+001  4.000000e+000
      vertex  4.500000e+001 -1.236844e+001  4.000000e+000
    endloop
  endfacet
  facet normal -1.000000e+000  0.000000e+000  -0.000000e+000
    outer loop
      vertex  4.500000e+001  1.002458e+001  1.000000e+000
      vertex  4.500000e+001  1.236844e+001  4.000000e+000
      vertex  4.500000e+001  1.992976e+001  1.000000e+000
    endloop
  endfacet
  facet normal -9.999999e-001  0.000000e+000  0.000000e+000
    outer loop
      vertex  4.500000e+001  1.992976e+001  1.000000e+000
      vertex  4.500000e+001  1.236844e+001  4.000000e+000
      vertex  4.500000e+001  1.758590e+001  4.000000e+000
    endloop
  endfacet
  facet normal  0.000000e+000  7.880107e-001 -6.156614e-001
    outer loop
      vertex  4.500000e+001 -1.992976e+001  1.000000e+000
      vertex -4.585635e+001 -1.992976e+001  1.000000e+000
      vertex  4.500000e+001 -1.758590e+001  4.000000e+000
    endloop
  endfacet
  facet normal  0.000000e+000  7.880108e-001 -6.156614e-001
    outer loop
      vertex  4.500000e+001 -1.758590e+001  4.000000e+000
      vertex -4.585635e+001 -1.992976e+001  1.000000e+000
      vertex -4.680530e+001 -1.758590e+001  4.000000e+000
    endloop
  endfacet
  facet normal  0.000000e+000 -7.880107e-001 -6.156614e-001
    outer loop
      vertex  4.500000e+001  1.992976e+001  1.000000e+000
      vertex  4.500000e+001  1.758590e+001  4.000000e+000
      vertex -4.585635e+001  1.992976e+001  1.000000e+000
    endloop
  endfacet
  facet normal  0.000000e+000 -7.880108e-001 -6.156615e-001
    outer loop
      vertex -4.585635e+001  1.992976e+001  1.000000e+000
      vertex  4.500000e+001  1.758590e+001  4.000000e+000
      vertex -4.680530e+001  1.758590e+001  4.000000e+000
    endloop
  endfacet
  facet normal  0.000000e+000  7.880108e-001 -6.156615e-001
    outer loop
      vertex  4.500000e+001  1.002458e+001  1.000000e+000
      vertex -4.898477e+001  1.002458e+001  1.000000e+000
      vertex  4.500000e+001  1.236844e+001  4.000000e+000
    endloop
  endfacet
  facet normal  0.000000e+000  7.880108e-001 -6.156614e-001
    outer loop
      vertex  4.500000e+001  1.236844e+001  4.000000e+000
      vertex -4.898477e+001  1.002458e+001  1.000000e+000
      vertex -4.844607e+001  1.236844e+001  4.000000e+000
    endloop
  endfacet
  facet normal  0.000000e+000 -7.880108e-001 -6.156615e-001
    outer loop
      vertex  4.500000e+001 -1.002458e+001  1.000000e+000
      vertex  4.500000e+001 -1.236844e+001  4.000000e+000
      vertex -4.898477e+001 -1.002458e+001  1.000000e+000
    endloop
  endfacet
  facet normal  0.000000e+000 -7.880108e-001 -6.156614e-001
    outer loop
      vertex -4.898477e+001 -1.002458e+001  1.000000e+000
      vertex  4.500000e+001 -1.236844e+001  4.000000e+000
      vertex -4.844607e+001 -1.236844e+001  4.000000e+000
    endloop
  endfacet
  facet normal  0.000000e+000  0.000000e+000  1.000000e+000
    outer loop
      vertex  4.500000e+001  1.002458e+001  1.000000e+000
      vertex  4.500000e+001  1.992976e+001  1.000000e+000
      vertex -4.898477e+001  1.002458e+001  1.000000e+000
    endloop
  endfacet
  facet normal  0.000000e+000  0.000000e+000  9.999999e-001
    outer loop
      vertex -4.898477e+001  1.002458e+001  1.000000e+000
      vertex  4.500000e+001  1.992976e+001  1.000000e+000
      vertex -4.585635e+001  1.992976e+001  1.000000e+000
    endloop
  endfacet
  facet normal  0.000000e+000  0.000000e+000  1.000000e+000
    outer loop
      vertex -4.898477e+001  1.002458e+001  1.000000e+000
      vertex -4.585635e+001  1.992976e+001  1.000000e+000
      vertex -4.817204e+001  1.339606e+001  1.000000e+000
    endloop
  endfacet
  facet normal  0.000000e+000  0.000000e+000  1.000000e+000
    outer loop
      vertex -4.817204e+001  1.339606e+001  1.000000e+000
      vertex -4.585635e+001  1.992976e+001  1.000000e+000
      vertex -4.712756e+001  1.670309e+001  1.000000e+000
    endloop
  endfacet
  facet normal  0.000000e+000  0.000000e+000  9.999999e-001
    outer loop
      vertex  4.500000e+001 -1.992976e+001  1.000000e+000
      vertex  4.500000e+001 -1.002458e+001  1.000000e+000
      vertex -4.585635e+001 -1.992976e+001  1.000000e+000
    endloop
  endfacet
  facet normal  0.000000e+000  -0.000000e+000  1.000000e+000
    outer loop
      vertex -4.585635e+001 -1.992976e+001  1.000000e+000
      vertex  4.500000e+001 -1.002458e+001  1.000000e+000
      vertex -4.898477e+001 -1.002458e+001  1.000000e+000
    endloop
  endfacet
  facet normal  0.000000e+000  0.000000e+000  1.000000e+000
    outer loop
      vertex -4.585635e+001 -1.992976e+001  1.000000e+000
      vertex -4.898477e+001 -1.002458e+001  1.000000e+000
      vertex -4.712756e+001 -1.670309e+001  1.000000e+000
    endloop
  endfacet
  facet normal  0.000000e+000  0.000000e+000  1.000000e+000
    outer loop
      vertex -4.712756e+001 -1.670309e+001  1.000000e+000
      vertex -4.898477e+001 -1.002458e+001  1.000000e+000
      vertex -4.817204e+001 -1.339606e+001  1.000000e+000
    endloop
  endfacet
  facet normal  0.000000e+000  0.000000e+000 -1.000000e+000
    outer loop
      vertex -4.914023e+001 -9.232434e+000  0.000000e+000
      vertex -4.968991e+001 -5.559909e+000  0.000000e+000
      vertex -4.996552e+001 -1.856717e+000  0.000000e+000
    endloop
  endfacet
  facet normal  0.000000e+000  0.000000e+000 -1.000000e+000
    outer loop
      vertex -4.914023e+001 -9.232434e+000  0.000000e+000
      vertex -4.996552e+001 -1.856717e+000  0.000000e+000
      vertex -3.705814e+001 -8.000000e+000  0.000000e+000
    endloop
  endfacet
  facet normal  0.000000e+000  0.000000e+000 -9.999999e-001
    outer loop
      vertex -4.914023e+001 -9.232434e+000  0.000000e+000
      vertex -3.705814e+001 -8.000000e+000  0.000000e+000
      vertex -4.428359e+001 -2.321559e+001  0.000000e+000
    endloop
  endfacet
  facet normal  0.000000e+000  0.000000e+000 -1.000000e+000
    outer loop
      vertex -4.914023e+001 -9.232434e+000  0.000000e+000
      vertex -4.428359e+001 -2.321559e+001  0.000000e+000
      vertex -4.588446e+001 -1.986495e+001  0.000000e+000
    endloop
  endfacet
  facet normal  0.000000e+000  0.000000e+000 -1.000000e+000
    outer loop
      vertex -4.914023e+001 -9.232434e+000  0.000000e+000
      vertex -4.588446e+001 -1.986495e+001  0.000000e+000
      vertex -4.723224e+001 -1.640473e+001  0.000000e+000
    endloop
  endfacet
  facet normal  0.000000e+000  0.000000e+000 -1.000000e+000
    outer loop
      vertex -4.914023e+001 -9.232434e+000  0.000000e+000
      vertex -4.723224e+001 -1.640473e+001  0.000000e+000
      vertex -4.831950e+001 -1.285403e+001  0.000000e+000
    endloop
  endfacet
  facet normal  0.000000e+000  0.000000e+000 -9.999999e-001
    outer loop
      vertex  3.694252e+001 -8.000000e+000  0.000000e+000
      vertex  3.694252e+001  8.000000e+000  0.000000e+000
      vertex  4.996552e+001  1.856717e+000  0.000000e+000
    endloop
  endfacet
  facet normal  0.000000e+000  -0.000000e+000 -1.000000e+000
    outer loop
      vertex  3.694252e+001 -8.000000e+000  0.000000e+000
      vertex  4.996552e+001  1.856717e+000  0.000000e+000
      vertex  4.996552e+001 -1.856717e+000  0.000000e+000
    endloop
  endfacet
  facet normal  0.000000e+000  0.000000e+000 -1.000000e+000
    outer loop
      vertex  3.694252e+001 -8.000000e+000  0.000000e+000
      vertex  4.996552e+001 -1.856717e+000  0.000000e+000
      vertex  4.968991e+001 -5.559909e+000  0.000000e+000
    endloop
  endfacet
  facet normal  0.000000e+000  0.000000e+000 -1.000000e+000
    outer loop
      vertex  3.694252e+001 -8.000000e+000  0.000000e+000
      vertex  4.968991e+001 -5.559909e+000  0.000000e+000
      vertex  4.914023e+001 -9.232434e+000  0.000000e+000
    endloop
  endfacet
  facet normal  -0.000000e+000  0.000000e+000 -1.000000e+000
    outer loop
      vertex  3.694252e+001 -8.000000e+000  0.000000e+000
      vertex  4.914023e+001 -9.232434e+000  0.000000e+000
      vertex  4.831950e+001 -1.285403e+001  0.000000e+000
    endloop
  endfacet
  facet normal  -0.000000e+000  0.000000e+000 -1.000000e+000
    outer loop
      vertex  3.694252e+001 -8.000000e+000  0.000000e+000
      vertex  4.831950e+001 -1.285403e+001  0.000000e+000
      vertex  4.723224e+001 -1.640473e+001  0.000000e+000
    endloop
  endfacet
  facet normal  -0.000000e+000  0.000000e+000 -1.000000e+000
    outer loop
      vertex  3.694252e+001 -8.000000e+000  0.000000e+000
      vertex  4.723224e+001 -1.640473e+001  0.000000e+000
      vertex  4.588446e+001 -1.986495e+001  0.000000e+000
    endloop
  endfacet
  facet normal  -0.000000e+000  0.000000e+000 -1.000000e+000
    outer loop
      vertex  3.694252e+001 -8.000000e+000  0.000000e+000
      vertex  4.588446e+001 -1.986495e+001  0.000000e+000
      vertex  4.428359e+001 -2.321559e+001  0.000000e+000
    endloop
  endfacet
  facet normal  0.000000e+000  0.000000e+000 -1.000000e+000
    outer loop
      vertex  3.694252e+001 -8.000000e+000  0.000000e+000
      vertex  4.428359e+001 -2.321559e+001  0.000000e+000
      vertex -4.428359e+001 -2.321559e+001  0.000000e+000
    endloop
  endfacet
  facet normal  0.000000e+000  0.000000e+000 -1.000000e+000
    outer loop
      vertex  3.694252e+001 -8.000000e+000  0.000000e+000
      vertex -4.428359e+001 -2.321559e+001  0.000000e+000
      vertex -3.705814e+001 -8.000000e+000  0.000000e+000
    endloop
  endfacet
  facet normal  0.000000e+000  -0.000000e+000 -1.000000e+000
    outer loop
      vertex -4.914023e+001  9.232434e+000  0.000000e+000
      vertex -4.831950e+001  1.285403e+001  0.000000e+000
      vertex -4.723224e+001  1.640473e+001  0.000000e+000
    endloop
  endfacet
  facet normal  0.000000e+000  -0.000000e+000 -1.000000e+000
    outer loop
      vertex -4.914023e+001  9.232434e+000  0.000000e+000
      vertex -4.723224e+001  1.640473e+001  0.000000e+000
      vertex -4.588446e+001  1.986495e+001  0.000000e+000
    endloop
  endfacet
  facet normal  0.000000e+000  -0.000000e+000 -1.000000e+000
    outer loop
      vertex -4.914023e+001  9.232434e+000  0.000000e+000
      vertex -4.588446e+001  1.986495e+001  0.000000e+000
      vertex -4.428359e+001  2.321559e+001  0.000000e+000
    endloop
  endfacet
  facet normal  0.000000e+000  -0.000000e+000 -9.999999e-001
    outer loop
      vertex -4.914023e+001  9.232434e+000  0.000000e+000
      vertex -4.428359e+001  2.321559e+001  0.000000e+000
      vertex -3.705814e+001  8.000000e+000  0.000000e+000
    endloop
  endfacet
  facet normal  -0.000000e+000  0.000000e+000 -1.000000e+000
    outer loop
      vertex -4.914023e+001  9.232434e+000  0.000000e+000
      vertex -3.705814e+001  8.000000e+000  0.000000e+000
      vertex -4.996552e+001  1.856717e+000  0.000000e+000
    endloop
  endfacet
  facet normal  0.000000e+000  0.000000e+000 -1.000000e+000
    outer loop
      vertex -4.914023e+001  9.232434e+000  0.000000e+000
      vertex -4.996552e+001  1.856717e+000  0.000000e+000
      vertex -4.968991e+001  5.559909e+000  0.000000e+000
    endloop
  endfacet
  facet normal  0.000000e+000  0.000000e+000 -1.000000e+000
    outer loop
      vertex  3.694252e+001  8.000000e+000  0.000000e+000
      vertex -3.705814e+001  8.000000e+000  0.000000e+000
      vertex -4.428359e+001  2.321559e+001  0.000000e+000
    endloop
  endfacet
  facet normal  0.000000e+000  0.000000e+000 -1.000000e+000
    outer loop
      vertex  3.694252e+001  8.000000e+000  0.000000e+000
      vertex -4.428359e+001  2.321559e+001  0.000000e+000
      vertex  4.428359e+001  2.321559e+001  0.000000e+000
    endloop
  endfacet
  facet normal  0.000000e+000  -0.000000e+000 -1.000000e+000
    outer loop
      vertex  3.694252e+001  8.000000e+000  0.000000e+000
      vertex  4.428359e+001  2.321559e+001  0.000000e+000
      vertex  4.588446e+001  1.986495e+001  0.000000e+000
    endloop
  endfacet
  facet normal  0.000000e+000  -0.000000e+000 -1.000000e+000
    outer loop
      vertex  3.694252e+001  8.000000e+000  0.000000e+000
      vertex  4.588446e+001  1.986495e+001  0.000000e+000
      vertex  4.723224e+001  1.640473e+001  0.000000e+000
    endloop
  endfacet
  facet normal  0.000000e+000  -0.000000e+000 -1.000000e+000
    outer loop
      vertex  3.694252e+001  8.000000e+000  0.000000e+000
      vertex  4.723224e+001  1.640473e+001  0.000000e+000
      vertex  4.831950e+001  1.285403e+001  0.000000e+000
    endloop
  endfacet
  facet normal  0.000000e+000  -0.000000e+000 -1.000000e+000
    outer loop
      vertex  3.694252e+001  8.000000e+000  0.000000e+000
      vertex  4.831950e+001  1.285403e+001  0.000000e+000
      vertex  4.914023e+001  9.232434e+000  0.000000e+000
    endloop
  endfacet
  facet normal  0.000000e+000  -0.000000e+000 -1.000000e+000
    outer loop
      vertex  3.694252e+001  8.000000e+000  0.000000e+000
      vertex  4.914023e+001  9.232434e+000  0.000000e+000
      vertex  4.968991e+001  5.559909e+000  0.000000e+000
    endloop
  endfacet
  facet normal  -0.000000e+000  -0.000000e+000 -1.000000e+000
    outer loop
      vertex  3.694252e+001  8.000000e+000  0.000000e+000
      vertex  4.968991e+001  5.559909e+000  0.000000e+000
      vertex  4.996552e+001  1.856717e+000  0.000000e+000
    endloop
  endfacet
  facet normal  0.000000e+000  0.000000e+000 -9.999999e-001
    outer loop
      vertex -4.996552e+001  1.856717e+000  0.000000e+000
      vertex -3.705814e+001  8.000000e+000  0.000000e+000
      vertex -4.996552e+001 -1.856717e+000  0.000000e+000
    endloop
  endfacet
  facet normal  0.000000e+000  0.000000e+000 -1.000000e+000
    outer loop
      vertex -4.996552e+001 -1.856717e+000  0.000000e+000
      vertex -3.705814e+001  8.000000e+000  0.000000e+000
      vertex -3.705814e+001 -8.000000e+000  0.000000e+000
    endloop
  endfacet
  facet normal  0.000000e+000  1.000000e+000  0.000000e+000
    outer loop
      vertex  3.694252e+001 -8.000000e+000  0.000000e+000
      vertex -3.705814e+001 -8.000000e+000  0.000000e+000
      vertex  3.694252e+001 -8.000000e+000  4.000000e+000
    endloop
  endfacet
  facet normal  0.000000e+000  1.000000e+000  0.000000e+000
    outer loop
      vertex  3.694252e+001 -8.000000e+000  4.000000e+000
      vertex -3.705814e+001 -8.000000e+000  0.000000e+000
      vertex -3.705814e+001 -8.000000e+000  4.000000e+000
    endloop
  endfacet
  facet normal -1.000000e+000  0.000000e+000  0.000000e+000
    outer loop
      vertex  3.694252e+001 -8.000000e+000  0.000000e+000
      vertex  3.694252e+001 -8.000000e+000  4.000000e+000
      vertex  3.694252e+001  8.000000e+000  0.000000e+000
    endloop
  endfacet
  facet normal -1.000000e+000  0.000000e+000  0.000000e+000
    outer loop
      vertex  3.694252e+001  8.000000e+000  0.000000e+000
      vertex  3.694252e+001 -8.000000e+000  4.000000e+000
      vertex  3.694252e+001  8.000000e+000  4.000000e+000
    endloop
  endfacet
  facet normal  0.000000e+000 -1.000000e+000  0.000000e+000
    outer loop
      vertex -3.705814e+001  8.000000e+000  0.000000e+000
      vertex  3.694252e+001  8.000000e+000  0.000000e+000
      vertex -3.705814e+001  8.000000e+000  4.000000e+000
    endloop
  endfacet
  facet normal  0.000000e+000 -1.000000e+000  0.000000e+000
    outer loop
      vertex -3.705814e+001  8.000000e+000  4.000000e+000
      vertex  3.694252e+001  8.000000e+000  0.000000e+000
      vertex  3.694252e+001  8.000000e+000  4.000000e+000
    endloop
  endfacet
  facet normal  0.000000e+000  9.999999e-001  0.000000e+000
    outer loop
      vertex -4.428359e+001  2.321559e+001  4.000000e+000
      vertex  4.428359e+001  2.321559e+001  4.000000e+000
      vertex -4.428359e+001  2.321559e+001  0.000000e+000
    endloop
  endfacet
  facet normal  0.000000e+000  9.999999e-001  0.000000e+000
    outer loop
      vertex -4.428359e+001  2.321559e+001  0.000000e+000
      vertex  4.428359e+001  2.321559e+001  4.000000e+000
      vertex  4.428359e+001  2.321559e+001  0.000000e+000
    endloop
  endfacet
  facet normal  9.023032e-001  4.311021e-001  0.000000e+000
    outer loop
      vertex  4.428359e+001  2.321559e+001  0.000000e+000
      vertex  4.428359e+001  2.321559e+001  4.000000e+000
      vertex  4.588446e+001  1.986495e+001  0.000000e+000
    endloop
  endfacet
  facet normal  9.023032e-001  4.311021e-001  -0.000000e+000
    outer loop
      vertex  4.588446e+001  1.986495e+001  0.000000e+000
      vertex  4.428359e+001  2.321559e+001  4.000000e+000
      vertex  4.588446e+001  1.986495e+001  4.000000e+000
    endloop
  endfacet
  facet normal  9.318095e-001  3.629475e-001  0.000000e+000
    outer loop
      vertex  4.588446e+001  1.986495e+001  0.000000e+000
      vertex  4.588446e+001  1.986495e+001  4.000000e+000
      vertex  4.723224e+001  1.640473e+001  0.000000e+000
    endloop
  endfacet
  facet normal  9.318095e-001  3.629475e-001  -0.000000e+000
    outer loop
      vertex  4.723224e+001  1.640473e+001  0.000000e+000
      vertex  4.588446e+001  1.986495e+001  4.000000e+000
      vertex  4.723224e+001  1.640473e+001  4.000000e+000
    endloop
  endfacet
  facet normal  9.561770e-001  2.927893e-001  0.000000e+000
    outer loop
      vertex  4.723224e+001  1.640473e+001  0.000000e+000
      vertex  4.723224e+001  1.640473e+001  4.000000e+000
      vertex  4.831950e+001  1.285403e+001  0.000000e+000
    endloop
  endfacet
  facet normal  9.561770e-001  2.927893e-001  -0.000000e+000
    outer loop
      vertex  4.831950e+001  1.285403e+001  0.000000e+000
      vertex  4.723224e+001  1.640473e+001  4.000000e+000
      vertex  4.831950e+001  1.285403e+001  4.000000e+000
    endloop
  endfacet
  facet normal  9.752700e-001  2.210171e-001  0.000000e+000
    outer loop
      vertex  4.831950e+001  1.285403e+001  0.000000e+000
      vertex  4.831950e+001  1.285403e+001  4.000000e+000
      vertex  4.914023e+001  9.232434e+000  0.000000e+000
    endloop
  endfacet
  facet normal  9.752700e-001  2.210171e-001  -0.000000e+000
    outer loop
      vertex  4.914023e+001  9.232434e+000  0.000000e+000
      vertex  4.831950e+001  1.285403e+001  4.000000e+000
      vertex  4.914023e+001  9.232434e+000  4.000000e+000
    endloop
  endfacet
  facet normal  9.889836e-001  1.480254e-001  0.000000e+000
    outer loop
      vertex  4.914023e+001  9.232434e+000  0.000000e+000
      vertex  4.914023e+001  9.232434e+000  4.000000e+000
      vertex  4.968991e+001  5.559909e+000  0.000000e+000
    endloop
  endfacet
  facet normal  9.889836e-001  1.480254e-001  -0.000000e+000
    outer loop
      vertex  4.968991e+001  5.559909e+000  0.000000e+000
      vertex  4.914023e+001  9.232434e+000  4.000000e+000
      vertex  4.968991e+001  5.559909e+000  4.000000e+000
    endloop
  endfacet
  facet normal  9.972421e-001  7.421817e-002  0.000000e+000
    outer loop
      vertex  4.968991e+001  5.559909e+000  0.000000e+000
      vertex  4.968991e+001  5.559909e+000  4.000000e+000
      vertex  4.996552e+001  1.856717e+000  0.000000e+000
    endloop
  endfacet
  facet normal  9.972421e-001  7.421817e-002  -0.000000e+000
    outer loop
      vertex  4.996552e+001  1.856717e+000  0.000000e+000
      vertex  4.968991e+001  5.559909e+000  4.000000e+000
      vertex  4.996552e+001  1.856717e+000  4.000000e+000
    endloop
  endfacet
  facet normal  1.000000e+000  0.000000e+000  0.000000e+000
    outer loop
      vertex  4.996552e+001  1.856717e+000  0.000000e+000
      vertex  4.996552e+001  1.856717e+000  4.000000e+000
      vertex  4.996552e+001 -1.856717e+000  0.000000e+000
    endloop
  endfacet
  facet normal  1.000000e+000  0.000000e+000  0.000000e+000
    outer loop
      vertex  4.996552e+001 -1.856717e+000  0.000000e+000
      vertex  4.996552e+001  1.856717e+000  4.000000e+000
      vertex  4.996552e+001 -1.856717e+000  4.000000e+000
    endloop
  endfacet
  facet normal  9.972421e-001 -7.421817e-002  0.000000e+000
    outer loop
      vertex  4.996552e+001 -1.856717e+000  0.000000e+000
      vertex  4.996552e+001 -1.856717e+000  4.000000e+000
      vertex  4.968991e+001 -5.559909e+000  0.000000e+000
    endloop
  endfacet
  facet normal  9.972421e-001 -7.421817e-002  0.000000e+000
    outer loop
      vertex  4.968991e+001 -5.559909e+000  0.000000e+000
      vertex  4.996552e+001 -1.856717e+000  4.000000e+000
      vertex  4.968991e+001 -5.559909e+000  4.000000e+000
    endloop
  endfacet
  facet normal  9.889836e-001 -1.480254e-001  0.000000e+000
    outer loop
      vertex  4.968991e+001 -5.559909e+000  0.000000e+000
      vertex  4.968991e+001 -5.559909e+000  4.000000e+000
      vertex  4.914023e+001 -9.232434e+000  0.000000e+000
    endloop
  endfacet
  facet normal  9.889836e-001 -1.480254e-001  0.000000e+000
    outer loop
      vertex  4.914023e+001 -9.232434e+000  0.000000e+000
      vertex  4.968991e+001 -5.559909e+000  4.000000e+000
      vertex  4.914023e+001 -9.232434e+000  4.000000e+000
    endloop
  endfacet
  facet normal  9.752700e-001 -2.210171e-001  0.000000e+000
    outer loop
      vertex  4.914023e+001 -9.232434e+000  0.000000e+000
      vertex  4.914023e+001 -9.232434e+000  4.000000e+000
      vertex  4.831950e+001 -1.285403e+001  0.000000e+000
    endloop
  endfacet
  facet normal  9.752700e-001 -2.210171e-001  0.000000e+000
    outer loop
      vertex  4.831950e+001 -1.285403e+001  0.000000e+000
      vertex  4.914023e+001 -9.232434e+000  4.000000e+000
      vertex  4.831950e+001 -1.285403e+001  4.000000e+000
    endloop
  endfacet
  facet normal  9.561770e-001 -2.927893e-001  0.000000e+000
    outer loop
      vertex  4.831950e+001 -1.285403e+001  0.000000e+000
      vertex  4.831950e+001 -1.285403e+001  4.000000e+000
      vertex  4.723224e+001 -1.640473e+001  0.000000e+000
    endloop
  endfacet
  facet normal  9.561770e-001 -2.927893e-001  0.000000e+000
    outer loop
      vertex  4.723224e+001 -1.640473e+001  0.000000e+000
      vertex  4.831950e+001 -1.285403e+001  4.000000e+000
      vertex  4.723224e+001 -1.640473e+001  4.000000e+000
    endloop
  endfacet
  facet normal  9.318095e-001 -3.629475e-001  0.000000e+000
    outer loop
      vertex  4.723224e+001 -1.640473e+001  0.000000e+000
      vertex  4.723224e+001 -1.640473e+001  4.000000e+000
      vertex  4.588446e+001 -1.986495e+001  0.000000e+000
    endloop
  endfacet
  facet normal  9.318095e-001 -3.629475e-001  0.000000e+000
    outer loop
      vertex  4.588446e+001 -1.986495e+001  0.000000e+000
      vertex  4.723224e+001 -1.640473e+001  4.000000e+000
      vertex  4.588446e+001 -1.986495e+001  4.000000e+000
    endloop
  endfacet
  facet normal  9.023032e-001 -4.311021e-001  0.000000e+000
    outer loop
      vertex  4.588446e+001 -1.986495e+001  0.000000e+000
      vertex  4.588446e+001 -1.986495e+001  4.000000e+000
      vertex  4.428359e+001 -2.321559e+001  0.000000e+000
    endloop
  endfacet
  facet normal  9.023032e-001 -4.311021e-001  0.000000e+000
    outer loop
      vertex  4.428359e+001 -2.321559e+001  0.000000e+000
      vertex  4.588446e+001 -1.986495e+001  4.000000e+000
      vertex  4.428359e+001 -2.321559e+001  4.000000e+000
    endloop
  endfacet
  facet normal  0.000000e+000 -9.999999e-001  0.000000e+000
    outer loop
      vertex -4.428359e+001 -2.321559e+001  4.000000e+000
      vertex -4.428359e+001 -2.321559e+001  0.000000e+000
      vertex  4.428359e+001 -2.321559e+001  4.000000e+000
    endloop
  endfacet
  facet normal  0.000000e+000 -9.999999e-001  -0.000000e+000
    outer loop
      vertex  4.428359e+001 -2.321559e+001  4.000000e+000
      vertex -4.428359e+001 -2.321559e+001  0.000000e+000
      vertex  4.428359e+001 -2.321559e+001  0.000000e+000
    endloop
  endfacet
endsolid CATIA STL
