solid CATIA STL
  facet normal -1.000000e+000  0.000000e+000  0.000000e+000
    outer loop
      vertex -5.000000e+000 -4.500000e+000 -1.111359e+001
      vertex -5.000000e+000 -6.326943e+000 -1.034080e+001
      vertex -5.000000e+000  4.500000e+000 -1.111359e+001
    endloop
  endfacet
  facet normal -1.000000e+000  -0.000000e+000  -0.000000e+000
    outer loop
      vertex -5.000000e+000 -4.500000e+000 -6.613585e+000
      vertex -5.000000e+000  4.500000e+000 -6.613585e+000
      vertex -5.000000e+000  6.326943e+000 -7.386374e+000
    endloop
  endfacet
  facet normal -1.000000e+000  0.000000e+000  0.000000e+000
    outer loop
      vertex -5.000000e+000 -4.500000e+000 -6.613585e+000
      vertex -5.000000e+000  6.326943e+000 -7.386374e+000
      vertex -5.000000e+000 -6.326943e+000 -7.386374e+000
    endloop
  endfacet
  facet normal -9.999999e-001  0.000000e+000  0.000000e+000
    outer loop
      vertex -5.000000e+000 -4.500000e+000 -6.613585e+000
      vertex -5.000000e+000 -6.326943e+000 -7.386374e+000
      vertex -5.000000e+000 -6.847888e+000 -7.386374e+000
    endloop
  endfacet
  facet normal -1.000000e+000  0.000000e+000  0.000000e+000
    outer loop
      vertex -5.000000e+000 -4.500000e+000 -6.613585e+000
      vertex -5.000000e+000 -6.847888e+000 -7.386374e+000
      vertex -5.000000e+000 -8.500000e+000 -6.613585e+000
    endloop
  endfacet
  facet normal -1.000000e+000  0.000000e+000  0.000000e+000
    outer loop
      vertex -5.000000e+000  8.500000e+000 -6.613585e+000
      vertex -5.000000e+000  8.500000e+000 -1.111359e+001
      vertex -5.000000e+000  8.087415e+000 -8.863585e+000
    endloop
  endfacet
  facet normal -1.000000e+000  0.000000e+000  0.000000e+000
    outer loop
      vertex -5.000000e+000  8.500000e+000 -6.613585e+000
      vertex -5.000000e+000  8.087415e+000 -8.863585e+000
      vertex -5.000000e+000  7.996954e+000 -8.350554e+000
    endloop
  endfacet
  facet normal -1.000000e+000  0.000000e+000  0.000000e+000
    outer loop
      vertex -5.000000e+000  8.500000e+000 -6.613585e+000
      vertex -5.000000e+000  7.996954e+000 -8.350554e+000
      vertex -5.000000e+000  7.736482e+000 -7.899404e+000
    endloop
  endfacet
  facet normal -1.000000e+000  0.000000e+000  0.000000e+000
    outer loop
      vertex -5.000000e+000  8.500000e+000 -6.613585e+000
      vertex -5.000000e+000  7.736482e+000 -7.899404e+000
      vertex -5.000000e+000  7.337415e+000 -7.564547e+000
    endloop
  endfacet
  facet normal -1.000000e+000  0.000000e+000  0.000000e+000
    outer loop
      vertex -5.000000e+000  8.500000e+000 -6.613585e+000
      vertex -5.000000e+000  7.337415e+000 -7.564547e+000
      vertex -5.000000e+000  6.847888e+000 -7.386374e+000
    endloop
  endfacet
  facet normal -9.999999e-001  0.000000e+000  0.000000e+000
    outer loop
      vertex -5.000000e+000  8.500000e+000 -6.613585e+000
      vertex -5.000000e+000  6.847888e+000 -7.386374e+000
      vertex -5.000000e+000  6.326943e+000 -7.386374e+000
    endloop
  endfacet
  facet normal -1.000000e+000  0.000000e+000  0.000000e+000
    outer loop
      vertex -5.000000e+000  8.500000e+000 -6.613585e+000
      vertex -5.000000e+000  6.326943e+000 -7.386374e+000
      vertex -5.000000e+000  4.500000e+000 -6.613585e+000
    endloop
  endfacet
  facet normal -1.000000e+000  0.000000e+000  0.000000e+000
    outer loop
      vertex -5.000000e+000  8.500000e+000 -1.111359e+001
      vertex -5.000000e+000  4.500000e+000 -1.111359e+001
      vertex -5.000000e+000 -6.326943e+000 -1.034080e+001
    endloop
  endfacet
  facet normal -1.000000e+000  0.000000e+000  0.000000e+000
    outer loop
      vertex -5.000000e+000  8.500000e+000 -1.111359e+001
      vertex -5.000000e+000 -6.326943e+000 -1.034080e+001
      vertex -5.000000e+000  6.326943e+000 -1.034080e+001
    endloop
  endfacet
  facet normal -1.000000e+000  0.000000e+000  0.000000e+000
    outer loop
      vertex -5.000000e+000  8.500000e+000 -1.111359e+001
      vertex -5.000000e+000  6.326943e+000 -1.034080e+001
      vertex -5.000000e+000  6.847888e+000 -1.034080e+001
    endloop
  endfacet
  facet normal -1.000000e+000  0.000000e+000  0.000000e+000
    outer loop
      vertex -5.000000e+000  8.500000e+000 -1.111359e+001
      vertex -5.000000e+000  6.847888e+000 -1.034080e+001
      vertex -5.000000e+000  7.337415e+000 -1.016262e+001
    endloop
  endfacet
  facet normal -1.000000e+000  0.000000e+000  0.000000e+000
    outer loop
      vertex -5.000000e+000  8.500000e+000 -1.111359e+001
      vertex -5.000000e+000  7.337415e+000 -1.016262e+001
      vertex -5.000000e+000  7.736482e+000 -9.827766e+000
    endloop
  endfacet
  facet normal -1.000000e+000  0.000000e+000  0.000000e+000
    outer loop
      vertex -5.000000e+000  8.500000e+000 -1.111359e+001
      vertex -5.000000e+000  7.736482e+000 -9.827766e+000
      vertex -5.000000e+000  7.996954e+000 -9.376616e+000
    endloop
  endfacet
  facet normal -1.000000e+000  0.000000e+000  0.000000e+000
    outer loop
      vertex -5.000000e+000  8.500000e+000 -1.111359e+001
      vertex -5.000000e+000  7.996954e+000 -9.376616e+000
      vertex -5.000000e+000  8.087415e+000 -8.863585e+000
    endloop
  endfacet
  facet normal -1.000000e+000  0.000000e+000  -0.000000e+000
    outer loop
      vertex -5.000000e+000 -8.500000e+000 -1.111359e+001
      vertex -5.000000e+000 -8.087415e+000 -8.863585e+000
      vertex -5.000000e+000 -7.996954e+000 -9.376616e+000
    endloop
  endfacet
  facet normal -1.000000e+000  0.000000e+000  -0.000000e+000
    outer loop
      vertex -5.000000e+000 -8.500000e+000 -1.111359e+001
      vertex -5.000000e+000 -7.996954e+000 -9.376616e+000
      vertex -5.000000e+000 -7.736482e+000 -9.827766e+000
    endloop
  endfacet
  facet normal -1.000000e+000  0.000000e+000  -0.000000e+000
    outer loop
      vertex -5.000000e+000 -8.500000e+000 -1.111359e+001
      vertex -5.000000e+000 -7.736482e+000 -9.827766e+000
      vertex -5.000000e+000 -7.337415e+000 -1.016262e+001
    endloop
  endfacet
  facet normal -1.000000e+000  0.000000e+000  -0.000000e+000
    outer loop
      vertex -5.000000e+000 -8.500000e+000 -1.111359e+001
      vertex -5.000000e+000 -7.337415e+000 -1.016262e+001
      vertex -5.000000e+000 -6.847888e+000 -1.034080e+001
    endloop
  endfacet
  facet normal -1.000000e+000  0.000000e+000  -0.000000e+000
    outer loop
      vertex -5.000000e+000 -8.500000e+000 -1.111359e+001
      vertex -5.000000e+000 -6.847888e+000 -1.034080e+001
      vertex -5.000000e+000 -6.326943e+000 -1.034080e+001
    endloop
  endfacet
  facet normal -1.000000e+000  0.000000e+000  -0.000000e+000
    outer loop
      vertex -5.000000e+000 -8.500000e+000 -1.111359e+001
      vertex -5.000000e+000 -6.326943e+000 -1.034080e+001
      vertex -5.000000e+000 -4.500000e+000 -1.111359e+001
    endloop
  endfacet
  facet normal -9.999999e-001  -0.000000e+000  0.000000e+000
    outer loop
      vertex -5.000000e+000 -8.500000e+000 -6.613585e+000
      vertex -5.000000e+000 -6.847888e+000 -7.386374e+000
      vertex -5.000000e+000 -7.337415e+000 -7.564547e+000
    endloop
  endfacet
  facet normal -9.999999e-001  -0.000000e+000  0.000000e+000
    outer loop
      vertex -5.000000e+000 -8.500000e+000 -6.613585e+000
      vertex -5.000000e+000 -7.337415e+000 -7.564547e+000
      vertex -5.000000e+000 -7.736482e+000 -7.899404e+000
    endloop
  endfacet
  facet normal -1.000000e+000  -0.000000e+000  0.000000e+000
    outer loop
      vertex -5.000000e+000 -8.500000e+000 -6.613585e+000
      vertex -5.000000e+000 -7.736482e+000 -7.899404e+000
      vertex -5.000000e+000 -7.996954e+000 -8.350554e+000
    endloop
  endfacet
  facet normal -1.000000e+000  -0.000000e+000  0.000000e+000
    outer loop
      vertex -5.000000e+000 -8.500000e+000 -6.613585e+000
      vertex -5.000000e+000 -7.996954e+000 -8.350554e+000
      vertex -5.000000e+000 -8.087415e+000 -8.863585e+000
    endloop
  endfacet
  facet normal -1.000000e+000  -0.000000e+000  0.000000e+000
    outer loop
      vertex -5.000000e+000 -8.500000e+000 -6.613585e+000
      vertex -5.000000e+000 -8.087415e+000 -8.863585e+000
      vertex -5.000000e+000 -8.500000e+000 -1.111359e+001
    endloop
  endfacet
  facet normal -1.000000e+000  -0.000000e+000  0.000000e+000
    outer loop
      vertex -5.000000e+000 -6.326943e+000 -7.386374e+000
      vertex -5.000000e+000  6.326943e+000 -7.386374e+000
      vertex -5.000000e+000 -5.837415e+000 -7.564547e+000
    endloop
  endfacet
  facet normal -1.000000e+000  0.000000e+000  0.000000e+000
    outer loop
      vertex -5.000000e+000 -5.837415e+000 -7.564547e+000
      vertex -5.000000e+000  6.326943e+000 -7.386374e+000
      vertex -5.000000e+000  5.837415e+000 -7.564547e+000
    endloop
  endfacet
  facet normal -9.999999e-001  -0.000000e+000  0.000000e+000
    outer loop
      vertex -5.000000e+000 -5.837415e+000 -7.564547e+000
      vertex -5.000000e+000  5.837415e+000 -7.564547e+000
      vertex -5.000000e+000 -5.438348e+000 -7.899404e+000
    endloop
  endfacet
  facet normal -1.000000e+000  0.000000e+000  0.000000e+000
    outer loop
      vertex -5.000000e+000 -5.438348e+000 -7.899404e+000
      vertex -5.000000e+000  5.837415e+000 -7.564547e+000
      vertex -5.000000e+000  5.438348e+000 -7.899404e+000
    endloop
  endfacet
  facet normal -1.000000e+000  -0.000000e+000  0.000000e+000
    outer loop
      vertex -5.000000e+000 -5.438348e+000 -7.899404e+000
      vertex -5.000000e+000  5.438348e+000 -7.899404e+000
      vertex -5.000000e+000 -5.177876e+000 -8.350554e+000
    endloop
  endfacet
  facet normal -9.999999e-001  0.000000e+000  0.000000e+000
    outer loop
      vertex -5.000000e+000 -5.177876e+000 -8.350554e+000
      vertex -5.000000e+000  5.438348e+000 -7.899404e+000
      vertex -5.000000e+000  5.177876e+000 -8.350554e+000
    endloop
  endfacet
  facet normal -9.999999e-001  -0.000000e+000  0.000000e+000
    outer loop
      vertex -5.000000e+000 -5.177876e+000 -8.350554e+000
      vertex -5.000000e+000  5.177876e+000 -8.350554e+000
      vertex -5.000000e+000 -5.087415e+000 -8.863585e+000
    endloop
  endfacet
  facet normal -1.000000e+000  0.000000e+000  0.000000e+000
    outer loop
      vertex -5.000000e+000 -5.087415e+000 -8.863585e+000
      vertex -5.000000e+000  5.177876e+000 -8.350554e+000
      vertex -5.000000e+000  5.087415e+000 -8.863585e+000
    endloop
  endfacet
  facet normal -1.000000e+000  -0.000000e+000  0.000000e+000
    outer loop
      vertex -5.000000e+000 -5.087415e+000 -8.863585e+000
      vertex -5.000000e+000  5.087415e+000 -8.863585e+000
      vertex -5.000000e+000 -5.177876e+000 -9.376616e+000
    endloop
  endfacet
  facet normal -1.000000e+000  0.000000e+000  0.000000e+000
    outer loop
      vertex -5.000000e+000 -5.177876e+000 -9.376616e+000
      vertex -5.000000e+000  5.087415e+000 -8.863585e+000
      vertex -5.000000e+000  5.177876e+000 -9.376616e+000
    endloop
  endfacet
  facet normal -9.999999e-001  -0.000000e+000  0.000000e+000
    outer loop
      vertex -5.000000e+000 -5.177876e+000 -9.376616e+000
      vertex -5.000000e+000  5.177876e+000 -9.376616e+000
      vertex -5.000000e+000 -5.438348e+000 -9.827766e+000
    endloop
  endfacet
  facet normal -1.000000e+000  0.000000e+000  0.000000e+000
    outer loop
      vertex -5.000000e+000 -5.438348e+000 -9.827766e+000
      vertex -5.000000e+000  5.177876e+000 -9.376616e+000
      vertex -5.000000e+000  5.438348e+000 -9.827766e+000
    endloop
  endfacet
  facet normal -1.000000e+000  -0.000000e+000  0.000000e+000
    outer loop
      vertex -5.000000e+000 -5.438348e+000 -9.827766e+000
      vertex -5.000000e+000  5.438348e+000 -9.827766e+000
      vertex -5.000000e+000 -5.837415e+000 -1.016262e+001
    endloop
  endfacet
  facet normal -9.999999e-001  0.000000e+000  0.000000e+000
    outer loop
      vertex -5.000000e+000 -5.837415e+000 -1.016262e+001
      vertex -5.000000e+000  5.438348e+000 -9.827766e+000
      vertex -5.000000e+000  5.837415e+000 -1.016262e+001
    endloop
  endfacet
  facet normal -1.000000e+000  -0.000000e+000  0.000000e+000
    outer loop
      vertex -5.000000e+000 -5.837415e+000 -1.016262e+001
      vertex -5.000000e+000  5.837415e+000 -1.016262e+001
      vertex -5.000000e+000 -6.326943e+000 -1.034080e+001
    endloop
  endfacet
  facet normal -1.000000e+000  0.000000e+000  0.000000e+000
    outer loop
      vertex -5.000000e+000 -6.326943e+000 -1.034080e+001
      vertex -5.000000e+000  5.837415e+000 -1.016262e+001
      vertex -5.000000e+000  6.326943e+000 -1.034080e+001
    endloop
  endfacet
  facet normal  1.000000e+000  0.000000e+000  0.000000e+000
    outer loop
      vertex  0.000000e+000  4.500000e+000 -6.613585e+000
      vertex  0.000000e+000  4.500000e+000 -1.111359e+001
      vertex  0.000000e+000  5.177876e+000 -8.350554e+000
    endloop
  endfacet
  facet normal  1.000000e+000  0.000000e+000  -0.000000e+000
    outer loop
      vertex  0.000000e+000  4.500000e+000 -6.613585e+000
      vertex  0.000000e+000  5.177876e+000 -8.350554e+000
      vertex  0.000000e+000  5.438348e+000 -7.899404e+000
    endloop
  endfacet
  facet normal  1.000000e+000  0.000000e+000  -0.000000e+000
    outer loop
      vertex  0.000000e+000  4.500000e+000 -6.613585e+000
      vertex  0.000000e+000  5.438348e+000 -7.899404e+000
      vertex  0.000000e+000  5.837415e+000 -7.564547e+000
    endloop
  endfacet
  facet normal  1.000000e+000  0.000000e+000  -0.000000e+000
    outer loop
      vertex  0.000000e+000  4.500000e+000 -6.613585e+000
      vertex  0.000000e+000  5.837415e+000 -7.564547e+000
      vertex  0.000000e+000  6.326943e+000 -7.386374e+000
    endloop
  endfacet
  facet normal  9.999999e-001  0.000000e+000  -0.000000e+000
    outer loop
      vertex  0.000000e+000  4.500000e+000 -6.613585e+000
      vertex  0.000000e+000  6.326943e+000 -7.386374e+000
      vertex  0.000000e+000  6.847888e+000 -7.386374e+000
    endloop
  endfacet
  facet normal  1.000000e+000  0.000000e+000  -0.000000e+000
    outer loop
      vertex  0.000000e+000  4.500000e+000 -6.613585e+000
      vertex  0.000000e+000  6.847888e+000 -7.386374e+000
      vertex  0.000000e+000  8.500000e+000 -6.613585e+000
    endloop
  endfacet
  facet normal  1.000000e+000  0.000000e+000  0.000000e+000
    outer loop
      vertex  0.000000e+000  4.500000e+000 -1.111359e+001
      vertex  0.000000e+000  8.500000e+000 -1.111359e+001
      vertex  0.000000e+000  6.847888e+000 -1.034080e+001
    endloop
  endfacet
  facet normal  1.000000e+000  0.000000e+000  0.000000e+000
    outer loop
      vertex  0.000000e+000  4.500000e+000 -1.111359e+001
      vertex  0.000000e+000  6.847888e+000 -1.034080e+001
      vertex  0.000000e+000  6.326943e+000 -1.034080e+001
    endloop
  endfacet
  facet normal  1.000000e+000  0.000000e+000  0.000000e+000
    outer loop
      vertex  0.000000e+000  4.500000e+000 -1.111359e+001
      vertex  0.000000e+000  6.326943e+000 -1.034080e+001
      vertex  0.000000e+000  5.837415e+000 -1.016262e+001
    endloop
  endfacet
  facet normal  1.000000e+000  0.000000e+000  0.000000e+000
    outer loop
      vertex  0.000000e+000  4.500000e+000 -1.111359e+001
      vertex  0.000000e+000  5.837415e+000 -1.016262e+001
      vertex  0.000000e+000  5.438348e+000 -9.827766e+000
    endloop
  endfacet
  facet normal  1.000000e+000  0.000000e+000  0.000000e+000
    outer loop
      vertex  0.000000e+000  4.500000e+000 -1.111359e+001
      vertex  0.000000e+000  5.438348e+000 -9.827766e+000
      vertex  0.000000e+000  5.177876e+000 -9.376616e+000
    endloop
  endfacet
  facet normal  1.000000e+000  0.000000e+000  0.000000e+000
    outer loop
      vertex  0.000000e+000  4.500000e+000 -1.111359e+001
      vertex  0.000000e+000  5.177876e+000 -9.376616e+000
      vertex  0.000000e+000  5.087415e+000 -8.863585e+000
    endloop
  endfacet
  facet normal  1.000000e+000  0.000000e+000  -0.000000e+000
    outer loop
      vertex  0.000000e+000  4.500000e+000 -1.111359e+001
      vertex  0.000000e+000  5.087415e+000 -8.863585e+000
      vertex  0.000000e+000  5.177876e+000 -8.350554e+000
    endloop
  endfacet
  facet normal  1.000000e+000  0.000000e+000  0.000000e+000
    outer loop
      vertex  0.000000e+000  8.500000e+000 -1.111359e+001
      vertex  0.000000e+000  8.087415e+000 -8.863585e+000
      vertex  0.000000e+000  7.996954e+000 -9.376616e+000
    endloop
  endfacet
  facet normal  1.000000e+000  0.000000e+000  0.000000e+000
    outer loop
      vertex  0.000000e+000  8.500000e+000 -1.111359e+001
      vertex  0.000000e+000  7.996954e+000 -9.376616e+000
      vertex  0.000000e+000  7.736482e+000 -9.827766e+000
    endloop
  endfacet
  facet normal  1.000000e+000  0.000000e+000  0.000000e+000
    outer loop
      vertex  0.000000e+000  8.500000e+000 -1.111359e+001
      vertex  0.000000e+000  7.736482e+000 -9.827766e+000
      vertex  0.000000e+000  7.337415e+000 -1.016262e+001
    endloop
  endfacet
  facet normal  1.000000e+000  0.000000e+000  0.000000e+000
    outer loop
      vertex  0.000000e+000  8.500000e+000 -1.111359e+001
      vertex  0.000000e+000  7.337415e+000 -1.016262e+001
      vertex  0.000000e+000  6.847888e+000 -1.034080e+001
    endloop
  endfacet
  facet normal  9.999999e-001  -0.000000e+000  0.000000e+000
    outer loop
      vertex  0.000000e+000  8.500000e+000 -6.613585e+000
      vertex  0.000000e+000  6.847888e+000 -7.386374e+000
      vertex  0.000000e+000  7.337415e+000 -7.564547e+000
    endloop
  endfacet
  facet normal  9.999999e-001  -0.000000e+000  0.000000e+000
    outer loop
      vertex  0.000000e+000  8.500000e+000 -6.613585e+000
      vertex  0.000000e+000  7.337415e+000 -7.564547e+000
      vertex  0.000000e+000  7.736482e+000 -7.899404e+000
    endloop
  endfacet
  facet normal  1.000000e+000  -0.000000e+000  0.000000e+000
    outer loop
      vertex  0.000000e+000  8.500000e+000 -6.613585e+000
      vertex  0.000000e+000  7.736482e+000 -7.899404e+000
      vertex  0.000000e+000  7.996954e+000 -8.350554e+000
    endloop
  endfacet
  facet normal  1.000000e+000  -0.000000e+000  0.000000e+000
    outer loop
      vertex  0.000000e+000  8.500000e+000 -6.613585e+000
      vertex  0.000000e+000  7.996954e+000 -8.350554e+000
      vertex  0.000000e+000  8.087415e+000 -8.863585e+000
    endloop
  endfacet
  facet normal  1.000000e+000  -0.000000e+000  0.000000e+000
    outer loop
      vertex  0.000000e+000  8.500000e+000 -6.613585e+000
      vertex  0.000000e+000  8.087415e+000 -8.863585e+000
      vertex  0.000000e+000  8.500000e+000 -1.111359e+001
    endloop
  endfacet
  facet normal  -0.000000e+000  3.420194e-001  9.396929e-001
    outer loop
      vertex  0.000000e+000  6.326943e+000 -1.034080e+001
      vertex -5.000000e+000  5.837415e+000 -1.016262e+001
      vertex  0.000000e+000  5.837415e+000 -1.016262e+001
    endloop
  endfacet
  facet normal  0.000000e+000  6.427877e-001  7.660444e-001
    outer loop
      vertex  0.000000e+000  5.837415e+000 -1.016262e+001
      vertex -5.000000e+000  5.837415e+000 -1.016262e+001
      vertex -5.000000e+000  5.438348e+000 -9.827766e+000
    endloop
  endfacet
  facet normal  -0.000000e+000  6.427877e-001  7.660444e-001
    outer loop
      vertex  0.000000e+000  5.837415e+000 -1.016262e+001
      vertex -5.000000e+000  5.438348e+000 -9.827766e+000
      vertex  0.000000e+000  5.438348e+000 -9.827766e+000
    endloop
  endfacet
  facet normal  0.000000e+000  8.660253e-001  5.000003e-001
    outer loop
      vertex  0.000000e+000  5.438348e+000 -9.827766e+000
      vertex -5.000000e+000  5.438348e+000 -9.827766e+000
      vertex -5.000000e+000  5.177876e+000 -9.376616e+000
    endloop
  endfacet
  facet normal  -0.000000e+000  8.660253e-001  5.000003e-001
    outer loop
      vertex  0.000000e+000  5.438348e+000 -9.827766e+000
      vertex -5.000000e+000  5.177876e+000 -9.376616e+000
      vertex  0.000000e+000  5.177876e+000 -9.376616e+000
    endloop
  endfacet
  facet normal  0.000000e+000  9.848078e-001  1.736477e-001
    outer loop
      vertex  0.000000e+000  5.177876e+000 -9.376616e+000
      vertex -5.000000e+000  5.177876e+000 -9.376616e+000
      vertex -5.000000e+000  5.087415e+000 -8.863585e+000
    endloop
  endfacet
  facet normal  -0.000000e+000  9.848078e-001  1.736477e-001
    outer loop
      vertex  0.000000e+000  5.177876e+000 -9.376616e+000
      vertex -5.000000e+000  5.087415e+000 -8.863585e+000
      vertex  0.000000e+000  5.087415e+000 -8.863585e+000
    endloop
  endfacet
  facet normal  0.000000e+000  3.420194e-001  9.396929e-001
    outer loop
      vertex -5.000000e+000  5.837415e+000 -1.016262e+001
      vertex  0.000000e+000  6.326943e+000 -1.034080e+001
      vertex -5.000000e+000  6.326943e+000 -1.034080e+001
    endloop
  endfacet
  facet normal  0.000000e+000  0.000000e+000  1.000000e+000
    outer loop
      vertex -5.000000e+000  6.326943e+000 -1.034080e+001
      vertex  0.000000e+000  6.326943e+000 -1.034080e+001
      vertex  0.000000e+000  6.847888e+000 -1.034080e+001
    endloop
  endfacet
  facet normal  0.000000e+000  0.000000e+000  1.000000e+000
    outer loop
      vertex -5.000000e+000  6.326943e+000 -1.034080e+001
      vertex  0.000000e+000  6.847888e+000 -1.034080e+001
      vertex -5.000000e+000  6.847888e+000 -1.034080e+001
    endloop
  endfacet
  facet normal  0.000000e+000 -3.420194e-001  9.396929e-001
    outer loop
      vertex -5.000000e+000  6.847888e+000 -1.034080e+001
      vertex  0.000000e+000  6.847888e+000 -1.034080e+001
      vertex  0.000000e+000  7.337415e+000 -1.016262e+001
    endloop
  endfacet
  facet normal  0.000000e+000 -3.420194e-001  9.396929e-001
    outer loop
      vertex -5.000000e+000  6.847888e+000 -1.034080e+001
      vertex  0.000000e+000  7.337415e+000 -1.016262e+001
      vertex -5.000000e+000  7.337415e+000 -1.016262e+001
    endloop
  endfacet
  facet normal  0.000000e+000 -6.427882e-001  7.660440e-001
    outer loop
      vertex -5.000000e+000  7.337415e+000 -1.016262e+001
      vertex  0.000000e+000  7.337415e+000 -1.016262e+001
      vertex  0.000000e+000  7.736482e+000 -9.827766e+000
    endloop
  endfacet
  facet normal  0.000000e+000 -6.427882e-001  7.660440e-001
    outer loop
      vertex -5.000000e+000  7.337415e+000 -1.016262e+001
      vertex  0.000000e+000  7.736482e+000 -9.827766e+000
      vertex -5.000000e+000  7.736482e+000 -9.827766e+000
    endloop
  endfacet
  facet normal  0.000000e+000 -8.660253e-001  5.000003e-001
    outer loop
      vertex -5.000000e+000  7.736482e+000 -9.827766e+000
      vertex  0.000000e+000  7.736482e+000 -9.827766e+000
      vertex  0.000000e+000  7.996954e+000 -9.376616e+000
    endloop
  endfacet
  facet normal  0.000000e+000 -8.660253e-001  5.000003e-001
    outer loop
      vertex -5.000000e+000  7.736482e+000 -9.827766e+000
      vertex  0.000000e+000  7.996954e+000 -9.376616e+000
      vertex -5.000000e+000  7.996954e+000 -9.376616e+000
    endloop
  endfacet
  facet normal  0.000000e+000 -9.848078e-001  1.736477e-001
    outer loop
      vertex -5.000000e+000  7.996954e+000 -9.376616e+000
      vertex  0.000000e+000  7.996954e+000 -9.376616e+000
      vertex  0.000000e+000  8.087415e+000 -8.863585e+000
    endloop
  endfacet
  facet normal  0.000000e+000 -9.848078e-001  1.736477e-001
    outer loop
      vertex -5.000000e+000  7.996954e+000 -9.376616e+000
      vertex  0.000000e+000  8.087415e+000 -8.863585e+000
      vertex -5.000000e+000  8.087415e+000 -8.863585e+000
    endloop
  endfacet
  facet normal  0.000000e+000 -3.420202e-001 -9.396926e-001
    outer loop
      vertex  0.000000e+000  6.847888e+000 -7.386374e+000
      vertex -5.000000e+000  7.337415e+000 -7.564547e+000
      vertex  0.000000e+000  7.337415e+000 -7.564547e+000
    endloop
  endfacet
  facet normal  -0.000000e+000 -6.427876e-001 -7.660444e-001
    outer loop
      vertex  0.000000e+000  7.337415e+000 -7.564547e+000
      vertex -5.000000e+000  7.337415e+000 -7.564547e+000
      vertex -5.000000e+000  7.736482e+000 -7.899404e+000
    endloop
  endfacet
  facet normal  0.000000e+000 -6.427876e-001 -7.660444e-001
    outer loop
      vertex  0.000000e+000  7.337415e+000 -7.564547e+000
      vertex -5.000000e+000  7.736482e+000 -7.899404e+000
      vertex  0.000000e+000  7.736482e+000 -7.899404e+000
    endloop
  endfacet
  facet normal  -0.000000e+000 -8.660253e-001 -5.000003e-001
    outer loop
      vertex  0.000000e+000  7.736482e+000 -7.899404e+000
      vertex -5.000000e+000  7.736482e+000 -7.899404e+000
      vertex -5.000000e+000  7.996954e+000 -8.350554e+000
    endloop
  endfacet
  facet normal  0.000000e+000 -8.660253e-001 -5.000003e-001
    outer loop
      vertex  0.000000e+000  7.736482e+000 -7.899404e+000
      vertex -5.000000e+000  7.996954e+000 -8.350554e+000
      vertex  0.000000e+000  7.996954e+000 -8.350554e+000
    endloop
  endfacet
  facet normal  -0.000000e+000 -9.848078e-001 -1.736474e-001
    outer loop
      vertex  0.000000e+000  7.996954e+000 -8.350554e+000
      vertex -5.000000e+000  7.996954e+000 -8.350554e+000
      vertex -5.000000e+000  8.087415e+000 -8.863585e+000
    endloop
  endfacet
  facet normal  0.000000e+000 -9.848078e-001 -1.736474e-001
    outer loop
      vertex  0.000000e+000  7.996954e+000 -8.350554e+000
      vertex -5.000000e+000  8.087415e+000 -8.863585e+000
      vertex  0.000000e+000  8.087415e+000 -8.863585e+000
    endloop
  endfacet
  facet normal  -0.000000e+000 -3.420202e-001 -9.396926e-001
    outer loop
      vertex -5.000000e+000  7.337415e+000 -7.564547e+000
      vertex  0.000000e+000  6.847888e+000 -7.386374e+000
      vertex -5.000000e+000  6.847888e+000 -7.386374e+000
    endloop
  endfacet
  facet normal  0.000000e+000  0.000000e+000 -1.000000e+000
    outer loop
      vertex -5.000000e+000  6.847888e+000 -7.386374e+000
      vertex  0.000000e+000  6.847888e+000 -7.386374e+000
      vertex  0.000000e+000  6.326943e+000 -7.386374e+000
    endloop
  endfacet
  facet normal  0.000000e+000  0.000000e+000 -1.000000e+000
    outer loop
      vertex -5.000000e+000  6.847888e+000 -7.386374e+000
      vertex  0.000000e+000  6.326943e+000 -7.386374e+000
      vertex -5.000000e+000  6.326943e+000 -7.386374e+000
    endloop
  endfacet
  facet normal  0.000000e+000  3.420202e-001 -9.396926e-001
    outer loop
      vertex -5.000000e+000  6.326943e+000 -7.386374e+000
      vertex  0.000000e+000  6.326943e+000 -7.386374e+000
      vertex  0.000000e+000  5.837415e+000 -7.564547e+000
    endloop
  endfacet
  facet normal  0.000000e+000  3.420202e-001 -9.396926e-001
    outer loop
      vertex -5.000000e+000  6.326943e+000 -7.386374e+000
      vertex  0.000000e+000  5.837415e+000 -7.564547e+000
      vertex -5.000000e+000  5.837415e+000 -7.564547e+000
    endloop
  endfacet
  facet normal  0.000000e+000  6.427872e-001 -7.660449e-001
    outer loop
      vertex -5.000000e+000  5.837415e+000 -7.564547e+000
      vertex  0.000000e+000  5.837415e+000 -7.564547e+000
      vertex  0.000000e+000  5.438348e+000 -7.899404e+000
    endloop
  endfacet
  facet normal  0.000000e+000  6.427872e-001 -7.660449e-001
    outer loop
      vertex -5.000000e+000  5.837415e+000 -7.564547e+000
      vertex  0.000000e+000  5.438348e+000 -7.899404e+000
      vertex -5.000000e+000  5.438348e+000 -7.899404e+000
    endloop
  endfacet
  facet normal  0.000000e+000  8.660253e-001 -5.000003e-001
    outer loop
      vertex -5.000000e+000  5.438348e+000 -7.899404e+000
      vertex  0.000000e+000  5.438348e+000 -7.899404e+000
      vertex  0.000000e+000  5.177876e+000 -8.350554e+000
    endloop
  endfacet
  facet normal  0.000000e+000  8.660253e-001 -5.000003e-001
    outer loop
      vertex -5.000000e+000  5.438348e+000 -7.899404e+000
      vertex  0.000000e+000  5.177876e+000 -8.350554e+000
      vertex -5.000000e+000  5.177876e+000 -8.350554e+000
    endloop
  endfacet
  facet normal  0.000000e+000  9.848078e-001 -1.736474e-001
    outer loop
      vertex -5.000000e+000  5.177876e+000 -8.350554e+000
      vertex  0.000000e+000  5.177876e+000 -8.350554e+000
      vertex  0.000000e+000  5.087415e+000 -8.863585e+000
    endloop
  endfacet
  facet normal  0.000000e+000  9.848078e-001 -1.736474e-001
    outer loop
      vertex -5.000000e+000  5.177876e+000 -8.350554e+000
      vertex  0.000000e+000  5.087415e+000 -8.863585e+000
      vertex -5.000000e+000  5.087415e+000 -8.863585e+000
    endloop
  endfacet
  facet normal  1.000000e+000  0.000000e+000  0.000000e+000
    outer loop
      vertex  0.000000e+000 -8.500000e+000 -6.613585e+000
      vertex  0.000000e+000 -8.500000e+000 -1.111359e+001
      vertex  0.000000e+000 -8.087415e+000 -8.863585e+000
    endloop
  endfacet
  facet normal  1.000000e+000  0.000000e+000  -0.000000e+000
    outer loop
      vertex  0.000000e+000 -8.500000e+000 -6.613585e+000
      vertex  0.000000e+000 -8.087415e+000 -8.863585e+000
      vertex  0.000000e+000 -7.996954e+000 -8.350554e+000
    endloop
  endfacet
  facet normal  1.000000e+000  0.000000e+000  -0.000000e+000
    outer loop
      vertex  0.000000e+000 -8.500000e+000 -6.613585e+000
      vertex  0.000000e+000 -7.996954e+000 -8.350554e+000
      vertex  0.000000e+000 -7.736482e+000 -7.899404e+000
    endloop
  endfacet
  facet normal  1.000000e+000  0.000000e+000  -0.000000e+000
    outer loop
      vertex  0.000000e+000 -8.500000e+000 -6.613585e+000
      vertex  0.000000e+000 -7.736482e+000 -7.899404e+000
      vertex  0.000000e+000 -7.337415e+000 -7.564547e+000
    endloop
  endfacet
  facet normal  1.000000e+000  0.000000e+000  -0.000000e+000
    outer loop
      vertex  0.000000e+000 -8.500000e+000 -6.613585e+000
      vertex  0.000000e+000 -7.337415e+000 -7.564547e+000
      vertex  0.000000e+000 -6.847888e+000 -7.386374e+000
    endloop
  endfacet
  facet normal  9.999999e-001  0.000000e+000  -0.000000e+000
    outer loop
      vertex  0.000000e+000 -8.500000e+000 -6.613585e+000
      vertex  0.000000e+000 -6.847888e+000 -7.386374e+000
      vertex  0.000000e+000 -6.326943e+000 -7.386374e+000
    endloop
  endfacet
  facet normal  1.000000e+000  0.000000e+000  -0.000000e+000
    outer loop
      vertex  0.000000e+000 -8.500000e+000 -6.613585e+000
      vertex  0.000000e+000 -6.326943e+000 -7.386374e+000
      vertex  0.000000e+000 -4.500000e+000 -6.613585e+000
    endloop
  endfacet
  facet normal  1.000000e+000  0.000000e+000  0.000000e+000
    outer loop
      vertex  0.000000e+000 -8.500000e+000 -1.111359e+001
      vertex  0.000000e+000 -4.500000e+000 -1.111358e+001
      vertex  0.000000e+000 -6.326943e+000 -1.034080e+001
    endloop
  endfacet
  facet normal  1.000000e+000  0.000000e+000  0.000000e+000
    outer loop
      vertex  0.000000e+000 -8.500000e+000 -1.111359e+001
      vertex  0.000000e+000 -6.326943e+000 -1.034080e+001
      vertex  0.000000e+000 -6.847888e+000 -1.034080e+001
    endloop
  endfacet
  facet normal  1.000000e+000  0.000000e+000  0.000000e+000
    outer loop
      vertex  0.000000e+000 -8.500000e+000 -1.111359e+001
      vertex  0.000000e+000 -6.847888e+000 -1.034080e+001
      vertex  0.000000e+000 -7.337415e+000 -1.016262e+001
    endloop
  endfacet
  facet normal  1.000000e+000  0.000000e+000  0.000000e+000
    outer loop
      vertex  0.000000e+000 -8.500000e+000 -1.111359e+001
      vertex  0.000000e+000 -7.337415e+000 -1.016262e+001
      vertex  0.000000e+000 -7.736482e+000 -9.827766e+000
    endloop
  endfacet
  facet normal  1.000000e+000  0.000000e+000  0.000000e+000
    outer loop
      vertex  0.000000e+000 -8.500000e+000 -1.111359e+001
      vertex  0.000000e+000 -7.736482e+000 -9.827766e+000
      vertex  0.000000e+000 -7.996954e+000 -9.376616e+000
    endloop
  endfacet
  facet normal  1.000000e+000  0.000000e+000  0.000000e+000
    outer loop
      vertex  0.000000e+000 -8.500000e+000 -1.111359e+001
      vertex  0.000000e+000 -7.996954e+000 -9.376616e+000
      vertex  0.000000e+000 -8.087415e+000 -8.863585e+000
    endloop
  endfacet
  facet normal  1.000000e+000  0.000000e+000  0.000000e+000
    outer loop
      vertex  0.000000e+000 -4.500000e+000 -1.111358e+001
      vertex  0.000000e+000 -5.177876e+000 -8.350554e+000
      vertex  0.000000e+000 -5.087415e+000 -8.863585e+000
    endloop
  endfacet
  facet normal  1.000000e+000  0.000000e+000  0.000000e+000
    outer loop
      vertex  0.000000e+000 -4.500000e+000 -1.111358e+001
      vertex  0.000000e+000 -5.087415e+000 -8.863585e+000
      vertex  0.000000e+000 -5.177876e+000 -9.376616e+000
    endloop
  endfacet
  facet normal  1.000000e+000  0.000000e+000  0.000000e+000
    outer loop
      vertex  0.000000e+000 -4.500000e+000 -1.111358e+001
      vertex  0.000000e+000 -5.177876e+000 -9.376616e+000
      vertex  0.000000e+000 -5.438348e+000 -9.827766e+000
    endloop
  endfacet
  facet normal  9.999999e-001  0.000000e+000  0.000000e+000
    outer loop
      vertex  0.000000e+000 -4.500000e+000 -1.111358e+001
      vertex  0.000000e+000 -5.438348e+000 -9.827766e+000
      vertex  0.000000e+000 -5.837415e+000 -1.016262e+001
    endloop
  endfacet
  facet normal  1.000000e+000  0.000000e+000  0.000000e+000
    outer loop
      vertex  0.000000e+000 -4.500000e+000 -1.111358e+001
      vertex  0.000000e+000 -5.837415e+000 -1.016262e+001
      vertex  0.000000e+000 -6.326943e+000 -1.034080e+001
    endloop
  endfacet
  facet normal  1.000000e+000  -0.000000e+000  0.000000e+000
    outer loop
      vertex  0.000000e+000 -4.500000e+000 -6.613585e+000
      vertex  0.000000e+000 -6.326943e+000 -7.386374e+000
      vertex  0.000000e+000 -5.837415e+000 -7.564547e+000
    endloop
  endfacet
  facet normal  9.999999e-001  -0.000000e+000  0.000000e+000
    outer loop
      vertex  0.000000e+000 -4.500000e+000 -6.613585e+000
      vertex  0.000000e+000 -5.837415e+000 -7.564547e+000
      vertex  0.000000e+000 -5.438348e+000 -7.899404e+000
    endloop
  endfacet
  facet normal  1.000000e+000  -0.000000e+000  0.000000e+000
    outer loop
      vertex  0.000000e+000 -4.500000e+000 -6.613585e+000
      vertex  0.000000e+000 -5.438348e+000 -7.899404e+000
      vertex  0.000000e+000 -5.177876e+000 -8.350554e+000
    endloop
  endfacet
  facet normal  1.000000e+000  -0.000000e+000  0.000000e+000
    outer loop
      vertex  0.000000e+000 -4.500000e+000 -6.613585e+000
      vertex  0.000000e+000 -5.177876e+000 -8.350554e+000
      vertex  0.000000e+000 -4.500000e+000 -1.111358e+001
    endloop
  endfacet
  facet normal  0.000000e+000 -3.420202e-001 -9.396926e-001
    outer loop
      vertex  0.000000e+000 -6.326943e+000 -7.386374e+000
      vertex -5.000000e+000 -5.837415e+000 -7.564547e+000
      vertex  0.000000e+000 -5.837415e+000 -7.564547e+000
    endloop
  endfacet
  facet normal  -0.000000e+000 -6.427872e-001 -7.660449e-001
    outer loop
      vertex  0.000000e+000 -5.837415e+000 -7.564547e+000
      vertex -5.000000e+000 -5.837415e+000 -7.564547e+000
      vertex -5.000000e+000 -5.438348e+000 -7.899404e+000
    endloop
  endfacet
  facet normal  0.000000e+000 -6.427872e-001 -7.660449e-001
    outer loop
      vertex  0.000000e+000 -5.837415e+000 -7.564547e+000
      vertex -5.000000e+000 -5.438348e+000 -7.899404e+000
      vertex  0.000000e+000 -5.438348e+000 -7.899404e+000
    endloop
  endfacet
  facet normal  -0.000000e+000 -8.660253e-001 -5.000003e-001
    outer loop
      vertex  0.000000e+000 -5.438348e+000 -7.899404e+000
      vertex -5.000000e+000 -5.438348e+000 -7.899404e+000
      vertex -5.000000e+000 -5.177876e+000 -8.350554e+000
    endloop
  endfacet
  facet normal  0.000000e+000 -8.660253e-001 -5.000003e-001
    outer loop
      vertex  0.000000e+000 -5.438348e+000 -7.899404e+000
      vertex -5.000000e+000 -5.177876e+000 -8.350554e+000
      vertex  0.000000e+000 -5.177876e+000 -8.350554e+000
    endloop
  endfacet
  facet normal  -0.000000e+000 -9.848078e-001 -1.736474e-001
    outer loop
      vertex  0.000000e+000 -5.177876e+000 -8.350554e+000
      vertex -5.000000e+000 -5.177876e+000 -8.350554e+000
      vertex -5.000000e+000 -5.087415e+000 -8.863585e+000
    endloop
  endfacet
  facet normal  0.000000e+000 -9.848078e-001 -1.736474e-001
    outer loop
      vertex  0.000000e+000 -5.177876e+000 -8.350554e+000
      vertex -5.000000e+000 -5.087415e+000 -8.863585e+000
      vertex  0.000000e+000 -5.087415e+000 -8.863585e+000
    endloop
  endfacet
  facet normal  -0.000000e+000 -3.420202e-001 -9.396926e-001
    outer loop
      vertex -5.000000e+000 -5.837415e+000 -7.564547e+000
      vertex  0.000000e+000 -6.326943e+000 -7.386374e+000
      vertex -5.000000e+000 -6.326943e+000 -7.386374e+000
    endloop
  endfacet
  facet normal  0.000000e+000  0.000000e+000 -1.000000e+000
    outer loop
      vertex -5.000000e+000 -6.326943e+000 -7.386374e+000
      vertex  0.000000e+000 -6.326943e+000 -7.386374e+000
      vertex  0.000000e+000 -6.847888e+000 -7.386374e+000
    endloop
  endfacet
  facet normal  0.000000e+000  0.000000e+000 -1.000000e+000
    outer loop
      vertex -5.000000e+000 -6.326943e+000 -7.386374e+000
      vertex  0.000000e+000 -6.847888e+000 -7.386374e+000
      vertex -5.000000e+000 -6.847888e+000 -7.386374e+000
    endloop
  endfacet
  facet normal  0.000000e+000  3.420202e-001 -9.396926e-001
    outer loop
      vertex -5.000000e+000 -6.847888e+000 -7.386374e+000
      vertex  0.000000e+000 -6.847888e+000 -7.386374e+000
      vertex  0.000000e+000 -7.337415e+000 -7.564547e+000
    endloop
  endfacet
  facet normal  0.000000e+000  3.420202e-001 -9.396926e-001
    outer loop
      vertex -5.000000e+000 -6.847888e+000 -7.386374e+000
      vertex  0.000000e+000 -7.337415e+000 -7.564547e+000
      vertex -5.000000e+000 -7.337415e+000 -7.564547e+000
    endloop
  endfacet
  facet normal  0.000000e+000  6.427876e-001 -7.660444e-001
    outer loop
      vertex -5.000000e+000 -7.337415e+000 -7.564547e+000
      vertex  0.000000e+000 -7.337415e+000 -7.564547e+000
      vertex  0.000000e+000 -7.736482e+000 -7.899404e+000
    endloop
  endfacet
  facet normal  0.000000e+000  6.427876e-001 -7.660444e-001
    outer loop
      vertex -5.000000e+000 -7.337415e+000 -7.564547e+000
      vertex  0.000000e+000 -7.736482e+000 -7.899404e+000
      vertex -5.000000e+000 -7.736482e+000 -7.899404e+000
    endloop
  endfacet
  facet normal  0.000000e+000  8.660253e-001 -5.000003e-001
    outer loop
      vertex -5.000000e+000 -7.736482e+000 -7.899404e+000
      vertex  0.000000e+000 -7.736482e+000 -7.899404e+000
      vertex  0.000000e+000 -7.996954e+000 -8.350554e+000
    endloop
  endfacet
  facet normal  0.000000e+000  8.660253e-001 -5.000003e-001
    outer loop
      vertex -5.000000e+000 -7.736482e+000 -7.899404e+000
      vertex  0.000000e+000 -7.996954e+000 -8.350554e+000
      vertex -5.000000e+000 -7.996954e+000 -8.350554e+000
    endloop
  endfacet
  facet normal  0.000000e+000  9.848078e-001 -1.736474e-001
    outer loop
      vertex -5.000000e+000 -7.996954e+000 -8.350554e+000
      vertex  0.000000e+000 -7.996954e+000 -8.350554e+000
      vertex  0.000000e+000 -8.087415e+000 -8.863585e+000
    endloop
  endfacet
  facet normal  0.000000e+000  9.848078e-001 -1.736474e-001
    outer loop
      vertex -5.000000e+000 -7.996954e+000 -8.350554e+000
      vertex  0.000000e+000 -8.087415e+000 -8.863585e+000
      vertex -5.000000e+000 -8.087415e+000 -8.863585e+000
    endloop
  endfacet
  facet normal  -0.000000e+000  3.420194e-001  9.396929e-001
    outer loop
      vertex  0.000000e+000 -6.847888e+000 -1.034080e+001
      vertex -5.000000e+000 -7.337415e+000 -1.016262e+001
      vertex  0.000000e+000 -7.337415e+000 -1.016262e+001
    endloop
  endfacet
  facet normal  0.000000e+000  6.427882e-001  7.660440e-001
    outer loop
      vertex  0.000000e+000 -7.337415e+000 -1.016262e+001
      vertex -5.000000e+000 -7.337415e+000 -1.016262e+001
      vertex -5.000000e+000 -7.736482e+000 -9.827766e+000
    endloop
  endfacet
  facet normal  -0.000000e+000  6.427882e-001  7.660440e-001
    outer loop
      vertex  0.000000e+000 -7.337415e+000 -1.016262e+001
      vertex -5.000000e+000 -7.736482e+000 -9.827766e+000
      vertex  0.000000e+000 -7.736482e+000 -9.827766e+000
    endloop
  endfacet
  facet normal  0.000000e+000  8.660253e-001  5.000003e-001
    outer loop
      vertex  0.000000e+000 -7.736482e+000 -9.827766e+000
      vertex -5.000000e+000 -7.736482e+000 -9.827766e+000
      vertex -5.000000e+000 -7.996954e+000 -9.376616e+000
    endloop
  endfacet
  facet normal  -0.000000e+000  8.660253e-001  5.000003e-001
    outer loop
      vertex  0.000000e+000 -7.736482e+000 -9.827766e+000
      vertex -5.000000e+000 -7.996954e+000 -9.376616e+000
      vertex  0.000000e+000 -7.996954e+000 -9.376616e+000
    endloop
  endfacet
  facet normal  0.000000e+000  9.848078e-001  1.736477e-001
    outer loop
      vertex  0.000000e+000 -7.996954e+000 -9.376616e+000
      vertex -5.000000e+000 -7.996954e+000 -9.376616e+000
      vertex -5.000000e+000 -8.087415e+000 -8.863585e+000
    endloop
  endfacet
  facet normal  -0.000000e+000  9.848078e-001  1.736477e-001
    outer loop
      vertex  0.000000e+000 -7.996954e+000 -9.376616e+000
      vertex -5.000000e+000 -8.087415e+000 -8.863585e+000
      vertex  0.000000e+000 -8.087415e+000 -8.863585e+000
    endloop
  endfacet
  facet normal  0.000000e+000  3.420194e-001  9.396929e-001
    outer loop
      vertex -5.000000e+000 -7.337415e+000 -1.016262e+001
      vertex  0.000000e+000 -6.847888e+000 -1.034080e+001
      vertex -5.000000e+000 -6.847888e+000 -1.034080e+001
    endloop
  endfacet
  facet normal  0.000000e+000  0.000000e+000  1.000000e+000
    outer loop
      vertex -5.000000e+000 -6.847888e+000 -1.034080e+001
      vertex  0.000000e+000 -6.847888e+000 -1.034080e+001
      vertex  0.000000e+000 -6.326943e+000 -1.034080e+001
    endloop
  endfacet
  facet normal  0.000000e+000  0.000000e+000  1.000000e+000
    outer loop
      vertex -5.000000e+000 -6.847888e+000 -1.034080e+001
      vertex  0.000000e+000 -6.326943e+000 -1.034080e+001
      vertex -5.000000e+000 -6.326943e+000 -1.034080e+001
    endloop
  endfacet
  facet normal  0.000000e+000 -3.420194e-001  9.396929e-001
    outer loop
      vertex -5.000000e+000 -6.326943e+000 -1.034080e+001
      vertex  0.000000e+000 -6.326943e+000 -1.034080e+001
      vertex  0.000000e+000 -5.837415e+000 -1.016262e+001
    endloop
  endfacet
  facet normal  0.000000e+000 -3.420194e-001  9.396929e-001
    outer loop
      vertex -5.000000e+000 -6.326943e+000 -1.034080e+001
      vertex  0.000000e+000 -5.837415e+000 -1.016262e+001
      vertex -5.000000e+000 -5.837415e+000 -1.016262e+001
    endloop
  endfacet
  facet normal  0.000000e+000 -6.427877e-001  7.660444e-001
    outer loop
      vertex -5.000000e+000 -5.837415e+000 -1.016262e+001
      vertex  0.000000e+000 -5.837415e+000 -1.016262e+001
      vertex  0.000000e+000 -5.438348e+000 -9.827766e+000
    endloop
  endfacet
  facet normal  0.000000e+000 -6.427877e-001  7.660444e-001
    outer loop
      vertex -5.000000e+000 -5.837415e+000 -1.016262e+001
      vertex  0.000000e+000 -5.438348e+000 -9.827766e+000
      vertex -5.000000e+000 -5.438348e+000 -9.827766e+000
    endloop
  endfacet
  facet normal  0.000000e+000 -8.660253e-001  5.000003e-001
    outer loop
      vertex -5.000000e+000 -5.438348e+000 -9.827766e+000
      vertex  0.000000e+000 -5.438348e+000 -9.827766e+000
      vertex  0.000000e+000 -5.177876e+000 -9.376616e+000
    endloop
  endfacet
  facet normal  0.000000e+000 -8.660253e-001  5.000003e-001
    outer loop
      vertex -5.000000e+000 -5.438348e+000 -9.827766e+000
      vertex  0.000000e+000 -5.177876e+000 -9.376616e+000
      vertex -5.000000e+000 -5.177876e+000 -9.376616e+000
    endloop
  endfacet
  facet normal  0.000000e+000 -9.848078e-001  1.736477e-001
    outer loop
      vertex -5.000000e+000 -5.177876e+000 -9.376616e+000
      vertex  0.000000e+000 -5.177876e+000 -9.376616e+000
      vertex  0.000000e+000 -5.087415e+000 -8.863585e+000
    endloop
  endfacet
  facet normal  0.000000e+000 -9.848078e-001  1.736477e-001
    outer loop
      vertex -5.000000e+000 -5.177876e+000 -9.376616e+000
      vertex  0.000000e+000 -5.087415e+000 -8.863585e+000
      vertex -5.000000e+000 -5.087415e+000 -8.863585e+000
    endloop
  endfacet
  facet normal  -0.000000e+000  0.000000e+000  1.000000e+000
    outer loop
      vertex  0.000000e+000  4.500000e+000 -6.613585e+000
      vertex -5.000000e+000  4.500000e+000 -6.613585e+000
      vertex -5.000000e+000 -4.500000e+000 -6.613585e+000
    endloop
  endfacet
  facet normal  0.000000e+000  0.000000e+000  1.000000e+000
    outer loop
      vertex  0.000000e+000  4.500000e+000 -6.613585e+000
      vertex -5.000000e+000 -4.500000e+000 -6.613585e+000
      vertex  0.000000e+000 -4.500000e+000 -6.613585e+000
    endloop
  endfacet
  facet normal  0.000000e+000  0.000000e+000  1.000000e+000
    outer loop
      vertex  0.000000e+000  4.500000e+000 -6.613585e+000
      vertex  0.000000e+000 -4.500000e+000 -6.613585e+000
      vertex  9.845338e+000  5.204749e-016 -6.613585e+000
    endloop
  endfacet
  facet normal  0.000000e+000  -0.000000e+000  1.000000e+000
    outer loop
      vertex  0.000000e+000  4.500000e+000 -6.613585e+000
      vertex  9.845338e+000  5.204749e-016 -6.613585e+000
      vertex  9.948885e+000  9.324298e-001 -6.613585e+000
    endloop
  endfacet
  facet normal  0.000000e+000  -0.000000e+000  1.000000e+000
    outer loop
      vertex  0.000000e+000  4.500000e+000 -6.613585e+000
      vertex  9.948885e+000  9.324298e-001 -6.613585e+000
      vertex  1.025448e+001  1.819424e+000 -6.613585e+000
    endloop
  endfacet
  facet normal  0.000000e+000  -0.000000e+000  1.000000e+000
    outer loop
      vertex  0.000000e+000  4.500000e+000 -6.613585e+000
      vertex  1.025448e+001  1.819424e+000 -6.613585e+000
      vertex  1.074723e+001  2.617762e+000 -6.613585e+000
    endloop
  endfacet
  facet normal  0.000000e+000  -0.000000e+000  1.000000e+000
    outer loop
      vertex  0.000000e+000  4.500000e+000 -6.613585e+000
      vertex  1.074723e+001  2.617762e+000 -6.613585e+000
      vertex  1.140313e+001  3.288542e+000 -6.613585e+000
    endloop
  endfacet
  facet normal  0.000000e+000  -0.000000e+000  1.000000e+000
    outer loop
      vertex  0.000000e+000  4.500000e+000 -6.613585e+000
      vertex  1.140313e+001  3.288542e+000 -6.613585e+000
      vertex  1.219021e+001  3.799078e+000 -6.613585e+000
    endloop
  endfacet
  facet normal  0.000000e+000  -0.000000e+000  9.999999e-001
    outer loop
      vertex  0.000000e+000  4.500000e+000 -6.613585e+000
      vertex  1.219021e+001  3.799078e+000 -6.613585e+000
      vertex  1.307013e+001  4.124493e+000 -6.613585e+000
    endloop
  endfacet
  facet normal  0.000000e+000  -0.000000e+000  1.000000e+000
    outer loop
      vertex  0.000000e+000  4.500000e+000 -6.613585e+000
      vertex  1.307013e+001  4.124493e+000 -6.613585e+000
      vertex  1.400000e+001  4.248930e+000 -6.613585e+000
    endloop
  endfacet
  facet normal  0.000000e+000  -0.000000e+000  9.999999e-001
    outer loop
      vertex  0.000000e+000  4.500000e+000 -6.613585e+000
      vertex  1.400000e+001  4.248930e+000 -6.613585e+000
      vertex  1.400000e+001  4.500000e+000 -6.613585e+000
    endloop
  endfacet
  facet normal  0.000000e+000  -0.000000e+000  9.999999e-001
    outer loop
      vertex  0.000000e+000 -4.500000e+000 -6.613585e+000
      vertex  1.400000e+001 -4.500000e+000 -6.613585e+000
      vertex  1.400000e+001 -4.248930e+000 -6.613585e+000
    endloop
  endfacet
  facet normal  0.000000e+000  0.000000e+000  1.000000e+000
    outer loop
      vertex  0.000000e+000 -4.500000e+000 -6.613585e+000
      vertex  1.400000e+001 -4.248930e+000 -6.613585e+000
      vertex  1.307013e+001 -4.124493e+000 -6.613585e+000
    endloop
  endfacet
  facet normal  0.000000e+000  0.000000e+000  1.000000e+000
    outer loop
      vertex  0.000000e+000 -4.500000e+000 -6.613585e+000
      vertex  1.307013e+001 -4.124493e+000 -6.613585e+000
      vertex  1.219021e+001 -3.799078e+000 -6.613585e+000
    endloop
  endfacet
  facet normal  0.000000e+000  0.000000e+000  1.000000e+000
    outer loop
      vertex  0.000000e+000 -4.500000e+000 -6.613585e+000
      vertex  1.219021e+001 -3.799078e+000 -6.613585e+000
      vertex  1.140313e+001 -3.288542e+000 -6.613585e+000
    endloop
  endfacet
  facet normal  0.000000e+000  0.000000e+000  1.000000e+000
    outer loop
      vertex  0.000000e+000 -4.500000e+000 -6.613585e+000
      vertex  1.140313e+001 -3.288542e+000 -6.613585e+000
      vertex  1.074723e+001 -2.617762e+000 -6.613585e+000
    endloop
  endfacet
  facet normal  0.000000e+000  0.000000e+000  1.000000e+000
    outer loop
      vertex  0.000000e+000 -4.500000e+000 -6.613585e+000
      vertex  1.074723e+001 -2.617762e+000 -6.613585e+000
      vertex  1.025448e+001 -1.819424e+000 -6.613585e+000
    endloop
  endfacet
  facet normal  0.000000e+000  0.000000e+000  1.000000e+000
    outer loop
      vertex  0.000000e+000 -4.500000e+000 -6.613585e+000
      vertex  1.025448e+001 -1.819424e+000 -6.613585e+000
      vertex  9.948885e+000 -9.324298e-001 -6.613585e+000
    endloop
  endfacet
  facet normal  0.000000e+000  0.000000e+000  9.999999e-001
    outer loop
      vertex  0.000000e+000 -4.500000e+000 -6.613585e+000
      vertex  9.948885e+000 -9.324298e-001 -6.613585e+000
      vertex  9.845338e+000  5.204749e-016 -6.613585e+000
    endloop
  endfacet
  facet normal  1.907349e-007  0.000000e+000 -1.000000e+000
    outer loop
      vertex  0.000000e+000 -4.500000e+000 -1.111358e+001
      vertex -5.000000e+000 -4.500000e+000 -1.111359e+001
      vertex -5.000000e+000  4.500000e+000 -1.111359e+001
    endloop
  endfacet
  facet normal  0.000000e+000 -1.059638e-007 -1.000000e+000
    outer loop
      vertex  0.000000e+000 -4.500000e+000 -1.111358e+001
      vertex -5.000000e+000  4.500000e+000 -1.111359e+001
      vertex  0.000000e+000  4.500000e+000 -1.111359e+001
    endloop
  endfacet
  facet normal -4.843279e-008 -1.059638e-007 -1.000000e+000
    outer loop
      vertex  0.000000e+000 -4.500000e+000 -1.111358e+001
      vertex  0.000000e+000  4.500000e+000 -1.111359e+001
      vertex  9.845338e+000  5.204749e-016 -1.111359e+001
    endloop
  endfacet
  facet normal -9.218640e-008 -1.023738e-008 -1.000000e+000
    outer loop
      vertex  0.000000e+000 -4.500000e+000 -1.111358e+001
      vertex  9.845338e+000  5.204749e-016 -1.111359e+001
      vertex  9.948885e+000 -9.324298e-001 -1.111359e+001
    endloop
  endfacet
  facet normal -8.531698e-008 -2.939409e-008 -1.000000e+000
    outer loop
      vertex  0.000000e+000 -4.500000e+000 -1.111358e+001
      vertex  9.948885e+000 -9.324298e-001 -1.111359e+001
      vertex  1.025448e+001 -1.819424e+000 -1.111359e+001
    endloop
  endfacet
  facet normal -8.008021e-008 -4.942721e-008 -1.000000e+000
    outer loop
      vertex  0.000000e+000 -4.500000e+000 -1.111358e+001
      vertex  1.025448e+001 -1.819424e+000 -1.111359e+001
      vertex  1.074723e+001 -2.617762e+000 -1.111359e+001
    endloop
  endfacet
  facet normal -7.576234e-008 -7.408151e-008 -1.000000e+000
    outer loop
      vertex  0.000000e+000 -4.500000e+000 -1.111358e+001
      vertex  1.074723e+001 -2.617762e+000 -1.111359e+001
      vertex  1.140313e+001 -3.288542e+000 -1.111359e+001
    endloop
  endfacet
  facet normal -7.186257e-008 -1.107890e-007 -1.000000e+000
    outer loop
      vertex  0.000000e+000 -4.500000e+000 -1.111358e+001
      vertex  1.140313e+001 -3.288542e+000 -1.111359e+001
      vertex  1.219021e+001 -3.799078e+000 -1.111359e+001
    endloop
  endfacet
  facet normal -6.770615e-008 -1.830761e-007 -9.999999e-001
    outer loop
      vertex  0.000000e+000 -4.500000e+000 -1.111358e+001
      vertex  1.219021e+001 -3.799078e+000 -1.111359e+001
      vertex  1.307013e+001 -4.124493e+000 -1.111359e+001
    endloop
  endfacet
  facet normal -6.006963e-008 -4.488774e-007 -1.000000e+000
    outer loop
      vertex  0.000000e+000 -4.500000e+000 -1.111358e+001
      vertex  1.307013e+001 -4.124493e+000 -1.111359e+001
      vertex  1.400000e+001 -4.248930e+000 -1.111359e+001
    endloop
  endfacet
  facet normal  0.000000e+000 -3.798447e-006 -9.999999e-001
    outer loop
      vertex  0.000000e+000 -4.500000e+000 -1.111358e+001
      vertex  1.400000e+001 -4.248930e+000 -1.111359e+001
      vertex  1.400000e+001 -4.500000e+000 -1.111358e+001
    endloop
  endfacet
  facet normal  -0.000000e+000  -0.000000e+000 -9.999999e-001
    outer loop
      vertex  0.000000e+000  4.500000e+000 -1.111359e+001
      vertex  1.400000e+001  4.500000e+000 -1.111359e+001
      vertex  1.400000e+001  4.248930e+000 -1.111359e+001
    endloop
  endfacet
  facet normal  -0.000000e+000  0.000000e+000 -1.000000e+000
    outer loop
      vertex  0.000000e+000  4.500000e+000 -1.111359e+001
      vertex  1.400000e+001  4.248930e+000 -1.111359e+001
      vertex  1.307013e+001  4.124493e+000 -1.111359e+001
    endloop
  endfacet
  facet normal  -0.000000e+000  0.000000e+000 -1.000000e+000
    outer loop
      vertex  0.000000e+000  4.500000e+000 -1.111359e+001
      vertex  1.307013e+001  4.124493e+000 -1.111359e+001
      vertex  1.219021e+001  3.799078e+000 -1.111359e+001
    endloop
  endfacet
  facet normal  -0.000000e+000  0.000000e+000 -1.000000e+000
    outer loop
      vertex  0.000000e+000  4.500000e+000 -1.111359e+001
      vertex  1.219021e+001  3.799078e+000 -1.111359e+001
      vertex  1.140313e+001  3.288542e+000 -1.111359e+001
    endloop
  endfacet
  facet normal  -0.000000e+000  0.000000e+000 -1.000000e+000
    outer loop
      vertex  0.000000e+000  4.500000e+000 -1.111359e+001
      vertex  1.140313e+001  3.288542e+000 -1.111359e+001
      vertex  1.074723e+001  2.617762e+000 -1.111359e+001
    endloop
  endfacet
  facet normal  -0.000000e+000  0.000000e+000 -1.000000e+000
    outer loop
      vertex  0.000000e+000  4.500000e+000 -1.111359e+001
      vertex  1.074723e+001  2.617762e+000 -1.111359e+001
      vertex  1.025448e+001  1.819424e+000 -1.111359e+001
    endloop
  endfacet
  facet normal  -0.000000e+000  0.000000e+000 -1.000000e+000
    outer loop
      vertex  0.000000e+000  4.500000e+000 -1.111359e+001
      vertex  1.025448e+001  1.819424e+000 -1.111359e+001
      vertex  9.948885e+000  9.324298e-001 -1.111359e+001
    endloop
  endfacet
  facet normal  -0.000000e+000  0.000000e+000 -9.999999e-001
    outer loop
      vertex  0.000000e+000  4.500000e+000 -1.111359e+001
      vertex  9.948885e+000  9.324298e-001 -1.111359e+001
      vertex  9.845338e+000  5.204749e-016 -1.111359e+001
    endloop
  endfacet
  facet normal  1.907349e-007  0.000000e+000 -1.000000e+000
    outer loop
      vertex -5.000000e+000 -4.500000e+000 -1.111359e+001
      vertex  0.000000e+000 -4.500000e+000 -1.111358e+001
      vertex -5.000000e+000 -8.500000e+000 -1.111359e+001
    endloop
  endfacet
  facet normal  0.000000e+000  2.384186e-007 -1.000000e+000
    outer loop
      vertex -5.000000e+000 -8.500000e+000 -1.111359e+001
      vertex  0.000000e+000 -4.500000e+000 -1.111358e+001
      vertex  0.000000e+000 -8.500000e+000 -1.111359e+001
    endloop
  endfacet
  facet normal  -0.000000e+000  0.000000e+000 -1.000000e+000
    outer loop
      vertex -5.000000e+000  8.500000e+000 -1.111359e+001
      vertex  0.000000e+000  8.500000e+000 -1.111359e+001
      vertex -5.000000e+000  4.500000e+000 -1.111359e+001
    endloop
  endfacet
  facet normal  0.000000e+000  0.000000e+000 -1.000000e+000
    outer loop
      vertex -5.000000e+000  4.500000e+000 -1.111359e+001
      vertex  0.000000e+000  8.500000e+000 -1.111359e+001
      vertex  0.000000e+000  4.500000e+000 -1.111359e+001
    endloop
  endfacet
  facet normal  0.000000e+000  0.000000e+000  1.000000e+000
    outer loop
      vertex -5.000000e+000 -8.500000e+000 -6.613585e+000
      vertex  0.000000e+000 -8.500000e+000 -6.613585e+000
      vertex -5.000000e+000 -4.500000e+000 -6.613585e+000
    endloop
  endfacet
  facet normal  -0.000000e+000  0.000000e+000  1.000000e+000
    outer loop
      vertex -5.000000e+000 -4.500000e+000 -6.613585e+000
      vertex  0.000000e+000 -8.500000e+000 -6.613585e+000
      vertex  0.000000e+000 -4.500000e+000 -6.613585e+000
    endloop
  endfacet
  facet normal  0.000000e+000  0.000000e+000  1.000000e+000
    outer loop
      vertex -5.000000e+000  4.500000e+000 -6.613585e+000
      vertex  0.000000e+000  4.500000e+000 -6.613585e+000
      vertex -5.000000e+000  8.500000e+000 -6.613585e+000
    endloop
  endfacet
  facet normal  -0.000000e+000  0.000000e+000  1.000000e+000
    outer loop
      vertex -5.000000e+000  8.500000e+000 -6.613585e+000
      vertex  0.000000e+000  4.500000e+000 -6.613585e+000
      vertex  0.000000e+000  8.500000e+000 -6.613585e+000
    endloop
  endfacet
  facet normal  0.000000e+000  9.999999e-001  0.000000e+000
    outer loop
      vertex  0.000000e+000  4.500000e+000 -1.111359e+001
      vertex  0.000000e+000  4.500000e+000 -6.613585e+000
      vertex  1.400000e+001  4.500000e+000 -1.111359e+001
    endloop
  endfacet
  facet normal  0.000000e+000  9.999999e-001  -0.000000e+000
    outer loop
      vertex  1.400000e+001  4.500000e+000 -1.111359e+001
      vertex  0.000000e+000  4.500000e+000 -6.613585e+000
      vertex  1.400000e+001  4.500000e+000 -6.613585e+000
    endloop
  endfacet
  facet normal  0.000000e+000 -1.000000e+000  0.000000e+000
    outer loop
      vertex  0.000000e+000 -4.500000e+000 -6.613585e+000
      vertex  0.000000e+000 -4.500000e+000 -1.111358e+001
      vertex  1.400000e+001 -4.500000e+000 -6.613585e+000
    endloop
  endfacet
  facet normal  0.000000e+000 -1.000000e+000  -0.000000e+000
    outer loop
      vertex  1.400000e+001 -4.500000e+000 -6.613585e+000
      vertex  0.000000e+000 -4.500000e+000 -1.111358e+001
      vertex  1.400000e+001 -4.500000e+000 -1.111358e+001
    endloop
  endfacet
  facet normal  0.000000e+000 -1.000000e+000  -0.000000e+000
    outer loop
      vertex  0.000000e+000 -8.500000e+000 -1.111359e+001
      vertex  0.000000e+000 -8.500000e+000 -6.613585e+000
      vertex -5.000000e+000 -8.500000e+000 -1.111359e+001
    endloop
  endfacet
  facet normal  0.000000e+000 -1.000000e+000  0.000000e+000
    outer loop
      vertex -5.000000e+000 -8.500000e+000 -1.111359e+001
      vertex  0.000000e+000 -8.500000e+000 -6.613585e+000
      vertex -5.000000e+000 -8.500000e+000 -6.613585e+000
    endloop
  endfacet
  facet normal  0.000000e+000  1.000000e+000  -0.000000e+000
    outer loop
      vertex  0.000000e+000  8.500000e+000 -6.613585e+000
      vertex  0.000000e+000  8.500000e+000 -1.111359e+001
      vertex -5.000000e+000  8.500000e+000 -6.613585e+000
    endloop
  endfacet
  facet normal  0.000000e+000  1.000000e+000  0.000000e+000
    outer loop
      vertex -5.000000e+000  8.500000e+000 -6.613585e+000
      vertex  0.000000e+000  8.500000e+000 -1.111359e+001
      vertex -5.000000e+000  8.500000e+000 -1.111359e+001
    endloop
  endfacet
  facet normal  1.000000e+000  0.000000e+000  0.000000e+000
    outer loop
      vertex  1.400000e+001 -4.500000e+000 -1.111358e+001
      vertex  1.400000e+001 -4.248930e+000 -1.111359e+001
      vertex  1.400000e+001 -4.500000e+000 -6.613585e+000
    endloop
  endfacet
  facet normal  1.000000e+000  -0.000000e+000  0.000000e+000
    outer loop
      vertex  1.400000e+001 -4.500000e+000 -6.613585e+000
      vertex  1.400000e+001 -4.248930e+000 -1.111359e+001
      vertex  1.400000e+001 -4.248930e+000 -6.613585e+000
    endloop
  endfacet
  facet normal  1.000000e+000  0.000000e+000  0.000000e+000
    outer loop
      vertex  1.400000e+001  4.248930e+000 -1.111359e+001
      vertex  1.400000e+001  4.500000e+000 -1.111359e+001
      vertex  1.400000e+001  4.248930e+000 -6.613585e+000
    endloop
  endfacet
  facet normal  1.000000e+000  -0.000000e+000  0.000000e+000
    outer loop
      vertex  1.400000e+001  4.248930e+000 -6.613585e+000
      vertex  1.400000e+001  4.500000e+000 -1.111359e+001
      vertex  1.400000e+001  4.500000e+000 -6.613585e+000
    endloop
  endfacet
  facet normal  8.509599e-001 -5.252306e-001  0.000000e+000
    outer loop
      vertex  1.074723e+001  2.617762e+000 -1.111359e+001
      vertex  1.025448e+001  1.819424e+000 -6.613585e+000
      vertex  1.025448e+001  1.819424e+000 -1.111359e+001
    endloop
  endfacet
  facet normal  9.454603e-001 -3.257376e-001  0.000000e+000
    outer loop
      vertex  1.025448e+001  1.819424e+000 -1.111359e+001
      vertex  1.025448e+001  1.819424e+000 -6.613585e+000
      vertex  9.948885e+000  9.324298e-001 -6.613585e+000
    endloop
  endfacet
  facet normal  9.454603e-001 -3.257376e-001  0.000000e+000
    outer loop
      vertex  1.025448e+001  1.819424e+000 -1.111359e+001
      vertex  9.948885e+000  9.324298e-001 -6.613585e+000
      vertex  9.948885e+000  9.324298e-001 -1.111359e+001
    endloop
  endfacet
  facet normal  9.938903e-001 -1.103723e-001  0.000000e+000
    outer loop
      vertex  9.948885e+000  9.324298e-001 -1.111359e+001
      vertex  9.948885e+000  9.324298e-001 -6.613585e+000
      vertex  9.845338e+000  5.204749e-016 -6.613585e+000
    endloop
  endfacet
  facet normal  9.938903e-001 -1.103723e-001  0.000000e+000
    outer loop
      vertex  9.948885e+000  9.324298e-001 -1.111359e+001
      vertex  9.845338e+000  5.204749e-016 -6.613585e+000
      vertex  9.845338e+000  5.204749e-016 -1.111359e+001
    endloop
  endfacet
  facet normal  8.509599e-001 -5.252306e-001  0.000000e+000
    outer loop
      vertex  1.025448e+001  1.819424e+000 -6.613585e+000
      vertex  1.074723e+001  2.617762e+000 -1.111359e+001
      vertex  1.074723e+001  2.617762e+000 -6.613585e+000
    endloop
  endfacet
  facet normal  7.149935e-001 -6.991310e-001  0.000000e+000
    outer loop
      vertex  1.074723e+001  2.617762e+000 -6.613585e+000
      vertex  1.074723e+001  2.617762e+000 -1.111359e+001
      vertex  1.140313e+001  3.288542e+000 -1.111359e+001
    endloop
  endfacet
  facet normal  7.149935e-001 -6.991310e-001  0.000000e+000
    outer loop
      vertex  1.074723e+001  2.617762e+000 -6.613585e+000
      vertex  1.140313e+001  3.288542e+000 -1.111359e+001
      vertex  1.140313e+001  3.288542e+000 -6.613585e+000
    endloop
  endfacet
  facet normal  5.441882e-001 -8.389633e-001  0.000000e+000
    outer loop
      vertex  1.140313e+001  3.288542e+000 -6.613585e+000
      vertex  1.140313e+001  3.288542e+000 -1.111359e+001
      vertex  1.219021e+001  3.799078e+000 -1.111359e+001
    endloop
  endfacet
  facet normal  5.441882e-001 -8.389633e-001  0.000000e+000
    outer loop
      vertex  1.140313e+001  3.288542e+000 -6.613585e+000
      vertex  1.219021e+001  3.799078e+000 -1.111359e+001
      vertex  1.219021e+001  3.799078e+000 -6.613585e+000
    endloop
  endfacet
  facet normal  3.468646e-001 -9.379152e-001  0.000000e+000
    outer loop
      vertex  1.219021e+001  3.799078e+000 -6.613585e+000
      vertex  1.219021e+001  3.799078e+000 -1.111359e+001
      vertex  1.307013e+001  4.124493e+000 -1.111359e+001
    endloop
  endfacet
  facet normal  3.468646e-001 -9.379152e-001  0.000000e+000
    outer loop
      vertex  1.219021e+001  3.799078e+000 -6.613585e+000
      vertex  1.307013e+001  4.124493e+000 -1.111359e+001
      vertex  1.307013e+001  4.124493e+000 -6.613585e+000
    endloop
  endfacet
  facet normal  1.326395e-001 -9.911643e-001  0.000000e+000
    outer loop
      vertex  1.307013e+001  4.124493e+000 -6.613585e+000
      vertex  1.307013e+001  4.124493e+000 -1.111359e+001
      vertex  1.400000e+001  4.248930e+000 -1.111359e+001
    endloop
  endfacet
  facet normal  1.326395e-001 -9.911643e-001  0.000000e+000
    outer loop
      vertex  1.307013e+001  4.124493e+000 -6.613585e+000
      vertex  1.400000e+001  4.248930e+000 -1.111359e+001
      vertex  1.400000e+001  4.248930e+000 -6.613585e+000
    endloop
  endfacet
  facet normal  5.441882e-001  8.389633e-001  0.000000e+000
    outer loop
      vertex  1.140313e+001 -3.288542e+000 -1.111359e+001
      vertex  1.219021e+001 -3.799078e+000 -6.613585e+000
      vertex  1.219021e+001 -3.799078e+000 -1.111359e+001
    endloop
  endfacet
  facet normal  3.468646e-001  9.379152e-001  -0.000000e+000
    outer loop
      vertex  1.219021e+001 -3.799078e+000 -1.111359e+001
      vertex  1.219021e+001 -3.799078e+000 -6.613585e+000
      vertex  1.307013e+001 -4.124493e+000 -6.613585e+000
    endloop
  endfacet
  facet normal  3.468646e-001  9.379152e-001  0.000000e+000
    outer loop
      vertex  1.219021e+001 -3.799078e+000 -1.111359e+001
      vertex  1.307013e+001 -4.124493e+000 -6.613585e+000
      vertex  1.307013e+001 -4.124493e+000 -1.111359e+001
    endloop
  endfacet
  facet normal  1.326395e-001  9.911643e-001  -0.000000e+000
    outer loop
      vertex  1.307013e+001 -4.124493e+000 -1.111359e+001
      vertex  1.307013e+001 -4.124493e+000 -6.613585e+000
      vertex  1.400000e+001 -4.248930e+000 -6.613585e+000
    endloop
  endfacet
  facet normal  1.326395e-001  9.911643e-001  0.000000e+000
    outer loop
      vertex  1.307013e+001 -4.124493e+000 -1.111359e+001
      vertex  1.400000e+001 -4.248930e+000 -6.613585e+000
      vertex  1.400000e+001 -4.248930e+000 -1.111359e+001
    endloop
  endfacet
  facet normal  5.441882e-001  8.389633e-001  -0.000000e+000
    outer loop
      vertex  1.219021e+001 -3.799078e+000 -6.613585e+000
      vertex  1.140313e+001 -3.288542e+000 -1.111359e+001
      vertex  1.140313e+001 -3.288542e+000 -6.613585e+000
    endloop
  endfacet
  facet normal  7.149935e-001  6.991310e-001  0.000000e+000
    outer loop
      vertex  1.140313e+001 -3.288542e+000 -6.613585e+000
      vertex  1.140313e+001 -3.288542e+000 -1.111359e+001
      vertex  1.074723e+001 -2.617762e+000 -1.111359e+001
    endloop
  endfacet
  facet normal  7.149935e-001  6.991310e-001  -0.000000e+000
    outer loop
      vertex  1.140313e+001 -3.288542e+000 -6.613585e+000
      vertex  1.074723e+001 -2.617762e+000 -1.111359e+001
      vertex  1.074723e+001 -2.617762e+000 -6.613585e+000
    endloop
  endfacet
  facet normal  8.509599e-001  5.252306e-001  0.000000e+000
    outer loop
      vertex  1.074723e+001 -2.617762e+000 -6.613585e+000
      vertex  1.074723e+001 -2.617762e+000 -1.111359e+001
      vertex  1.025448e+001 -1.819424e+000 -1.111359e+001
    endloop
  endfacet
  facet normal  8.509599e-001  5.252306e-001  -0.000000e+000
    outer loop
      vertex  1.074723e+001 -2.617762e+000 -6.613585e+000
      vertex  1.025448e+001 -1.819424e+000 -1.111359e+001
      vertex  1.025448e+001 -1.819424e+000 -6.613585e+000
    endloop
  endfacet
  facet normal  9.454603e-001  3.257376e-001  0.000000e+000
    outer loop
      vertex  1.025448e+001 -1.819424e+000 -6.613585e+000
      vertex  1.025448e+001 -1.819424e+000 -1.111359e+001
      vertex  9.948885e+000 -9.324298e-001 -1.111359e+001
    endloop
  endfacet
  facet normal  9.454603e-001  3.257376e-001  -0.000000e+000
    outer loop
      vertex  1.025448e+001 -1.819424e+000 -6.613585e+000
      vertex  9.948885e+000 -9.324298e-001 -1.111359e+001
      vertex  9.948885e+000 -9.324298e-001 -6.613585e+000
    endloop
  endfacet
  facet normal  9.938903e-001  1.103723e-001  0.000000e+000
    outer loop
      vertex  9.948885e+000 -9.324298e-001 -6.613585e+000
      vertex  9.948885e+000 -9.324298e-001 -1.111359e+001
      vertex  9.845338e+000  5.204749e-016 -1.111359e+001
    endloop
  endfacet
  facet normal  9.938903e-001  1.103723e-001  -0.000000e+000
    outer loop
      vertex  9.948885e+000 -9.324298e-001 -6.613585e+000
      vertex  9.845338e+000  5.204749e-016 -1.111359e+001
      vertex  9.845338e+000  5.204749e-016 -6.613585e+000
    endloop
  endfacet
endsolid CATIA STL
