solid CATIA STL
  facet normal -1.000000e+000  0.000000e+000  0.000000e+000
    outer loop
      vertex -5.000000e+000 -4.500000e+000 -1.111359e+001
      vertex -5.000000e+000 -6.326943e+000 -1.034080e+001
      vertex -5.000000e+000  4.500000e+000 -1.111359e+001
    endloop
  endfacet
  facet normal -1.000000e+000  -0.000000e+000  -0.000000e+000
    outer loop
      vertex -5.000000e+000 -4.500000e+000 -6.613585e+000
      vertex -5.000000e+000  4.500000e+000 -6.613585e+000
      vertex -5.000000e+000  6.326943e+000 -7.386374e+000
    endloop
  endfacet
  facet normal -1.000000e+000  0.000000e+000  0.000000e+000
    outer loop
      vertex -5.000000e+000 -4.500000e+000 -6.613585e+000
      vertex -5.000000e+000  6.326943e+000 -7.386374e+000
      vertex -5.000000e+000 -6.326943e+000 -7.386374e+000
    endloop
  endfacet
  facet normal -9.999999e-001  0.000000e+000  0.000000e+000
    outer loop
      vertex -5.000000e+000 -4.500000e+000 -6.613585e+000
      vertex -5.000000e+000 -6.326943e+000 -7.386374e+000
      vertex -5.000000e+000 -6.847888e+000 -7.386374e+000
    endloop
  endfacet
  facet normal -1.000000e+000  0.000000e+000  0.000000e+000
    outer loop
      vertex -5.000000e+000 -4.500000e+000 -6.613585e+000
      vertex -5.000000e+000 -6.847888e+000 -7.386374e+000
      vertex -5.000000e+000 -8.500000e+000 -6.613585e+000
    endloop
  endfacet
  facet normal -1.000000e+000  0.000000e+000  0.000000e+000
    outer loop
      vertex -5.000000e+000  8.500000e+000 -6.613585e+000
      vertex -5.000000e+000  8.500000e+000 -1.111359e+001
      vertex -5.000000e+000  8.087415e+000 -8.863585e+000
    endloop
  endfacet
  facet normal -1.000000e+000  0.000000e+000  0.000000e+000
    outer loop
      vertex -5.000000e+000  8.500000e+000 -6.613585e+000
      vertex -5.000000e+000  8.087415e+000 -8.863585e+000
      vertex -5.000000e+000  7.996954e+000 -8.350554e+000
    endloop
  endfacet
  facet normal -1.000000e+000  0.000000e+000  0.000000e+000
    outer loop
      vertex -5.000000e+000  8.500000e+000 -6.613585e+000
      vertex -5.000000e+000  7.996954e+000 -8.350554e+000
      vertex -5.000000e+000  7.736482e+000 -7.899404e+000
    endloop
  endfacet
  facet normal -1.000000e+000  0.000000e+000  0.000000e+000
    outer loop
      vertex -5.000000e+000  8.500000e+000 -6.613585e+000
      vertex -5.000000e+000  7.736482e+000 -7.899404e+000
      vertex -5.000000e+000  7.337415e+000 -7.564547e+000
    endloop
  endfacet
  facet normal -1.000000e+000  0.000000e+000  0.000000e+000
    outer loop
      vertex -5.000000e+000  8.500000e+000 -6.613585e+000
      vertex -5.000000e+000  7.337415e+000 -7.564547e+000
      vertex -5.000000e+000  6.847888e+000 -7.386374e+000
    endloop
  endfacet
  facet normal -9.999999e-001  0.000000e+000  0.000000e+000
    outer loop
      vertex -5.000000e+000  8.500000e+000 -6.613585e+000
      vertex -5.000000e+000  6.847888e+000 -7.386374e+000
      vertex -5.000000e+000  6.326943e+000 -7.386374e+000
    endloop
  endfacet
  facet normal -1.000000e+000  0.000000e+000  0.000000e+000
    outer loop
      vertex -5.000000e+000  8.500000e+000 -6.613585e+000
      vertex -5.000000e+000  6.326943e+000 -7.386374e+000
      vertex -5.000000e+000  4.500000e+000 -6.613585e+000
    endloop
  endfacet
  facet normal -1.000000e+000  0.000000e+000  0.000000e+000
    outer loop
      vertex -5.000000e+000  8.500000e+000 -1.111359e+001
      vertex -5.000000e+000  4.500000e+000 -1.111359e+001
      vertex -5.000000e+000 -6.326943e+000 -1.034080e+001
    endloop
  endfacet
  facet normal -1.000000e+000  0.000000e+000  0.000000e+000
    outer loop
      vertex -5.000000e+000  8.500000e+000 -1.111359e+001
      vertex -5.000000e+000 -6.326943e+000 -1.034080e+001
      vertex -5.000000e+000  6.326943e+000 -1.034080e+001
    endloop
  endfacet
  facet normal -1.000000e+000  0.000000e+000  0.000000e+000
    outer loop
      vertex -5.000000e+000  8.500000e+000 -1.111359e+001
      vertex -5.000000e+000  6.326943e+000 -1.034080e+001
      vertex -5.000000e+000  6.847888e+000 -1.034080e+001
    endloop
  endfacet
  facet normal -1.000000e+000  0.000000e+000  0.000000e+000
    outer loop
      vertex -5.000000e+000  8.500000e+000 -1.111359e+001
      vertex -5.000000e+000  6.847888e+000 -1.034080e+001
      vertex -5.000000e+000  7.337415e+000 -1.016262e+001
    endloop
  endfacet
  facet normal -1.000000e+000  0.000000e+000  0.000000e+000
    outer loop
      vertex -5.000000e+000  8.500000e+000 -1.111359e+001
      vertex -5.000000e+000  7.337415e+000 -1.016262e+001
      vertex -5.000000e+000  7.736482e+000 -9.827766e+000
    endloop
  endfacet
  facet normal -1.000000e+000  0.000000e+000  0.000000e+000
    outer loop
      vertex -5.000000e+000  8.500000e+000 -1.111359e+001
      vertex -5.000000e+000  7.736482e+000 -9.827766e+000
      vertex -5.000000e+000  7.996954e+000 -9.376616e+000
    endloop
  endfacet
  facet normal -1.000000e+000  0.000000e+000  0.000000e+000
    outer loop
      vertex -5.000000e+000  8.500000e+000 -1.111359e+001
      vertex -5.000000e+000  7.996954e+000 -9.376616e+000
      vertex -5.000000e+000  8.087415e+000 -8.863585e+000
    endloop
  endfacet
  facet normal -1.000000e+000  0.000000e+000  -0.000000e+000
    outer loop
      vertex -5.000000e+000 -8.500000e+000 -1.111359e+001
      vertex -5.000000e+000 -8.087415e+000 -8.863585e+000
      vertex -5.000000e+000 -7.996954e+000 -9.376616e+000
    endloop
  endfacet
  facet normal -1.000000e+000  0.000000e+000  -0.000000e+000
    outer loop
      vertex -5.000000e+000 -8.500000e+000 -1.111359e+001
      vertex -5.000000e+000 -7.996954e+000 -9.376616e+000
      vertex -5.000000e+000 -7.736482e+000 -9.827766e+000
    endloop
  endfacet
  facet normal -1.000000e+000  0.000000e+000  -0.000000e+000
    outer loop
      vertex -5.000000e+000 -8.500000e+000 -1.111359e+001
      vertex -5.000000e+000 -7.736482e+000 -9.827766e+000
      vertex -5.000000e+000 -7.337415e+000 -1.016262e+001
    endloop
  endfacet
  facet normal -1.000000e+000  0.000000e+000  -0.000000e+000
    outer loop
      vertex -5.000000e+000 -8.500000e+000 -1.111359e+001
      vertex -5.000000e+000 -7.337415e+000 -1.016262e+001
      vertex -5.000000e+000 -6.847888e+000 -1.034080e+001
    endloop
  endfacet
  facet normal -1.000000e+000  0.000000e+000  -0.000000e+000
    outer loop
      vertex -5.000000e+000 -8.500000e+000 -1.111359e+001
      vertex -5.000000e+000 -6.847888e+000 -1.034080e+001
      vertex -5.000000e+000 -6.326943e+000 -1.034080e+001
    endloop
  endfacet
  facet normal -1.000000e+000  0.000000e+000  -0.000000e+000
    outer loop
      vertex -5.000000e+000 -8.500000e+000 -1.111359e+001
      vertex -5.000000e+000 -6.326943e+000 -1.034080e+001
      vertex -5.000000e+000 -4.500000e+000 -1.111359e+001
    endloop
  endfacet
  facet normal -9.999999e-001  -0.000000e+000  0.000000e+000
    outer loop
      vertex -5.000000e+000 -8.500000e+000 -6.613585e+000
      vertex -5.000000e+000 -6.847888e+000 -7.386374e+000
      vertex -5.000000e+000 -7.337415e+000 -7.564547e+000
    endloop
  endfacet
  facet normal -9.999999e-001  -0.000000e+000  0.000000e+000
    outer loop
      vertex -5.000000e+000 -8.500000e+000 -6.613585e+000
      vertex -5.000000e+000 -7.337415e+000 -7.564547e+000
      vertex -5.000000e+000 -7.736482e+000 -7.899404e+000
    endloop
  endfacet
  facet normal -1.000000e+000  -0.000000e+000  0.000000e+000
    outer loop
      vertex -5.000000e+000 -8.500000e+000 -6.613585e+000
      vertex -5.000000e+000 -7.736482e+000 -7.899404e+000
      vertex -5.000000e+000 -7.996954e+000 -8.350554e+000
    endloop
  endfacet
  facet normal -1.000000e+000  -0.000000e+000  0.000000e+000
    outer loop
      vertex -5.000000e+000 -8.500000e+000 -6.613585e+000
      vertex -5.000000e+000 -7.996954e+000 -8.350554e+000
      vertex -5.000000e+000 -8.087415e+000 -8.863585e+000
    endloop
  endfacet
  facet normal -1.000000e+000  -0.000000e+000  0.000000e+000
    outer loop
      vertex -5.000000e+000 -8.500000e+000 -6.613585e+000
      vertex -5.000000e+000 -8.087415e+000 -8.863585e+000
      vertex -5.000000e+000 -8.500000e+000 -1.111359e+001
    endloop
  endfacet
  facet normal -1.000000e+000  -0.000000e+000  0.000000e+000
    outer loop
      vertex -5.000000e+000 -6.326943e+000 -7.386374e+000
      vertex -5.000000e+000  6.326943e+000 -7.386374e+000
      vertex -5.000000e+000 -5.837415e+000 -7.564547e+000
    endloop
  endfacet
  facet normal -1.000000e+000  0.000000e+000  0.000000e+000
    outer loop
      vertex -5.000000e+000 -5.837415e+000 -7.564547e+000
      vertex -5.000000e+000  6.326943e+000 -7.386374e+000
      vertex -5.000000e+000  5.837415e+000 -7.564547e+000
    endloop
  endfacet
  facet normal -9.999999e-001  -0.000000e+000  0.000000e+000
    outer loop
      vertex -5.000000e+000 -5.837415e+000 -7.564547e+000
      vertex -5.000000e+000  5.837415e+000 -7.564547e+000
      vertex -5.000000e+000 -5.438348e+000 -7.899404e+000
    endloop
  endfacet
  facet normal -1.000000e+000  0.000000e+000  0.000000e+000
    outer loop
      vertex -5.000000e+000 -5.438348e+000 -7.899404e+000
      vertex -5.000000e+000  5.837415e+000 -7.564547e+000
      vertex -5.000000e+000  5.438348e+000 -7.899404e+000
    endloop
  endfacet
  facet normal -1.000000e+000  -0.000000e+000  0.000000e+000
    outer loop
      vertex -5.000000e+000 -5.438348e+000 -7.899404e+000
      vertex -5.000000e+000  5.438348e+000 -7.899404e+000
      vertex -5.000000e+000 -5.177876e+000 -8.350554e+000
    endloop
  endfacet
  facet normal -9.999999e-001  0.000000e+000  0.000000e+000
    outer loop
      vertex -5.000000e+000 -5.177876e+000 -8.350554e+000
      vertex -5.000000e+000  5.438348e+000 -7.899404e+000
      vertex -5.000000e+000  5.177876e+000 -8.350554e+000
    endloop
  endfacet
  facet normal -9.999999e-001  -0.000000e+000  0.000000e+000
    outer loop
      vertex -5.000000e+000 -5.177876e+000 -8.350554e+000
      vertex -5.000000e+000  5.177876e+000 -8.350554e+000
      vertex -5.000000e+000 -5.087415e+000 -8.863585e+000
    endloop
  endfacet
  facet normal -1.000000e+000  0.000000e+000  0.000000e+000
    outer loop
      vertex -5.000000e+000 -5.087415e+000 -8.863585e+000
      vertex -5.000000e+000  5.177876e+000 -8.350554e+000
      vertex -5.000000e+000  5.087415e+000 -8.863585e+000
    endloop
  endfacet
  facet normal -1.000000e+000  -0.000000e+000  0.000000e+000
    outer loop
      vertex -5.000000e+000 -5.087415e+000 -8.863585e+000
      vertex -5.000000e+000  5.087415e+000 -8.863585e+000
      vertex -5.000000e+000 -5.177876e+000 -9.376616e+000
    endloop
  endfacet
  facet normal -1.000000e+000  0.000000e+000  0.000000e+000
    outer loop
      vertex -5.000000e+000 -5.177876e+000 -9.376616e+000
      vertex -5.000000e+000  5.087415e+000 -8.863585e+000
      vertex -5.000000e+000  5.177876e+000 -9.376616e+000
    endloop
  endfacet
  facet normal -9.999999e-001  -0.000000e+000  0.000000e+000
    outer loop
      vertex -5.000000e+000 -5.177876e+000 -9.376616e+000
      vertex -5.000000e+000  5.177876e+000 -9.376616e+000
      vertex -5.000000e+000 -5.438348e+000 -9.827766e+000
    endloop
  endfacet
  facet normal -1.000000e+000  0.000000e+000  0.000000e+000
    outer loop
      vertex -5.000000e+000 -5.438348e+000 -9.827766e+000
      vertex -5.000000e+000  5.177876e+000 -9.376616e+000
      vertex -5.000000e+000  5.438348e+000 -9.827766e+000
    endloop
  endfacet
  facet normal -1.000000e+000  -0.000000e+000  0.000000e+000
    outer loop
      vertex -5.000000e+000 -5.438348e+000 -9.827766e+000
      vertex -5.000000e+000  5.438348e+000 -9.827766e+000
      vertex -5.000000e+000 -5.837415e+000 -1.016262e+001
    endloop
  endfacet
  facet normal -9.999999e-001  0.000000e+000  0.000000e+000
    outer loop
      vertex -5.000000e+000 -5.837415e+000 -1.016262e+001
      vertex -5.000000e+000  5.438348e+000 -9.827766e+000
      vertex -5.000000e+000  5.837415e+000 -1.016262e+001
    endloop
  endfacet
  facet normal -1.000000e+000  -0.000000e+000  0.000000e+000
    outer loop
      vertex -5.000000e+000 -5.837415e+000 -1.016262e+001
      vertex -5.000000e+000  5.837415e+000 -1.016262e+001
      vertex -5.000000e+000 -6.326943e+000 -1.034080e+001
    endloop
  endfacet
  facet normal -1.000000e+000  0.000000e+000  0.000000e+000
    outer loop
      vertex -5.000000e+000 -6.326943e+000 -1.034080e+001
      vertex -5.000000e+000  5.837415e+000 -1.016262e+001
      vertex -5.000000e+000  6.326943e+000 -1.034080e+001
    endloop
  endfacet
  facet normal  1.000000e+000  0.000000e+000  0.000000e+000
    outer loop
      vertex  0.000000e+000  4.500000e+000 -6.613585e+000
      vertex  0.000000e+000  4.500000e+000 -1.111359e+001
      vertex  0.000000e+000  5.177876e+000 -8.350554e+000
    endloop
  endfacet
  facet normal  1.000000e+000  0.000000e+000  -0.000000e+000
    outer loop
      vertex  0.000000e+000  4.500000e+000 -6.613585e+000
      vertex  0.000000e+000  5.177876e+000 -8.350554e+000
      vertex  0.000000e+000  5.438348e+000 -7.899404e+000
    endloop
  endfacet
  facet normal  1.000000e+000  0.000000e+000  -0.000000e+000
    outer loop
      vertex  0.000000e+000  4.500000e+000 -6.613585e+000
      vertex  0.000000e+000  5.438348e+000 -7.899404e+000
      vertex  0.000000e+000  5.837415e+000 -7.564547e+000
    endloop
  endfacet
  facet normal  1.000000e+000  0.000000e+000  -0.000000e+000
    outer loop
      vertex  0.000000e+000  4.500000e+000 -6.613585e+000
      vertex  0.000000e+000  5.837415e+000 -7.564547e+000
      vertex  0.000000e+000  6.326943e+000 -7.386374e+000
    endloop
  endfacet
  facet normal  9.999999e-001  0.000000e+000  -0.000000e+000
    outer loop
      vertex  0.000000e+000  4.500000e+000 -6.613585e+000
      vertex  0.000000e+000  6.326943e+000 -7.386374e+000
      vertex  0.000000e+000  6.847888e+000 -7.386374e+000
    endloop
  endfacet
  facet normal  1.000000e+000  0.000000e+000  -0.000000e+000
    outer loop
      vertex  0.000000e+000  4.500000e+000 -6.613585e+000
      vertex  0.000000e+000  6.847888e+000 -7.386374e+000
      vertex  0.000000e+000  8.500000e+000 -6.613585e+000
    endloop
  endfacet
  facet normal  1.000000e+000  0.000000e+000  0.000000e+000
    outer loop
      vertex  0.000000e+000  4.500000e+000 -1.111359e+001
      vertex  0.000000e+000  8.500000e+000 -1.111359e+001
      vertex  0.000000e+000  6.847888e+000 -1.034080e+001
    endloop
  endfacet
  facet normal  1.000000e+000  0.000000e+000  0.000000e+000
    outer loop
      vertex  0.000000e+000  4.500000e+000 -1.111359e+001
      vertex  0.000000e+000  6.847888e+000 -1.034080e+001
      vertex  0.000000e+000  6.326943e+000 -1.034080e+001
    endloop
  endfacet
  facet normal  1.000000e+000  0.000000e+000  0.000000e+000
    outer loop
      vertex  0.000000e+000  4.500000e+000 -1.111359e+001
      vertex  0.000000e+000  6.326943e+000 -1.034080e+001
      vertex  0.000000e+000  5.837415e+000 -1.016262e+001
    endloop
  endfacet
  facet normal  1.000000e+000  0.000000e+000  0.000000e+000
    outer loop
      vertex  0.000000e+000  4.500000e+000 -1.111359e+001
      vertex  0.000000e+000  5.837415e+000 -1.016262e+001
      vertex  0.000000e+000  5.438348e+000 -9.827766e+000
    endloop
  endfacet
  facet normal  1.000000e+000  0.000000e+000  0.000000e+000
    outer loop
      vertex  0.000000e+000  4.500000e+000 -1.111359e+001
      vertex  0.000000e+000  5.438348e+000 -9.827766e+000
      vertex  0.000000e+000  5.177876e+000 -9.376616e+000
    endloop
  endfacet
  facet normal  1.000000e+000  0.000000e+000  0.000000e+000
    outer loop
      vertex  0.000000e+000  4.500000e+000 -1.111359e+001
      vertex  0.000000e+000  5.177876e+000 -9.376616e+000
      vertex  0.000000e+000  5.087415e+000 -8.863585e+000
    endloop
  endfacet
  facet normal  1.000000e+000  0.000000e+000  -0.000000e+000
    outer loop
      vertex  0.000000e+000  4.500000e+000 -1.111359e+001
      vertex  0.000000e+000  5.087415e+000 -8.863585e+000
      vertex  0.000000e+000  5.177876e+000 -8.350554e+000
    endloop
  endfacet
  facet normal  1.000000e+000  0.000000e+000  0.000000e+000
    outer loop
      vertex  0.000000e+000  8.500000e+000 -1.111359e+001
      vertex  0.000000e+000  8.087415e+000 -8.863585e+000
      vertex  0.000000e+000  7.996954e+000 -9.376616e+000
    endloop
  endfacet
  facet normal  1.000000e+000  0.000000e+000  0.000000e+000
    outer loop
      vertex  0.000000e+000  8.500000e+000 -1.111359e+001
      vertex  0.000000e+000  7.996954e+000 -9.376616e+000
      vertex  0.000000e+000  7.736482e+000 -9.827766e+000
    endloop
  endfacet
  facet normal  1.000000e+000  0.000000e+000  0.000000e+000
    outer loop
      vertex  0.000000e+000  8.500000e+000 -1.111359e+001
      vertex  0.000000e+000  7.736482e+000 -9.827766e+000
      vertex  0.000000e+000  7.337415e+000 -1.016262e+001
    endloop
  endfacet
  facet normal  1.000000e+000  0.000000e+000  0.000000e+000
    outer loop
      vertex  0.000000e+000  8.500000e+000 -1.111359e+001
      vertex  0.000000e+000  7.337415e+000 -1.016262e+001
      vertex  0.000000e+000  6.847888e+000 -1.034080e+001
    endloop
  endfacet
  facet normal  9.999999e-001  -0.000000e+000  0.000000e+000
    outer loop
      vertex  0.000000e+000  8.500000e+000 -6.613585e+000
      vertex  0.000000e+000  6.847888e+000 -7.386374e+000
      vertex  0.000000e+000  7.337415e+000 -7.564547e+000
    endloop
  endfacet
  facet normal  9.999999e-001  -0.000000e+000  0.000000e+000
    outer loop
      vertex  0.000000e+000  8.500000e+000 -6.613585e+000
      vertex  0.000000e+000  7.337415e+000 -7.564547e+000
      vertex  0.000000e+000  7.736482e+000 -7.899404e+000
    endloop
  endfacet
  facet normal  1.000000e+000  -0.000000e+000  0.000000e+000
    outer loop
      vertex  0.000000e+000  8.500000e+000 -6.613585e+000
      vertex  0.000000e+000  7.736482e+000 -7.899404e+000
      vertex  0.000000e+000  7.996954e+000 -8.350554e+000
    endloop
  endfacet
  facet normal  1.000000e+000  -0.000000e+000  0.000000e+000
    outer loop
      vertex  0.000000e+000  8.500000e+000 -6.613585e+000
      vertex  0.000000e+000  7.996954e+000 -8.350554e+000
      vertex  0.000000e+000  8.087415e+000 -8.863585e+000
    endloop
  endfacet
  facet normal  1.000000e+000  -0.000000e+000  0.000000e+000
    outer loop
      vertex  0.000000e+000  8.500000e+000 -6.613585e+000
      vertex  0.000000e+000  8.087415e+000 -8.863585e+000
      vertex  0.000000e+000  8.500000e+000 -1.111359e+001
    endloop
  endfacet
  facet normal  -0.000000e+000  3.420194e-001  9.396929e-001
    outer loop
      vertex  0.000000e+000  6.326943e+000 -1.034080e+001
      vertex -5.000000e+000  5.837415e+000 -1.016262e+001
      vertex  0.000000e+000  5.837415e+000 -1.016262e+001
    endloop
  endfacet
  facet normal  0.000000e+000  6.427877e-001  7.660444e-001
    outer loop
      vertex  0.000000e+000  5.837415e+000 -1.016262e+001
      vertex -5.000000e+000  5.837415e+000 -1.016262e+001
      vertex -5.000000e+000  5.438348e+000 -9.827766e+000
    endloop
  endfacet
  facet normal  -0.000000e+000  6.427877e-001  7.660444e-001
    outer loop
      vertex  0.000000e+000  5.837415e+000 -1.016262e+001
      vertex -5.000000e+000  5.438348e+000 -9.827766e+000
      vertex  0.000000e+000  5.438348e+000 -9.827766e+000
    endloop
  endfacet
  facet normal  0.000000e+000  8.660253e-001  5.000003e-001
    outer loop
      vertex  0.000000e+000  5.438348e+000 -9.827766e+000
      vertex -5.000000e+000  5.438348e+000 -9.827766e+000
      vertex -5.000000e+000  5.177876e+000 -9.376616e+000
    endloop
  endfacet
  facet normal  -0.000000e+000  8.660253e-001  5.000003e-001
    outer loop
      vertex  0.000000e+000  5.438348e+000 -9.827766e+000
      vertex -5.000000e+000  5.177876e+000 -9.376616e+000
      vertex  0.000000e+000  5.177876e+000 -9.376616e+000
    endloop
  endfacet
  facet normal  0.000000e+000  9.848078e-001  1.736477e-001
    outer loop
      vertex  0.000000e+000  5.177876e+000 -9.376616e+000
      vertex -5.000000e+000  5.177876e+000 -9.376616e+000
      vertex -5.000000e+000  5.087415e+000 -8.863585e+000
    endloop
  endfacet
  facet normal  -0.000000e+000  9.848078e-001  1.736477e-001
    outer loop
      vertex  0.000000e+000  5.177876e+000 -9.376616e+000
      vertex -5.000000e+000  5.087415e+000 -8.863585e+000
      vertex  0.000000e+000  5.087415e+000 -8.863585e+000
    endloop
  endfacet
  facet normal  0.000000e+000  3.420194e-001  9.396929e-001
    outer loop
      vertex -5.000000e+000  5.837415e+000 -1.016262e+001
      vertex  0.000000e+000  6.326943e+000 -1.034080e+001
      vertex -5.000000e+000  6.326943e+000 -1.034080e+001
    endloop
  endfacet
  facet normal  0.000000e+000  0.000000e+000  1.000000e+000
    outer loop
      vertex -5.000000e+000  6.326943e+000 -1.034080e+001
      vertex  0.000000e+000  6.326943e+000 -1.034080e+001
      vertex  0.000000e+000  6.847888e+000 -1.034080e+001
    endloop
  endfacet
  facet normal  0.000000e+000  0.000000e+000  1.000000e+000
    outer loop
      vertex -5.000000e+000  6.326943e+000 -1.034080e+001
      vertex  0.000000e+000  6.847888e+000 -1.034080e+001
      vertex -5.000000e+000  6.847888e+000 -1.034080e+001
    endloop
  endfacet
  facet normal  0.000000e+000 -3.420194e-001  9.396929e-001
    outer loop
      vertex -5.000000e+000  6.847888e+000 -1.034080e+001
      vertex  0.000000e+000  6.847888e+000 -1.034080e+001
      vertex  0.000000e+000  7.337415e+000 -1.016262e+001
    endloop
  endfacet
  facet normal  0.000000e+000 -3.420194e-001  9.396929e-001
    outer loop
      vertex -5.000000e+000  6.847888e+000 -1.034080e+001
      vertex  0.000000e+000  7.337415e+000 -1.016262e+001
      vertex -5.000000e+000  7.337415e+000 -1.016262e+001
    endloop
  endfacet
  facet normal  0.000000e+000 -6.427882e-001  7.660440e-001
    outer loop
      vertex -5.000000e+000  7.337415e+000 -1.016262e+001
      vertex  0.000000e+000  7.337415e+000 -1.016262e+001
      vertex  0.000000e+000  7.736482e+000 -9.827766e+000
    endloop
  endfacet
  facet normal  0.000000e+000 -6.427882e-001  7.660440e-001
    outer loop
      vertex -5.000000e+000  7.337415e+000 -1.016262e+001
      vertex  0.000000e+000  7.736482e+000 -9.827766e+000
      vertex -5.000000e+000  7.736482e+000 -9.827766e+000
    endloop
  endfacet
  facet normal  0.000000e+000 -8.660253e-001  5.000003e-001
    outer loop
      vertex -5.000000e+000  7.736482e+000 -9.827766e+000
      vertex  0.000000e+000  7.736482e+000 -9.827766e+000
      vertex  0.000000e+000  7.996954e+000 -9.376616e+000
    endloop
  endfacet
  facet normal  0.000000e+000 -8.660253e-001  5.000003e-001
    outer loop
      vertex -5.000000e+000  7.736482e+000 -9.827766e+000
      vertex  0.000000e+000  7.996954e+000 -9.376616e+000
      vertex -5.000000e+000  7.996954e+000 -9.376616e+000
    endloop
  endfacet
  facet normal  0.000000e+000 -9.848078e-001  1.736477e-001
    outer loop
      vertex -5.000000e+000  7.996954e+000 -9.376616e+000
      vertex  0.000000e+000  7.996954e+000 -9.376616e+000
      vertex  0.000000e+000  8.087415e+000 -8.863585e+000
    endloop
  endfacet
  facet normal  0.000000e+000 -9.848078e-001  1.736477e-001
    outer loop
      vertex -5.000000e+000  7.996954e+000 -9.376616e+000
      vertex  0.000000e+000  8.087415e+000 -8.863585e+000
      vertex -5.000000e+000  8.087415e+000 -8.863585e+000
    endloop
  endfacet
  facet normal  0.000000e+000 -3.420202e-001 -9.396926e-001
    outer loop
      vertex  0.000000e+000  6.847888e+000 -7.386374e+000
      vertex -5.000000e+000  7.337415e+000 -7.564547e+000
      vertex  0.000000e+000  7.337415e+000 -7.564547e+000
    endloop
  endfacet
  facet normal  -0.000000e+000 -6.427876e-001 -7.660444e-001
    outer loop
      vertex  0.000000e+000  7.337415e+000 -7.564547e+000
      vertex -5.000000e+000  7.337415e+000 -7.564547e+000
      vertex -5.000000e+000  7.736482e+000 -7.899404e+000
    endloop
  endfacet
  facet normal  0.000000e+000 -6.427876e-001 -7.660444e-001
    outer loop
      vertex  0.000000e+000  7.337415e+000 -7.564547e+000
      vertex -5.000000e+000  7.736482e+000 -7.899404e+000
      vertex  0.000000e+000  7.736482e+000 -7.899404e+000
    endloop
  endfacet
  facet normal  -0.000000e+000 -8.660253e-001 -5.000003e-001
    outer loop
      vertex  0.000000e+000  7.736482e+000 -7.899404e+000
      vertex -5.000000e+000  7.736482e+000 -7.899404e+000
      vertex -5.000000e+000  7.996954e+000 -8.350554e+000
    endloop
  endfacet
  facet normal  0.000000e+000 -8.660253e-001 -5.000003e-001
    outer loop
      vertex  0.000000e+000  7.736482e+000 -7.899404e+000
      vertex -5.000000e+000  7.996954e+000 -8.350554e+000
      vertex  0.000000e+000  7.996954e+000 -8.350554e+000
    endloop
  endfacet
  facet normal  -0.000000e+000 -9.848078e-001 -1.736474e-001
    outer loop
      vertex  0.000000e+000  7.996954e+000 -8.350554e+000
      vertex -5.000000e+000  7.996954e+000 -8.350554e+000
      vertex -5.000000e+000  8.087415e+000 -8.863585e+000
    endloop
  endfacet
  facet normal  0.000000e+000 -9.848078e-001 -1.736474e-001
    outer loop
      vertex  0.000000e+000  7.996954e+000 -8.350554e+000
      vertex -5.000000e+000  8.087415e+000 -8.863585e+000
      vertex  0.000000e+000  8.087415e+000 -8.863585e+000
    endloop
  endfacet
  facet normal  -0.000000e+000 -3.420202e-001 -9.396926e-001
    outer loop
      vertex -5.000000e+000  7.337415e+000 -7.564547e+000
      vertex  0.000000e+000  6.847888e+000 -7.386374e+000
      vertex -5.000000e+000  6.847888e+000 -7.386374e+000
    endloop
  endfacet
  facet normal  0.000000e+000  0.000000e+000 -1.000000e+000
    outer loop
      vertex -5.000000e+000  6.847888e+000 -7.386374e+000
      vertex  0.000000e+000  6.847888e+000 -7.386374e+000
      vertex  0.000000e+000  6.326943e+000 -7.386374e+000
    endloop
  endfacet
  facet normal  0.000000e+000  0.000000e+000 -1.000000e+000
    outer loop
      vertex -5.000000e+000  6.847888e+000 -7.386374e+000
      vertex  0.000000e+000  6.326943e+000 -7.386374e+000
      vertex -5.000000e+000  6.326943e+000 -7.386374e+000
    endloop
  endfacet
  facet normal  0.000000e+000  3.420202e-001 -9.396926e-001
    outer loop
      vertex -5.000000e+000  6.326943e+000 -7.386374e+000
      vertex  0.000000e+000  6.326943e+000 -7.386374e+000
      vertex  0.000000e+000  5.837415e+000 -7.564547e+000
    endloop
  endfacet
  facet normal  0.000000e+000  3.420202e-001 -9.396926e-001
    outer loop
      vertex -5.000000e+000  6.326943e+000 -7.386374e+000
      vertex  0.000000e+000  5.837415e+000 -7.564547e+000
      vertex -5.000000e+000  5.837415e+000 -7.564547e+000
    endloop
  endfacet
  facet normal  0.000000e+000  6.427872e-001 -7.660449e-001
    outer loop
      vertex -5.000000e+000  5.837415e+000 -7.564547e+000
      vertex  0.000000e+000  5.837415e+000 -7.564547e+000
      vertex  0.000000e+000  5.438348e+000 -7.899404e+000
    endloop
  endfacet
  facet normal  0.000000e+000  6.427872e-001 -7.660449e-001
    outer loop
      vertex -5.000000e+000  5.837415e+000 -7.564547e+000
      vertex  0.000000e+000  5.438348e+000 -7.899404e+000
      vertex -5.000000e+000  5.438348e+000 -7.899404e+000
    endloop
  endfacet
  facet normal  0.000000e+000  8.660253e-001 -5.000003e-001
    outer loop
      vertex -5.000000e+000  5.438348e+000 -7.899404e+000
      vertex  0.000000e+000  5.438348e+000 -7.899404e+000
      vertex  0.000000e+000  5.177876e+000 -8.350554e+000
    endloop
  endfacet
  facet normal  0.000000e+000  8.660253e-001 -5.000003e-001
    outer loop
      vertex -5.000000e+000  5.438348e+000 -7.899404e+000
      vertex  0.000000e+000  5.177876e+000 -8.350554e+000
      vertex -5.000000e+000  5.177876e+000 -8.350554e+000
    endloop
  endfacet
  facet normal  0.000000e+000  9.848078e-001 -1.736474e-001
    outer loop
      vertex -5.000000e+000  5.177876e+000 -8.350554e+000
      vertex  0.000000e+000  5.177876e+000 -8.350554e+000
      vertex  0.000000e+000  5.087415e+000 -8.863585e+000
    endloop
  endfacet
  facet normal  0.000000e+000  9.848078e-001 -1.736474e-001
    outer loop
      vertex -5.000000e+000  5.177876e+000 -8.350554e+000
      vertex  0.000000e+000  5.087415e+000 -8.863585e+000
      vertex -5.000000e+000  5.087415e+000 -8.863585e+000
    endloop
  endfacet
  facet normal  1.000000e+000  0.000000e+000  0.000000e+000
    outer loop
      vertex  0.000000e+000 -8.500000e+000 -6.613585e+000
      vertex  0.000000e+000 -8.500000e+000 -1.111359e+001
      vertex  0.000000e+000 -8.087415e+000 -8.863585e+000
    endloop
  endfacet
  facet normal  1.000000e+000  0.000000e+000  -0.000000e+000
    outer loop
      vertex  0.000000e+000 -8.500000e+000 -6.613585e+000
      vertex  0.000000e+000 -8.087415e+000 -8.863585e+000
      vertex  0.000000e+000 -7.996954e+000 -8.350554e+000
    endloop
  endfacet
  facet normal  1.000000e+000  0.000000e+000  -0.000000e+000
    outer loop
      vertex  0.000000e+000 -8.500000e+000 -6.613585e+000
      vertex  0.000000e+000 -7.996954e+000 -8.350554e+000
      vertex  0.000000e+000 -7.736482e+000 -7.899404e+000
    endloop
  endfacet
  facet normal  1.000000e+000  0.000000e+000  -0.000000e+000
    outer loop
      vertex  0.000000e+000 -8.500000e+000 -6.613585e+000
      vertex  0.000000e+000 -7.736482e+000 -7.899404e+000
      vertex  0.000000e+000 -7.337415e+000 -7.564547e+000
    endloop
  endfacet
  facet normal  1.000000e+000  0.000000e+000  -0.000000e+000
    outer loop
      vertex  0.000000e+000 -8.500000e+000 -6.613585e+000
      vertex  0.000000e+000 -7.337415e+000 -7.564547e+000
      vertex  0.000000e+000 -6.847888e+000 -7.386374e+000
    endloop
  endfacet
  facet normal  9.999999e-001  0.000000e+000  -0.000000e+000
    outer loop
      vertex  0.000000e+000 -8.500000e+000 -6.613585e+000
      vertex  0.000000e+000 -6.847888e+000 -7.386374e+000
      vertex  0.000000e+000 -6.326943e+000 -7.386374e+000
    endloop
  endfacet
  facet normal  1.000000e+000  0.000000e+000  -0.000000e+000
    outer loop
      vertex  0.000000e+000 -8.500000e+000 -6.613585e+000
      vertex  0.000000e+000 -6.326943e+000 -7.386374e+000
      vertex  0.000000e+000 -4.500000e+000 -6.613585e+000
    endloop
  endfacet
  facet normal  1.000000e+000  0.000000e+000  0.000000e+000
    outer loop
      vertex  0.000000e+000 -8.500000e+000 -1.111359e+001
      vertex  0.000000e+000 -4.500000e+000 -1.111358e+001
      vertex  0.000000e+000 -6.326943e+000 -1.034080e+001
    endloop
  endfacet
  facet normal  1.000000e+000  0.000000e+000  0.000000e+000
    outer loop
      vertex  0.000000e+000 -8.500000e+000 -1.111359e+001
      vertex  0.000000e+000 -6.326943e+000 -1.034080e+001
      vertex  0.000000e+000 -6.847888e+000 -1.034080e+001
    endloop
  endfacet
  facet normal  1.000000e+000  0.000000e+000  0.000000e+000
    outer loop
      vertex  0.000000e+000 -8.500000e+000 -1.111359e+001
      vertex  0.000000e+000 -6.847888e+000 -1.034080e+001
      vertex  0.000000e+000 -7.337415e+000 -1.016262e+001
    endloop
  endfacet
  facet normal  1.000000e+000  0.000000e+000  0.000000e+000
    outer loop
      vertex  0.000000e+000 -8.500000e+000 -1.111359e+001
      vertex  0.000000e+000 -7.337415e+000 -1.016262e+001
      vertex  0.000000e+000 -7.736482e+000 -9.827766e+000
    endloop
  endfacet
  facet normal  1.000000e+000  0.000000e+000  0.000000e+000
    outer loop
      vertex  0.000000e+000 -8.500000e+000 -1.111359e+001
      vertex  0.000000e+000 -7.736482e+000 -9.827766e+000
      vertex  0.000000e+000 -7.996954e+000 -9.376616e+000
    endloop
  endfacet
  facet normal  1.000000e+000  0.000000e+000  0.000000e+000
    outer loop
      vertex  0.000000e+000 -8.500000e+000 -1.111359e+001
      vertex  0.000000e+000 -7.996954e+000 -9.376616e+000
      vertex  0.000000e+000 -8.087415e+000 -8.863585e+000
    endloop
  endfacet
  facet normal  1.000000e+000  0.000000e+000  0.000000e+000
    outer loop
      vertex  0.000000e+000 -4.500000e+000 -1.111358e+001
      vertex  0.000000e+000 -5.177876e+000 -8.350554e+000
      vertex  0.000000e+000 -5.087415e+000 -8.863585e+000
    endloop
  endfacet
  facet normal  1.000000e+000  0.000000e+000  0.000000e+000
    outer loop
      vertex  0.000000e+000 -4.500000e+000 -1.111358e+001
      vertex  0.000000e+000 -5.087415e+000 -8.863585e+000
      vertex  0.000000e+000 -5.177876e+000 -9.376616e+000
    endloop
  endfacet
  facet normal  1.000000e+000  0.000000e+000  0.000000e+000
    outer loop
      vertex  0.000000e+000 -4.500000e+000 -1.111358e+001
      vertex  0.000000e+000 -5.177876e+000 -9.376616e+000
      vertex  0.000000e+000 -5.438348e+000 -9.827766e+000
    endloop
  endfacet
  facet normal  9.999999e-001  0.000000e+000  0.000000e+000
    outer loop
      vertex  0.000000e+000 -4.500000e+000 -1.111358e+001
      vertex  0.000000e+000 -5.438348e+000 -9.827766e+000
      vertex  0.000000e+000 -5.837415e+000 -1.016262e+001
    endloop
  endfacet
  facet normal  1.000000e+000  0.000000e+000  0.000000e+000
    outer loop
      vertex  0.000000e+000 -4.500000e+000 -1.111358e+001
      vertex  0.000000e+000 -5.837415e+000 -1.016262e+001
      vertex  0.000000e+000 -6.326943e+000 -1.034080e+001
    endloop
  endfacet
  facet normal  1.000000e+000  -0.000000e+000  0.000000e+000
    outer loop
      vertex  0.000000e+000 -4.500000e+000 -6.613585e+000
      vertex  0.000000e+000 -6.326943e+000 -7.386374e+000
      vertex  0.000000e+000 -5.837415e+000 -7.564547e+000
    endloop
  endfacet
  facet normal  9.999999e-001  -0.000000e+000  0.000000e+000
    outer loop
      vertex  0.000000e+000 -4.500000e+000 -6.613585e+000
      vertex  0.000000e+000 -5.837415e+000 -7.564547e+000
      vertex  0.000000e+000 -5.438348e+000 -7.899404e+000
    endloop
  endfacet
  facet normal  1.000000e+000  -0.000000e+000  0.000000e+000
    outer loop
      vertex  0.000000e+000 -4.500000e+000 -6.613585e+000
      vertex  0.000000e+000 -5.438348e+000 -7.899404e+000
      vertex  0.000000e+000 -5.177876e+000 -8.350554e+000
    endloop
  endfacet
  facet normal  1.000000e+000  -0.000000e+000  0.000000e+000
    outer loop
      vertex  0.000000e+000 -4.500000e+000 -6.613585e+000
      vertex  0.000000e+000 -5.177876e+000 -8.350554e+000
      vertex  0.000000e+000 -4.500000e+000 -1.111358e+001
    endloop
  endfacet
  facet normal  0.000000e+000 -3.420202e-001 -9.396926e-001
    outer loop
      vertex  0.000000e+000 -6.326943e+000 -7.386374e+000
      vertex -5.000000e+000 -5.837415e+000 -7.564547e+000
      vertex  0.000000e+000 -5.837415e+000 -7.564547e+000
    endloop
  endfacet
  facet normal  -0.000000e+000 -6.427872e-001 -7.660449e-001
    outer loop
      vertex  0.000000e+000 -5.837415e+000 -7.564547e+000
      vertex -5.000000e+000 -5.837415e+000 -7.564547e+000
      vertex -5.000000e+000 -5.438348e+000 -7.899404e+000
    endloop
  endfacet
  facet normal  0.000000e+000 -6.427872e-001 -7.660449e-001
    outer loop
      vertex  0.000000e+000 -5.837415e+000 -7.564547e+000
      vertex -5.000000e+000 -5.438348e+000 -7.899404e+000
      vertex  0.000000e+000 -5.438348e+000 -7.899404e+000
    endloop
  endfacet
  facet normal  -0.000000e+000 -8.660253e-001 -5.000003e-001
    outer loop
      vertex  0.000000e+000 -5.438348e+000 -7.899404e+000
      vertex -5.000000e+000 -5.438348e+000 -7.899404e+000
      vertex -5.000000e+000 -5.177876e+000 -8.350554e+000
    endloop
  endfacet
  facet normal  0.000000e+000 -8.660253e-001 -5.000003e-001
    outer loop
      vertex  0.000000e+000 -5.438348e+000 -7.899404e+000
      vertex -5.000000e+000 -5.177876e+000 -8.350554e+000
      vertex  0.000000e+000 -5.177876e+000 -8.350554e+000
    endloop
  endfacet
  facet normal  -0.000000e+000 -9.848078e-001 -1.736474e-001
    outer loop
      vertex  0.000000e+000 -5.177876e+000 -8.350554e+000
      vertex -5.000000e+000 -5.177876e+000 -8.350554e+000
      vertex -5.000000e+000 -5.087415e+000 -8.863585e+000
    endloop
  endfacet
  facet normal  0.000000e+000 -9.848078e-001 -1.736474e-001
    outer loop
      vertex  0.000000e+000 -5.177876e+000 -8.350554e+000
      vertex -5.000000e+000 -5.087415e+000 -8.863585e+000
      vertex  0.000000e+000 -5.087415e+000 -8.863585e+000
    endloop
  endfacet
  facet normal  -0.000000e+000 -3.420202e-001 -9.396926e-001
    outer loop
      vertex -5.000000e+000 -5.837415e+000 -7.564547e+000
      vertex  0.000000e+000 -6.326943e+000 -7.386374e+000
      vertex -5.000000e+000 -6.326943e+000 -7.386374e+000
    endloop
  endfacet
  facet normal  0.000000e+000  0.000000e+000 -1.000000e+000
    outer loop
      vertex -5.000000e+000 -6.326943e+000 -7.386374e+000
      vertex  0.000000e+000 -6.326943e+000 -7.386374e+000
      vertex  0.000000e+000 -6.847888e+000 -7.386374e+000
    endloop
  endfacet
  facet normal  0.000000e+000  0.000000e+000 -1.000000e+000
    outer loop
      vertex -5.000000e+000 -6.326943e+000 -7.386374e+000
      vertex  0.000000e+000 -6.847888e+000 -7.386374e+000
      vertex -5.000000e+000 -6.847888e+000 -7.386374e+000
    endloop
  endfacet
  facet normal  0.000000e+000  3.420202e-001 -9.396926e-001
    outer loop
      vertex -5.000000e+000 -6.847888e+000 -7.386374e+000
      vertex  0.000000e+000 -6.847888e+000 -7.386374e+000
      vertex  0.000000e+000 -7.337415e+000 -7.564547e+000
    endloop
  endfacet
  facet normal  0.000000e+000  3.420202e-001 -9.396926e-001
    outer loop
      vertex -5.000000e+000 -6.847888e+000 -7.386374e+000
      vertex  0.000000e+000 -7.337415e+000 -7.564547e+000
      vertex -5.000000e+000 -7.337415e+000 -7.564547e+000
    endloop
  endfacet
  facet normal  0.000000e+000  6.427876e-001 -7.660444e-001
    outer loop
      vertex -5.000000e+000 -7.337415e+000 -7.564547e+000
      vertex  0.000000e+000 -7.337415e+000 -7.564547e+000
      vertex  0.000000e+000 -7.736482e+000 -7.899404e+000
    endloop
  endfacet
  facet normal  0.000000e+000  6.427876e-001 -7.660444e-001
    outer loop
      vertex -5.000000e+000 -7.337415e+000 -7.564547e+000
      vertex  0.000000e+000 -7.736482e+000 -7.899404e+000
      vertex -5.000000e+000 -7.736482e+000 -7.899404e+000
    endloop
  endfacet
  facet normal  0.000000e+000  8.660253e-001 -5.000003e-001
    outer loop
      vertex -5.000000e+000 -7.736482e+000 -7.899404e+000
      vertex  0.000000e+000 -7.736482e+000 -7.899404e+000
      vertex  0.000000e+000 -7.996954e+000 -8.350554e+000
    endloop
  endfacet
  facet normal  0.000000e+000  8.660253e-001 -5.000003e-001
    outer loop
      vertex -5.000000e+000 -7.736482e+000 -7.899404e+000
      vertex  0.000000e+000 -7.996954e+000 -8.350554e+000
      vertex -5.000000e+000 -7.996954e+000 -8.350554e+000
    endloop
  endfacet
  facet normal  0.000000e+000  9.848078e-001 -1.736474e-001
    outer loop
      vertex -5.000000e+000 -7.996954e+000 -8.350554e+000
      vertex  0.000000e+000 -7.996954e+000 -8.350554e+000
      vertex  0.000000e+000 -8.087415e+000 -8.863585e+000
    endloop
  endfacet
  facet normal  0.000000e+000  9.848078e-001 -1.736474e-001
    outer loop
      vertex -5.000000e+000 -7.996954e+000 -8.350554e+000
      vertex  0.000000e+000 -8.087415e+000 -8.863585e+000
      vertex -5.000000e+000 -8.087415e+000 -8.863585e+000
    endloop
  endfacet
  facet normal  -0.000000e+000  3.420194e-001  9.396929e-001
    outer loop
      vertex  0.000000e+000 -6.847888e+000 -1.034080e+001
      vertex -5.000000e+000 -7.337415e+000 -1.016262e+001
      vertex  0.000000e+000 -7.337415e+000 -1.016262e+001
    endloop
  endfacet
  facet normal  0.000000e+000  6.427882e-001  7.660440e-001
    outer loop
      vertex  0.000000e+000 -7.337415e+000 -1.016262e+001
      vertex -5.000000e+000 -7.337415e+000 -1.016262e+001
      vertex -5.000000e+000 -7.736482e+000 -9.827766e+000
    endloop
  endfacet
  facet normal  -0.000000e+000  6.427882e-001  7.660440e-001
    outer loop
      vertex  0.000000e+000 -7.337415e+000 -1.016262e+001
      vertex -5.000000e+000 -7.736482e+000 -9.827766e+000
      vertex  0.000000e+000 -7.736482e+000 -9.827766e+000
    endloop
  endfacet
  facet normal  0.000000e+000  8.660253e-001  5.000003e-001
    outer loop
      vertex  0.000000e+000 -7.736482e+000 -9.827766e+000
      vertex -5.000000e+000 -7.736482e+000 -9.827766e+000
      vertex -5.000000e+000 -7.996954e+000 -9.376616e+000
    endloop
  endfacet
  facet normal  -0.000000e+000  8.660253e-001  5.000003e-001
    outer loop
      vertex  0.000000e+000 -7.736482e+000 -9.827766e+000
      vertex -5.000000e+000 -7.996954e+000 -9.376616e+000
      vertex  0.000000e+000 -7.996954e+000 -9.376616e+000
    endloop
  endfacet
  facet normal  0.000000e+000  9.848078e-001  1.736477e-001
    outer loop
      vertex  0.000000e+000 -7.996954e+000 -9.376616e+000
      vertex -5.000000e+000 -7.996954e+000 -9.376616e+000
      vertex -5.000000e+000 -8.087415e+000 -8.863585e+000
    endloop
  endfacet
  facet normal  -0.000000e+000  9.848078e-001  1.736477e-001
    outer loop
      vertex  0.000000e+000 -7.996954e+000 -9.376616e+000
      vertex -5.000000e+000 -8.087415e+000 -8.863585e+000
      vertex  0.000000e+000 -8.087415e+000 -8.863585e+000
    endloop
  endfacet
  facet normal  0.000000e+000  3.420194e-001  9.396929e-001
    outer loop
      vertex -5.000000e+000 -7.337415e+000 -1.016262e+001
      vertex  0.000000e+000 -6.847888e+000 -1.034080e+001
      vertex -5.000000e+000 -6.847888e+000 -1.034080e+001
    endloop
  endfacet
  facet normal  0.000000e+000  0.000000e+000  1.000000e+000
    outer loop
      vertex -5.000000e+000 -6.847888e+000 -1.034080e+001
      vertex  0.000000e+000 -6.847888e+000 -1.034080e+001
      vertex  0.000000e+000 -6.326943e+000 -1.034080e+001
    endloop
  endfacet
  facet normal  0.000000e+000  0.000000e+000  1.000000e+000
    outer loop
      vertex -5.000000e+000 -6.847888e+000 -1.034080e+001
      vertex  0.000000e+000 -6.326943e+000 -1.034080e+001
      vertex -5.000000e+000 -6.326943e+000 -1.034080e+001
    endloop
  endfacet
  facet normal  0.000000e+000 -3.420194e-001  9.396929e-001
    outer loop
      vertex -5.000000e+000 -6.326943e+000 -1.034080e+001
      vertex  0.000000e+000 -6.326943e+000 -1.034080e+001
      vertex  0.000000e+000 -5.837415e+000 -1.016262e+001
    endloop
  endfacet
  facet normal  0.000000e+000 -3.420194e-001  9.396929e-001
    outer loop
      vertex -5.000000e+000 -6.326943e+000 -1.034080e+001
      vertex  0.000000e+000 -5.837415e+000 -1.016262e+001
      vertex -5.000000e+000 -5.837415e+000 -1.016262e+001
    endloop
  endfacet
  facet normal  0.000000e+000 -6.427877e-001  7.660444e-001
    outer loop
      vertex -5.000000e+000 -5.837415e+000 -1.016262e+001
      vertex  0.000000e+000 -5.837415e+000 -1.016262e+001
      vertex  0.000000e+000 -5.438348e+000 -9.827766e+000
    endloop
  endfacet
  facet normal  0.000000e+000 -6.427877e-001  7.660444e-001
    outer loop
      vertex -5.000000e+000 -5.837415e+000 -1.016262e+001
      vertex  0.000000e+000 -5.438348e+000 -9.827766e+000
      vertex -5.000000e+000 -5.438348e+000 -9.827766e+000
    endloop
  endfacet
  facet normal  0.000000e+000 -8.660253e-001  5.000003e-001
    outer loop
      vertex -5.000000e+000 -5.438348e+000 -9.827766e+000
      vertex  0.000000e+000 -5.438348e+000 -9.827766e+000
      vertex  0.000000e+000 -5.177876e+000 -9.376616e+000
    endloop
  endfacet
  facet normal  0.000000e+000 -8.660253e-001  5.000003e-001
    outer loop
      vertex -5.000000e+000 -5.438348e+000 -9.827766e+000
      vertex  0.000000e+000 -5.177876e+000 -9.376616e+000
      vertex -5.000000e+000 -5.177876e+000 -9.376616e+000
    endloop
  endfacet
  facet normal  0.000000e+000 -9.848078e-001  1.736477e-001
    outer loop
      vertex -5.000000e+000 -5.177876e+000 -9.376616e+000
      vertex  0.000000e+000 -5.177876e+000 -9.376616e+000
      vertex  0.000000e+000 -5.087415e+000 -8.863585e+000
    endloop
  endfacet
  facet normal  0.000000e+000 -9.848078e-001  1.736477e-001
    outer loop
      vertex -5.000000e+000 -5.177876e+000 -9.376616e+000
      vertex  0.000000e+000 -5.087415e+000 -8.863585e+000
      vertex -5.000000e+000 -5.087415e+000 -8.863585e+000
    endloop
  endfacet
  facet normal  0.000000e+000  0.000000e+000  1.000000e+000
    outer loop
      vertex  6.000000e+000  4.249988e+000 -6.613585e+000
      vertex  6.000000e+000  4.500000e+000 -6.613585e+000
      vertex  0.000000e+000  4.500000e+000 -6.613585e+000
    endloop
  endfacet
  facet normal  0.000000e+000  0.000000e+000  1.000000e+000
    outer loop
      vertex  6.000000e+000 -4.500000e+000 -6.613585e+000
      vertex  6.000000e+000 -4.249988e+000 -6.613585e+000
      vertex  0.000000e+000 -4.500000e+000 -6.613585e+000
    endloop
  endfacet
  facet normal  0.000000e+000  -0.000000e+000  1.000000e+000
    outer loop
      vertex -5.000000e+000 -4.500000e+000 -6.613585e+000
      vertex  0.000000e+000 -4.500000e+000 -6.613585e+000
      vertex  6.000000e+000 -4.249988e+000 -6.613585e+000
    endloop
  endfacet
  facet normal  0.000000e+000  0.000000e+000  1.000000e+000
    outer loop
      vertex -5.000000e+000 -4.500000e+000 -6.613585e+000
      vertex  6.000000e+000 -4.249988e+000 -6.613585e+000
      vertex  5.055960e+000 -4.141495e+000 -6.613585e+000
    endloop
  endfacet
  facet normal  0.000000e+000  0.000000e+000  1.000000e+000
    outer loop
      vertex -5.000000e+000 -4.500000e+000 -6.613585e+000
      vertex  5.055960e+000 -4.141495e+000 -6.613585e+000
      vertex  4.159623e+000 -3.825959e+000 -6.613585e+000
    endloop
  endfacet
  facet normal  0.000000e+000  0.000000e+000  1.000000e+000
    outer loop
      vertex -5.000000e+000 -4.500000e+000 -6.613585e+000
      vertex  4.159623e+000 -3.825959e+000 -6.613585e+000
      vertex  3.355799e+000 -3.319156e+000 -6.613585e+000
    endloop
  endfacet
  facet normal  0.000000e+000  0.000000e+000  1.000000e+000
    outer loop
      vertex -5.000000e+000 -4.500000e+000 -6.613585e+000
      vertex  3.355799e+000 -3.319156e+000 -6.613585e+000
      vertex  2.684672e+000 -2.646422e+000 -6.613585e+000
    endloop
  endfacet
  facet normal  0.000000e+000  0.000000e+000  1.000000e+000
    outer loop
      vertex -5.000000e+000 -4.500000e+000 -6.613585e+000
      vertex  2.684672e+000 -2.646422e+000 -6.613585e+000
      vertex  2.179795e+000 -1.841387e+000 -6.613585e+000
    endloop
  endfacet
  facet normal  0.000000e+000  0.000000e+000  1.000000e+000
    outer loop
      vertex -5.000000e+000 -4.500000e+000 -6.613585e+000
      vertex  2.179795e+000 -1.841387e+000 -6.613585e+000
      vertex  1.866406e+000 -9.442971e-001 -6.613585e+000
    endloop
  endfacet
  facet normal  0.000000e+000  0.000000e+000  1.000000e+000
    outer loop
      vertex -5.000000e+000 -4.500000e+000 -6.613585e+000
      vertex  1.866406e+000 -9.442971e-001 -6.613585e+000
      vertex  1.760173e+000  5.204749e-016 -6.613585e+000
    endloop
  endfacet
  facet normal  0.000000e+000  -0.000000e+000  1.000000e+000
    outer loop
      vertex -5.000000e+000 -4.500000e+000 -6.613585e+000
      vertex  1.760173e+000  5.204749e-016 -6.613585e+000
      vertex  1.866406e+000  9.442971e-001 -6.613585e+000
    endloop
  endfacet
  facet normal  0.000000e+000  -0.000000e+000  1.000000e+000
    outer loop
      vertex -5.000000e+000 -4.500000e+000 -6.613585e+000
      vertex  1.866406e+000  9.442971e-001 -6.613585e+000
      vertex  2.179795e+000  1.841387e+000 -6.613585e+000
    endloop
  endfacet
  facet normal  0.000000e+000  -0.000000e+000  1.000000e+000
    outer loop
      vertex -5.000000e+000 -4.500000e+000 -6.613585e+000
      vertex  2.179795e+000  1.841387e+000 -6.613585e+000
      vertex  2.684672e+000  2.646422e+000 -6.613585e+000
    endloop
  endfacet
  facet normal  0.000000e+000  -0.000000e+000  1.000000e+000
    outer loop
      vertex -5.000000e+000 -4.500000e+000 -6.613585e+000
      vertex  2.684672e+000  2.646422e+000 -6.613585e+000
      vertex  3.355799e+000  3.319156e+000 -6.613585e+000
    endloop
  endfacet
  facet normal  0.000000e+000  0.000000e+000  1.000000e+000
    outer loop
      vertex -5.000000e+000  4.500000e+000 -6.613585e+000
      vertex -5.000000e+000 -4.500000e+000 -6.613585e+000
      vertex  3.355799e+000  3.319156e+000 -6.613585e+000
    endloop
  endfacet
  facet normal  0.000000e+000  -0.000000e+000  1.000000e+000
    outer loop
      vertex -5.000000e+000  4.500000e+000 -6.613585e+000
      vertex  3.355799e+000  3.319156e+000 -6.613585e+000
      vertex  4.159623e+000  3.825959e+000 -6.613585e+000
    endloop
  endfacet
  facet normal  0.000000e+000  -0.000000e+000  1.000000e+000
    outer loop
      vertex -5.000000e+000  4.500000e+000 -6.613585e+000
      vertex  4.159623e+000  3.825959e+000 -6.613585e+000
      vertex  5.055960e+000  4.141495e+000 -6.613585e+000
    endloop
  endfacet
  facet normal  0.000000e+000  -0.000000e+000  1.000000e+000
    outer loop
      vertex -5.000000e+000  4.500000e+000 -6.613585e+000
      vertex  5.055960e+000  4.141495e+000 -6.613585e+000
      vertex  6.000000e+000  4.249988e+000 -6.613585e+000
    endloop
  endfacet
  facet normal  0.000000e+000  0.000000e+000  1.000000e+000
    outer loop
      vertex -5.000000e+000  4.500000e+000 -6.613585e+000
      vertex  6.000000e+000  4.249988e+000 -6.613585e+000
      vertex  0.000000e+000  4.500000e+000 -6.613585e+000
    endloop
  endfacet
  facet normal  -0.000000e+000 -3.814508e-006 -1.000000e+000
    outer loop
      vertex  6.000000e+000 -4.249988e+000 -1.111359e+001
      vertex  6.000000e+000 -4.500000e+000 -1.111358e+001
      vertex  0.000000e+000 -4.500000e+000 -1.111358e+001
    endloop
  endfacet
  facet normal  0.000000e+000  0.000000e+000 -1.000000e+000
    outer loop
      vertex  6.000000e+000  4.500000e+000 -1.111359e+001
      vertex  6.000000e+000  4.249988e+000 -1.111359e+001
      vertex  0.000000e+000  4.500000e+000 -1.111359e+001
    endloop
  endfacet
  facet normal  -0.000000e+000  -0.000000e+000 -1.000000e+000
    outer loop
      vertex -5.000000e+000  4.500000e+000 -1.111359e+001
      vertex  0.000000e+000  4.500000e+000 -1.111359e+001
      vertex  6.000000e+000  4.249988e+000 -1.111359e+001
    endloop
  endfacet
  facet normal  -0.000000e+000  0.000000e+000 -1.000000e+000
    outer loop
      vertex -5.000000e+000  4.500000e+000 -1.111359e+001
      vertex  6.000000e+000  4.249988e+000 -1.111359e+001
      vertex  5.055960e+000  4.141495e+000 -1.111359e+001
    endloop
  endfacet
  facet normal  -0.000000e+000  0.000000e+000 -1.000000e+000
    outer loop
      vertex -5.000000e+000  4.500000e+000 -1.111359e+001
      vertex  5.055960e+000  4.141495e+000 -1.111359e+001
      vertex  4.159623e+000  3.825959e+000 -1.111359e+001
    endloop
  endfacet
  facet normal  -0.000000e+000  0.000000e+000 -1.000000e+000
    outer loop
      vertex -5.000000e+000  4.500000e+000 -1.111359e+001
      vertex  4.159623e+000  3.825959e+000 -1.111359e+001
      vertex  3.355799e+000  3.319156e+000 -1.111359e+001
    endloop
  endfacet
  facet normal  -0.000000e+000  0.000000e+000 -1.000000e+000
    outer loop
      vertex -5.000000e+000  4.500000e+000 -1.111359e+001
      vertex  3.355799e+000  3.319156e+000 -1.111359e+001
      vertex  2.684672e+000  2.646422e+000 -1.111359e+001
    endloop
  endfacet
  facet normal  -0.000000e+000  0.000000e+000 -1.000000e+000
    outer loop
      vertex -5.000000e+000  4.500000e+000 -1.111359e+001
      vertex  2.684672e+000  2.646422e+000 -1.111359e+001
      vertex  2.179795e+000  1.841387e+000 -1.111359e+001
    endloop
  endfacet
  facet normal  -0.000000e+000  0.000000e+000 -1.000000e+000
    outer loop
      vertex -5.000000e+000  4.500000e+000 -1.111359e+001
      vertex  2.179795e+000  1.841387e+000 -1.111359e+001
      vertex  1.866406e+000  9.442971e-001 -1.111359e+001
    endloop
  endfacet
  facet normal  -0.000000e+000  0.000000e+000 -1.000000e+000
    outer loop
      vertex -5.000000e+000  4.500000e+000 -1.111359e+001
      vertex  1.866406e+000  9.442971e-001 -1.111359e+001
      vertex  1.760173e+000  5.204749e-016 -1.111359e+001
    endloop
  endfacet
  facet normal  -0.000000e+000  -0.000000e+000 -1.000000e+000
    outer loop
      vertex -5.000000e+000  4.500000e+000 -1.111359e+001
      vertex  1.760173e+000  5.204749e-016 -1.111359e+001
      vertex  1.866406e+000 -9.442971e-001 -1.111359e+001
    endloop
  endfacet
  facet normal  -0.000000e+000  -0.000000e+000 -1.000000e+000
    outer loop
      vertex -5.000000e+000  4.500000e+000 -1.111359e+001
      vertex  1.866406e+000 -9.442971e-001 -1.111359e+001
      vertex  2.179795e+000 -1.841387e+000 -1.111359e+001
    endloop
  endfacet
  facet normal  -0.000000e+000  -0.000000e+000 -1.000000e+000
    outer loop
      vertex -5.000000e+000  4.500000e+000 -1.111359e+001
      vertex  2.179795e+000 -1.841387e+000 -1.111359e+001
      vertex  2.684672e+000 -2.646422e+000 -1.111359e+001
    endloop
  endfacet
  facet normal  -0.000000e+000  -0.000000e+000 -1.000000e+000
    outer loop
      vertex -5.000000e+000  4.500000e+000 -1.111359e+001
      vertex  2.684672e+000 -2.646422e+000 -1.111359e+001
      vertex  3.355799e+000 -3.319156e+000 -1.111359e+001
    endloop
  endfacet
  facet normal  0.000000e+000  0.000000e+000 -1.000000e+000
    outer loop
      vertex -5.000000e+000 -4.500000e+000 -1.111359e+001
      vertex -5.000000e+000  4.500000e+000 -1.111359e+001
      vertex  3.355799e+000 -3.319156e+000 -1.111359e+001
    endloop
  endfacet
  facet normal  0.000000e+000  -0.000000e+000 -1.000000e+000
    outer loop
      vertex -5.000000e+000 -4.500000e+000 -1.111359e+001
      vertex  3.355799e+000 -3.319156e+000 -1.111359e+001
      vertex  4.159623e+000 -3.825959e+000 -1.111359e+001
    endloop
  endfacet
  facet normal  0.000000e+000  -0.000000e+000 -1.000000e+000
    outer loop
      vertex -5.000000e+000 -4.500000e+000 -1.111359e+001
      vertex  4.159623e+000 -3.825959e+000 -1.111359e+001
      vertex  5.055960e+000 -4.141495e+000 -1.111359e+001
    endloop
  endfacet
  facet normal  0.000000e+000  -0.000000e+000 -1.000000e+000
    outer loop
      vertex -5.000000e+000 -4.500000e+000 -1.111359e+001
      vertex  5.055960e+000 -4.141495e+000 -1.111359e+001
      vertex  6.000000e+000 -4.249988e+000 -1.111359e+001
    endloop
  endfacet
  facet normal  1.907349e-007 -8.391918e-006 -1.000000e+000
    outer loop
      vertex -5.000000e+000 -4.500000e+000 -1.111359e+001
      vertex  6.000000e+000 -4.249988e+000 -1.111359e+001
      vertex  0.000000e+000 -4.500000e+000 -1.111358e+001
    endloop
  endfacet
  facet normal  1.907349e-007  2.384186e-007 -1.000000e+000
    outer loop
      vertex  0.000000e+000 -4.500000e+000 -1.111358e+001
      vertex  0.000000e+000 -8.500000e+000 -1.111359e+001
      vertex -5.000000e+000 -4.500000e+000 -1.111359e+001
    endloop
  endfacet
  facet normal  0.000000e+000  0.000000e+000 -1.000000e+000
    outer loop
      vertex -5.000000e+000 -4.500000e+000 -1.111359e+001
      vertex  0.000000e+000 -8.500000e+000 -1.111359e+001
      vertex -5.000000e+000 -8.500000e+000 -1.111359e+001
    endloop
  endfacet
  facet normal  0.000000e+000  0.000000e+000 -1.000000e+000
    outer loop
      vertex  0.000000e+000  8.500000e+000 -1.111359e+001
      vertex  0.000000e+000  4.500000e+000 -1.111359e+001
      vertex -5.000000e+000  8.500000e+000 -1.111359e+001
    endloop
  endfacet
  facet normal  0.000000e+000  0.000000e+000 -1.000000e+000
    outer loop
      vertex -5.000000e+000  8.500000e+000 -1.111359e+001
      vertex  0.000000e+000  4.500000e+000 -1.111359e+001
      vertex -5.000000e+000  4.500000e+000 -1.111359e+001
    endloop
  endfacet
  facet normal  0.000000e+000  0.000000e+000  1.000000e+000
    outer loop
      vertex  0.000000e+000 -8.500000e+000 -6.613585e+000
      vertex  0.000000e+000 -4.500000e+000 -6.613585e+000
      vertex -5.000000e+000 -8.500000e+000 -6.613585e+000
    endloop
  endfacet
  facet normal  0.000000e+000  0.000000e+000  1.000000e+000
    outer loop
      vertex -5.000000e+000 -8.500000e+000 -6.613585e+000
      vertex  0.000000e+000 -4.500000e+000 -6.613585e+000
      vertex -5.000000e+000 -4.500000e+000 -6.613585e+000
    endloop
  endfacet
  facet normal  0.000000e+000  0.000000e+000  1.000000e+000
    outer loop
      vertex  0.000000e+000  4.500000e+000 -6.613585e+000
      vertex  0.000000e+000  8.500000e+000 -6.613585e+000
      vertex -5.000000e+000  4.500000e+000 -6.613585e+000
    endloop
  endfacet
  facet normal  0.000000e+000  0.000000e+000  1.000000e+000
    outer loop
      vertex -5.000000e+000  4.500000e+000 -6.613585e+000
      vertex  0.000000e+000  8.500000e+000 -6.613585e+000
      vertex -5.000000e+000  8.500000e+000 -6.613585e+000
    endloop
  endfacet
  facet normal  0.000000e+000  1.000000e+000  0.000000e+000
    outer loop
      vertex  0.000000e+000  4.500000e+000 -1.111359e+001
      vertex  0.000000e+000  4.500000e+000 -6.613585e+000
      vertex  6.000000e+000  4.500000e+000 -1.111359e+001
    endloop
  endfacet
  facet normal  0.000000e+000  1.000000e+000  -0.000000e+000
    outer loop
      vertex  6.000000e+000  4.500000e+000 -1.111359e+001
      vertex  0.000000e+000  4.500000e+000 -6.613585e+000
      vertex  6.000000e+000  4.500000e+000 -6.613585e+000
    endloop
  endfacet
  facet normal  0.000000e+000 -9.999999e-001  0.000000e+000
    outer loop
      vertex  0.000000e+000 -4.500000e+000 -6.613585e+000
      vertex  0.000000e+000 -4.500000e+000 -1.111358e+001
      vertex  6.000000e+000 -4.500000e+000 -6.613585e+000
    endloop
  endfacet
  facet normal  0.000000e+000 -9.999999e-001  -0.000000e+000
    outer loop
      vertex  6.000000e+000 -4.500000e+000 -6.613585e+000
      vertex  0.000000e+000 -4.500000e+000 -1.111358e+001
      vertex  6.000000e+000 -4.500000e+000 -1.111358e+001
    endloop
  endfacet
  facet normal  0.000000e+000 -1.000000e+000  -0.000000e+000
    outer loop
      vertex  0.000000e+000 -8.500000e+000 -1.111359e+001
      vertex  0.000000e+000 -8.500000e+000 -6.613585e+000
      vertex -5.000000e+000 -8.500000e+000 -1.111359e+001
    endloop
  endfacet
  facet normal  0.000000e+000 -1.000000e+000  0.000000e+000
    outer loop
      vertex -5.000000e+000 -8.500000e+000 -1.111359e+001
      vertex  0.000000e+000 -8.500000e+000 -6.613585e+000
      vertex -5.000000e+000 -8.500000e+000 -6.613585e+000
    endloop
  endfacet
  facet normal  0.000000e+000  1.000000e+000  -0.000000e+000
    outer loop
      vertex  0.000000e+000  8.500000e+000 -6.613585e+000
      vertex  0.000000e+000  8.500000e+000 -1.111359e+001
      vertex -5.000000e+000  8.500000e+000 -6.613585e+000
    endloop
  endfacet
  facet normal  0.000000e+000  1.000000e+000  0.000000e+000
    outer loop
      vertex -5.000000e+000  8.500000e+000 -6.613585e+000
      vertex  0.000000e+000  8.500000e+000 -1.111359e+001
      vertex -5.000000e+000  8.500000e+000 -1.111359e+001
    endloop
  endfacet
  facet normal  1.000000e+000  0.000000e+000  0.000000e+000
    outer loop
      vertex  6.000000e+000 -4.500000e+000 -1.111358e+001
      vertex  6.000000e+000 -4.249988e+000 -1.111359e+001
      vertex  6.000000e+000 -4.500000e+000 -6.613585e+000
    endloop
  endfacet
  facet normal  1.000000e+000  -0.000000e+000  0.000000e+000
    outer loop
      vertex  6.000000e+000 -4.500000e+000 -6.613585e+000
      vertex  6.000000e+000 -4.249988e+000 -1.111359e+001
      vertex  6.000000e+000 -4.249988e+000 -6.613585e+000
    endloop
  endfacet
  facet normal  1.000000e+000  0.000000e+000  0.000000e+000
    outer loop
      vertex  6.000000e+000  4.249988e+000 -1.111359e+001
      vertex  6.000000e+000  4.500000e+000 -1.111359e+001
      vertex  6.000000e+000  4.249988e+000 -6.613585e+000
    endloop
  endfacet
  facet normal  1.000000e+000  -0.000000e+000  0.000000e+000
    outer loop
      vertex  6.000000e+000  4.249988e+000 -6.613585e+000
      vertex  6.000000e+000  4.500000e+000 -1.111359e+001
      vertex  6.000000e+000  4.500000e+000 -6.613585e+000
    endloop
  endfacet
  facet normal  8.471787e-001 -5.313081e-001  0.000000e+000
    outer loop
      vertex  2.684672e+000  2.646422e+000 -1.111359e+001
      vertex  2.179795e+000  1.841387e+000 -6.613585e+000
      vertex  2.179795e+000  1.841387e+000 -1.111359e+001
    endloop
  endfacet
  facet normal  9.440526e-001 -3.297950e-001  0.000000e+000
    outer loop
      vertex  2.179795e+000  1.841387e+000 -1.111359e+001
      vertex  2.179795e+000  1.841387e+000 -6.613585e+000
      vertex  1.866406e+000  9.442971e-001 -6.613585e+000
    endloop
  endfacet
  facet normal  9.440526e-001 -3.297950e-001  0.000000e+000
    outer loop
      vertex  2.179795e+000  1.841387e+000 -1.111359e+001
      vertex  1.866406e+000  9.442971e-001 -6.613585e+000
      vertex  1.866406e+000  9.442971e-001 -1.111359e+001
    endloop
  endfacet
  facet normal  9.937313e-001 -1.117946e-001  0.000000e+000
    outer loop
      vertex  1.866406e+000  9.442971e-001 -1.111359e+001
      vertex  1.866406e+000  9.442971e-001 -6.613585e+000
      vertex  1.760173e+000  5.204749e-016 -6.613585e+000
    endloop
  endfacet
  facet normal  9.937313e-001 -1.117946e-001  0.000000e+000
    outer loop
      vertex  1.866406e+000  9.442971e-001 -1.111359e+001
      vertex  1.760173e+000  5.204749e-016 -6.613585e+000
      vertex  1.760173e+000  5.204749e-016 -1.111359e+001
    endloop
  endfacet
  facet normal  8.471787e-001 -5.313081e-001  0.000000e+000
    outer loop
      vertex  2.179795e+000  1.841387e+000 -6.613585e+000
      vertex  2.684672e+000  2.646422e+000 -1.111359e+001
      vertex  2.684672e+000  2.646422e+000 -6.613585e+000
    endloop
  endfacet
  facet normal  7.079526e-001 -7.062600e-001  0.000000e+000
    outer loop
      vertex  2.684672e+000  2.646422e+000 -6.613585e+000
      vertex  2.684672e+000  2.646422e+000 -1.111359e+001
      vertex  3.355799e+000  3.319156e+000 -1.111359e+001
    endloop
  endfacet
  facet normal  7.079526e-001 -7.062600e-001  0.000000e+000
    outer loop
      vertex  2.684672e+000  2.646422e+000 -6.613585e+000
      vertex  3.355799e+000  3.319156e+000 -1.111359e+001
      vertex  3.355799e+000  3.319156e+000 -6.613585e+000
    endloop
  endfacet
  facet normal  5.333344e-001 -8.459045e-001  0.000000e+000
    outer loop
      vertex  3.355799e+000  3.319156e+000 -6.613585e+000
      vertex  3.355799e+000  3.319156e+000 -1.111359e+001
      vertex  4.159623e+000  3.825959e+000 -1.111359e+001
    endloop
  endfacet
  facet normal  5.333344e-001 -8.459045e-001  0.000000e+000
    outer loop
      vertex  3.355799e+000  3.319156e+000 -6.613585e+000
      vertex  4.159623e+000  3.825959e+000 -1.111359e+001
      vertex  4.159623e+000  3.825959e+000 -6.613585e+000
    endloop
  endfacet
  facet normal  3.320537e-001 -9.432606e-001  0.000000e+000
    outer loop
      vertex  4.159623e+000  3.825959e+000 -6.613585e+000
      vertex  4.159623e+000  3.825959e+000 -1.111359e+001
      vertex  5.055960e+000  4.141495e+000 -1.111359e+001
    endloop
  endfacet
  facet normal  3.320537e-001 -9.432606e-001  0.000000e+000
    outer loop
      vertex  4.159623e+000  3.825959e+000 -6.613585e+000
      vertex  5.055960e+000  4.141495e+000 -1.111359e+001
      vertex  5.055960e+000  4.141495e+000 -6.613585e+000
    endloop
  endfacet
  facet normal  1.141725e-001 -9.934609e-001  0.000000e+000
    outer loop
      vertex  5.055960e+000  4.141495e+000 -6.613585e+000
      vertex  5.055960e+000  4.141495e+000 -1.111359e+001
      vertex  6.000000e+000  4.249988e+000 -1.111359e+001
    endloop
  endfacet
  facet normal  1.141725e-001 -9.934609e-001  0.000000e+000
    outer loop
      vertex  5.055960e+000  4.141495e+000 -6.613585e+000
      vertex  6.000000e+000  4.249988e+000 -1.111359e+001
      vertex  6.000000e+000  4.249988e+000 -6.613585e+000
    endloop
  endfacet
  facet normal  5.333344e-001  8.459045e-001  0.000000e+000
    outer loop
      vertex  3.355799e+000 -3.319156e+000 -1.111359e+001
      vertex  4.159623e+000 -3.825959e+000 -6.613585e+000
      vertex  4.159623e+000 -3.825959e+000 -1.111359e+001
    endloop
  endfacet
  facet normal  3.320537e-001  9.432606e-001  -0.000000e+000
    outer loop
      vertex  4.159623e+000 -3.825959e+000 -1.111359e+001
      vertex  4.159623e+000 -3.825959e+000 -6.613585e+000
      vertex  5.055960e+000 -4.141495e+000 -6.613585e+000
    endloop
  endfacet
  facet normal  3.320537e-001  9.432606e-001  0.000000e+000
    outer loop
      vertex  4.159623e+000 -3.825959e+000 -1.111359e+001
      vertex  5.055960e+000 -4.141495e+000 -6.613585e+000
      vertex  5.055960e+000 -4.141495e+000 -1.111359e+001
    endloop
  endfacet
  facet normal  1.141725e-001  9.934609e-001  -0.000000e+000
    outer loop
      vertex  5.055960e+000 -4.141495e+000 -1.111359e+001
      vertex  5.055960e+000 -4.141495e+000 -6.613585e+000
      vertex  6.000000e+000 -4.249988e+000 -6.613585e+000
    endloop
  endfacet
  facet normal  1.141725e-001  9.934609e-001  0.000000e+000
    outer loop
      vertex  5.055960e+000 -4.141495e+000 -1.111359e+001
      vertex  6.000000e+000 -4.249988e+000 -6.613585e+000
      vertex  6.000000e+000 -4.249988e+000 -1.111359e+001
    endloop
  endfacet
  facet normal  5.333344e-001  8.459045e-001  -0.000000e+000
    outer loop
      vertex  4.159623e+000 -3.825959e+000 -6.613585e+000
      vertex  3.355799e+000 -3.319156e+000 -1.111359e+001
      vertex  3.355799e+000 -3.319156e+000 -6.613585e+000
    endloop
  endfacet
  facet normal  7.079526e-001  7.062600e-001  0.000000e+000
    outer loop
      vertex  3.355799e+000 -3.319156e+000 -6.613585e+000
      vertex  3.355799e+000 -3.319156e+000 -1.111359e+001
      vertex  2.684672e+000 -2.646422e+000 -1.111359e+001
    endloop
  endfacet
  facet normal  7.079526e-001  7.062600e-001  -0.000000e+000
    outer loop
      vertex  3.355799e+000 -3.319156e+000 -6.613585e+000
      vertex  2.684672e+000 -2.646422e+000 -1.111359e+001
      vertex  2.684672e+000 -2.646422e+000 -6.613585e+000
    endloop
  endfacet
  facet normal  8.471787e-001  5.313081e-001  0.000000e+000
    outer loop
      vertex  2.684672e+000 -2.646422e+000 -6.613585e+000
      vertex  2.684672e+000 -2.646422e+000 -1.111359e+001
      vertex  2.179795e+000 -1.841387e+000 -1.111359e+001
    endloop
  endfacet
  facet normal  8.471787e-001  5.313081e-001  -0.000000e+000
    outer loop
      vertex  2.684672e+000 -2.646422e+000 -6.613585e+000
      vertex  2.179795e+000 -1.841387e+000 -1.111359e+001
      vertex  2.179795e+000 -1.841387e+000 -6.613585e+000
    endloop
  endfacet
  facet normal  9.440526e-001  3.297950e-001  0.000000e+000
    outer loop
      vertex  2.179795e+000 -1.841387e+000 -6.613585e+000
      vertex  2.179795e+000 -1.841387e+000 -1.111359e+001
      vertex  1.866406e+000 -9.442971e-001 -1.111359e+001
    endloop
  endfacet
  facet normal  9.440526e-001  3.297950e-001  -0.000000e+000
    outer loop
      vertex  2.179795e+000 -1.841387e+000 -6.613585e+000
      vertex  1.866406e+000 -9.442971e-001 -1.111359e+001
      vertex  1.866406e+000 -9.442971e-001 -6.613585e+000
    endloop
  endfacet
  facet normal  9.937313e-001  1.117946e-001  0.000000e+000
    outer loop
      vertex  1.866406e+000 -9.442971e-001 -6.613585e+000
      vertex  1.866406e+000 -9.442971e-001 -1.111359e+001
      vertex  1.760173e+000  5.204749e-016 -1.111359e+001
    endloop
  endfacet
  facet normal  9.937313e-001  1.117946e-001  -0.000000e+000
    outer loop
      vertex  1.866406e+000 -9.442971e-001 -6.613585e+000
      vertex  1.760173e+000  5.204749e-016 -1.111359e+001
      vertex  1.760173e+000  5.204749e-016 -6.613585e+000
    endloop
  endfacet
endsolid CATIA STL
