solid CATIA STL
  facet normal  -0.000000e+000  0.000000e+000 -1.000000e+000
    outer loop
      vertex -7.653669e-001 -1.847759e+000  0.000000e+000
      vertex -3.673940e-016 -2.000000e+000  0.000000e+000
      vertex -3.154701e+000 -2.027403e+000  0.000000e+000
    endloop
  endfacet
  facet normal  0.000000e+000  -0.000000e+000 -1.000000e+000
    outer loop
      vertex -3.673940e-016 -2.000000e+000  0.000000e+000
      vertex  7.653669e-001 -1.847759e+000  0.000000e+000
      vertex  3.154701e+000 -2.027403e+000  0.000000e+000
    endloop
  endfacet
  facet normal  -0.000000e+000  0.000000e+000 -1.000000e+000
    outer loop
      vertex -3.673940e-016 -2.000000e+000  0.000000e+000
      vertex  3.154701e+000 -2.027403e+000  0.000000e+000
      vertex  2.455728e+000 -2.834061e+000  0.000000e+000
    endloop
  endfacet
  facet normal  -0.000000e+000  0.000000e+000 -1.000000e+000
    outer loop
      vertex -3.673940e-016 -2.000000e+000  0.000000e+000
      vertex  2.455728e+000 -2.834061e+000  0.000000e+000
      vertex  1.557806e+000 -3.411120e+000  0.000000e+000
    endloop
  endfacet
  facet normal  -0.000000e+000  0.000000e+000 -1.000000e+000
    outer loop
      vertex -3.673940e-016 -2.000000e+000  0.000000e+000
      vertex  1.557806e+000 -3.411120e+000  0.000000e+000
      vertex  5.336806e-001 -3.711830e+000  0.000000e+000
    endloop
  endfacet
  facet normal  0.000000e+000  0.000000e+000 -1.000000e+000
    outer loop
      vertex  1.224647e-016  2.000000e+000  0.000000e+000
      vertex -7.653669e-001  1.847759e+000  0.000000e+000
      vertex -3.154701e+000  2.027403e+000  0.000000e+000
    endloop
  endfacet
  facet normal  0.000000e+000  0.000000e+000 -1.000000e+000
    outer loop
      vertex  1.224647e-016  2.000000e+000  0.000000e+000
      vertex -3.154701e+000  2.027403e+000  0.000000e+000
      vertex -2.455728e+000  2.834061e+000  0.000000e+000
    endloop
  endfacet
  facet normal  0.000000e+000  0.000000e+000 -1.000000e+000
    outer loop
      vertex  1.224647e-016  2.000000e+000  0.000000e+000
      vertex -2.455728e+000  2.834061e+000  0.000000e+000
      vertex -1.557806e+000  3.411120e+000  0.000000e+000
    endloop
  endfacet
  facet normal  0.000000e+000  0.000000e+000 -1.000000e+000
    outer loop
      vertex  1.224647e-016  2.000000e+000  0.000000e+000
      vertex -1.557806e+000  3.411120e+000  0.000000e+000
      vertex -5.336806e-001  3.711830e+000  0.000000e+000
    endloop
  endfacet
  facet normal  0.000000e+000  0.000000e+000 -1.000000e+000
    outer loop
      vertex  1.224647e-016  2.000000e+000  0.000000e+000
      vertex -5.336806e-001  3.711830e+000  0.000000e+000
      vertex  5.336806e-001  3.711830e+000  0.000000e+000
    endloop
  endfacet
  facet normal  0.000000e+000  -0.000000e+000 -1.000000e+000
    outer loop
      vertex  1.224647e-016  2.000000e+000  0.000000e+000
      vertex  5.336806e-001  3.711830e+000  0.000000e+000
      vertex  1.557806e+000  3.411120e+000  0.000000e+000
    endloop
  endfacet
  facet normal  0.000000e+000  -0.000000e+000 -1.000000e+000
    outer loop
      vertex  1.224647e-016  2.000000e+000  0.000000e+000
      vertex  1.557806e+000  3.411120e+000  0.000000e+000
      vertex  2.455728e+000  2.834061e+000  0.000000e+000
    endloop
  endfacet
  facet normal  0.000000e+000  -0.000000e+000 -1.000000e+000
    outer loop
      vertex  1.224647e-016  2.000000e+000  0.000000e+000
      vertex  2.455728e+000  2.834061e+000  0.000000e+000
      vertex  3.154701e+000  2.027403e+000  0.000000e+000
    endloop
  endfacet
  facet normal  0.000000e+000  0.000000e+000 -1.000000e+000
    outer loop
      vertex  1.224647e-016  2.000000e+000  0.000000e+000
      vertex  3.154701e+000  2.027403e+000  0.000000e+000
      vertex  7.653669e-001  1.847759e+000  0.000000e+000
    endloop
  endfacet
  facet normal  0.000000e+000  0.000000e+000 -1.000000e+000
    outer loop
      vertex  5.336806e-001 -3.711830e+000  0.000000e+000
      vertex -5.336806e-001 -3.711830e+000  0.000000e+000
      vertex -3.673940e-016 -2.000000e+000  0.000000e+000
    endloop
  endfacet
  facet normal  0.000000e+000  0.000000e+000 -1.000000e+000
    outer loop
      vertex -3.673940e-016 -2.000000e+000  0.000000e+000
      vertex -5.336806e-001 -3.711830e+000  0.000000e+000
      vertex -3.154701e+000 -2.027403e+000  0.000000e+000
    endloop
  endfacet
  facet normal  0.000000e+000  0.000000e+000 -1.000000e+000
    outer loop
      vertex -5.336806e-001 -3.711830e+000  0.000000e+000
      vertex -1.557806e+000 -3.411120e+000  0.000000e+000
      vertex -3.154701e+000 -2.027403e+000  0.000000e+000
    endloop
  endfacet
  facet normal  0.000000e+000  0.000000e+000 -1.000000e+000
    outer loop
      vertex -3.154701e+000 -2.027403e+000  0.000000e+000
      vertex -1.557806e+000 -3.411120e+000  0.000000e+000
      vertex -2.455728e+000 -2.834061e+000  0.000000e+000
    endloop
  endfacet
  facet normal  0.000000e+000  0.000000e+000 -1.000000e+000
    outer loop
      vertex -1.847759e+000  7.653669e-001  0.000000e+000
      vertex -3.598099e+000  1.056497e+000  0.000000e+000
      vertex -1.414214e+000  1.414214e+000  0.000000e+000
    endloop
  endfacet
  facet normal  -0.000000e+000  0.000000e+000 -9.999999e-001
    outer loop
      vertex -1.414214e+000  1.414214e+000  0.000000e+000
      vertex -3.598099e+000  1.056497e+000  0.000000e+000
      vertex -3.154701e+000  2.027403e+000  0.000000e+000
    endloop
  endfacet
  facet normal  0.000000e+000  0.000000e+000 -1.000000e+000
    outer loop
      vertex -1.414214e+000  1.414214e+000  0.000000e+000
      vertex -3.154701e+000  2.027403e+000  0.000000e+000
      vertex -7.653669e-001  1.847759e+000  0.000000e+000
    endloop
  endfacet
  facet normal  0.000000e+000  0.000000e+000 -1.000000e+000
    outer loop
      vertex -7.653669e-001 -1.847759e+000  0.000000e+000
      vertex -3.154701e+000 -2.027403e+000  0.000000e+000
      vertex -1.414214e+000 -1.414214e+000  0.000000e+000
    endloop
  endfacet
  facet normal  -0.000000e+000  0.000000e+000 -9.999999e-001
    outer loop
      vertex -1.414214e+000 -1.414214e+000  0.000000e+000
      vertex -3.154701e+000 -2.027403e+000  0.000000e+000
      vertex -3.598099e+000 -1.056497e+000  0.000000e+000
    endloop
  endfacet
  facet normal  0.000000e+000  0.000000e+000 -1.000000e+000
    outer loop
      vertex -1.414214e+000 -1.414214e+000  0.000000e+000
      vertex -3.598099e+000 -1.056497e+000  0.000000e+000
      vertex -1.847759e+000 -7.653669e-001  0.000000e+000
    endloop
  endfacet
  facet normal  -0.000000e+000  0.000000e+000 -1.000000e+000
    outer loop
      vertex -1.847759e+000 -7.653669e-001  0.000000e+000
      vertex -3.598099e+000 -1.056497e+000  0.000000e+000
      vertex -3.750000e+000  2.124577e-015  0.000000e+000
    endloop
  endfacet
  facet normal  0.000000e+000  0.000000e+000 -9.999999e-001
    outer loop
      vertex -1.847759e+000 -7.653669e-001  0.000000e+000
      vertex -3.750000e+000  2.124577e-015  0.000000e+000
      vertex -2.000000e+000  2.449294e-016  0.000000e+000
    endloop
  endfacet
  facet normal  0.000000e+000  0.000000e+000 -9.999999e-001
    outer loop
      vertex -2.000000e+000  2.449294e-016  0.000000e+000
      vertex -3.750000e+000  2.124577e-015  0.000000e+000
      vertex -3.598099e+000  1.056497e+000  0.000000e+000
    endloop
  endfacet
  facet normal  0.000000e+000  0.000000e+000 -1.000000e+000
    outer loop
      vertex -2.000000e+000  2.449294e-016  0.000000e+000
      vertex -3.598099e+000  1.056497e+000  0.000000e+000
      vertex -1.847759e+000  7.653669e-001  0.000000e+000
    endloop
  endfacet
  facet normal  0.000000e+000  0.000000e+000 -1.000000e+000
    outer loop
      vertex  1.847759e+000  7.653669e-001  0.000000e+000
      vertex  1.414214e+000  1.414214e+000  0.000000e+000
      vertex  3.598099e+000  1.056497e+000  0.000000e+000
    endloop
  endfacet
  facet normal  0.000000e+000  0.000000e+000 -1.000000e+000
    outer loop
      vertex  3.598099e+000  1.056497e+000  0.000000e+000
      vertex  1.414214e+000  1.414214e+000  0.000000e+000
      vertex  7.653669e-001  1.847759e+000  0.000000e+000
    endloop
  endfacet
  facet normal  0.000000e+000  0.000000e+000 -1.000000e+000
    outer loop
      vertex  3.598099e+000  1.056497e+000  0.000000e+000
      vertex  7.653669e-001  1.847759e+000  0.000000e+000
      vertex  3.154701e+000  2.027403e+000  0.000000e+000
    endloop
  endfacet
  facet normal  0.000000e+000  -0.000000e+000 -1.000000e+000
    outer loop
      vertex  7.653669e-001 -1.847759e+000  0.000000e+000
      vertex  1.414214e+000 -1.414214e+000  0.000000e+000
      vertex  3.154701e+000 -2.027403e+000  0.000000e+000
    endloop
  endfacet
  facet normal  0.000000e+000  0.000000e+000 -9.999999e-001
    outer loop
      vertex  3.154701e+000 -2.027403e+000  0.000000e+000
      vertex  1.414214e+000 -1.414214e+000  0.000000e+000
      vertex  1.847759e+000 -7.653669e-001  0.000000e+000
    endloop
  endfacet
  facet normal  0.000000e+000  0.000000e+000 -1.000000e+000
    outer loop
      vertex  3.154701e+000 -2.027403e+000  0.000000e+000
      vertex  1.847759e+000 -7.653669e-001  0.000000e+000
      vertex  3.598099e+000 -1.056497e+000  0.000000e+000
    endloop
  endfacet
  facet normal  0.000000e+000  0.000000e+000 -1.000000e+000
    outer loop
      vertex  3.598099e+000 -1.056497e+000  0.000000e+000
      vertex  1.847759e+000 -7.653669e-001  0.000000e+000
      vertex  2.000000e+000  0.000000e+000  0.000000e+000
    endloop
  endfacet
  facet normal  0.000000e+000  0.000000e+000 -9.999999e-001
    outer loop
      vertex  3.598099e+000 -1.056497e+000  0.000000e+000
      vertex  2.000000e+000  0.000000e+000  0.000000e+000
      vertex  3.750000e+000  0.000000e+000  0.000000e+000
    endloop
  endfacet
  facet normal  0.000000e+000  0.000000e+000 -9.999999e-001
    outer loop
      vertex  3.750000e+000  0.000000e+000  0.000000e+000
      vertex  2.000000e+000  0.000000e+000  0.000000e+000
      vertex  1.847759e+000  7.653669e-001  0.000000e+000
    endloop
  endfacet
  facet normal  0.000000e+000  0.000000e+000 -1.000000e+000
    outer loop
      vertex  3.750000e+000  0.000000e+000  0.000000e+000
      vertex  1.847759e+000  7.653669e-001  0.000000e+000
      vertex  3.598099e+000  1.056497e+000  0.000000e+000
    endloop
  endfacet
  facet normal  0.000000e+000  0.000000e+000  1.000000e+000
    outer loop
      vertex -3.154701e+000 -2.027403e+000  2.700000e+001
      vertex -3.673940e-016 -2.000000e+000  2.700000e+001
      vertex -7.653669e-001 -1.847759e+000  2.700000e+001
    endloop
  endfacet
  facet normal  0.000000e+000  -0.000000e+000  1.000000e+000
    outer loop
      vertex -3.673940e-016 -2.000000e+000  2.700000e+001
      vertex  5.336806e-001 -3.711830e+000  2.700000e+001
      vertex  1.557806e+000 -3.411120e+000  2.700000e+001
    endloop
  endfacet
  facet normal  0.000000e+000  -0.000000e+000  1.000000e+000
    outer loop
      vertex -3.673940e-016 -2.000000e+000  2.700000e+001
      vertex  1.557806e+000 -3.411120e+000  2.700000e+001
      vertex  2.455728e+000 -2.834061e+000  2.700000e+001
    endloop
  endfacet
  facet normal  0.000000e+000  -0.000000e+000  1.000000e+000
    outer loop
      vertex -3.673940e-016 -2.000000e+000  2.700000e+001
      vertex  2.455728e+000 -2.834061e+000  2.700000e+001
      vertex  3.154701e+000 -2.027403e+000  2.700000e+001
    endloop
  endfacet
  facet normal  0.000000e+000  0.000000e+000  1.000000e+000
    outer loop
      vertex -3.673940e-016 -2.000000e+000  2.700000e+001
      vertex  3.154701e+000 -2.027403e+000  2.700000e+001
      vertex  7.653669e-001 -1.847759e+000  2.700000e+001
    endloop
  endfacet
  facet normal  0.000000e+000  -0.000000e+000  1.000000e+000
    outer loop
      vertex  1.224647e-016  2.000000e+000  2.700000e+001
      vertex  7.653669e-001  1.847759e+000  2.700000e+001
      vertex  3.154701e+000  2.027403e+000  2.700000e+001
    endloop
  endfacet
  facet normal  0.000000e+000  0.000000e+000  1.000000e+000
    outer loop
      vertex  1.224647e-016  2.000000e+000  2.700000e+001
      vertex  3.154701e+000  2.027403e+000  2.700000e+001
      vertex  2.455728e+000  2.834061e+000  2.700000e+001
    endloop
  endfacet
  facet normal  0.000000e+000  0.000000e+000  1.000000e+000
    outer loop
      vertex  1.224647e-016  2.000000e+000  2.700000e+001
      vertex  2.455728e+000  2.834061e+000  2.700000e+001
      vertex  1.557806e+000  3.411120e+000  2.700000e+001
    endloop
  endfacet
  facet normal  0.000000e+000  0.000000e+000  1.000000e+000
    outer loop
      vertex  1.224647e-016  2.000000e+000  2.700000e+001
      vertex  1.557806e+000  3.411120e+000  2.700000e+001
      vertex  5.336806e-001  3.711830e+000  2.700000e+001
    endloop
  endfacet
  facet normal  0.000000e+000  0.000000e+000  1.000000e+000
    outer loop
      vertex  1.224647e-016  2.000000e+000  2.700000e+001
      vertex  5.336806e-001  3.711830e+000  2.700000e+001
      vertex -5.336806e-001  3.711830e+000  2.700000e+001
    endloop
  endfacet
  facet normal  0.000000e+000  0.000000e+000  1.000000e+000
    outer loop
      vertex  1.224647e-016  2.000000e+000  2.700000e+001
      vertex -5.336806e-001  3.711830e+000  2.700000e+001
      vertex -1.557806e+000  3.411120e+000  2.700000e+001
    endloop
  endfacet
  facet normal  0.000000e+000  0.000000e+000  1.000000e+000
    outer loop
      vertex  1.224647e-016  2.000000e+000  2.700000e+001
      vertex -1.557806e+000  3.411120e+000  2.700000e+001
      vertex -2.455728e+000  2.834061e+000  2.700000e+001
    endloop
  endfacet
  facet normal  0.000000e+000  0.000000e+000  1.000000e+000
    outer loop
      vertex  1.224647e-016  2.000000e+000  2.700000e+001
      vertex -2.455728e+000  2.834061e+000  2.700000e+001
      vertex -3.154701e+000  2.027403e+000  2.700000e+001
    endloop
  endfacet
  facet normal  0.000000e+000  0.000000e+000  1.000000e+000
    outer loop
      vertex  1.224647e-016  2.000000e+000  2.700000e+001
      vertex -3.154701e+000  2.027403e+000  2.700000e+001
      vertex -7.653669e-001  1.847759e+000  2.700000e+001
    endloop
  endfacet
  facet normal  0.000000e+000  0.000000e+000  1.000000e+000
    outer loop
      vertex  5.336806e-001 -3.711830e+000  2.700000e+001
      vertex -3.673940e-016 -2.000000e+000  2.700000e+001
      vertex -5.336806e-001 -3.711830e+000  2.700000e+001
    endloop
  endfacet
  facet normal  0.000000e+000  -0.000000e+000  1.000000e+000
    outer loop
      vertex -5.336806e-001 -3.711830e+000  2.700000e+001
      vertex -3.673940e-016 -2.000000e+000  2.700000e+001
      vertex -3.154701e+000 -2.027403e+000  2.700000e+001
    endloop
  endfacet
  facet normal  0.000000e+000  0.000000e+000  9.999999e-001
    outer loop
      vertex -5.336806e-001 -3.711830e+000  2.700000e+001
      vertex -3.154701e+000 -2.027403e+000  2.700000e+001
      vertex -1.557806e+000 -3.411120e+000  2.700000e+001
    endloop
  endfacet
  facet normal  0.000000e+000  0.000000e+000  1.000000e+000
    outer loop
      vertex -1.557806e+000 -3.411120e+000  2.700000e+001
      vertex -3.154701e+000 -2.027403e+000  2.700000e+001
      vertex -2.455728e+000 -2.834061e+000  2.700000e+001
    endloop
  endfacet
  facet normal  0.000000e+000  0.000000e+000  1.000000e+000
    outer loop
      vertex -7.653669e-001  1.847759e+000  2.700000e+001
      vertex -3.154701e+000  2.027403e+000  2.700000e+001
      vertex -1.414214e+000  1.414214e+000  2.700000e+001
    endloop
  endfacet
  facet normal  0.000000e+000  0.000000e+000  9.999999e-001
    outer loop
      vertex -1.414214e+000  1.414214e+000  2.700000e+001
      vertex -3.154701e+000  2.027403e+000  2.700000e+001
      vertex -3.598099e+000  1.056497e+000  2.700000e+001
    endloop
  endfacet
  facet normal  -0.000000e+000  0.000000e+000  1.000000e+000
    outer loop
      vertex -1.414214e+000  1.414214e+000  2.700000e+001
      vertex -3.598099e+000  1.056497e+000  2.700000e+001
      vertex -1.847759e+000  7.653669e-001  2.700000e+001
    endloop
  endfacet
  facet normal  0.000000e+000  0.000000e+000  1.000000e+000
    outer loop
      vertex -1.847759e+000  7.653669e-001  2.700000e+001
      vertex -3.598099e+000  1.056497e+000  2.700000e+001
      vertex -2.000000e+000  2.449294e-016  2.700000e+001
    endloop
  endfacet
  facet normal  0.000000e+000  0.000000e+000  9.999999e-001
    outer loop
      vertex -2.000000e+000  2.449294e-016  2.700000e+001
      vertex -3.598099e+000  1.056497e+000  2.700000e+001
      vertex -3.750000e+000  2.124577e-015  2.700000e+001
    endloop
  endfacet
  facet normal  0.000000e+000  0.000000e+000  9.999999e-001
    outer loop
      vertex -2.000000e+000  2.449294e-016  2.700000e+001
      vertex -3.750000e+000  2.124577e-015  2.700000e+001
      vertex -1.847759e+000 -7.653669e-001  2.700000e+001
    endloop
  endfacet
  facet normal  0.000000e+000  0.000000e+000  1.000000e+000
    outer loop
      vertex -1.847759e+000 -7.653669e-001  2.700000e+001
      vertex -3.750000e+000  2.124577e-015  2.700000e+001
      vertex -3.598099e+000 -1.056497e+000  2.700000e+001
    endloop
  endfacet
  facet normal  -0.000000e+000  0.000000e+000  1.000000e+000
    outer loop
      vertex -1.847759e+000 -7.653669e-001  2.700000e+001
      vertex -3.598099e+000 -1.056497e+000  2.700000e+001
      vertex -1.414214e+000 -1.414214e+000  2.700000e+001
    endloop
  endfacet
  facet normal  0.000000e+000  0.000000e+000  9.999999e-001
    outer loop
      vertex -1.414214e+000 -1.414214e+000  2.700000e+001
      vertex -3.598099e+000 -1.056497e+000  2.700000e+001
      vertex -3.154701e+000 -2.027403e+000  2.700000e+001
    endloop
  endfacet
  facet normal  0.000000e+000  0.000000e+000  1.000000e+000
    outer loop
      vertex -1.414214e+000 -1.414214e+000  2.700000e+001
      vertex -3.154701e+000 -2.027403e+000  2.700000e+001
      vertex -7.653669e-001 -1.847759e+000  2.700000e+001
    endloop
  endfacet
  facet normal  -0.000000e+000  0.000000e+000  1.000000e+000
    outer loop
      vertex  3.154701e+000  2.027403e+000  2.700000e+001
      vertex  7.653669e-001  1.847759e+000  2.700000e+001
      vertex  3.598099e+000  1.056497e+000  2.700000e+001
    endloop
  endfacet
  facet normal  0.000000e+000  0.000000e+000  1.000000e+000
    outer loop
      vertex  3.598099e+000  1.056497e+000  2.700000e+001
      vertex  7.653669e-001  1.847759e+000  2.700000e+001
      vertex  1.414214e+000  1.414214e+000  2.700000e+001
    endloop
  endfacet
  facet normal  0.000000e+000  0.000000e+000  1.000000e+000
    outer loop
      vertex  3.598099e+000  1.056497e+000  2.700000e+001
      vertex  1.414214e+000  1.414214e+000  2.700000e+001
      vertex  1.847759e+000  7.653669e-001  2.700000e+001
    endloop
  endfacet
  facet normal  -0.000000e+000  0.000000e+000  1.000000e+000
    outer loop
      vertex  3.598099e+000  1.056497e+000  2.700000e+001
      vertex  1.847759e+000  7.653669e-001  2.700000e+001
      vertex  3.750000e+000  0.000000e+000  2.700000e+001
    endloop
  endfacet
  facet normal  0.000000e+000  0.000000e+000  9.999999e-001
    outer loop
      vertex  3.750000e+000  0.000000e+000  2.700000e+001
      vertex  1.847759e+000  7.653669e-001  2.700000e+001
      vertex  2.000000e+000  0.000000e+000  2.700000e+001
    endloop
  endfacet
  facet normal  -0.000000e+000  0.000000e+000  9.999999e-001
    outer loop
      vertex  3.750000e+000  0.000000e+000  2.700000e+001
      vertex  2.000000e+000  0.000000e+000  2.700000e+001
      vertex  3.598099e+000 -1.056497e+000  2.700000e+001
    endloop
  endfacet
  facet normal  0.000000e+000  0.000000e+000  1.000000e+000
    outer loop
      vertex  3.598099e+000 -1.056497e+000  2.700000e+001
      vertex  2.000000e+000  0.000000e+000  2.700000e+001
      vertex  1.847759e+000 -7.653669e-001  2.700000e+001
    endloop
  endfacet
  facet normal  0.000000e+000  0.000000e+000  1.000000e+000
    outer loop
      vertex  3.598099e+000 -1.056497e+000  2.700000e+001
      vertex  1.847759e+000 -7.653669e-001  2.700000e+001
      vertex  3.154701e+000 -2.027403e+000  2.700000e+001
    endloop
  endfacet
  facet normal  0.000000e+000  0.000000e+000  9.999999e-001
    outer loop
      vertex  3.154701e+000 -2.027403e+000  2.700000e+001
      vertex  1.847759e+000 -7.653669e-001  2.700000e+001
      vertex  1.414214e+000 -1.414214e+000  2.700000e+001
    endloop
  endfacet
  facet normal  0.000000e+000  0.000000e+000  1.000000e+000
    outer loop
      vertex  3.154701e+000 -2.027403e+000  2.700000e+001
      vertex  1.414214e+000 -1.414214e+000  2.700000e+001
      vertex  7.653669e-001 -1.847759e+000  2.700000e+001
    endloop
  endfacet
  facet normal  1.950904e-001 -9.807853e-001  0.000000e+000
    outer loop
      vertex  1.224647e-016  2.000000e+000  0.000000e+000
      vertex -7.653669e-001  1.847759e+000  2.700000e+001
      vertex -7.653669e-001  1.847759e+000  0.000000e+000
    endloop
  endfacet
  facet normal  5.555702e-001 -8.314696e-001  0.000000e+000
    outer loop
      vertex -7.653669e-001  1.847759e+000  0.000000e+000
      vertex -7.653669e-001  1.847759e+000  2.700000e+001
      vertex -1.414214e+000  1.414214e+000  2.700000e+001
    endloop
  endfacet
  facet normal  5.555702e-001 -8.314696e-001  0.000000e+000
    outer loop
      vertex -7.653669e-001  1.847759e+000  0.000000e+000
      vertex -1.414214e+000  1.414214e+000  2.700000e+001
      vertex -1.414214e+000  1.414214e+000  0.000000e+000
    endloop
  endfacet
  facet normal  8.314696e-001 -5.555702e-001  0.000000e+000
    outer loop
      vertex -1.414214e+000  1.414214e+000  0.000000e+000
      vertex -1.414214e+000  1.414214e+000  2.700000e+001
      vertex -1.847759e+000  7.653669e-001  2.700000e+001
    endloop
  endfacet
  facet normal  8.314696e-001 -5.555702e-001  0.000000e+000
    outer loop
      vertex -1.414214e+000  1.414214e+000  0.000000e+000
      vertex -1.847759e+000  7.653669e-001  2.700000e+001
      vertex -1.847759e+000  7.653669e-001  0.000000e+000
    endloop
  endfacet
  facet normal  9.807853e-001 -1.950904e-001  0.000000e+000
    outer loop
      vertex -1.847759e+000  7.653669e-001  0.000000e+000
      vertex -1.847759e+000  7.653669e-001  2.700000e+001
      vertex -2.000000e+000  2.449294e-016  2.700000e+001
    endloop
  endfacet
  facet normal  9.807853e-001 -1.950904e-001  0.000000e+000
    outer loop
      vertex -1.847759e+000  7.653669e-001  0.000000e+000
      vertex -2.000000e+000  2.449294e-016  2.700000e+001
      vertex -2.000000e+000  2.449294e-016  0.000000e+000
    endloop
  endfacet
  facet normal  1.950904e-001 -9.807853e-001  0.000000e+000
    outer loop
      vertex -7.653669e-001  1.847759e+000  2.700000e+001
      vertex  1.224647e-016  2.000000e+000  0.000000e+000
      vertex  1.224647e-016  2.000000e+000  2.700000e+001
    endloop
  endfacet
  facet normal -1.950904e-001 -9.807853e-001  -0.000000e+000
    outer loop
      vertex  1.224647e-016  2.000000e+000  2.700000e+001
      vertex  1.224647e-016  2.000000e+000  0.000000e+000
      vertex  7.653669e-001  1.847759e+000  0.000000e+000
    endloop
  endfacet
  facet normal -1.950904e-001 -9.807853e-001  0.000000e+000
    outer loop
      vertex  1.224647e-016  2.000000e+000  2.700000e+001
      vertex  7.653669e-001  1.847759e+000  0.000000e+000
      vertex  7.653669e-001  1.847759e+000  2.700000e+001
    endloop
  endfacet
  facet normal -5.555702e-001 -8.314696e-001  -0.000000e+000
    outer loop
      vertex  7.653669e-001  1.847759e+000  2.700000e+001
      vertex  7.653669e-001  1.847759e+000  0.000000e+000
      vertex  1.414214e+000  1.414214e+000  0.000000e+000
    endloop
  endfacet
  facet normal -5.555702e-001 -8.314696e-001  0.000000e+000
    outer loop
      vertex  7.653669e-001  1.847759e+000  2.700000e+001
      vertex  1.414214e+000  1.414214e+000  0.000000e+000
      vertex  1.414214e+000  1.414214e+000  2.700000e+001
    endloop
  endfacet
  facet normal -8.314696e-001 -5.555702e-001  -0.000000e+000
    outer loop
      vertex  1.414214e+000  1.414214e+000  2.700000e+001
      vertex  1.414214e+000  1.414214e+000  0.000000e+000
      vertex  1.847759e+000  7.653669e-001  0.000000e+000
    endloop
  endfacet
  facet normal -8.314696e-001 -5.555702e-001  0.000000e+000
    outer loop
      vertex  1.414214e+000  1.414214e+000  2.700000e+001
      vertex  1.847759e+000  7.653669e-001  0.000000e+000
      vertex  1.847759e+000  7.653669e-001  2.700000e+001
    endloop
  endfacet
  facet normal -9.807853e-001 -1.950904e-001  -0.000000e+000
    outer loop
      vertex  1.847759e+000  7.653669e-001  2.700000e+001
      vertex  1.847759e+000  7.653669e-001  0.000000e+000
      vertex  2.000000e+000  0.000000e+000  0.000000e+000
    endloop
  endfacet
  facet normal -9.807853e-001 -1.950904e-001  0.000000e+000
    outer loop
      vertex  1.847759e+000  7.653669e-001  2.700000e+001
      vertex  2.000000e+000  0.000000e+000  0.000000e+000
      vertex  2.000000e+000  0.000000e+000  2.700000e+001
    endloop
  endfacet
  facet normal -1.950904e-001  9.807853e-001  0.000000e+000
    outer loop
      vertex -3.673940e-016 -2.000000e+000  0.000000e+000
      vertex  7.653669e-001 -1.847759e+000  2.700000e+001
      vertex  7.653669e-001 -1.847759e+000  0.000000e+000
    endloop
  endfacet
  facet normal -5.555702e-001  8.314696e-001  0.000000e+000
    outer loop
      vertex  7.653669e-001 -1.847759e+000  0.000000e+000
      vertex  7.653669e-001 -1.847759e+000  2.700000e+001
      vertex  1.414214e+000 -1.414214e+000  2.700000e+001
    endloop
  endfacet
  facet normal -5.555702e-001  8.314696e-001  0.000000e+000
    outer loop
      vertex  7.653669e-001 -1.847759e+000  0.000000e+000
      vertex  1.414214e+000 -1.414214e+000  2.700000e+001
      vertex  1.414214e+000 -1.414214e+000  0.000000e+000
    endloop
  endfacet
  facet normal -8.314696e-001  5.555702e-001  0.000000e+000
    outer loop
      vertex  1.414214e+000 -1.414214e+000  0.000000e+000
      vertex  1.414214e+000 -1.414214e+000  2.700000e+001
      vertex  1.847759e+000 -7.653669e-001  2.700000e+001
    endloop
  endfacet
  facet normal -8.314696e-001  5.555702e-001  0.000000e+000
    outer loop
      vertex  1.414214e+000 -1.414214e+000  0.000000e+000
      vertex  1.847759e+000 -7.653669e-001  2.700000e+001
      vertex  1.847759e+000 -7.653669e-001  0.000000e+000
    endloop
  endfacet
  facet normal -9.807853e-001  1.950904e-001  0.000000e+000
    outer loop
      vertex  1.847759e+000 -7.653669e-001  0.000000e+000
      vertex  1.847759e+000 -7.653669e-001  2.700000e+001
      vertex  2.000000e+000  0.000000e+000  2.700000e+001
    endloop
  endfacet
  facet normal -9.807853e-001  1.950904e-001  0.000000e+000
    outer loop
      vertex  1.847759e+000 -7.653669e-001  0.000000e+000
      vertex  2.000000e+000  0.000000e+000  2.700000e+001
      vertex  2.000000e+000  0.000000e+000  0.000000e+000
    endloop
  endfacet
  facet normal -1.950904e-001  9.807853e-001  0.000000e+000
    outer loop
      vertex  7.653669e-001 -1.847759e+000  2.700000e+001
      vertex -3.673940e-016 -2.000000e+000  0.000000e+000
      vertex -3.673940e-016 -2.000000e+000  2.700000e+001
    endloop
  endfacet
  facet normal  1.950904e-001  9.807853e-001  0.000000e+000
    outer loop
      vertex -3.673940e-016 -2.000000e+000  2.700000e+001
      vertex -3.673940e-016 -2.000000e+000  0.000000e+000
      vertex -7.653669e-001 -1.847759e+000  0.000000e+000
    endloop
  endfacet
  facet normal  1.950904e-001  9.807853e-001  -0.000000e+000
    outer loop
      vertex -3.673940e-016 -2.000000e+000  2.700000e+001
      vertex -7.653669e-001 -1.847759e+000  0.000000e+000
      vertex -7.653669e-001 -1.847759e+000  2.700000e+001
    endloop
  endfacet
  facet normal  5.555702e-001  8.314696e-001  0.000000e+000
    outer loop
      vertex -7.653669e-001 -1.847759e+000  2.700000e+001
      vertex -7.653669e-001 -1.847759e+000  0.000000e+000
      vertex -1.414214e+000 -1.414214e+000  0.000000e+000
    endloop
  endfacet
  facet normal  5.555702e-001  8.314696e-001  -0.000000e+000
    outer loop
      vertex -7.653669e-001 -1.847759e+000  2.700000e+001
      vertex -1.414214e+000 -1.414214e+000  0.000000e+000
      vertex -1.414214e+000 -1.414214e+000  2.700000e+001
    endloop
  endfacet
  facet normal  8.314696e-001  5.555702e-001  0.000000e+000
    outer loop
      vertex -1.414214e+000 -1.414214e+000  2.700000e+001
      vertex -1.414214e+000 -1.414214e+000  0.000000e+000
      vertex -1.847759e+000 -7.653669e-001  0.000000e+000
    endloop
  endfacet
  facet normal  8.314696e-001  5.555702e-001  -0.000000e+000
    outer loop
      vertex -1.414214e+000 -1.414214e+000  2.700000e+001
      vertex -1.847759e+000 -7.653669e-001  0.000000e+000
      vertex -1.847759e+000 -7.653669e-001  2.700000e+001
    endloop
  endfacet
  facet normal  9.807853e-001  1.950904e-001  0.000000e+000
    outer loop
      vertex -1.847759e+000 -7.653669e-001  2.700000e+001
      vertex -1.847759e+000 -7.653669e-001  0.000000e+000
      vertex -2.000000e+000  2.449294e-016  0.000000e+000
    endloop
  endfacet
  facet normal  9.807853e-001  1.950904e-001  -0.000000e+000
    outer loop
      vertex -1.847759e+000 -7.653669e-001  2.700000e+001
      vertex -2.000000e+000  2.449294e-016  0.000000e+000
      vertex -2.000000e+000  2.449294e-016  2.700000e+001
    endloop
  endfacet
  facet normal  9.898214e-001 -1.423147e-001  0.000000e+000
    outer loop
      vertex  3.750000e+000  0.000000e+000  0.000000e+000
      vertex  3.750000e+000  0.000000e+000  2.700000e+001
      vertex  3.598099e+000 -1.056497e+000  0.000000e+000
    endloop
  endfacet
  facet normal  9.898214e-001 -1.423147e-001  0.000000e+000
    outer loop
      vertex  3.598099e+000 -1.056497e+000  0.000000e+000
      vertex  3.750000e+000  0.000000e+000  2.700000e+001
      vertex  3.598099e+000 -1.056497e+000  2.700000e+001
    endloop
  endfacet
  facet normal  9.096320e-001 -4.154151e-001  0.000000e+000
    outer loop
      vertex  3.598099e+000 -1.056497e+000  0.000000e+000
      vertex  3.598099e+000 -1.056497e+000  2.700000e+001
      vertex  3.154701e+000 -2.027403e+000  0.000000e+000
    endloop
  endfacet
  facet normal  9.096320e-001 -4.154151e-001  0.000000e+000
    outer loop
      vertex  3.154701e+000 -2.027403e+000  0.000000e+000
      vertex  3.598099e+000 -1.056497e+000  2.700000e+001
      vertex  3.154701e+000 -2.027403e+000  2.700000e+001
    endloop
  endfacet
  facet normal  7.557496e-001 -6.548607e-001  0.000000e+000
    outer loop
      vertex  3.154701e+000 -2.027403e+000  0.000000e+000
      vertex  3.154701e+000 -2.027403e+000  2.700000e+001
      vertex  2.455728e+000 -2.834061e+000  0.000000e+000
    endloop
  endfacet
  facet normal  7.557496e-001 -6.548607e-001  0.000000e+000
    outer loop
      vertex  2.455728e+000 -2.834061e+000  0.000000e+000
      vertex  3.154701e+000 -2.027403e+000  2.700000e+001
      vertex  2.455728e+000 -2.834061e+000  2.700000e+001
    endloop
  endfacet
  facet normal  5.406408e-001 -8.412536e-001  0.000000e+000
    outer loop
      vertex  2.455728e+000 -2.834061e+000  0.000000e+000
      vertex  2.455728e+000 -2.834061e+000  2.700000e+001
      vertex  1.557806e+000 -3.411120e+000  0.000000e+000
    endloop
  endfacet
  facet normal  5.406408e-001 -8.412536e-001  0.000000e+000
    outer loop
      vertex  1.557806e+000 -3.411120e+000  0.000000e+000
      vertex  2.455728e+000 -2.834061e+000  2.700000e+001
      vertex  1.557806e+000 -3.411120e+000  2.700000e+001
    endloop
  endfacet
  facet normal  2.817326e-001 -9.594930e-001  0.000000e+000
    outer loop
      vertex  1.557806e+000 -3.411120e+000  0.000000e+000
      vertex  1.557806e+000 -3.411120e+000  2.700000e+001
      vertex  5.336806e-001 -3.711830e+000  0.000000e+000
    endloop
  endfacet
  facet normal  2.817326e-001 -9.594930e-001  0.000000e+000
    outer loop
      vertex  5.336806e-001 -3.711830e+000  0.000000e+000
      vertex  1.557806e+000 -3.411120e+000  2.700000e+001
      vertex  5.336806e-001 -3.711830e+000  2.700000e+001
    endloop
  endfacet
  facet normal  0.000000e+000 -1.000000e+000  -0.000000e+000
    outer loop
      vertex  5.336806e-001 -3.711830e+000  0.000000e+000
      vertex  5.336806e-001 -3.711830e+000  2.700000e+001
      vertex -5.336806e-001 -3.711830e+000  0.000000e+000
    endloop
  endfacet
  facet normal  0.000000e+000 -1.000000e+000  0.000000e+000
    outer loop
      vertex -5.336806e-001 -3.711830e+000  0.000000e+000
      vertex  5.336806e-001 -3.711830e+000  2.700000e+001
      vertex -5.336806e-001 -3.711830e+000  2.700000e+001
    endloop
  endfacet
  facet normal -2.817326e-001 -9.594930e-001  -0.000000e+000
    outer loop
      vertex -5.336806e-001 -3.711830e+000  0.000000e+000
      vertex -5.336806e-001 -3.711830e+000  2.700000e+001
      vertex -1.557806e+000 -3.411120e+000  0.000000e+000
    endloop
  endfacet
  facet normal -2.817326e-001 -9.594930e-001  0.000000e+000
    outer loop
      vertex -1.557806e+000 -3.411120e+000  0.000000e+000
      vertex -5.336806e-001 -3.711830e+000  2.700000e+001
      vertex -1.557806e+000 -3.411120e+000  2.700000e+001
    endloop
  endfacet
  facet normal -5.406408e-001 -8.412536e-001  -0.000000e+000
    outer loop
      vertex -1.557806e+000 -3.411120e+000  0.000000e+000
      vertex -1.557806e+000 -3.411120e+000  2.700000e+001
      vertex -2.455728e+000 -2.834061e+000  0.000000e+000
    endloop
  endfacet
  facet normal -5.406408e-001 -8.412536e-001  0.000000e+000
    outer loop
      vertex -2.455728e+000 -2.834061e+000  0.000000e+000
      vertex -1.557806e+000 -3.411120e+000  2.700000e+001
      vertex -2.455728e+000 -2.834061e+000  2.700000e+001
    endloop
  endfacet
  facet normal -7.557496e-001 -6.548607e-001  -0.000000e+000
    outer loop
      vertex -2.455728e+000 -2.834061e+000  0.000000e+000
      vertex -2.455728e+000 -2.834061e+000  2.700000e+001
      vertex -3.154701e+000 -2.027403e+000  0.000000e+000
    endloop
  endfacet
  facet normal -7.557496e-001 -6.548607e-001  0.000000e+000
    outer loop
      vertex -3.154701e+000 -2.027403e+000  0.000000e+000
      vertex -2.455728e+000 -2.834061e+000  2.700000e+001
      vertex -3.154701e+000 -2.027403e+000  2.700000e+001
    endloop
  endfacet
  facet normal -9.096320e-001 -4.154151e-001  -0.000000e+000
    outer loop
      vertex -3.154701e+000 -2.027403e+000  0.000000e+000
      vertex -3.154701e+000 -2.027403e+000  2.700000e+001
      vertex -3.598099e+000 -1.056497e+000  0.000000e+000
    endloop
  endfacet
  facet normal -9.096320e-001 -4.154151e-001  0.000000e+000
    outer loop
      vertex -3.598099e+000 -1.056497e+000  0.000000e+000
      vertex -3.154701e+000 -2.027403e+000  2.700000e+001
      vertex -3.598099e+000 -1.056497e+000  2.700000e+001
    endloop
  endfacet
  facet normal -9.898214e-001 -1.423147e-001  -0.000000e+000
    outer loop
      vertex -3.598099e+000 -1.056497e+000  0.000000e+000
      vertex -3.598099e+000 -1.056497e+000  2.700000e+001
      vertex -3.750000e+000  2.124577e-015  0.000000e+000
    endloop
  endfacet
  facet normal -9.898214e-001 -1.423147e-001  0.000000e+000
    outer loop
      vertex -3.750000e+000  2.124577e-015  0.000000e+000
      vertex -3.598099e+000 -1.056497e+000  2.700000e+001
      vertex -3.750000e+000  2.124577e-015  2.700000e+001
    endloop
  endfacet
  facet normal -9.898214e-001  1.423147e-001  0.000000e+000
    outer loop
      vertex -3.750000e+000  2.124577e-015  0.000000e+000
      vertex -3.750000e+000  2.124577e-015  2.700000e+001
      vertex -3.598099e+000  1.056497e+000  0.000000e+000
    endloop
  endfacet
  facet normal -9.898214e-001  1.423147e-001  0.000000e+000
    outer loop
      vertex -3.598099e+000  1.056497e+000  0.000000e+000
      vertex -3.750000e+000  2.124577e-015  2.700000e+001
      vertex -3.598099e+000  1.056497e+000  2.700000e+001
    endloop
  endfacet
  facet normal -9.096320e-001  4.154151e-001  0.000000e+000
    outer loop
      vertex -3.598099e+000  1.056497e+000  0.000000e+000
      vertex -3.598099e+000  1.056497e+000  2.700000e+001
      vertex -3.154701e+000  2.027403e+000  0.000000e+000
    endloop
  endfacet
  facet normal -9.096320e-001  4.154151e-001  0.000000e+000
    outer loop
      vertex -3.154701e+000  2.027403e+000  0.000000e+000
      vertex -3.598099e+000  1.056497e+000  2.700000e+001
      vertex -3.154701e+000  2.027403e+000  2.700000e+001
    endloop
  endfacet
  facet normal -7.557496e-001  6.548607e-001  0.000000e+000
    outer loop
      vertex -3.154701e+000  2.027403e+000  0.000000e+000
      vertex -3.154701e+000  2.027403e+000  2.700000e+001
      vertex -2.455728e+000  2.834061e+000  0.000000e+000
    endloop
  endfacet
  facet normal -7.557496e-001  6.548607e-001  0.000000e+000
    outer loop
      vertex -2.455728e+000  2.834061e+000  0.000000e+000
      vertex -3.154701e+000  2.027403e+000  2.700000e+001
      vertex -2.455728e+000  2.834061e+000  2.700000e+001
    endloop
  endfacet
  facet normal -5.406408e-001  8.412536e-001  0.000000e+000
    outer loop
      vertex -2.455728e+000  2.834061e+000  0.000000e+000
      vertex -2.455728e+000  2.834061e+000  2.700000e+001
      vertex -1.557806e+000  3.411120e+000  0.000000e+000
    endloop
  endfacet
  facet normal -5.406408e-001  8.412536e-001  0.000000e+000
    outer loop
      vertex -1.557806e+000  3.411120e+000  0.000000e+000
      vertex -2.455728e+000  2.834061e+000  2.700000e+001
      vertex -1.557806e+000  3.411120e+000  2.700000e+001
    endloop
  endfacet
  facet normal -2.817326e-001  9.594930e-001  0.000000e+000
    outer loop
      vertex -1.557806e+000  3.411120e+000  0.000000e+000
      vertex -1.557806e+000  3.411120e+000  2.700000e+001
      vertex -5.336806e-001  3.711830e+000  0.000000e+000
    endloop
  endfacet
  facet normal -2.817326e-001  9.594930e-001  0.000000e+000
    outer loop
      vertex -5.336806e-001  3.711830e+000  0.000000e+000
      vertex -1.557806e+000  3.411120e+000  2.700000e+001
      vertex -5.336806e-001  3.711830e+000  2.700000e+001
    endloop
  endfacet
  facet normal  0.000000e+000  1.000000e+000  0.000000e+000
    outer loop
      vertex -5.336806e-001  3.711830e+000  0.000000e+000
      vertex -5.336806e-001  3.711830e+000  2.700000e+001
      vertex  5.336806e-001  3.711830e+000  0.000000e+000
    endloop
  endfacet
  facet normal  0.000000e+000  1.000000e+000  -0.000000e+000
    outer loop
      vertex  5.336806e-001  3.711830e+000  0.000000e+000
      vertex -5.336806e-001  3.711830e+000  2.700000e+001
      vertex  5.336806e-001  3.711830e+000  2.700000e+001
    endloop
  endfacet
  facet normal  2.817326e-001  9.594930e-001  0.000000e+000
    outer loop
      vertex  5.336806e-001  3.711830e+000  0.000000e+000
      vertex  5.336806e-001  3.711830e+000  2.700000e+001
      vertex  1.557806e+000  3.411120e+000  0.000000e+000
    endloop
  endfacet
  facet normal  2.817326e-001  9.594930e-001  -0.000000e+000
    outer loop
      vertex  1.557806e+000  3.411120e+000  0.000000e+000
      vertex  5.336806e-001  3.711830e+000  2.700000e+001
      vertex  1.557806e+000  3.411120e+000  2.700000e+001
    endloop
  endfacet
  facet normal  5.406408e-001  8.412536e-001  0.000000e+000
    outer loop
      vertex  1.557806e+000  3.411120e+000  0.000000e+000
      vertex  1.557806e+000  3.411120e+000  2.700000e+001
      vertex  2.455728e+000  2.834061e+000  0.000000e+000
    endloop
  endfacet
  facet normal  5.406408e-001  8.412536e-001  -0.000000e+000
    outer loop
      vertex  2.455728e+000  2.834061e+000  0.000000e+000
      vertex  1.557806e+000  3.411120e+000  2.700000e+001
      vertex  2.455728e+000  2.834061e+000  2.700000e+001
    endloop
  endfacet
  facet normal  7.557496e-001  6.548607e-001  0.000000e+000
    outer loop
      vertex  2.455728e+000  2.834061e+000  0.000000e+000
      vertex  2.455728e+000  2.834061e+000  2.700000e+001
      vertex  3.154701e+000  2.027403e+000  0.000000e+000
    endloop
  endfacet
  facet normal  7.557496e-001  6.548607e-001  -0.000000e+000
    outer loop
      vertex  3.154701e+000  2.027403e+000  0.000000e+000
      vertex  2.455728e+000  2.834061e+000  2.700000e+001
      vertex  3.154701e+000  2.027403e+000  2.700000e+001
    endloop
  endfacet
  facet normal  9.096320e-001  4.154151e-001  0.000000e+000
    outer loop
      vertex  3.154701e+000  2.027403e+000  0.000000e+000
      vertex  3.154701e+000  2.027403e+000  2.700000e+001
      vertex  3.598099e+000  1.056497e+000  0.000000e+000
    endloop
  endfacet
  facet normal  9.096320e-001  4.154151e-001  -0.000000e+000
    outer loop
      vertex  3.598099e+000  1.056497e+000  0.000000e+000
      vertex  3.154701e+000  2.027403e+000  2.700000e+001
      vertex  3.598099e+000  1.056497e+000  2.700000e+001
    endloop
  endfacet
  facet normal  9.898214e-001  1.423147e-001  0.000000e+000
    outer loop
      vertex  3.598099e+000  1.056497e+000  0.000000e+000
      vertex  3.598099e+000  1.056497e+000  2.700000e+001
      vertex  3.750000e+000  0.000000e+000  0.000000e+000
    endloop
  endfacet
  facet normal  9.898214e-001  1.423147e-001  -0.000000e+000
    outer loop
      vertex  3.750000e+000  0.000000e+000  0.000000e+000
      vertex  3.598099e+000  1.056497e+000  2.700000e+001
      vertex  3.750000e+000  0.000000e+000  2.700000e+001
    endloop
  endfacet
endsolid CATIA STL
