solid CATIA STL
  facet normal  0.000000e+000  0.000000e+000 -1.000000e+000
    outer loop
      vertex -1.618034e+000  1.175570e+000  0.000000e+000
      vertex -2.381570e+000  1.375000e+000  0.000000e+000
      vertex -1.175570e+000  1.618034e+000  0.000000e+000
    endloop
  endfacet
  facet normal  -0.000000e+000  0.000000e+000 -1.000000e+000
    outer loop
      vertex -1.175570e+000  1.618034e+000  0.000000e+000
      vertex -2.381570e+000  1.375000e+000  0.000000e+000
      vertex -1.944544e+000  1.944544e+000  0.000000e+000
    endloop
  endfacet
  facet normal  0.000000e+000  0.000000e+000 -9.999999e-001
    outer loop
      vertex -1.175570e+000  1.618034e+000  0.000000e+000
      vertex -1.944544e+000  1.944544e+000  0.000000e+000
      vertex -6.180340e-001  1.902113e+000  0.000000e+000
    endloop
  endfacet
  facet normal  0.000000e+000  0.000000e+000 -1.000000e+000
    outer loop
      vertex -6.180340e-001  1.902113e+000  0.000000e+000
      vertex -1.944544e+000  1.944544e+000  0.000000e+000
      vertex -1.375000e+000  2.381570e+000  0.000000e+000
    endloop
  endfacet
  facet normal  0.000000e+000  0.000000e+000 -1.000000e+000
    outer loop
      vertex -6.180340e-001  1.902113e+000  0.000000e+000
      vertex -1.375000e+000  2.381570e+000  0.000000e+000
      vertex  1.224647e-016  2.000000e+000  0.000000e+000
    endloop
  endfacet
  facet normal  0.000000e+000  0.000000e+000 -9.999999e-001
    outer loop
      vertex  1.224647e-016  2.000000e+000  0.000000e+000
      vertex -1.375000e+000  2.381570e+000  0.000000e+000
      vertex -7.117524e-001  2.656296e+000  0.000000e+000
    endloop
  endfacet
  facet normal  0.000000e+000  0.000000e+000 -1.000000e+000
    outer loop
      vertex  1.224647e-016  2.000000e+000  0.000000e+000
      vertex -7.117524e-001  2.656296e+000  0.000000e+000
      vertex  7.790116e-016  2.750000e+000  0.000000e+000
    endloop
  endfacet
  facet normal  0.000000e+000  0.000000e+000 -9.999999e-001
    outer loop
      vertex -6.180340e-001 -1.902113e+000  0.000000e+000
      vertex -1.944544e+000 -1.944544e+000  0.000000e+000
      vertex -1.175570e+000 -1.618034e+000  0.000000e+000
    endloop
  endfacet
  facet normal  -0.000000e+000  0.000000e+000 -1.000000e+000
    outer loop
      vertex -1.175570e+000 -1.618034e+000  0.000000e+000
      vertex -1.944544e+000 -1.944544e+000  0.000000e+000
      vertex -2.381570e+000 -1.375000e+000  0.000000e+000
    endloop
  endfacet
  facet normal  0.000000e+000  0.000000e+000 -1.000000e+000
    outer loop
      vertex -1.175570e+000 -1.618034e+000  0.000000e+000
      vertex -2.381570e+000 -1.375000e+000  0.000000e+000
      vertex -1.618034e+000 -1.175570e+000  0.000000e+000
    endloop
  endfacet
  facet normal  -0.000000e+000  0.000000e+000 -1.000000e+000
    outer loop
      vertex -1.618034e+000 -1.175570e+000  0.000000e+000
      vertex -2.381570e+000 -1.375000e+000  0.000000e+000
      vertex -2.656296e+000 -7.117524e-001  0.000000e+000
    endloop
  endfacet
  facet normal  0.000000e+000  0.000000e+000 -1.000000e+000
    outer loop
      vertex -1.618034e+000 -1.175570e+000  0.000000e+000
      vertex -2.656296e+000 -7.117524e-001  0.000000e+000
      vertex -1.902113e+000 -6.180340e-001  0.000000e+000
    endloop
  endfacet
  facet normal  -0.000000e+000  0.000000e+000 -1.000000e+000
    outer loop
      vertex -1.902113e+000 -6.180340e-001  0.000000e+000
      vertex -2.656296e+000 -7.117524e-001  0.000000e+000
      vertex -2.750000e+000  1.558023e-015  0.000000e+000
    endloop
  endfacet
  facet normal  0.000000e+000  0.000000e+000 -1.000000e+000
    outer loop
      vertex -1.902113e+000 -6.180340e-001  0.000000e+000
      vertex -2.750000e+000  1.558023e-015  0.000000e+000
      vertex -2.000000e+000  2.449294e-016  0.000000e+000
    endloop
  endfacet
  facet normal  0.000000e+000  0.000000e+000 -1.000000e+000
    outer loop
      vertex -2.000000e+000  2.449294e-016  0.000000e+000
      vertex -2.750000e+000  1.558023e-015  0.000000e+000
      vertex -2.656296e+000  7.117524e-001  0.000000e+000
    endloop
  endfacet
  facet normal  0.000000e+000  0.000000e+000 -1.000000e+000
    outer loop
      vertex -2.000000e+000  2.449294e-016  0.000000e+000
      vertex -2.656296e+000  7.117524e-001  0.000000e+000
      vertex -1.902113e+000  6.180340e-001  0.000000e+000
    endloop
  endfacet
  facet normal  0.000000e+000  0.000000e+000 -1.000000e+000
    outer loop
      vertex -1.902113e+000  6.180340e-001  0.000000e+000
      vertex -2.656296e+000  7.117524e-001  0.000000e+000
      vertex -2.381570e+000  1.375000e+000  0.000000e+000
    endloop
  endfacet
  facet normal  0.000000e+000  0.000000e+000 -1.000000e+000
    outer loop
      vertex -1.902113e+000  6.180340e-001  0.000000e+000
      vertex -2.381570e+000  1.375000e+000  0.000000e+000
      vertex -1.618034e+000  1.175570e+000  0.000000e+000
    endloop
  endfacet
  facet normal  0.000000e+000  0.000000e+000 -1.000000e+000
    outer loop
      vertex -6.180340e-001 -1.902113e+000  0.000000e+000
      vertex -3.673940e-016 -2.000000e+000  0.000000e+000
      vertex -1.944544e+000 -1.944544e+000  0.000000e+000
    endloop
  endfacet
  facet normal  0.000000e+000  0.000000e+000 -1.000000e+000
    outer loop
      vertex -1.944544e+000 -1.944544e+000  0.000000e+000
      vertex -3.673940e-016 -2.000000e+000  0.000000e+000
      vertex -1.375000e+000 -2.381570e+000  0.000000e+000
    endloop
  endfacet
  facet normal  0.000000e+000  0.000000e+000 -1.000000e+000
    outer loop
      vertex -3.673940e-016 -2.000000e+000  0.000000e+000
      vertex -2.947658e-015 -2.750000e+000  0.000000e+000
      vertex -1.375000e+000 -2.381570e+000  0.000000e+000
    endloop
  endfacet
  facet normal  0.000000e+000  0.000000e+000 -1.000000e+000
    outer loop
      vertex -1.375000e+000 -2.381570e+000  0.000000e+000
      vertex -2.947658e-015 -2.750000e+000  0.000000e+000
      vertex -7.117524e-001 -2.656296e+000  0.000000e+000
    endloop
  endfacet
  facet normal  0.000000e+000  0.000000e+000 -1.000000e+000
    outer loop
      vertex  1.618034e+000  1.175570e+000  0.000000e+000
      vertex  1.175570e+000  1.618034e+000  0.000000e+000
      vertex  2.381570e+000  1.375000e+000  0.000000e+000
    endloop
  endfacet
  facet normal  0.000000e+000  0.000000e+000 -1.000000e+000
    outer loop
      vertex  2.381570e+000  1.375000e+000  0.000000e+000
      vertex  1.175570e+000  1.618034e+000  0.000000e+000
      vertex  6.180340e-001  1.902113e+000  0.000000e+000
    endloop
  endfacet
  facet normal  0.000000e+000  0.000000e+000 -1.000000e+000
    outer loop
      vertex  2.381570e+000  1.375000e+000  0.000000e+000
      vertex  6.180340e-001  1.902113e+000  0.000000e+000
      vertex  1.944544e+000  1.944544e+000  0.000000e+000
    endloop
  endfacet
  facet normal  -0.000000e+000  0.000000e+000 -1.000000e+000
    outer loop
      vertex  1.944544e+000  1.944544e+000  0.000000e+000
      vertex  6.180340e-001  1.902113e+000  0.000000e+000
      vertex  1.224647e-016  2.000000e+000  0.000000e+000
    endloop
  endfacet
  facet normal  0.000000e+000  0.000000e+000 -1.000000e+000
    outer loop
      vertex  1.944544e+000  1.944544e+000  0.000000e+000
      vertex  1.224647e-016  2.000000e+000  0.000000e+000
      vertex  1.375000e+000  2.381570e+000  0.000000e+000
    endloop
  endfacet
  facet normal  -0.000000e+000  0.000000e+000 -1.000000e+000
    outer loop
      vertex  1.375000e+000  2.381570e+000  0.000000e+000
      vertex  1.224647e-016  2.000000e+000  0.000000e+000
      vertex  7.790116e-016  2.750000e+000  0.000000e+000
    endloop
  endfacet
  facet normal  0.000000e+000  0.000000e+000 -1.000000e+000
    outer loop
      vertex  1.375000e+000  2.381570e+000  0.000000e+000
      vertex  7.790116e-016  2.750000e+000  0.000000e+000
      vertex  7.117524e-001  2.656296e+000  0.000000e+000
    endloop
  endfacet
  facet normal  0.000000e+000  -0.000000e+000 -9.999999e-001
    outer loop
      vertex  6.180340e-001 -1.902113e+000  0.000000e+000
      vertex  1.175570e+000 -1.618034e+000  0.000000e+000
      vertex  1.944544e+000 -1.944544e+000  0.000000e+000
    endloop
  endfacet
  facet normal  0.000000e+000  0.000000e+000 -1.000000e+000
    outer loop
      vertex  1.944544e+000 -1.944544e+000  0.000000e+000
      vertex  1.175570e+000 -1.618034e+000  0.000000e+000
      vertex  1.618034e+000 -1.175570e+000  0.000000e+000
    endloop
  endfacet
  facet normal  0.000000e+000  0.000000e+000 -1.000000e+000
    outer loop
      vertex  1.944544e+000 -1.944544e+000  0.000000e+000
      vertex  1.618034e+000 -1.175570e+000  0.000000e+000
      vertex  2.381570e+000 -1.375000e+000  0.000000e+000
    endloop
  endfacet
  facet normal  0.000000e+000  0.000000e+000 -1.000000e+000
    outer loop
      vertex  2.381570e+000 -1.375000e+000  0.000000e+000
      vertex  1.618034e+000 -1.175570e+000  0.000000e+000
      vertex  1.902113e+000 -6.180340e-001  0.000000e+000
    endloop
  endfacet
  facet normal  0.000000e+000  0.000000e+000 -1.000000e+000
    outer loop
      vertex  2.381570e+000 -1.375000e+000  0.000000e+000
      vertex  1.902113e+000 -6.180340e-001  0.000000e+000
      vertex  2.656296e+000 -7.117524e-001  0.000000e+000
    endloop
  endfacet
  facet normal  0.000000e+000  0.000000e+000 -1.000000e+000
    outer loop
      vertex  2.656296e+000 -7.117524e-001  0.000000e+000
      vertex  1.902113e+000 -6.180340e-001  0.000000e+000
      vertex  2.000000e+000  0.000000e+000  0.000000e+000
    endloop
  endfacet
  facet normal  0.000000e+000  0.000000e+000 -1.000000e+000
    outer loop
      vertex  2.656296e+000 -7.117524e-001  0.000000e+000
      vertex  2.000000e+000  0.000000e+000  0.000000e+000
      vertex  2.750000e+000  0.000000e+000  0.000000e+000
    endloop
  endfacet
  facet normal  0.000000e+000  0.000000e+000 -1.000000e+000
    outer loop
      vertex  2.750000e+000  0.000000e+000  0.000000e+000
      vertex  2.000000e+000  0.000000e+000  0.000000e+000
      vertex  1.902113e+000  6.180340e-001  0.000000e+000
    endloop
  endfacet
  facet normal  0.000000e+000  0.000000e+000 -1.000000e+000
    outer loop
      vertex  2.750000e+000  0.000000e+000  0.000000e+000
      vertex  1.902113e+000  6.180340e-001  0.000000e+000
      vertex  2.656296e+000  7.117524e-001  0.000000e+000
    endloop
  endfacet
  facet normal  -0.000000e+000  0.000000e+000 -1.000000e+000
    outer loop
      vertex  2.656296e+000  7.117524e-001  0.000000e+000
      vertex  1.902113e+000  6.180340e-001  0.000000e+000
      vertex  1.618034e+000  1.175570e+000  0.000000e+000
    endloop
  endfacet
  facet normal  0.000000e+000  0.000000e+000 -1.000000e+000
    outer loop
      vertex  2.656296e+000  7.117524e-001  0.000000e+000
      vertex  1.618034e+000  1.175570e+000  0.000000e+000
      vertex  2.381570e+000  1.375000e+000  0.000000e+000
    endloop
  endfacet
  facet normal  0.000000e+000  0.000000e+000 -9.999999e-001
    outer loop
      vertex  1.944544e+000 -1.944544e+000  0.000000e+000
      vertex  1.375000e+000 -2.381570e+000  0.000000e+000
      vertex  6.180340e-001 -1.902113e+000  0.000000e+000
    endloop
  endfacet
  facet normal  0.000000e+000  -0.000000e+000 -1.000000e+000
    outer loop
      vertex  6.180340e-001 -1.902113e+000  0.000000e+000
      vertex  1.375000e+000 -2.381570e+000  0.000000e+000
      vertex -3.673940e-016 -2.000000e+000  0.000000e+000
    endloop
  endfacet
  facet normal  0.000000e+000  0.000000e+000 -9.999999e-001
    outer loop
      vertex  1.375000e+000 -2.381570e+000  0.000000e+000
      vertex  7.117524e-001 -2.656296e+000  0.000000e+000
      vertex -3.673940e-016 -2.000000e+000  0.000000e+000
    endloop
  endfacet
  facet normal  0.000000e+000  -0.000000e+000 -1.000000e+000
    outer loop
      vertex -3.673940e-016 -2.000000e+000  0.000000e+000
      vertex  7.117524e-001 -2.656296e+000  0.000000e+000
      vertex -2.947658e-015 -2.750000e+000  0.000000e+000
    endloop
  endfacet
  facet normal  -0.000000e+000  0.000000e+000  1.000000e+000
    outer loop
      vertex  7.790116e-016  2.750000e+000  2.000000e+001
      vertex -7.117524e-001  2.656296e+000  2.000000e+001
      vertex  1.224647e-016  2.000000e+000  2.000000e+001
    endloop
  endfacet
  facet normal  0.000000e+000  0.000000e+000  9.999999e-001
    outer loop
      vertex  1.224647e-016  2.000000e+000  2.000000e+001
      vertex -7.117524e-001  2.656296e+000  2.000000e+001
      vertex -1.375000e+000  2.381570e+000  2.000000e+001
    endloop
  endfacet
  facet normal  0.000000e+000  0.000000e+000  1.000000e+000
    outer loop
      vertex  1.224647e-016  2.000000e+000  2.000000e+001
      vertex -1.375000e+000  2.381570e+000  2.000000e+001
      vertex -6.180340e-001  1.902113e+000  2.000000e+001
    endloop
  endfacet
  facet normal  0.000000e+000  0.000000e+000  1.000000e+000
    outer loop
      vertex -6.180340e-001  1.902113e+000  2.000000e+001
      vertex -1.375000e+000  2.381570e+000  2.000000e+001
      vertex -1.944544e+000  1.944544e+000  2.000000e+001
    endloop
  endfacet
  facet normal  0.000000e+000  0.000000e+000  9.999999e-001
    outer loop
      vertex -6.180340e-001  1.902113e+000  2.000000e+001
      vertex -1.944544e+000  1.944544e+000  2.000000e+001
      vertex -1.175570e+000  1.618034e+000  2.000000e+001
    endloop
  endfacet
  facet normal  0.000000e+000  0.000000e+000  1.000000e+000
    outer loop
      vertex -1.175570e+000  1.618034e+000  2.000000e+001
      vertex -1.944544e+000  1.944544e+000  2.000000e+001
      vertex -2.381570e+000  1.375000e+000  2.000000e+001
    endloop
  endfacet
  facet normal  -0.000000e+000  0.000000e+000  1.000000e+000
    outer loop
      vertex -1.175570e+000  1.618034e+000  2.000000e+001
      vertex -2.381570e+000  1.375000e+000  2.000000e+001
      vertex -1.618034e+000  1.175570e+000  2.000000e+001
    endloop
  endfacet
  facet normal  0.000000e+000  0.000000e+000  1.000000e+000
    outer loop
      vertex -1.618034e+000  1.175570e+000  2.000000e+001
      vertex -2.381570e+000  1.375000e+000  2.000000e+001
      vertex -1.902113e+000  6.180340e-001  2.000000e+001
    endloop
  endfacet
  facet normal  0.000000e+000  0.000000e+000  1.000000e+000
    outer loop
      vertex -1.902113e+000  6.180340e-001  2.000000e+001
      vertex -2.381570e+000  1.375000e+000  2.000000e+001
      vertex -2.656296e+000  7.117524e-001  2.000000e+001
    endloop
  endfacet
  facet normal  0.000000e+000  0.000000e+000  1.000000e+000
    outer loop
      vertex -1.902113e+000  6.180340e-001  2.000000e+001
      vertex -2.656296e+000  7.117524e-001  2.000000e+001
      vertex -2.000000e+000  2.449294e-016  2.000000e+001
    endloop
  endfacet
  facet normal  0.000000e+000  0.000000e+000  1.000000e+000
    outer loop
      vertex -2.000000e+000  2.449294e-016  2.000000e+001
      vertex -2.656296e+000  7.117524e-001  2.000000e+001
      vertex -2.750000e+000  1.558023e-015  2.000000e+001
    endloop
  endfacet
  facet normal  0.000000e+000  0.000000e+000  1.000000e+000
    outer loop
      vertex -2.000000e+000  2.449294e-016  2.000000e+001
      vertex -2.750000e+000  1.558023e-015  2.000000e+001
      vertex -1.902113e+000 -6.180340e-001  2.000000e+001
    endloop
  endfacet
  facet normal  0.000000e+000  0.000000e+000  1.000000e+000
    outer loop
      vertex -1.902113e+000 -6.180340e-001  2.000000e+001
      vertex -2.750000e+000  1.558023e-015  2.000000e+001
      vertex -2.656296e+000 -7.117524e-001  2.000000e+001
    endloop
  endfacet
  facet normal  -0.000000e+000  0.000000e+000  1.000000e+000
    outer loop
      vertex -1.902113e+000 -6.180340e-001  2.000000e+001
      vertex -2.656296e+000 -7.117524e-001  2.000000e+001
      vertex -1.618034e+000 -1.175570e+000  2.000000e+001
    endloop
  endfacet
  facet normal  0.000000e+000  0.000000e+000  1.000000e+000
    outer loop
      vertex -1.618034e+000 -1.175570e+000  2.000000e+001
      vertex -2.656296e+000 -7.117524e-001  2.000000e+001
      vertex -2.381570e+000 -1.375000e+000  2.000000e+001
    endloop
  endfacet
  facet normal  -0.000000e+000  0.000000e+000  1.000000e+000
    outer loop
      vertex -1.618034e+000 -1.175570e+000  2.000000e+001
      vertex -2.381570e+000 -1.375000e+000  2.000000e+001
      vertex -1.175570e+000 -1.618034e+000  2.000000e+001
    endloop
  endfacet
  facet normal  0.000000e+000  0.000000e+000  1.000000e+000
    outer loop
      vertex -1.175570e+000 -1.618034e+000  2.000000e+001
      vertex -2.381570e+000 -1.375000e+000  2.000000e+001
      vertex -1.944544e+000 -1.944544e+000  2.000000e+001
    endloop
  endfacet
  facet normal  0.000000e+000  0.000000e+000  9.999999e-001
    outer loop
      vertex -1.175570e+000 -1.618034e+000  2.000000e+001
      vertex -1.944544e+000 -1.944544e+000  2.000000e+001
      vertex -6.180340e-001 -1.902113e+000  2.000000e+001
    endloop
  endfacet
  facet normal  -0.000000e+000  0.000000e+000  1.000000e+000
    outer loop
      vertex -6.180340e-001 -1.902113e+000  2.000000e+001
      vertex -1.944544e+000 -1.944544e+000  2.000000e+001
      vertex -3.673940e-016 -2.000000e+000  2.000000e+001
    endloop
  endfacet
  facet normal  0.000000e+000  0.000000e+000  1.000000e+000
    outer loop
      vertex -3.673940e-016 -2.000000e+000  2.000000e+001
      vertex -1.944544e+000 -1.944544e+000  2.000000e+001
      vertex -1.375000e+000 -2.381570e+000  2.000000e+001
    endloop
  endfacet
  facet normal  -0.000000e+000  0.000000e+000  1.000000e+000
    outer loop
      vertex -3.673940e-016 -2.000000e+000  2.000000e+001
      vertex -1.375000e+000 -2.381570e+000  2.000000e+001
      vertex -2.947658e-015 -2.750000e+000  2.000000e+001
    endloop
  endfacet
  facet normal  0.000000e+000  0.000000e+000  1.000000e+000
    outer loop
      vertex -2.947658e-015 -2.750000e+000  2.000000e+001
      vertex -1.375000e+000 -2.381570e+000  2.000000e+001
      vertex -7.117524e-001 -2.656296e+000  2.000000e+001
    endloop
  endfacet
  facet normal  0.000000e+000  0.000000e+000  1.000000e+000
    outer loop
      vertex  7.117524e-001  2.656296e+000  2.000000e+001
      vertex  7.790116e-016  2.750000e+000  2.000000e+001
      vertex  1.375000e+000  2.381570e+000  2.000000e+001
    endloop
  endfacet
  facet normal  0.000000e+000  0.000000e+000  1.000000e+000
    outer loop
      vertex  1.375000e+000  2.381570e+000  2.000000e+001
      vertex  7.790116e-016  2.750000e+000  2.000000e+001
      vertex  1.224647e-016  2.000000e+000  2.000000e+001
    endloop
  endfacet
  facet normal  -0.000000e+000  0.000000e+000  1.000000e+000
    outer loop
      vertex  1.375000e+000  2.381570e+000  2.000000e+001
      vertex  1.224647e-016  2.000000e+000  2.000000e+001
      vertex  1.944544e+000  1.944544e+000  2.000000e+001
    endloop
  endfacet
  facet normal  0.000000e+000  0.000000e+000  1.000000e+000
    outer loop
      vertex  1.944544e+000  1.944544e+000  2.000000e+001
      vertex  1.224647e-016  2.000000e+000  2.000000e+001
      vertex  6.180340e-001  1.902113e+000  2.000000e+001
    endloop
  endfacet
  facet normal  -0.000000e+000  0.000000e+000  1.000000e+000
    outer loop
      vertex  1.944544e+000  1.944544e+000  2.000000e+001
      vertex  6.180340e-001  1.902113e+000  2.000000e+001
      vertex  2.381570e+000  1.375000e+000  2.000000e+001
    endloop
  endfacet
  facet normal  0.000000e+000  0.000000e+000  1.000000e+000
    outer loop
      vertex  2.381570e+000  1.375000e+000  2.000000e+001
      vertex  6.180340e-001  1.902113e+000  2.000000e+001
      vertex  1.175570e+000  1.618034e+000  2.000000e+001
    endloop
  endfacet
  facet normal  0.000000e+000  0.000000e+000  1.000000e+000
    outer loop
      vertex  2.381570e+000  1.375000e+000  2.000000e+001
      vertex  1.175570e+000  1.618034e+000  2.000000e+001
      vertex  1.618034e+000  1.175570e+000  2.000000e+001
    endloop
  endfacet
  facet normal  -0.000000e+000  0.000000e+000  1.000000e+000
    outer loop
      vertex  2.381570e+000  1.375000e+000  2.000000e+001
      vertex  1.618034e+000  1.175570e+000  2.000000e+001
      vertex  2.656296e+000  7.117524e-001  2.000000e+001
    endloop
  endfacet
  facet normal  0.000000e+000  0.000000e+000  1.000000e+000
    outer loop
      vertex  2.656296e+000  7.117524e-001  2.000000e+001
      vertex  1.618034e+000  1.175570e+000  2.000000e+001
      vertex  1.902113e+000  6.180340e-001  2.000000e+001
    endloop
  endfacet
  facet normal  -0.000000e+000  0.000000e+000  1.000000e+000
    outer loop
      vertex  2.656296e+000  7.117524e-001  2.000000e+001
      vertex  1.902113e+000  6.180340e-001  2.000000e+001
      vertex  2.750000e+000  0.000000e+000  2.000000e+001
    endloop
  endfacet
  facet normal  0.000000e+000  0.000000e+000  1.000000e+000
    outer loop
      vertex  2.750000e+000  0.000000e+000  2.000000e+001
      vertex  1.902113e+000  6.180340e-001  2.000000e+001
      vertex  2.000000e+000  0.000000e+000  2.000000e+001
    endloop
  endfacet
  facet normal  -0.000000e+000  0.000000e+000  1.000000e+000
    outer loop
      vertex  2.750000e+000  0.000000e+000  2.000000e+001
      vertex  2.000000e+000  0.000000e+000  2.000000e+001
      vertex  2.656296e+000 -7.117524e-001  2.000000e+001
    endloop
  endfacet
  facet normal  0.000000e+000  0.000000e+000  1.000000e+000
    outer loop
      vertex  2.656296e+000 -7.117524e-001  2.000000e+001
      vertex  2.000000e+000  0.000000e+000  2.000000e+001
      vertex  1.902113e+000 -6.180340e-001  2.000000e+001
    endloop
  endfacet
  facet normal  0.000000e+000  0.000000e+000  1.000000e+000
    outer loop
      vertex  2.656296e+000 -7.117524e-001  2.000000e+001
      vertex  1.902113e+000 -6.180340e-001  2.000000e+001
      vertex  2.381570e+000 -1.375000e+000  2.000000e+001
    endloop
  endfacet
  facet normal  0.000000e+000  0.000000e+000  1.000000e+000
    outer loop
      vertex  2.381570e+000 -1.375000e+000  2.000000e+001
      vertex  1.902113e+000 -6.180340e-001  2.000000e+001
      vertex  1.618034e+000 -1.175570e+000  2.000000e+001
    endloop
  endfacet
  facet normal  0.000000e+000  0.000000e+000  1.000000e+000
    outer loop
      vertex  2.381570e+000 -1.375000e+000  2.000000e+001
      vertex  1.618034e+000 -1.175570e+000  2.000000e+001
      vertex  1.944544e+000 -1.944544e+000  2.000000e+001
    endloop
  endfacet
  facet normal  0.000000e+000  0.000000e+000  1.000000e+000
    outer loop
      vertex  1.944544e+000 -1.944544e+000  2.000000e+001
      vertex  1.618034e+000 -1.175570e+000  2.000000e+001
      vertex  1.175570e+000 -1.618034e+000  2.000000e+001
    endloop
  endfacet
  facet normal  0.000000e+000  0.000000e+000  9.999999e-001
    outer loop
      vertex  1.944544e+000 -1.944544e+000  2.000000e+001
      vertex  1.175570e+000 -1.618034e+000  2.000000e+001
      vertex  6.180340e-001 -1.902113e+000  2.000000e+001
    endloop
  endfacet
  facet normal  0.000000e+000  0.000000e+000  1.000000e+000
    outer loop
      vertex  1.944544e+000 -1.944544e+000  2.000000e+001
      vertex  6.180340e-001 -1.902113e+000  2.000000e+001
      vertex  1.375000e+000 -2.381570e+000  2.000000e+001
    endloop
  endfacet
  facet normal  0.000000e+000  0.000000e+000  1.000000e+000
    outer loop
      vertex  1.375000e+000 -2.381570e+000  2.000000e+001
      vertex  6.180340e-001 -1.902113e+000  2.000000e+001
      vertex -3.673940e-016 -2.000000e+000  2.000000e+001
    endloop
  endfacet
  facet normal  0.000000e+000  0.000000e+000  9.999999e-001
    outer loop
      vertex  1.375000e+000 -2.381570e+000  2.000000e+001
      vertex -3.673940e-016 -2.000000e+000  2.000000e+001
      vertex  7.117524e-001 -2.656296e+000  2.000000e+001
    endloop
  endfacet
  facet normal  0.000000e+000  0.000000e+000  1.000000e+000
    outer loop
      vertex  7.117524e-001 -2.656296e+000  2.000000e+001
      vertex -3.673940e-016 -2.000000e+000  2.000000e+001
      vertex -2.947658e-015 -2.750000e+000  2.000000e+001
    endloop
  endfacet
  facet normal  1.564344e-001 -9.876884e-001  0.000000e+000
    outer loop
      vertex  1.224647e-016  2.000000e+000  0.000000e+000
      vertex -6.180340e-001  1.902113e+000  2.000000e+001
      vertex -6.180340e-001  1.902113e+000  0.000000e+000
    endloop
  endfacet
  facet normal  4.539905e-001 -8.910065e-001  0.000000e+000
    outer loop
      vertex -6.180340e-001  1.902113e+000  0.000000e+000
      vertex -6.180340e-001  1.902113e+000  2.000000e+001
      vertex -1.175570e+000  1.618034e+000  2.000000e+001
    endloop
  endfacet
  facet normal  4.539905e-001 -8.910065e-001  0.000000e+000
    outer loop
      vertex -6.180340e-001  1.902113e+000  0.000000e+000
      vertex -1.175570e+000  1.618034e+000  2.000000e+001
      vertex -1.175570e+000  1.618034e+000  0.000000e+000
    endloop
  endfacet
  facet normal  7.071068e-001 -7.071068e-001  0.000000e+000
    outer loop
      vertex -1.175570e+000  1.618034e+000  0.000000e+000
      vertex -1.175570e+000  1.618034e+000  2.000000e+001
      vertex -1.618034e+000  1.175570e+000  2.000000e+001
    endloop
  endfacet
  facet normal  7.071068e-001 -7.071068e-001  0.000000e+000
    outer loop
      vertex -1.175570e+000  1.618034e+000  0.000000e+000
      vertex -1.618034e+000  1.175570e+000  2.000000e+001
      vertex -1.618034e+000  1.175570e+000  0.000000e+000
    endloop
  endfacet
  facet normal  8.910065e-001 -4.539905e-001  0.000000e+000
    outer loop
      vertex -1.618034e+000  1.175570e+000  0.000000e+000
      vertex -1.618034e+000  1.175570e+000  2.000000e+001
      vertex -1.902113e+000  6.180340e-001  2.000000e+001
    endloop
  endfacet
  facet normal  8.910065e-001 -4.539905e-001  0.000000e+000
    outer loop
      vertex -1.618034e+000  1.175570e+000  0.000000e+000
      vertex -1.902113e+000  6.180340e-001  2.000000e+001
      vertex -1.902113e+000  6.180340e-001  0.000000e+000
    endloop
  endfacet
  facet normal  9.876884e-001 -1.564344e-001  0.000000e+000
    outer loop
      vertex -1.902113e+000  6.180340e-001  0.000000e+000
      vertex -1.902113e+000  6.180340e-001  2.000000e+001
      vertex -2.000000e+000  2.449294e-016  2.000000e+001
    endloop
  endfacet
  facet normal  9.876884e-001 -1.564344e-001  0.000000e+000
    outer loop
      vertex -1.902113e+000  6.180340e-001  0.000000e+000
      vertex -2.000000e+000  2.449294e-016  2.000000e+001
      vertex -2.000000e+000  2.449294e-016  0.000000e+000
    endloop
  endfacet
  facet normal  1.564344e-001 -9.876884e-001  0.000000e+000
    outer loop
      vertex -6.180340e-001  1.902113e+000  2.000000e+001
      vertex  1.224647e-016  2.000000e+000  0.000000e+000
      vertex  1.224647e-016  2.000000e+000  2.000000e+001
    endloop
  endfacet
  facet normal -1.564344e-001 -9.876884e-001  -0.000000e+000
    outer loop
      vertex  1.224647e-016  2.000000e+000  2.000000e+001
      vertex  1.224647e-016  2.000000e+000  0.000000e+000
      vertex  6.180340e-001  1.902113e+000  0.000000e+000
    endloop
  endfacet
  facet normal -1.564344e-001 -9.876884e-001  0.000000e+000
    outer loop
      vertex  1.224647e-016  2.000000e+000  2.000000e+001
      vertex  6.180340e-001  1.902113e+000  0.000000e+000
      vertex  6.180340e-001  1.902113e+000  2.000000e+001
    endloop
  endfacet
  facet normal -4.539905e-001 -8.910065e-001  -0.000000e+000
    outer loop
      vertex  6.180340e-001  1.902113e+000  2.000000e+001
      vertex  6.180340e-001  1.902113e+000  0.000000e+000
      vertex  1.175570e+000  1.618034e+000  0.000000e+000
    endloop
  endfacet
  facet normal -4.539905e-001 -8.910065e-001  0.000000e+000
    outer loop
      vertex  6.180340e-001  1.902113e+000  2.000000e+001
      vertex  1.175570e+000  1.618034e+000  0.000000e+000
      vertex  1.175570e+000  1.618034e+000  2.000000e+001
    endloop
  endfacet
  facet normal -7.071068e-001 -7.071068e-001  -0.000000e+000
    outer loop
      vertex  1.175570e+000  1.618034e+000  2.000000e+001
      vertex  1.175570e+000  1.618034e+000  0.000000e+000
      vertex  1.618034e+000  1.175570e+000  0.000000e+000
    endloop
  endfacet
  facet normal -7.071068e-001 -7.071068e-001  0.000000e+000
    outer loop
      vertex  1.175570e+000  1.618034e+000  2.000000e+001
      vertex  1.618034e+000  1.175570e+000  0.000000e+000
      vertex  1.618034e+000  1.175570e+000  2.000000e+001
    endloop
  endfacet
  facet normal -8.910065e-001 -4.539905e-001  -0.000000e+000
    outer loop
      vertex  1.618034e+000  1.175570e+000  2.000000e+001
      vertex  1.618034e+000  1.175570e+000  0.000000e+000
      vertex  1.902113e+000  6.180340e-001  0.000000e+000
    endloop
  endfacet
  facet normal -8.910065e-001 -4.539905e-001  0.000000e+000
    outer loop
      vertex  1.618034e+000  1.175570e+000  2.000000e+001
      vertex  1.902113e+000  6.180340e-001  0.000000e+000
      vertex  1.902113e+000  6.180340e-001  2.000000e+001
    endloop
  endfacet
  facet normal -9.876884e-001 -1.564344e-001  -0.000000e+000
    outer loop
      vertex  1.902113e+000  6.180340e-001  2.000000e+001
      vertex  1.902113e+000  6.180340e-001  0.000000e+000
      vertex  2.000000e+000  0.000000e+000  0.000000e+000
    endloop
  endfacet
  facet normal -9.876884e-001 -1.564344e-001  0.000000e+000
    outer loop
      vertex  1.902113e+000  6.180340e-001  2.000000e+001
      vertex  2.000000e+000  0.000000e+000  0.000000e+000
      vertex  2.000000e+000  0.000000e+000  2.000000e+001
    endloop
  endfacet
  facet normal -1.564344e-001  9.876884e-001  0.000000e+000
    outer loop
      vertex -3.673940e-016 -2.000000e+000  0.000000e+000
      vertex  6.180340e-001 -1.902113e+000  2.000000e+001
      vertex  6.180340e-001 -1.902113e+000  0.000000e+000
    endloop
  endfacet
  facet normal -4.539905e-001  8.910065e-001  0.000000e+000
    outer loop
      vertex  6.180340e-001 -1.902113e+000  0.000000e+000
      vertex  6.180340e-001 -1.902113e+000  2.000000e+001
      vertex  1.175570e+000 -1.618034e+000  2.000000e+001
    endloop
  endfacet
  facet normal -4.539905e-001  8.910065e-001  0.000000e+000
    outer loop
      vertex  6.180340e-001 -1.902113e+000  0.000000e+000
      vertex  1.175570e+000 -1.618034e+000  2.000000e+001
      vertex  1.175570e+000 -1.618034e+000  0.000000e+000
    endloop
  endfacet
  facet normal -7.071068e-001  7.071068e-001  0.000000e+000
    outer loop
      vertex  1.175570e+000 -1.618034e+000  0.000000e+000
      vertex  1.175570e+000 -1.618034e+000  2.000000e+001
      vertex  1.618034e+000 -1.175570e+000  2.000000e+001
    endloop
  endfacet
  facet normal -7.071068e-001  7.071068e-001  0.000000e+000
    outer loop
      vertex  1.175570e+000 -1.618034e+000  0.000000e+000
      vertex  1.618034e+000 -1.175570e+000  2.000000e+001
      vertex  1.618034e+000 -1.175570e+000  0.000000e+000
    endloop
  endfacet
  facet normal -8.910065e-001  4.539905e-001  0.000000e+000
    outer loop
      vertex  1.618034e+000 -1.175570e+000  0.000000e+000
      vertex  1.618034e+000 -1.175570e+000  2.000000e+001
      vertex  1.902113e+000 -6.180340e-001  2.000000e+001
    endloop
  endfacet
  facet normal -8.910065e-001  4.539905e-001  0.000000e+000
    outer loop
      vertex  1.618034e+000 -1.175570e+000  0.000000e+000
      vertex  1.902113e+000 -6.180340e-001  2.000000e+001
      vertex  1.902113e+000 -6.180340e-001  0.000000e+000
    endloop
  endfacet
  facet normal -9.876884e-001  1.564344e-001  0.000000e+000
    outer loop
      vertex  1.902113e+000 -6.180340e-001  0.000000e+000
      vertex  1.902113e+000 -6.180340e-001  2.000000e+001
      vertex  2.000000e+000  0.000000e+000  2.000000e+001
    endloop
  endfacet
  facet normal -9.876884e-001  1.564344e-001  0.000000e+000
    outer loop
      vertex  1.902113e+000 -6.180340e-001  0.000000e+000
      vertex  2.000000e+000  0.000000e+000  2.000000e+001
      vertex  2.000000e+000  0.000000e+000  0.000000e+000
    endloop
  endfacet
  facet normal -1.564344e-001  9.876884e-001  0.000000e+000
    outer loop
      vertex  6.180340e-001 -1.902113e+000  2.000000e+001
      vertex -3.673940e-016 -2.000000e+000  0.000000e+000
      vertex -3.673940e-016 -2.000000e+000  2.000000e+001
    endloop
  endfacet
  facet normal  1.564344e-001  9.876884e-001  0.000000e+000
    outer loop
      vertex -3.673940e-016 -2.000000e+000  2.000000e+001
      vertex -3.673940e-016 -2.000000e+000  0.000000e+000
      vertex -6.180340e-001 -1.902113e+000  0.000000e+000
    endloop
  endfacet
  facet normal  1.564344e-001  9.876884e-001  -0.000000e+000
    outer loop
      vertex -3.673940e-016 -2.000000e+000  2.000000e+001
      vertex -6.180340e-001 -1.902113e+000  0.000000e+000
      vertex -6.180340e-001 -1.902113e+000  2.000000e+001
    endloop
  endfacet
  facet normal  4.539905e-001  8.910065e-001  0.000000e+000
    outer loop
      vertex -6.180340e-001 -1.902113e+000  2.000000e+001
      vertex -6.180340e-001 -1.902113e+000  0.000000e+000
      vertex -1.175570e+000 -1.618034e+000  0.000000e+000
    endloop
  endfacet
  facet normal  4.539905e-001  8.910065e-001  -0.000000e+000
    outer loop
      vertex -6.180340e-001 -1.902113e+000  2.000000e+001
      vertex -1.175570e+000 -1.618034e+000  0.000000e+000
      vertex -1.175570e+000 -1.618034e+000  2.000000e+001
    endloop
  endfacet
  facet normal  7.071068e-001  7.071068e-001  0.000000e+000
    outer loop
      vertex -1.175570e+000 -1.618034e+000  2.000000e+001
      vertex -1.175570e+000 -1.618034e+000  0.000000e+000
      vertex -1.618034e+000 -1.175570e+000  0.000000e+000
    endloop
  endfacet
  facet normal  7.071068e-001  7.071068e-001  -0.000000e+000
    outer loop
      vertex -1.175570e+000 -1.618034e+000  2.000000e+001
      vertex -1.618034e+000 -1.175570e+000  0.000000e+000
      vertex -1.618034e+000 -1.175570e+000  2.000000e+001
    endloop
  endfacet
  facet normal  8.910065e-001  4.539905e-001  0.000000e+000
    outer loop
      vertex -1.618034e+000 -1.175570e+000  2.000000e+001
      vertex -1.618034e+000 -1.175570e+000  0.000000e+000
      vertex -1.902113e+000 -6.180340e-001  0.000000e+000
    endloop
  endfacet
  facet normal  8.910065e-001  4.539905e-001  -0.000000e+000
    outer loop
      vertex -1.618034e+000 -1.175570e+000  2.000000e+001
      vertex -1.902113e+000 -6.180340e-001  0.000000e+000
      vertex -1.902113e+000 -6.180340e-001  2.000000e+001
    endloop
  endfacet
  facet normal  9.876884e-001  1.564344e-001  0.000000e+000
    outer loop
      vertex -1.902113e+000 -6.180340e-001  2.000000e+001
      vertex -1.902113e+000 -6.180340e-001  0.000000e+000
      vertex -2.000000e+000  2.449294e-016  0.000000e+000
    endloop
  endfacet
  facet normal  9.876884e-001  1.564344e-001  -0.000000e+000
    outer loop
      vertex -1.902113e+000 -6.180340e-001  2.000000e+001
      vertex -2.000000e+000  2.449294e-016  0.000000e+000
      vertex -2.000000e+000  2.449294e-016  2.000000e+001
    endloop
  endfacet
  facet normal  9.914449e-001 -1.305262e-001  0.000000e+000
    outer loop
      vertex  2.750000e+000  0.000000e+000  0.000000e+000
      vertex  2.750000e+000  0.000000e+000  2.000000e+001
      vertex  2.656296e+000 -7.117524e-001  0.000000e+000
    endloop
  endfacet
  facet normal  9.914449e-001 -1.305262e-001  0.000000e+000
    outer loop
      vertex  2.656296e+000 -7.117524e-001  0.000000e+000
      vertex  2.750000e+000  0.000000e+000  2.000000e+001
      vertex  2.656296e+000 -7.117524e-001  2.000000e+001
    endloop
  endfacet
  facet normal  9.238796e-001 -3.826834e-001  0.000000e+000
    outer loop
      vertex  2.656296e+000 -7.117524e-001  0.000000e+000
      vertex  2.656296e+000 -7.117524e-001  2.000000e+001
      vertex  2.381570e+000 -1.375000e+000  0.000000e+000
    endloop
  endfacet
  facet normal  9.238796e-001 -3.826834e-001  0.000000e+000
    outer loop
      vertex  2.381570e+000 -1.375000e+000  0.000000e+000
      vertex  2.656296e+000 -7.117524e-001  2.000000e+001
      vertex  2.381570e+000 -1.375000e+000  2.000000e+001
    endloop
  endfacet
  facet normal  7.933533e-001 -6.087615e-001  0.000000e+000
    outer loop
      vertex  2.381570e+000 -1.375000e+000  0.000000e+000
      vertex  2.381570e+000 -1.375000e+000  2.000000e+001
      vertex  1.944544e+000 -1.944544e+000  0.000000e+000
    endloop
  endfacet
  facet normal  7.933533e-001 -6.087615e-001  0.000000e+000
    outer loop
      vertex  1.944544e+000 -1.944544e+000  0.000000e+000
      vertex  2.381570e+000 -1.375000e+000  2.000000e+001
      vertex  1.944544e+000 -1.944544e+000  2.000000e+001
    endloop
  endfacet
  facet normal  6.087615e-001 -7.933533e-001  0.000000e+000
    outer loop
      vertex  1.944544e+000 -1.944544e+000  0.000000e+000
      vertex  1.944544e+000 -1.944544e+000  2.000000e+001
      vertex  1.375000e+000 -2.381570e+000  0.000000e+000
    endloop
  endfacet
  facet normal  6.087615e-001 -7.933533e-001  0.000000e+000
    outer loop
      vertex  1.375000e+000 -2.381570e+000  0.000000e+000
      vertex  1.944544e+000 -1.944544e+000  2.000000e+001
      vertex  1.375000e+000 -2.381570e+000  2.000000e+001
    endloop
  endfacet
  facet normal  3.826834e-001 -9.238796e-001  0.000000e+000
    outer loop
      vertex  1.375000e+000 -2.381570e+000  0.000000e+000
      vertex  1.375000e+000 -2.381570e+000  2.000000e+001
      vertex  7.117524e-001 -2.656296e+000  0.000000e+000
    endloop
  endfacet
  facet normal  3.826834e-001 -9.238796e-001  0.000000e+000
    outer loop
      vertex  7.117524e-001 -2.656296e+000  0.000000e+000
      vertex  1.375000e+000 -2.381570e+000  2.000000e+001
      vertex  7.117524e-001 -2.656296e+000  2.000000e+001
    endloop
  endfacet
  facet normal  1.305262e-001 -9.914449e-001  0.000000e+000
    outer loop
      vertex  7.117524e-001 -2.656296e+000  0.000000e+000
      vertex  7.117524e-001 -2.656296e+000  2.000000e+001
      vertex -2.947658e-015 -2.750000e+000  0.000000e+000
    endloop
  endfacet
  facet normal  1.305262e-001 -9.914449e-001  0.000000e+000
    outer loop
      vertex -2.947658e-015 -2.750000e+000  0.000000e+000
      vertex  7.117524e-001 -2.656296e+000  2.000000e+001
      vertex -2.947658e-015 -2.750000e+000  2.000000e+001
    endloop
  endfacet
  facet normal -1.305262e-001 -9.914449e-001  -0.000000e+000
    outer loop
      vertex -2.947658e-015 -2.750000e+000  0.000000e+000
      vertex -2.947658e-015 -2.750000e+000  2.000000e+001
      vertex -7.117524e-001 -2.656296e+000  0.000000e+000
    endloop
  endfacet
  facet normal -1.305262e-001 -9.914449e-001  0.000000e+000
    outer loop
      vertex -7.117524e-001 -2.656296e+000  0.000000e+000
      vertex -2.947658e-015 -2.750000e+000  2.000000e+001
      vertex -7.117524e-001 -2.656296e+000  2.000000e+001
    endloop
  endfacet
  facet normal -3.826834e-001 -9.238796e-001  -0.000000e+000
    outer loop
      vertex -7.117524e-001 -2.656296e+000  0.000000e+000
      vertex -7.117524e-001 -2.656296e+000  2.000000e+001
      vertex -1.375000e+000 -2.381570e+000  0.000000e+000
    endloop
  endfacet
  facet normal -3.826834e-001 -9.238796e-001  0.000000e+000
    outer loop
      vertex -1.375000e+000 -2.381570e+000  0.000000e+000
      vertex -7.117524e-001 -2.656296e+000  2.000000e+001
      vertex -1.375000e+000 -2.381570e+000  2.000000e+001
    endloop
  endfacet
  facet normal -6.087615e-001 -7.933533e-001  -0.000000e+000
    outer loop
      vertex -1.375000e+000 -2.381570e+000  0.000000e+000
      vertex -1.375000e+000 -2.381570e+000  2.000000e+001
      vertex -1.944544e+000 -1.944544e+000  0.000000e+000
    endloop
  endfacet
  facet normal -6.087615e-001 -7.933533e-001  0.000000e+000
    outer loop
      vertex -1.944544e+000 -1.944544e+000  0.000000e+000
      vertex -1.375000e+000 -2.381570e+000  2.000000e+001
      vertex -1.944544e+000 -1.944544e+000  2.000000e+001
    endloop
  endfacet
  facet normal -7.933533e-001 -6.087615e-001  -0.000000e+000
    outer loop
      vertex -1.944544e+000 -1.944544e+000  0.000000e+000
      vertex -1.944544e+000 -1.944544e+000  2.000000e+001
      vertex -2.381570e+000 -1.375000e+000  0.000000e+000
    endloop
  endfacet
  facet normal -7.933533e-001 -6.087615e-001  0.000000e+000
    outer loop
      vertex -2.381570e+000 -1.375000e+000  0.000000e+000
      vertex -1.944544e+000 -1.944544e+000  2.000000e+001
      vertex -2.381570e+000 -1.375000e+000  2.000000e+001
    endloop
  endfacet
  facet normal -9.238796e-001 -3.826834e-001  -0.000000e+000
    outer loop
      vertex -2.381570e+000 -1.375000e+000  0.000000e+000
      vertex -2.381570e+000 -1.375000e+000  2.000000e+001
      vertex -2.656296e+000 -7.117524e-001  0.000000e+000
    endloop
  endfacet
  facet normal -9.238796e-001 -3.826834e-001  0.000000e+000
    outer loop
      vertex -2.656296e+000 -7.117524e-001  0.000000e+000
      vertex -2.381570e+000 -1.375000e+000  2.000000e+001
      vertex -2.656296e+000 -7.117524e-001  2.000000e+001
    endloop
  endfacet
  facet normal -9.914449e-001 -1.305262e-001  -0.000000e+000
    outer loop
      vertex -2.656296e+000 -7.117524e-001  0.000000e+000
      vertex -2.656296e+000 -7.117524e-001  2.000000e+001
      vertex -2.750000e+000  1.558023e-015  0.000000e+000
    endloop
  endfacet
  facet normal -9.914449e-001 -1.305262e-001  0.000000e+000
    outer loop
      vertex -2.750000e+000  1.558023e-015  0.000000e+000
      vertex -2.656296e+000 -7.117524e-001  2.000000e+001
      vertex -2.750000e+000  1.558023e-015  2.000000e+001
    endloop
  endfacet
  facet normal -9.914449e-001  1.305262e-001  0.000000e+000
    outer loop
      vertex -2.750000e+000  1.558023e-015  0.000000e+000
      vertex -2.750000e+000  1.558023e-015  2.000000e+001
      vertex -2.656296e+000  7.117524e-001  0.000000e+000
    endloop
  endfacet
  facet normal -9.914449e-001  1.305262e-001  0.000000e+000
    outer loop
      vertex -2.656296e+000  7.117524e-001  0.000000e+000
      vertex -2.750000e+000  1.558023e-015  2.000000e+001
      vertex -2.656296e+000  7.117524e-001  2.000000e+001
    endloop
  endfacet
  facet normal -9.238796e-001  3.826834e-001  0.000000e+000
    outer loop
      vertex -2.656296e+000  7.117524e-001  0.000000e+000
      vertex -2.656296e+000  7.117524e-001  2.000000e+001
      vertex -2.381570e+000  1.375000e+000  0.000000e+000
    endloop
  endfacet
  facet normal -9.238796e-001  3.826834e-001  0.000000e+000
    outer loop
      vertex -2.381570e+000  1.375000e+000  0.000000e+000
      vertex -2.656296e+000  7.117524e-001  2.000000e+001
      vertex -2.381570e+000  1.375000e+000  2.000000e+001
    endloop
  endfacet
  facet normal -7.933533e-001  6.087615e-001  0.000000e+000
    outer loop
      vertex -2.381570e+000  1.375000e+000  0.000000e+000
      vertex -2.381570e+000  1.375000e+000  2.000000e+001
      vertex -1.944544e+000  1.944544e+000  0.000000e+000
    endloop
  endfacet
  facet normal -7.933533e-001  6.087615e-001  0.000000e+000
    outer loop
      vertex -1.944544e+000  1.944544e+000  0.000000e+000
      vertex -2.381570e+000  1.375000e+000  2.000000e+001
      vertex -1.944544e+000  1.944544e+000  2.000000e+001
    endloop
  endfacet
  facet normal -6.087615e-001  7.933533e-001  0.000000e+000
    outer loop
      vertex -1.944544e+000  1.944544e+000  0.000000e+000
      vertex -1.944544e+000  1.944544e+000  2.000000e+001
      vertex -1.375000e+000  2.381570e+000  0.000000e+000
    endloop
  endfacet
  facet normal -6.087615e-001  7.933533e-001  0.000000e+000
    outer loop
      vertex -1.375000e+000  2.381570e+000  0.000000e+000
      vertex -1.944544e+000  1.944544e+000  2.000000e+001
      vertex -1.375000e+000  2.381570e+000  2.000000e+001
    endloop
  endfacet
  facet normal -3.826834e-001  9.238796e-001  0.000000e+000
    outer loop
      vertex -1.375000e+000  2.381570e+000  0.000000e+000
      vertex -1.375000e+000  2.381570e+000  2.000000e+001
      vertex -7.117524e-001  2.656296e+000  0.000000e+000
    endloop
  endfacet
  facet normal -3.826834e-001  9.238796e-001  0.000000e+000
    outer loop
      vertex -7.117524e-001  2.656296e+000  0.000000e+000
      vertex -1.375000e+000  2.381570e+000  2.000000e+001
      vertex -7.117524e-001  2.656296e+000  2.000000e+001
    endloop
  endfacet
  facet normal -1.305262e-001  9.914449e-001  0.000000e+000
    outer loop
      vertex -7.117524e-001  2.656296e+000  0.000000e+000
      vertex -7.117524e-001  2.656296e+000  2.000000e+001
      vertex  7.790116e-016  2.750000e+000  0.000000e+000
    endloop
  endfacet
  facet normal -1.305262e-001  9.914449e-001  0.000000e+000
    outer loop
      vertex  7.790116e-016  2.750000e+000  0.000000e+000
      vertex -7.117524e-001  2.656296e+000  2.000000e+001
      vertex  7.790116e-016  2.750000e+000  2.000000e+001
    endloop
  endfacet
  facet normal  1.305262e-001  9.914449e-001  0.000000e+000
    outer loop
      vertex  7.790116e-016  2.750000e+000  0.000000e+000
      vertex  7.790116e-016  2.750000e+000  2.000000e+001
      vertex  7.117524e-001  2.656296e+000  0.000000e+000
    endloop
  endfacet
  facet normal  1.305262e-001  9.914449e-001  -0.000000e+000
    outer loop
      vertex  7.117524e-001  2.656296e+000  0.000000e+000
      vertex  7.790116e-016  2.750000e+000  2.000000e+001
      vertex  7.117524e-001  2.656296e+000  2.000000e+001
    endloop
  endfacet
  facet normal  3.826834e-001  9.238796e-001  0.000000e+000
    outer loop
      vertex  7.117524e-001  2.656296e+000  0.000000e+000
      vertex  7.117524e-001  2.656296e+000  2.000000e+001
      vertex  1.375000e+000  2.381570e+000  0.000000e+000
    endloop
  endfacet
  facet normal  3.826834e-001  9.238796e-001  -0.000000e+000
    outer loop
      vertex  1.375000e+000  2.381570e+000  0.000000e+000
      vertex  7.117524e-001  2.656296e+000  2.000000e+001
      vertex  1.375000e+000  2.381570e+000  2.000000e+001
    endloop
  endfacet
  facet normal  6.087615e-001  7.933533e-001  0.000000e+000
    outer loop
      vertex  1.375000e+000  2.381570e+000  0.000000e+000
      vertex  1.375000e+000  2.381570e+000  2.000000e+001
      vertex  1.944544e+000  1.944544e+000  0.000000e+000
    endloop
  endfacet
  facet normal  6.087615e-001  7.933533e-001  -0.000000e+000
    outer loop
      vertex  1.944544e+000  1.944544e+000  0.000000e+000
      vertex  1.375000e+000  2.381570e+000  2.000000e+001
      vertex  1.944544e+000  1.944544e+000  2.000000e+001
    endloop
  endfacet
  facet normal  7.933533e-001  6.087615e-001  0.000000e+000
    outer loop
      vertex  1.944544e+000  1.944544e+000  0.000000e+000
      vertex  1.944544e+000  1.944544e+000  2.000000e+001
      vertex  2.381570e+000  1.375000e+000  0.000000e+000
    endloop
  endfacet
  facet normal  7.933533e-001  6.087615e-001  -0.000000e+000
    outer loop
      vertex  2.381570e+000  1.375000e+000  0.000000e+000
      vertex  1.944544e+000  1.944544e+000  2.000000e+001
      vertex  2.381570e+000  1.375000e+000  2.000000e+001
    endloop
  endfacet
  facet normal  9.238796e-001  3.826834e-001  0.000000e+000
    outer loop
      vertex  2.381570e+000  1.375000e+000  0.000000e+000
      vertex  2.381570e+000  1.375000e+000  2.000000e+001
      vertex  2.656296e+000  7.117524e-001  0.000000e+000
    endloop
  endfacet
  facet normal  9.238796e-001  3.826834e-001  -0.000000e+000
    outer loop
      vertex  2.656296e+000  7.117524e-001  0.000000e+000
      vertex  2.381570e+000  1.375000e+000  2.000000e+001
      vertex  2.656296e+000  7.117524e-001  2.000000e+001
    endloop
  endfacet
  facet normal  9.914449e-001  1.305262e-001  0.000000e+000
    outer loop
      vertex  2.656296e+000  7.117524e-001  0.000000e+000
      vertex  2.656296e+000  7.117524e-001  2.000000e+001
      vertex  2.750000e+000  0.000000e+000  0.000000e+000
    endloop
  endfacet
  facet normal  9.914449e-001  1.305262e-001  -0.000000e+000
    outer loop
      vertex  2.750000e+000  0.000000e+000  0.000000e+000
      vertex  2.656296e+000  7.117524e-001  2.000000e+001
      vertex  2.750000e+000  0.000000e+000  2.000000e+001
    endloop
  endfacet
endsolid CATIA STL
