solid CATIA STL
  facet normal  0.000000e+000  9.999999e-001  0.000000e+000
    outer loop
      vertex  1.000000e+001 -5.292590e+000 -7.527526e+001
      vertex  6.409539e+000 -5.292590e+000 -8.478829e+001
      vertex  6.500000e+000 -5.292590e+000 -8.427526e+001
    endloop
  endfacet
  facet normal  0.000000e+000  9.999999e-001  -0.000000e+000
    outer loop
      vertex  1.000000e+001 -5.292590e+000 -7.527526e+001
      vertex  6.500000e+000 -5.292590e+000 -8.427526e+001
      vertex  6.409539e+000 -5.292590e+000 -8.376223e+001
    endloop
  endfacet
  facet normal  0.000000e+000  9.999999e-001  -0.000000e+000
    outer loop
      vertex  1.000000e+001 -5.292590e+000 -7.527526e+001
      vertex  6.409539e+000 -5.292590e+000 -8.376223e+001
      vertex  6.149066e+000 -5.292590e+000 -8.331108e+001
    endloop
  endfacet
  facet normal  0.000000e+000  1.000000e+000  -0.000000e+000
    outer loop
      vertex  1.000000e+001 -5.292590e+000 -7.527526e+001
      vertex  6.149066e+000 -5.292590e+000 -8.331108e+001
      vertex  5.750000e+000 -5.292590e+000 -8.297622e+001
    endloop
  endfacet
  facet normal  0.000000e+000  1.000000e+000  -0.000000e+000
    outer loop
      vertex  1.000000e+001 -5.292590e+000 -7.527526e+001
      vertex  5.750000e+000 -5.292590e+000 -8.297622e+001
      vertex  5.260472e+000 -5.292590e+000 -8.279805e+001
    endloop
  endfacet
  facet normal  0.000000e+000  1.000000e+000  -0.000000e+000
    outer loop
      vertex  1.000000e+001 -5.292590e+000 -7.527526e+001
      vertex  5.260472e+000 -5.292590e+000 -8.279805e+001
      vertex  4.739528e+000 -5.292590e+000 -8.279805e+001
    endloop
  endfacet
  facet normal  0.000000e+000  1.000000e+000  -0.000000e+000
    outer loop
      vertex  1.000000e+001 -5.292590e+000 -7.527526e+001
      vertex  4.739528e+000 -5.292590e+000 -8.279805e+001
      vertex  0.000000e+000 -5.292590e+000 -7.527526e+001
    endloop
  endfacet
  facet normal  0.000000e+000  9.999999e-001  0.000000e+000
    outer loop
      vertex  1.000000e+001 -5.292590e+000 -8.927526e+001
      vertex  0.000000e+000 -5.292590e+000 -8.927526e+001
      vertex  4.739528e+000 -5.292590e+000 -8.575247e+001
    endloop
  endfacet
  facet normal  -0.000000e+000  1.000000e+000  0.000000e+000
    outer loop
      vertex  1.000000e+001 -5.292590e+000 -8.927526e+001
      vertex  4.739528e+000 -5.292590e+000 -8.575247e+001
      vertex  5.260472e+000 -5.292590e+000 -8.575247e+001
    endloop
  endfacet
  facet normal  -0.000000e+000  1.000000e+000  0.000000e+000
    outer loop
      vertex  1.000000e+001 -5.292590e+000 -8.927526e+001
      vertex  5.260472e+000 -5.292590e+000 -8.575247e+001
      vertex  5.750000e+000 -5.292590e+000 -8.557430e+001
    endloop
  endfacet
  facet normal  -0.000000e+000  1.000000e+000  0.000000e+000
    outer loop
      vertex  1.000000e+001 -5.292590e+000 -8.927526e+001
      vertex  5.750000e+000 -5.292590e+000 -8.557430e+001
      vertex  6.149066e+000 -5.292590e+000 -8.523944e+001
    endloop
  endfacet
  facet normal  -0.000000e+000  1.000000e+000  0.000000e+000
    outer loop
      vertex  1.000000e+001 -5.292590e+000 -8.927526e+001
      vertex  6.149066e+000 -5.292590e+000 -8.523944e+001
      vertex  6.409539e+000 -5.292590e+000 -8.478829e+001
    endloop
  endfacet
  facet normal  -0.000000e+000  9.999999e-001  0.000000e+000
    outer loop
      vertex  1.000000e+001 -5.292590e+000 -8.927526e+001
      vertex  6.409539e+000 -5.292590e+000 -8.478829e+001
      vertex  1.000000e+001 -5.292590e+000 -7.527526e+001
    endloop
  endfacet
  facet normal  0.000000e+000  1.000000e+000  0.000000e+000
    outer loop
      vertex  0.000000e+000 -5.292590e+000 -7.527526e+001
      vertex  4.739528e+000 -5.292590e+000 -8.279805e+001
      vertex  4.250000e+000 -5.292590e+000 -8.297622e+001
    endloop
  endfacet
  facet normal  0.000000e+000  1.000000e+000  0.000000e+000
    outer loop
      vertex  0.000000e+000 -5.292590e+000 -7.527526e+001
      vertex  4.250000e+000 -5.292590e+000 -8.297622e+001
      vertex  3.850933e+000 -5.292590e+000 -8.331108e+001
    endloop
  endfacet
  facet normal  0.000000e+000  9.999999e-001  0.000000e+000
    outer loop
      vertex  0.000000e+000 -5.292590e+000 -7.527526e+001
      vertex  3.850933e+000 -5.292590e+000 -8.331108e+001
      vertex  3.590461e+000 -5.292590e+000 -8.376223e+001
    endloop
  endfacet
  facet normal  0.000000e+000  1.000000e+000  0.000000e+000
    outer loop
      vertex  0.000000e+000 -5.292590e+000 -7.527526e+001
      vertex  3.590461e+000 -5.292590e+000 -8.376223e+001
      vertex  3.500000e+000 -5.292590e+000 -8.427526e+001
    endloop
  endfacet
  facet normal  0.000000e+000  1.000000e+000  0.000000e+000
    outer loop
      vertex  0.000000e+000 -5.292590e+000 -7.527526e+001
      vertex  3.500000e+000 -5.292590e+000 -8.427526e+001
      vertex  3.590461e+000 -5.292590e+000 -8.478829e+001
    endloop
  endfacet
  facet normal  0.000000e+000  1.000000e+000  0.000000e+000
    outer loop
      vertex  0.000000e+000 -5.292590e+000 -8.927526e+001
      vertex  0.000000e+000 -5.292590e+000 -7.527526e+001
      vertex  3.590461e+000 -5.292590e+000 -8.478829e+001
    endloop
  endfacet
  facet normal  0.000000e+000  1.000000e+000  0.000000e+000
    outer loop
      vertex  0.000000e+000 -5.292590e+000 -8.927526e+001
      vertex  3.590461e+000 -5.292590e+000 -8.478829e+001
      vertex  3.850933e+000 -5.292590e+000 -8.523944e+001
    endloop
  endfacet
  facet normal  0.000000e+000  1.000000e+000  0.000000e+000
    outer loop
      vertex  0.000000e+000 -5.292590e+000 -8.927526e+001
      vertex  3.850933e+000 -5.292590e+000 -8.523944e+001
      vertex  4.250000e+000 -5.292590e+000 -8.557430e+001
    endloop
  endfacet
  facet normal  0.000000e+000  1.000000e+000  0.000000e+000
    outer loop
      vertex  0.000000e+000 -5.292590e+000 -8.927526e+001
      vertex  4.250000e+000 -5.292590e+000 -8.557430e+001
      vertex  4.739528e+000 -5.292590e+000 -8.575247e+001
    endloop
  endfacet
  facet normal  0.000000e+000  9.999999e-001  0.000000e+000
    outer loop
      vertex  1.000000e+001  1.430741e+001 -8.927526e+001
      vertex  0.000000e+000  1.430741e+001 -8.927526e+001
      vertex  5.260472e+000  1.430741e+001 -8.575247e+001
    endloop
  endfacet
  facet normal  -0.000000e+000  1.000000e+000  0.000000e+000
    outer loop
      vertex  1.000000e+001  1.430741e+001 -8.927526e+001
      vertex  5.260472e+000  1.430741e+001 -8.575247e+001
      vertex  5.750000e+000  1.430741e+001 -8.557430e+001
    endloop
  endfacet
  facet normal  -0.000000e+000  1.000000e+000  0.000000e+000
    outer loop
      vertex  1.000000e+001  1.430741e+001 -8.927526e+001
      vertex  5.750000e+000  1.430741e+001 -8.557430e+001
      vertex  6.149066e+000  1.430741e+001 -8.523944e+001
    endloop
  endfacet
  facet normal  -0.000000e+000  1.000000e+000  0.000000e+000
    outer loop
      vertex  1.000000e+001  1.430741e+001 -8.927526e+001
      vertex  6.149066e+000  1.430741e+001 -8.523944e+001
      vertex  6.409539e+000  1.430741e+001 -8.478829e+001
    endloop
  endfacet
  facet normal  -0.000000e+000  1.000000e+000  0.000000e+000
    outer loop
      vertex  1.000000e+001  1.430741e+001 -8.927526e+001
      vertex  6.409539e+000  1.430741e+001 -8.478829e+001
      vertex  6.500000e+000  1.430741e+001 -8.427526e+001
    endloop
  endfacet
  facet normal  -0.000000e+000  1.000000e+000  0.000000e+000
    outer loop
      vertex  1.000000e+001  1.430741e+001 -8.927526e+001
      vertex  6.500000e+000  1.430741e+001 -8.427526e+001
      vertex  1.000000e+001  1.430741e+001  1.572474e+001
    endloop
  endfacet
  facet normal  0.000000e+000  1.000000e+000  -0.000000e+000
    outer loop
      vertex  1.000000e+001  1.430741e+001  1.572474e+001
      vertex  6.500000e+000  1.430741e+001 -8.427526e+001
      vertex  6.409539e+000  1.430741e+001 -8.376223e+001
    endloop
  endfacet
  facet normal  0.000000e+000  1.000000e+000  -0.000000e+000
    outer loop
      vertex  1.000000e+001  1.430741e+001  1.572474e+001
      vertex  6.409539e+000  1.430741e+001 -8.376223e+001
      vertex  6.149066e+000  1.430741e+001 -8.331108e+001
    endloop
  endfacet
  facet normal  0.000000e+000  9.999999e-001  -0.000000e+000
    outer loop
      vertex  1.000000e+001  1.430741e+001  1.572474e+001
      vertex  6.149066e+000  1.430741e+001 -8.331108e+001
      vertex  5.750000e+000  1.430741e+001 -8.297622e+001
    endloop
  endfacet
  facet normal  0.000000e+000  1.000000e+000  -0.000000e+000
    outer loop
      vertex  1.000000e+001  1.430741e+001  1.572474e+001
      vertex  5.750000e+000  1.430741e+001 -8.297622e+001
      vertex  5.260472e+000  1.430741e+001 -8.279805e+001
    endloop
  endfacet
  facet normal  0.000000e+000  9.999999e-001  0.000000e+000
    outer loop
      vertex  1.000000e+001  1.430741e+001  1.572474e+001
      vertex  5.260472e+000  1.430741e+001 -8.279805e+001
      vertex  5.260472e+000  1.430741e+001  1.424753e+001
    endloop
  endfacet
  facet normal  0.000000e+000  9.999999e-001  0.000000e+000
    outer loop
      vertex  1.000000e+001  1.430741e+001  1.572474e+001
      vertex  5.260472e+000  1.430741e+001  1.424753e+001
      vertex  5.750000e+000  1.430741e+001  1.442570e+001
    endloop
  endfacet
  facet normal  0.000000e+000  1.000000e+000  0.000000e+000
    outer loop
      vertex  1.000000e+001  1.430741e+001  1.572474e+001
      vertex  5.750000e+000  1.430741e+001  1.442570e+001
      vertex  6.149066e+000  1.430741e+001  1.476056e+001
    endloop
  endfacet
  facet normal  0.000000e+000  9.999999e-001  0.000000e+000
    outer loop
      vertex  1.000000e+001  1.430741e+001  1.572474e+001
      vertex  6.149066e+000  1.430741e+001  1.476056e+001
      vertex  6.409539e+000  1.430741e+001  1.521171e+001
    endloop
  endfacet
  facet normal  0.000000e+000  9.999999e-001  0.000000e+000
    outer loop
      vertex  1.000000e+001  1.430741e+001  1.572474e+001
      vertex  6.409539e+000  1.430741e+001  1.521171e+001
      vertex  6.500000e+000  1.430741e+001  1.572474e+001
    endloop
  endfacet
  facet normal  0.000000e+000  9.999999e-001  0.000000e+000
    outer loop
      vertex  0.000000e+000  1.430741e+001  1.572474e+001
      vertex  3.500000e+000  1.430741e+001  1.572474e+001
      vertex  3.590461e+000  1.430741e+001  1.521171e+001
    endloop
  endfacet
  facet normal  0.000000e+000  1.000000e+000  0.000000e+000
    outer loop
      vertex  0.000000e+000  1.430741e+001  1.572474e+001
      vertex  3.590461e+000  1.430741e+001  1.521171e+001
      vertex  3.850933e+000  1.430741e+001  1.476056e+001
    endloop
  endfacet
  facet normal  0.000000e+000  1.000000e+000  0.000000e+000
    outer loop
      vertex  0.000000e+000  1.430741e+001  1.572474e+001
      vertex  3.850933e+000  1.430741e+001  1.476056e+001
      vertex  4.250000e+000  1.430741e+001  1.442570e+001
    endloop
  endfacet
  facet normal  0.000000e+000  9.999999e-001  0.000000e+000
    outer loop
      vertex  0.000000e+000  1.430741e+001  1.572474e+001
      vertex  4.250000e+000  1.430741e+001  1.442570e+001
      vertex  4.739528e+000  1.430741e+001  1.424753e+001
    endloop
  endfacet
  facet normal  0.000000e+000  9.999999e-001  0.000000e+000
    outer loop
      vertex  0.000000e+000  1.430741e+001  1.572474e+001
      vertex  4.739528e+000  1.430741e+001  1.424753e+001
      vertex  4.739528e+000  1.430741e+001 -8.279805e+001
    endloop
  endfacet
  facet normal  0.000000e+000  1.000000e+000  0.000000e+000
    outer loop
      vertex  0.000000e+000  1.430741e+001  1.572474e+001
      vertex  4.739528e+000  1.430741e+001 -8.279805e+001
      vertex  4.250000e+000  1.430741e+001 -8.297622e+001
    endloop
  endfacet
  facet normal  0.000000e+000  1.000000e+000  0.000000e+000
    outer loop
      vertex  0.000000e+000  1.430741e+001  1.572474e+001
      vertex  4.250000e+000  1.430741e+001 -8.297622e+001
      vertex  3.850933e+000  1.430741e+001 -8.331108e+001
    endloop
  endfacet
  facet normal  0.000000e+000  1.000000e+000  0.000000e+000
    outer loop
      vertex  0.000000e+000  1.430741e+001  1.572474e+001
      vertex  3.850933e+000  1.430741e+001 -8.331108e+001
      vertex  3.590461e+000  1.430741e+001 -8.376223e+001
    endloop
  endfacet
  facet normal  0.000000e+000  1.000000e+000  0.000000e+000
    outer loop
      vertex  0.000000e+000  1.430741e+001  1.572474e+001
      vertex  3.590461e+000  1.430741e+001 -8.376223e+001
      vertex  3.500000e+000  1.430741e+001 -8.427526e+001
    endloop
  endfacet
  facet normal  0.000000e+000  1.000000e+000  0.000000e+000
    outer loop
      vertex  0.000000e+000  1.430741e+001 -8.927526e+001
      vertex  0.000000e+000  1.430741e+001  1.572474e+001
      vertex  3.500000e+000  1.430741e+001 -8.427526e+001
    endloop
  endfacet
  facet normal  0.000000e+000  9.999999e-001  0.000000e+000
    outer loop
      vertex  0.000000e+000  1.430741e+001 -8.927526e+001
      vertex  3.500000e+000  1.430741e+001 -8.427526e+001
      vertex  3.590461e+000  1.430741e+001 -8.478829e+001
    endloop
  endfacet
  facet normal  0.000000e+000  1.000000e+000  0.000000e+000
    outer loop
      vertex  0.000000e+000  1.430741e+001 -8.927526e+001
      vertex  3.590461e+000  1.430741e+001 -8.478829e+001
      vertex  3.850933e+000  1.430741e+001 -8.523944e+001
    endloop
  endfacet
  facet normal  0.000000e+000  1.000000e+000  0.000000e+000
    outer loop
      vertex  0.000000e+000  1.430741e+001 -8.927526e+001
      vertex  3.850933e+000  1.430741e+001 -8.523944e+001
      vertex  4.250000e+000  1.430741e+001 -8.557430e+001
    endloop
  endfacet
  facet normal  0.000000e+000  1.000000e+000  0.000000e+000
    outer loop
      vertex  0.000000e+000  1.430741e+001 -8.927526e+001
      vertex  4.250000e+000  1.430741e+001 -8.557430e+001
      vertex  4.739528e+000  1.430741e+001 -8.575247e+001
    endloop
  endfacet
  facet normal  -0.000000e+000  1.000000e+000  0.000000e+000
    outer loop
      vertex  0.000000e+000  1.430741e+001 -8.927526e+001
      vertex  4.739528e+000  1.430741e+001 -8.575247e+001
      vertex  5.260472e+000  1.430741e+001 -8.575247e+001
    endloop
  endfacet
  facet normal  0.000000e+000  1.000000e+000  0.000000e+000
    outer loop
      vertex  4.739528e+000  1.430741e+001  1.424753e+001
      vertex  5.260472e+000  1.430741e+001  1.424753e+001
      vertex  4.739528e+000  1.430741e+001 -8.279805e+001
    endloop
  endfacet
  facet normal  0.000000e+000  1.000000e+000  0.000000e+000
    outer loop
      vertex  4.739528e+000  1.430741e+001 -8.279805e+001
      vertex  5.260472e+000  1.430741e+001  1.424753e+001
      vertex  5.260472e+000  1.430741e+001 -8.279805e+001
    endloop
  endfacet
  facet normal  0.000000e+000 -1.000000e+000  0.000000e+000
    outer loop
      vertex  5.750000e+000 -1.069259e+001 -8.297622e+001
      vertex  6.149066e+000 -1.069259e+001 -8.331108e+001
      vertex  5.260472e+000 -1.069259e+001  1.424753e+001
    endloop
  endfacet
  facet normal  -0.000000e+000 -1.000000e+000  0.000000e+000
    outer loop
      vertex  4.250000e+000 -1.069259e+001 -8.297622e+001
      vertex  4.739528e+000 -1.069259e+001 -8.279805e+001
      vertex  4.739528e+000 -1.069259e+001  1.424753e+001
    endloop
  endfacet
  facet normal  -0.000000e+000 -9.999999e-001  0.000000e+000
    outer loop
      vertex  3.850933e+000 -1.069259e+001 -8.331108e+001
      vertex  4.250000e+000 -1.069259e+001 -8.297622e+001
      vertex  4.739528e+000 -1.069259e+001  1.424753e+001
    endloop
  endfacet
  facet normal  0.000000e+000 -9.999999e-001  0.000000e+000
    outer loop
      vertex  0.000000e+000 -1.069259e+001 -8.927526e+001
      vertex  1.000000e+001 -1.069259e+001 -8.927526e+001
      vertex  5.260472e+000 -1.069259e+001 -8.575247e+001
    endloop
  endfacet
  facet normal  -0.000000e+000 -1.000000e+000  0.000000e+000
    outer loop
      vertex  0.000000e+000 -1.069259e+001 -8.927526e+001
      vertex  5.260472e+000 -1.069259e+001 -8.575247e+001
      vertex  4.739528e+000 -1.069259e+001 -8.575247e+001
    endloop
  endfacet
  facet normal  -0.000000e+000 -1.000000e+000  0.000000e+000
    outer loop
      vertex  0.000000e+000 -1.069259e+001 -8.927526e+001
      vertex  4.739528e+000 -1.069259e+001 -8.575247e+001
      vertex  4.250000e+000 -1.069259e+001 -8.557430e+001
    endloop
  endfacet
  facet normal  -0.000000e+000 -1.000000e+000  0.000000e+000
    outer loop
      vertex  0.000000e+000 -1.069259e+001 -8.927526e+001
      vertex  4.250000e+000 -1.069259e+001 -8.557430e+001
      vertex  3.850933e+000 -1.069259e+001 -8.523944e+001
    endloop
  endfacet
  facet normal  -0.000000e+000 -1.000000e+000  0.000000e+000
    outer loop
      vertex  0.000000e+000 -1.069259e+001 -8.927526e+001
      vertex  3.850933e+000 -1.069259e+001 -8.523944e+001
      vertex  3.590461e+000 -1.069259e+001 -8.478829e+001
    endloop
  endfacet
  facet normal  -0.000000e+000 -9.999999e-001  0.000000e+000
    outer loop
      vertex  0.000000e+000 -1.069259e+001 -8.927526e+001
      vertex  3.590461e+000 -1.069259e+001 -8.478829e+001
      vertex  3.500000e+000 -1.069259e+001 -8.427526e+001
    endloop
  endfacet
  facet normal  -0.000000e+000 -1.000000e+000  0.000000e+000
    outer loop
      vertex  0.000000e+000 -1.069259e+001 -8.927526e+001
      vertex  3.500000e+000 -1.069259e+001 -8.427526e+001
      vertex  3.590461e+000 -1.069259e+001 -8.376223e+001
    endloop
  endfacet
  facet normal  -0.000000e+000 -1.000000e+000  0.000000e+000
    outer loop
      vertex  0.000000e+000 -1.069259e+001 -8.927526e+001
      vertex  3.590461e+000 -1.069259e+001 -8.376223e+001
      vertex  3.850933e+000 -1.069259e+001 -8.331108e+001
    endloop
  endfacet
  facet normal  -0.000000e+000 -1.000000e+000  0.000000e+000
    outer loop
      vertex  0.000000e+000 -1.069259e+001 -8.927526e+001
      vertex  3.850933e+000 -1.069259e+001 -8.331108e+001
      vertex  4.739528e+000 -1.069259e+001  1.424753e+001
    endloop
  endfacet
  facet normal  -0.000000e+000 -1.000000e+000  0.000000e+000
    outer loop
      vertex  0.000000e+000 -1.069259e+001 -8.927526e+001
      vertex  4.739528e+000 -1.069259e+001  1.424753e+001
      vertex  4.250000e+000 -1.069259e+001  1.442570e+001
    endloop
  endfacet
  facet normal  -0.000000e+000 -1.000000e+000  0.000000e+000
    outer loop
      vertex  0.000000e+000 -1.069259e+001 -8.927526e+001
      vertex  4.250000e+000 -1.069259e+001  1.442570e+001
      vertex  3.850933e+000 -1.069259e+001  1.476056e+001
    endloop
  endfacet
  facet normal  -0.000000e+000 -1.000000e+000  0.000000e+000
    outer loop
      vertex  0.000000e+000 -1.069259e+001 -8.927526e+001
      vertex  3.850933e+000 -1.069259e+001  1.476056e+001
      vertex  3.590461e+000 -1.069259e+001  1.521171e+001
    endloop
  endfacet
  facet normal  -0.000000e+000 -9.999999e-001  0.000000e+000
    outer loop
      vertex  0.000000e+000 -1.069259e+001 -8.927526e+001
      vertex  3.590461e+000 -1.069259e+001  1.521171e+001
      vertex  3.500000e+000 -1.069259e+001  1.572474e+001
    endloop
  endfacet
  facet normal  -0.000000e+000 -1.000000e+000  0.000000e+000
    outer loop
      vertex  0.000000e+000 -1.069259e+001 -8.927526e+001
      vertex  3.500000e+000 -1.069259e+001  1.572474e+001
      vertex  0.000000e+000 -1.069259e+001  1.572474e+001
    endloop
  endfacet
  facet normal  -0.000000e+000 -1.000000e+000  -0.000000e+000
    outer loop
      vertex  1.000000e+001 -1.069259e+001 -8.927526e+001
      vertex  1.000000e+001 -1.069259e+001  1.572474e+001
      vertex  6.500000e+000 -1.069259e+001  1.572474e+001
    endloop
  endfacet
  facet normal  0.000000e+000 -1.000000e+000  -0.000000e+000
    outer loop
      vertex  1.000000e+001 -1.069259e+001 -8.927526e+001
      vertex  6.500000e+000 -1.069259e+001  1.572474e+001
      vertex  6.409539e+000 -1.069259e+001  1.521171e+001
    endloop
  endfacet
  facet normal  0.000000e+000 -1.000000e+000  -0.000000e+000
    outer loop
      vertex  1.000000e+001 -1.069259e+001 -8.927526e+001
      vertex  6.409539e+000 -1.069259e+001  1.521171e+001
      vertex  6.149066e+000 -1.069259e+001  1.476056e+001
    endloop
  endfacet
  facet normal  0.000000e+000 -1.000000e+000  -0.000000e+000
    outer loop
      vertex  1.000000e+001 -1.069259e+001 -8.927526e+001
      vertex  6.149066e+000 -1.069259e+001  1.476056e+001
      vertex  5.750000e+000 -1.069259e+001  1.442570e+001
    endloop
  endfacet
  facet normal  0.000000e+000 -1.000000e+000  -0.000000e+000
    outer loop
      vertex  1.000000e+001 -1.069259e+001 -8.927526e+001
      vertex  5.750000e+000 -1.069259e+001  1.442570e+001
      vertex  5.260472e+000 -1.069259e+001  1.424753e+001
    endloop
  endfacet
  facet normal  0.000000e+000 -1.000000e+000  0.000000e+000
    outer loop
      vertex  1.000000e+001 -1.069259e+001 -8.927526e+001
      vertex  5.260472e+000 -1.069259e+001  1.424753e+001
      vertex  6.149066e+000 -1.069259e+001 -8.331108e+001
    endloop
  endfacet
  facet normal  0.000000e+000 -1.000000e+000  0.000000e+000
    outer loop
      vertex  1.000000e+001 -1.069259e+001 -8.927526e+001
      vertex  6.149066e+000 -1.069259e+001 -8.331108e+001
      vertex  6.409539e+000 -1.069259e+001 -8.376223e+001
    endloop
  endfacet
  facet normal  0.000000e+000 -1.000000e+000  0.000000e+000
    outer loop
      vertex  1.000000e+001 -1.069259e+001 -8.927526e+001
      vertex  6.409539e+000 -1.069259e+001 -8.376223e+001
      vertex  6.500000e+000 -1.069259e+001 -8.427526e+001
    endloop
  endfacet
  facet normal  0.000000e+000 -1.000000e+000  -0.000000e+000
    outer loop
      vertex  1.000000e+001 -1.069259e+001 -8.927526e+001
      vertex  6.500000e+000 -1.069259e+001 -8.427526e+001
      vertex  6.409539e+000 -1.069259e+001 -8.478829e+001
    endloop
  endfacet
  facet normal  0.000000e+000 -1.000000e+000  -0.000000e+000
    outer loop
      vertex  1.000000e+001 -1.069259e+001 -8.927526e+001
      vertex  6.409539e+000 -1.069259e+001 -8.478829e+001
      vertex  6.149066e+000 -1.069259e+001 -8.523944e+001
    endloop
  endfacet
  facet normal  0.000000e+000 -1.000000e+000  -0.000000e+000
    outer loop
      vertex  1.000000e+001 -1.069259e+001 -8.927526e+001
      vertex  6.149066e+000 -1.069259e+001 -8.523944e+001
      vertex  5.750000e+000 -1.069259e+001 -8.557430e+001
    endloop
  endfacet
  facet normal  0.000000e+000 -1.000000e+000  -0.000000e+000
    outer loop
      vertex  1.000000e+001 -1.069259e+001 -8.927526e+001
      vertex  5.750000e+000 -1.069259e+001 -8.557430e+001
      vertex  5.260472e+000 -1.069259e+001 -8.575247e+001
    endloop
  endfacet
  facet normal  0.000000e+000 -1.000000e+000  0.000000e+000
    outer loop
      vertex  5.750000e+000 -1.069259e+001 -8.297622e+001
      vertex  5.260472e+000 -1.069259e+001  1.424753e+001
      vertex  5.260472e+000 -1.069259e+001 -8.279805e+001
    endloop
  endfacet
  facet normal  0.000000e+000 -1.000000e+000  0.000000e+000
    outer loop
      vertex  5.260472e+000 -1.069259e+001 -8.279805e+001
      vertex  5.260472e+000 -1.069259e+001  1.424753e+001
      vertex  4.739528e+000 -1.069259e+001  1.424753e+001
    endloop
  endfacet
  facet normal  0.000000e+000 -1.000000e+000  0.000000e+000
    outer loop
      vertex  5.260472e+000 -1.069259e+001 -8.279805e+001
      vertex  4.739528e+000 -1.069259e+001  1.424753e+001
      vertex  4.739528e+000 -1.069259e+001 -8.279805e+001
    endloop
  endfacet
  facet normal  0.000000e+000 -1.000000e+000  0.000000e+000
    outer loop
      vertex  1.000000e+001  9.707410e+000 -7.527526e+001
      vertex  0.000000e+000  9.707410e+000 -7.527526e+001
      vertex  3.850933e+000  9.707410e+000 -8.331108e+001
    endloop
  endfacet
  facet normal  0.000000e+000 -1.000000e+000  0.000000e+000
    outer loop
      vertex  1.000000e+001  9.707410e+000 -7.527526e+001
      vertex  3.850933e+000  9.707410e+000 -8.331108e+001
      vertex  4.250000e+000  9.707410e+000 -8.297622e+001
    endloop
  endfacet
  facet normal  0.000000e+000 -1.000000e+000  0.000000e+000
    outer loop
      vertex  1.000000e+001  9.707410e+000 -7.527526e+001
      vertex  4.250000e+000  9.707410e+000 -8.297622e+001
      vertex  4.739528e+000  9.707410e+000 -8.279805e+001
    endloop
  endfacet
  facet normal  0.000000e+000 -1.000000e+000  0.000000e+000
    outer loop
      vertex  1.000000e+001  9.707410e+000 -7.527526e+001
      vertex  4.739528e+000  9.707410e+000 -8.279805e+001
      vertex  5.260472e+000  9.707410e+000 -8.279805e+001
    endloop
  endfacet
  facet normal  0.000000e+000 -1.000000e+000  0.000000e+000
    outer loop
      vertex  1.000000e+001  9.707410e+000 -7.527526e+001
      vertex  5.260472e+000  9.707410e+000 -8.279805e+001
      vertex  5.750000e+000  9.707410e+000 -8.297622e+001
    endloop
  endfacet
  facet normal  0.000000e+000 -1.000000e+000  0.000000e+000
    outer loop
      vertex  1.000000e+001  9.707410e+000 -7.527526e+001
      vertex  5.750000e+000  9.707410e+000 -8.297622e+001
      vertex  6.149066e+000  9.707410e+000 -8.331108e+001
    endloop
  endfacet
  facet normal  0.000000e+000 -9.999999e-001  0.000000e+000
    outer loop
      vertex  1.000000e+001  9.707410e+000 -7.527526e+001
      vertex  6.149066e+000  9.707410e+000 -8.331108e+001
      vertex  1.000000e+001  9.707410e+000 -8.927526e+001
    endloop
  endfacet
  facet normal  0.000000e+000 -1.000000e+000  0.000000e+000
    outer loop
      vertex  1.000000e+001  9.707410e+000 -8.927526e+001
      vertex  6.149066e+000  9.707410e+000 -8.331108e+001
      vertex  6.409539e+000  9.707410e+000 -8.376223e+001
    endloop
  endfacet
  facet normal  0.000000e+000 -1.000000e+000  0.000000e+000
    outer loop
      vertex  1.000000e+001  9.707410e+000 -8.927526e+001
      vertex  6.409539e+000  9.707410e+000 -8.376223e+001
      vertex  6.500000e+000  9.707410e+000 -8.427526e+001
    endloop
  endfacet
  facet normal  0.000000e+000 -1.000000e+000  -0.000000e+000
    outer loop
      vertex  1.000000e+001  9.707410e+000 -8.927526e+001
      vertex  6.500000e+000  9.707410e+000 -8.427526e+001
      vertex  6.409539e+000  9.707410e+000 -8.478829e+001
    endloop
  endfacet
  facet normal  0.000000e+000 -1.000000e+000  -0.000000e+000
    outer loop
      vertex  1.000000e+001  9.707410e+000 -8.927526e+001
      vertex  6.409539e+000  9.707410e+000 -8.478829e+001
      vertex  6.149066e+000  9.707410e+000 -8.523944e+001
    endloop
  endfacet
  facet normal  0.000000e+000 -1.000000e+000  -0.000000e+000
    outer loop
      vertex  1.000000e+001  9.707410e+000 -8.927526e+001
      vertex  6.149066e+000  9.707410e+000 -8.523944e+001
      vertex  5.750000e+000  9.707410e+000 -8.557430e+001
    endloop
  endfacet
  facet normal  0.000000e+000 -1.000000e+000  -0.000000e+000
    outer loop
      vertex  1.000000e+001  9.707410e+000 -8.927526e+001
      vertex  5.750000e+000  9.707410e+000 -8.557430e+001
      vertex  5.260472e+000  9.707410e+000 -8.575247e+001
    endloop
  endfacet
  facet normal  -0.000000e+000 -1.000000e+000  -0.000000e+000
    outer loop
      vertex  1.000000e+001  9.707410e+000 -8.927526e+001
      vertex  5.260472e+000  9.707410e+000 -8.575247e+001
      vertex  4.739528e+000  9.707410e+000 -8.575247e+001
    endloop
  endfacet
  facet normal  0.000000e+000 -9.999999e-001  -0.000000e+000
    outer loop
      vertex  1.000000e+001  9.707410e+000 -8.927526e+001
      vertex  4.739528e+000  9.707410e+000 -8.575247e+001
      vertex  0.000000e+000  9.707410e+000 -8.927526e+001
    endloop
  endfacet
  facet normal  -0.000000e+000 -1.000000e+000  0.000000e+000
    outer loop
      vertex  0.000000e+000  9.707410e+000 -8.927526e+001
      vertex  4.739528e+000  9.707410e+000 -8.575247e+001
      vertex  4.250000e+000  9.707410e+000 -8.557430e+001
    endloop
  endfacet
  facet normal  -0.000000e+000 -1.000000e+000  0.000000e+000
    outer loop
      vertex  0.000000e+000  9.707410e+000 -8.927526e+001
      vertex  4.250000e+000  9.707410e+000 -8.557430e+001
      vertex  3.850933e+000  9.707410e+000 -8.523944e+001
    endloop
  endfacet
  facet normal  -0.000000e+000 -1.000000e+000  0.000000e+000
    outer loop
      vertex  0.000000e+000  9.707410e+000 -8.927526e+001
      vertex  3.850933e+000  9.707410e+000 -8.523944e+001
      vertex  3.590461e+000  9.707410e+000 -8.478829e+001
    endloop
  endfacet
  facet normal  -0.000000e+000 -9.999999e-001  0.000000e+000
    outer loop
      vertex  0.000000e+000  9.707410e+000 -8.927526e+001
      vertex  3.590461e+000  9.707410e+000 -8.478829e+001
      vertex  3.500000e+000  9.707410e+000 -8.427526e+001
    endloop
  endfacet
  facet normal  -0.000000e+000 -1.000000e+000  0.000000e+000
    outer loop
      vertex  0.000000e+000  9.707410e+000 -8.927526e+001
      vertex  3.500000e+000  9.707410e+000 -8.427526e+001
      vertex  3.590461e+000  9.707410e+000 -8.376223e+001
    endloop
  endfacet
  facet normal  -0.000000e+000 -1.000000e+000  0.000000e+000
    outer loop
      vertex  0.000000e+000  9.707410e+000 -8.927526e+001
      vertex  3.590461e+000  9.707410e+000 -8.376223e+001
      vertex  3.850933e+000  9.707410e+000 -8.331108e+001
    endloop
  endfacet
  facet normal  -0.000000e+000 -1.000000e+000  0.000000e+000
    outer loop
      vertex  0.000000e+000  9.707410e+000 -8.927526e+001
      vertex  3.850933e+000  9.707410e+000 -8.331108e+001
      vertex  0.000000e+000  9.707410e+000 -7.527526e+001
    endloop
  endfacet
  facet normal -3.420129e-001  -0.000000e+000 -9.396952e-001
    outer loop
      vertex  5.260472e+000  9.707410e+000 -8.279805e+001
      vertex  5.750000e+000  1.430741e+001 -8.297622e+001
      vertex  5.750000e+000  9.707410e+000 -8.297622e+001
    endloop
  endfacet
  facet normal -6.427935e-001  0.000000e+000 -7.660395e-001
    outer loop
      vertex  5.750000e+000  9.707410e+000 -8.297622e+001
      vertex  5.750000e+000  1.430741e+001 -8.297622e+001
      vertex  6.149066e+000  1.430741e+001 -8.331108e+001
    endloop
  endfacet
  facet normal -6.427935e-001  -0.000000e+000 -7.660395e-001
    outer loop
      vertex  5.750000e+000  9.707410e+000 -8.297622e+001
      vertex  6.149066e+000  1.430741e+001 -8.331108e+001
      vertex  6.149066e+000  9.707410e+000 -8.331108e+001
    endloop
  endfacet
  facet normal -8.660243e-001  0.000000e+000 -5.000018e-001
    outer loop
      vertex  6.149066e+000  9.707410e+000 -8.331108e+001
      vertex  6.149066e+000  1.430741e+001 -8.331108e+001
      vertex  6.409539e+000  1.430741e+001 -8.376223e+001
    endloop
  endfacet
  facet normal -8.660243e-001  -0.000000e+000 -5.000018e-001
    outer loop
      vertex  6.149066e+000  9.707410e+000 -8.331108e+001
      vertex  6.409539e+000  1.430741e+001 -8.376223e+001
      vertex  6.409539e+000  9.707410e+000 -8.376223e+001
    endloop
  endfacet
  facet normal -9.848077e-001  0.000000e+000 -1.736483e-001
    outer loop
      vertex  6.409539e+000  9.707410e+000 -8.376223e+001
      vertex  6.409539e+000  1.430741e+001 -8.376223e+001
      vertex  6.500000e+000  1.430741e+001 -8.427526e+001
    endloop
  endfacet
  facet normal -9.848077e-001  -0.000000e+000 -1.736483e-001
    outer loop
      vertex  6.409539e+000  9.707410e+000 -8.376223e+001
      vertex  6.500000e+000  1.430741e+001 -8.427526e+001
      vertex  6.500000e+000  9.707410e+000 -8.427526e+001
    endloop
  endfacet
  facet normal -3.420129e-001  0.000000e+000 -9.396952e-001
    outer loop
      vertex  5.750000e+000  1.430741e+001 -8.297622e+001
      vertex  5.260472e+000  9.707410e+000 -8.279805e+001
      vertex  5.260472e+000  1.430741e+001 -8.279805e+001
    endloop
  endfacet
  facet normal  0.000000e+000  -0.000000e+000 -1.000000e+000
    outer loop
      vertex  5.260472e+000  1.430741e+001 -8.279805e+001
      vertex  5.260472e+000  9.707410e+000 -8.279805e+001
      vertex  4.739528e+000  9.707410e+000 -8.279805e+001
    endloop
  endfacet
  facet normal  0.000000e+000  0.000000e+000 -1.000000e+000
    outer loop
      vertex  5.260472e+000  1.430741e+001 -8.279805e+001
      vertex  4.739528e+000  9.707410e+000 -8.279805e+001
      vertex  4.739528e+000  1.430741e+001 -8.279805e+001
    endloop
  endfacet
  facet normal  3.420129e-001  0.000000e+000 -9.396952e-001
    outer loop
      vertex  4.739528e+000  1.430741e+001 -8.279805e+001
      vertex  4.739528e+000  9.707410e+000 -8.279805e+001
      vertex  4.250000e+000  9.707410e+000 -8.297622e+001
    endloop
  endfacet
  facet normal  3.420129e-001  0.000000e+000 -9.396952e-001
    outer loop
      vertex  4.739528e+000  1.430741e+001 -8.279805e+001
      vertex  4.250000e+000  9.707410e+000 -8.297622e+001
      vertex  4.250000e+000  1.430741e+001 -8.297622e+001
    endloop
  endfacet
  facet normal  6.427932e-001  0.000000e+000 -7.660397e-001
    outer loop
      vertex  4.250000e+000  1.430741e+001 -8.297622e+001
      vertex  4.250000e+000  9.707410e+000 -8.297622e+001
      vertex  3.850933e+000  9.707410e+000 -8.331108e+001
    endloop
  endfacet
  facet normal  6.427932e-001  0.000000e+000 -7.660397e-001
    outer loop
      vertex  4.250000e+000  1.430741e+001 -8.297622e+001
      vertex  3.850933e+000  9.707410e+000 -8.331108e+001
      vertex  3.850933e+000  1.430741e+001 -8.331108e+001
    endloop
  endfacet
  facet normal  8.660243e-001  0.000000e+000 -5.000018e-001
    outer loop
      vertex  3.850933e+000  1.430741e+001 -8.331108e+001
      vertex  3.850933e+000  9.707410e+000 -8.331108e+001
      vertex  3.590461e+000  9.707410e+000 -8.376223e+001
    endloop
  endfacet
  facet normal  8.660243e-001  0.000000e+000 -5.000018e-001
    outer loop
      vertex  3.850933e+000  1.430741e+001 -8.331108e+001
      vertex  3.590461e+000  9.707410e+000 -8.376223e+001
      vertex  3.590461e+000  1.430741e+001 -8.376223e+001
    endloop
  endfacet
  facet normal  9.848078e-001  0.000000e+000 -1.736478e-001
    outer loop
      vertex  3.590461e+000  1.430741e+001 -8.376223e+001
      vertex  3.590461e+000  9.707410e+000 -8.376223e+001
      vertex  3.500000e+000  9.707410e+000 -8.427526e+001
    endloop
  endfacet
  facet normal  9.848078e-001  0.000000e+000 -1.736478e-001
    outer loop
      vertex  3.590461e+000  1.430741e+001 -8.376223e+001
      vertex  3.500000e+000  9.707410e+000 -8.427526e+001
      vertex  3.500000e+000  1.430741e+001 -8.427526e+001
    endloop
  endfacet
  facet normal -3.420129e-001  -0.000000e+000 -9.396952e-001
    outer loop
      vertex  5.260472e+000 -1.069259e+001 -8.279805e+001
      vertex  5.750000e+000 -5.292590e+000 -8.297622e+001
      vertex  5.750000e+000 -1.069259e+001 -8.297622e+001
    endloop
  endfacet
  facet normal -6.427935e-001  0.000000e+000 -7.660395e-001
    outer loop
      vertex  5.750000e+000 -1.069259e+001 -8.297622e+001
      vertex  5.750000e+000 -5.292590e+000 -8.297622e+001
      vertex  6.149066e+000 -5.292590e+000 -8.331108e+001
    endloop
  endfacet
  facet normal -6.427935e-001  -0.000000e+000 -7.660395e-001
    outer loop
      vertex  5.750000e+000 -1.069259e+001 -8.297622e+001
      vertex  6.149066e+000 -5.292590e+000 -8.331108e+001
      vertex  6.149066e+000 -1.069259e+001 -8.331108e+001
    endloop
  endfacet
  facet normal -8.660243e-001  0.000000e+000 -5.000018e-001
    outer loop
      vertex  6.149066e+000 -1.069259e+001 -8.331108e+001
      vertex  6.149066e+000 -5.292590e+000 -8.331108e+001
      vertex  6.409539e+000 -5.292590e+000 -8.376223e+001
    endloop
  endfacet
  facet normal -8.660243e-001  -0.000000e+000 -5.000018e-001
    outer loop
      vertex  6.149066e+000 -1.069259e+001 -8.331108e+001
      vertex  6.409539e+000 -5.292590e+000 -8.376223e+001
      vertex  6.409539e+000 -1.069259e+001 -8.376223e+001
    endloop
  endfacet
  facet normal -9.848077e-001  0.000000e+000 -1.736483e-001
    outer loop
      vertex  6.409539e+000 -1.069259e+001 -8.376223e+001
      vertex  6.409539e+000 -5.292590e+000 -8.376223e+001
      vertex  6.500000e+000 -5.292590e+000 -8.427526e+001
    endloop
  endfacet
  facet normal -9.848077e-001  -0.000000e+000 -1.736483e-001
    outer loop
      vertex  6.409539e+000 -1.069259e+001 -8.376223e+001
      vertex  6.500000e+000 -5.292590e+000 -8.427526e+001
      vertex  6.500000e+000 -1.069259e+001 -8.427526e+001
    endloop
  endfacet
  facet normal -3.420129e-001  0.000000e+000 -9.396952e-001
    outer loop
      vertex  5.750000e+000 -5.292590e+000 -8.297622e+001
      vertex  5.260472e+000 -1.069259e+001 -8.279805e+001
      vertex  5.260472e+000 -5.292590e+000 -8.279805e+001
    endloop
  endfacet
  facet normal  0.000000e+000  -0.000000e+000 -1.000000e+000
    outer loop
      vertex  5.260472e+000 -5.292590e+000 -8.279805e+001
      vertex  5.260472e+000 -1.069259e+001 -8.279805e+001
      vertex  4.739528e+000 -1.069259e+001 -8.279805e+001
    endloop
  endfacet
  facet normal  0.000000e+000  0.000000e+000 -1.000000e+000
    outer loop
      vertex  5.260472e+000 -5.292590e+000 -8.279805e+001
      vertex  4.739528e+000 -1.069259e+001 -8.279805e+001
      vertex  4.739528e+000 -5.292590e+000 -8.279805e+001
    endloop
  endfacet
  facet normal  3.420129e-001  0.000000e+000 -9.396952e-001
    outer loop
      vertex  4.739528e+000 -5.292590e+000 -8.279805e+001
      vertex  4.739528e+000 -1.069259e+001 -8.279805e+001
      vertex  4.250000e+000 -1.069259e+001 -8.297622e+001
    endloop
  endfacet
  facet normal  3.420129e-001  0.000000e+000 -9.396952e-001
    outer loop
      vertex  4.739528e+000 -5.292590e+000 -8.279805e+001
      vertex  4.250000e+000 -1.069259e+001 -8.297622e+001
      vertex  4.250000e+000 -5.292590e+000 -8.297622e+001
    endloop
  endfacet
  facet normal  6.427933e-001  0.000000e+000 -7.660397e-001
    outer loop
      vertex  4.250000e+000 -5.292590e+000 -8.297622e+001
      vertex  4.250000e+000 -1.069259e+001 -8.297622e+001
      vertex  3.850933e+000 -1.069259e+001 -8.331108e+001
    endloop
  endfacet
  facet normal  6.427933e-001  0.000000e+000 -7.660397e-001
    outer loop
      vertex  4.250000e+000 -5.292590e+000 -8.297622e+001
      vertex  3.850933e+000 -1.069259e+001 -8.331108e+001
      vertex  3.850933e+000 -5.292590e+000 -8.331108e+001
    endloop
  endfacet
  facet normal  8.660243e-001  0.000000e+000 -5.000018e-001
    outer loop
      vertex  3.850933e+000 -5.292590e+000 -8.331108e+001
      vertex  3.850933e+000 -1.069259e+001 -8.331108e+001
      vertex  3.590461e+000 -1.069259e+001 -8.376223e+001
    endloop
  endfacet
  facet normal  8.660243e-001  0.000000e+000 -5.000018e-001
    outer loop
      vertex  3.850933e+000 -5.292590e+000 -8.331108e+001
      vertex  3.590461e+000 -1.069259e+001 -8.376223e+001
      vertex  3.590461e+000 -5.292590e+000 -8.376223e+001
    endloop
  endfacet
  facet normal  9.848078e-001  0.000000e+000 -1.736478e-001
    outer loop
      vertex  3.590461e+000 -5.292590e+000 -8.376223e+001
      vertex  3.590461e+000 -1.069259e+001 -8.376223e+001
      vertex  3.500000e+000 -1.069259e+001 -8.427526e+001
    endloop
  endfacet
  facet normal  9.848078e-001  0.000000e+000 -1.736478e-001
    outer loop
      vertex  3.590461e+000 -5.292590e+000 -8.376223e+001
      vertex  3.500000e+000 -1.069259e+001 -8.427526e+001
      vertex  3.500000e+000 -5.292590e+000 -8.427526e+001
    endloop
  endfacet
  facet normal  3.420258e-001  0.000000e+000  9.396905e-001
    outer loop
      vertex  4.739528e+000  9.707410e+000 -8.575247e+001
      vertex  4.250000e+000  1.430741e+001 -8.557430e+001
      vertex  4.250000e+000  9.707410e+000 -8.557430e+001
    endloop
  endfacet
  facet normal  6.427847e-001  -0.000000e+000  7.660469e-001
    outer loop
      vertex  4.250000e+000  9.707410e+000 -8.557430e+001
      vertex  4.250000e+000  1.430741e+001 -8.557430e+001
      vertex  3.850933e+000  1.430741e+001 -8.523944e+001
    endloop
  endfacet
  facet normal  6.427847e-001  0.000000e+000  7.660469e-001
    outer loop
      vertex  4.250000e+000  9.707410e+000 -8.557430e+001
      vertex  3.850933e+000  1.430741e+001 -8.523944e+001
      vertex  3.850933e+000  9.707410e+000 -8.523944e+001
    endloop
  endfacet
  facet normal  8.660243e-001  -0.000000e+000  5.000018e-001
    outer loop
      vertex  3.850933e+000  9.707410e+000 -8.523944e+001
      vertex  3.850933e+000  1.430741e+001 -8.523944e+001
      vertex  3.590461e+000  1.430741e+001 -8.478829e+001
    endloop
  endfacet
  facet normal  8.660243e-001  0.000000e+000  5.000018e-001
    outer loop
      vertex  3.850933e+000  9.707410e+000 -8.523944e+001
      vertex  3.590461e+000  1.430741e+001 -8.478829e+001
      vertex  3.590461e+000  9.707410e+000 -8.478829e+001
    endloop
  endfacet
  facet normal  9.848078e-001  -0.000000e+000  1.736478e-001
    outer loop
      vertex  3.590461e+000  9.707410e+000 -8.478829e+001
      vertex  3.590461e+000  1.430741e+001 -8.478829e+001
      vertex  3.500000e+000  1.430741e+001 -8.427526e+001
    endloop
  endfacet
  facet normal  9.848078e-001  0.000000e+000  1.736478e-001
    outer loop
      vertex  3.590461e+000  9.707410e+000 -8.478829e+001
      vertex  3.500000e+000  1.430741e+001 -8.427526e+001
      vertex  3.500000e+000  9.707410e+000 -8.427526e+001
    endloop
  endfacet
  facet normal  3.420258e-001  -0.000000e+000  9.396905e-001
    outer loop
      vertex  4.250000e+000  1.430741e+001 -8.557430e+001
      vertex  4.739528e+000  9.707410e+000 -8.575247e+001
      vertex  4.739528e+000  1.430741e+001 -8.575247e+001
    endloop
  endfacet
  facet normal  0.000000e+000  0.000000e+000  1.000000e+000
    outer loop
      vertex  4.739528e+000  1.430741e+001 -8.575247e+001
      vertex  4.739528e+000  9.707410e+000 -8.575247e+001
      vertex  5.260472e+000  9.707410e+000 -8.575247e+001
    endloop
  endfacet
  facet normal  0.000000e+000  -0.000000e+000  1.000000e+000
    outer loop
      vertex  4.739528e+000  1.430741e+001 -8.575247e+001
      vertex  5.260472e+000  9.707410e+000 -8.575247e+001
      vertex  5.260472e+000  1.430741e+001 -8.575247e+001
    endloop
  endfacet
  facet normal -3.420258e-001  0.000000e+000  9.396905e-001
    outer loop
      vertex  5.260472e+000  1.430741e+001 -8.575247e+001
      vertex  5.260472e+000  9.707410e+000 -8.575247e+001
      vertex  5.750000e+000  9.707410e+000 -8.557430e+001
    endloop
  endfacet
  facet normal -3.420258e-001  0.000000e+000  9.396905e-001
    outer loop
      vertex  5.260472e+000  1.430741e+001 -8.575247e+001
      vertex  5.750000e+000  9.707410e+000 -8.557430e+001
      vertex  5.750000e+000  1.430741e+001 -8.557430e+001
    endloop
  endfacet
  facet normal -6.427850e-001  0.000000e+000  7.660467e-001
    outer loop
      vertex  5.750000e+000  1.430741e+001 -8.557430e+001
      vertex  5.750000e+000  9.707410e+000 -8.557430e+001
      vertex  6.149066e+000  9.707410e+000 -8.523944e+001
    endloop
  endfacet
  facet normal -6.427850e-001  0.000000e+000  7.660467e-001
    outer loop
      vertex  5.750000e+000  1.430741e+001 -8.557430e+001
      vertex  6.149066e+000  9.707410e+000 -8.523944e+001
      vertex  6.149066e+000  1.430741e+001 -8.523944e+001
    endloop
  endfacet
  facet normal -8.660243e-001  0.000000e+000  5.000018e-001
    outer loop
      vertex  6.149066e+000  1.430741e+001 -8.523944e+001
      vertex  6.149066e+000  9.707410e+000 -8.523944e+001
      vertex  6.409539e+000  9.707410e+000 -8.478829e+001
    endloop
  endfacet
  facet normal -8.660243e-001  0.000000e+000  5.000018e-001
    outer loop
      vertex  6.149066e+000  1.430741e+001 -8.523944e+001
      vertex  6.409539e+000  9.707410e+000 -8.478829e+001
      vertex  6.409539e+000  1.430741e+001 -8.478829e+001
    endloop
  endfacet
  facet normal -9.848077e-001  0.000000e+000  1.736483e-001
    outer loop
      vertex  6.409539e+000  1.430741e+001 -8.478829e+001
      vertex  6.409539e+000  9.707410e+000 -8.478829e+001
      vertex  6.500000e+000  9.707410e+000 -8.427526e+001
    endloop
  endfacet
  facet normal -9.848077e-001  0.000000e+000  1.736483e-001
    outer loop
      vertex  6.409539e+000  1.430741e+001 -8.478829e+001
      vertex  6.500000e+000  9.707410e+000 -8.427526e+001
      vertex  6.500000e+000  1.430741e+001 -8.427526e+001
    endloop
  endfacet
  facet normal  3.420258e-001  0.000000e+000  9.396905e-001
    outer loop
      vertex  4.739528e+000 -1.069259e+001 -8.575247e+001
      vertex  4.250000e+000 -5.292590e+000 -8.557430e+001
      vertex  4.250000e+000 -1.069259e+001 -8.557430e+001
    endloop
  endfacet
  facet normal  6.427847e-001  -0.000000e+000  7.660469e-001
    outer loop
      vertex  4.250000e+000 -1.069259e+001 -8.557430e+001
      vertex  4.250000e+000 -5.292590e+000 -8.557430e+001
      vertex  3.850933e+000 -5.292590e+000 -8.523944e+001
    endloop
  endfacet
  facet normal  6.427847e-001  0.000000e+000  7.660469e-001
    outer loop
      vertex  4.250000e+000 -1.069259e+001 -8.557430e+001
      vertex  3.850933e+000 -5.292590e+000 -8.523944e+001
      vertex  3.850933e+000 -1.069259e+001 -8.523944e+001
    endloop
  endfacet
  facet normal  8.660243e-001  -0.000000e+000  5.000018e-001
    outer loop
      vertex  3.850933e+000 -1.069259e+001 -8.523944e+001
      vertex  3.850933e+000 -5.292590e+000 -8.523944e+001
      vertex  3.590461e+000 -5.292590e+000 -8.478829e+001
    endloop
  endfacet
  facet normal  8.660243e-001  0.000000e+000  5.000018e-001
    outer loop
      vertex  3.850933e+000 -1.069259e+001 -8.523944e+001
      vertex  3.590461e+000 -5.292590e+000 -8.478829e+001
      vertex  3.590461e+000 -1.069259e+001 -8.478829e+001
    endloop
  endfacet
  facet normal  9.848078e-001  -0.000000e+000  1.736478e-001
    outer loop
      vertex  3.590461e+000 -1.069259e+001 -8.478829e+001
      vertex  3.590461e+000 -5.292590e+000 -8.478829e+001
      vertex  3.500000e+000 -5.292590e+000 -8.427526e+001
    endloop
  endfacet
  facet normal  9.848078e-001  0.000000e+000  1.736478e-001
    outer loop
      vertex  3.590461e+000 -1.069259e+001 -8.478829e+001
      vertex  3.500000e+000 -5.292590e+000 -8.427526e+001
      vertex  3.500000e+000 -1.069259e+001 -8.427526e+001
    endloop
  endfacet
  facet normal  3.420258e-001  -0.000000e+000  9.396905e-001
    outer loop
      vertex  4.250000e+000 -5.292590e+000 -8.557430e+001
      vertex  4.739528e+000 -1.069259e+001 -8.575247e+001
      vertex  4.739528e+000 -5.292590e+000 -8.575247e+001
    endloop
  endfacet
  facet normal  0.000000e+000  0.000000e+000  1.000000e+000
    outer loop
      vertex  4.739528e+000 -5.292590e+000 -8.575247e+001
      vertex  4.739528e+000 -1.069259e+001 -8.575247e+001
      vertex  5.260472e+000 -1.069259e+001 -8.575247e+001
    endloop
  endfacet
  facet normal  0.000000e+000  -0.000000e+000  1.000000e+000
    outer loop
      vertex  4.739528e+000 -5.292590e+000 -8.575247e+001
      vertex  5.260472e+000 -1.069259e+001 -8.575247e+001
      vertex  5.260472e+000 -5.292590e+000 -8.575247e+001
    endloop
  endfacet
  facet normal -3.420258e-001  0.000000e+000  9.396905e-001
    outer loop
      vertex  5.260472e+000 -5.292590e+000 -8.575247e+001
      vertex  5.260472e+000 -1.069259e+001 -8.575247e+001
      vertex  5.750000e+000 -1.069259e+001 -8.557430e+001
    endloop
  endfacet
  facet normal -3.420258e-001  0.000000e+000  9.396905e-001
    outer loop
      vertex  5.260472e+000 -5.292590e+000 -8.575247e+001
      vertex  5.750000e+000 -1.069259e+001 -8.557430e+001
      vertex  5.750000e+000 -5.292590e+000 -8.557430e+001
    endloop
  endfacet
  facet normal -6.427849e-001  0.000000e+000  7.660467e-001
    outer loop
      vertex  5.750000e+000 -5.292590e+000 -8.557430e+001
      vertex  5.750000e+000 -1.069259e+001 -8.557430e+001
      vertex  6.149066e+000 -1.069259e+001 -8.523944e+001
    endloop
  endfacet
  facet normal -6.427849e-001  0.000000e+000  7.660467e-001
    outer loop
      vertex  5.750000e+000 -5.292590e+000 -8.557430e+001
      vertex  6.149066e+000 -1.069259e+001 -8.523944e+001
      vertex  6.149066e+000 -5.292590e+000 -8.523944e+001
    endloop
  endfacet
  facet normal -8.660243e-001  0.000000e+000  5.000018e-001
    outer loop
      vertex  6.149066e+000 -5.292590e+000 -8.523944e+001
      vertex  6.149066e+000 -1.069259e+001 -8.523944e+001
      vertex  6.409539e+000 -1.069259e+001 -8.478829e+001
    endloop
  endfacet
  facet normal -8.660243e-001  0.000000e+000  5.000018e-001
    outer loop
      vertex  6.149066e+000 -5.292590e+000 -8.523944e+001
      vertex  6.409539e+000 -1.069259e+001 -8.478829e+001
      vertex  6.409539e+000 -5.292590e+000 -8.478829e+001
    endloop
  endfacet
  facet normal -9.848077e-001  0.000000e+000  1.736483e-001
    outer loop
      vertex  6.409539e+000 -5.292590e+000 -8.478829e+001
      vertex  6.409539e+000 -1.069259e+001 -8.478829e+001
      vertex  6.500000e+000 -1.069259e+001 -8.427526e+001
    endloop
  endfacet
  facet normal -9.848077e-001  0.000000e+000  1.736483e-001
    outer loop
      vertex  6.409539e+000 -5.292590e+000 -8.478829e+001
      vertex  6.500000e+000 -1.069259e+001 -8.427526e+001
      vertex  6.500000e+000 -5.292590e+000 -8.427526e+001
    endloop
  endfacet
  facet normal  0.000000e+000  0.000000e+000 -1.000000e+000
    outer loop
      vertex  1.000000e+001 -5.292590e+000 -8.927526e+001
      vertex  1.000000e+001 -1.069259e+001 -8.927526e+001
      vertex  0.000000e+000 -5.292590e+000 -8.927526e+001
    endloop
  endfacet
  facet normal  0.000000e+000  0.000000e+000 -1.000000e+000
    outer loop
      vertex  0.000000e+000 -5.292590e+000 -8.927526e+001
      vertex  1.000000e+001 -1.069259e+001 -8.927526e+001
      vertex  0.000000e+000 -1.069259e+001 -8.927526e+001
    endloop
  endfacet
  facet normal  0.000000e+000  0.000000e+000 -1.000000e+000
    outer loop
      vertex  1.000000e+001  1.430741e+001 -8.927526e+001
      vertex  1.000000e+001  9.707410e+000 -8.927526e+001
      vertex  0.000000e+000  1.430741e+001 -8.927526e+001
    endloop
  endfacet
  facet normal  0.000000e+000  0.000000e+000 -1.000000e+000
    outer loop
      vertex  0.000000e+000  1.430741e+001 -8.927526e+001
      vertex  1.000000e+001  9.707410e+000 -8.927526e+001
      vertex  0.000000e+000  9.707410e+000 -8.927526e+001
    endloop
  endfacet
  facet normal  1.000000e+000  0.000000e+000  0.000000e+000
    outer loop
      vertex  1.000000e+001  9.707410e+000 -8.927526e+001
      vertex  1.000000e+001  1.430741e+001 -8.927526e+001
      vertex  1.000000e+001  9.707410e+000 -7.527526e+001
    endloop
  endfacet
  facet normal  1.000000e+000  -0.000000e+000  0.000000e+000
    outer loop
      vertex  1.000000e+001  9.707410e+000 -7.527526e+001
      vertex  1.000000e+001  1.430741e+001 -8.927526e+001
      vertex  1.000000e+001  1.430741e+001  1.572474e+001
    endloop
  endfacet
  facet normal  1.000000e+000  0.000000e+000  0.000000e+000
    outer loop
      vertex  1.000000e+001  9.707410e+000 -7.527526e+001
      vertex  1.000000e+001  1.430741e+001  1.572474e+001
      vertex  1.000000e+001 -5.292590e+000 -7.527526e+001
    endloop
  endfacet
  facet normal  1.000000e+000  0.000000e+000  -0.000000e+000
    outer loop
      vertex  1.000000e+001 -5.292590e+000 -7.527526e+001
      vertex  1.000000e+001  1.430741e+001  1.572474e+001
      vertex  1.000000e+001 -1.069259e+001  1.572474e+001
    endloop
  endfacet
  facet normal  1.000000e+000  0.000000e+000  0.000000e+000
    outer loop
      vertex  1.000000e+001 -5.292590e+000 -7.527526e+001
      vertex  1.000000e+001 -1.069259e+001  1.572474e+001
      vertex  1.000000e+001 -5.292590e+000 -8.927526e+001
    endloop
  endfacet
  facet normal  9.999999e-001  0.000000e+000  0.000000e+000
    outer loop
      vertex  1.000000e+001 -5.292590e+000 -8.927526e+001
      vertex  1.000000e+001 -1.069259e+001  1.572474e+001
      vertex  1.000000e+001 -1.069259e+001 -8.927526e+001
    endloop
  endfacet
  facet normal -1.000000e+000  0.000000e+000  0.000000e+000
    outer loop
      vertex  0.000000e+000  9.707410e+000 -7.527526e+001
      vertex  0.000000e+000  1.430741e+001 -8.927526e+001
      vertex  0.000000e+000  9.707410e+000 -8.927526e+001
    endloop
  endfacet
  facet normal -1.000000e+000  0.000000e+000  0.000000e+000
    outer loop
      vertex  0.000000e+000  1.430741e+001 -8.927526e+001
      vertex  0.000000e+000  9.707410e+000 -7.527526e+001
      vertex  0.000000e+000  1.430741e+001  1.572474e+001
    endloop
  endfacet
  facet normal -1.000000e+000  0.000000e+000  0.000000e+000
    outer loop
      vertex  0.000000e+000  1.430741e+001  1.572474e+001
      vertex  0.000000e+000  9.707410e+000 -7.527526e+001
      vertex  0.000000e+000 -5.292590e+000 -7.527526e+001
    endloop
  endfacet
  facet normal -1.000000e+000  0.000000e+000  0.000000e+000
    outer loop
      vertex  0.000000e+000  1.430741e+001  1.572474e+001
      vertex  0.000000e+000 -5.292590e+000 -7.527526e+001
      vertex  0.000000e+000 -1.069259e+001  1.572474e+001
    endloop
  endfacet
  facet normal -1.000000e+000  0.000000e+000  0.000000e+000
    outer loop
      vertex  0.000000e+000 -1.069259e+001  1.572474e+001
      vertex  0.000000e+000 -5.292590e+000 -7.527526e+001
      vertex  0.000000e+000 -5.292590e+000 -8.927526e+001
    endloop
  endfacet
  facet normal -9.999999e-001  0.000000e+000  0.000000e+000
    outer loop
      vertex  0.000000e+000 -1.069259e+001  1.572474e+001
      vertex  0.000000e+000 -5.292590e+000 -8.927526e+001
      vertex  0.000000e+000 -1.069259e+001 -8.927526e+001
    endloop
  endfacet
  facet normal  0.000000e+000  0.000000e+000 -1.000000e+000
    outer loop
      vertex  0.000000e+000 -5.292590e+000 -7.527526e+001
      vertex  0.000000e+000  9.707410e+000 -7.527526e+001
      vertex  1.000000e+001 -5.292590e+000 -7.527526e+001
    endloop
  endfacet
  facet normal  0.000000e+000  0.000000e+000 -1.000000e+000
    outer loop
      vertex  1.000000e+001 -5.292590e+000 -7.527526e+001
      vertex  0.000000e+000  9.707410e+000 -7.527526e+001
      vertex  1.000000e+001  9.707410e+000 -7.527526e+001
    endloop
  endfacet
  facet normal  1.408692e-002  9.594858e-001  2.814042e-001
    outer loop
      vertex  5.517177e+000  1.410506e+001  1.713276e+001
      vertex  9.959800e+000  1.426721e+001  1.635751e+001
      vertex  5.935185e+000  1.416792e+001  1.689753e+001
    endloop
  endfacet
  facet normal  2.918226e-003  9.794158e-001  2.018319e-001
    outer loop
      vertex  9.959800e+000  1.426721e+001  1.635751e+001
      vertex  6.256897e+000  1.423993e+001  1.654341e+001
      vertex  5.935185e+000  1.416792e+001  1.689753e+001
    endloop
  endfacet
  facet normal  0.000000e+000  7.862127e-002  9.969046e-001
    outer loop
      vertex  5.000000e+000  9.307410e+000  2.072474e+001
      vertex  5.783783e+000  1.009119e+001  2.066293e+001
      vertex  4.216217e+000  1.009119e+001  2.066293e+001
    endloop
  endfacet
  facet normal  9.675293e-004  9.776941e-001  2.100318e-001
    outer loop
      vertex  9.959800e+000  1.426721e+001  1.635751e+001
      vertex  5.517177e+000  1.410506e+001  1.713276e+001
      vertex  9.782674e+000  1.409009e+001  1.718282e+001
    endloop
  endfacet
  facet normal -4.981804e-005  9.568744e-001  2.905020e-001
    outer loop
      vertex  9.782674e+000  1.409009e+001  1.718282e+001
      vertex  5.517177e+000  1.410506e+001  1.713276e+001
      vertex  5.045725e+000  1.407733e+001  1.722404e+001
    endloop
  endfacet
  facet normal  7.017260e-004  9.296564e-001  3.684270e-001
    outer loop
      vertex  9.782674e+000  1.409009e+001  1.718282e+001
      vertex  5.045725e+000  1.407733e+001  1.722404e+001
      vertex  9.484249e+000  1.379166e+001  1.793642e+001
    endloop
  endfacet
  facet normal -1.069794e-003  9.922470e-001  1.242779e-001
    outer loop
      vertex  6.256897e+000  1.423993e+001  1.654341e+001
      vertex  9.959800e+000  1.426721e+001  1.635751e+001
      vertex  6.437610e+000  1.428905e+001  1.615285e+001
    endloop
  endfacet
  facet normal  2.493643e-003  9.979748e-001  6.356084e-002
    outer loop
      vertex  6.437610e+000  1.428905e+001  1.615285e+001
      vertex  9.959800e+000  1.426721e+001  1.635751e+001
      vertex  1.000000e+001  1.430741e+001  1.572474e+001
    endloop
  endfacet
  facet normal  0.000000e+000  9.990812e-001  4.285821e-002
    outer loop
      vertex  6.437610e+000  1.428905e+001  1.615285e+001
      vertex  1.000000e+001  1.430741e+001  1.572474e+001
      vertex  6.500000e+000  1.430741e+001  1.572474e+001
    endloop
  endfacet
  facet normal  0.000000e+000  2.483265e-001  9.686764e-001
    outer loop
      vertex  4.216217e+000  1.009119e+001  2.066293e+001
      vertex  5.783783e+000  1.009119e+001  2.066293e+001
      vertex  3.311385e+000  1.099603e+001  2.043097e+001
    endloop
  endfacet
  facet normal  -0.000000e+000  2.483265e-001  9.686764e-001
    outer loop
      vertex  3.311385e+000  1.099603e+001  2.043097e+001
      vertex  5.783783e+000  1.009119e+001  2.066293e+001
      vertex  6.688615e+000  1.099603e+001  2.043097e+001
    endloop
  endfacet
  facet normal  0.000000e+000  4.270140e-001  9.042450e-001
    outer loop
      vertex  3.311385e+000  1.099603e+001  2.043097e+001
      vertex  6.688615e+000  1.099603e+001  2.043097e+001
      vertex  2.438413e+000  1.186900e+001  2.001872e+001
    endloop
  endfacet
  facet normal  -0.000000e+000  4.270140e-001  9.042450e-001
    outer loop
      vertex  2.438413e+000  1.186900e+001  2.001872e+001
      vertex  6.688615e+000  1.099603e+001  2.043097e+001
      vertex  7.561587e+000  1.186900e+001  2.001872e+001
    endloop
  endfacet
  facet normal  0.000000e+000  5.560179e-001  8.311703e-001
    outer loop
      vertex  2.438413e+000  1.186900e+001  2.001872e+001
      vertex  7.561587e+000  1.186900e+001  2.001872e+001
      vertex  2.008849e+000  1.229856e+001  1.973137e+001
    endloop
  endfacet
  facet normal  -0.000000e+000  5.560179e-001  8.311703e-001
    outer loop
      vertex  2.008849e+000  1.229856e+001  1.973137e+001
      vertex  7.561587e+000  1.186900e+001  2.001872e+001
      vertex  7.991151e+000  1.229856e+001  1.973137e+001
    endloop
  endfacet
  facet normal  0.000000e+000  6.400696e-001  7.683170e-001
    outer loop
      vertex  2.008849e+000  1.229856e+001  1.973137e+001
      vertex  7.991151e+000  1.229856e+001  1.973137e+001
      vertex  1.599532e+000  1.270787e+001  1.939037e+001
    endloop
  endfacet
  facet normal  -0.000000e+000  6.400697e-001  7.683170e-001
    outer loop
      vertex  1.599532e+000  1.270787e+001  1.939037e+001
      vertex  7.991151e+000  1.229856e+001  1.973137e+001
      vertex  8.400468e+000  1.270787e+001  1.939037e+001
    endloop
  endfacet
  facet normal  0.000000e+000  7.171002e-001  6.969700e-001
    outer loop
      vertex  1.599532e+000  1.270787e+001  1.939037e+001
      vertex  8.400468e+000  1.270787e+001  1.939037e+001
      vertex  1.239064e+000  1.306835e+001  1.901949e+001
    endloop
  endfacet
  facet normal  -0.000000e+000  7.171002e-001  6.969700e-001
    outer loop
      vertex  1.239064e+000  1.306835e+001  1.901949e+001
      vertex  8.400468e+000  1.270787e+001  1.939037e+001
      vertex  8.760937e+000  1.306835e+001  1.901949e+001
    endloop
  endfacet
  facet normal  0.000000e+000  7.864202e-001  6.176919e-001
    outer loop
      vertex  1.239064e+000  1.306835e+001  1.901949e+001
      vertex  8.760937e+000  1.306835e+001  1.901949e+001
      vertex  9.080300e-001  1.339938e+001  1.859803e+001
    endloop
  endfacet
  facet normal  -0.000000e+000  7.864203e-001  6.176919e-001
    outer loop
      vertex  9.080300e-001  1.339938e+001  1.859803e+001
      vertex  8.760937e+000  1.306835e+001  1.901949e+001
      vertex  9.091970e+000  1.339938e+001  1.859803e+001
    endloop
  endfacet
  facet normal  0.000000e+000  8.601703e-001  5.100069e-001
    outer loop
      vertex  9.080300e-001  1.339938e+001  1.859803e+001
      vertex  9.091970e+000  1.339938e+001  1.859803e+001
      vertex  5.157512e-001  1.379166e+001  1.793642e+001
    endloop
  endfacet
  facet normal  -0.000000e+000  8.601702e-001  5.100069e-001
    outer loop
      vertex  5.157512e-001  1.379166e+001  1.793642e+001
      vertex  9.091970e+000  1.339938e+001  1.859803e+001
      vertex  9.484249e+000  1.379166e+001  1.793642e+001
    endloop
  endfacet
  facet normal  0.000000e+000  9.297518e-001  3.681869e-001
    outer loop
      vertex  5.157512e-001  1.379166e+001  1.793642e+001
      vertex  9.484249e+000  1.379166e+001  1.793642e+001
      vertex  2.173258e-001  1.409009e+001  1.718282e+001
    endloop
  endfacet
  facet normal -7.639452e-004  9.265002e-001  3.762934e-001
    outer loop
      vertex  2.173258e-001  1.409009e+001  1.718282e+001
      vertex  9.484249e+000  1.379166e+001  1.793642e+001
      vertex  5.045725e+000  1.407733e+001  1.722404e+001
    endloop
  endfacet
  facet normal  2.150965e-005  9.559805e-001  2.934301e-001
    outer loop
      vertex  2.173258e-001  1.409009e+001  1.718282e+001
      vertex  5.045725e+000  1.407733e+001  1.722404e+001
      vertex  4.568271e+000  1.409661e+001  1.716127e+001
    endloop
  endfacet
  facet normal -4.246515e-004  9.777184e-001  2.099205e-001
    outer loop
      vertex  2.173258e-001  1.409009e+001  1.718282e+001
      vertex  4.568271e+000  1.409661e+001  1.716127e+001
      vertex  4.020063e-002  1.426721e+001  1.635751e+001
    endloop
  endfacet
  facet normal -1.707776e-002  9.541813e-001  2.987414e-001
    outer loop
      vertex  4.020063e-002  1.426721e+001  1.635751e+001
      vertex  4.568271e+000  1.409661e+001  1.716127e+001
      vertex  4.136110e+000  1.415471e+001  1.695099e+001
    endloop
  endfacet
  facet normal -4.530912e-003  9.763066e-001  2.163444e-001
    outer loop
      vertex  4.020063e-002  1.426721e+001  1.635751e+001
      vertex  4.136110e+000  1.415471e+001  1.695099e+001
      vertex  3.793750e+000  1.422727e+001  1.661635e+001
    endloop
  endfacet
  facet normal  -0.000000e+000  9.988885e-001  4.713701e-002
    outer loop
      vertex  3.500000e+000  1.430741e+001  1.572474e+001
      vertex  0.000000e+000  1.430741e+001  1.572474e+001
      vertex  3.575779e+000  1.428520e+001  1.619548e+001
    endloop
  endfacet
  facet normal -2.165076e-003  9.979770e-001  6.354011e-002
    outer loop
      vertex  3.575779e+000  1.428520e+001  1.619548e+001
      vertex  0.000000e+000  1.430741e+001  1.572474e+001
      vertex  4.020063e-002  1.426721e+001  1.635751e+001
    endloop
  endfacet
  facet normal  1.180696e-003  9.907430e-001  1.357456e-001
    outer loop
      vertex  3.575779e+000  1.428520e+001  1.619548e+001
      vertex  4.020063e-002  1.426721e+001  1.635751e+001
      vertex  3.793750e+000  1.422727e+001  1.661635e+001
    endloop
  endfacet
  facet normal  0.000000e+000 -9.281539e-001  3.721967e-001
    outer loop
      vertex  5.157512e-001 -1.017684e+001  1.793642e+001
      vertex  5.045725e+000 -1.046251e+001  1.722404e+001
      vertex  9.484249e+000 -1.017684e+001  1.793642e+001
    endloop
  endfacet
  facet normal  7.017255e-004 -9.296564e-001  3.684270e-001
    outer loop
      vertex  9.782674e+000 -1.047527e+001  1.718282e+001
      vertex  9.484249e+000 -1.017684e+001  1.793642e+001
      vertex  5.045725e+000 -1.046251e+001  1.722404e+001
    endloop
  endfacet
  facet normal -4.981790e-005 -9.568744e-001  2.905020e-001
    outer loop
      vertex  9.782674e+000 -1.047527e+001  1.718282e+001
      vertex  5.045725e+000 -1.046251e+001  1.722404e+001
      vertex  5.517177e+000 -1.049024e+001  1.713276e+001
    endloop
  endfacet
  facet normal  3.548631e-004 -9.659497e-001  2.587299e-001
    outer loop
      vertex  9.782674e+000 -1.047527e+001  1.718282e+001
      vertex  5.517177e+000 -1.049024e+001  1.713276e+001
      vertex  5.935185e+000 -1.055310e+001  1.689753e+001
    endloop
  endfacet
  facet normal  4.722944e-003 -9.790835e-001  2.034038e-001
    outer loop
      vertex  9.782674e+000 -1.047527e+001  1.718282e+001
      vertex  5.935185e+000 -1.055310e+001  1.689753e+001
      vertex  6.256897e+000 -1.062511e+001  1.654341e+001
    endloop
  endfacet
  facet normal  3.368062e-003 -9.775830e-001  2.105231e-001
    outer loop
      vertex  9.782674e+000 -1.047527e+001  1.718282e+001
      vertex  6.256897e+000 -1.062511e+001  1.654341e+001
      vertex  9.959800e+000 -1.065239e+001  1.635751e+001
    endloop
  endfacet
  facet normal  0.000000e+000 -9.979879e-001  6.340325e-002
    outer loop
      vertex  0.000000e+000 -1.069259e+001  1.572474e+001
      vertex  3.500000e+000 -1.069259e+001  1.572474e+001
      vertex  4.020063e-002 -1.065239e+001  1.635751e+001
    endloop
  endfacet
  facet normal -2.899949e-003 -9.988622e-001  4.760260e-002
    outer loop
      vertex  4.020063e-002 -1.065239e+001  1.635751e+001
      vertex  3.500000e+000 -1.069259e+001  1.572474e+001
      vertex  3.575779e+000 -1.067038e+001  1.619548e+001
    endloop
  endfacet
  facet normal  4.597781e-003 -9.779288e-001  2.088878e-001
    outer loop
      vertex  4.020063e-002 -1.065239e+001  1.635751e+001
      vertex  3.575779e+000 -1.067038e+001  1.619548e+001
      vertex  2.173258e-001 -1.047527e+001  1.718282e+001
    endloop
  endfacet
  facet normal -1.514156e-002 -9.894586e-001  1.440223e-001
    outer loop
      vertex  2.173258e-001 -1.047527e+001  1.718282e+001
      vertex  3.575779e+000 -1.067038e+001  1.619548e+001
      vertex  3.793750e+000 -1.061245e+001  1.661635e+001
    endloop
  endfacet
  facet normal -3.370939e-003 -9.765613e-001  2.152129e-001
    outer loop
      vertex  2.173258e-001 -1.047527e+001  1.718282e+001
      vertex  3.793750e+000 -1.061245e+001  1.661635e+001
      vertex  4.136110e+000 -1.053988e+001  1.695099e+001
    endloop
  endfacet
  facet normal -6.329725e-003 -9.413922e-001  3.372546e-001
    outer loop
      vertex  5.045725e+000 -1.046251e+001  1.722404e+001
      vertex  5.157512e-001 -1.017684e+001  1.793642e+001
      vertex  4.568271e+000 -1.048178e+001  1.716127e+001
    endloop
  endfacet
  facet normal  4.302287e-004 -9.298100e-001  3.680396e-001
    outer loop
      vertex  4.568271e+000 -1.048178e+001  1.716127e+001
      vertex  5.157512e-001 -1.017684e+001  1.793642e+001
      vertex  2.173258e-001 -1.047527e+001  1.718282e+001
    endloop
  endfacet
  facet normal -1.233152e-004 -9.638186e-001  2.665592e-001
    outer loop
      vertex  4.568271e+000 -1.048178e+001  1.716127e+001
      vertex  2.173258e-001 -1.047527e+001  1.718282e+001
      vertex  4.136110e+000 -1.053988e+001  1.695099e+001
    endloop
  endfacet
  facet normal  0.000000e+000 -8.601702e-001  5.100069e-001
    outer loop
      vertex  5.157512e-001 -1.017684e+001  1.793642e+001
      vertex  9.484249e+000 -1.017684e+001  1.793642e+001
      vertex  9.080300e-001 -9.784560e+000  1.859803e+001
    endloop
  endfacet
  facet normal  0.000000e+000 -8.601703e-001  5.100069e-001
    outer loop
      vertex  9.080300e-001 -9.784560e+000  1.859803e+001
      vertex  9.484249e+000 -1.017684e+001  1.793642e+001
      vertex  9.091970e+000 -9.784560e+000  1.859803e+001
    endloop
  endfacet
  facet normal  0.000000e+000 -7.864203e-001  6.176919e-001
    outer loop
      vertex  9.080300e-001 -9.784560e+000  1.859803e+001
      vertex  9.091970e+000 -9.784560e+000  1.859803e+001
      vertex  1.239064e+000 -9.453525e+000  1.901949e+001
    endloop
  endfacet
  facet normal  0.000000e+000 -7.864202e-001  6.176919e-001
    outer loop
      vertex  1.239064e+000 -9.453525e+000  1.901949e+001
      vertex  9.091970e+000 -9.784560e+000  1.859803e+001
      vertex  8.760937e+000 -9.453525e+000  1.901949e+001
    endloop
  endfacet
  facet normal  0.000000e+000 -7.171002e-001  6.969700e-001
    outer loop
      vertex  1.239064e+000 -9.453525e+000  1.901949e+001
      vertex  8.760937e+000 -9.453525e+000  1.901949e+001
      vertex  1.599532e+000 -9.093054e+000  1.939037e+001
    endloop
  endfacet
  facet normal  0.000000e+000 -7.171002e-001  6.969700e-001
    outer loop
      vertex  1.599532e+000 -9.093054e+000  1.939037e+001
      vertex  8.760937e+000 -9.453525e+000  1.901949e+001
      vertex  8.400468e+000 -9.093054e+000  1.939037e+001
    endloop
  endfacet
  facet normal  0.000000e+000 -6.400697e-001  7.683170e-001
    outer loop
      vertex  1.599532e+000 -9.093054e+000  1.939037e+001
      vertex  8.400468e+000 -9.093054e+000  1.939037e+001
      vertex  2.008849e+000 -8.683737e+000  1.973137e+001
    endloop
  endfacet
  facet normal  0.000000e+000 -6.400696e-001  7.683170e-001
    outer loop
      vertex  2.008849e+000 -8.683737e+000  1.973137e+001
      vertex  8.400468e+000 -9.093054e+000  1.939037e+001
      vertex  7.991151e+000 -8.683737e+000  1.973137e+001
    endloop
  endfacet
  facet normal  0.000000e+000 -5.560179e-001  8.311703e-001
    outer loop
      vertex  2.008849e+000 -8.683737e+000  1.973137e+001
      vertex  7.991151e+000 -8.683737e+000  1.973137e+001
      vertex  2.438413e+000 -8.254177e+000  2.001872e+001
    endloop
  endfacet
  facet normal  0.000000e+000 -5.560179e-001  8.311703e-001
    outer loop
      vertex  2.438413e+000 -8.254177e+000  2.001872e+001
      vertex  7.991151e+000 -8.683737e+000  1.973137e+001
      vertex  7.561587e+000 -8.254177e+000  2.001872e+001
    endloop
  endfacet
  facet normal  0.000000e+000 -4.270143e-001  9.042450e-001
    outer loop
      vertex  2.438413e+000 -8.254177e+000  2.001872e+001
      vertex  7.561587e+000 -8.254177e+000  2.001872e+001
      vertex  3.311385e+000 -7.381208e+000  2.043097e+001
    endloop
  endfacet
  facet normal  0.000000e+000 -4.270142e-001  9.042449e-001
    outer loop
      vertex  3.311385e+000 -7.381208e+000  2.043097e+001
      vertex  7.561587e+000 -8.254177e+000  2.001872e+001
      vertex  6.688615e+000 -7.381208e+000  2.043097e+001
    endloop
  endfacet
  facet normal  0.000000e+000 -2.483264e-001  9.686764e-001
    outer loop
      vertex  3.311385e+000 -7.381208e+000  2.043097e+001
      vertex  6.688615e+000 -7.381208e+000  2.043097e+001
      vertex  4.216217e+000 -6.476373e+000  2.066293e+001
    endloop
  endfacet
  facet normal  0.000000e+000 -2.483264e-001  9.686763e-001
    outer loop
      vertex  4.216217e+000 -6.476373e+000  2.066293e+001
      vertex  6.688615e+000 -7.381208e+000  2.043097e+001
      vertex  5.783783e+000 -6.476373e+000  2.066293e+001
    endloop
  endfacet
  facet normal  0.000000e+000 -7.862127e-002  9.969046e-001
    outer loop
      vertex  4.216217e+000 -6.476373e+000  2.066293e+001
      vertex  5.783783e+000 -6.476373e+000  2.066293e+001
      vertex  5.000000e+000 -5.692590e+000  2.072474e+001
    endloop
  endfacet
  facet normal  0.000000e+000 -9.990812e-001  4.285821e-002
    outer loop
      vertex  6.500000e+000 -1.069259e+001  1.572474e+001
      vertex  1.000000e+001 -1.069259e+001  1.572474e+001
      vertex  6.437610e+000 -1.067422e+001  1.615285e+001
    endloop
  endfacet
  facet normal  2.493643e-003 -9.979748e-001  6.356084e-002
    outer loop
      vertex  6.437610e+000 -1.067422e+001  1.615285e+001
      vertex  1.000000e+001 -1.069259e+001  1.572474e+001
      vertex  9.959800e+000 -1.065239e+001  1.635751e+001
    endloop
  endfacet
  facet normal -1.069794e-003 -9.922470e-001  1.242779e-001
    outer loop
      vertex  6.437610e+000 -1.067422e+001  1.615285e+001
      vertex  9.959800e+000 -1.065239e+001  1.635751e+001
      vertex  6.256897e+000 -1.062511e+001  1.654341e+001
    endloop
  endfacet
  facet normal  9.979879e-001  0.000000e+000  6.340326e-002
    outer loop
      vertex  1.000000e+001 -1.069259e+001  1.572474e+001
      vertex  1.000000e+001  1.430741e+001  1.572474e+001
      vertex  9.959800e+000 -1.065239e+001  1.635751e+001
    endloop
  endfacet
  facet normal  9.979880e-001  -0.000000e+000  6.340326e-002
    outer loop
      vertex  9.959800e+000 -1.065239e+001  1.635751e+001
      vertex  1.000000e+001  1.430741e+001  1.572474e+001
      vertex  9.959800e+000  1.426721e+001  1.635751e+001
    endloop
  endfacet
  facet normal  9.777360e-001  0.000000e+000  2.098388e-001
    outer loop
      vertex  9.959800e+000 -1.065239e+001  1.635751e+001
      vertex  9.959800e+000  1.426721e+001  1.635751e+001
      vertex  9.782674e+000 -1.047527e+001  1.718282e+001
    endloop
  endfacet
  facet normal  9.777360e-001  -0.000000e+000  2.098388e-001
    outer loop
      vertex  9.782674e+000 -1.047527e+001  1.718282e+001
      vertex  9.959800e+000  1.426721e+001  1.635751e+001
      vertex  9.782674e+000  1.409009e+001  1.718282e+001
    endloop
  endfacet
  facet normal  9.297538e-001  0.000000e+000  3.681818e-001
    outer loop
      vertex  9.782674e+000 -1.047527e+001  1.718282e+001
      vertex  9.782674e+000  1.409009e+001  1.718282e+001
      vertex  9.484249e+000 -1.017684e+001  1.793642e+001
    endloop
  endfacet
  facet normal  9.297538e-001  -0.000000e+000  3.681818e-001
    outer loop
      vertex  9.484249e+000 -1.017684e+001  1.793642e+001
      vertex  9.782674e+000  1.409009e+001  1.718282e+001
      vertex  9.484249e+000  1.379166e+001  1.793642e+001
    endloop
  endfacet
  facet normal  8.601703e-001  0.000000e+000  5.100069e-001
    outer loop
      vertex  9.484249e+000 -1.017684e+001  1.793642e+001
      vertex  9.484249e+000  1.379166e+001  1.793642e+001
      vertex  9.091970e+000 -9.784560e+000  1.859803e+001
    endloop
  endfacet
  facet normal  8.601704e-001  -0.000000e+000  5.100069e-001
    outer loop
      vertex  9.091970e+000 -9.784560e+000  1.859803e+001
      vertex  9.484249e+000  1.379166e+001  1.793642e+001
      vertex  9.091970e+000  1.339938e+001  1.859803e+001
    endloop
  endfacet
  facet normal  7.864220e-001  0.000000e+000  6.176897e-001
    outer loop
      vertex  9.091970e+000 -9.784560e+000  1.859803e+001
      vertex  9.091970e+000  1.339938e+001  1.859803e+001
      vertex  8.760937e+000 -9.453525e+000  1.901949e+001
    endloop
  endfacet
  facet normal  7.864219e-001  -0.000000e+000  6.176897e-001
    outer loop
      vertex  8.760937e+000 -9.453525e+000  1.901949e+001
      vertex  9.091970e+000  1.339938e+001  1.859803e+001
      vertex  8.760937e+000  1.306835e+001  1.901949e+001
    endloop
  endfacet
  facet normal  7.171021e-001  0.000000e+000  6.969681e-001
    outer loop
      vertex  8.760937e+000 -9.453525e+000  1.901949e+001
      vertex  8.760937e+000  1.306835e+001  1.901949e+001
      vertex  8.400468e+000 -9.093054e+000  1.939037e+001
    endloop
  endfacet
  facet normal  7.171021e-001  -0.000000e+000  6.969681e-001
    outer loop
      vertex  8.400468e+000 -9.093054e+000  1.939037e+001
      vertex  8.760937e+000  1.306835e+001  1.901949e+001
      vertex  8.400468e+000  1.270787e+001  1.939037e+001
    endloop
  endfacet
  facet normal  6.400696e-001  0.000000e+000  7.683169e-001
    outer loop
      vertex  8.400468e+000 -9.093054e+000  1.939037e+001
      vertex  8.400468e+000  1.270787e+001  1.939037e+001
      vertex  7.991151e+000 -8.683737e+000  1.973137e+001
    endloop
  endfacet
  facet normal  6.400695e-001  -0.000000e+000  7.683170e-001
    outer loop
      vertex  7.991151e+000 -8.683737e+000  1.973137e+001
      vertex  8.400468e+000  1.270787e+001  1.939037e+001
      vertex  7.991151e+000  1.229856e+001  1.973137e+001
    endloop
  endfacet
  facet normal  5.560141e-001  0.000000e+000  8.311729e-001
    outer loop
      vertex  7.991151e+000 -8.683737e+000  1.973137e+001
      vertex  7.991151e+000  1.229856e+001  1.973137e+001
      vertex  7.561587e+000 -8.254177e+000  2.001872e+001
    endloop
  endfacet
  facet normal  5.560140e-001  -0.000000e+000  8.311729e-001
    outer loop
      vertex  7.561587e+000 -8.254177e+000  2.001872e+001
      vertex  7.991151e+000  1.229856e+001  1.973137e+001
      vertex  7.561587e+000  1.186900e+001  2.001872e+001
    endloop
  endfacet
  facet normal  4.270131e-001  0.000000e+000  9.042454e-001
    outer loop
      vertex  7.561587e+000 -8.254177e+000  2.001872e+001
      vertex  7.561587e+000  1.186900e+001  2.001872e+001
      vertex  6.688615e+000 -7.381208e+000  2.043097e+001
    endloop
  endfacet
  facet normal  4.270131e-001  -0.000000e+000  9.042454e-001
    outer loop
      vertex  6.688615e+000 -7.381208e+000  2.043097e+001
      vertex  7.561587e+000  1.186900e+001  2.001872e+001
      vertex  6.688615e+000  1.099603e+001  2.043097e+001
    endloop
  endfacet
  facet normal  2.483272e-001  0.000000e+000  9.686763e-001
    outer loop
      vertex  6.688615e+000 -7.381208e+000  2.043097e+001
      vertex  6.688615e+000  1.099603e+001  2.043097e+001
      vertex  5.783783e+000 -6.476373e+000  2.066293e+001
    endloop
  endfacet
  facet normal  2.483272e-001  -0.000000e+000  9.686761e-001
    outer loop
      vertex  5.783783e+000 -6.476373e+000  2.066293e+001
      vertex  6.688615e+000  1.099603e+001  2.043097e+001
      vertex  5.783783e+000  1.009119e+001  2.066293e+001
    endloop
  endfacet
  facet normal  7.862128e-002  0.000000e+000  9.969046e-001
    outer loop
      vertex  5.783783e+000 -6.476373e+000  2.066293e+001
      vertex  5.783783e+000  1.009119e+001  2.066293e+001
      vertex  5.000000e+000 -5.692590e+000  2.072474e+001
    endloop
  endfacet
  facet normal  7.862128e-002  -0.000000e+000  9.969046e-001
    outer loop
      vertex  5.000000e+000 -5.692590e+000  2.072474e+001
      vertex  5.783783e+000  1.009119e+001  2.066293e+001
      vertex  5.000000e+000  9.307410e+000  2.072474e+001
    endloop
  endfacet
  facet normal -7.862128e-002  0.000000e+000  9.969046e-001
    outer loop
      vertex  5.000000e+000 -5.692590e+000  2.072474e+001
      vertex  5.000000e+000  9.307410e+000  2.072474e+001
      vertex  4.216217e+000 -6.476373e+000  2.066293e+001
    endloop
  endfacet
  facet normal -7.862128e-002  0.000000e+000  9.969046e-001
    outer loop
      vertex  4.216217e+000 -6.476373e+000  2.066293e+001
      vertex  5.000000e+000  9.307410e+000  2.072474e+001
      vertex  4.216217e+000  1.009119e+001  2.066293e+001
    endloop
  endfacet
  facet normal -2.483273e-001  0.000000e+000  9.686761e-001
    outer loop
      vertex  4.216217e+000 -6.476373e+000  2.066293e+001
      vertex  4.216217e+000  1.009119e+001  2.066293e+001
      vertex  3.311385e+000 -7.381208e+000  2.043097e+001
    endloop
  endfacet
  facet normal -2.483273e-001  0.000000e+000  9.686762e-001
    outer loop
      vertex  3.311385e+000 -7.381208e+000  2.043097e+001
      vertex  4.216217e+000  1.009119e+001  2.066293e+001
      vertex  3.311385e+000  1.099603e+001  2.043097e+001
    endloop
  endfacet
  facet normal -4.270130e-001  0.000000e+000  9.042454e-001
    outer loop
      vertex  3.311385e+000 -7.381208e+000  2.043097e+001
      vertex  3.311385e+000  1.099603e+001  2.043097e+001
      vertex  2.438413e+000 -8.254177e+000  2.001872e+001
    endloop
  endfacet
  facet normal -4.270130e-001  0.000000e+000  9.042454e-001
    outer loop
      vertex  2.438413e+000 -8.254177e+000  2.001872e+001
      vertex  3.311385e+000  1.099603e+001  2.043097e+001
      vertex  2.438413e+000  1.186900e+001  2.001872e+001
    endloop
  endfacet
  facet normal -5.560140e-001  0.000000e+000  8.311729e-001
    outer loop
      vertex  2.438413e+000 -8.254177e+000  2.001872e+001
      vertex  2.438413e+000  1.186900e+001  2.001872e+001
      vertex  2.008849e+000 -8.683737e+000  1.973137e+001
    endloop
  endfacet
  facet normal -5.560141e-001  0.000000e+000  8.311729e-001
    outer loop
      vertex  2.008849e+000 -8.683737e+000  1.973137e+001
      vertex  2.438413e+000  1.186900e+001  2.001872e+001
      vertex  2.008849e+000  1.229856e+001  1.973137e+001
    endloop
  endfacet
  facet normal -6.400695e-001  0.000000e+000  7.683170e-001
    outer loop
      vertex  2.008849e+000 -8.683737e+000  1.973137e+001
      vertex  2.008849e+000  1.229856e+001  1.973137e+001
      vertex  1.599532e+000 -9.093054e+000  1.939037e+001
    endloop
  endfacet
  facet normal -6.400695e-001  0.000000e+000  7.683170e-001
    outer loop
      vertex  1.599532e+000 -9.093054e+000  1.939037e+001
      vertex  2.008849e+000  1.229856e+001  1.973137e+001
      vertex  1.599532e+000  1.270787e+001  1.939037e+001
    endloop
  endfacet
  facet normal -7.171024e-001  0.000000e+000  6.969678e-001
    outer loop
      vertex  1.599532e+000 -9.093054e+000  1.939037e+001
      vertex  1.599532e+000  1.270787e+001  1.939037e+001
      vertex  1.239064e+000 -9.453525e+000  1.901949e+001
    endloop
  endfacet
  facet normal -7.171025e-001  0.000000e+000  6.969678e-001
    outer loop
      vertex  1.239064e+000 -9.453525e+000  1.901949e+001
      vertex  1.599532e+000  1.270787e+001  1.939037e+001
      vertex  1.239064e+000  1.306835e+001  1.901949e+001
    endloop
  endfacet
  facet normal -7.864221e-001  0.000000e+000  6.176895e-001
    outer loop
      vertex  1.239064e+000 -9.453525e+000  1.901949e+001
      vertex  1.239064e+000  1.306835e+001  1.901949e+001
      vertex  9.080300e-001 -9.784560e+000  1.859803e+001
    endloop
  endfacet
  facet normal -7.864221e-001  0.000000e+000  6.176894e-001
    outer loop
      vertex  9.080300e-001 -9.784560e+000  1.859803e+001
      vertex  1.239064e+000  1.306835e+001  1.901949e+001
      vertex  9.080300e-001  1.339938e+001  1.859803e+001
    endloop
  endfacet
  facet normal -8.601702e-001  0.000000e+000  5.100070e-001
    outer loop
      vertex  9.080300e-001 -9.784560e+000  1.859803e+001
      vertex  9.080300e-001  1.339938e+001  1.859803e+001
      vertex  5.157512e-001 -1.017684e+001  1.793642e+001
    endloop
  endfacet
  facet normal -8.601703e-001  0.000000e+000  5.100070e-001
    outer loop
      vertex  5.157512e-001 -1.017684e+001  1.793642e+001
      vertex  9.080300e-001  1.339938e+001  1.859803e+001
      vertex  5.157512e-001  1.379166e+001  1.793642e+001
    endloop
  endfacet
  facet normal -9.297535e-001  0.000000e+000  3.681825e-001
    outer loop
      vertex  5.157512e-001 -1.017684e+001  1.793642e+001
      vertex  5.157512e-001  1.379166e+001  1.793642e+001
      vertex  2.173258e-001 -1.047527e+001  1.718282e+001
    endloop
  endfacet
  facet normal -9.297535e-001  0.000000e+000  3.681825e-001
    outer loop
      vertex  2.173258e-001 -1.047527e+001  1.718282e+001
      vertex  5.157512e-001  1.379166e+001  1.793642e+001
      vertex  2.173258e-001  1.409009e+001  1.718282e+001
    endloop
  endfacet
  facet normal -9.777362e-001  0.000000e+000  2.098380e-001
    outer loop
      vertex  2.173258e-001 -1.047527e+001  1.718282e+001
      vertex  2.173258e-001  1.409009e+001  1.718282e+001
      vertex  4.020063e-002 -1.065239e+001  1.635751e+001
    endloop
  endfacet
  facet normal -9.777361e-001  0.000000e+000  2.098380e-001
    outer loop
      vertex  4.020063e-002 -1.065239e+001  1.635751e+001
      vertex  2.173258e-001  1.409009e+001  1.718282e+001
      vertex  4.020063e-002  1.426721e+001  1.635751e+001
    endloop
  endfacet
  facet normal -9.979879e-001  0.000000e+000  6.340387e-002
    outer loop
      vertex  4.020063e-002 -1.065239e+001  1.635751e+001
      vertex  4.020063e-002  1.426721e+001  1.635751e+001
      vertex  0.000000e+000 -1.069259e+001  1.572474e+001
    endloop
  endfacet
  facet normal -9.979879e-001  0.000000e+000  6.340387e-002
    outer loop
      vertex  0.000000e+000 -1.069259e+001  1.572474e+001
      vertex  4.020063e-002  1.426721e+001  1.635751e+001
      vertex  0.000000e+000  1.430741e+001  1.572474e+001
    endloop
  endfacet
  facet normal -1.900847e-001  -0.000000e+000 -9.817677e-001
    outer loop
      vertex  5.045725e+000 -1.046251e+001  1.722404e+001
      vertex  5.517177e+000  1.410506e+001  1.713276e+001
      vertex  5.517177e+000 -1.049024e+001  1.713276e+001
    endloop
  endfacet
  facet normal -4.904313e-001  0.000000e+000 -8.714797e-001
    outer loop
      vertex  5.517177e+000 -1.049024e+001  1.713276e+001
      vertex  5.517177e+000  1.410506e+001  1.713276e+001
      vertex  5.935185e+000  1.416792e+001  1.689753e+001
    endloop
  endfacet
  facet normal -4.904314e-001  -0.000000e+000 -8.714798e-001
    outer loop
      vertex  5.517177e+000 -1.049024e+001  1.713276e+001
      vertex  5.935185e+000  1.416792e+001  1.689753e+001
      vertex  5.935185e+000 -1.055310e+001  1.689753e+001
    endloop
  endfacet
  facet normal -7.401660e-001  0.000000e+000 -6.724242e-001
    outer loop
      vertex  5.935185e+000 -1.055310e+001  1.689753e+001
      vertex  5.935185e+000  1.416792e+001  1.689753e+001
      vertex  6.256897e+000  1.423993e+001  1.654341e+001
    endloop
  endfacet
  facet normal -7.401661e-001  -0.000000e+000 -6.724242e-001
    outer loop
      vertex  5.935185e+000 -1.055310e+001  1.689753e+001
      vertex  6.256897e+000  1.423993e+001  1.654341e+001
      vertex  6.256897e+000 -1.062511e+001  1.654341e+001
    endloop
  endfacet
  facet normal -9.075547e-001  0.000000e+000 -4.199340e-001
    outer loop
      vertex  6.256897e+000 -1.062511e+001  1.654341e+001
      vertex  6.256897e+000  1.423993e+001  1.654341e+001
      vertex  6.437610e+000  1.428905e+001  1.615285e+001
    endloop
  endfacet
  facet normal -9.075546e-001  -0.000000e+000 -4.199340e-001
    outer loop
      vertex  6.256897e+000 -1.062511e+001  1.654341e+001
      vertex  6.437610e+000  1.428905e+001  1.615285e+001
      vertex  6.437610e+000 -1.067422e+001  1.615285e+001
    endloop
  endfacet
  facet normal -9.895471e-001  0.000000e+000 -1.442098e-001
    outer loop
      vertex  6.437610e+000 -1.067422e+001  1.615285e+001
      vertex  6.437610e+000  1.428905e+001  1.615285e+001
      vertex  6.500000e+000  1.430741e+001  1.572474e+001
    endloop
  endfacet
  facet normal -9.895471e-001  -0.000000e+000 -1.442098e-001
    outer loop
      vertex  6.437610e+000 -1.067422e+001  1.615285e+001
      vertex  6.500000e+000  1.430741e+001  1.572474e+001
      vertex  6.500000e+000 -1.069259e+001  1.572474e+001
    endloop
  endfacet
  facet normal -1.900847e-001  0.000000e+000 -9.817677e-001
    outer loop
      vertex  5.517177e+000  1.410506e+001  1.713276e+001
      vertex  5.045725e+000 -1.046251e+001  1.722404e+001
      vertex  5.045725e+000  1.407733e+001  1.722404e+001
    endloop
  endfacet
  facet normal  1.303600e-001  0.000000e+000 -9.914668e-001
    outer loop
      vertex  5.045725e+000  1.407733e+001  1.722404e+001
      vertex  5.045725e+000 -1.046251e+001  1.722404e+001
      vertex  4.568271e+000 -1.048178e+001  1.716127e+001
    endloop
  endfacet
  facet normal  1.303600e-001  0.000000e+000 -9.914666e-001
    outer loop
      vertex  5.045725e+000  1.407733e+001  1.722404e+001
      vertex  4.568271e+000 -1.048178e+001  1.716127e+001
      vertex  4.568271e+000  1.409661e+001  1.716127e+001
    endloop
  endfacet
  facet normal  4.375246e-001  0.000000e+000 -8.992065e-001
    outer loop
      vertex  4.568271e+000  1.409661e+001  1.716127e+001
      vertex  4.568271e+000 -1.048178e+001  1.716127e+001
      vertex  4.136110e+000 -1.053988e+001  1.695099e+001
    endloop
  endfacet
  facet normal  4.375246e-001  0.000000e+000 -8.992064e-001
    outer loop
      vertex  4.568271e+000  1.409661e+001  1.716127e+001
      vertex  4.136110e+000 -1.053988e+001  1.695099e+001
      vertex  4.136110e+000  1.415471e+001  1.695099e+001
    endloop
  endfacet
  facet normal  6.990045e-001  0.000000e+000 -7.151174e-001
    outer loop
      vertex  4.136110e+000  1.415471e+001  1.695099e+001
      vertex  4.136110e+000 -1.053988e+001  1.695099e+001
      vertex  3.793750e+000 -1.061245e+001  1.661635e+001
    endloop
  endfacet
  facet normal  6.990044e-001  0.000000e+000 -7.151173e-001
    outer loop
      vertex  4.136110e+000  1.415471e+001  1.695099e+001
      vertex  3.793750e+000 -1.061245e+001  1.661635e+001
      vertex  3.793750e+000  1.422727e+001  1.661635e+001
    endloop
  endfacet
  facet normal  8.879758e-001  0.000000e+000 -4.598903e-001
    outer loop
      vertex  3.793750e+000  1.422727e+001  1.661635e+001
      vertex  3.793750e+000 -1.061245e+001  1.661635e+001
      vertex  3.575779e+000 -1.067038e+001  1.619548e+001
    endloop
  endfacet
  facet normal  8.879758e-001  0.000000e+000 -4.598903e-001
    outer loop
      vertex  3.793750e+000  1.422727e+001  1.661635e+001
      vertex  3.575779e+000 -1.067038e+001  1.619548e+001
      vertex  3.575779e+000  1.428520e+001  1.619548e+001
    endloop
  endfacet
  facet normal  9.872892e-001  0.000000e+000 -1.589334e-001
    outer loop
      vertex  3.575779e+000  1.428520e+001  1.619548e+001
      vertex  3.575779e+000 -1.067038e+001  1.619548e+001
      vertex  3.500000e+000 -1.069259e+001  1.572474e+001
    endloop
  endfacet
  facet normal  9.872892e-001  0.000000e+000 -1.589334e-001
    outer loop
      vertex  3.575779e+000  1.428520e+001  1.619548e+001
      vertex  3.500000e+000 -1.069259e+001  1.572474e+001
      vertex  3.500000e+000  1.430741e+001  1.572474e+001
    endloop
  endfacet
  facet normal  3.420210e-001  0.000000e+000  9.396923e-001
    outer loop
      vertex  4.739528e+000 -1.069259e+001  1.424753e+001
      vertex  4.250000e+000  1.430741e+001  1.442570e+001
      vertex  4.250000e+000 -1.069259e+001  1.442570e+001
    endloop
  endfacet
  facet normal  6.427879e-001  -0.000000e+000  7.660442e-001
    outer loop
      vertex  4.250000e+000 -1.069259e+001  1.442570e+001
      vertex  4.250000e+000  1.430741e+001  1.442570e+001
      vertex  3.850933e+000  1.430741e+001  1.476056e+001
    endloop
  endfacet
  facet normal  6.427879e-001  0.000000e+000  7.660442e-001
    outer loop
      vertex  4.250000e+000 -1.069259e+001  1.442570e+001
      vertex  3.850933e+000  1.430741e+001  1.476056e+001
      vertex  3.850933e+000 -1.069259e+001  1.476056e+001
    endloop
  endfacet
  facet normal  8.660252e-001  -0.000000e+000  5.000003e-001
    outer loop
      vertex  3.850933e+000 -1.069259e+001  1.476056e+001
      vertex  3.850933e+000  1.430741e+001  1.476056e+001
      vertex  3.590461e+000  1.430741e+001  1.521171e+001
    endloop
  endfacet
  facet normal  8.660252e-001  0.000000e+000  5.000003e-001
    outer loop
      vertex  3.850933e+000 -1.069259e+001  1.476056e+001
      vertex  3.590461e+000  1.430741e+001  1.521171e+001
      vertex  3.590461e+000 -1.069259e+001  1.521171e+001
    endloop
  endfacet
  facet normal  9.848077e-001  -0.000000e+000  1.736481e-001
    outer loop
      vertex  3.590461e+000 -1.069259e+001  1.521171e+001
      vertex  3.590461e+000  1.430741e+001  1.521171e+001
      vertex  3.500000e+000  1.430741e+001  1.572474e+001
    endloop
  endfacet
  facet normal  9.848077e-001  0.000000e+000  1.736481e-001
    outer loop
      vertex  3.590461e+000 -1.069259e+001  1.521171e+001
      vertex  3.500000e+000  1.430741e+001  1.572474e+001
      vertex  3.500000e+000 -1.069259e+001  1.572474e+001
    endloop
  endfacet
  facet normal  3.420210e-001  -0.000000e+000  9.396923e-001
    outer loop
      vertex  4.250000e+000  1.430741e+001  1.442570e+001
      vertex  4.739528e+000 -1.069259e+001  1.424753e+001
      vertex  4.739528e+000  1.430741e+001  1.424753e+001
    endloop
  endfacet
  facet normal  0.000000e+000  0.000000e+000  1.000000e+000
    outer loop
      vertex  4.739528e+000  1.430741e+001  1.424753e+001
      vertex  4.739528e+000 -1.069259e+001  1.424753e+001
      vertex  5.260472e+000 -1.069259e+001  1.424753e+001
    endloop
  endfacet
  facet normal  0.000000e+000  -0.000000e+000  1.000000e+000
    outer loop
      vertex  4.739528e+000  1.430741e+001  1.424753e+001
      vertex  5.260472e+000 -1.069259e+001  1.424753e+001
      vertex  5.260472e+000  1.430741e+001  1.424753e+001
    endloop
  endfacet
  facet normal -3.420210e-001  0.000000e+000  9.396923e-001
    outer loop
      vertex  5.260472e+000  1.430741e+001  1.424753e+001
      vertex  5.260472e+000 -1.069259e+001  1.424753e+001
      vertex  5.750000e+000 -1.069259e+001  1.442570e+001
    endloop
  endfacet
  facet normal -3.420210e-001  0.000000e+000  9.396923e-001
    outer loop
      vertex  5.260472e+000  1.430741e+001  1.424753e+001
      vertex  5.750000e+000 -1.069259e+001  1.442570e+001
      vertex  5.750000e+000  1.430741e+001  1.442570e+001
    endloop
  endfacet
  facet normal -6.427881e-001  0.000000e+000  7.660440e-001
    outer loop
      vertex  5.750000e+000  1.430741e+001  1.442570e+001
      vertex  5.750000e+000 -1.069259e+001  1.442570e+001
      vertex  6.149066e+000 -1.069259e+001  1.476056e+001
    endloop
  endfacet
  facet normal -6.427881e-001  0.000000e+000  7.660440e-001
    outer loop
      vertex  5.750000e+000  1.430741e+001  1.442570e+001
      vertex  6.149066e+000 -1.069259e+001  1.476056e+001
      vertex  6.149066e+000  1.430741e+001  1.476056e+001
    endloop
  endfacet
  facet normal -8.660252e-001  0.000000e+000  5.000003e-001
    outer loop
      vertex  6.149066e+000  1.430741e+001  1.476056e+001
      vertex  6.149066e+000 -1.069259e+001  1.476056e+001
      vertex  6.409539e+000 -1.069259e+001  1.521171e+001
    endloop
  endfacet
  facet normal -8.660252e-001  0.000000e+000  5.000003e-001
    outer loop
      vertex  6.149066e+000  1.430741e+001  1.476056e+001
      vertex  6.409539e+000 -1.069259e+001  1.521171e+001
      vertex  6.409539e+000  1.430741e+001  1.521171e+001
    endloop
  endfacet
  facet normal -9.848077e-001  0.000000e+000  1.736486e-001
    outer loop
      vertex  6.409539e+000  1.430741e+001  1.521171e+001
      vertex  6.409539e+000 -1.069259e+001  1.521171e+001
      vertex  6.500000e+000 -1.069259e+001  1.572474e+001
    endloop
  endfacet
  facet normal -9.848077e-001  0.000000e+000  1.736486e-001
    outer loop
      vertex  6.409539e+000  1.430741e+001  1.521171e+001
      vertex  6.500000e+000 -1.069259e+001  1.572474e+001
      vertex  6.500000e+000  1.430741e+001  1.572474e+001
    endloop
  endfacet
endsolid CATIA STL
