solid CATIA STL
  facet normal  0.000000e+000  1.000000e+000  0.000000e+000
    outer loop
      vertex -5.656787e-001  5.000000e+000  4.658783e+000
      vertex -1.631620e-015  5.000000e+000  5.759805e+000
      vertex  5.656787e-001  5.000000e+000  4.658783e+000
    endloop
  endfacet
  facet normal  0.000000e+000  1.000000e+000  0.000000e+000
    outer loop
      vertex  1.058059e-015  5.000000e+000 -5.759805e+000
      vertex  2.499086e+000  5.000000e+000 -5.189405e+000
      vertex  1.281677e+000  5.000000e+000 -5.615395e+000
    endloop
  endfacet
  facet normal  -0.000000e+000  9.999999e-001  -0.000000e+000
    outer loop
      vertex  1.058059e-015  5.000000e+000 -5.759805e+000
      vertex -1.281677e+000  5.000000e+000 -5.615395e+000
      vertex -2.499086e+000  5.000000e+000 -5.189405e+000
    endloop
  endfacet
  facet normal  0.000000e+000  9.999999e-001  0.000000e+000
    outer loop
      vertex -4.503197e+000  5.000000e+000 -3.591180e+000
      vertex -2.665928e+000  5.000000e+000 -3.862263e+000
      vertex -3.591180e+000  5.000000e+000 -4.503197e+000
    endloop
  endfacet
  facet normal  0.000000e+000  9.999999e-001  0.000000e+000
    outer loop
      vertex -3.591180e+000  5.000000e+000 -4.503197e+000
      vertex -2.665928e+000  5.000000e+000 -3.862263e+000
      vertex -1.664161e+000  5.000000e+000 -4.388031e+000
    endloop
  endfacet
  facet normal  0.000000e+000  1.000000e+000  0.000000e+000
    outer loop
      vertex -3.591180e+000  5.000000e+000 -4.503197e+000
      vertex -1.664161e+000  5.000000e+000 -4.388031e+000
      vertex -2.499086e+000  5.000000e+000 -5.189405e+000
    endloop
  endfacet
  facet normal  0.000000e+000  1.000000e+000  0.000000e+000
    outer loop
      vertex -2.499086e+000  5.000000e+000 -5.189405e+000
      vertex -1.664161e+000  5.000000e+000 -4.388031e+000
      vertex -5.656787e-001  5.000000e+000 -4.658783e+000
    endloop
  endfacet
  facet normal  0.000000e+000  1.000000e+000  0.000000e+000
    outer loop
      vertex -2.499086e+000  5.000000e+000 -5.189405e+000
      vertex -5.656787e-001  5.000000e+000 -4.658783e+000
      vertex  1.058059e-015  5.000000e+000 -5.759805e+000
    endloop
  endfacet
  facet normal  0.000000e+000  1.000000e+000  -0.000000e+000
    outer loop
      vertex  1.058059e-015  5.000000e+000 -5.759805e+000
      vertex -5.656787e-001  5.000000e+000 -4.658783e+000
      vertex  5.656787e-001  5.000000e+000 -4.658783e+000
    endloop
  endfacet
  facet normal  0.000000e+000  1.000000e+000  0.000000e+000
    outer loop
      vertex  1.058059e-015  5.000000e+000 -5.759805e+000
      vertex  5.656787e-001  5.000000e+000 -4.658783e+000
      vertex  2.499086e+000  5.000000e+000 -5.189405e+000
    endloop
  endfacet
  facet normal  0.000000e+000  1.000000e+000  0.000000e+000
    outer loop
      vertex -1.631620e-015  5.000000e+000  5.759805e+000
      vertex  1.281677e+000  5.000000e+000  5.615395e+000
      vertex  5.656787e-001  5.000000e+000  4.658783e+000
    endloop
  endfacet
  facet normal  0.000000e+000  9.999999e-001  0.000000e+000
    outer loop
      vertex  5.656787e-001  5.000000e+000  4.658783e+000
      vertex  1.281677e+000  5.000000e+000  5.615395e+000
      vertex  2.499086e+000  5.000000e+000  5.189405e+000
    endloop
  endfacet
  facet normal  0.000000e+000  1.000000e+000  0.000000e+000
    outer loop
      vertex  5.656787e-001  5.000000e+000  4.658783e+000
      vertex  2.499086e+000  5.000000e+000  5.189405e+000
      vertex  1.664161e+000  5.000000e+000  4.388031e+000
    endloop
  endfacet
  facet normal  0.000000e+000  1.000000e+000  0.000000e+000
    outer loop
      vertex  1.664161e+000  5.000000e+000  4.388031e+000
      vertex  2.499086e+000  5.000000e+000  5.189405e+000
      vertex  3.591180e+000  5.000000e+000  4.503197e+000
    endloop
  endfacet
  facet normal  0.000000e+000  9.999999e-001  0.000000e+000
    outer loop
      vertex  1.664161e+000  5.000000e+000  4.388031e+000
      vertex  3.591180e+000  5.000000e+000  4.503197e+000
      vertex  2.665928e+000  5.000000e+000  3.862263e+000
    endloop
  endfacet
  facet normal  -0.000000e+000  9.999999e-001  0.000000e+000
    outer loop
      vertex  2.665928e+000  5.000000e+000  3.862263e+000
      vertex  3.591180e+000  5.000000e+000  4.503197e+000
      vertex  4.503197e+000  5.000000e+000  3.591180e+000
    endloop
  endfacet
  facet normal  0.000000e+000  1.000000e+000  0.000000e+000
    outer loop
      vertex  2.665928e+000  5.000000e+000  3.862263e+000
      vertex  4.503197e+000  5.000000e+000  3.591180e+000
      vertex  3.512761e+000  5.000000e+000  3.112035e+000
    endloop
  endfacet
  facet normal  -0.000000e+000  1.000000e+000  0.000000e+000
    outer loop
      vertex  3.512761e+000  5.000000e+000  3.112035e+000
      vertex  4.503197e+000  5.000000e+000  3.591180e+000
      vertex  5.189405e+000  5.000000e+000  2.499086e+000
    endloop
  endfacet
  facet normal  0.000000e+000  1.000000e+000  0.000000e+000
    outer loop
      vertex  3.512761e+000  5.000000e+000  3.112035e+000
      vertex  5.189405e+000  5.000000e+000  2.499086e+000
      vertex  4.155445e+000  5.000000e+000  2.180946e+000
    endloop
  endfacet
  facet normal  0.000000e+000  1.000000e+000  0.000000e+000
    outer loop
      vertex -1.281677e+000  5.000000e+000  5.615395e+000
      vertex -1.631620e-015  5.000000e+000  5.759805e+000
      vertex -2.499086e+000  5.000000e+000  5.189405e+000
    endloop
  endfacet
  facet normal  -0.000000e+000  1.000000e+000  0.000000e+000
    outer loop
      vertex -2.499086e+000  5.000000e+000  5.189405e+000
      vertex -1.631620e-015  5.000000e+000  5.759805e+000
      vertex -5.656787e-001  5.000000e+000  4.658783e+000
    endloop
  endfacet
  facet normal  0.000000e+000  1.000000e+000  0.000000e+000
    outer loop
      vertex -2.499086e+000  5.000000e+000  5.189405e+000
      vertex -5.656787e-001  5.000000e+000  4.658783e+000
      vertex -3.591180e+000  5.000000e+000  4.503197e+000
    endloop
  endfacet
  facet normal  -0.000000e+000  1.000000e+000  0.000000e+000
    outer loop
      vertex -3.591180e+000  5.000000e+000  4.503197e+000
      vertex -5.656787e-001  5.000000e+000  4.658783e+000
      vertex -1.664161e+000  5.000000e+000  4.388031e+000
    endloop
  endfacet
  facet normal  0.000000e+000  1.000000e+000  0.000000e+000
    outer loop
      vertex -3.591180e+000  5.000000e+000  4.503197e+000
      vertex -1.664161e+000  5.000000e+000  4.388031e+000
      vertex -4.503197e+000  5.000000e+000  3.591180e+000
    endloop
  endfacet
  facet normal  0.000000e+000  9.999999e-001  0.000000e+000
    outer loop
      vertex -4.503197e+000  5.000000e+000  3.591180e+000
      vertex -1.664161e+000  5.000000e+000  4.388031e+000
      vertex -2.665928e+000  5.000000e+000  3.862263e+000
    endloop
  endfacet
  facet normal  0.000000e+000  1.000000e+000  0.000000e+000
    outer loop
      vertex -4.503197e+000  5.000000e+000  3.591180e+000
      vertex -2.665928e+000  5.000000e+000  3.862263e+000
      vertex -5.189405e+000  5.000000e+000  2.499086e+000
    endloop
  endfacet
  facet normal  0.000000e+000  9.999999e-001  0.000000e+000
    outer loop
      vertex -5.189405e+000  5.000000e+000  2.499086e+000
      vertex -2.665928e+000  5.000000e+000  3.862263e+000
      vertex -3.512761e+000  5.000000e+000  3.112035e+000
    endloop
  endfacet
  facet normal  0.000000e+000  1.000000e+000  0.000000e+000
    outer loop
      vertex -5.189405e+000  5.000000e+000  2.499086e+000
      vertex -3.512761e+000  5.000000e+000  3.112035e+000
      vertex -4.155445e+000  5.000000e+000  2.180946e+000
    endloop
  endfacet
  facet normal  0.000000e+000  1.000000e+000  0.000000e+000
    outer loop
      vertex  4.155445e+000  5.000000e+000  2.180946e+000
      vertex  5.189405e+000  5.000000e+000  2.499086e+000
      vertex  4.556630e+000  5.000000e+000  1.123108e+000
    endloop
  endfacet
  facet normal  0.000000e+000  1.000000e+000  0.000000e+000
    outer loop
      vertex  4.556630e+000  5.000000e+000  1.123108e+000
      vertex  5.189405e+000  5.000000e+000  2.499086e+000
      vertex  5.615395e+000  5.000000e+000  1.281677e+000
    endloop
  endfacet
  facet normal  0.000000e+000  1.000000e+000  0.000000e+000
    outer loop
      vertex  4.556630e+000  5.000000e+000  1.123108e+000
      vertex  5.615395e+000  5.000000e+000  1.281677e+000
      vertex  4.693000e+000  5.000000e+000  5.747267e-016
    endloop
  endfacet
  facet normal  0.000000e+000  1.000000e+000  0.000000e+000
    outer loop
      vertex  4.693000e+000  5.000000e+000  5.747267e-016
      vertex  5.615395e+000  5.000000e+000  1.281677e+000
      vertex  5.759805e+000  5.000000e+000  3.263240e-015
    endloop
  endfacet
  facet normal  0.000000e+000  1.000000e+000  0.000000e+000
    outer loop
      vertex  4.693000e+000  5.000000e+000  5.747267e-016
      vertex  5.759805e+000  5.000000e+000  3.263240e-015
      vertex  4.556630e+000  5.000000e+000 -1.123108e+000
    endloop
  endfacet
  facet normal  -0.000000e+000  1.000000e+000  0.000000e+000
    outer loop
      vertex  4.556630e+000  5.000000e+000 -1.123108e+000
      vertex  5.759805e+000  5.000000e+000  3.263240e-015
      vertex  5.615395e+000  5.000000e+000 -1.281677e+000
    endloop
  endfacet
  facet normal  0.000000e+000  1.000000e+000  0.000000e+000
    outer loop
      vertex  4.556630e+000  5.000000e+000 -1.123108e+000
      vertex  5.615395e+000  5.000000e+000 -1.281677e+000
      vertex  4.155445e+000  5.000000e+000 -2.180946e+000
    endloop
  endfacet
  facet normal  -0.000000e+000  1.000000e+000  0.000000e+000
    outer loop
      vertex  4.155445e+000  5.000000e+000 -2.180946e+000
      vertex  5.615395e+000  5.000000e+000 -1.281677e+000
      vertex  5.189405e+000  5.000000e+000 -2.499086e+000
    endloop
  endfacet
  facet normal  0.000000e+000  1.000000e+000  0.000000e+000
    outer loop
      vertex  4.155445e+000  5.000000e+000 -2.180946e+000
      vertex  5.189405e+000  5.000000e+000 -2.499086e+000
      vertex  3.512761e+000  5.000000e+000 -3.112035e+000
    endloop
  endfacet
  facet normal  -0.000000e+000  1.000000e+000  0.000000e+000
    outer loop
      vertex  3.512761e+000  5.000000e+000 -3.112035e+000
      vertex  5.189405e+000  5.000000e+000 -2.499086e+000
      vertex  4.503197e+000  5.000000e+000 -3.591180e+000
    endloop
  endfacet
  facet normal  0.000000e+000  1.000000e+000  0.000000e+000
    outer loop
      vertex  3.512761e+000  5.000000e+000 -3.112035e+000
      vertex  4.503197e+000  5.000000e+000 -3.591180e+000
      vertex  2.665928e+000  5.000000e+000 -3.862263e+000
    endloop
  endfacet
  facet normal  0.000000e+000  9.999999e-001  0.000000e+000
    outer loop
      vertex  2.665928e+000  5.000000e+000 -3.862263e+000
      vertex  4.503197e+000  5.000000e+000 -3.591180e+000
      vertex  1.664161e+000  5.000000e+000 -4.388031e+000
    endloop
  endfacet
  facet normal  -0.000000e+000  1.000000e+000  0.000000e+000
    outer loop
      vertex  1.664161e+000  5.000000e+000 -4.388031e+000
      vertex  4.503197e+000  5.000000e+000 -3.591180e+000
      vertex  3.591180e+000  5.000000e+000 -4.503197e+000
    endloop
  endfacet
  facet normal  0.000000e+000  1.000000e+000  0.000000e+000
    outer loop
      vertex  1.664161e+000  5.000000e+000 -4.388031e+000
      vertex  3.591180e+000  5.000000e+000 -4.503197e+000
      vertex  5.656787e-001  5.000000e+000 -4.658783e+000
    endloop
  endfacet
  facet normal  -0.000000e+000  1.000000e+000  0.000000e+000
    outer loop
      vertex  5.656787e-001  5.000000e+000 -4.658783e+000
      vertex  3.591180e+000  5.000000e+000 -4.503197e+000
      vertex  2.499086e+000  5.000000e+000 -5.189405e+000
    endloop
  endfacet
  facet normal  0.000000e+000  1.000000e+000  0.000000e+000
    outer loop
      vertex -5.189405e+000  5.000000e+000  2.499086e+000
      vertex -4.155445e+000  5.000000e+000  2.180946e+000
      vertex -5.615395e+000  5.000000e+000  1.281677e+000
    endloop
  endfacet
  facet normal  -0.000000e+000  1.000000e+000  0.000000e+000
    outer loop
      vertex -5.615395e+000  5.000000e+000  1.281677e+000
      vertex -4.155445e+000  5.000000e+000  2.180946e+000
      vertex -4.556630e+000  5.000000e+000  1.123108e+000
    endloop
  endfacet
  facet normal  0.000000e+000  1.000000e+000  0.000000e+000
    outer loop
      vertex -5.615395e+000  5.000000e+000  1.281677e+000
      vertex -4.556630e+000  5.000000e+000  1.123108e+000
      vertex -5.759805e+000  5.000000e+000  0.000000e+000
    endloop
  endfacet
  facet normal  0.000000e+000  1.000000e+000  0.000000e+000
    outer loop
      vertex -5.759805e+000  5.000000e+000  0.000000e+000
      vertex -4.556630e+000  5.000000e+000  1.123108e+000
      vertex -4.693000e+000  5.000000e+000  0.000000e+000
    endloop
  endfacet
  facet normal  0.000000e+000  1.000000e+000  0.000000e+000
    outer loop
      vertex -5.759805e+000  5.000000e+000  0.000000e+000
      vertex -4.693000e+000  5.000000e+000  0.000000e+000
      vertex -5.615395e+000  5.000000e+000 -1.281677e+000
    endloop
  endfacet
  facet normal  0.000000e+000  1.000000e+000  0.000000e+000
    outer loop
      vertex -5.615395e+000  5.000000e+000 -1.281677e+000
      vertex -4.693000e+000  5.000000e+000  0.000000e+000
      vertex -4.556630e+000  5.000000e+000 -1.123108e+000
    endloop
  endfacet
  facet normal  0.000000e+000  1.000000e+000  0.000000e+000
    outer loop
      vertex -5.615395e+000  5.000000e+000 -1.281677e+000
      vertex -4.556630e+000  5.000000e+000 -1.123108e+000
      vertex -5.189405e+000  5.000000e+000 -2.499086e+000
    endloop
  endfacet
  facet normal  0.000000e+000  1.000000e+000  0.000000e+000
    outer loop
      vertex -5.189405e+000  5.000000e+000 -2.499086e+000
      vertex -4.556630e+000  5.000000e+000 -1.123108e+000
      vertex -4.155445e+000  5.000000e+000 -2.180946e+000
    endloop
  endfacet
  facet normal  0.000000e+000  1.000000e+000  0.000000e+000
    outer loop
      vertex -5.189405e+000  5.000000e+000 -2.499086e+000
      vertex -4.155445e+000  5.000000e+000 -2.180946e+000
      vertex -4.503197e+000  5.000000e+000 -3.591180e+000
    endloop
  endfacet
  facet normal  0.000000e+000  1.000000e+000  0.000000e+000
    outer loop
      vertex -4.503197e+000  5.000000e+000 -3.591180e+000
      vertex -4.155445e+000  5.000000e+000 -2.180946e+000
      vertex -3.512761e+000  5.000000e+000 -3.112035e+000
    endloop
  endfacet
  facet normal  0.000000e+000  1.000000e+000  0.000000e+000
    outer loop
      vertex -4.503197e+000  5.000000e+000 -3.591180e+000
      vertex -3.512761e+000  5.000000e+000 -3.112035e+000
      vertex -2.665928e+000  5.000000e+000 -3.862263e+000
    endloop
  endfacet
  facet normal  0.000000e+000 -1.000000e+000  -0.000000e+000
    outer loop
      vertex  5.656787e-001  0.000000e+000  4.658783e+000
      vertex -1.631620e-015  0.000000e+000  5.759805e+000
      vertex -5.656787e-001  0.000000e+000  4.658783e+000
    endloop
  endfacet
  facet normal  0.000000e+000 -1.000000e+000  0.000000e+000
    outer loop
      vertex  1.281677e+000  0.000000e+000 -5.615395e+000
      vertex  2.499086e+000  0.000000e+000 -5.189405e+000
      vertex  1.058059e-015  0.000000e+000 -5.759805e+000
    endloop
  endfacet
  facet normal  0.000000e+000 -9.999999e-001  0.000000e+000
    outer loop
      vertex -2.499086e+000  0.000000e+000 -5.189405e+000
      vertex -1.281677e+000  0.000000e+000 -5.615395e+000
      vertex  1.058059e-015  0.000000e+000 -5.759805e+000
    endloop
  endfacet
  facet normal  0.000000e+000 -1.000000e+000  -0.000000e+000
    outer loop
      vertex  2.499086e+000  0.000000e+000 -5.189405e+000
      vertex  5.656787e-001  0.000000e+000 -4.658783e+000
      vertex  1.058059e-015  0.000000e+000 -5.759805e+000
    endloop
  endfacet
  facet normal  0.000000e+000 -1.000000e+000  0.000000e+000
    outer loop
      vertex  1.058059e-015  0.000000e+000 -5.759805e+000
      vertex  5.656787e-001  0.000000e+000 -4.658783e+000
      vertex -5.656787e-001  0.000000e+000 -4.658783e+000
    endloop
  endfacet
  facet normal  0.000000e+000 -1.000000e+000  -0.000000e+000
    outer loop
      vertex  1.058059e-015  0.000000e+000 -5.759805e+000
      vertex -5.656787e-001  0.000000e+000 -4.658783e+000
      vertex -2.499086e+000  0.000000e+000 -5.189405e+000
    endloop
  endfacet
  facet normal  0.000000e+000 -1.000000e+000  0.000000e+000
    outer loop
      vertex -2.499086e+000  0.000000e+000 -5.189405e+000
      vertex -5.656787e-001  0.000000e+000 -4.658783e+000
      vertex -1.664161e+000  0.000000e+000 -4.388031e+000
    endloop
  endfacet
  facet normal  0.000000e+000 -1.000000e+000  0.000000e+000
    outer loop
      vertex -2.499086e+000  0.000000e+000 -5.189405e+000
      vertex -1.664161e+000  0.000000e+000 -4.388031e+000
      vertex -3.591180e+000  0.000000e+000 -4.503197e+000
    endloop
  endfacet
  facet normal  0.000000e+000 -9.999999e-001  0.000000e+000
    outer loop
      vertex -3.591180e+000  0.000000e+000 -4.503197e+000
      vertex -1.664161e+000  0.000000e+000 -4.388031e+000
      vertex -2.665928e+000  0.000000e+000 -3.862263e+000
    endloop
  endfacet
  facet normal  -0.000000e+000 -9.999999e-001  0.000000e+000
    outer loop
      vertex -3.591180e+000  0.000000e+000 -4.503197e+000
      vertex -2.665928e+000  0.000000e+000 -3.862263e+000
      vertex -4.503197e+000  0.000000e+000 -3.591180e+000
    endloop
  endfacet
  facet normal  -0.000000e+000 -1.000000e+000  0.000000e+000
    outer loop
      vertex  4.155445e+000  0.000000e+000  2.180946e+000
      vertex  5.189405e+000  0.000000e+000  2.499086e+000
      vertex  3.512761e+000  0.000000e+000  3.112035e+000
    endloop
  endfacet
  facet normal  0.000000e+000 -1.000000e+000  0.000000e+000
    outer loop
      vertex  3.512761e+000  0.000000e+000  3.112035e+000
      vertex  5.189405e+000  0.000000e+000  2.499086e+000
      vertex  4.503197e+000  0.000000e+000  3.591180e+000
    endloop
  endfacet
  facet normal  -0.000000e+000 -1.000000e+000  0.000000e+000
    outer loop
      vertex  3.512761e+000  0.000000e+000  3.112035e+000
      vertex  4.503197e+000  0.000000e+000  3.591180e+000
      vertex  2.665928e+000  0.000000e+000  3.862263e+000
    endloop
  endfacet
  facet normal  0.000000e+000 -9.999999e-001  0.000000e+000
    outer loop
      vertex  2.665928e+000  0.000000e+000  3.862263e+000
      vertex  4.503197e+000  0.000000e+000  3.591180e+000
      vertex  3.591180e+000  0.000000e+000  4.503197e+000
    endloop
  endfacet
  facet normal  0.000000e+000 -9.999999e-001  0.000000e+000
    outer loop
      vertex  2.665928e+000  0.000000e+000  3.862263e+000
      vertex  3.591180e+000  0.000000e+000  4.503197e+000
      vertex  1.664161e+000  0.000000e+000  4.388031e+000
    endloop
  endfacet
  facet normal  0.000000e+000 -1.000000e+000  0.000000e+000
    outer loop
      vertex  1.664161e+000  0.000000e+000  4.388031e+000
      vertex  3.591180e+000  0.000000e+000  4.503197e+000
      vertex  2.499086e+000  0.000000e+000  5.189405e+000
    endloop
  endfacet
  facet normal  0.000000e+000 -1.000000e+000  0.000000e+000
    outer loop
      vertex  1.664161e+000  0.000000e+000  4.388031e+000
      vertex  2.499086e+000  0.000000e+000  5.189405e+000
      vertex  5.656787e-001  0.000000e+000  4.658783e+000
    endloop
  endfacet
  facet normal  0.000000e+000 -9.999999e-001  0.000000e+000
    outer loop
      vertex  5.656787e-001  0.000000e+000  4.658783e+000
      vertex  2.499086e+000  0.000000e+000  5.189405e+000
      vertex  1.281677e+000  0.000000e+000  5.615395e+000
    endloop
  endfacet
  facet normal  -0.000000e+000 -1.000000e+000  0.000000e+000
    outer loop
      vertex  5.656787e-001  0.000000e+000  4.658783e+000
      vertex  1.281677e+000  0.000000e+000  5.615395e+000
      vertex -1.631620e-015  0.000000e+000  5.759805e+000
    endloop
  endfacet
  facet normal  0.000000e+000 -1.000000e+000  0.000000e+000
    outer loop
      vertex -4.155445e+000  0.000000e+000  2.180946e+000
      vertex -3.512761e+000  0.000000e+000  3.112035e+000
      vertex -5.189405e+000  0.000000e+000  2.499086e+000
    endloop
  endfacet
  facet normal  0.000000e+000 -9.999999e-001  0.000000e+000
    outer loop
      vertex -5.189405e+000  0.000000e+000  2.499086e+000
      vertex -3.512761e+000  0.000000e+000  3.112035e+000
      vertex -2.665928e+000  0.000000e+000  3.862263e+000
    endloop
  endfacet
  facet normal  0.000000e+000 -1.000000e+000  0.000000e+000
    outer loop
      vertex -5.189405e+000  0.000000e+000  2.499086e+000
      vertex -2.665928e+000  0.000000e+000  3.862263e+000
      vertex -4.503197e+000  0.000000e+000  3.591180e+000
    endloop
  endfacet
  facet normal  0.000000e+000 -9.999999e-001  0.000000e+000
    outer loop
      vertex -4.503197e+000  0.000000e+000  3.591180e+000
      vertex -2.665928e+000  0.000000e+000  3.862263e+000
      vertex -1.664161e+000  0.000000e+000  4.388031e+000
    endloop
  endfacet
  facet normal  -0.000000e+000 -1.000000e+000  0.000000e+000
    outer loop
      vertex -4.503197e+000  0.000000e+000  3.591180e+000
      vertex -1.664161e+000  0.000000e+000  4.388031e+000
      vertex -3.591180e+000  0.000000e+000  4.503197e+000
    endloop
  endfacet
  facet normal  0.000000e+000 -1.000000e+000  0.000000e+000
    outer loop
      vertex -3.591180e+000  0.000000e+000  4.503197e+000
      vertex -1.664161e+000  0.000000e+000  4.388031e+000
      vertex -5.656787e-001  0.000000e+000  4.658783e+000
    endloop
  endfacet
  facet normal  -0.000000e+000 -1.000000e+000  0.000000e+000
    outer loop
      vertex -3.591180e+000  0.000000e+000  4.503197e+000
      vertex -5.656787e-001  0.000000e+000  4.658783e+000
      vertex -2.499086e+000  0.000000e+000  5.189405e+000
    endloop
  endfacet
  facet normal  0.000000e+000 -1.000000e+000  0.000000e+000
    outer loop
      vertex -2.499086e+000  0.000000e+000  5.189405e+000
      vertex -5.656787e-001  0.000000e+000  4.658783e+000
      vertex -1.631620e-015  0.000000e+000  5.759805e+000
    endloop
  endfacet
  facet normal  0.000000e+000 -1.000000e+000  0.000000e+000
    outer loop
      vertex -2.499086e+000  0.000000e+000  5.189405e+000
      vertex -1.631620e-015  0.000000e+000  5.759805e+000
      vertex -1.281677e+000  0.000000e+000  5.615395e+000
    endloop
  endfacet
  facet normal  -0.000000e+000 -1.000000e+000  0.000000e+000
    outer loop
      vertex  2.665928e+000  0.000000e+000 -3.862263e+000
      vertex  4.503197e+000  0.000000e+000 -3.591180e+000
      vertex  3.512761e+000  0.000000e+000 -3.112035e+000
    endloop
  endfacet
  facet normal  0.000000e+000 -1.000000e+000  0.000000e+000
    outer loop
      vertex  3.512761e+000  0.000000e+000 -3.112035e+000
      vertex  4.503197e+000  0.000000e+000 -3.591180e+000
      vertex  5.189405e+000  0.000000e+000 -2.499086e+000
    endloop
  endfacet
  facet normal  -0.000000e+000 -1.000000e+000  0.000000e+000
    outer loop
      vertex  3.512761e+000  0.000000e+000 -3.112035e+000
      vertex  5.189405e+000  0.000000e+000 -2.499086e+000
      vertex  4.155445e+000  0.000000e+000 -2.180946e+000
    endloop
  endfacet
  facet normal  0.000000e+000 -1.000000e+000  0.000000e+000
    outer loop
      vertex  4.155445e+000  0.000000e+000 -2.180946e+000
      vertex  5.189405e+000  0.000000e+000 -2.499086e+000
      vertex  5.615395e+000  0.000000e+000 -1.281677e+000
    endloop
  endfacet
  facet normal  -0.000000e+000 -1.000000e+000  0.000000e+000
    outer loop
      vertex  4.155445e+000  0.000000e+000 -2.180946e+000
      vertex  5.615395e+000  0.000000e+000 -1.281677e+000
      vertex  4.556630e+000  0.000000e+000 -1.123108e+000
    endloop
  endfacet
  facet normal  0.000000e+000 -1.000000e+000  0.000000e+000
    outer loop
      vertex  4.556630e+000  0.000000e+000 -1.123108e+000
      vertex  5.615395e+000  0.000000e+000 -1.281677e+000
      vertex  5.759805e+000  0.000000e+000  3.263240e-015
    endloop
  endfacet
  facet normal  0.000000e+000 -1.000000e+000  0.000000e+000
    outer loop
      vertex  4.556630e+000  0.000000e+000 -1.123108e+000
      vertex  5.759805e+000  0.000000e+000  3.263240e-015
      vertex  4.693000e+000  0.000000e+000  5.747267e-016
    endloop
  endfacet
  facet normal  0.000000e+000 -1.000000e+000  0.000000e+000
    outer loop
      vertex  4.693000e+000  0.000000e+000  5.747267e-016
      vertex  5.759805e+000  0.000000e+000  3.263240e-015
      vertex  5.615395e+000  0.000000e+000  1.281677e+000
    endloop
  endfacet
  facet normal  0.000000e+000 -1.000000e+000  0.000000e+000
    outer loop
      vertex  4.693000e+000  0.000000e+000  5.747267e-016
      vertex  5.615395e+000  0.000000e+000  1.281677e+000
      vertex  4.556630e+000  0.000000e+000  1.123108e+000
    endloop
  endfacet
  facet normal  0.000000e+000 -1.000000e+000  0.000000e+000
    outer loop
      vertex  4.556630e+000  0.000000e+000  1.123108e+000
      vertex  5.615395e+000  0.000000e+000  1.281677e+000
      vertex  5.189405e+000  0.000000e+000  2.499086e+000
    endloop
  endfacet
  facet normal  0.000000e+000 -1.000000e+000  0.000000e+000
    outer loop
      vertex  4.556630e+000  0.000000e+000  1.123108e+000
      vertex  5.189405e+000  0.000000e+000  2.499086e+000
      vertex  4.155445e+000  0.000000e+000  2.180946e+000
    endloop
  endfacet
  facet normal  0.000000e+000 -9.999999e-001  0.000000e+000
    outer loop
      vertex  2.665928e+000  0.000000e+000 -3.862263e+000
      vertex  1.664161e+000  0.000000e+000 -4.388031e+000
      vertex  4.503197e+000  0.000000e+000 -3.591180e+000
    endloop
  endfacet
  facet normal  0.000000e+000 -1.000000e+000  0.000000e+000
    outer loop
      vertex  4.503197e+000  0.000000e+000 -3.591180e+000
      vertex  1.664161e+000  0.000000e+000 -4.388031e+000
      vertex  3.591180e+000  0.000000e+000 -4.503197e+000
    endloop
  endfacet
  facet normal  0.000000e+000 -9.999999e-001  0.000000e+000
    outer loop
      vertex  1.664161e+000  0.000000e+000 -4.388031e+000
      vertex  5.656787e-001  0.000000e+000 -4.658783e+000
      vertex  3.591180e+000  0.000000e+000 -4.503197e+000
    endloop
  endfacet
  facet normal  0.000000e+000 -1.000000e+000  0.000000e+000
    outer loop
      vertex  3.591180e+000  0.000000e+000 -4.503197e+000
      vertex  5.656787e-001  0.000000e+000 -4.658783e+000
      vertex  2.499086e+000  0.000000e+000 -5.189405e+000
    endloop
  endfacet
  facet normal  0.000000e+000 -1.000000e+000  -0.000000e+000
    outer loop
      vertex -2.665928e+000  0.000000e+000 -3.862263e+000
      vertex -3.512761e+000  0.000000e+000 -3.112035e+000
      vertex -4.503197e+000  0.000000e+000 -3.591180e+000
    endloop
  endfacet
  facet normal  0.000000e+000 -1.000000e+000  0.000000e+000
    outer loop
      vertex -4.503197e+000  0.000000e+000 -3.591180e+000
      vertex -3.512761e+000  0.000000e+000 -3.112035e+000
      vertex -4.155445e+000  0.000000e+000 -2.180946e+000
    endloop
  endfacet
  facet normal  0.000000e+000 -1.000000e+000  0.000000e+000
    outer loop
      vertex -4.503197e+000  0.000000e+000 -3.591180e+000
      vertex -4.155445e+000  0.000000e+000 -2.180946e+000
      vertex -5.189405e+000  0.000000e+000 -2.499086e+000
    endloop
  endfacet
  facet normal  0.000000e+000 -1.000000e+000  0.000000e+000
    outer loop
      vertex -5.189405e+000  0.000000e+000 -2.499086e+000
      vertex -4.155445e+000  0.000000e+000 -2.180946e+000
      vertex -4.556630e+000  0.000000e+000 -1.123108e+000
    endloop
  endfacet
  facet normal  0.000000e+000 -1.000000e+000  0.000000e+000
    outer loop
      vertex -5.189405e+000  0.000000e+000 -2.499086e+000
      vertex -4.556630e+000  0.000000e+000 -1.123108e+000
      vertex -5.615395e+000  0.000000e+000 -1.281677e+000
    endloop
  endfacet
  facet normal  0.000000e+000 -1.000000e+000  0.000000e+000
    outer loop
      vertex -5.615395e+000  0.000000e+000 -1.281677e+000
      vertex -4.556630e+000  0.000000e+000 -1.123108e+000
      vertex -4.693000e+000  0.000000e+000  0.000000e+000
    endloop
  endfacet
  facet normal  -0.000000e+000 -1.000000e+000  0.000000e+000
    outer loop
      vertex -5.615395e+000  0.000000e+000 -1.281677e+000
      vertex -4.693000e+000  0.000000e+000  0.000000e+000
      vertex -5.759805e+000  0.000000e+000  0.000000e+000
    endloop
  endfacet
  facet normal  0.000000e+000 -1.000000e+000  0.000000e+000
    outer loop
      vertex -5.759805e+000  0.000000e+000  0.000000e+000
      vertex -4.693000e+000  0.000000e+000  0.000000e+000
      vertex -4.556630e+000  0.000000e+000  1.123108e+000
    endloop
  endfacet
  facet normal  -0.000000e+000 -1.000000e+000  0.000000e+000
    outer loop
      vertex -5.759805e+000  0.000000e+000  0.000000e+000
      vertex -4.556630e+000  0.000000e+000  1.123108e+000
      vertex -5.615395e+000  0.000000e+000  1.281677e+000
    endloop
  endfacet
  facet normal  0.000000e+000 -1.000000e+000  0.000000e+000
    outer loop
      vertex -5.615395e+000  0.000000e+000  1.281677e+000
      vertex -4.556630e+000  0.000000e+000  1.123108e+000
      vertex -4.155445e+000  0.000000e+000  2.180946e+000
    endloop
  endfacet
  facet normal  -0.000000e+000 -1.000000e+000  0.000000e+000
    outer loop
      vertex -5.615395e+000  0.000000e+000  1.281677e+000
      vertex -4.155445e+000  0.000000e+000  2.180946e+000
      vertex -5.189405e+000  0.000000e+000  2.499086e+000
    endloop
  endfacet
  facet normal -2.393160e-001  -0.000000e+000 -9.709417e-001
    outer loop
      vertex  5.656787e-001  0.000000e+000  4.658783e+000
      vertex  1.664161e+000  5.000000e+000  4.388031e+000
      vertex  1.664161e+000  0.000000e+000  4.388031e+000
    endloop
  endfacet
  facet normal -4.647230e-001  0.000000e+000 -8.854560e-001
    outer loop
      vertex  1.664161e+000  0.000000e+000  4.388031e+000
      vertex  1.664161e+000  5.000000e+000  4.388031e+000
      vertex  2.665928e+000  5.000000e+000  3.862263e+000
    endloop
  endfacet
  facet normal -4.647230e-001  -0.000000e+000 -8.854560e-001
    outer loop
      vertex  1.664161e+000  0.000000e+000  4.388031e+000
      vertex  2.665928e+000  5.000000e+000  3.862263e+000
      vertex  2.665928e+000  0.000000e+000  3.862263e+000
    endloop
  endfacet
  facet normal -6.631227e-001  0.000000e+000 -7.485107e-001
    outer loop
      vertex  2.665928e+000  0.000000e+000  3.862263e+000
      vertex  2.665928e+000  5.000000e+000  3.862263e+000
      vertex  3.512761e+000  5.000000e+000  3.112035e+000
    endloop
  endfacet
  facet normal -6.631227e-001  -0.000000e+000 -7.485107e-001
    outer loop
      vertex  2.665928e+000  0.000000e+000  3.862263e+000
      vertex  3.512761e+000  5.000000e+000  3.112035e+000
      vertex  3.512761e+000  0.000000e+000  3.112035e+000
    endloop
  endfacet
  facet normal -8.229837e-001  0.000000e+000 -5.680648e-001
    outer loop
      vertex  3.512761e+000  0.000000e+000  3.112035e+000
      vertex  3.512761e+000  5.000000e+000  3.112035e+000
      vertex  4.155445e+000  5.000000e+000  2.180946e+000
    endloop
  endfacet
  facet normal -8.229837e-001  -0.000000e+000 -5.680648e-001
    outer loop
      vertex  3.512761e+000  0.000000e+000  3.112035e+000
      vertex  4.155445e+000  5.000000e+000  2.180946e+000
      vertex  4.155445e+000  0.000000e+000  2.180946e+000
    endloop
  endfacet
  facet normal -9.350162e-001  0.000000e+000 -3.546050e-001
    outer loop
      vertex  4.155445e+000  0.000000e+000  2.180946e+000
      vertex  4.155445e+000  5.000000e+000  2.180946e+000
      vertex  4.556630e+000  5.000000e+000  1.123108e+000
    endloop
  endfacet
  facet normal -9.350162e-001  -0.000000e+000 -3.546050e-001
    outer loop
      vertex  4.155445e+000  0.000000e+000  2.180946e+000
      vertex  4.556630e+000  5.000000e+000  1.123108e+000
      vertex  4.556630e+000  0.000000e+000  1.123108e+000
    endloop
  endfacet
  facet normal -9.927089e-001  0.000000e+000 -1.205364e-001
    outer loop
      vertex  4.556630e+000  0.000000e+000  1.123108e+000
      vertex  4.556630e+000  5.000000e+000  1.123108e+000
      vertex  4.693000e+000  5.000000e+000  5.747267e-016
    endloop
  endfacet
  facet normal -9.927089e-001  -0.000000e+000 -1.205364e-001
    outer loop
      vertex  4.556630e+000  0.000000e+000  1.123108e+000
      vertex  4.693000e+000  5.000000e+000  5.747267e-016
      vertex  4.693000e+000  0.000000e+000  5.747267e-016
    endloop
  endfacet
  facet normal -2.393160e-001  0.000000e+000 -9.709417e-001
    outer loop
      vertex  1.664161e+000  5.000000e+000  4.388031e+000
      vertex  5.656787e-001  0.000000e+000  4.658783e+000
      vertex  5.656787e-001  5.000000e+000  4.658783e+000
    endloop
  endfacet
  facet normal  0.000000e+000  -0.000000e+000 -9.999999e-001
    outer loop
      vertex  5.656787e-001  5.000000e+000  4.658783e+000
      vertex  5.656787e-001  0.000000e+000  4.658783e+000
      vertex -5.656787e-001  0.000000e+000  4.658783e+000
    endloop
  endfacet
  facet normal  0.000000e+000  0.000000e+000 -9.999999e-001
    outer loop
      vertex  5.656787e-001  5.000000e+000  4.658783e+000
      vertex -5.656787e-001  0.000000e+000  4.658783e+000
      vertex -5.656787e-001  5.000000e+000  4.658783e+000
    endloop
  endfacet
  facet normal  2.393160e-001  0.000000e+000 -9.709417e-001
    outer loop
      vertex -5.656787e-001  5.000000e+000  4.658783e+000
      vertex -5.656787e-001  0.000000e+000  4.658783e+000
      vertex -1.664161e+000  0.000000e+000  4.388031e+000
    endloop
  endfacet
  facet normal  2.393160e-001  0.000000e+000 -9.709417e-001
    outer loop
      vertex -5.656787e-001  5.000000e+000  4.658783e+000
      vertex -1.664161e+000  0.000000e+000  4.388031e+000
      vertex -1.664161e+000  5.000000e+000  4.388031e+000
    endloop
  endfacet
  facet normal  4.647230e-001  0.000000e+000 -8.854560e-001
    outer loop
      vertex -1.664161e+000  5.000000e+000  4.388031e+000
      vertex -1.664161e+000  0.000000e+000  4.388031e+000
      vertex -2.665928e+000  0.000000e+000  3.862263e+000
    endloop
  endfacet
  facet normal  4.647230e-001  0.000000e+000 -8.854560e-001
    outer loop
      vertex -1.664161e+000  5.000000e+000  4.388031e+000
      vertex -2.665928e+000  0.000000e+000  3.862263e+000
      vertex -2.665928e+000  5.000000e+000  3.862263e+000
    endloop
  endfacet
  facet normal  6.631227e-001  0.000000e+000 -7.485107e-001
    outer loop
      vertex -2.665928e+000  5.000000e+000  3.862263e+000
      vertex -2.665928e+000  0.000000e+000  3.862263e+000
      vertex -3.512761e+000  0.000000e+000  3.112035e+000
    endloop
  endfacet
  facet normal  6.631227e-001  0.000000e+000 -7.485107e-001
    outer loop
      vertex -2.665928e+000  5.000000e+000  3.862263e+000
      vertex -3.512761e+000  0.000000e+000  3.112035e+000
      vertex -3.512761e+000  5.000000e+000  3.112035e+000
    endloop
  endfacet
  facet normal  8.229837e-001  0.000000e+000 -5.680648e-001
    outer loop
      vertex -3.512761e+000  5.000000e+000  3.112035e+000
      vertex -3.512761e+000  0.000000e+000  3.112035e+000
      vertex -4.155445e+000  0.000000e+000  2.180946e+000
    endloop
  endfacet
  facet normal  8.229837e-001  0.000000e+000 -5.680648e-001
    outer loop
      vertex -3.512761e+000  5.000000e+000  3.112035e+000
      vertex -4.155445e+000  0.000000e+000  2.180946e+000
      vertex -4.155445e+000  5.000000e+000  2.180946e+000
    endloop
  endfacet
  facet normal  9.350162e-001  0.000000e+000 -3.546050e-001
    outer loop
      vertex -4.155445e+000  5.000000e+000  2.180946e+000
      vertex -4.155445e+000  0.000000e+000  2.180946e+000
      vertex -4.556630e+000  0.000000e+000  1.123108e+000
    endloop
  endfacet
  facet normal  9.350162e-001  0.000000e+000 -3.546050e-001
    outer loop
      vertex -4.155445e+000  5.000000e+000  2.180946e+000
      vertex -4.556630e+000  0.000000e+000  1.123108e+000
      vertex -4.556630e+000  5.000000e+000  1.123108e+000
    endloop
  endfacet
  facet normal  9.927089e-001  0.000000e+000 -1.205364e-001
    outer loop
      vertex -4.556630e+000  5.000000e+000  1.123108e+000
      vertex -4.556630e+000  0.000000e+000  1.123108e+000
      vertex -4.693000e+000  0.000000e+000  0.000000e+000
    endloop
  endfacet
  facet normal  9.927089e-001  0.000000e+000 -1.205364e-001
    outer loop
      vertex -4.556630e+000  5.000000e+000  1.123108e+000
      vertex -4.693000e+000  0.000000e+000  0.000000e+000
      vertex -4.693000e+000  5.000000e+000  0.000000e+000
    endloop
  endfacet
  facet normal  2.393160e-001  0.000000e+000  9.709417e-001
    outer loop
      vertex -5.656787e-001  0.000000e+000 -4.658783e+000
      vertex -1.664161e+000  5.000000e+000 -4.388031e+000
      vertex -1.664161e+000  0.000000e+000 -4.388031e+000
    endloop
  endfacet
  facet normal  4.647230e-001  -0.000000e+000  8.854560e-001
    outer loop
      vertex -1.664161e+000  0.000000e+000 -4.388031e+000
      vertex -1.664161e+000  5.000000e+000 -4.388031e+000
      vertex -2.665928e+000  5.000000e+000 -3.862263e+000
    endloop
  endfacet
  facet normal  4.647230e-001  0.000000e+000  8.854560e-001
    outer loop
      vertex -1.664161e+000  0.000000e+000 -4.388031e+000
      vertex -2.665928e+000  5.000000e+000 -3.862263e+000
      vertex -2.665928e+000  0.000000e+000 -3.862263e+000
    endloop
  endfacet
  facet normal  6.631227e-001  -0.000000e+000  7.485107e-001
    outer loop
      vertex -2.665928e+000  0.000000e+000 -3.862263e+000
      vertex -2.665928e+000  5.000000e+000 -3.862263e+000
      vertex -3.512761e+000  5.000000e+000 -3.112035e+000
    endloop
  endfacet
  facet normal  6.631227e-001  0.000000e+000  7.485107e-001
    outer loop
      vertex -2.665928e+000  0.000000e+000 -3.862263e+000
      vertex -3.512761e+000  5.000000e+000 -3.112035e+000
      vertex -3.512761e+000  0.000000e+000 -3.112035e+000
    endloop
  endfacet
  facet normal  8.229837e-001  -0.000000e+000  5.680648e-001
    outer loop
      vertex -3.512761e+000  0.000000e+000 -3.112035e+000
      vertex -3.512761e+000  5.000000e+000 -3.112035e+000
      vertex -4.155445e+000  5.000000e+000 -2.180946e+000
    endloop
  endfacet
  facet normal  8.229837e-001  0.000000e+000  5.680648e-001
    outer loop
      vertex -3.512761e+000  0.000000e+000 -3.112035e+000
      vertex -4.155445e+000  5.000000e+000 -2.180946e+000
      vertex -4.155445e+000  0.000000e+000 -2.180946e+000
    endloop
  endfacet
  facet normal  9.350162e-001  -0.000000e+000  3.546050e-001
    outer loop
      vertex -4.155445e+000  0.000000e+000 -2.180946e+000
      vertex -4.155445e+000  5.000000e+000 -2.180946e+000
      vertex -4.556630e+000  5.000000e+000 -1.123108e+000
    endloop
  endfacet
  facet normal  9.350162e-001  0.000000e+000  3.546050e-001
    outer loop
      vertex -4.155445e+000  0.000000e+000 -2.180946e+000
      vertex -4.556630e+000  5.000000e+000 -1.123108e+000
      vertex -4.556630e+000  0.000000e+000 -1.123108e+000
    endloop
  endfacet
  facet normal  9.927089e-001  -0.000000e+000  1.205364e-001
    outer loop
      vertex -4.556630e+000  0.000000e+000 -1.123108e+000
      vertex -4.556630e+000  5.000000e+000 -1.123108e+000
      vertex -4.693000e+000  5.000000e+000  0.000000e+000
    endloop
  endfacet
  facet normal  9.927089e-001  0.000000e+000  1.205364e-001
    outer loop
      vertex -4.556630e+000  0.000000e+000 -1.123108e+000
      vertex -4.693000e+000  5.000000e+000  0.000000e+000
      vertex -4.693000e+000  0.000000e+000  0.000000e+000
    endloop
  endfacet
  facet normal  2.393160e-001  -0.000000e+000  9.709417e-001
    outer loop
      vertex -1.664161e+000  5.000000e+000 -4.388031e+000
      vertex -5.656787e-001  0.000000e+000 -4.658783e+000
      vertex -5.656787e-001  5.000000e+000 -4.658783e+000
    endloop
  endfacet
  facet normal  0.000000e+000  0.000000e+000  9.999999e-001
    outer loop
      vertex -5.656787e-001  5.000000e+000 -4.658783e+000
      vertex -5.656787e-001  0.000000e+000 -4.658783e+000
      vertex  5.656787e-001  0.000000e+000 -4.658783e+000
    endloop
  endfacet
  facet normal  0.000000e+000  -0.000000e+000  9.999999e-001
    outer loop
      vertex -5.656787e-001  5.000000e+000 -4.658783e+000
      vertex  5.656787e-001  0.000000e+000 -4.658783e+000
      vertex  5.656787e-001  5.000000e+000 -4.658783e+000
    endloop
  endfacet
  facet normal -2.393160e-001  0.000000e+000  9.709417e-001
    outer loop
      vertex  5.656787e-001  5.000000e+000 -4.658783e+000
      vertex  5.656787e-001  0.000000e+000 -4.658783e+000
      vertex  1.664161e+000  0.000000e+000 -4.388031e+000
    endloop
  endfacet
  facet normal -2.393160e-001  0.000000e+000  9.709417e-001
    outer loop
      vertex  5.656787e-001  5.000000e+000 -4.658783e+000
      vertex  1.664161e+000  0.000000e+000 -4.388031e+000
      vertex  1.664161e+000  5.000000e+000 -4.388031e+000
    endloop
  endfacet
  facet normal -4.647230e-001  0.000000e+000  8.854560e-001
    outer loop
      vertex  1.664161e+000  5.000000e+000 -4.388031e+000
      vertex  1.664161e+000  0.000000e+000 -4.388031e+000
      vertex  2.665928e+000  0.000000e+000 -3.862263e+000
    endloop
  endfacet
  facet normal -4.647230e-001  0.000000e+000  8.854560e-001
    outer loop
      vertex  1.664161e+000  5.000000e+000 -4.388031e+000
      vertex  2.665928e+000  0.000000e+000 -3.862263e+000
      vertex  2.665928e+000  5.000000e+000 -3.862263e+000
    endloop
  endfacet
  facet normal -6.631227e-001  0.000000e+000  7.485107e-001
    outer loop
      vertex  2.665928e+000  5.000000e+000 -3.862263e+000
      vertex  2.665928e+000  0.000000e+000 -3.862263e+000
      vertex  3.512761e+000  0.000000e+000 -3.112035e+000
    endloop
  endfacet
  facet normal -6.631227e-001  0.000000e+000  7.485107e-001
    outer loop
      vertex  2.665928e+000  5.000000e+000 -3.862263e+000
      vertex  3.512761e+000  0.000000e+000 -3.112035e+000
      vertex  3.512761e+000  5.000000e+000 -3.112035e+000
    endloop
  endfacet
  facet normal -8.229837e-001  0.000000e+000  5.680648e-001
    outer loop
      vertex  3.512761e+000  5.000000e+000 -3.112035e+000
      vertex  3.512761e+000  0.000000e+000 -3.112035e+000
      vertex  4.155445e+000  0.000000e+000 -2.180946e+000
    endloop
  endfacet
  facet normal -8.229837e-001  0.000000e+000  5.680648e-001
    outer loop
      vertex  3.512761e+000  5.000000e+000 -3.112035e+000
      vertex  4.155445e+000  0.000000e+000 -2.180946e+000
      vertex  4.155445e+000  5.000000e+000 -2.180946e+000
    endloop
  endfacet
  facet normal -9.350162e-001  0.000000e+000  3.546050e-001
    outer loop
      vertex  4.155445e+000  5.000000e+000 -2.180946e+000
      vertex  4.155445e+000  0.000000e+000 -2.180946e+000
      vertex  4.556630e+000  0.000000e+000 -1.123108e+000
    endloop
  endfacet
  facet normal -9.350162e-001  0.000000e+000  3.546050e-001
    outer loop
      vertex  4.155445e+000  5.000000e+000 -2.180946e+000
      vertex  4.556630e+000  0.000000e+000 -1.123108e+000
      vertex  4.556630e+000  5.000000e+000 -1.123108e+000
    endloop
  endfacet
  facet normal -9.927089e-001  0.000000e+000  1.205364e-001
    outer loop
      vertex  4.556630e+000  5.000000e+000 -1.123108e+000
      vertex  4.556630e+000  0.000000e+000 -1.123108e+000
      vertex  4.693000e+000  0.000000e+000  5.747267e-016
    endloop
  endfacet
  facet normal -9.927089e-001  0.000000e+000  1.205364e-001
    outer loop
      vertex  4.556630e+000  5.000000e+000 -1.123108e+000
      vertex  4.693000e+000  0.000000e+000  5.747267e-016
      vertex  4.693000e+000  5.000000e+000  5.747267e-016
    endloop
  endfacet
  facet normal -9.937122e-001  -0.000000e+000 -1.119643e-001
    outer loop
      vertex -5.759805e+000  0.000000e+000  0.000000e+000
      vertex -5.759805e+000  5.000000e+000  0.000000e+000
      vertex -5.615395e+000  0.000000e+000 -1.281677e+000
    endloop
  endfacet
  facet normal -9.937122e-001  0.000000e+000 -1.119643e-001
    outer loop
      vertex -5.615395e+000  0.000000e+000 -1.281677e+000
      vertex -5.759805e+000  5.000000e+000  0.000000e+000
      vertex -5.615395e+000  5.000000e+000 -1.281677e+000
    endloop
  endfacet
  facet normal -9.438832e-001  -0.000000e+000 -3.302793e-001
    outer loop
      vertex -5.615395e+000  0.000000e+000 -1.281677e+000
      vertex -5.615395e+000  5.000000e+000 -1.281677e+000
      vertex -5.189405e+000  0.000000e+000 -2.499086e+000
    endloop
  endfacet
  facet normal -9.438832e-001  0.000000e+000 -3.302793e-001
    outer loop
      vertex -5.189405e+000  0.000000e+000 -2.499086e+000
      vertex -5.615395e+000  5.000000e+000 -1.281677e+000
      vertex -5.189405e+000  5.000000e+000 -2.499086e+000
    endloop
  endfacet
  facet normal -8.467242e-001  -0.000000e+000 -5.320318e-001
    outer loop
      vertex -5.189405e+000  0.000000e+000 -2.499086e+000
      vertex -5.189405e+000  5.000000e+000 -2.499086e+000
      vertex -4.503197e+000  0.000000e+000 -3.591180e+000
    endloop
  endfacet
  facet normal -8.467242e-001  0.000000e+000 -5.320318e-001
    outer loop
      vertex -4.503197e+000  0.000000e+000 -3.591180e+000
      vertex -5.189405e+000  5.000000e+000 -2.499086e+000
      vertex -4.503197e+000  5.000000e+000 -3.591180e+000
    endloop
  endfacet
  facet normal -7.071068e-001  -0.000000e+000 -7.071068e-001
    outer loop
      vertex -4.503197e+000  0.000000e+000 -3.591180e+000
      vertex -4.503197e+000  5.000000e+000 -3.591180e+000
      vertex -3.591180e+000  0.000000e+000 -4.503197e+000
    endloop
  endfacet
  facet normal -7.071068e-001  0.000000e+000 -7.071068e-001
    outer loop
      vertex -3.591180e+000  0.000000e+000 -4.503197e+000
      vertex -4.503197e+000  5.000000e+000 -3.591180e+000
      vertex -3.591180e+000  5.000000e+000 -4.503197e+000
    endloop
  endfacet
  facet normal -5.320318e-001  -0.000000e+000 -8.467242e-001
    outer loop
      vertex -3.591180e+000  0.000000e+000 -4.503197e+000
      vertex -3.591180e+000  5.000000e+000 -4.503197e+000
      vertex -2.499086e+000  0.000000e+000 -5.189405e+000
    endloop
  endfacet
  facet normal -5.320318e-001  0.000000e+000 -8.467242e-001
    outer loop
      vertex -2.499086e+000  0.000000e+000 -5.189405e+000
      vertex -3.591180e+000  5.000000e+000 -4.503197e+000
      vertex -2.499086e+000  5.000000e+000 -5.189405e+000
    endloop
  endfacet
  facet normal -3.302793e-001  -0.000000e+000 -9.438832e-001
    outer loop
      vertex -2.499086e+000  0.000000e+000 -5.189405e+000
      vertex -2.499086e+000  5.000000e+000 -5.189405e+000
      vertex -1.281677e+000  0.000000e+000 -5.615395e+000
    endloop
  endfacet
  facet normal -3.302793e-001  0.000000e+000 -9.438832e-001
    outer loop
      vertex -1.281677e+000  0.000000e+000 -5.615395e+000
      vertex -2.499086e+000  5.000000e+000 -5.189405e+000
      vertex -1.281677e+000  5.000000e+000 -5.615395e+000
    endloop
  endfacet
  facet normal -1.119643e-001  -0.000000e+000 -9.937122e-001
    outer loop
      vertex -1.281677e+000  0.000000e+000 -5.615395e+000
      vertex -1.281677e+000  5.000000e+000 -5.615395e+000
      vertex  1.058059e-015  0.000000e+000 -5.759805e+000
    endloop
  endfacet
  facet normal -1.119643e-001  0.000000e+000 -9.937122e-001
    outer loop
      vertex  1.058059e-015  0.000000e+000 -5.759805e+000
      vertex -1.281677e+000  5.000000e+000 -5.615395e+000
      vertex  1.058059e-015  5.000000e+000 -5.759805e+000
    endloop
  endfacet
  facet normal  1.119643e-001  0.000000e+000 -9.937122e-001
    outer loop
      vertex  1.058059e-015  0.000000e+000 -5.759805e+000
      vertex  1.058059e-015  5.000000e+000 -5.759805e+000
      vertex  1.281677e+000  0.000000e+000 -5.615395e+000
    endloop
  endfacet
  facet normal  1.119643e-001  0.000000e+000 -9.937122e-001
    outer loop
      vertex  1.281677e+000  0.000000e+000 -5.615395e+000
      vertex  1.058059e-015  5.000000e+000 -5.759805e+000
      vertex  1.281677e+000  5.000000e+000 -5.615395e+000
    endloop
  endfacet
  facet normal  3.302793e-001  0.000000e+000 -9.438832e-001
    outer loop
      vertex  1.281677e+000  0.000000e+000 -5.615395e+000
      vertex  1.281677e+000  5.000000e+000 -5.615395e+000
      vertex  2.499086e+000  0.000000e+000 -5.189405e+000
    endloop
  endfacet
  facet normal  3.302793e-001  0.000000e+000 -9.438832e-001
    outer loop
      vertex  2.499086e+000  0.000000e+000 -5.189405e+000
      vertex  1.281677e+000  5.000000e+000 -5.615395e+000
      vertex  2.499086e+000  5.000000e+000 -5.189405e+000
    endloop
  endfacet
  facet normal  5.320318e-001  0.000000e+000 -8.467242e-001
    outer loop
      vertex  2.499086e+000  0.000000e+000 -5.189405e+000
      vertex  2.499086e+000  5.000000e+000 -5.189405e+000
      vertex  3.591180e+000  0.000000e+000 -4.503197e+000
    endloop
  endfacet
  facet normal  5.320318e-001  0.000000e+000 -8.467242e-001
    outer loop
      vertex  3.591180e+000  0.000000e+000 -4.503197e+000
      vertex  2.499086e+000  5.000000e+000 -5.189405e+000
      vertex  3.591180e+000  5.000000e+000 -4.503197e+000
    endloop
  endfacet
  facet normal  7.071068e-001  0.000000e+000 -7.071068e-001
    outer loop
      vertex  3.591180e+000  0.000000e+000 -4.503197e+000
      vertex  3.591180e+000  5.000000e+000 -4.503197e+000
      vertex  4.503197e+000  0.000000e+000 -3.591180e+000
    endloop
  endfacet
  facet normal  7.071068e-001  0.000000e+000 -7.071068e-001
    outer loop
      vertex  4.503197e+000  0.000000e+000 -3.591180e+000
      vertex  3.591180e+000  5.000000e+000 -4.503197e+000
      vertex  4.503197e+000  5.000000e+000 -3.591180e+000
    endloop
  endfacet
  facet normal  8.467242e-001  0.000000e+000 -5.320318e-001
    outer loop
      vertex  4.503197e+000  0.000000e+000 -3.591180e+000
      vertex  4.503197e+000  5.000000e+000 -3.591180e+000
      vertex  5.189405e+000  0.000000e+000 -2.499086e+000
    endloop
  endfacet
  facet normal  8.467242e-001  0.000000e+000 -5.320318e-001
    outer loop
      vertex  5.189405e+000  0.000000e+000 -2.499086e+000
      vertex  4.503197e+000  5.000000e+000 -3.591180e+000
      vertex  5.189405e+000  5.000000e+000 -2.499086e+000
    endloop
  endfacet
  facet normal  9.438832e-001  0.000000e+000 -3.302793e-001
    outer loop
      vertex  5.189405e+000  0.000000e+000 -2.499086e+000
      vertex  5.189405e+000  5.000000e+000 -2.499086e+000
      vertex  5.615395e+000  0.000000e+000 -1.281677e+000
    endloop
  endfacet
  facet normal  9.438832e-001  0.000000e+000 -3.302793e-001
    outer loop
      vertex  5.615395e+000  0.000000e+000 -1.281677e+000
      vertex  5.189405e+000  5.000000e+000 -2.499086e+000
      vertex  5.615395e+000  5.000000e+000 -1.281677e+000
    endloop
  endfacet
  facet normal  9.937122e-001  0.000000e+000 -1.119643e-001
    outer loop
      vertex  5.615395e+000  0.000000e+000 -1.281677e+000
      vertex  5.615395e+000  5.000000e+000 -1.281677e+000
      vertex  5.759805e+000  0.000000e+000  3.263240e-015
    endloop
  endfacet
  facet normal  9.937122e-001  0.000000e+000 -1.119643e-001
    outer loop
      vertex  5.759805e+000  0.000000e+000  3.263240e-015
      vertex  5.615395e+000  5.000000e+000 -1.281677e+000
      vertex  5.759805e+000  5.000000e+000  3.263240e-015
    endloop
  endfacet
  facet normal  9.937122e-001  0.000000e+000  1.119643e-001
    outer loop
      vertex  5.759805e+000  0.000000e+000  3.263240e-015
      vertex  5.759805e+000  5.000000e+000  3.263240e-015
      vertex  5.615395e+000  0.000000e+000  1.281677e+000
    endloop
  endfacet
  facet normal  9.937122e-001  -0.000000e+000  1.119643e-001
    outer loop
      vertex  5.615395e+000  0.000000e+000  1.281677e+000
      vertex  5.759805e+000  5.000000e+000  3.263240e-015
      vertex  5.615395e+000  5.000000e+000  1.281677e+000
    endloop
  endfacet
  facet normal  9.438832e-001  0.000000e+000  3.302793e-001
    outer loop
      vertex  5.615395e+000  0.000000e+000  1.281677e+000
      vertex  5.615395e+000  5.000000e+000  1.281677e+000
      vertex  5.189405e+000  0.000000e+000  2.499086e+000
    endloop
  endfacet
  facet normal  9.438832e-001  -0.000000e+000  3.302793e-001
    outer loop
      vertex  5.189405e+000  0.000000e+000  2.499086e+000
      vertex  5.615395e+000  5.000000e+000  1.281677e+000
      vertex  5.189405e+000  5.000000e+000  2.499086e+000
    endloop
  endfacet
  facet normal  8.467242e-001  0.000000e+000  5.320318e-001
    outer loop
      vertex  5.189405e+000  0.000000e+000  2.499086e+000
      vertex  5.189405e+000  5.000000e+000  2.499086e+000
      vertex  4.503197e+000  0.000000e+000  3.591180e+000
    endloop
  endfacet
  facet normal  8.467242e-001  -0.000000e+000  5.320318e-001
    outer loop
      vertex  4.503197e+000  0.000000e+000  3.591180e+000
      vertex  5.189405e+000  5.000000e+000  2.499086e+000
      vertex  4.503197e+000  5.000000e+000  3.591180e+000
    endloop
  endfacet
  facet normal  7.071068e-001  0.000000e+000  7.071068e-001
    outer loop
      vertex  4.503197e+000  0.000000e+000  3.591180e+000
      vertex  4.503197e+000  5.000000e+000  3.591180e+000
      vertex  3.591180e+000  0.000000e+000  4.503197e+000
    endloop
  endfacet
  facet normal  7.071068e-001  -0.000000e+000  7.071068e-001
    outer loop
      vertex  3.591180e+000  0.000000e+000  4.503197e+000
      vertex  4.503197e+000  5.000000e+000  3.591180e+000
      vertex  3.591180e+000  5.000000e+000  4.503197e+000
    endloop
  endfacet
  facet normal  5.320318e-001  0.000000e+000  8.467242e-001
    outer loop
      vertex  3.591180e+000  0.000000e+000  4.503197e+000
      vertex  3.591180e+000  5.000000e+000  4.503197e+000
      vertex  2.499086e+000  0.000000e+000  5.189405e+000
    endloop
  endfacet
  facet normal  5.320318e-001  -0.000000e+000  8.467242e-001
    outer loop
      vertex  2.499086e+000  0.000000e+000  5.189405e+000
      vertex  3.591180e+000  5.000000e+000  4.503197e+000
      vertex  2.499086e+000  5.000000e+000  5.189405e+000
    endloop
  endfacet
  facet normal  3.302793e-001  0.000000e+000  9.438832e-001
    outer loop
      vertex  2.499086e+000  0.000000e+000  5.189405e+000
      vertex  2.499086e+000  5.000000e+000  5.189405e+000
      vertex  1.281677e+000  0.000000e+000  5.615395e+000
    endloop
  endfacet
  facet normal  3.302793e-001  -0.000000e+000  9.438832e-001
    outer loop
      vertex  1.281677e+000  0.000000e+000  5.615395e+000
      vertex  2.499086e+000  5.000000e+000  5.189405e+000
      vertex  1.281677e+000  5.000000e+000  5.615395e+000
    endloop
  endfacet
  facet normal  1.119643e-001  0.000000e+000  9.937122e-001
    outer loop
      vertex  1.281677e+000  0.000000e+000  5.615395e+000
      vertex  1.281677e+000  5.000000e+000  5.615395e+000
      vertex -1.631620e-015  0.000000e+000  5.759805e+000
    endloop
  endfacet
  facet normal  1.119643e-001  -0.000000e+000  9.937122e-001
    outer loop
      vertex -1.631620e-015  0.000000e+000  5.759805e+000
      vertex  1.281677e+000  5.000000e+000  5.615395e+000
      vertex -1.631620e-015  5.000000e+000  5.759805e+000
    endloop
  endfacet
  facet normal -1.119643e-001  0.000000e+000  9.937122e-001
    outer loop
      vertex -1.631620e-015  0.000000e+000  5.759805e+000
      vertex -1.631620e-015  5.000000e+000  5.759805e+000
      vertex -1.281677e+000  0.000000e+000  5.615395e+000
    endloop
  endfacet
  facet normal -1.119643e-001  0.000000e+000  9.937122e-001
    outer loop
      vertex -1.281677e+000  0.000000e+000  5.615395e+000
      vertex -1.631620e-015  5.000000e+000  5.759805e+000
      vertex -1.281677e+000  5.000000e+000  5.615395e+000
    endloop
  endfacet
  facet normal -3.302793e-001  0.000000e+000  9.438832e-001
    outer loop
      vertex -1.281677e+000  0.000000e+000  5.615395e+000
      vertex -1.281677e+000  5.000000e+000  5.615395e+000
      vertex -2.499086e+000  0.000000e+000  5.189405e+000
    endloop
  endfacet
  facet normal -3.302793e-001  0.000000e+000  9.438832e-001
    outer loop
      vertex -2.499086e+000  0.000000e+000  5.189405e+000
      vertex -1.281677e+000  5.000000e+000  5.615395e+000
      vertex -2.499086e+000  5.000000e+000  5.189405e+000
    endloop
  endfacet
  facet normal -5.320318e-001  0.000000e+000  8.467242e-001
    outer loop
      vertex -2.499086e+000  0.000000e+000  5.189405e+000
      vertex -2.499086e+000  5.000000e+000  5.189405e+000
      vertex -3.591180e+000  0.000000e+000  4.503197e+000
    endloop
  endfacet
  facet normal -5.320318e-001  0.000000e+000  8.467242e-001
    outer loop
      vertex -3.591180e+000  0.000000e+000  4.503197e+000
      vertex -2.499086e+000  5.000000e+000  5.189405e+000
      vertex -3.591180e+000  5.000000e+000  4.503197e+000
    endloop
  endfacet
  facet normal -7.071068e-001  0.000000e+000  7.071068e-001
    outer loop
      vertex -3.591180e+000  0.000000e+000  4.503197e+000
      vertex -3.591180e+000  5.000000e+000  4.503197e+000
      vertex -4.503197e+000  0.000000e+000  3.591180e+000
    endloop
  endfacet
  facet normal -7.071068e-001  0.000000e+000  7.071068e-001
    outer loop
      vertex -4.503197e+000  0.000000e+000  3.591180e+000
      vertex -3.591180e+000  5.000000e+000  4.503197e+000
      vertex -4.503197e+000  5.000000e+000  3.591180e+000
    endloop
  endfacet
  facet normal -8.467242e-001  0.000000e+000  5.320318e-001
    outer loop
      vertex -4.503197e+000  0.000000e+000  3.591180e+000
      vertex -4.503197e+000  5.000000e+000  3.591180e+000
      vertex -5.189405e+000  0.000000e+000  2.499086e+000
    endloop
  endfacet
  facet normal -8.467242e-001  0.000000e+000  5.320318e-001
    outer loop
      vertex -5.189405e+000  0.000000e+000  2.499086e+000
      vertex -4.503197e+000  5.000000e+000  3.591180e+000
      vertex -5.189405e+000  5.000000e+000  2.499086e+000
    endloop
  endfacet
  facet normal -9.438832e-001  0.000000e+000  3.302793e-001
    outer loop
      vertex -5.189405e+000  0.000000e+000  2.499086e+000
      vertex -5.189405e+000  5.000000e+000  2.499086e+000
      vertex -5.615395e+000  0.000000e+000  1.281677e+000
    endloop
  endfacet
  facet normal -9.438832e-001  0.000000e+000  3.302793e-001
    outer loop
      vertex -5.615395e+000  0.000000e+000  1.281677e+000
      vertex -5.189405e+000  5.000000e+000  2.499086e+000
      vertex -5.615395e+000  5.000000e+000  1.281677e+000
    endloop
  endfacet
  facet normal -9.937122e-001  0.000000e+000  1.119643e-001
    outer loop
      vertex -5.615395e+000  0.000000e+000  1.281677e+000
      vertex -5.615395e+000  5.000000e+000  1.281677e+000
      vertex -5.759805e+000  0.000000e+000  0.000000e+000
    endloop
  endfacet
  facet normal -9.937122e-001  0.000000e+000  1.119643e-001
    outer loop
      vertex -5.759805e+000  0.000000e+000  0.000000e+000
      vertex -5.615395e+000  5.000000e+000  1.281677e+000
      vertex -5.759805e+000  5.000000e+000  0.000000e+000
    endloop
  endfacet
endsolid CATIA STL
