solid CATIA STL
  facet normal  1.377728e-015  1.836970e-015  1.000000e+000
    outer loop
      vertex  0.000000e+000 -1.125000e+002  1.377728e-014
      vertex  1.000000e+001 -1.125000e+002  0.000000e+000
      vertex  0.000000e+000 -1.050000e+002  0.000000e+000
    endloop
  endfacet
  facet normal  -0.000000e+000  0.000000e+000  1.000000e+000
    outer loop
      vertex  0.000000e+000 -1.050000e+002  0.000000e+000
      vertex  1.000000e+001 -1.125000e+002  0.000000e+000
      vertex  1.000000e+001 -1.050000e+002  0.000000e+000
    endloop
  endfacet
  facet normal  1.000000e+000  0.000000e+000  -0.000000e+000
    outer loop
      vertex  1.000000e+001 -1.606396e+002 -8.338017e+001
      vertex  1.000000e+001 -1.550000e+002 -8.660254e+001
      vertex  1.000000e+001 -1.125000e+002  0.000000e+000
    endloop
  endfacet
  facet normal  1.000000e+000  -0.000000e+000  0.000000e+000
    outer loop
      vertex  1.000000e+001 -1.125000e+002  0.000000e+000
      vertex  1.000000e+001 -1.550000e+002 -8.660254e+001
      vertex  1.000000e+001 -1.050000e+002  0.000000e+000
    endloop
  endfacet
  facet normal -1.000000e+000  0.000000e+000  0.000000e+000
    outer loop
      vertex  0.000000e+000 -1.606396e+002 -8.338017e+001
      vertex  0.000000e+000 -1.125000e+002  1.377728e-014
      vertex  0.000000e+000 -1.550000e+002 -8.660254e+001
    endloop
  endfacet
  facet normal -1.000000e+000  0.000000e+000  0.000000e+000
    outer loop
      vertex  0.000000e+000 -1.550000e+002 -8.660254e+001
      vertex  0.000000e+000 -1.125000e+002  1.377728e-014
      vertex  0.000000e+000 -1.050000e+002  0.000000e+000
    endloop
  endfacet
  facet normal  0.000000e+000  8.660254e-001 -5.000000e-001
    outer loop
      vertex  1.000000e+001 -1.050000e+002  0.000000e+000
      vertex  1.000000e+001 -1.550000e+002 -8.660254e+001
      vertex  0.000000e+000 -1.050000e+002  0.000000e+000
    endloop
  endfacet
  facet normal  0.000000e+000  8.660254e-001 -5.000000e-001
    outer loop
      vertex  0.000000e+000 -1.050000e+002  0.000000e+000
      vertex  1.000000e+001 -1.550000e+002 -8.660254e+001
      vertex  0.000000e+000 -1.550000e+002 -8.660254e+001
    endloop
  endfacet
  facet normal  6.888638e-016 -8.660253e-001  5.000000e-001
    outer loop
      vertex  1.000000e+001 -1.125000e+002  0.000000e+000
      vertex  0.000000e+000 -1.125000e+002  1.377728e-014
      vertex  1.000000e+001 -1.606396e+002 -8.338017e+001
    endloop
  endfacet
  facet normal  0.000000e+000 -8.660253e-001  5.000000e-001
    outer loop
      vertex  1.000000e+001 -1.606396e+002 -8.338017e+001
      vertex  0.000000e+000 -1.125000e+002  1.377728e-014
      vertex  0.000000e+000 -1.606396e+002 -8.338017e+001
    endloop
  endfacet
  facet normal  -0.000000e+000 -4.961103e-001 -8.682594e-001
    outer loop
      vertex  0.000000e+000 -1.550000e+002 -8.660254e+001
      vertex  1.000000e+001 -1.550000e+002 -8.660254e+001
      vertex  0.000000e+000 -1.606396e+002 -8.338017e+001
    endloop
  endfacet
  facet normal  0.000000e+000 -4.961103e-001 -8.682594e-001
    outer loop
      vertex  0.000000e+000 -1.606396e+002 -8.338017e+001
      vertex  1.000000e+001 -1.550000e+002 -8.660254e+001
      vertex  1.000000e+001 -1.606396e+002 -8.338017e+001
    endloop
  endfacet
endsolid CATIA STL
