solid CATIA STL
  facet normal  0.000000e+000  0.000000e+000  1.000000e+000
    outer loop
      vertex -4.000000e+001 -1.290000e+001 -6.200000e+001
      vertex -4.835000e+001  1.421085e-014 -6.200000e+001
      vertex -7.000000e+001 -1.290000e+001 -6.200000e+001
    endloop
  endfacet
  facet normal  0.000000e+000  0.000000e+000  1.000000e+000
    outer loop
      vertex -7.000000e+001 -1.290000e+001 -6.200000e+001
      vertex -4.835000e+001  1.421085e-014 -6.200000e+001
      vertex -6.535000e+001  1.776357e-014 -6.200000e+001
    endloop
  endfacet
  facet normal  0.000000e+000  0.000000e+000  1.000000e+000
    outer loop
      vertex -7.000000e+001 -1.290000e+001 -6.200000e+001
      vertex -6.535000e+001  1.776357e-014 -6.200000e+001
      vertex -7.000000e+001  2.790000e+001 -6.200000e+001
    endloop
  endfacet
  facet normal  0.000000e+000  0.000000e+000  1.000000e+000
    outer loop
      vertex -7.000000e+001  2.790000e+001 -6.200000e+001
      vertex -6.535000e+001  1.776357e-014 -6.200000e+001
      vertex -6.535000e+001  1.500000e+001 -6.200000e+001
    endloop
  endfacet
  facet normal  0.000000e+000  -0.000000e+000  1.000000e+000
    outer loop
      vertex -7.000000e+001  2.790000e+001 -6.200000e+001
      vertex -6.535000e+001  1.500000e+001 -6.200000e+001
      vertex -4.000000e+001  2.790000e+001 -6.200000e+001
    endloop
  endfacet
  facet normal  0.000000e+000  0.000000e+000  1.000000e+000
    outer loop
      vertex -4.000000e+001  2.790000e+001 -6.200000e+001
      vertex -6.535000e+001  1.500000e+001 -6.200000e+001
      vertex -4.835000e+001  1.500000e+001 -6.200000e+001
    endloop
  endfacet
  facet normal  -0.000000e+000  0.000000e+000  1.000000e+000
    outer loop
      vertex -4.000000e+001  2.790000e+001 -6.200000e+001
      vertex -4.835000e+001  1.500000e+001 -6.200000e+001
      vertex -4.000000e+001 -1.290000e+001 -6.200000e+001
    endloop
  endfacet
  facet normal  0.000000e+000  0.000000e+000  1.000000e+000
    outer loop
      vertex -4.000000e+001 -1.290000e+001 -6.200000e+001
      vertex -4.835000e+001  1.500000e+001 -6.200000e+001
      vertex -4.835000e+001  1.421085e-014 -6.200000e+001
    endloop
  endfacet
  facet normal  0.000000e+000 -9.999999e-001  0.000000e+000
    outer loop
      vertex -7.000000e+001 -1.290000e+001 -8.000000e+001
      vertex -4.300000e+001 -1.290000e+001 -8.000000e+001
      vertex -7.000000e+001 -1.290000e+001 -6.200000e+001
    endloop
  endfacet
  facet normal  0.000000e+000 -1.000000e+000  0.000000e+000
    outer loop
      vertex -7.000000e+001 -1.290000e+001 -6.200000e+001
      vertex -4.300000e+001 -1.290000e+001 -8.000000e+001
      vertex -4.000000e+001 -1.290000e+001 -6.200000e+001
    endloop
  endfacet
  facet normal  0.000000e+000 -1.000000e+000  0.000000e+000
    outer loop
      vertex -4.300000e+001 -1.290000e+001 -8.000000e+001
      vertex -4.300000e+001 -1.290000e+001 -8.250000e+001
      vertex -4.000000e+001 -1.290000e+001 -6.200000e+001
    endloop
  endfacet
  facet normal  0.000000e+000 -9.999999e-001  -0.000000e+000
    outer loop
      vertex -4.000000e+001 -1.290000e+001 -6.200000e+001
      vertex -4.300000e+001 -1.290000e+001 -8.250000e+001
      vertex -4.000000e+001 -1.290000e+001 -8.250000e+001
    endloop
  endfacet
  facet normal  1.000000e+000  0.000000e+000  0.000000e+000
    outer loop
      vertex -4.000000e+001  2.790000e+001 -8.250000e+001
      vertex -4.000000e+001  1.100000e+001 -7.700000e+001
      vertex -4.000000e+001 -1.290000e+001 -8.250000e+001
    endloop
  endfacet
  facet normal  9.999999e-001  0.000000e+000  0.000000e+000
    outer loop
      vertex -4.000000e+001 -1.290000e+001 -8.250000e+001
      vertex -4.000000e+001  1.100000e+001 -7.700000e+001
      vertex -4.000000e+001  6.000000e+000 -7.700000e+001
    endloop
  endfacet
  facet normal  1.000000e+000  0.000000e+000  0.000000e+000
    outer loop
      vertex -4.000000e+001 -1.290000e+001 -8.250000e+001
      vertex -4.000000e+001  6.000000e+000 -7.700000e+001
      vertex -4.000000e+001 -1.290000e+001 -6.200000e+001
    endloop
  endfacet
  facet normal  9.999999e-001  0.000000e+000  0.000000e+000
    outer loop
      vertex -4.000000e+001 -1.290000e+001 -6.200000e+001
      vertex -4.000000e+001  6.000000e+000 -7.700000e+001
      vertex -4.000000e+001  6.000000e+000 -6.900000e+001
    endloop
  endfacet
  facet normal  1.000000e+000  0.000000e+000  -0.000000e+000
    outer loop
      vertex -4.000000e+001 -1.290000e+001 -6.200000e+001
      vertex -4.000000e+001  6.000000e+000 -6.900000e+001
      vertex -4.000000e+001  2.790000e+001 -6.200000e+001
    endloop
  endfacet
  facet normal  1.000000e+000  0.000000e+000  0.000000e+000
    outer loop
      vertex -4.000000e+001  2.790000e+001 -6.200000e+001
      vertex -4.000000e+001  6.000000e+000 -6.900000e+001
      vertex -4.000000e+001  1.100000e+001 -6.900000e+001
    endloop
  endfacet
  facet normal  1.000000e+000  -0.000000e+000  0.000000e+000
    outer loop
      vertex -4.000000e+001  2.790000e+001 -6.200000e+001
      vertex -4.000000e+001  1.100000e+001 -6.900000e+001
      vertex -4.000000e+001  2.790000e+001 -8.250000e+001
    endloop
  endfacet
  facet normal  1.000000e+000  0.000000e+000  0.000000e+000
    outer loop
      vertex -4.000000e+001  2.790000e+001 -8.250000e+001
      vertex -4.000000e+001  1.100000e+001 -6.900000e+001
      vertex -4.000000e+001  1.100000e+001 -7.700000e+001
    endloop
  endfacet
  facet normal  0.000000e+000  1.000000e+000  0.000000e+000
    outer loop
      vertex -7.000000e+001  2.790000e+001 -6.200000e+001
      vertex -4.000000e+001  2.790000e+001 -6.200000e+001
      vertex -7.000000e+001  2.790000e+001 -8.000000e+001
    endloop
  endfacet
  facet normal  0.000000e+000  9.999999e-001  0.000000e+000
    outer loop
      vertex -7.000000e+001  2.790000e+001 -8.000000e+001
      vertex -4.000000e+001  2.790000e+001 -6.200000e+001
      vertex -4.300000e+001  2.790000e+001 -8.000000e+001
    endloop
  endfacet
  facet normal  0.000000e+000  9.999999e-001  -0.000000e+000
    outer loop
      vertex -4.000000e+001  2.790000e+001 -6.200000e+001
      vertex -4.000000e+001  2.790000e+001 -8.250000e+001
      vertex -4.300000e+001  2.790000e+001 -8.000000e+001
    endloop
  endfacet
  facet normal  0.000000e+000  1.000000e+000  0.000000e+000
    outer loop
      vertex -4.300000e+001  2.790000e+001 -8.000000e+001
      vertex -4.000000e+001  2.790000e+001 -8.250000e+001
      vertex -4.300000e+001  2.790000e+001 -8.250000e+001
    endloop
  endfacet
  facet normal  1.000000e+000  -0.000000e+000  0.000000e+000
    outer loop
      vertex -6.535000e+001  1.500000e+001 -6.200000e+001
      vertex -6.535000e+001  1.100000e+001 -7.700000e+001
      vertex -6.535000e+001  1.500000e+001 -8.000000e+001
    endloop
  endfacet
  facet normal  1.000000e+000  0.000000e+000  0.000000e+000
    outer loop
      vertex -6.535000e+001  1.500000e+001 -8.000000e+001
      vertex -6.535000e+001  1.100000e+001 -7.700000e+001
      vertex -6.535000e+001  6.000000e+000 -7.700000e+001
    endloop
  endfacet
  facet normal  1.000000e+000  0.000000e+000  0.000000e+000
    outer loop
      vertex -6.535000e+001  1.500000e+001 -8.000000e+001
      vertex -6.535000e+001  6.000000e+000 -7.700000e+001
      vertex -6.535000e+001  1.687539e-014 -8.000000e+001
    endloop
  endfacet
  facet normal  1.000000e+000  0.000000e+000  0.000000e+000
    outer loop
      vertex -6.535000e+001  1.100000e+001 -7.700000e+001
      vertex -6.535000e+001  1.500000e+001 -6.200000e+001
      vertex -6.535000e+001  1.100000e+001 -6.900000e+001
    endloop
  endfacet
  facet normal  1.000000e+000  0.000000e+000  -0.000000e+000
    outer loop
      vertex -6.535000e+001  1.100000e+001 -6.900000e+001
      vertex -6.535000e+001  1.500000e+001 -6.200000e+001
      vertex -6.535000e+001  1.776357e-014 -6.200000e+001
    endloop
  endfacet
  facet normal  1.000000e+000  0.000000e+000  0.000000e+000
    outer loop
      vertex -6.535000e+001  1.100000e+001 -6.900000e+001
      vertex -6.535000e+001  1.776357e-014 -6.200000e+001
      vertex -6.535000e+001  6.000000e+000 -6.900000e+001
    endloop
  endfacet
  facet normal  1.000000e+000  0.000000e+000  0.000000e+000
    outer loop
      vertex -6.535000e+001  6.000000e+000 -6.900000e+001
      vertex -6.535000e+001  1.776357e-014 -6.200000e+001
      vertex -6.535000e+001  1.687539e-014 -8.000000e+001
    endloop
  endfacet
  facet normal  1.000000e+000  0.000000e+000  0.000000e+000
    outer loop
      vertex -6.535000e+001  6.000000e+000 -6.900000e+001
      vertex -6.535000e+001  1.687539e-014 -8.000000e+001
      vertex -6.535000e+001  6.000000e+000 -7.700000e+001
    endloop
  endfacet
  facet normal  2.089832e-016  1.000000e+000 -7.894919e-016
    outer loop
      vertex -4.835000e+001  1.421085e-014 -6.200000e+001
      vertex -4.835000e+001  0.000000e+000 -8.000000e+001
      vertex -6.535000e+001  1.776357e-014 -6.200000e+001
    endloop
  endfacet
  facet normal  9.926700e-016  1.000000e+000 -4.934325e-017
    outer loop
      vertex -6.535000e+001  1.776357e-014 -6.200000e+001
      vertex -4.835000e+001  0.000000e+000 -8.000000e+001
      vertex -6.535000e+001  1.687539e-014 -8.000000e+001
    endloop
  endfacet
  facet normal -1.000000e+000  -0.000000e+000  0.000000e+000
    outer loop
      vertex -4.835000e+001  1.421085e-014 -6.200000e+001
      vertex -4.835000e+001  6.000000e+000 -7.700000e+001
      vertex -4.835000e+001  0.000000e+000 -8.000000e+001
    endloop
  endfacet
  facet normal -1.000000e+000  0.000000e+000  0.000000e+000
    outer loop
      vertex -4.835000e+001  0.000000e+000 -8.000000e+001
      vertex -4.835000e+001  6.000000e+000 -7.700000e+001
      vertex -4.835000e+001  1.100000e+001 -7.700000e+001
    endloop
  endfacet
  facet normal -1.000000e+000  0.000000e+000  -0.000000e+000
    outer loop
      vertex -4.835000e+001  0.000000e+000 -8.000000e+001
      vertex -4.835000e+001  1.100000e+001 -7.700000e+001
      vertex -4.835000e+001  1.500000e+001 -8.000000e+001
    endloop
  endfacet
  facet normal -1.000000e+000  0.000000e+000  0.000000e+000
    outer loop
      vertex -4.835000e+001  6.000000e+000 -7.700000e+001
      vertex -4.835000e+001  1.421085e-014 -6.200000e+001
      vertex -4.835000e+001  6.000000e+000 -6.900000e+001
    endloop
  endfacet
  facet normal -1.000000e+000  0.000000e+000  0.000000e+000
    outer loop
      vertex -4.835000e+001  6.000000e+000 -6.900000e+001
      vertex -4.835000e+001  1.421085e-014 -6.200000e+001
      vertex -4.835000e+001  1.500000e+001 -6.200000e+001
    endloop
  endfacet
  facet normal -1.000000e+000  0.000000e+000  0.000000e+000
    outer loop
      vertex -4.835000e+001  6.000000e+000 -6.900000e+001
      vertex -4.835000e+001  1.500000e+001 -6.200000e+001
      vertex -4.835000e+001  1.100000e+001 -6.900000e+001
    endloop
  endfacet
  facet normal -1.000000e+000  0.000000e+000  0.000000e+000
    outer loop
      vertex -4.835000e+001  1.100000e+001 -6.900000e+001
      vertex -4.835000e+001  1.500000e+001 -6.200000e+001
      vertex -4.835000e+001  1.500000e+001 -8.000000e+001
    endloop
  endfacet
  facet normal -1.000000e+000  0.000000e+000  0.000000e+000
    outer loop
      vertex -4.835000e+001  1.100000e+001 -6.900000e+001
      vertex -4.835000e+001  1.500000e+001 -8.000000e+001
      vertex -4.835000e+001  1.100000e+001 -7.700000e+001
    endloop
  endfacet
  facet normal  0.000000e+000 -1.000000e+000  0.000000e+000
    outer loop
      vertex -6.535000e+001  1.500000e+001 -6.200000e+001
      vertex -6.535000e+001  1.500000e+001 -8.000000e+001
      vertex -4.835000e+001  1.500000e+001 -6.200000e+001
    endloop
  endfacet
  facet normal  0.000000e+000 -1.000000e+000  -0.000000e+000
    outer loop
      vertex -4.835000e+001  1.500000e+001 -6.200000e+001
      vertex -6.535000e+001  1.500000e+001 -8.000000e+001
      vertex -4.835000e+001  1.500000e+001 -8.000000e+001
    endloop
  endfacet
  facet normal -1.000000e+000  -0.000000e+000  0.000000e+000
    outer loop
      vertex -7.000000e+001 -1.290000e+001 -6.200000e+001
      vertex -7.000000e+001  6.000000e+000 -6.900000e+001
      vertex -7.000000e+001 -1.290000e+001 -8.000000e+001
    endloop
  endfacet
  facet normal -9.999999e-001  0.000000e+000  0.000000e+000
    outer loop
      vertex -7.000000e+001 -1.290000e+001 -8.000000e+001
      vertex -7.000000e+001  6.000000e+000 -6.900000e+001
      vertex -7.000000e+001  6.000000e+000 -7.700000e+001
    endloop
  endfacet
  facet normal -1.000000e+000  0.000000e+000  -0.000000e+000
    outer loop
      vertex -7.000000e+001 -1.290000e+001 -8.000000e+001
      vertex -7.000000e+001  6.000000e+000 -7.700000e+001
      vertex -7.000000e+001  2.790000e+001 -8.000000e+001
    endloop
  endfacet
  facet normal -1.000000e+000  0.000000e+000  0.000000e+000
    outer loop
      vertex -7.000000e+001  2.790000e+001 -8.000000e+001
      vertex -7.000000e+001  6.000000e+000 -7.700000e+001
      vertex -7.000000e+001  1.100000e+001 -7.700000e+001
    endloop
  endfacet
  facet normal -1.000000e+000  0.000000e+000  0.000000e+000
    outer loop
      vertex -7.000000e+001  2.790000e+001 -8.000000e+001
      vertex -7.000000e+001  1.100000e+001 -7.700000e+001
      vertex -7.000000e+001  2.790000e+001 -6.200000e+001
    endloop
  endfacet
  facet normal -1.000000e+000  0.000000e+000  0.000000e+000
    outer loop
      vertex -7.000000e+001  2.790000e+001 -6.200000e+001
      vertex -7.000000e+001  1.100000e+001 -7.700000e+001
      vertex -7.000000e+001  1.100000e+001 -6.900000e+001
    endloop
  endfacet
  facet normal -1.000000e+000  0.000000e+000  0.000000e+000
    outer loop
      vertex -7.000000e+001  2.790000e+001 -6.200000e+001
      vertex -7.000000e+001  1.100000e+001 -6.900000e+001
      vertex -7.000000e+001 -1.290000e+001 -6.200000e+001
    endloop
  endfacet
  facet normal -1.000000e+000  0.000000e+000  0.000000e+000
    outer loop
      vertex -7.000000e+001 -1.290000e+001 -6.200000e+001
      vertex -7.000000e+001  1.100000e+001 -6.900000e+001
      vertex -7.000000e+001  6.000000e+000 -6.900000e+001
    endloop
  endfacet
  facet normal  -0.000000e+000  0.000000e+000 -1.000000e+000
    outer loop
      vertex -4.300000e+001  2.790000e+001 -8.250000e+001
      vertex -4.000000e+001  2.790000e+001 -8.250000e+001
      vertex -4.300000e+001 -1.290000e+001 -8.250000e+001
    endloop
  endfacet
  facet normal  0.000000e+000  0.000000e+000 -1.000000e+000
    outer loop
      vertex -4.300000e+001 -1.290000e+001 -8.250000e+001
      vertex -4.000000e+001  2.790000e+001 -8.250000e+001
      vertex -4.000000e+001 -1.290000e+001 -8.250000e+001
    endloop
  endfacet
  facet normal -1.000000e+000  0.000000e+000  0.000000e+000
    outer loop
      vertex -4.300000e+001 -1.290000e+001 -8.250000e+001
      vertex -4.300000e+001 -1.290000e+001 -8.000000e+001
      vertex -4.300000e+001  2.790000e+001 -8.250000e+001
    endloop
  endfacet
  facet normal -1.000000e+000  0.000000e+000  0.000000e+000
    outer loop
      vertex -4.300000e+001  2.790000e+001 -8.250000e+001
      vertex -4.300000e+001 -1.290000e+001 -8.000000e+001
      vertex -4.300000e+001  2.790000e+001 -8.000000e+001
    endloop
  endfacet
  facet normal  -0.000000e+000  0.000000e+000 -1.000000e+000
    outer loop
      vertex -7.000000e+001  2.790000e+001 -8.000000e+001
      vertex -6.535000e+001  1.687539e-014 -8.000000e+001
      vertex -7.000000e+001 -1.290000e+001 -8.000000e+001
    endloop
  endfacet
  facet normal  0.000000e+000  0.000000e+000 -1.000000e+000
    outer loop
      vertex -7.000000e+001 -1.290000e+001 -8.000000e+001
      vertex -6.535000e+001  1.687539e-014 -8.000000e+001
      vertex -4.835000e+001  0.000000e+000 -8.000000e+001
    endloop
  endfacet
  facet normal  0.000000e+000  -0.000000e+000 -1.000000e+000
    outer loop
      vertex -7.000000e+001 -1.290000e+001 -8.000000e+001
      vertex -4.835000e+001  0.000000e+000 -8.000000e+001
      vertex -4.300000e+001 -1.290000e+001 -8.000000e+001
    endloop
  endfacet
  facet normal  0.000000e+000  0.000000e+000 -1.000000e+000
    outer loop
      vertex -6.535000e+001  1.687539e-014 -8.000000e+001
      vertex -7.000000e+001  2.790000e+001 -8.000000e+001
      vertex -6.535000e+001  1.500000e+001 -8.000000e+001
    endloop
  endfacet
  facet normal  0.000000e+000  0.000000e+000 -1.000000e+000
    outer loop
      vertex -6.535000e+001  1.500000e+001 -8.000000e+001
      vertex -7.000000e+001  2.790000e+001 -8.000000e+001
      vertex -4.300000e+001  2.790000e+001 -8.000000e+001
    endloop
  endfacet
  facet normal  0.000000e+000  0.000000e+000 -1.000000e+000
    outer loop
      vertex -6.535000e+001  1.500000e+001 -8.000000e+001
      vertex -4.300000e+001  2.790000e+001 -8.000000e+001
      vertex -4.835000e+001  1.500000e+001 -8.000000e+001
    endloop
  endfacet
  facet normal  0.000000e+000  0.000000e+000 -1.000000e+000
    outer loop
      vertex -4.835000e+001  1.500000e+001 -8.000000e+001
      vertex -4.300000e+001  2.790000e+001 -8.000000e+001
      vertex -4.300000e+001 -1.290000e+001 -8.000000e+001
    endloop
  endfacet
  facet normal  0.000000e+000  0.000000e+000 -1.000000e+000
    outer loop
      vertex -4.835000e+001  1.500000e+001 -8.000000e+001
      vertex -4.300000e+001 -1.290000e+001 -8.000000e+001
      vertex -4.835000e+001  0.000000e+000 -8.000000e+001
    endloop
  endfacet
  facet normal  0.000000e+000  0.000000e+000  1.000000e+000
    outer loop
      vertex -4.000000e+001  6.000000e+000 -7.700000e+001
      vertex -4.000000e+001  1.100000e+001 -7.700000e+001
      vertex -4.835000e+001  6.000000e+000 -7.700000e+001
    endloop
  endfacet
  facet normal  0.000000e+000  0.000000e+000  1.000000e+000
    outer loop
      vertex -4.835000e+001  6.000000e+000 -7.700000e+001
      vertex -4.000000e+001  1.100000e+001 -7.700000e+001
      vertex -4.835000e+001  1.100000e+001 -7.700000e+001
    endloop
  endfacet
  facet normal  0.000000e+000  0.000000e+000  1.000000e+000
    outer loop
      vertex -6.535000e+001  6.000000e+000 -7.700000e+001
      vertex -6.535000e+001  1.100000e+001 -7.700000e+001
      vertex -7.000000e+001  6.000000e+000 -7.700000e+001
    endloop
  endfacet
  facet normal  0.000000e+000  0.000000e+000  1.000000e+000
    outer loop
      vertex -7.000000e+001  6.000000e+000 -7.700000e+001
      vertex -6.535000e+001  1.100000e+001 -7.700000e+001
      vertex -7.000000e+001  1.100000e+001 -7.700000e+001
    endloop
  endfacet
  facet normal  0.000000e+000 -1.000000e+000  -0.000000e+000
    outer loop
      vertex -4.000000e+001  1.100000e+001 -7.700000e+001
      vertex -4.000000e+001  1.100000e+001 -6.900000e+001
      vertex -4.835000e+001  1.100000e+001 -7.700000e+001
    endloop
  endfacet
  facet normal  0.000000e+000 -1.000000e+000  0.000000e+000
    outer loop
      vertex -4.835000e+001  1.100000e+001 -7.700000e+001
      vertex -4.000000e+001  1.100000e+001 -6.900000e+001
      vertex -4.835000e+001  1.100000e+001 -6.900000e+001
    endloop
  endfacet
  facet normal  0.000000e+000 -1.000000e+000  -0.000000e+000
    outer loop
      vertex -6.535000e+001  1.100000e+001 -7.700000e+001
      vertex -6.535000e+001  1.100000e+001 -6.900000e+001
      vertex -7.000000e+001  1.100000e+001 -7.700000e+001
    endloop
  endfacet
  facet normal  0.000000e+000 -1.000000e+000  0.000000e+000
    outer loop
      vertex -7.000000e+001  1.100000e+001 -7.700000e+001
      vertex -6.535000e+001  1.100000e+001 -6.900000e+001
      vertex -7.000000e+001  1.100000e+001 -6.900000e+001
    endloop
  endfacet
  facet normal  0.000000e+000  0.000000e+000 -1.000000e+000
    outer loop
      vertex -4.000000e+001  1.100000e+001 -6.900000e+001
      vertex -4.000000e+001  6.000000e+000 -6.900000e+001
      vertex -4.835000e+001  1.100000e+001 -6.900000e+001
    endloop
  endfacet
  facet normal  0.000000e+000  0.000000e+000 -1.000000e+000
    outer loop
      vertex -4.835000e+001  1.100000e+001 -6.900000e+001
      vertex -4.000000e+001  6.000000e+000 -6.900000e+001
      vertex -4.835000e+001  6.000000e+000 -6.900000e+001
    endloop
  endfacet
  facet normal  0.000000e+000  0.000000e+000 -1.000000e+000
    outer loop
      vertex -6.535000e+001  1.100000e+001 -6.900000e+001
      vertex -6.535000e+001  6.000000e+000 -6.900000e+001
      vertex -7.000000e+001  1.100000e+001 -6.900000e+001
    endloop
  endfacet
  facet normal  0.000000e+000  0.000000e+000 -1.000000e+000
    outer loop
      vertex -7.000000e+001  1.100000e+001 -6.900000e+001
      vertex -6.535000e+001  6.000000e+000 -6.900000e+001
      vertex -7.000000e+001  6.000000e+000 -6.900000e+001
    endloop
  endfacet
  facet normal  0.000000e+000  1.000000e+000  -0.000000e+000
    outer loop
      vertex -4.000000e+001  6.000000e+000 -6.900000e+001
      vertex -4.000000e+001  6.000000e+000 -7.700000e+001
      vertex -4.835000e+001  6.000000e+000 -6.900000e+001
    endloop
  endfacet
  facet normal  0.000000e+000  1.000000e+000  0.000000e+000
    outer loop
      vertex -4.835000e+001  6.000000e+000 -6.900000e+001
      vertex -4.000000e+001  6.000000e+000 -7.700000e+001
      vertex -4.835000e+001  6.000000e+000 -7.700000e+001
    endloop
  endfacet
  facet normal  0.000000e+000  1.000000e+000  -0.000000e+000
    outer loop
      vertex -6.535000e+001  6.000000e+000 -6.900000e+001
      vertex -6.535000e+001  6.000000e+000 -7.700000e+001
      vertex -7.000000e+001  6.000000e+000 -6.900000e+001
    endloop
  endfacet
  facet normal  0.000000e+000  1.000000e+000  0.000000e+000
    outer loop
      vertex -7.000000e+001  6.000000e+000 -6.900000e+001
      vertex -6.535000e+001  6.000000e+000 -7.700000e+001
      vertex -7.000000e+001  6.000000e+000 -7.700000e+001
    endloop
  endfacet
endsolid CATIA STL
