solid CATIA STL
  facet normal  1.000000e+000  0.000000e+000  0.000000e+000
    outer loop
      vertex  1.500000e+001 -1.524017e+001  4.585938e+001
      vertex  1.500000e+001 -1.664971e+001  1.051303e+001
      vertex  1.500000e+001 -1.638924e+001  1.096418e+001
    endloop
  endfacet
  facet normal  1.000000e+000  0.000000e+000  -0.000000e+000
    outer loop
      vertex  1.500000e+001 -1.638924e+001  1.096418e+001
      vertex  1.500000e+001 -1.599017e+001  1.129904e+001
      vertex  1.500000e+001 -1.524017e+001  4.585938e+001
    endloop
  endfacet
  facet normal  1.000000e+000  0.000000e+000  -0.000000e+000
    outer loop
      vertex  1.500000e+001 -1.599017e+001  1.129904e+001
      vertex  1.500000e+001 -1.550065e+001  1.147721e+001
      vertex  1.500000e+001 -1.524017e+001  4.585938e+001
    endloop
  endfacet
  facet normal  1.000000e+000  0.000000e+000  0.000000e+000
    outer loop
      vertex  1.500000e+001 -1.974017e+001  4.585938e+001
      vertex  1.500000e+001 -1.974017e+001  0.000000e+000
      vertex  1.500000e+001 -1.664971e+001  1.051303e+001
    endloop
  endfacet
  facet normal  1.000000e+000  0.000000e+000  -0.000000e+000
    outer loop
      vertex  1.500000e+001 -1.974017e+001  4.585938e+001
      vertex  1.500000e+001 -1.664971e+001  1.051303e+001
      vertex  1.500000e+001 -1.524017e+001  4.585938e+001
    endloop
  endfacet
  facet normal  1.000000e+000  0.000000e+000  0.000000e+000
    outer loop
      vertex  1.500000e+001 -1.974017e+001  4.585938e+001
      vertex  1.500000e+001 -1.524017e+001  4.585938e+001
      vertex  1.500000e+001 -1.628618e+001  4.596780e+001
    endloop
  endfacet
  facet normal  1.000000e+000  0.000000e+000  0.000000e+000
    outer loop
      vertex  1.500000e+001 -1.974017e+001  4.585938e+001
      vertex  1.500000e+001 -1.628618e+001  4.596780e+001
      vertex  1.500000e+001 -1.728772e+001  4.628845e+001
    endloop
  endfacet
  facet normal  1.000000e+000  0.000000e+000  0.000000e+000
    outer loop
      vertex  1.500000e+001 -1.974017e+001  4.585938e+001
      vertex  1.500000e+001 -1.728772e+001  4.628845e+001
      vertex  1.500000e+001 -1.820219e+001  4.680770e+001
    endloop
  endfacet
  facet normal  1.000000e+000  0.000000e+000  0.000000e+000
    outer loop
      vertex  1.500000e+001 -1.974017e+001  4.585938e+001
      vertex  1.500000e+001 -1.820219e+001  4.680770e+001
      vertex  1.500000e+001 -1.899073e+001  4.750346e+001
    endloop
  endfacet
  facet normal  1.000000e+000  0.000000e+000  0.000000e+000
    outer loop
      vertex  1.500000e+001 -1.974017e+001  4.585938e+001
      vertex  1.500000e+001 -1.899073e+001  4.750346e+001
      vertex  1.500000e+001 -1.961980e+001  4.834617e+001
    endloop
  endfacet
  facet normal  1.000000e+000  0.000000e+000  0.000000e+000
    outer loop
      vertex  1.500000e+001 -1.974017e+001  4.585938e+001
      vertex  1.500000e+001 -1.961980e+001  4.834617e+001
      vertex  1.500000e+001 -2.006267e+001  4.929999e+001
    endloop
  endfacet
  facet normal  9.999999e-001  0.000000e+000  0.000000e+000
    outer loop
      vertex  1.500000e+001 -1.974017e+001  4.585938e+001
      vertex  1.500000e+001 -2.006267e+001  4.929999e+001
      vertex  1.500000e+001 -2.030048e+001  5.032436e+001
    endloop
  endfacet
  facet normal  1.000000e+000  0.000000e+000  0.000000e+000
    outer loop
      vertex  1.500000e+001 -1.974017e+001  0.000000e+000
      vertex  1.500000e+001 -1.074017e+001  0.000000e+000
      vertex  1.500000e+001 -1.497970e+001  8.522788e+000
    endloop
  endfacet
  facet normal  1.000000e+000  0.000000e+000  0.000000e+000
    outer loop
      vertex  1.500000e+001 -1.974017e+001  0.000000e+000
      vertex  1.500000e+001 -1.497970e+001  8.522788e+000
      vertex  1.500000e+001 -1.550065e+001  8.522788e+000
    endloop
  endfacet
  facet normal  9.999999e-001  0.000000e+000  0.000000e+000
    outer loop
      vertex  1.500000e+001 -1.974017e+001  0.000000e+000
      vertex  1.500000e+001 -1.550065e+001  8.522788e+000
      vertex  1.500000e+001 -1.599017e+001  8.700962e+000
    endloop
  endfacet
  facet normal  1.000000e+000  0.000000e+000  0.000000e+000
    outer loop
      vertex  1.500000e+001 -1.974017e+001  0.000000e+000
      vertex  1.500000e+001 -1.599017e+001  8.700962e+000
      vertex  1.500000e+001 -1.638924e+001  9.035819e+000
    endloop
  endfacet
  facet normal  1.000000e+000  0.000000e+000  0.000000e+000
    outer loop
      vertex  1.500000e+001 -1.974017e+001  0.000000e+000
      vertex  1.500000e+001 -1.638924e+001  9.035819e+000
      vertex  1.500000e+001 -1.664971e+001  9.486970e+000
    endloop
  endfacet
  facet normal  1.000000e+000  0.000000e+000  0.000000e+000
    outer loop
      vertex  1.500000e+001 -1.974017e+001  0.000000e+000
      vertex  1.500000e+001 -1.664971e+001  9.486970e+000
      vertex  1.500000e+001 -1.674017e+001  1.000000e+001
    endloop
  endfacet
  facet normal  1.000000e+000  0.000000e+000  -0.000000e+000
    outer loop
      vertex  1.500000e+001 -1.974017e+001  0.000000e+000
      vertex  1.500000e+001 -1.674017e+001  1.000000e+001
      vertex  1.500000e+001 -1.664971e+001  1.051303e+001
    endloop
  endfacet
  facet normal  1.000000e+000  0.000000e+000  0.000000e+000
    outer loop
      vertex  1.500000e+001 -1.074017e+001  4.585938e+001
      vertex  1.500000e+001 -1.017986e+001  5.032436e+001
      vertex  1.500000e+001 -1.041768e+001  4.929999e+001
    endloop
  endfacet
  facet normal  1.000000e+000  0.000000e+000  0.000000e+000
    outer loop
      vertex  1.500000e+001 -1.074017e+001  4.585938e+001
      vertex  1.500000e+001 -1.041768e+001  4.929999e+001
      vertex  1.500000e+001 -1.086054e+001  4.834617e+001
    endloop
  endfacet
  facet normal  1.000000e+000  0.000000e+000  0.000000e+000
    outer loop
      vertex  1.500000e+001 -1.074017e+001  4.585938e+001
      vertex  1.500000e+001 -1.086054e+001  4.834617e+001
      vertex  1.500000e+001 -1.148961e+001  4.750346e+001
    endloop
  endfacet
  facet normal  9.999999e-001  0.000000e+000  0.000000e+000
    outer loop
      vertex  1.500000e+001 -1.074017e+001  4.585938e+001
      vertex  1.500000e+001 -1.148961e+001  4.750346e+001
      vertex  1.500000e+001 -1.227815e+001  4.680770e+001
    endloop
  endfacet
  facet normal  9.999999e-001  0.000000e+000  0.000000e+000
    outer loop
      vertex  1.500000e+001 -1.074017e+001  4.585938e+001
      vertex  1.500000e+001 -1.227815e+001  4.680770e+001
      vertex  1.500000e+001 -1.319263e+001  4.628845e+001
    endloop
  endfacet
  facet normal  1.000000e+000  0.000000e+000  0.000000e+000
    outer loop
      vertex  1.500000e+001 -1.074017e+001  4.585938e+001
      vertex  1.500000e+001 -1.319263e+001  4.628845e+001
      vertex  1.500000e+001 -1.419417e+001  4.596780e+001
    endloop
  endfacet
  facet normal  1.000000e+000  0.000000e+000  0.000000e+000
    outer loop
      vertex  1.500000e+001 -1.074017e+001  4.585938e+001
      vertex  1.500000e+001 -1.419417e+001  4.596780e+001
      vertex  1.500000e+001 -1.524017e+001  4.585938e+001
    endloop
  endfacet
  facet normal  1.000000e+000  -0.000000e+000  0.000000e+000
    outer loop
      vertex  1.500000e+001 -1.074017e+001  4.585938e+001
      vertex  1.500000e+001 -1.524017e+001  4.585938e+001
      vertex  1.500000e+001 -1.550065e+001  1.147721e+001
    endloop
  endfacet
  facet normal  1.000000e+000  0.000000e+000  0.000000e+000
    outer loop
      vertex  1.500000e+001 -1.074017e+001  4.585938e+001
      vertex  1.500000e+001 -1.550065e+001  1.147721e+001
      vertex  1.500000e+001 -1.497970e+001  1.147721e+001
    endloop
  endfacet
  facet normal  1.000000e+000  -0.000000e+000  0.000000e+000
    outer loop
      vertex  1.500000e+001 -1.074017e+001  4.585938e+001
      vertex  1.500000e+001 -1.497970e+001  1.147721e+001
      vertex  1.500000e+001 -1.449017e+001  1.129904e+001
    endloop
  endfacet
  facet normal  9.999999e-001  -0.000000e+000  0.000000e+000
    outer loop
      vertex  1.500000e+001 -1.074017e+001  4.585938e+001
      vertex  1.500000e+001 -1.449017e+001  1.129904e+001
      vertex  1.500000e+001 -1.409111e+001  1.096418e+001
    endloop
  endfacet
  facet normal  9.999999e-001  -0.000000e+000  0.000000e+000
    outer loop
      vertex  1.500000e+001 -1.074017e+001  4.585938e+001
      vertex  1.500000e+001 -1.409111e+001  1.096418e+001
      vertex  1.500000e+001 -1.383063e+001  1.051303e+001
    endloop
  endfacet
  facet normal  1.000000e+000  -0.000000e+000  0.000000e+000
    outer loop
      vertex  1.500000e+001 -1.074017e+001  4.585938e+001
      vertex  1.500000e+001 -1.383063e+001  1.051303e+001
      vertex  1.500000e+001 -1.074017e+001  0.000000e+000
    endloop
  endfacet
  facet normal  1.000000e+000  0.000000e+000  0.000000e+000
    outer loop
      vertex  1.500000e+001 -1.074017e+001  0.000000e+000
      vertex  1.500000e+001 -1.383063e+001  1.051303e+001
      vertex  1.500000e+001 -1.374017e+001  1.000000e+001
    endloop
  endfacet
  facet normal  9.999999e-001  0.000000e+000  0.000000e+000
    outer loop
      vertex  1.500000e+001 -1.074017e+001  0.000000e+000
      vertex  1.500000e+001 -1.374017e+001  1.000000e+001
      vertex  1.500000e+001 -1.383063e+001  9.486970e+000
    endloop
  endfacet
  facet normal  1.000000e+000  0.000000e+000  0.000000e+000
    outer loop
      vertex  1.500000e+001 -1.074017e+001  0.000000e+000
      vertex  1.500000e+001 -1.383063e+001  9.486970e+000
      vertex  1.500000e+001 -1.409111e+001  9.035819e+000
    endloop
  endfacet
  facet normal  1.000000e+000  0.000000e+000  0.000000e+000
    outer loop
      vertex  1.500000e+001 -1.074017e+001  0.000000e+000
      vertex  1.500000e+001 -1.409111e+001  9.035819e+000
      vertex  1.500000e+001 -1.449017e+001  8.700962e+000
    endloop
  endfacet
  facet normal  1.000000e+000  0.000000e+000  0.000000e+000
    outer loop
      vertex  1.500000e+001 -1.074017e+001  0.000000e+000
      vertex  1.500000e+001 -1.449017e+001  8.700962e+000
      vertex  1.500000e+001 -1.497970e+001  8.522788e+000
    endloop
  endfacet
  facet normal -1.000000e+000  0.000000e+000  0.000000e+000
    outer loop
      vertex  0.000000e+000 -1.638924e+001  1.096418e+001
      vertex  0.000000e+000 -1.664971e+001  1.051303e+001
      vertex  0.000000e+000 -1.524017e+001  4.585938e+001
    endloop
  endfacet
  facet normal -1.000000e+000  -0.000000e+000  0.000000e+000
    outer loop
      vertex  0.000000e+000 -1.524017e+001  4.585938e+001
      vertex  0.000000e+000 -1.599017e+001  1.129904e+001
      vertex  0.000000e+000 -1.638924e+001  1.096418e+001
    endloop
  endfacet
  facet normal -1.000000e+000  -0.000000e+000  0.000000e+000
    outer loop
      vertex  0.000000e+000 -1.524017e+001  4.585938e+001
      vertex  0.000000e+000 -1.550065e+001  1.147721e+001
      vertex  0.000000e+000 -1.599017e+001  1.129904e+001
    endloop
  endfacet
  facet normal -1.000000e+000  0.000000e+000  0.000000e+000
    outer loop
      vertex  0.000000e+000 -1.974017e+001  4.585938e+001
      vertex  0.000000e+000 -2.030048e+001  5.032436e+001
      vertex  0.000000e+000 -2.006267e+001  4.929999e+001
    endloop
  endfacet
  facet normal -1.000000e+000  0.000000e+000  0.000000e+000
    outer loop
      vertex  0.000000e+000 -1.974017e+001  4.585938e+001
      vertex  0.000000e+000 -2.006267e+001  4.929999e+001
      vertex  0.000000e+000 -1.961980e+001  4.834617e+001
    endloop
  endfacet
  facet normal -1.000000e+000  0.000000e+000  -0.000000e+000
    outer loop
      vertex  0.000000e+000 -1.974017e+001  4.585938e+001
      vertex  0.000000e+000 -1.961980e+001  4.834617e+001
      vertex  0.000000e+000 -1.899073e+001  4.750346e+001
    endloop
  endfacet
  facet normal -9.999999e-001  0.000000e+000  -0.000000e+000
    outer loop
      vertex  0.000000e+000 -1.974017e+001  4.585938e+001
      vertex  0.000000e+000 -1.899073e+001  4.750346e+001
      vertex  0.000000e+000 -1.820219e+001  4.680770e+001
    endloop
  endfacet
  facet normal -1.000000e+000  0.000000e+000  -0.000000e+000
    outer loop
      vertex  0.000000e+000 -1.974017e+001  4.585938e+001
      vertex  0.000000e+000 -1.820219e+001  4.680770e+001
      vertex  0.000000e+000 -1.728772e+001  4.628845e+001
    endloop
  endfacet
  facet normal -1.000000e+000  0.000000e+000  -0.000000e+000
    outer loop
      vertex  0.000000e+000 -1.974017e+001  4.585938e+001
      vertex  0.000000e+000 -1.728772e+001  4.628845e+001
      vertex  0.000000e+000 -1.628618e+001  4.596780e+001
    endloop
  endfacet
  facet normal -1.000000e+000  0.000000e+000  -0.000000e+000
    outer loop
      vertex  0.000000e+000 -1.974017e+001  4.585938e+001
      vertex  0.000000e+000 -1.628618e+001  4.596780e+001
      vertex  0.000000e+000 -1.524017e+001  4.585938e+001
    endloop
  endfacet
  facet normal -1.000000e+000  -0.000000e+000  0.000000e+000
    outer loop
      vertex  0.000000e+000 -1.974017e+001  4.585938e+001
      vertex  0.000000e+000 -1.524017e+001  4.585938e+001
      vertex  0.000000e+000 -1.664971e+001  1.051303e+001
    endloop
  endfacet
  facet normal -1.000000e+000  -0.000000e+000  0.000000e+000
    outer loop
      vertex  0.000000e+000 -1.974017e+001  4.585938e+001
      vertex  0.000000e+000 -1.664971e+001  1.051303e+001
      vertex  0.000000e+000 -1.974017e+001  0.000000e+000
    endloop
  endfacet
  facet normal -1.000000e+000  0.000000e+000  0.000000e+000
    outer loop
      vertex  0.000000e+000 -1.974017e+001  0.000000e+000
      vertex  0.000000e+000 -1.664971e+001  1.051303e+001
      vertex  0.000000e+000 -1.674017e+001  1.000000e+001
    endloop
  endfacet
  facet normal -1.000000e+000  0.000000e+000  -0.000000e+000
    outer loop
      vertex  0.000000e+000 -1.974017e+001  0.000000e+000
      vertex  0.000000e+000 -1.674017e+001  1.000000e+001
      vertex  0.000000e+000 -1.664971e+001  9.486970e+000
    endloop
  endfacet
  facet normal -1.000000e+000  0.000000e+000  -0.000000e+000
    outer loop
      vertex  0.000000e+000 -1.974017e+001  0.000000e+000
      vertex  0.000000e+000 -1.664971e+001  9.486970e+000
      vertex  0.000000e+000 -1.638924e+001  9.035819e+000
    endloop
  endfacet
  facet normal -1.000000e+000  0.000000e+000  -0.000000e+000
    outer loop
      vertex  0.000000e+000 -1.974017e+001  0.000000e+000
      vertex  0.000000e+000 -1.638924e+001  9.035819e+000
      vertex  0.000000e+000 -1.599017e+001  8.700962e+000
    endloop
  endfacet
  facet normal -1.000000e+000  0.000000e+000  -0.000000e+000
    outer loop
      vertex  0.000000e+000 -1.974017e+001  0.000000e+000
      vertex  0.000000e+000 -1.599017e+001  8.700962e+000
      vertex  0.000000e+000 -1.550065e+001  8.522788e+000
    endloop
  endfacet
  facet normal -1.000000e+000  0.000000e+000  -0.000000e+000
    outer loop
      vertex  0.000000e+000 -1.974017e+001  0.000000e+000
      vertex  0.000000e+000 -1.550065e+001  8.522788e+000
      vertex  0.000000e+000 -1.497970e+001  8.522788e+000
    endloop
  endfacet
  facet normal -1.000000e+000  0.000000e+000  -0.000000e+000
    outer loop
      vertex  0.000000e+000 -1.974017e+001  0.000000e+000
      vertex  0.000000e+000 -1.497970e+001  8.522788e+000
      vertex  0.000000e+000 -1.074017e+001  0.000000e+000
    endloop
  endfacet
  facet normal -1.000000e+000  0.000000e+000  0.000000e+000
    outer loop
      vertex  0.000000e+000 -1.074017e+001  4.585938e+001
      vertex  0.000000e+000 -1.074017e+001  0.000000e+000
      vertex  0.000000e+000 -1.383063e+001  1.051303e+001
    endloop
  endfacet
  facet normal -9.999999e-001  0.000000e+000  0.000000e+000
    outer loop
      vertex  0.000000e+000 -1.074017e+001  4.585938e+001
      vertex  0.000000e+000 -1.383063e+001  1.051303e+001
      vertex  0.000000e+000 -1.409111e+001  1.096418e+001
    endloop
  endfacet
  facet normal -1.000000e+000  0.000000e+000  0.000000e+000
    outer loop
      vertex  0.000000e+000 -1.074017e+001  4.585938e+001
      vertex  0.000000e+000 -1.409111e+001  1.096418e+001
      vertex  0.000000e+000 -1.449017e+001  1.129904e+001
    endloop
  endfacet
  facet normal -1.000000e+000  0.000000e+000  0.000000e+000
    outer loop
      vertex  0.000000e+000 -1.074017e+001  4.585938e+001
      vertex  0.000000e+000 -1.449017e+001  1.129904e+001
      vertex  0.000000e+000 -1.497970e+001  1.147721e+001
    endloop
  endfacet
  facet normal -1.000000e+000  0.000000e+000  0.000000e+000
    outer loop
      vertex  0.000000e+000 -1.074017e+001  4.585938e+001
      vertex  0.000000e+000 -1.497970e+001  1.147721e+001
      vertex  0.000000e+000 -1.550065e+001  1.147721e+001
    endloop
  endfacet
  facet normal -1.000000e+000  0.000000e+000  0.000000e+000
    outer loop
      vertex  0.000000e+000 -1.074017e+001  4.585938e+001
      vertex  0.000000e+000 -1.550065e+001  1.147721e+001
      vertex  0.000000e+000 -1.524017e+001  4.585938e+001
    endloop
  endfacet
  facet normal -1.000000e+000  0.000000e+000  0.000000e+000
    outer loop
      vertex  0.000000e+000 -1.074017e+001  4.585938e+001
      vertex  0.000000e+000 -1.524017e+001  4.585938e+001
      vertex  0.000000e+000 -1.419417e+001  4.596780e+001
    endloop
  endfacet
  facet normal -1.000000e+000  0.000000e+000  0.000000e+000
    outer loop
      vertex  0.000000e+000 -1.074017e+001  4.585938e+001
      vertex  0.000000e+000 -1.419417e+001  4.596780e+001
      vertex  0.000000e+000 -1.319263e+001  4.628845e+001
    endloop
  endfacet
  facet normal -9.999999e-001  0.000000e+000  0.000000e+000
    outer loop
      vertex  0.000000e+000 -1.074017e+001  4.585938e+001
      vertex  0.000000e+000 -1.319263e+001  4.628845e+001
      vertex  0.000000e+000 -1.227815e+001  4.680770e+001
    endloop
  endfacet
  facet normal -9.999999e-001  0.000000e+000  0.000000e+000
    outer loop
      vertex  0.000000e+000 -1.074017e+001  4.585938e+001
      vertex  0.000000e+000 -1.227815e+001  4.680770e+001
      vertex  0.000000e+000 -1.148961e+001  4.750346e+001
    endloop
  endfacet
  facet normal -1.000000e+000  0.000000e+000  0.000000e+000
    outer loop
      vertex  0.000000e+000 -1.074017e+001  4.585938e+001
      vertex  0.000000e+000 -1.148961e+001  4.750346e+001
      vertex  0.000000e+000 -1.086054e+001  4.834617e+001
    endloop
  endfacet
  facet normal -1.000000e+000  0.000000e+000  0.000000e+000
    outer loop
      vertex  0.000000e+000 -1.074017e+001  4.585938e+001
      vertex  0.000000e+000 -1.086054e+001  4.834617e+001
      vertex  0.000000e+000 -1.041768e+001  4.929999e+001
    endloop
  endfacet
  facet normal -1.000000e+000  0.000000e+000  -0.000000e+000
    outer loop
      vertex  0.000000e+000 -1.074017e+001  4.585938e+001
      vertex  0.000000e+000 -1.041768e+001  4.929999e+001
      vertex  0.000000e+000 -1.017986e+001  5.032436e+001
    endloop
  endfacet
  facet normal -9.999999e-001  0.000000e+000  0.000000e+000
    outer loop
      vertex  0.000000e+000 -1.074017e+001  0.000000e+000
      vertex  0.000000e+000 -1.497970e+001  8.522788e+000
      vertex  0.000000e+000 -1.449017e+001  8.700962e+000
    endloop
  endfacet
  facet normal -1.000000e+000  0.000000e+000  0.000000e+000
    outer loop
      vertex  0.000000e+000 -1.074017e+001  0.000000e+000
      vertex  0.000000e+000 -1.449017e+001  8.700962e+000
      vertex  0.000000e+000 -1.409111e+001  9.035819e+000
    endloop
  endfacet
  facet normal -1.000000e+000  0.000000e+000  0.000000e+000
    outer loop
      vertex  0.000000e+000 -1.074017e+001  0.000000e+000
      vertex  0.000000e+000 -1.409111e+001  9.035819e+000
      vertex  0.000000e+000 -1.383063e+001  9.486970e+000
    endloop
  endfacet
  facet normal -9.999999e-001  0.000000e+000  0.000000e+000
    outer loop
      vertex  0.000000e+000 -1.074017e+001  0.000000e+000
      vertex  0.000000e+000 -1.383063e+001  9.486970e+000
      vertex  0.000000e+000 -1.374017e+001  1.000000e+001
    endloop
  endfacet
  facet normal -9.999999e-001  0.000000e+000  0.000000e+000
    outer loop
      vertex  0.000000e+000 -1.074017e+001  0.000000e+000
      vertex  0.000000e+000 -1.374017e+001  1.000000e+001
      vertex  0.000000e+000 -1.383063e+001  1.051303e+001
    endloop
  endfacet
  facet normal  0.000000e+000  3.420210e-001 -9.396923e-001
    outer loop
      vertex  0.000000e+000 -1.550065e+001  1.147721e+001
      vertex  1.500000e+001 -1.599017e+001  1.129904e+001
      vertex  0.000000e+000 -1.599017e+001  1.129904e+001
    endloop
  endfacet
  facet normal  0.000000e+000  6.427878e-001 -7.660444e-001
    outer loop
      vertex  0.000000e+000 -1.599017e+001  1.129904e+001
      vertex  1.500000e+001 -1.599017e+001  1.129904e+001
      vertex  1.500000e+001 -1.638924e+001  1.096418e+001
    endloop
  endfacet
  facet normal  0.000000e+000  6.427878e-001 -7.660444e-001
    outer loop
      vertex  0.000000e+000 -1.599017e+001  1.129904e+001
      vertex  1.500000e+001 -1.638924e+001  1.096418e+001
      vertex  0.000000e+000 -1.638924e+001  1.096418e+001
    endloop
  endfacet
  facet normal  0.000000e+000  8.660260e-001 -4.999989e-001
    outer loop
      vertex  0.000000e+000 -1.638924e+001  1.096418e+001
      vertex  1.500000e+001 -1.638924e+001  1.096418e+001
      vertex  1.500000e+001 -1.664971e+001  1.051303e+001
    endloop
  endfacet
  facet normal  0.000000e+000  8.660260e-001 -4.999989e-001
    outer loop
      vertex  0.000000e+000 -1.638924e+001  1.096418e+001
      vertex  1.500000e+001 -1.664971e+001  1.051303e+001
      vertex  0.000000e+000 -1.664971e+001  1.051303e+001
    endloop
  endfacet
  facet normal  0.000000e+000  9.848076e-001 -1.736495e-001
    outer loop
      vertex  0.000000e+000 -1.664971e+001  1.051303e+001
      vertex  1.500000e+001 -1.664971e+001  1.051303e+001
      vertex  1.500000e+001 -1.674017e+001  1.000000e+001
    endloop
  endfacet
  facet normal  0.000000e+000  9.848076e-001 -1.736495e-001
    outer loop
      vertex  0.000000e+000 -1.664971e+001  1.051303e+001
      vertex  1.500000e+001 -1.674017e+001  1.000000e+001
      vertex  0.000000e+000 -1.674017e+001  1.000000e+001
    endloop
  endfacet
  facet normal  0.000000e+000  3.420210e-001 -9.396923e-001
    outer loop
      vertex  1.500000e+001 -1.599017e+001  1.129904e+001
      vertex  0.000000e+000 -1.550065e+001  1.147721e+001
      vertex  1.500000e+001 -1.550065e+001  1.147721e+001
    endloop
  endfacet
  facet normal  0.000000e+000  0.000000e+000 -1.000000e+000
    outer loop
      vertex  1.500000e+001 -1.550065e+001  1.147721e+001
      vertex  0.000000e+000 -1.550065e+001  1.147721e+001
      vertex  0.000000e+000 -1.497970e+001  1.147721e+001
    endloop
  endfacet
  facet normal  0.000000e+000  0.000000e+000 -1.000000e+000
    outer loop
      vertex  1.500000e+001 -1.550065e+001  1.147721e+001
      vertex  0.000000e+000 -1.497970e+001  1.147721e+001
      vertex  1.500000e+001 -1.497970e+001  1.147721e+001
    endloop
  endfacet
  facet normal  -0.000000e+000 -3.420210e-001 -9.396923e-001
    outer loop
      vertex  1.500000e+001 -1.497970e+001  1.147721e+001
      vertex  0.000000e+000 -1.497970e+001  1.147721e+001
      vertex  0.000000e+000 -1.449017e+001  1.129904e+001
    endloop
  endfacet
  facet normal  0.000000e+000 -3.420210e-001 -9.396923e-001
    outer loop
      vertex  1.500000e+001 -1.497970e+001  1.147721e+001
      vertex  0.000000e+000 -1.449017e+001  1.129904e+001
      vertex  1.500000e+001 -1.449017e+001  1.129904e+001
    endloop
  endfacet
  facet normal  -0.000000e+000 -6.427878e-001 -7.660444e-001
    outer loop
      vertex  1.500000e+001 -1.449017e+001  1.129904e+001
      vertex  0.000000e+000 -1.449017e+001  1.129904e+001
      vertex  0.000000e+000 -1.409111e+001  1.096418e+001
    endloop
  endfacet
  facet normal  0.000000e+000 -6.427878e-001 -7.660444e-001
    outer loop
      vertex  1.500000e+001 -1.449017e+001  1.129904e+001
      vertex  0.000000e+000 -1.409111e+001  1.096418e+001
      vertex  1.500000e+001 -1.409111e+001  1.096418e+001
    endloop
  endfacet
  facet normal  -0.000000e+000 -8.660252e-001 -5.000003e-001
    outer loop
      vertex  1.500000e+001 -1.409111e+001  1.096418e+001
      vertex  0.000000e+000 -1.409111e+001  1.096418e+001
      vertex  0.000000e+000 -1.383063e+001  1.051303e+001
    endloop
  endfacet
  facet normal  0.000000e+000 -8.660252e-001 -5.000003e-001
    outer loop
      vertex  1.500000e+001 -1.409111e+001  1.096418e+001
      vertex  0.000000e+000 -1.383063e+001  1.051303e+001
      vertex  1.500000e+001 -1.383063e+001  1.051303e+001
    endloop
  endfacet
  facet normal  -0.000000e+000 -9.848079e-001 -1.736477e-001
    outer loop
      vertex  1.500000e+001 -1.383063e+001  1.051303e+001
      vertex  0.000000e+000 -1.383063e+001  1.051303e+001
      vertex  0.000000e+000 -1.374017e+001  1.000000e+001
    endloop
  endfacet
  facet normal  0.000000e+000 -9.848079e-001 -1.736477e-001
    outer loop
      vertex  1.500000e+001 -1.383063e+001  1.051303e+001
      vertex  0.000000e+000 -1.374017e+001  1.000000e+001
      vertex  1.500000e+001 -1.374017e+001  1.000000e+001
    endloop
  endfacet
  facet normal  0.000000e+000 -3.420210e-001  9.396923e-001
    outer loop
      vertex  0.000000e+000 -1.497970e+001  8.522788e+000
      vertex  1.500000e+001 -1.449017e+001  8.700962e+000
      vertex  0.000000e+000 -1.449017e+001  8.700962e+000
    endloop
  endfacet
  facet normal  0.000000e+000 -6.427878e-001  7.660444e-001
    outer loop
      vertex  0.000000e+000 -1.449017e+001  8.700962e+000
      vertex  1.500000e+001 -1.449017e+001  8.700962e+000
      vertex  1.500000e+001 -1.409111e+001  9.035819e+000
    endloop
  endfacet
  facet normal  0.000000e+000 -6.427878e-001  7.660444e-001
    outer loop
      vertex  0.000000e+000 -1.449017e+001  8.700962e+000
      vertex  1.500000e+001 -1.409111e+001  9.035819e+000
      vertex  0.000000e+000 -1.409111e+001  9.035819e+000
    endloop
  endfacet
  facet normal  0.000000e+000 -8.660252e-001  5.000003e-001
    outer loop
      vertex  0.000000e+000 -1.409111e+001  9.035819e+000
      vertex  1.500000e+001 -1.409111e+001  9.035819e+000
      vertex  1.500000e+001 -1.383063e+001  9.486970e+000
    endloop
  endfacet
  facet normal  0.000000e+000 -8.660252e-001  5.000003e-001
    outer loop
      vertex  0.000000e+000 -1.409111e+001  9.035819e+000
      vertex  1.500000e+001 -1.383063e+001  9.486970e+000
      vertex  0.000000e+000 -1.383063e+001  9.486970e+000
    endloop
  endfacet
  facet normal  0.000000e+000 -9.848079e-001  1.736477e-001
    outer loop
      vertex  0.000000e+000 -1.383063e+001  9.486970e+000
      vertex  1.500000e+001 -1.383063e+001  9.486970e+000
      vertex  1.500000e+001 -1.374017e+001  1.000000e+001
    endloop
  endfacet
  facet normal  0.000000e+000 -9.848079e-001  1.736477e-001
    outer loop
      vertex  0.000000e+000 -1.383063e+001  9.486970e+000
      vertex  1.500000e+001 -1.374017e+001  1.000000e+001
      vertex  0.000000e+000 -1.374017e+001  1.000000e+001
    endloop
  endfacet
  facet normal  0.000000e+000 -3.420210e-001  9.396923e-001
    outer loop
      vertex  1.500000e+001 -1.449017e+001  8.700962e+000
      vertex  0.000000e+000 -1.497970e+001  8.522788e+000
      vertex  1.500000e+001 -1.497970e+001  8.522788e+000
    endloop
  endfacet
  facet normal  0.000000e+000  0.000000e+000  1.000000e+000
    outer loop
      vertex  1.500000e+001 -1.497970e+001  8.522788e+000
      vertex  0.000000e+000 -1.497970e+001  8.522788e+000
      vertex  0.000000e+000 -1.550065e+001  8.522788e+000
    endloop
  endfacet
  facet normal  0.000000e+000  0.000000e+000  1.000000e+000
    outer loop
      vertex  1.500000e+001 -1.497970e+001  8.522788e+000
      vertex  0.000000e+000 -1.550065e+001  8.522788e+000
      vertex  1.500000e+001 -1.550065e+001  8.522788e+000
    endloop
  endfacet
  facet normal  0.000000e+000  3.420210e-001  9.396923e-001
    outer loop
      vertex  1.500000e+001 -1.550065e+001  8.522788e+000
      vertex  0.000000e+000 -1.550065e+001  8.522788e+000
      vertex  0.000000e+000 -1.599017e+001  8.700962e+000
    endloop
  endfacet
  facet normal  -0.000000e+000  3.420210e-001  9.396923e-001
    outer loop
      vertex  1.500000e+001 -1.550065e+001  8.522788e+000
      vertex  0.000000e+000 -1.599017e+001  8.700962e+000
      vertex  1.500000e+001 -1.599017e+001  8.700962e+000
    endloop
  endfacet
  facet normal  0.000000e+000  6.427878e-001  7.660444e-001
    outer loop
      vertex  1.500000e+001 -1.599017e+001  8.700962e+000
      vertex  0.000000e+000 -1.599017e+001  8.700962e+000
      vertex  0.000000e+000 -1.638924e+001  9.035819e+000
    endloop
  endfacet
  facet normal  -0.000000e+000  6.427878e-001  7.660444e-001
    outer loop
      vertex  1.500000e+001 -1.599017e+001  8.700962e+000
      vertex  0.000000e+000 -1.638924e+001  9.035819e+000
      vertex  1.500000e+001 -1.638924e+001  9.035819e+000
    endloop
  endfacet
  facet normal  0.000000e+000  8.660260e-001  4.999989e-001
    outer loop
      vertex  1.500000e+001 -1.638924e+001  9.035819e+000
      vertex  0.000000e+000 -1.638924e+001  9.035819e+000
      vertex  0.000000e+000 -1.664971e+001  9.486970e+000
    endloop
  endfacet
  facet normal  -0.000000e+000  8.660260e-001  4.999989e-001
    outer loop
      vertex  1.500000e+001 -1.638924e+001  9.035819e+000
      vertex  0.000000e+000 -1.664971e+001  9.486970e+000
      vertex  1.500000e+001 -1.664971e+001  9.486970e+000
    endloop
  endfacet
  facet normal  0.000000e+000  9.848076e-001  1.736495e-001
    outer loop
      vertex  1.500000e+001 -1.664971e+001  9.486970e+000
      vertex  0.000000e+000 -1.664971e+001  9.486970e+000
      vertex  0.000000e+000 -1.674017e+001  1.000000e+001
    endloop
  endfacet
  facet normal  -0.000000e+000  9.848076e-001  1.736495e-001
    outer loop
      vertex  1.500000e+001 -1.664971e+001  9.486970e+000
      vertex  0.000000e+000 -1.674017e+001  1.000000e+001
      vertex  1.500000e+001 -1.674017e+001  1.000000e+001
    endloop
  endfacet
  facet normal  0.000000e+000 -1.000000e+000  0.000000e+000
    outer loop
      vertex  1.500000e+001 -1.974017e+001  4.585938e+001
      vertex  0.000000e+000 -1.974017e+001  4.585938e+001
      vertex  1.500000e+001 -1.974017e+001  0.000000e+000
    endloop
  endfacet
  facet normal  0.000000e+000 -1.000000e+000  0.000000e+000
    outer loop
      vertex  1.500000e+001 -1.974017e+001  0.000000e+000
      vertex  0.000000e+000 -1.974017e+001  4.585938e+001
      vertex  0.000000e+000 -1.974017e+001  0.000000e+000
    endloop
  endfacet
  facet normal  -0.000000e+000 -9.922179e-001 -1.245134e-001
    outer loop
      vertex  0.000000e+000 -1.974017e+001  4.585938e+001
      vertex  1.500000e+001 -1.974017e+001  4.585938e+001
      vertex  0.000000e+000 -2.030048e+001  5.032436e+001
    endloop
  endfacet
  facet normal  0.000000e+000 -9.922179e-001 -1.245134e-001
    outer loop
      vertex  0.000000e+000 -2.030048e+001  5.032436e+001
      vertex  1.500000e+001 -1.974017e+001  4.585938e+001
      vertex  1.500000e+001 -2.030048e+001  5.032436e+001
    endloop
  endfacet
  facet normal  0.000000e+000 -1.031001e-001  9.946709e-001
    outer loop
      vertex  0.000000e+000 -1.524017e+001  4.585938e+001
      vertex  1.500000e+001 -1.419417e+001  4.596780e+001
      vertex  0.000000e+000 -1.419417e+001  4.596780e+001
    endloop
  endfacet
  facet normal  0.000000e+000 -3.049146e-001  9.523797e-001
    outer loop
      vertex  0.000000e+000 -1.419417e+001  4.596780e+001
      vertex  1.500000e+001 -1.419417e+001  4.596780e+001
      vertex  1.500000e+001 -1.319263e+001  4.628845e+001
    endloop
  endfacet
  facet normal  0.000000e+000 -3.049146e-001  9.523797e-001
    outer loop
      vertex  0.000000e+000 -1.419417e+001  4.596780e+001
      vertex  1.500000e+001 -1.319263e+001  4.628845e+001
      vertex  0.000000e+000 -1.319263e+001  4.628845e+001
    endloop
  endfacet
  facet normal  0.000000e+000 -4.937646e-001  8.695955e-001
    outer loop
      vertex  0.000000e+000 -1.319263e+001  4.628845e+001
      vertex  1.500000e+001 -1.319263e+001  4.628845e+001
      vertex  1.500000e+001 -1.227815e+001  4.680770e+001
    endloop
  endfacet
  facet normal  0.000000e+000 -4.937646e-001  8.695955e-001
    outer loop
      vertex  0.000000e+000 -1.319263e+001  4.628845e+001
      vertex  1.500000e+001 -1.227815e+001  4.680770e+001
      vertex  0.000000e+000 -1.227815e+001  4.680770e+001
    endloop
  endfacet
  facet normal  0.000000e+000 -6.616200e-001  7.498394e-001
    outer loop
      vertex  0.000000e+000 -1.227815e+001  4.680770e+001
      vertex  1.500000e+001 -1.227815e+001  4.680770e+001
      vertex  1.500000e+001 -1.148961e+001  4.750346e+001
    endloop
  endfacet
  facet normal  0.000000e+000 -6.616200e-001  7.498394e-001
    outer loop
      vertex  0.000000e+000 -1.227815e+001  4.680770e+001
      vertex  1.500000e+001 -1.148961e+001  4.750346e+001
      vertex  0.000000e+000 -1.148961e+001  4.750346e+001
    endloop
  endfacet
  facet normal  0.000000e+000 -8.013483e-001  5.981981e-001
    outer loop
      vertex  0.000000e+000 -1.148961e+001  4.750346e+001
      vertex  1.500000e+001 -1.148961e+001  4.750346e+001
      vertex  1.500000e+001 -1.086054e+001  4.834617e+001
    endloop
  endfacet
  facet normal  0.000000e+000 -8.013483e-001  5.981981e-001
    outer loop
      vertex  0.000000e+000 -1.148961e+001  4.750346e+001
      vertex  1.500000e+001 -1.086054e+001  4.834617e+001
      vertex  0.000000e+000 -1.086054e+001  4.834617e+001
    endloop
  endfacet
  facet normal  0.000000e+000 -9.070025e-001  4.211251e-001
    outer loop
      vertex  0.000000e+000 -1.086054e+001  4.834617e+001
      vertex  1.500000e+001 -1.086054e+001  4.834617e+001
      vertex  1.500000e+001 -1.041768e+001  4.929999e+001
    endloop
  endfacet
  facet normal  0.000000e+000 -9.070025e-001  4.211251e-001
    outer loop
      vertex  0.000000e+000 -1.086054e+001  4.834617e+001
      vertex  1.500000e+001 -1.041768e+001  4.929999e+001
      vertex  0.000000e+000 -1.041768e+001  4.929999e+001
    endloop
  endfacet
  facet normal  0.000000e+000 -9.740932e-001  2.261468e-001
    outer loop
      vertex  0.000000e+000 -1.041768e+001  4.929999e+001
      vertex  1.500000e+001 -1.041768e+001  4.929999e+001
      vertex  1.500000e+001 -1.017986e+001  5.032436e+001
    endloop
  endfacet
  facet normal  0.000000e+000 -9.740932e-001  2.261468e-001
    outer loop
      vertex  0.000000e+000 -1.041768e+001  4.929999e+001
      vertex  1.500000e+001 -1.017986e+001  5.032436e+001
      vertex  0.000000e+000 -1.017986e+001  5.032436e+001
    endloop
  endfacet
  facet normal  0.000000e+000 -1.031001e-001  9.946709e-001
    outer loop
      vertex  1.500000e+001 -1.419417e+001  4.596780e+001
      vertex  0.000000e+000 -1.524017e+001  4.585938e+001
      vertex  1.500000e+001 -1.524017e+001  4.585938e+001
    endloop
  endfacet
  facet normal  0.000000e+000  1.031000e-001  9.946710e-001
    outer loop
      vertex  1.500000e+001 -1.524017e+001  4.585938e+001
      vertex  0.000000e+000 -1.524017e+001  4.585938e+001
      vertex  0.000000e+000 -1.628618e+001  4.596780e+001
    endloop
  endfacet
  facet normal  -0.000000e+000  1.031000e-001  9.946710e-001
    outer loop
      vertex  1.500000e+001 -1.524017e+001  4.585938e+001
      vertex  0.000000e+000 -1.628618e+001  4.596780e+001
      vertex  1.500000e+001 -1.628618e+001  4.596780e+001
    endloop
  endfacet
  facet normal  0.000000e+000  3.049148e-001  9.523796e-001
    outer loop
      vertex  1.500000e+001 -1.628618e+001  4.596780e+001
      vertex  0.000000e+000 -1.628618e+001  4.596780e+001
      vertex  0.000000e+000 -1.728772e+001  4.628845e+001
    endloop
  endfacet
  facet normal  -0.000000e+000  3.049148e-001  9.523796e-001
    outer loop
      vertex  1.500000e+001 -1.628618e+001  4.596780e+001
      vertex  0.000000e+000 -1.728772e+001  4.628845e+001
      vertex  1.500000e+001 -1.728772e+001  4.628845e+001
    endloop
  endfacet
  facet normal  0.000000e+000  4.937651e-001  8.695954e-001
    outer loop
      vertex  1.500000e+001 -1.728772e+001  4.628845e+001
      vertex  0.000000e+000 -1.728772e+001  4.628845e+001
      vertex  0.000000e+000 -1.820219e+001  4.680770e+001
    endloop
  endfacet
  facet normal  -0.000000e+000  4.937651e-001  8.695954e-001
    outer loop
      vertex  1.500000e+001 -1.728772e+001  4.628845e+001
      vertex  0.000000e+000 -1.820219e+001  4.680770e+001
      vertex  1.500000e+001 -1.820219e+001  4.680770e+001
    endloop
  endfacet
  facet normal  0.000000e+000  6.616195e-001  7.498397e-001
    outer loop
      vertex  1.500000e+001 -1.820219e+001  4.680770e+001
      vertex  0.000000e+000 -1.820219e+001  4.680770e+001
      vertex  0.000000e+000 -1.899073e+001  4.750346e+001
    endloop
  endfacet
  facet normal  -0.000000e+000  6.616195e-001  7.498397e-001
    outer loop
      vertex  1.500000e+001 -1.820219e+001  4.680770e+001
      vertex  0.000000e+000 -1.899073e+001  4.750346e+001
      vertex  1.500000e+001 -1.899073e+001  4.750346e+001
    endloop
  endfacet
  facet normal  0.000000e+000  8.013487e-001  5.981975e-001
    outer loop
      vertex  1.500000e+001 -1.899073e+001  4.750346e+001
      vertex  0.000000e+000 -1.899073e+001  4.750346e+001
      vertex  0.000000e+000 -1.961980e+001  4.834617e+001
    endloop
  endfacet
  facet normal  -0.000000e+000  8.013487e-001  5.981975e-001
    outer loop
      vertex  1.500000e+001 -1.899073e+001  4.750346e+001
      vertex  0.000000e+000 -1.961980e+001  4.834617e+001
      vertex  1.500000e+001 -1.961980e+001  4.834617e+001
    endloop
  endfacet
  facet normal  0.000000e+000  9.070022e-001  4.211259e-001
    outer loop
      vertex  1.500000e+001 -1.961980e+001  4.834617e+001
      vertex  0.000000e+000 -1.961980e+001  4.834617e+001
      vertex  0.000000e+000 -2.006267e+001  4.929999e+001
    endloop
  endfacet
  facet normal  -0.000000e+000  9.070022e-001  4.211259e-001
    outer loop
      vertex  1.500000e+001 -1.961980e+001  4.834617e+001
      vertex  0.000000e+000 -2.006267e+001  4.929999e+001
      vertex  1.500000e+001 -2.006267e+001  4.929999e+001
    endloop
  endfacet
  facet normal  0.000000e+000  9.740934e-001  2.261459e-001
    outer loop
      vertex  1.500000e+001 -2.006267e+001  4.929999e+001
      vertex  0.000000e+000 -2.006267e+001  4.929999e+001
      vertex  0.000000e+000 -2.030048e+001  5.032436e+001
    endloop
  endfacet
  facet normal  -0.000000e+000  9.740934e-001  2.261459e-001
    outer loop
      vertex  1.500000e+001 -2.006267e+001  4.929999e+001
      vertex  0.000000e+000 -2.030048e+001  5.032436e+001
      vertex  1.500000e+001 -2.030048e+001  5.032436e+001
    endloop
  endfacet
  facet normal  0.000000e+000  9.922179e-001 -1.245136e-001
    outer loop
      vertex  0.000000e+000 -1.074017e+001  4.585938e+001
      vertex  0.000000e+000 -1.017986e+001  5.032436e+001
      vertex  1.500000e+001 -1.074017e+001  4.585938e+001
    endloop
  endfacet
  facet normal  0.000000e+000  9.922179e-001 -1.245136e-001
    outer loop
      vertex  1.500000e+001 -1.074017e+001  4.585938e+001
      vertex  0.000000e+000 -1.017986e+001  5.032436e+001
      vertex  1.500000e+001 -1.017986e+001  5.032436e+001
    endloop
  endfacet
  facet normal  0.000000e+000  1.000000e+000  0.000000e+000
    outer loop
      vertex  1.500000e+001 -1.074017e+001  0.000000e+000
      vertex  0.000000e+000 -1.074017e+001  0.000000e+000
      vertex  1.500000e+001 -1.074017e+001  4.585938e+001
    endloop
  endfacet
  facet normal  0.000000e+000  1.000000e+000  0.000000e+000
    outer loop
      vertex  1.500000e+001 -1.074017e+001  4.585938e+001
      vertex  0.000000e+000 -1.074017e+001  0.000000e+000
      vertex  0.000000e+000 -1.074017e+001  4.585938e+001
    endloop
  endfacet
  facet normal  0.000000e+000  0.000000e+000 -1.000000e+000
    outer loop
      vertex  0.000000e+000 -1.974017e+001  0.000000e+000
      vertex  0.000000e+000 -1.074017e+001  0.000000e+000
      vertex  1.500000e+001 -1.974017e+001  0.000000e+000
    endloop
  endfacet
  facet normal  0.000000e+000  0.000000e+000 -1.000000e+000
    outer loop
      vertex  1.500000e+001 -1.974017e+001  0.000000e+000
      vertex  0.000000e+000 -1.074017e+001  0.000000e+000
      vertex  1.500000e+001 -1.074017e+001  0.000000e+000
    endloop
  endfacet
endsolid CATIA STL
