solid CATIA STL
  facet normal  0.000000e+000  0.000000e+000  1.000000e+000
    outer loop
      vertex  1.500000e+000 -4.010364e+001  3.000000e+000
      vertex  4.620507e+000 -3.867635e+001  3.000000e+000
      vertex  1.351453e+000 -3.945282e+001  3.000000e+000
    endloop
  endfacet
  facet normal  0.000000e+000  0.000000e+000  9.999999e-001
    outer loop
      vertex  1.500000e+000 -4.010364e+001  3.000000e+000
      vertex  1.351453e+000 -4.075447e+001  3.000000e+000
      vertex  4.620507e+000 -3.867635e+001  3.000000e+000
    endloop
  endfacet
  facet normal  0.000000e+000  0.000000e+000  1.000000e+000
    outer loop
      vertex  2.482028e+000 -2.461794e+001  3.000000e+000
      vertex  1.500000e+000 -2.010364e+001  3.000000e+000
      vertex  1.351453e+000 -2.075447e+001  3.000000e+000
    endloop
  endfacet
  facet normal  0.000000e+000  0.000000e+000  1.000000e+000
    outer loop
      vertex  2.482028e+000 -2.461794e+001  3.000000e+000
      vertex  1.351453e+000 -2.075447e+001  3.000000e+000
      vertex  9.352347e-001 -2.127639e+001  3.000000e+000
    endloop
  endfacet
  facet normal  0.000000e+000  0.000000e+000  1.000000e+000
    outer loop
      vertex  2.482028e+000 -2.461794e+001  3.000000e+000
      vertex  9.352347e-001 -2.127639e+001  3.000000e+000
      vertex  3.337814e-001 -2.156603e+001  3.000000e+000
    endloop
  endfacet
  facet normal  0.000000e+000  0.000000e+000  1.000000e+000
    outer loop
      vertex  2.482028e+000 -2.461794e+001  3.000000e+000
      vertex  3.337814e-001 -2.156603e+001  3.000000e+000
      vertex  3.337814e-001 -3.864125e+001  3.000000e+000
    endloop
  endfacet
  facet normal  -0.000000e+000  0.000000e+000  9.999999e-001
    outer loop
      vertex  2.482028e+000 -2.461794e+001  3.000000e+000
      vertex  3.337814e-001 -3.864125e+001  3.000000e+000
      vertex  2.482028e+000 -3.864261e+001  3.000000e+000
    endloop
  endfacet
  facet normal  0.000000e+000  -0.000000e+000  1.000000e+000
    outer loop
      vertex -4.000000e+000 -4.010364e+001  3.000000e+000
      vertex -3.863703e+000 -4.113892e+001  3.000000e+000
      vertex -1.351453e+000 -4.075447e+001  3.000000e+000
    endloop
  endfacet
  facet normal  0.000000e+000  0.000000e+000  1.000000e+000
    outer loop
      vertex -4.000000e+000 -4.010364e+001  3.000000e+000
      vertex -1.351453e+000 -4.075447e+001  3.000000e+000
      vertex -1.500000e+000 -4.010364e+001  3.000000e+000
    endloop
  endfacet
  facet normal  0.000000e+000  -0.000000e+000  1.000000e+000
    outer loop
      vertex -4.000000e+000 -4.010364e+001  3.000000e+000
      vertex -1.500000e+000 -4.010364e+001  3.000000e+000
      vertex -1.351453e+000 -3.945282e+001  3.000000e+000
    endloop
  endfacet
  facet normal  0.000000e+000  -0.000000e+000  1.000000e+000
    outer loop
      vertex -4.000000e+000 -4.010364e+001  3.000000e+000
      vertex -1.351453e+000 -3.945282e+001  3.000000e+000
      vertex -9.352347e-001 -3.893090e+001  3.000000e+000
    endloop
  endfacet
  facet normal  0.000000e+000  -0.000000e+000  1.000000e+000
    outer loop
      vertex -4.000000e+000 -4.010364e+001  3.000000e+000
      vertex -9.352347e-001 -3.893090e+001  3.000000e+000
      vertex -3.337814e-001 -3.864125e+001  3.000000e+000
    endloop
  endfacet
  facet normal  0.000000e+000  -0.000000e+000  1.000000e+000
    outer loop
      vertex -4.000000e+000 -4.010364e+001  3.000000e+000
      vertex -3.337814e-001 -3.864125e+001  3.000000e+000
      vertex -3.337814e-001 -2.156603e+001  3.000000e+000
    endloop
  endfacet
  facet normal  0.000000e+000  0.000000e+000  1.000000e+000
    outer loop
      vertex -4.000000e+000 -4.010364e+001  3.000000e+000
      vertex -3.337814e-001 -2.156603e+001  3.000000e+000
      vertex -9.352347e-001 -2.127639e+001  3.000000e+000
    endloop
  endfacet
  facet normal  0.000000e+000  0.000000e+000  1.000000e+000
    outer loop
      vertex -4.000000e+000 -4.010364e+001  3.000000e+000
      vertex -9.352347e-001 -2.127639e+001  3.000000e+000
      vertex -1.351453e+000 -2.075447e+001  3.000000e+000
    endloop
  endfacet
  facet normal  0.000000e+000  0.000000e+000  1.000000e+000
    outer loop
      vertex -4.000000e+000 -4.010364e+001  3.000000e+000
      vertex -1.351453e+000 -2.075447e+001  3.000000e+000
      vertex -1.500000e+000 -2.010364e+001  3.000000e+000
    endloop
  endfacet
  facet normal  0.000000e+000  0.000000e+000  1.000000e+000
    outer loop
      vertex -4.000000e+000 -4.010364e+001  3.000000e+000
      vertex -1.500000e+000 -2.010364e+001  3.000000e+000
      vertex -4.000000e+000 -2.010364e+001  3.000000e+000
    endloop
  endfacet
  facet normal  -0.000000e+000  0.000000e+000  1.000000e+000
    outer loop
      vertex  2.482028e+000 -1.696684e+001  3.000000e+000
      vertex  3.337814e-001 -1.864125e+001  3.000000e+000
      vertex  9.352347e-001 -1.893090e+001  3.000000e+000
    endloop
  endfacet
  facet normal  -0.000000e+000  0.000000e+000  1.000000e+000
    outer loop
      vertex  2.482028e+000 -1.696684e+001  3.000000e+000
      vertex  9.352347e-001 -1.893090e+001  3.000000e+000
      vertex  1.351453e+000 -1.945282e+001  3.000000e+000
    endloop
  endfacet
  facet normal  -0.000000e+000  0.000000e+000  1.000000e+000
    outer loop
      vertex  2.482028e+000 -1.696684e+001  3.000000e+000
      vertex  1.351453e+000 -1.945282e+001  3.000000e+000
      vertex  1.500000e+000 -2.010364e+001  3.000000e+000
    endloop
  endfacet
  facet normal  -0.000000e+000  0.000000e+000  1.000000e+000
    outer loop
      vertex  2.482028e+000 -1.696684e+001  3.000000e+000
      vertex  1.500000e+000 -2.010364e+001  3.000000e+000
      vertex  2.482028e+000 -2.461794e+001  3.000000e+000
    endloop
  endfacet
  facet normal  -0.000000e+000  0.000000e+000  1.000000e+000
    outer loop
      vertex  2.482028e+000 -1.696684e+001  3.000000e+000
      vertex  2.482028e+000 -2.461794e+001  3.000000e+000
      vertex  4.620507e+000 -2.631003e+001  3.000000e+000
    endloop
  endfacet
  facet normal  -0.000000e+000  -0.000000e+000  1.000000e+000
    outer loop
      vertex  2.482028e+000 -1.696684e+001  3.000000e+000
      vertex  4.620507e+000 -2.631003e+001  3.000000e+000
      vertex  2.056708e+001 -3.892793e+001  3.000000e+000
    endloop
  endfacet
  facet normal  -0.000000e+000  -0.000000e+000  9.999999e-001
    outer loop
      vertex  2.482028e+000 -1.696684e+001  3.000000e+000
      vertex  2.056708e+001 -3.892793e+001  3.000000e+000
      vertex  2.566302e+001 -3.904902e+001  3.000000e+000
    endloop
  endfacet
  facet normal  0.000000e+000  -0.000000e+000  1.000000e+000
    outer loop
      vertex  2.482028e+000 -1.696684e+001  3.000000e+000
      vertex  2.566302e+001 -3.904902e+001  3.000000e+000
      vertex  2.633058e+001 -3.904902e+001  3.000000e+000
    endloop
  endfacet
  facet normal  0.000000e+000  -0.000000e+000  1.000000e+000
    outer loop
      vertex  2.482028e+000 -1.696684e+001  3.000000e+000
      vertex  2.633058e+001 -3.904902e+001  3.000000e+000
      vertex  2.918516e+001 -3.809597e+001  3.000000e+000
    endloop
  endfacet
  facet normal  0.000000e+000  0.000000e+000  1.000000e+000
    outer loop
      vertex  2.817926e-015 -4.410364e+001  3.000000e+000
      vertex  2.593399e+001 -4.451091e+001  3.000000e+000
      vertex  2.566302e+001 -4.197380e+001  3.000000e+000
    endloop
  endfacet
  facet normal  0.000000e+000  0.000000e+000  1.000000e+000
    outer loop
      vertex  2.817926e-015 -4.410364e+001  3.000000e+000
      vertex  2.566302e+001 -4.197380e+001  3.000000e+000
      vertex  2.506157e+001 -4.168415e+001  3.000000e+000
    endloop
  endfacet
  facet normal  0.000000e+000  0.000000e+000  9.999999e-001
    outer loop
      vertex  2.817926e-015 -4.410364e+001  3.000000e+000
      vertex  2.506157e+001 -4.168415e+001  3.000000e+000
      vertex  2.464535e+001 -4.116224e+001  3.000000e+000
    endloop
  endfacet
  facet normal  0.000000e+000  0.000000e+000  1.000000e+000
    outer loop
      vertex  2.817926e-015 -4.410364e+001  3.000000e+000
      vertex  2.464535e+001 -4.116224e+001  3.000000e+000
      vertex  2.449680e+001 -4.051141e+001  3.000000e+000
    endloop
  endfacet
  facet normal  0.000000e+000  0.000000e+000  1.000000e+000
    outer loop
      vertex  2.817926e-015 -4.410364e+001  3.000000e+000
      vertex  2.449680e+001 -4.051141e+001  3.000000e+000
      vertex  2.056708e+001 -3.892793e+001  3.000000e+000
    endloop
  endfacet
  facet normal  0.000000e+000  0.000000e+000  1.000000e+000
    outer loop
      vertex  2.817926e-015 -4.410364e+001  3.000000e+000
      vertex  2.056708e+001 -3.892793e+001  3.000000e+000
      vertex  4.620507e+000 -3.867635e+001  3.000000e+000
    endloop
  endfacet
  facet normal  0.000000e+000  0.000000e+000  1.000000e+000
    outer loop
      vertex  2.817926e-015 -4.410364e+001  3.000000e+000
      vertex  4.620507e+000 -3.867635e+001  3.000000e+000
      vertex  1.351453e+000 -4.075447e+001  3.000000e+000
    endloop
  endfacet
  facet normal  0.000000e+000  0.000000e+000  1.000000e+000
    outer loop
      vertex  2.817926e-015 -4.410364e+001  3.000000e+000
      vertex  1.351453e+000 -4.075447e+001  3.000000e+000
      vertex  9.352347e-001 -4.127639e+001  3.000000e+000
    endloop
  endfacet
  facet normal  0.000000e+000  0.000000e+000  1.000000e+000
    outer loop
      vertex  2.817926e-015 -4.410364e+001  3.000000e+000
      vertex  9.352347e-001 -4.127639e+001  3.000000e+000
      vertex  3.337814e-001 -4.156604e+001  3.000000e+000
    endloop
  endfacet
  facet normal  0.000000e+000  0.000000e+000  1.000000e+000
    outer loop
      vertex  2.817926e-015 -4.410364e+001  3.000000e+000
      vertex  3.337814e-001 -4.156604e+001  3.000000e+000
      vertex -3.337814e-001 -4.156604e+001  3.000000e+000
    endloop
  endfacet
  facet normal  0.000000e+000  0.000000e+000  1.000000e+000
    outer loop
      vertex  2.817926e-015 -4.410364e+001  3.000000e+000
      vertex -3.337814e-001 -4.156604e+001  3.000000e+000
      vertex -3.464102e+000 -4.210364e+001  3.000000e+000
    endloop
  endfacet
  facet normal  0.000000e+000  0.000000e+000  1.000000e+000
    outer loop
      vertex  2.817926e-015 -4.410364e+001  3.000000e+000
      vertex -3.464102e+000 -4.210364e+001  3.000000e+000
      vertex -2.828427e+000 -4.293207e+001  3.000000e+000
    endloop
  endfacet
  facet normal  0.000000e+000  0.000000e+000  9.999999e-001
    outer loop
      vertex  2.817926e-015 -4.410364e+001  3.000000e+000
      vertex -2.828427e+000 -4.293207e+001  3.000000e+000
      vertex -2.000000e+000 -4.356775e+001  3.000000e+000
    endloop
  endfacet
  facet normal  0.000000e+000  0.000000e+000  1.000000e+000
    outer loop
      vertex  2.817926e-015 -4.410364e+001  3.000000e+000
      vertex -2.000000e+000 -4.356775e+001  3.000000e+000
      vertex -1.035276e+000 -4.396735e+001  3.000000e+000
    endloop
  endfacet
  facet normal  0.000000e+000  -0.000000e+000  1.000000e+000
    outer loop
      vertex  2.056708e+001 -3.892793e+001  3.000000e+000
      vertex  2.449680e+001 -4.051141e+001  3.000000e+000
      vertex  2.464535e+001 -3.986058e+001  3.000000e+000
    endloop
  endfacet
  facet normal  0.000000e+000  -0.000000e+000  1.000000e+000
    outer loop
      vertex  2.056708e+001 -3.892793e+001  3.000000e+000
      vertex  2.464535e+001 -3.986058e+001  3.000000e+000
      vertex  2.506157e+001 -3.933866e+001  3.000000e+000
    endloop
  endfacet
  facet normal  0.000000e+000  -0.000000e+000  1.000000e+000
    outer loop
      vertex  2.056708e+001 -3.892793e+001  3.000000e+000
      vertex  2.506157e+001 -3.933866e+001  3.000000e+000
      vertex  2.566302e+001 -3.904902e+001  3.000000e+000
    endloop
  endfacet
  facet normal  -0.000000e+000  0.000000e+000  9.999999e-001
    outer loop
      vertex  2.633058e+001 -4.197380e+001  3.000000e+000
      vertex  2.566302e+001 -4.197380e+001  3.000000e+000
      vertex  2.593399e+001 -4.451091e+001  3.000000e+000
    endloop
  endfacet
  facet normal  0.000000e+000  0.000000e+000  1.000000e+000
    outer loop
      vertex  2.633058e+001 -4.197380e+001  3.000000e+000
      vertex  2.593399e+001 -4.451091e+001  3.000000e+000
      vertex  2.703923e+001 -4.437319e+001  3.000000e+000
    endloop
  endfacet
  facet normal  0.000000e+000  -0.000000e+000  1.000000e+000
    outer loop
      vertex  2.633058e+001 -4.197380e+001  3.000000e+000
      vertex  2.703923e+001 -4.437319e+001  3.000000e+000
      vertex  2.806365e+001 -4.393605e+001  3.000000e+000
    endloop
  endfacet
  facet normal  0.000000e+000  -0.000000e+000  1.000000e+000
    outer loop
      vertex  2.633058e+001 -4.197380e+001  3.000000e+000
      vertex  2.806365e+001 -4.393605e+001  3.000000e+000
      vertex  2.892782e+001 -4.323338e+001  3.000000e+000
    endloop
  endfacet
  facet normal  0.000000e+000  -0.000000e+000  1.000000e+000
    outer loop
      vertex  2.633058e+001 -4.197380e+001  3.000000e+000
      vertex  2.892782e+001 -4.323338e+001  3.000000e+000
      vertex  2.956474e+001 -4.231968e+001  3.000000e+000
    endloop
  endfacet
  facet normal  0.000000e+000  0.000000e+000  1.000000e+000
    outer loop
      vertex  2.633058e+001 -4.197380e+001  3.000000e+000
      vertex  2.956474e+001 -4.231968e+001  3.000000e+000
      vertex  2.693204e+001 -4.168415e+001  3.000000e+000
    endloop
  endfacet
  facet normal  0.000000e+000  0.000000e+000  1.000000e+000
    outer loop
      vertex -3.464102e+000 -4.210364e+001  3.000000e+000
      vertex -3.337814e-001 -4.156604e+001  3.000000e+000
      vertex -3.863703e+000 -4.113892e+001  3.000000e+000
    endloop
  endfacet
  facet normal  0.000000e+000  0.000000e+000  1.000000e+000
    outer loop
      vertex -3.863703e+000 -4.113892e+001  3.000000e+000
      vertex -3.337814e-001 -4.156604e+001  3.000000e+000
      vertex -9.352347e-001 -4.127639e+001  3.000000e+000
    endloop
  endfacet
  facet normal  0.000000e+000  0.000000e+000  1.000000e+000
    outer loop
      vertex -3.863703e+000 -4.113892e+001  3.000000e+000
      vertex -9.352347e-001 -4.127639e+001  3.000000e+000
      vertex -1.351453e+000 -4.075447e+001  3.000000e+000
    endloop
  endfacet
  facet normal  0.000000e+000  0.000000e+000  1.000000e+000
    outer loop
      vertex -3.337814e-001 -3.864125e+001  3.000000e+000
      vertex  3.337814e-001 -3.864125e+001  3.000000e+000
      vertex -3.337814e-001 -2.156603e+001  3.000000e+000
    endloop
  endfacet
  facet normal  -0.000000e+000  0.000000e+000  1.000000e+000
    outer loop
      vertex -3.337814e-001 -2.156603e+001  3.000000e+000
      vertex  3.337814e-001 -3.864125e+001  3.000000e+000
      vertex  3.337814e-001 -2.156603e+001  3.000000e+000
    endloop
  endfacet
  facet normal  0.000000e+000  0.000000e+000  9.999999e-001
    outer loop
      vertex  2.482028e+000 -1.696684e+001  3.000000e+000
      vertex  1.518407e+000 -1.640304e+001  3.000000e+000
      vertex  3.337814e-001 -1.864125e+001  3.000000e+000
    endloop
  endfacet
  facet normal  0.000000e+000  0.000000e+000  1.000000e+000
    outer loop
      vertex  3.337814e-001 -1.864125e+001  3.000000e+000
      vertex  1.518407e+000 -1.640304e+001  3.000000e+000
      vertex  4.364997e-001 -1.612753e+001  3.000000e+000
    endloop
  endfacet
  facet normal  0.000000e+000  0.000000e+000  9.999999e-001
    outer loop
      vertex  3.337814e-001 -1.864125e+001  3.000000e+000
      vertex  4.364997e-001 -1.612753e+001  3.000000e+000
      vertex -3.337814e-001 -1.864125e+001  3.000000e+000
    endloop
  endfacet
  facet normal  0.000000e+000  -0.000000e+000  1.000000e+000
    outer loop
      vertex -3.337814e-001 -1.864125e+001  3.000000e+000
      vertex  4.364997e-001 -1.612753e+001  3.000000e+000
      vertex -6.794119e-001 -1.616177e+001  3.000000e+000
    endloop
  endfacet
  facet normal  0.000000e+000  0.000000e+000  1.000000e+000
    outer loop
      vertex -3.337814e-001 -1.864125e+001  3.000000e+000
      vertex -6.794119e-001 -1.616177e+001  3.000000e+000
      vertex -3.388922e+000 -1.797874e+001  3.000000e+000
    endloop
  endfacet
  facet normal  0.000000e+000  0.000000e+000  1.000000e+000
    outer loop
      vertex -3.388922e+000 -1.797874e+001  3.000000e+000
      vertex -6.794119e-001 -1.616177e+001  3.000000e+000
      vertex -1.742396e+000 -1.650308e+001  3.000000e+000
    endloop
  endfacet
  facet normal  0.000000e+000  0.000000e+000  9.999999e-001
    outer loop
      vertex -3.388922e+000 -1.797874e+001  3.000000e+000
      vertex -1.742396e+000 -1.650308e+001  3.000000e+000
      vertex -2.669644e+000 -1.712489e+001  3.000000e+000
    endloop
  endfacet
  facet normal  0.000000e+000  0.000000e+000  9.999999e-001
    outer loop
      vertex -3.337814e-001 -1.864125e+001  3.000000e+000
      vertex -3.388922e+000 -1.797874e+001  3.000000e+000
      vertex -9.352347e-001 -1.893090e+001  3.000000e+000
    endloop
  endfacet
  facet normal  0.000000e+000  0.000000e+000  1.000000e+000
    outer loop
      vertex -9.352347e-001 -1.893090e+001  3.000000e+000
      vertex -3.388922e+000 -1.797874e+001  3.000000e+000
      vertex -3.844196e+000 -1.899813e+001  3.000000e+000
    endloop
  endfacet
  facet normal  -0.000000e+000  0.000000e+000  1.000000e+000
    outer loop
      vertex -9.352347e-001 -1.893090e+001  3.000000e+000
      vertex -3.844196e+000 -1.899813e+001  3.000000e+000
      vertex -1.351453e+000 -1.945282e+001  3.000000e+000
    endloop
  endfacet
  facet normal  0.000000e+000  0.000000e+000  9.999999e-001
    outer loop
      vertex -1.351453e+000 -1.945282e+001  3.000000e+000
      vertex -3.844196e+000 -1.899813e+001  3.000000e+000
      vertex -4.000000e+000 -2.010364e+001  3.000000e+000
    endloop
  endfacet
  facet normal  0.000000e+000  0.000000e+000  1.000000e+000
    outer loop
      vertex -1.351453e+000 -1.945282e+001  3.000000e+000
      vertex -4.000000e+000 -2.010364e+001  3.000000e+000
      vertex -1.500000e+000 -2.010364e+001  3.000000e+000
    endloop
  endfacet
  facet normal  0.000000e+000  0.000000e+000  1.000000e+000
    outer loop
      vertex  2.482028e+000 -3.864261e+001  3.000000e+000
      vertex  3.337814e-001 -3.864125e+001  3.000000e+000
      vertex  4.620507e+000 -3.867635e+001  3.000000e+000
    endloop
  endfacet
  facet normal  0.000000e+000  0.000000e+000  1.000000e+000
    outer loop
      vertex  4.620507e+000 -3.867635e+001  3.000000e+000
      vertex  3.337814e-001 -3.864125e+001  3.000000e+000
      vertex  9.352347e-001 -3.893090e+001  3.000000e+000
    endloop
  endfacet
  facet normal  -0.000000e+000  0.000000e+000  1.000000e+000
    outer loop
      vertex  4.620507e+000 -3.867635e+001  3.000000e+000
      vertex  9.352347e-001 -3.893090e+001  3.000000e+000
      vertex  1.351453e+000 -3.945282e+001  3.000000e+000
    endloop
  endfacet
  facet normal  0.000000e+000  0.000000e+000  1.000000e+000
    outer loop
      vertex  2.693204e+001 -3.933866e+001  3.000000e+000
      vertex  2.998075e+001 -4.015338e+001  3.000000e+000
      vertex  2.633058e+001 -3.904902e+001  3.000000e+000
    endloop
  endfacet
  facet normal  0.000000e+000  0.000000e+000  1.000000e+000
    outer loop
      vertex  2.633058e+001 -3.904902e+001  3.000000e+000
      vertex  2.998075e+001 -4.015338e+001  3.000000e+000
      vertex  2.972758e+001 -3.906875e+001  3.000000e+000
    endloop
  endfacet
  facet normal  0.000000e+000  0.000000e+000  1.000000e+000
    outer loop
      vertex  2.633058e+001 -3.904902e+001  3.000000e+000
      vertex  2.972758e+001 -3.906875e+001  3.000000e+000
      vertex  2.918516e+001 -3.809597e+001  3.000000e+000
    endloop
  endfacet
  facet normal  0.000000e+000  0.000000e+000  1.000000e+000
    outer loop
      vertex  2.749680e+001 -4.051141e+001  3.000000e+000
      vertex  2.992502e+001 -4.126577e+001  3.000000e+000
      vertex  2.734826e+001 -3.986058e+001  3.000000e+000
    endloop
  endfacet
  facet normal  0.000000e+000  0.000000e+000  9.999999e-001
    outer loop
      vertex  2.734826e+001 -3.986058e+001  3.000000e+000
      vertex  2.992502e+001 -4.126577e+001  3.000000e+000
      vertex  2.998075e+001 -4.015338e+001  3.000000e+000
    endloop
  endfacet
  facet normal  0.000000e+000  0.000000e+000  1.000000e+000
    outer loop
      vertex  2.734826e+001 -3.986058e+001  3.000000e+000
      vertex  2.998075e+001 -4.015338e+001  3.000000e+000
      vertex  2.693204e+001 -3.933866e+001  3.000000e+000
    endloop
  endfacet
  facet normal  0.000000e+000  0.000000e+000  1.000000e+000
    outer loop
      vertex  2.693204e+001 -4.168415e+001  3.000000e+000
      vertex  2.956474e+001 -4.231968e+001  3.000000e+000
      vertex  2.734826e+001 -4.116224e+001  3.000000e+000
    endloop
  endfacet
  facet normal  0.000000e+000  0.000000e+000  1.000000e+000
    outer loop
      vertex  2.734826e+001 -4.116224e+001  3.000000e+000
      vertex  2.956474e+001 -4.231968e+001  3.000000e+000
      vertex  2.992502e+001 -4.126577e+001  3.000000e+000
    endloop
  endfacet
  facet normal  0.000000e+000  0.000000e+000  1.000000e+000
    outer loop
      vertex  2.734826e+001 -4.116224e+001  3.000000e+000
      vertex  2.992502e+001 -4.126577e+001  3.000000e+000
      vertex  2.749680e+001 -4.051141e+001  3.000000e+000
    endloop
  endfacet
  facet normal  0.000000e+000  0.000000e+000 -1.000000e+000
    outer loop
      vertex  1.351453e+000 -3.945282e+001  0.000000e+000
      vertex  4.620507e+000 -3.867635e+001  0.000000e+000
      vertex  1.500000e+000 -4.010364e+001  0.000000e+000
    endloop
  endfacet
  facet normal  0.000000e+000  0.000000e+000 -9.999999e-001
    outer loop
      vertex  4.620507e+000 -3.867635e+001  0.000000e+000
      vertex  1.351453e+000 -4.075447e+001  0.000000e+000
      vertex  1.500000e+000 -4.010364e+001  0.000000e+000
    endloop
  endfacet
  facet normal  0.000000e+000  0.000000e+000 -9.999999e-001
    outer loop
      vertex  2.482028e+000 -2.461794e+001  0.000000e+000
      vertex  2.482028e+000 -3.864261e+001  0.000000e+000
      vertex  3.337814e-001 -3.864125e+001  0.000000e+000
    endloop
  endfacet
  facet normal  0.000000e+000  0.000000e+000 -1.000000e+000
    outer loop
      vertex  2.482028e+000 -2.461794e+001  0.000000e+000
      vertex  3.337814e-001 -3.864125e+001  0.000000e+000
      vertex  3.337814e-001 -2.156603e+001  0.000000e+000
    endloop
  endfacet
  facet normal  0.000000e+000  0.000000e+000 -1.000000e+000
    outer loop
      vertex  2.482028e+000 -2.461794e+001  0.000000e+000
      vertex  3.337814e-001 -2.156603e+001  0.000000e+000
      vertex  9.352347e-001 -2.127639e+001  0.000000e+000
    endloop
  endfacet
  facet normal  0.000000e+000  0.000000e+000 -1.000000e+000
    outer loop
      vertex  2.482028e+000 -2.461794e+001  0.000000e+000
      vertex  9.352347e-001 -2.127639e+001  0.000000e+000
      vertex  1.351453e+000 -2.075447e+001  0.000000e+000
    endloop
  endfacet
  facet normal  0.000000e+000  0.000000e+000 -1.000000e+000
    outer loop
      vertex  2.482028e+000 -2.461794e+001  0.000000e+000
      vertex  1.351453e+000 -2.075447e+001  0.000000e+000
      vertex  1.500000e+000 -2.010364e+001  0.000000e+000
    endloop
  endfacet
  facet normal  0.000000e+000  0.000000e+000 -1.000000e+000
    outer loop
      vertex -4.000000e+000 -4.010364e+001  0.000000e+000
      vertex -4.000000e+000 -2.010364e+001  0.000000e+000
      vertex -1.500000e+000 -2.010364e+001  0.000000e+000
    endloop
  endfacet
  facet normal  0.000000e+000  -0.000000e+000 -1.000000e+000
    outer loop
      vertex -4.000000e+000 -4.010364e+001  0.000000e+000
      vertex -1.500000e+000 -2.010364e+001  0.000000e+000
      vertex -1.351453e+000 -2.075447e+001  0.000000e+000
    endloop
  endfacet
  facet normal  0.000000e+000  -0.000000e+000 -1.000000e+000
    outer loop
      vertex -4.000000e+000 -4.010364e+001  0.000000e+000
      vertex -1.351453e+000 -2.075447e+001  0.000000e+000
      vertex -9.352347e-001 -2.127639e+001  0.000000e+000
    endloop
  endfacet
  facet normal  0.000000e+000  -0.000000e+000 -1.000000e+000
    outer loop
      vertex -4.000000e+000 -4.010364e+001  0.000000e+000
      vertex -9.352347e-001 -2.127639e+001  0.000000e+000
      vertex -3.337814e-001 -2.156603e+001  0.000000e+000
    endloop
  endfacet
  facet normal  0.000000e+000  -0.000000e+000 -1.000000e+000
    outer loop
      vertex -4.000000e+000 -4.010364e+001  0.000000e+000
      vertex -3.337814e-001 -2.156603e+001  0.000000e+000
      vertex -3.337814e-001 -3.864125e+001  0.000000e+000
    endloop
  endfacet
  facet normal  0.000000e+000  0.000000e+000 -1.000000e+000
    outer loop
      vertex -4.000000e+000 -4.010364e+001  0.000000e+000
      vertex -3.337814e-001 -3.864125e+001  0.000000e+000
      vertex -9.352347e-001 -3.893090e+001  0.000000e+000
    endloop
  endfacet
  facet normal  0.000000e+000  0.000000e+000 -1.000000e+000
    outer loop
      vertex -4.000000e+000 -4.010364e+001  0.000000e+000
      vertex -9.352347e-001 -3.893090e+001  0.000000e+000
      vertex -1.351453e+000 -3.945282e+001  0.000000e+000
    endloop
  endfacet
  facet normal  0.000000e+000  0.000000e+000 -1.000000e+000
    outer loop
      vertex -4.000000e+000 -4.010364e+001  0.000000e+000
      vertex -1.351453e+000 -3.945282e+001  0.000000e+000
      vertex -1.500000e+000 -4.010364e+001  0.000000e+000
    endloop
  endfacet
  facet normal  -0.000000e+000  -0.000000e+000 -1.000000e+000
    outer loop
      vertex -4.000000e+000 -4.010364e+001  0.000000e+000
      vertex -1.500000e+000 -4.010364e+001  0.000000e+000
      vertex -1.351453e+000 -4.075447e+001  0.000000e+000
    endloop
  endfacet
  facet normal  -0.000000e+000  0.000000e+000 -1.000000e+000
    outer loop
      vertex -4.000000e+000 -4.010364e+001  0.000000e+000
      vertex -1.351453e+000 -4.075447e+001  0.000000e+000
      vertex -3.863703e+000 -4.113892e+001  0.000000e+000
    endloop
  endfacet
  facet normal  -0.000000e+000  0.000000e+000 -1.000000e+000
    outer loop
      vertex  2.482028e+000 -1.696684e+001  0.000000e+000
      vertex  2.918516e+001 -3.809597e+001  0.000000e+000
      vertex  2.633058e+001 -3.904902e+001  0.000000e+000
    endloop
  endfacet
  facet normal  0.000000e+000  0.000000e+000 -1.000000e+000
    outer loop
      vertex  2.482028e+000 -1.696684e+001  0.000000e+000
      vertex  2.633058e+001 -3.904902e+001  0.000000e+000
      vertex  2.566302e+001 -3.904902e+001  0.000000e+000
    endloop
  endfacet
  facet normal  0.000000e+000  0.000000e+000 -9.999999e-001
    outer loop
      vertex  2.482028e+000 -1.696684e+001  0.000000e+000
      vertex  2.566302e+001 -3.904902e+001  0.000000e+000
      vertex  2.056708e+001 -3.892793e+001  0.000000e+000
    endloop
  endfacet
  facet normal  0.000000e+000  0.000000e+000 -1.000000e+000
    outer loop
      vertex  2.482028e+000 -1.696684e+001  0.000000e+000
      vertex  2.056708e+001 -3.892793e+001  0.000000e+000
      vertex  4.620507e+000 -2.631003e+001  0.000000e+000
    endloop
  endfacet
  facet normal  0.000000e+000  0.000000e+000 -1.000000e+000
    outer loop
      vertex  2.482028e+000 -1.696684e+001  0.000000e+000
      vertex  4.620507e+000 -2.631003e+001  0.000000e+000
      vertex  2.482028e+000 -2.461794e+001  0.000000e+000
    endloop
  endfacet
  facet normal  0.000000e+000  0.000000e+000 -1.000000e+000
    outer loop
      vertex  2.482028e+000 -1.696684e+001  0.000000e+000
      vertex  2.482028e+000 -2.461794e+001  0.000000e+000
      vertex  1.500000e+000 -2.010364e+001  0.000000e+000
    endloop
  endfacet
  facet normal  0.000000e+000  0.000000e+000 -1.000000e+000
    outer loop
      vertex  2.482028e+000 -1.696684e+001  0.000000e+000
      vertex  1.500000e+000 -2.010364e+001  0.000000e+000
      vertex  1.351453e+000 -1.945282e+001  0.000000e+000
    endloop
  endfacet
  facet normal  0.000000e+000  0.000000e+000 -1.000000e+000
    outer loop
      vertex  2.482028e+000 -1.696684e+001  0.000000e+000
      vertex  1.351453e+000 -1.945282e+001  0.000000e+000
      vertex  9.352347e-001 -1.893090e+001  0.000000e+000
    endloop
  endfacet
  facet normal  0.000000e+000  0.000000e+000 -1.000000e+000
    outer loop
      vertex  2.482028e+000 -1.696684e+001  0.000000e+000
      vertex  9.352347e-001 -1.893090e+001  0.000000e+000
      vertex  3.337814e-001 -1.864125e+001  0.000000e+000
    endloop
  endfacet
  facet normal  0.000000e+000  0.000000e+000 -1.000000e+000
    outer loop
      vertex  2.817926e-015 -4.410364e+001  0.000000e+000
      vertex -1.035276e+000 -4.396735e+001  0.000000e+000
      vertex -2.000000e+000 -4.356775e+001  0.000000e+000
    endloop
  endfacet
  facet normal  0.000000e+000  0.000000e+000 -9.999999e-001
    outer loop
      vertex  2.817926e-015 -4.410364e+001  0.000000e+000
      vertex -2.000000e+000 -4.356775e+001  0.000000e+000
      vertex -2.828427e+000 -4.293207e+001  0.000000e+000
    endloop
  endfacet
  facet normal  0.000000e+000  0.000000e+000 -1.000000e+000
    outer loop
      vertex  2.817926e-015 -4.410364e+001  0.000000e+000
      vertex -2.828427e+000 -4.293207e+001  0.000000e+000
      vertex -3.464102e+000 -4.210364e+001  0.000000e+000
    endloop
  endfacet
  facet normal  0.000000e+000  0.000000e+000 -1.000000e+000
    outer loop
      vertex  2.817926e-015 -4.410364e+001  0.000000e+000
      vertex -3.464102e+000 -4.210364e+001  0.000000e+000
      vertex -3.337814e-001 -4.156604e+001  0.000000e+000
    endloop
  endfacet
  facet normal  0.000000e+000  0.000000e+000 -1.000000e+000
    outer loop
      vertex  2.817926e-015 -4.410364e+001  0.000000e+000
      vertex -3.337814e-001 -4.156604e+001  0.000000e+000
      vertex  3.337814e-001 -4.156604e+001  0.000000e+000
    endloop
  endfacet
  facet normal  0.000000e+000  -0.000000e+000 -1.000000e+000
    outer loop
      vertex  2.817926e-015 -4.410364e+001  0.000000e+000
      vertex  3.337814e-001 -4.156604e+001  0.000000e+000
      vertex  9.352347e-001 -4.127639e+001  0.000000e+000
    endloop
  endfacet
  facet normal  0.000000e+000  -0.000000e+000 -1.000000e+000
    outer loop
      vertex  2.817926e-015 -4.410364e+001  0.000000e+000
      vertex  9.352347e-001 -4.127639e+001  0.000000e+000
      vertex  1.351453e+000 -4.075447e+001  0.000000e+000
    endloop
  endfacet
  facet normal  0.000000e+000  -0.000000e+000 -1.000000e+000
    outer loop
      vertex  2.817926e-015 -4.410364e+001  0.000000e+000
      vertex  1.351453e+000 -4.075447e+001  0.000000e+000
      vertex  4.620507e+000 -3.867635e+001  0.000000e+000
    endloop
  endfacet
  facet normal  0.000000e+000  -0.000000e+000 -1.000000e+000
    outer loop
      vertex  2.817926e-015 -4.410364e+001  0.000000e+000
      vertex  4.620507e+000 -3.867635e+001  0.000000e+000
      vertex  2.056708e+001 -3.892793e+001  0.000000e+000
    endloop
  endfacet
  facet normal  0.000000e+000  -0.000000e+000 -1.000000e+000
    outer loop
      vertex  2.817926e-015 -4.410364e+001  0.000000e+000
      vertex  2.056708e+001 -3.892793e+001  0.000000e+000
      vertex  2.449680e+001 -4.051141e+001  0.000000e+000
    endloop
  endfacet
  facet normal  0.000000e+000  -0.000000e+000 -1.000000e+000
    outer loop
      vertex  2.817926e-015 -4.410364e+001  0.000000e+000
      vertex  2.449680e+001 -4.051141e+001  0.000000e+000
      vertex  2.464535e+001 -4.116224e+001  0.000000e+000
    endloop
  endfacet
  facet normal  0.000000e+000  -0.000000e+000 -1.000000e+000
    outer loop
      vertex  2.817926e-015 -4.410364e+001  0.000000e+000
      vertex  2.464535e+001 -4.116224e+001  0.000000e+000
      vertex  2.506157e+001 -4.168415e+001  0.000000e+000
    endloop
  endfacet
  facet normal  0.000000e+000  -0.000000e+000 -1.000000e+000
    outer loop
      vertex  2.817926e-015 -4.410364e+001  0.000000e+000
      vertex  2.506157e+001 -4.168415e+001  0.000000e+000
      vertex  2.566302e+001 -4.197380e+001  0.000000e+000
    endloop
  endfacet
  facet normal  0.000000e+000  -0.000000e+000 -1.000000e+000
    outer loop
      vertex  2.817926e-015 -4.410364e+001  0.000000e+000
      vertex  2.566302e+001 -4.197380e+001  0.000000e+000
      vertex  2.593399e+001 -4.451091e+001  0.000000e+000
    endloop
  endfacet
  facet normal  -0.000000e+000  0.000000e+000 -1.000000e+000
    outer loop
      vertex  2.056708e+001 -3.892793e+001  0.000000e+000
      vertex  2.566302e+001 -3.904902e+001  0.000000e+000
      vertex  2.506157e+001 -3.933866e+001  0.000000e+000
    endloop
  endfacet
  facet normal  -0.000000e+000  0.000000e+000 -9.999999e-001
    outer loop
      vertex  2.056708e+001 -3.892793e+001  0.000000e+000
      vertex  2.506157e+001 -3.933866e+001  0.000000e+000
      vertex  2.464535e+001 -3.986058e+001  0.000000e+000
    endloop
  endfacet
  facet normal  -0.000000e+000  0.000000e+000 -1.000000e+000
    outer loop
      vertex  2.056708e+001 -3.892793e+001  0.000000e+000
      vertex  2.464535e+001 -3.986058e+001  0.000000e+000
      vertex  2.449680e+001 -4.051141e+001  0.000000e+000
    endloop
  endfacet
  facet normal  0.000000e+000  -0.000000e+000 -1.000000e+000
    outer loop
      vertex  2.633058e+001 -4.197380e+001  0.000000e+000
      vertex  2.693204e+001 -4.168415e+001  0.000000e+000
      vertex  2.956474e+001 -4.231968e+001  0.000000e+000
    endloop
  endfacet
  facet normal  -0.000000e+000  0.000000e+000 -1.000000e+000
    outer loop
      vertex  2.633058e+001 -4.197380e+001  0.000000e+000
      vertex  2.956474e+001 -4.231968e+001  0.000000e+000
      vertex  2.892782e+001 -4.323338e+001  0.000000e+000
    endloop
  endfacet
  facet normal  -0.000000e+000  0.000000e+000 -9.999999e-001
    outer loop
      vertex  2.633058e+001 -4.197380e+001  0.000000e+000
      vertex  2.892782e+001 -4.323338e+001  0.000000e+000
      vertex  2.806365e+001 -4.393605e+001  0.000000e+000
    endloop
  endfacet
  facet normal  -0.000000e+000  0.000000e+000 -1.000000e+000
    outer loop
      vertex  2.633058e+001 -4.197380e+001  0.000000e+000
      vertex  2.806365e+001 -4.393605e+001  0.000000e+000
      vertex  2.703923e+001 -4.437319e+001  0.000000e+000
    endloop
  endfacet
  facet normal  -0.000000e+000  0.000000e+000 -1.000000e+000
    outer loop
      vertex  2.633058e+001 -4.197380e+001  0.000000e+000
      vertex  2.703923e+001 -4.437319e+001  0.000000e+000
      vertex  2.593399e+001 -4.451091e+001  0.000000e+000
    endloop
  endfacet
  facet normal  0.000000e+000  0.000000e+000 -1.000000e+000
    outer loop
      vertex  2.633058e+001 -4.197380e+001  0.000000e+000
      vertex  2.593399e+001 -4.451091e+001  0.000000e+000
      vertex  2.566302e+001 -4.197380e+001  0.000000e+000
    endloop
  endfacet
  facet normal  0.000000e+000  0.000000e+000 -1.000000e+000
    outer loop
      vertex -1.351453e+000 -4.075447e+001  0.000000e+000
      vertex -9.352347e-001 -4.127639e+001  0.000000e+000
      vertex -3.863703e+000 -4.113892e+001  0.000000e+000
    endloop
  endfacet
  facet normal  0.000000e+000  0.000000e+000 -1.000000e+000
    outer loop
      vertex -3.863703e+000 -4.113892e+001  0.000000e+000
      vertex -9.352347e-001 -4.127639e+001  0.000000e+000
      vertex -3.337814e-001 -4.156604e+001  0.000000e+000
    endloop
  endfacet
  facet normal  -0.000000e+000  0.000000e+000 -1.000000e+000
    outer loop
      vertex -3.863703e+000 -4.113892e+001  0.000000e+000
      vertex -3.337814e-001 -4.156604e+001  0.000000e+000
      vertex -3.464102e+000 -4.210364e+001  0.000000e+000
    endloop
  endfacet
  facet normal  0.000000e+000  0.000000e+000 -1.000000e+000
    outer loop
      vertex -3.337814e-001 -3.864125e+001  0.000000e+000
      vertex -3.337814e-001 -2.156603e+001  0.000000e+000
      vertex  3.337814e-001 -3.864125e+001  0.000000e+000
    endloop
  endfacet
  facet normal  0.000000e+000  0.000000e+000 -1.000000e+000
    outer loop
      vertex  3.337814e-001 -3.864125e+001  0.000000e+000
      vertex -3.337814e-001 -2.156603e+001  0.000000e+000
      vertex  3.337814e-001 -2.156603e+001  0.000000e+000
    endloop
  endfacet
  facet normal  0.000000e+000  0.000000e+000 -9.999999e-001
    outer loop
      vertex -2.669644e+000 -1.712489e+001  0.000000e+000
      vertex -1.742396e+000 -1.650308e+001  0.000000e+000
      vertex -3.388922e+000 -1.797874e+001  0.000000e+000
    endloop
  endfacet
  facet normal  0.000000e+000  0.000000e+000 -1.000000e+000
    outer loop
      vertex -3.388922e+000 -1.797874e+001  0.000000e+000
      vertex -1.742396e+000 -1.650308e+001  0.000000e+000
      vertex -6.794119e-001 -1.616177e+001  0.000000e+000
    endloop
  endfacet
  facet normal  0.000000e+000  -0.000000e+000 -1.000000e+000
    outer loop
      vertex -3.388922e+000 -1.797874e+001  0.000000e+000
      vertex -6.794119e-001 -1.616177e+001  0.000000e+000
      vertex -3.337814e-001 -1.864125e+001  0.000000e+000
    endloop
  endfacet
  facet normal  0.000000e+000  0.000000e+000 -1.000000e+000
    outer loop
      vertex -3.337814e-001 -1.864125e+001  0.000000e+000
      vertex -6.794119e-001 -1.616177e+001  0.000000e+000
      vertex  4.364997e-001 -1.612753e+001  0.000000e+000
    endloop
  endfacet
  facet normal  0.000000e+000  0.000000e+000 -9.999999e-001
    outer loop
      vertex -3.337814e-001 -1.864125e+001  0.000000e+000
      vertex  4.364997e-001 -1.612753e+001  0.000000e+000
      vertex  3.337814e-001 -1.864125e+001  0.000000e+000
    endloop
  endfacet
  facet normal  0.000000e+000  0.000000e+000 -1.000000e+000
    outer loop
      vertex  3.337814e-001 -1.864125e+001  0.000000e+000
      vertex  4.364997e-001 -1.612753e+001  0.000000e+000
      vertex  1.518407e+000 -1.640304e+001  0.000000e+000
    endloop
  endfacet
  facet normal  0.000000e+000  -0.000000e+000 -9.999999e-001
    outer loop
      vertex  3.337814e-001 -1.864125e+001  0.000000e+000
      vertex  1.518407e+000 -1.640304e+001  0.000000e+000
      vertex  2.482028e+000 -1.696684e+001  0.000000e+000
    endloop
  endfacet
  facet normal  0.000000e+000  0.000000e+000 -1.000000e+000
    outer loop
      vertex -1.500000e+000 -2.010364e+001  0.000000e+000
      vertex -4.000000e+000 -2.010364e+001  0.000000e+000
      vertex -1.351453e+000 -1.945282e+001  0.000000e+000
    endloop
  endfacet
  facet normal  -0.000000e+000  0.000000e+000 -9.999999e-001
    outer loop
      vertex -1.351453e+000 -1.945282e+001  0.000000e+000
      vertex -4.000000e+000 -2.010364e+001  0.000000e+000
      vertex -3.844196e+000 -1.899813e+001  0.000000e+000
    endloop
  endfacet
  facet normal  0.000000e+000  0.000000e+000 -1.000000e+000
    outer loop
      vertex -1.351453e+000 -1.945282e+001  0.000000e+000
      vertex -3.844196e+000 -1.899813e+001  0.000000e+000
      vertex -9.352347e-001 -1.893090e+001  0.000000e+000
    endloop
  endfacet
  facet normal  -0.000000e+000  0.000000e+000 -1.000000e+000
    outer loop
      vertex -9.352347e-001 -1.893090e+001  0.000000e+000
      vertex -3.844196e+000 -1.899813e+001  0.000000e+000
      vertex -3.388922e+000 -1.797874e+001  0.000000e+000
    endloop
  endfacet
  facet normal  0.000000e+000  0.000000e+000 -9.999999e-001
    outer loop
      vertex -9.352347e-001 -1.893090e+001  0.000000e+000
      vertex -3.388922e+000 -1.797874e+001  0.000000e+000
      vertex -3.337814e-001 -1.864125e+001  0.000000e+000
    endloop
  endfacet
  facet normal  0.000000e+000  0.000000e+000 -1.000000e+000
    outer loop
      vertex  1.351453e+000 -3.945282e+001  0.000000e+000
      vertex  9.352347e-001 -3.893090e+001  0.000000e+000
      vertex  4.620507e+000 -3.867635e+001  0.000000e+000
    endloop
  endfacet
  facet normal  -0.000000e+000  0.000000e+000 -1.000000e+000
    outer loop
      vertex  4.620507e+000 -3.867635e+001  0.000000e+000
      vertex  9.352347e-001 -3.893090e+001  0.000000e+000
      vertex  3.337814e-001 -3.864125e+001  0.000000e+000
    endloop
  endfacet
  facet normal  0.000000e+000  0.000000e+000 -1.000000e+000
    outer loop
      vertex  4.620507e+000 -3.867635e+001  0.000000e+000
      vertex  3.337814e-001 -3.864125e+001  0.000000e+000
      vertex  2.482028e+000 -3.864261e+001  0.000000e+000
    endloop
  endfacet
  facet normal  0.000000e+000  0.000000e+000 -1.000000e+000
    outer loop
      vertex  2.918516e+001 -3.809597e+001  0.000000e+000
      vertex  2.972758e+001 -3.906875e+001  0.000000e+000
      vertex  2.633058e+001 -3.904902e+001  0.000000e+000
    endloop
  endfacet
  facet normal  0.000000e+000  0.000000e+000 -1.000000e+000
    outer loop
      vertex  2.633058e+001 -3.904902e+001  0.000000e+000
      vertex  2.972758e+001 -3.906875e+001  0.000000e+000
      vertex  2.998075e+001 -4.015338e+001  0.000000e+000
    endloop
  endfacet
  facet normal  0.000000e+000  0.000000e+000 -1.000000e+000
    outer loop
      vertex  2.633058e+001 -3.904902e+001  0.000000e+000
      vertex  2.998075e+001 -4.015338e+001  0.000000e+000
      vertex  2.693204e+001 -3.933866e+001  0.000000e+000
    endloop
  endfacet
  facet normal  0.000000e+000  0.000000e+000 -1.000000e+000
    outer loop
      vertex  2.693204e+001 -3.933866e+001  0.000000e+000
      vertex  2.998075e+001 -4.015338e+001  0.000000e+000
      vertex  2.734826e+001 -3.986058e+001  0.000000e+000
    endloop
  endfacet
  facet normal  0.000000e+000  0.000000e+000 -9.999999e-001
    outer loop
      vertex  2.734826e+001 -3.986058e+001  0.000000e+000
      vertex  2.998075e+001 -4.015338e+001  0.000000e+000
      vertex  2.992502e+001 -4.126577e+001  0.000000e+000
    endloop
  endfacet
  facet normal  0.000000e+000  0.000000e+000 -1.000000e+000
    outer loop
      vertex  2.734826e+001 -3.986058e+001  0.000000e+000
      vertex  2.992502e+001 -4.126577e+001  0.000000e+000
      vertex  2.749680e+001 -4.051141e+001  0.000000e+000
    endloop
  endfacet
  facet normal  0.000000e+000  0.000000e+000 -1.000000e+000
    outer loop
      vertex  2.749680e+001 -4.051141e+001  0.000000e+000
      vertex  2.992502e+001 -4.126577e+001  0.000000e+000
      vertex  2.734826e+001 -4.116224e+001  0.000000e+000
    endloop
  endfacet
  facet normal  0.000000e+000  0.000000e+000 -1.000000e+000
    outer loop
      vertex  2.734826e+001 -4.116224e+001  0.000000e+000
      vertex  2.992502e+001 -4.126577e+001  0.000000e+000
      vertex  2.956474e+001 -4.231968e+001  0.000000e+000
    endloop
  endfacet
  facet normal  0.000000e+000  0.000000e+000 -1.000000e+000
    outer loop
      vertex  2.734826e+001 -4.116224e+001  0.000000e+000
      vertex  2.956474e+001 -4.231968e+001  0.000000e+000
      vertex  2.693204e+001 -4.168415e+001  0.000000e+000
    endloop
  endfacet
  facet normal -6.205071e-001 -7.842010e-001  0.000000e+000
    outer loop
      vertex  2.056708e+001 -3.892793e+001  3.000000e+000
      vertex  4.620507e+000 -2.631003e+001  3.000000e+000
      vertex  2.056708e+001 -3.892793e+001  0.000000e+000
    endloop
  endfacet
  facet normal -6.205071e-001 -7.842010e-001  0.000000e+000
    outer loop
      vertex  2.056708e+001 -3.892793e+001  0.000000e+000
      vertex  4.620507e+000 -2.631003e+001  3.000000e+000
      vertex  4.620507e+000 -2.631003e+001  0.000000e+000
    endloop
  endfacet
  facet normal -6.205073e-001 -7.842006e-001  0.000000e+000
    outer loop
      vertex  4.620507e+000 -2.631003e+001  3.000000e+000
      vertex  2.482028e+000 -2.461794e+001  3.000000e+000
      vertex  4.620507e+000 -2.631003e+001  0.000000e+000
    endloop
  endfacet
  facet normal -6.205073e-001 -7.842006e-001  0.000000e+000
    outer loop
      vertex  4.620507e+000 -2.631003e+001  0.000000e+000
      vertex  2.482028e+000 -2.461794e+001  3.000000e+000
      vertex  2.482028e+000 -2.461794e+001  0.000000e+000
    endloop
  endfacet
  facet normal  9.999999e-001  0.000000e+000  0.000000e+000
    outer loop
      vertex  2.482028e+000 -3.864261e+001  3.000000e+000
      vertex  2.482028e+000 -3.864261e+001  0.000000e+000
      vertex  2.482028e+000 -2.461794e+001  3.000000e+000
    endloop
  endfacet
  facet normal  9.999999e-001  0.000000e+000  0.000000e+000
    outer loop
      vertex  2.482028e+000 -2.461794e+001  3.000000e+000
      vertex  2.482028e+000 -3.864261e+001  0.000000e+000
      vertex  2.482028e+000 -2.461794e+001  0.000000e+000
    endloop
  endfacet
  facet normal  1.577429e-002  9.998756e-001  -0.000000e+000
    outer loop
      vertex  4.620507e+000 -3.867635e+001  3.000000e+000
      vertex  4.620507e+000 -3.867635e+001  0.000000e+000
      vertex  2.482028e+000 -3.864261e+001  3.000000e+000
    endloop
  endfacet
  facet normal  1.577429e-002  9.998756e-001  0.000000e+000
    outer loop
      vertex  2.482028e+000 -3.864261e+001  3.000000e+000
      vertex  4.620507e+000 -3.867635e+001  0.000000e+000
      vertex  2.482028e+000 -3.864261e+001  0.000000e+000
    endloop
  endfacet
  facet normal  1.577418e-002  9.998757e-001  -0.000000e+000
    outer loop
      vertex  2.056708e+001 -3.892793e+001  3.000000e+000
      vertex  2.056708e+001 -3.892793e+001  0.000000e+000
      vertex  4.620507e+000 -3.867635e+001  3.000000e+000
    endloop
  endfacet
  facet normal  1.577418e-002  9.998757e-001  0.000000e+000
    outer loop
      vertex  4.620507e+000 -3.867635e+001  3.000000e+000
      vertex  2.056708e+001 -3.892793e+001  0.000000e+000
      vertex  4.620507e+000 -3.867635e+001  0.000000e+000
    endloop
  endfacet
  facet normal  4.338853e-001 -9.009682e-001  0.000000e+000
    outer loop
      vertex  2.566302e+001 -3.904902e+001  0.000000e+000
      vertex  2.506157e+001 -3.933866e+001  3.000000e+000
      vertex  2.506157e+001 -3.933866e+001  0.000000e+000
    endloop
  endfacet
  facet normal  7.818307e-001 -6.234908e-001  0.000000e+000
    outer loop
      vertex  2.506157e+001 -3.933866e+001  0.000000e+000
      vertex  2.506157e+001 -3.933866e+001  3.000000e+000
      vertex  2.464535e+001 -3.986058e+001  3.000000e+000
    endloop
  endfacet
  facet normal  7.818307e-001 -6.234908e-001  0.000000e+000
    outer loop
      vertex  2.506157e+001 -3.933866e+001  0.000000e+000
      vertex  2.464535e+001 -3.986058e+001  3.000000e+000
      vertex  2.464535e+001 -3.986058e+001  0.000000e+000
    endloop
  endfacet
  facet normal  9.749278e-001 -2.225218e-001  0.000000e+000
    outer loop
      vertex  2.464535e+001 -3.986058e+001  0.000000e+000
      vertex  2.464535e+001 -3.986058e+001  3.000000e+000
      vertex  2.449680e+001 -4.051141e+001  3.000000e+000
    endloop
  endfacet
  facet normal  9.749278e-001 -2.225218e-001  0.000000e+000
    outer loop
      vertex  2.464535e+001 -3.986058e+001  0.000000e+000
      vertex  2.449680e+001 -4.051141e+001  3.000000e+000
      vertex  2.449680e+001 -4.051141e+001  0.000000e+000
    endloop
  endfacet
  facet normal  4.338853e-001 -9.009682e-001  0.000000e+000
    outer loop
      vertex  2.506157e+001 -3.933866e+001  3.000000e+000
      vertex  2.566302e+001 -3.904902e+001  0.000000e+000
      vertex  2.566302e+001 -3.904902e+001  3.000000e+000
    endloop
  endfacet
  facet normal  0.000000e+000 -1.000000e+000  0.000000e+000
    outer loop
      vertex  2.566302e+001 -3.904902e+001  3.000000e+000
      vertex  2.566302e+001 -3.904902e+001  0.000000e+000
      vertex  2.633058e+001 -3.904902e+001  0.000000e+000
    endloop
  endfacet
  facet normal  0.000000e+000 -1.000000e+000  0.000000e+000
    outer loop
      vertex  2.566302e+001 -3.904902e+001  3.000000e+000
      vertex  2.633058e+001 -3.904902e+001  0.000000e+000
      vertex  2.633058e+001 -3.904902e+001  3.000000e+000
    endloop
  endfacet
  facet normal -4.338853e-001 -9.009682e-001  -0.000000e+000
    outer loop
      vertex  2.633058e+001 -3.904902e+001  3.000000e+000
      vertex  2.633058e+001 -3.904902e+001  0.000000e+000
      vertex  2.693204e+001 -3.933866e+001  0.000000e+000
    endloop
  endfacet
  facet normal -4.338853e-001 -9.009682e-001  0.000000e+000
    outer loop
      vertex  2.633058e+001 -3.904902e+001  3.000000e+000
      vertex  2.693204e+001 -3.933866e+001  0.000000e+000
      vertex  2.693204e+001 -3.933866e+001  3.000000e+000
    endloop
  endfacet
  facet normal -7.818307e-001 -6.234908e-001  -0.000000e+000
    outer loop
      vertex  2.693204e+001 -3.933866e+001  3.000000e+000
      vertex  2.693204e+001 -3.933866e+001  0.000000e+000
      vertex  2.734826e+001 -3.986058e+001  0.000000e+000
    endloop
  endfacet
  facet normal -7.818307e-001 -6.234908e-001  0.000000e+000
    outer loop
      vertex  2.693204e+001 -3.933866e+001  3.000000e+000
      vertex  2.734826e+001 -3.986058e+001  0.000000e+000
      vertex  2.734826e+001 -3.986058e+001  3.000000e+000
    endloop
  endfacet
  facet normal -9.749284e-001 -2.225191e-001  -0.000000e+000
    outer loop
      vertex  2.734826e+001 -3.986058e+001  3.000000e+000
      vertex  2.734826e+001 -3.986058e+001  0.000000e+000
      vertex  2.749680e+001 -4.051141e+001  0.000000e+000
    endloop
  endfacet
  facet normal -9.749284e-001 -2.225191e-001  0.000000e+000
    outer loop
      vertex  2.734826e+001 -3.986058e+001  3.000000e+000
      vertex  2.749680e+001 -4.051141e+001  0.000000e+000
      vertex  2.749680e+001 -4.051141e+001  3.000000e+000
    endloop
  endfacet
  facet normal -4.338853e-001  9.009682e-001  0.000000e+000
    outer loop
      vertex  2.633058e+001 -4.197380e+001  0.000000e+000
      vertex  2.693204e+001 -4.168415e+001  3.000000e+000
      vertex  2.693204e+001 -4.168415e+001  0.000000e+000
    endloop
  endfacet
  facet normal -7.818307e-001  6.234908e-001  0.000000e+000
    outer loop
      vertex  2.693204e+001 -4.168415e+001  0.000000e+000
      vertex  2.693204e+001 -4.168415e+001  3.000000e+000
      vertex  2.734826e+001 -4.116224e+001  3.000000e+000
    endloop
  endfacet
  facet normal -7.818307e-001  6.234908e-001  0.000000e+000
    outer loop
      vertex  2.693204e+001 -4.168415e+001  0.000000e+000
      vertex  2.734826e+001 -4.116224e+001  3.000000e+000
      vertex  2.734826e+001 -4.116224e+001  0.000000e+000
    endloop
  endfacet
  facet normal -9.749281e-001  2.225203e-001  0.000000e+000
    outer loop
      vertex  2.734826e+001 -4.116224e+001  0.000000e+000
      vertex  2.734826e+001 -4.116224e+001  3.000000e+000
      vertex  2.749680e+001 -4.051141e+001  3.000000e+000
    endloop
  endfacet
  facet normal -9.749281e-001  2.225203e-001  0.000000e+000
    outer loop
      vertex  2.734826e+001 -4.116224e+001  0.000000e+000
      vertex  2.749680e+001 -4.051141e+001  3.000000e+000
      vertex  2.749680e+001 -4.051141e+001  0.000000e+000
    endloop
  endfacet
  facet normal -4.338853e-001  9.009682e-001  0.000000e+000
    outer loop
      vertex  2.693204e+001 -4.168415e+001  3.000000e+000
      vertex  2.633058e+001 -4.197380e+001  0.000000e+000
      vertex  2.633058e+001 -4.197380e+001  3.000000e+000
    endloop
  endfacet
  facet normal  0.000000e+000  1.000000e+000  0.000000e+000
    outer loop
      vertex  2.633058e+001 -4.197380e+001  3.000000e+000
      vertex  2.633058e+001 -4.197380e+001  0.000000e+000
      vertex  2.566302e+001 -4.197380e+001  0.000000e+000
    endloop
  endfacet
  facet normal  0.000000e+000  1.000000e+000  0.000000e+000
    outer loop
      vertex  2.633058e+001 -4.197380e+001  3.000000e+000
      vertex  2.566302e+001 -4.197380e+001  0.000000e+000
      vertex  2.566302e+001 -4.197380e+001  3.000000e+000
    endloop
  endfacet
  facet normal  4.338853e-001  9.009682e-001  0.000000e+000
    outer loop
      vertex  2.566302e+001 -4.197380e+001  3.000000e+000
      vertex  2.566302e+001 -4.197380e+001  0.000000e+000
      vertex  2.506157e+001 -4.168415e+001  0.000000e+000
    endloop
  endfacet
  facet normal  4.338853e-001  9.009682e-001  -0.000000e+000
    outer loop
      vertex  2.566302e+001 -4.197380e+001  3.000000e+000
      vertex  2.506157e+001 -4.168415e+001  0.000000e+000
      vertex  2.506157e+001 -4.168415e+001  3.000000e+000
    endloop
  endfacet
  facet normal  7.818307e-001  6.234908e-001  0.000000e+000
    outer loop
      vertex  2.506157e+001 -4.168415e+001  3.000000e+000
      vertex  2.506157e+001 -4.168415e+001  0.000000e+000
      vertex  2.464535e+001 -4.116224e+001  0.000000e+000
    endloop
  endfacet
  facet normal  7.818307e-001  6.234908e-001  -0.000000e+000
    outer loop
      vertex  2.506157e+001 -4.168415e+001  3.000000e+000
      vertex  2.464535e+001 -4.116224e+001  0.000000e+000
      vertex  2.464535e+001 -4.116224e+001  3.000000e+000
    endloop
  endfacet
  facet normal  9.749274e-001  2.225230e-001  0.000000e+000
    outer loop
      vertex  2.464535e+001 -4.116224e+001  3.000000e+000
      vertex  2.464535e+001 -4.116224e+001  0.000000e+000
      vertex  2.449680e+001 -4.051141e+001  0.000000e+000
    endloop
  endfacet
  facet normal  9.749274e-001  2.225230e-001  -0.000000e+000
    outer loop
      vertex  2.464535e+001 -4.116224e+001  3.000000e+000
      vertex  2.449680e+001 -4.051141e+001  0.000000e+000
      vertex  2.449680e+001 -4.051141e+001  3.000000e+000
    endloop
  endfacet
  facet normal  4.338856e-001 -9.009680e-001  0.000000e+000
    outer loop
      vertex -3.337814e-001 -1.864125e+001  0.000000e+000
      vertex -9.352347e-001 -1.893090e+001  3.000000e+000
      vertex -9.352347e-001 -1.893090e+001  0.000000e+000
    endloop
  endfacet
  facet normal  7.818313e-001 -6.234902e-001  0.000000e+000
    outer loop
      vertex -9.352347e-001 -1.893090e+001  0.000000e+000
      vertex -9.352347e-001 -1.893090e+001  3.000000e+000
      vertex -1.351453e+000 -1.945282e+001  3.000000e+000
    endloop
  endfacet
  facet normal  7.818313e-001 -6.234902e-001  0.000000e+000
    outer loop
      vertex -9.352347e-001 -1.893090e+001  0.000000e+000
      vertex -1.351453e+000 -1.945282e+001  3.000000e+000
      vertex -1.351453e+000 -1.945282e+001  0.000000e+000
    endloop
  endfacet
  facet normal  9.749278e-001 -2.225209e-001  0.000000e+000
    outer loop
      vertex -1.351453e+000 -1.945282e+001  0.000000e+000
      vertex -1.351453e+000 -1.945282e+001  3.000000e+000
      vertex -1.500000e+000 -2.010364e+001  3.000000e+000
    endloop
  endfacet
  facet normal  9.749278e-001 -2.225209e-001  0.000000e+000
    outer loop
      vertex -1.351453e+000 -1.945282e+001  0.000000e+000
      vertex -1.500000e+000 -2.010364e+001  3.000000e+000
      vertex -1.500000e+000 -2.010364e+001  0.000000e+000
    endloop
  endfacet
  facet normal  4.338856e-001 -9.009680e-001  0.000000e+000
    outer loop
      vertex -9.352347e-001 -1.893090e+001  3.000000e+000
      vertex -3.337814e-001 -1.864125e+001  0.000000e+000
      vertex -3.337814e-001 -1.864125e+001  3.000000e+000
    endloop
  endfacet
  facet normal  0.000000e+000 -1.000000e+000  0.000000e+000
    outer loop
      vertex -3.337814e-001 -1.864125e+001  3.000000e+000
      vertex -3.337814e-001 -1.864125e+001  0.000000e+000
      vertex  3.337814e-001 -1.864125e+001  0.000000e+000
    endloop
  endfacet
  facet normal  0.000000e+000 -1.000000e+000  0.000000e+000
    outer loop
      vertex -3.337814e-001 -1.864125e+001  3.000000e+000
      vertex  3.337814e-001 -1.864125e+001  0.000000e+000
      vertex  3.337814e-001 -1.864125e+001  3.000000e+000
    endloop
  endfacet
  facet normal -4.338856e-001 -9.009680e-001  -0.000000e+000
    outer loop
      vertex  3.337814e-001 -1.864125e+001  3.000000e+000
      vertex  3.337814e-001 -1.864125e+001  0.000000e+000
      vertex  9.352347e-001 -1.893090e+001  0.000000e+000
    endloop
  endfacet
  facet normal -4.338856e-001 -9.009680e-001  0.000000e+000
    outer loop
      vertex  3.337814e-001 -1.864125e+001  3.000000e+000
      vertex  9.352347e-001 -1.893090e+001  0.000000e+000
      vertex  9.352347e-001 -1.893090e+001  3.000000e+000
    endloop
  endfacet
  facet normal -7.818313e-001 -6.234902e-001  -0.000000e+000
    outer loop
      vertex  9.352347e-001 -1.893090e+001  3.000000e+000
      vertex  9.352347e-001 -1.893090e+001  0.000000e+000
      vertex  1.351453e+000 -1.945282e+001  0.000000e+000
    endloop
  endfacet
  facet normal -7.818313e-001 -6.234902e-001  0.000000e+000
    outer loop
      vertex  9.352347e-001 -1.893090e+001  3.000000e+000
      vertex  1.351453e+000 -1.945282e+001  0.000000e+000
      vertex  1.351453e+000 -1.945282e+001  3.000000e+000
    endloop
  endfacet
  facet normal -9.749278e-001 -2.225209e-001  -0.000000e+000
    outer loop
      vertex  1.351453e+000 -1.945282e+001  3.000000e+000
      vertex  1.351453e+000 -1.945282e+001  0.000000e+000
      vertex  1.500000e+000 -2.010364e+001  0.000000e+000
    endloop
  endfacet
  facet normal -9.749278e-001 -2.225209e-001  0.000000e+000
    outer loop
      vertex  1.351453e+000 -1.945282e+001  3.000000e+000
      vertex  1.500000e+000 -2.010364e+001  0.000000e+000
      vertex  1.500000e+000 -2.010364e+001  3.000000e+000
    endloop
  endfacet
  facet normal -4.338832e-001  9.009691e-001  0.000000e+000
    outer loop
      vertex  3.337814e-001 -2.156603e+001  0.000000e+000
      vertex  9.352347e-001 -2.127639e+001  3.000000e+000
      vertex  9.352347e-001 -2.127639e+001  0.000000e+000
    endloop
  endfacet
  facet normal -7.818313e-001  6.234902e-001  0.000000e+000
    outer loop
      vertex  9.352347e-001 -2.127639e+001  0.000000e+000
      vertex  9.352347e-001 -2.127639e+001  3.000000e+000
      vertex  1.351453e+000 -2.075447e+001  3.000000e+000
    endloop
  endfacet
  facet normal -7.818313e-001  6.234902e-001  0.000000e+000
    outer loop
      vertex  9.352347e-001 -2.127639e+001  0.000000e+000
      vertex  1.351453e+000 -2.075447e+001  3.000000e+000
      vertex  1.351453e+000 -2.075447e+001  0.000000e+000
    endloop
  endfacet
  facet normal -9.749278e-001  2.225209e-001  0.000000e+000
    outer loop
      vertex  1.351453e+000 -2.075447e+001  0.000000e+000
      vertex  1.351453e+000 -2.075447e+001  3.000000e+000
      vertex  1.500000e+000 -2.010364e+001  3.000000e+000
    endloop
  endfacet
  facet normal -9.749278e-001  2.225209e-001  0.000000e+000
    outer loop
      vertex  1.351453e+000 -2.075447e+001  0.000000e+000
      vertex  1.500000e+000 -2.010364e+001  3.000000e+000
      vertex  1.500000e+000 -2.010364e+001  0.000000e+000
    endloop
  endfacet
  facet normal -4.338832e-001  9.009691e-001  0.000000e+000
    outer loop
      vertex  9.352347e-001 -2.127639e+001  3.000000e+000
      vertex  3.337814e-001 -2.156603e+001  0.000000e+000
      vertex  3.337814e-001 -2.156603e+001  3.000000e+000
    endloop
  endfacet
  facet normal  0.000000e+000  1.000000e+000  0.000000e+000
    outer loop
      vertex  3.337814e-001 -2.156603e+001  3.000000e+000
      vertex  3.337814e-001 -2.156603e+001  0.000000e+000
      vertex -3.337814e-001 -2.156603e+001  0.000000e+000
    endloop
  endfacet
  facet normal  0.000000e+000  1.000000e+000  0.000000e+000
    outer loop
      vertex  3.337814e-001 -2.156603e+001  3.000000e+000
      vertex -3.337814e-001 -2.156603e+001  0.000000e+000
      vertex -3.337814e-001 -2.156603e+001  3.000000e+000
    endloop
  endfacet
  facet normal  4.338832e-001  9.009691e-001  0.000000e+000
    outer loop
      vertex -3.337814e-001 -2.156603e+001  3.000000e+000
      vertex -3.337814e-001 -2.156603e+001  0.000000e+000
      vertex -9.352347e-001 -2.127639e+001  0.000000e+000
    endloop
  endfacet
  facet normal  4.338832e-001  9.009691e-001  -0.000000e+000
    outer loop
      vertex -3.337814e-001 -2.156603e+001  3.000000e+000
      vertex -9.352347e-001 -2.127639e+001  0.000000e+000
      vertex -9.352347e-001 -2.127639e+001  3.000000e+000
    endloop
  endfacet
  facet normal  7.818313e-001  6.234902e-001  0.000000e+000
    outer loop
      vertex -9.352347e-001 -2.127639e+001  3.000000e+000
      vertex -9.352347e-001 -2.127639e+001  0.000000e+000
      vertex -1.351453e+000 -2.075447e+001  0.000000e+000
    endloop
  endfacet
  facet normal  7.818313e-001  6.234902e-001  -0.000000e+000
    outer loop
      vertex -9.352347e-001 -2.127639e+001  3.000000e+000
      vertex -1.351453e+000 -2.075447e+001  0.000000e+000
      vertex -1.351453e+000 -2.075447e+001  3.000000e+000
    endloop
  endfacet
  facet normal  9.749278e-001  2.225209e-001  0.000000e+000
    outer loop
      vertex -1.351453e+000 -2.075447e+001  3.000000e+000
      vertex -1.351453e+000 -2.075447e+001  0.000000e+000
      vertex -1.500000e+000 -2.010364e+001  0.000000e+000
    endloop
  endfacet
  facet normal  9.749278e-001  2.225209e-001  -0.000000e+000
    outer loop
      vertex -1.351453e+000 -2.075447e+001  3.000000e+000
      vertex -1.500000e+000 -2.010364e+001  0.000000e+000
      vertex -1.500000e+000 -2.010364e+001  3.000000e+000
    endloop
  endfacet
  facet normal  4.338856e-001 -9.009680e-001  0.000000e+000
    outer loop
      vertex -3.337814e-001 -3.864125e+001  0.000000e+000
      vertex -9.352347e-001 -3.893090e+001  3.000000e+000
      vertex -9.352347e-001 -3.893090e+001  0.000000e+000
    endloop
  endfacet
  facet normal  7.818301e-001 -6.234915e-001  0.000000e+000
    outer loop
      vertex -9.352347e-001 -3.893090e+001  0.000000e+000
      vertex -9.352347e-001 -3.893090e+001  3.000000e+000
      vertex -1.351453e+000 -3.945282e+001  3.000000e+000
    endloop
  endfacet
  facet normal  7.818301e-001 -6.234915e-001  0.000000e+000
    outer loop
      vertex -9.352347e-001 -3.893090e+001  0.000000e+000
      vertex -1.351453e+000 -3.945282e+001  3.000000e+000
      vertex -1.351453e+000 -3.945282e+001  0.000000e+000
    endloop
  endfacet
  facet normal  9.749278e-001 -2.225209e-001  0.000000e+000
    outer loop
      vertex -1.351453e+000 -3.945282e+001  0.000000e+000
      vertex -1.351453e+000 -3.945282e+001  3.000000e+000
      vertex -1.500000e+000 -4.010364e+001  3.000000e+000
    endloop
  endfacet
  facet normal  9.749278e-001 -2.225209e-001  0.000000e+000
    outer loop
      vertex -1.351453e+000 -3.945282e+001  0.000000e+000
      vertex -1.500000e+000 -4.010364e+001  3.000000e+000
      vertex -1.500000e+000 -4.010364e+001  0.000000e+000
    endloop
  endfacet
  facet normal  4.338856e-001 -9.009680e-001  0.000000e+000
    outer loop
      vertex -9.352347e-001 -3.893090e+001  3.000000e+000
      vertex -3.337814e-001 -3.864125e+001  0.000000e+000
      vertex -3.337814e-001 -3.864125e+001  3.000000e+000
    endloop
  endfacet
  facet normal  0.000000e+000 -1.000000e+000  0.000000e+000
    outer loop
      vertex -3.337814e-001 -3.864125e+001  3.000000e+000
      vertex -3.337814e-001 -3.864125e+001  0.000000e+000
      vertex  3.337814e-001 -3.864125e+001  0.000000e+000
    endloop
  endfacet
  facet normal  0.000000e+000 -1.000000e+000  0.000000e+000
    outer loop
      vertex -3.337814e-001 -3.864125e+001  3.000000e+000
      vertex  3.337814e-001 -3.864125e+001  0.000000e+000
      vertex  3.337814e-001 -3.864125e+001  3.000000e+000
    endloop
  endfacet
  facet normal -4.338856e-001 -9.009680e-001  -0.000000e+000
    outer loop
      vertex  3.337814e-001 -3.864125e+001  3.000000e+000
      vertex  3.337814e-001 -3.864125e+001  0.000000e+000
      vertex  9.352347e-001 -3.893090e+001  0.000000e+000
    endloop
  endfacet
  facet normal -4.338856e-001 -9.009680e-001  0.000000e+000
    outer loop
      vertex  3.337814e-001 -3.864125e+001  3.000000e+000
      vertex  9.352347e-001 -3.893090e+001  0.000000e+000
      vertex  9.352347e-001 -3.893090e+001  3.000000e+000
    endloop
  endfacet
  facet normal -7.818301e-001 -6.234915e-001  -0.000000e+000
    outer loop
      vertex  9.352347e-001 -3.893090e+001  3.000000e+000
      vertex  9.352347e-001 -3.893090e+001  0.000000e+000
      vertex  1.351453e+000 -3.945282e+001  0.000000e+000
    endloop
  endfacet
  facet normal -7.818301e-001 -6.234915e-001  0.000000e+000
    outer loop
      vertex  9.352347e-001 -3.893090e+001  3.000000e+000
      vertex  1.351453e+000 -3.945282e+001  0.000000e+000
      vertex  1.351453e+000 -3.945282e+001  3.000000e+000
    endloop
  endfacet
  facet normal -9.749278e-001 -2.225209e-001  -0.000000e+000
    outer loop
      vertex  1.351453e+000 -3.945282e+001  3.000000e+000
      vertex  1.351453e+000 -3.945282e+001  0.000000e+000
      vertex  1.500000e+000 -4.010364e+001  0.000000e+000
    endloop
  endfacet
  facet normal -9.749278e-001 -2.225209e-001  0.000000e+000
    outer loop
      vertex  1.351453e+000 -3.945282e+001  3.000000e+000
      vertex  1.500000e+000 -4.010364e+001  0.000000e+000
      vertex  1.500000e+000 -4.010364e+001  3.000000e+000
    endloop
  endfacet
  facet normal -4.338856e-001  9.009680e-001  0.000000e+000
    outer loop
      vertex  3.337814e-001 -4.156604e+001  0.000000e+000
      vertex  9.352347e-001 -4.127639e+001  3.000000e+000
      vertex  9.352347e-001 -4.127639e+001  0.000000e+000
    endloop
  endfacet
  facet normal -7.818323e-001  6.234887e-001  0.000000e+000
    outer loop
      vertex  9.352347e-001 -4.127639e+001  0.000000e+000
      vertex  9.352347e-001 -4.127639e+001  3.000000e+000
      vertex  1.351453e+000 -4.075447e+001  3.000000e+000
    endloop
  endfacet
  facet normal -7.818323e-001  6.234887e-001  0.000000e+000
    outer loop
      vertex  9.352347e-001 -4.127639e+001  0.000000e+000
      vertex  1.351453e+000 -4.075447e+001  3.000000e+000
      vertex  1.351453e+000 -4.075447e+001  0.000000e+000
    endloop
  endfacet
  facet normal -9.749278e-001  2.225209e-001  0.000000e+000
    outer loop
      vertex  1.351453e+000 -4.075447e+001  0.000000e+000
      vertex  1.351453e+000 -4.075447e+001  3.000000e+000
      vertex  1.500000e+000 -4.010364e+001  3.000000e+000
    endloop
  endfacet
  facet normal -9.749278e-001  2.225209e-001  0.000000e+000
    outer loop
      vertex  1.351453e+000 -4.075447e+001  0.000000e+000
      vertex  1.500000e+000 -4.010364e+001  3.000000e+000
      vertex  1.500000e+000 -4.010364e+001  0.000000e+000
    endloop
  endfacet
  facet normal -4.338856e-001  9.009680e-001  0.000000e+000
    outer loop
      vertex  9.352347e-001 -4.127639e+001  3.000000e+000
      vertex  3.337814e-001 -4.156604e+001  0.000000e+000
      vertex  3.337814e-001 -4.156604e+001  3.000000e+000
    endloop
  endfacet
  facet normal  0.000000e+000  1.000000e+000  0.000000e+000
    outer loop
      vertex  3.337814e-001 -4.156604e+001  3.000000e+000
      vertex  3.337814e-001 -4.156604e+001  0.000000e+000
      vertex -3.337814e-001 -4.156604e+001  0.000000e+000
    endloop
  endfacet
  facet normal  0.000000e+000  1.000000e+000  0.000000e+000
    outer loop
      vertex  3.337814e-001 -4.156604e+001  3.000000e+000
      vertex -3.337814e-001 -4.156604e+001  0.000000e+000
      vertex -3.337814e-001 -4.156604e+001  3.000000e+000
    endloop
  endfacet
  facet normal  4.338856e-001  9.009680e-001  0.000000e+000
    outer loop
      vertex -3.337814e-001 -4.156604e+001  3.000000e+000
      vertex -3.337814e-001 -4.156604e+001  0.000000e+000
      vertex -9.352347e-001 -4.127639e+001  0.000000e+000
    endloop
  endfacet
  facet normal  4.338856e-001  9.009680e-001  -0.000000e+000
    outer loop
      vertex -3.337814e-001 -4.156604e+001  3.000000e+000
      vertex -9.352347e-001 -4.127639e+001  0.000000e+000
      vertex -9.352347e-001 -4.127639e+001  3.000000e+000
    endloop
  endfacet
  facet normal  7.818323e-001  6.234887e-001  0.000000e+000
    outer loop
      vertex -9.352347e-001 -4.127639e+001  3.000000e+000
      vertex -9.352347e-001 -4.127639e+001  0.000000e+000
      vertex -1.351453e+000 -4.075447e+001  0.000000e+000
    endloop
  endfacet
  facet normal  7.818323e-001  6.234887e-001  -0.000000e+000
    outer loop
      vertex -9.352347e-001 -4.127639e+001  3.000000e+000
      vertex -1.351453e+000 -4.075447e+001  0.000000e+000
      vertex -1.351453e+000 -4.075447e+001  3.000000e+000
    endloop
  endfacet
  facet normal  9.749278e-001  2.225209e-001  0.000000e+000
    outer loop
      vertex -1.351453e+000 -4.075447e+001  3.000000e+000
      vertex -1.351453e+000 -4.075447e+001  0.000000e+000
      vertex -1.500000e+000 -4.010364e+001  0.000000e+000
    endloop
  endfacet
  facet normal  9.749278e-001  2.225209e-001  -0.000000e+000
    outer loop
      vertex -1.351453e+000 -4.075447e+001  3.000000e+000
      vertex -1.500000e+000 -4.010364e+001  0.000000e+000
      vertex -1.500000e+000 -4.010364e+001  3.000000e+000
    endloop
  endfacet
  facet normal -1.000000e+000  0.000000e+000  0.000000e+000
    outer loop
      vertex -4.000000e+000 -2.010364e+001  3.000000e+000
      vertex -4.000000e+000 -2.010364e+001  0.000000e+000
      vertex -4.000000e+000 -4.010364e+001  3.000000e+000
    endloop
  endfacet
  facet normal -1.000000e+000  0.000000e+000  0.000000e+000
    outer loop
      vertex -4.000000e+000 -4.010364e+001  3.000000e+000
      vertex -4.000000e+000 -2.010364e+001  0.000000e+000
      vertex -4.000000e+000 -4.010364e+001  0.000000e+000
    endloop
  endfacet
  facet normal -9.902145e-001  1.395545e-001  0.000000e+000
    outer loop
      vertex -4.000000e+000 -2.010364e+001  0.000000e+000
      vertex -4.000000e+000 -2.010364e+001  3.000000e+000
      vertex -3.844196e+000 -1.899813e+001  0.000000e+000
    endloop
  endfacet
  facet normal -9.902145e-001  1.395545e-001  0.000000e+000
    outer loop
      vertex -3.844196e+000 -1.899813e+001  0.000000e+000
      vertex -4.000000e+000 -2.010364e+001  3.000000e+000
      vertex -3.844196e+000 -1.899813e+001  3.000000e+000
    endloop
  endfacet
  facet normal -9.130747e-001  4.077922e-001  0.000000e+000
    outer loop
      vertex -3.844196e+000 -1.899813e+001  0.000000e+000
      vertex -3.844196e+000 -1.899813e+001  3.000000e+000
      vertex -3.388922e+000 -1.797874e+001  0.000000e+000
    endloop
  endfacet
  facet normal -9.130747e-001  4.077922e-001  0.000000e+000
    outer loop
      vertex -3.388922e+000 -1.797874e+001  0.000000e+000
      vertex -3.844196e+000 -1.899813e+001  3.000000e+000
      vertex -3.388922e+000 -1.797874e+001  3.000000e+000
    endloop
  endfacet
  facet normal -7.648045e-001  6.442624e-001  0.000000e+000
    outer loop
      vertex -3.388922e+000 -1.797874e+001  0.000000e+000
      vertex -3.388922e+000 -1.797874e+001  3.000000e+000
      vertex -2.669644e+000 -1.712489e+001  0.000000e+000
    endloop
  endfacet
  facet normal -7.648045e-001  6.442624e-001  0.000000e+000
    outer loop
      vertex -2.669644e+000 -1.712489e+001  0.000000e+000
      vertex -3.388922e+000 -1.797874e+001  3.000000e+000
      vertex -2.669644e+000 -1.712489e+001  3.000000e+000
    endloop
  endfacet
  facet normal -5.569552e-001  8.305426e-001  0.000000e+000
    outer loop
      vertex -2.669644e+000 -1.712489e+001  0.000000e+000
      vertex -2.669644e+000 -1.712489e+001  3.000000e+000
      vertex -1.742396e+000 -1.650308e+001  0.000000e+000
    endloop
  endfacet
  facet normal -5.569552e-001  8.305426e-001  0.000000e+000
    outer loop
      vertex -1.742396e+000 -1.650308e+001  0.000000e+000
      vertex -2.669644e+000 -1.712489e+001  3.000000e+000
      vertex -1.742396e+000 -1.650308e+001  3.000000e+000
    endloop
  endfacet
  facet normal -3.057176e-001  9.521222e-001  0.000000e+000
    outer loop
      vertex -1.742396e+000 -1.650308e+001  0.000000e+000
      vertex -1.742396e+000 -1.650308e+001  3.000000e+000
      vertex -6.794119e-001 -1.616177e+001  0.000000e+000
    endloop
  endfacet
  facet normal -3.057176e-001  9.521222e-001  0.000000e+000
    outer loop
      vertex -6.794119e-001 -1.616177e+001  0.000000e+000
      vertex -1.742396e+000 -1.650308e+001  3.000000e+000
      vertex -6.794119e-001 -1.616177e+001  3.000000e+000
    endloop
  endfacet
  facet normal -3.066452e-002  9.995297e-001  0.000000e+000
    outer loop
      vertex -6.794119e-001 -1.616177e+001  0.000000e+000
      vertex -6.794119e-001 -1.616177e+001  3.000000e+000
      vertex  4.364997e-001 -1.612753e+001  0.000000e+000
    endloop
  endfacet
  facet normal -3.066452e-002  9.995297e-001  0.000000e+000
    outer loop
      vertex  4.364997e-001 -1.612753e+001  0.000000e+000
      vertex -6.794119e-001 -1.616177e+001  3.000000e+000
      vertex  4.364997e-001 -1.612753e+001  3.000000e+000
    endloop
  endfacet
  facet normal  2.467786e-001  9.690719e-001  0.000000e+000
    outer loop
      vertex  4.364997e-001 -1.612753e+001  0.000000e+000
      vertex  4.364997e-001 -1.612753e+001  3.000000e+000
      vertex  1.518407e+000 -1.640304e+001  0.000000e+000
    endloop
  endfacet
  facet normal  2.467786e-001  9.690719e-001  -0.000000e+000
    outer loop
      vertex  1.518407e+000 -1.640304e+001  0.000000e+000
      vertex  4.364997e-001 -1.612753e+001  3.000000e+000
      vertex  1.518407e+000 -1.640304e+001  3.000000e+000
    endloop
  endfacet
  facet normal  5.049954e-001  8.631220e-001  0.000000e+000
    outer loop
      vertex  1.518407e+000 -1.640304e+001  0.000000e+000
      vertex  1.518407e+000 -1.640304e+001  3.000000e+000
      vertex  2.482028e+000 -1.696684e+001  0.000000e+000
    endloop
  endfacet
  facet normal  5.049954e-001  8.631220e-001  -0.000000e+000
    outer loop
      vertex  2.482028e+000 -1.696684e+001  0.000000e+000
      vertex  1.518407e+000 -1.640304e+001  3.000000e+000
      vertex  2.482028e+000 -1.696684e+001  3.000000e+000
    endloop
  endfacet
  facet normal  6.205069e-001  7.842009e-001  -0.000000e+000
    outer loop
      vertex  2.918516e+001 -3.809597e+001  3.000000e+000
      vertex  2.918516e+001 -3.809597e+001  0.000000e+000
      vertex  2.482028e+000 -1.696684e+001  3.000000e+000
    endloop
  endfacet
  facet normal  6.205069e-001  7.842009e-001  0.000000e+000
    outer loop
      vertex  2.482028e+000 -1.696684e+001  3.000000e+000
      vertex  2.918516e+001 -3.809597e+001  0.000000e+000
      vertex  2.482028e+000 -1.696684e+001  0.000000e+000
    endloop
  endfacet
  facet normal  8.733990e-001  4.870055e-001  0.000000e+000
    outer loop
      vertex  2.918516e+001 -3.809597e+001  0.000000e+000
      vertex  2.918516e+001 -3.809597e+001  3.000000e+000
      vertex  2.972758e+001 -3.906875e+001  0.000000e+000
    endloop
  endfacet
  facet normal  8.733990e-001  4.870055e-001  -0.000000e+000
    outer loop
      vertex  2.972758e+001 -3.906875e+001  0.000000e+000
      vertex  2.918516e+001 -3.809597e+001  3.000000e+000
      vertex  2.972758e+001 -3.906875e+001  3.000000e+000
    endloop
  endfacet
  facet normal  9.738251e-001  2.272989e-001  0.000000e+000
    outer loop
      vertex  2.972758e+001 -3.906875e+001  0.000000e+000
      vertex  2.972758e+001 -3.906875e+001  3.000000e+000
      vertex  2.998075e+001 -4.015338e+001  0.000000e+000
    endloop
  endfacet
  facet normal  9.738251e-001  2.272989e-001  -0.000000e+000
    outer loop
      vertex  2.998075e+001 -4.015338e+001  0.000000e+000
      vertex  2.972758e+001 -3.906875e+001  3.000000e+000
      vertex  2.998075e+001 -4.015338e+001  3.000000e+000
    endloop
  endfacet
  facet normal  9.987477e-001 -5.003037e-002  0.000000e+000
    outer loop
      vertex  2.998075e+001 -4.015338e+001  0.000000e+000
      vertex  2.998075e+001 -4.015338e+001  3.000000e+000
      vertex  2.992502e+001 -4.126577e+001  0.000000e+000
    endloop
  endfacet
  facet normal  9.987477e-001 -5.003037e-002  0.000000e+000
    outer loop
      vertex  2.992502e+001 -4.126577e+001  0.000000e+000
      vertex  2.998075e+001 -4.015338e+001  3.000000e+000
      vertex  2.992502e+001 -4.126577e+001  3.000000e+000
    endloop
  endfacet
  facet normal  9.462355e-001 -3.234788e-001  0.000000e+000
    outer loop
      vertex  2.992502e+001 -4.126577e+001  0.000000e+000
      vertex  2.992502e+001 -4.126577e+001  3.000000e+000
      vertex  2.956474e+001 -4.231968e+001  0.000000e+000
    endloop
  endfacet
  facet normal  9.462355e-001 -3.234788e-001  0.000000e+000
    outer loop
      vertex  2.956474e+001 -4.231968e+001  0.000000e+000
      vertex  2.992502e+001 -4.126577e+001  3.000000e+000
      vertex  2.956474e+001 -4.231968e+001  3.000000e+000
    endloop
  endfacet
  facet normal  8.203582e-001 -5.718502e-001  0.000000e+000
    outer loop
      vertex  2.956474e+001 -4.231968e+001  0.000000e+000
      vertex  2.956474e+001 -4.231968e+001  3.000000e+000
      vertex  2.892782e+001 -4.323338e+001  0.000000e+000
    endloop
  endfacet
  facet normal  8.203582e-001 -5.718502e-001  0.000000e+000
    outer loop
      vertex  2.892782e+001 -4.323338e+001  0.000000e+000
      vertex  2.956474e+001 -4.231968e+001  3.000000e+000
      vertex  2.892782e+001 -4.323338e+001  3.000000e+000
    endloop
  endfacet
  facet normal  6.308767e-001 -7.758832e-001  0.000000e+000
    outer loop
      vertex  2.892782e+001 -4.323338e+001  0.000000e+000
      vertex  2.892782e+001 -4.323338e+001  3.000000e+000
      vertex  2.806365e+001 -4.393605e+001  0.000000e+000
    endloop
  endfacet
  facet normal  6.308767e-001 -7.758832e-001  0.000000e+000
    outer loop
      vertex  2.806365e+001 -4.393605e+001  0.000000e+000
      vertex  2.892782e+001 -4.323338e+001  3.000000e+000
      vertex  2.806365e+001 -4.393605e+001  3.000000e+000
    endloop
  endfacet
  facet normal  3.924822e-001 -9.197597e-001  0.000000e+000
    outer loop
      vertex  2.806365e+001 -4.393605e+001  0.000000e+000
      vertex  2.806365e+001 -4.393605e+001  3.000000e+000
      vertex  2.703923e+001 -4.437319e+001  0.000000e+000
    endloop
  endfacet
  facet normal  3.924822e-001 -9.197597e-001  0.000000e+000
    outer loop
      vertex  2.703923e+001 -4.437319e+001  0.000000e+000
      vertex  2.806365e+001 -4.393605e+001  3.000000e+000
      vertex  2.703923e+001 -4.437319e+001  3.000000e+000
    endloop
  endfacet
  facet normal  1.236556e-001 -9.923252e-001  0.000000e+000
    outer loop
      vertex  2.703923e+001 -4.437319e+001  0.000000e+000
      vertex  2.703923e+001 -4.437319e+001  3.000000e+000
      vertex  2.593399e+001 -4.451091e+001  0.000000e+000
    endloop
  endfacet
  facet normal  1.236556e-001 -9.923252e-001  0.000000e+000
    outer loop
      vertex  2.593399e+001 -4.451091e+001  0.000000e+000
      vertex  2.703923e+001 -4.437319e+001  3.000000e+000
      vertex  2.593399e+001 -4.451091e+001  3.000000e+000
    endloop
  endfacet
  facet normal -1.570225e-002 -9.998767e-001  0.000000e+000
    outer loop
      vertex  2.817926e-015 -4.410364e+001  3.000000e+000
      vertex  2.817926e-015 -4.410364e+001  0.000000e+000
      vertex  2.593399e+001 -4.451091e+001  3.000000e+000
    endloop
  endfacet
  facet normal -1.570225e-002 -9.998767e-001  -0.000000e+000
    outer loop
      vertex  2.593399e+001 -4.451091e+001  3.000000e+000
      vertex  2.817926e-015 -4.410364e+001  0.000000e+000
      vertex  2.593399e+001 -4.451091e+001  0.000000e+000
    endloop
  endfacet
  facet normal -1.305249e-001 -9.914451e-001  -0.000000e+000
    outer loop
      vertex  2.817926e-015 -4.410364e+001  0.000000e+000
      vertex  2.817926e-015 -4.410364e+001  3.000000e+000
      vertex -1.035276e+000 -4.396735e+001  0.000000e+000
    endloop
  endfacet
  facet normal -1.305249e-001 -9.914451e-001  0.000000e+000
    outer loop
      vertex -1.035276e+000 -4.396735e+001  0.000000e+000
      vertex  2.817926e-015 -4.410364e+001  3.000000e+000
      vertex -1.035276e+000 -4.396735e+001  3.000000e+000
    endloop
  endfacet
  facet normal -3.826829e-001 -9.238797e-001  -0.000000e+000
    outer loop
      vertex -1.035276e+000 -4.396735e+001  0.000000e+000
      vertex -1.035276e+000 -4.396735e+001  3.000000e+000
      vertex -2.000000e+000 -4.356775e+001  0.000000e+000
    endloop
  endfacet
  facet normal -3.826829e-001 -9.238797e-001  0.000000e+000
    outer loop
      vertex -2.000000e+000 -4.356775e+001  0.000000e+000
      vertex -1.035276e+000 -4.396735e+001  3.000000e+000
      vertex -2.000000e+000 -4.356775e+001  3.000000e+000
    endloop
  endfacet
  facet normal -6.087609e-001 -7.933538e-001  -0.000000e+000
    outer loop
      vertex -2.000000e+000 -4.356775e+001  0.000000e+000
      vertex -2.000000e+000 -4.356775e+001  3.000000e+000
      vertex -2.828427e+000 -4.293207e+001  0.000000e+000
    endloop
  endfacet
  facet normal -6.087609e-001 -7.933538e-001  0.000000e+000
    outer loop
      vertex -2.828427e+000 -4.293207e+001  0.000000e+000
      vertex -2.000000e+000 -4.356775e+001  3.000000e+000
      vertex -2.828427e+000 -4.293207e+001  3.000000e+000
    endloop
  endfacet
  facet normal -7.933545e-001 -6.087601e-001  -0.000000e+000
    outer loop
      vertex -2.828427e+000 -4.293207e+001  0.000000e+000
      vertex -2.828427e+000 -4.293207e+001  3.000000e+000
      vertex -3.464102e+000 -4.210364e+001  0.000000e+000
    endloop
  endfacet
  facet normal -7.933545e-001 -6.087601e-001  0.000000e+000
    outer loop
      vertex -3.464102e+000 -4.210364e+001  0.000000e+000
      vertex -2.828427e+000 -4.293207e+001  3.000000e+000
      vertex -3.464102e+000 -4.210364e+001  3.000000e+000
    endloop
  endfacet
  facet normal -9.238793e-001 -3.826842e-001  -0.000000e+000
    outer loop
      vertex -3.464102e+000 -4.210364e+001  0.000000e+000
      vertex -3.464102e+000 -4.210364e+001  3.000000e+000
      vertex -3.863703e+000 -4.113892e+001  0.000000e+000
    endloop
  endfacet
  facet normal -9.238793e-001 -3.826842e-001  0.000000e+000
    outer loop
      vertex -3.863703e+000 -4.113892e+001  0.000000e+000
      vertex -3.464102e+000 -4.210364e+001  3.000000e+000
      vertex -3.863703e+000 -4.113892e+001  3.000000e+000
    endloop
  endfacet
  facet normal -9.914448e-001 -1.305260e-001  -0.000000e+000
    outer loop
      vertex -3.863703e+000 -4.113892e+001  0.000000e+000
      vertex -3.863703e+000 -4.113892e+001  3.000000e+000
      vertex -4.000000e+000 -4.010364e+001  0.000000e+000
    endloop
  endfacet
  facet normal -9.914448e-001 -1.305260e-001  0.000000e+000
    outer loop
      vertex -4.000000e+000 -4.010364e+001  0.000000e+000
      vertex -3.863703e+000 -4.113892e+001  3.000000e+000
      vertex -4.000000e+000 -4.010364e+001  3.000000e+000
    endloop
  endfacet
endsolid CATIA STL
