solid CATIA STL
  facet normal  0.000000e+000  0.000000e+000  1.000000e+000
    outer loop
      vertex -2.778786e-001 -1.003761e+001  3.000000e+000
      vertex -2.778786e-001  1.003761e+001  3.000000e+000
      vertex -8.793319e-001 -1.032725e+001  3.000000e+000
    endloop
  endfacet
  facet normal  0.000000e+000  0.000000e+000  1.000000e+000
    outer loop
      vertex  4.065487e+000  1.237146e+001  3.000000e+000
      vertex  3.689194e+000  1.340667e+001  3.000000e+000
      vertex  3.896842e-001  1.296239e+001  3.000000e+000
    endloop
  endfacet
  facet normal  0.000000e+000  0.000000e+000  1.000000e+000
    outer loop
      vertex  4.065487e+000  1.237146e+001  3.000000e+000
      vertex  3.896842e-001  1.296239e+001  3.000000e+000
      vertex  9.911374e-001  1.267275e+001  3.000000e+000
    endloop
  endfacet
  facet normal  0.000000e+000  0.000000e+000  9.999999e-001
    outer loop
      vertex  4.065487e+000  1.237146e+001  3.000000e+000
      vertex  9.911374e-001  1.267275e+001  3.000000e+000
      vertex  1.407356e+000  1.215083e+001  3.000000e+000
    endloop
  endfacet
  facet normal  -0.000000e+000  0.000000e+000  1.000000e+000
    outer loop
      vertex  4.065487e+000  1.237146e+001  3.000000e+000
      vertex  1.407356e+000  1.215083e+001  3.000000e+000
      vertex  1.555903e+000  1.150000e+001  3.000000e+000
    endloop
  endfacet
  facet normal  -0.000000e+000  0.000000e+000  1.000000e+000
    outer loop
      vertex  4.065487e+000  1.237146e+001  3.000000e+000
      vertex  1.555903e+000  1.150000e+001  3.000000e+000
      vertex  4.065487e+000 -1.237146e+001  3.000000e+000
    endloop
  endfacet
  facet normal  0.000000e+000  -0.000000e+000  1.000000e+000
    outer loop
      vertex  3.896842e-001 -1.296239e+001  3.000000e+000
      vertex  1.188859e+000 -1.544368e+001  3.000000e+000
      vertex  2.197118e+000 -1.500020e+001  3.000000e+000
    endloop
  endfacet
  facet normal  0.000000e+000  -0.000000e+000  9.999999e-001
    outer loop
      vertex  3.896842e-001 -1.296239e+001  3.000000e+000
      vertex  2.197118e+000 -1.500020e+001  3.000000e+000
      vertex  3.051076e+000 -1.430449e+001  3.000000e+000
    endloop
  endfacet
  facet normal  0.000000e+000  -0.000000e+000  1.000000e+000
    outer loop
      vertex  3.896842e-001 -1.296239e+001  3.000000e+000
      vertex  3.051076e+000 -1.430449e+001  3.000000e+000
      vertex  3.689194e+000 -1.340667e+001  3.000000e+000
    endloop
  endfacet
  facet normal  0.000000e+000  0.000000e+000  1.000000e+000
    outer loop
      vertex  3.896842e-001 -1.296239e+001  3.000000e+000
      vertex  3.689194e+000 -1.340667e+001  3.000000e+000
      vertex  9.911374e-001 -1.267275e+001  3.000000e+000
    endloop
  endfacet
  facet normal  0.000000e+000  -0.000000e+000  1.000000e+000
    outer loop
      vertex -3.934513e+000 -1.245541e+001  3.000000e+000
      vertex -3.536580e+000 -1.348249e+001  3.000000e+000
      vertex -2.778786e-001 -1.296239e+001  3.000000e+000
    endloop
  endfacet
  facet normal  0.000000e+000  0.000000e+000  1.000000e+000
    outer loop
      vertex -3.934513e+000 -1.245541e+001  3.000000e+000
      vertex -2.778786e-001 -1.296239e+001  3.000000e+000
      vertex -8.793319e-001 -1.267275e+001  3.000000e+000
    endloop
  endfacet
  facet normal  0.000000e+000  0.000000e+000  1.000000e+000
    outer loop
      vertex -3.934513e+000 -1.245541e+001  3.000000e+000
      vertex -8.793319e-001 -1.267275e+001  3.000000e+000
      vertex -1.295551e+000 -1.215083e+001  3.000000e+000
    endloop
  endfacet
  facet normal  0.000000e+000  0.000000e+000  1.000000e+000
    outer loop
      vertex -3.934513e+000 -1.245541e+001  3.000000e+000
      vertex -1.295551e+000 -1.215083e+001  3.000000e+000
      vertex -1.444097e+000 -1.150000e+001  3.000000e+000
    endloop
  endfacet
  facet normal  0.000000e+000  -0.000000e+000  1.000000e+000
    outer loop
      vertex -3.934513e+000 -1.245541e+001  3.000000e+000
      vertex -1.444097e+000 -1.150000e+001  3.000000e+000
      vertex -1.295551e+000 -1.084917e+001  3.000000e+000
    endloop
  endfacet
  facet normal  0.000000e+000  -0.000000e+000  9.999999e-001
    outer loop
      vertex -3.934513e+000 -1.245541e+001  3.000000e+000
      vertex -1.295551e+000 -1.084917e+001  3.000000e+000
      vertex -8.793319e-001 -1.032725e+001  3.000000e+000
    endloop
  endfacet
  facet normal  0.000000e+000  -0.000000e+000  9.999999e-001
    outer loop
      vertex -3.934513e+000 -1.245541e+001  3.000000e+000
      vertex -8.793319e-001 -1.032725e+001  3.000000e+000
      vertex -2.778786e-001  1.003761e+001  3.000000e+000
    endloop
  endfacet
  facet normal  0.000000e+000  0.000000e+000  9.999999e-001
    outer loop
      vertex -3.934513e+000 -1.245541e+001  3.000000e+000
      vertex -2.778786e-001  1.003761e+001  3.000000e+000
      vertex -8.793319e-001  1.032725e+001  3.000000e+000
    endloop
  endfacet
  facet normal  0.000000e+000  0.000000e+000  9.999999e-001
    outer loop
      vertex -3.934513e+000 -1.245541e+001  3.000000e+000
      vertex -8.793319e-001  1.032725e+001  3.000000e+000
      vertex -1.295551e+000  1.084917e+001  3.000000e+000
    endloop
  endfacet
  facet normal  0.000000e+000  0.000000e+000  9.999999e-001
    outer loop
      vertex -3.934513e+000 -1.245541e+001  3.000000e+000
      vertex -1.295551e+000  1.084917e+001  3.000000e+000
      vertex -1.444097e+000  1.150000e+001  3.000000e+000
    endloop
  endfacet
  facet normal  0.000000e+000  0.000000e+000  1.000000e+000
    outer loop
      vertex -3.934513e+000  1.245541e+001  3.000000e+000
      vertex -3.934513e+000 -1.245541e+001  3.000000e+000
      vertex -1.444097e+000  1.150000e+001  3.000000e+000
    endloop
  endfacet
  facet normal  0.000000e+000  -0.000000e+000  1.000000e+000
    outer loop
      vertex -3.934513e+000  1.245541e+001  3.000000e+000
      vertex -1.444097e+000  1.150000e+001  3.000000e+000
      vertex -1.295551e+000  1.215083e+001  3.000000e+000
    endloop
  endfacet
  facet normal  0.000000e+000  -0.000000e+000  1.000000e+000
    outer loop
      vertex -3.934513e+000  1.245541e+001  3.000000e+000
      vertex -1.295551e+000  1.215083e+001  3.000000e+000
      vertex -8.793319e-001  1.267275e+001  3.000000e+000
    endloop
  endfacet
  facet normal  0.000000e+000  -0.000000e+000  1.000000e+000
    outer loop
      vertex -3.934513e+000  1.245541e+001  3.000000e+000
      vertex -8.793319e-001  1.267275e+001  3.000000e+000
      vertex -2.778786e-001  1.296239e+001  3.000000e+000
    endloop
  endfacet
  facet normal  0.000000e+000  0.000000e+000  1.000000e+000
    outer loop
      vertex -3.934513e+000  1.245541e+001  3.000000e+000
      vertex -2.778786e-001  1.296239e+001  3.000000e+000
      vertex -3.536580e+000  1.348249e+001  3.000000e+000
    endloop
  endfacet
  facet normal  0.000000e+000  0.000000e+000  1.000000e+000
    outer loop
      vertex  4.065487e+000 -1.237146e+001  3.000000e+000
      vertex  1.555903e+000  1.150000e+001  3.000000e+000
      vertex  1.407356e+000  1.084917e+001  3.000000e+000
    endloop
  endfacet
  facet normal  0.000000e+000  0.000000e+000  1.000000e+000
    outer loop
      vertex  4.065487e+000 -1.237146e+001  3.000000e+000
      vertex  1.407356e+000  1.084917e+001  3.000000e+000
      vertex  9.911374e-001  1.032725e+001  3.000000e+000
    endloop
  endfacet
  facet normal  0.000000e+000  0.000000e+000  9.999999e-001
    outer loop
      vertex  4.065487e+000 -1.237146e+001  3.000000e+000
      vertex  9.911374e-001  1.032725e+001  3.000000e+000
      vertex  3.896842e-001  1.003761e+001  3.000000e+000
    endloop
  endfacet
  facet normal  0.000000e+000  0.000000e+000  1.000000e+000
    outer loop
      vertex  4.065487e+000 -1.237146e+001  3.000000e+000
      vertex  3.896842e-001  1.003761e+001  3.000000e+000
      vertex  9.911374e-001 -1.032725e+001  3.000000e+000
    endloop
  endfacet
  facet normal  0.000000e+000  0.000000e+000  1.000000e+000
    outer loop
      vertex  4.065487e+000 -1.237146e+001  3.000000e+000
      vertex  9.911374e-001 -1.032725e+001  3.000000e+000
      vertex  1.407356e+000 -1.084917e+001  3.000000e+000
    endloop
  endfacet
  facet normal  0.000000e+000  0.000000e+000  1.000000e+000
    outer loop
      vertex  4.065487e+000 -1.237146e+001  3.000000e+000
      vertex  1.407356e+000 -1.084917e+001  3.000000e+000
      vertex  1.555903e+000 -1.150000e+001  3.000000e+000
    endloop
  endfacet
  facet normal  0.000000e+000  0.000000e+000  1.000000e+000
    outer loop
      vertex  4.065487e+000 -1.237146e+001  3.000000e+000
      vertex  1.555903e+000 -1.150000e+001  3.000000e+000
      vertex  1.407356e+000 -1.215083e+001  3.000000e+000
    endloop
  endfacet
  facet normal  0.000000e+000  0.000000e+000  9.999999e-001
    outer loop
      vertex  4.065487e+000 -1.237146e+001  3.000000e+000
      vertex  1.407356e+000 -1.215083e+001  3.000000e+000
      vertex  9.911374e-001 -1.267275e+001  3.000000e+000
    endloop
  endfacet
  facet normal  -0.000000e+000  0.000000e+000  9.999999e-001
    outer loop
      vertex  4.065487e+000 -1.237146e+001  3.000000e+000
      vertex  9.911374e-001 -1.267275e+001  3.000000e+000
      vertex  3.689194e+000 -1.340667e+001  3.000000e+000
    endloop
  endfacet
  facet normal  0.000000e+000  0.000000e+000  1.000000e+000
    outer loop
      vertex  1.188859e+000 -1.544368e+001  3.000000e+000
      vertex  3.896842e-001 -1.296239e+001  3.000000e+000
      vertex  9.895514e-002 -1.560297e+001  3.000000e+000
    endloop
  endfacet
  facet normal  0.000000e+000  -0.000000e+000  9.999999e-001
    outer loop
      vertex  9.895514e-002 -1.560297e+001  3.000000e+000
      vertex  3.896842e-001 -1.296239e+001  3.000000e+000
      vertex -2.778786e-001 -1.296239e+001  3.000000e+000
    endloop
  endfacet
  facet normal  0.000000e+000  0.000000e+000  1.000000e+000
    outer loop
      vertex  9.895514e-002 -1.560297e+001  3.000000e+000
      vertex -2.778786e-001 -1.296239e+001  3.000000e+000
      vertex -9.940508e-001 -1.546659e+001  3.000000e+000
    endloop
  endfacet
  facet normal  0.000000e+000  -0.000000e+000  1.000000e+000
    outer loop
      vertex -9.940508e-001 -1.546659e+001  3.000000e+000
      vertex -2.778786e-001 -1.296239e+001  3.000000e+000
      vertex -3.536580e+000 -1.348249e+001  3.000000e+000
    endloop
  endfacet
  facet normal  0.000000e+000  0.000000e+000  9.999999e-001
    outer loop
      vertex -9.940508e-001 -1.546659e+001  3.000000e+000
      vertex -3.536580e+000 -1.348249e+001  3.000000e+000
      vertex -2.011394e+000 -1.504436e+001  3.000000e+000
    endloop
  endfacet
  facet normal  0.000000e+000  0.000000e+000  1.000000e+000
    outer loop
      vertex -2.011394e+000 -1.504436e+001  3.000000e+000
      vertex -3.536580e+000 -1.348249e+001  3.000000e+000
      vertex -2.879763e+000 -1.436672e+001  3.000000e+000
    endloop
  endfacet
  facet normal  0.000000e+000  0.000000e+000  1.000000e+000
    outer loop
      vertex -2.778786e-001  1.003761e+001  3.000000e+000
      vertex -2.778786e-001 -1.003761e+001  3.000000e+000
      vertex  3.896842e-001  1.003761e+001  3.000000e+000
    endloop
  endfacet
  facet normal  0.000000e+000  0.000000e+000  1.000000e+000
    outer loop
      vertex  3.896842e-001  1.003761e+001  3.000000e+000
      vertex -2.778786e-001 -1.003761e+001  3.000000e+000
      vertex  3.896842e-001 -1.003761e+001  3.000000e+000
    endloop
  endfacet
  facet normal  -0.000000e+000  0.000000e+000  1.000000e+000
    outer loop
      vertex  3.896842e-001  1.003761e+001  3.000000e+000
      vertex  3.896842e-001 -1.003761e+001  3.000000e+000
      vertex  9.911374e-001 -1.032725e+001  3.000000e+000
    endloop
  endfacet
  facet normal  0.000000e+000  0.000000e+000  1.000000e+000
    outer loop
      vertex -2.011394e+000  1.504436e+001  3.000000e+000
      vertex -2.879763e+000  1.436672e+001  3.000000e+000
      vertex -9.940508e-001  1.546659e+001  3.000000e+000
    endloop
  endfacet
  facet normal  0.000000e+000  0.000000e+000  9.999999e-001
    outer loop
      vertex -9.940508e-001  1.546659e+001  3.000000e+000
      vertex -2.879763e+000  1.436672e+001  3.000000e+000
      vertex -3.536580e+000  1.348249e+001  3.000000e+000
    endloop
  endfacet
  facet normal  0.000000e+000  0.000000e+000  1.000000e+000
    outer loop
      vertex -9.940508e-001  1.546659e+001  3.000000e+000
      vertex -3.536580e+000  1.348249e+001  3.000000e+000
      vertex  9.895514e-002  1.560297e+001  3.000000e+000
    endloop
  endfacet
  facet normal  0.000000e+000  0.000000e+000  1.000000e+000
    outer loop
      vertex  9.895514e-002  1.560297e+001  3.000000e+000
      vertex -3.536580e+000  1.348249e+001  3.000000e+000
      vertex -2.778786e-001  1.296239e+001  3.000000e+000
    endloop
  endfacet
  facet normal  0.000000e+000  0.000000e+000  1.000000e+000
    outer loop
      vertex  9.895514e-002  1.560297e+001  3.000000e+000
      vertex -2.778786e-001  1.296239e+001  3.000000e+000
      vertex  1.188859e+000  1.544368e+001  3.000000e+000
    endloop
  endfacet
  facet normal  0.000000e+000  0.000000e+000  1.000000e+000
    outer loop
      vertex  1.188859e+000  1.544368e+001  3.000000e+000
      vertex -2.778786e-001  1.296239e+001  3.000000e+000
      vertex  3.896842e-001  1.296239e+001  3.000000e+000
    endloop
  endfacet
  facet normal  0.000000e+000  0.000000e+000  1.000000e+000
    outer loop
      vertex  1.188859e+000  1.544368e+001  3.000000e+000
      vertex  3.896842e-001  1.296239e+001  3.000000e+000
      vertex  2.197118e+000  1.500020e+001  3.000000e+000
    endloop
  endfacet
  facet normal  0.000000e+000  0.000000e+000  1.000000e+000
    outer loop
      vertex  3.051076e+000  1.430449e+001  3.000000e+000
      vertex  2.197118e+000  1.500020e+001  3.000000e+000
      vertex  3.689194e+000  1.340667e+001  3.000000e+000
    endloop
  endfacet
  facet normal  0.000000e+000  0.000000e+000  1.000000e+000
    outer loop
      vertex  3.689194e+000  1.340667e+001  3.000000e+000
      vertex  2.197118e+000  1.500020e+001  3.000000e+000
      vertex  3.896842e-001  1.296239e+001  3.000000e+000
    endloop
  endfacet
  facet normal  0.000000e+000  -0.000000e+000 -1.000000e+000
    outer loop
      vertex -8.793319e-001 -1.032725e+001  0.000000e+000
      vertex -2.778786e-001  1.003761e+001  0.000000e+000
      vertex -2.778786e-001 -1.003761e+001  0.000000e+000
    endloop
  endfacet
  facet normal  0.000000e+000  0.000000e+000 -1.000000e+000
    outer loop
      vertex  4.065487e+000  1.237146e+001  0.000000e+000
      vertex  4.065487e+000 -1.237146e+001  0.000000e+000
      vertex  1.555903e+000  1.150000e+001  0.000000e+000
    endloop
  endfacet
  facet normal  0.000000e+000  0.000000e+000 -1.000000e+000
    outer loop
      vertex  4.065487e+000  1.237146e+001  0.000000e+000
      vertex  1.555903e+000  1.150000e+001  0.000000e+000
      vertex  1.407356e+000  1.215083e+001  0.000000e+000
    endloop
  endfacet
  facet normal  0.000000e+000  0.000000e+000 -9.999999e-001
    outer loop
      vertex  4.065487e+000  1.237146e+001  0.000000e+000
      vertex  1.407356e+000  1.215083e+001  0.000000e+000
      vertex  9.911374e-001  1.267275e+001  0.000000e+000
    endloop
  endfacet
  facet normal  0.000000e+000  0.000000e+000 -1.000000e+000
    outer loop
      vertex  4.065487e+000  1.237146e+001  0.000000e+000
      vertex  9.911374e-001  1.267275e+001  0.000000e+000
      vertex  3.896842e-001  1.296239e+001  0.000000e+000
    endloop
  endfacet
  facet normal  0.000000e+000  0.000000e+000 -1.000000e+000
    outer loop
      vertex  4.065487e+000  1.237146e+001  0.000000e+000
      vertex  3.896842e-001  1.296239e+001  0.000000e+000
      vertex  3.689194e+000  1.340667e+001  0.000000e+000
    endloop
  endfacet
  facet normal  0.000000e+000  -0.000000e+000 -1.000000e+000
    outer loop
      vertex  3.896842e-001 -1.296239e+001  0.000000e+000
      vertex  9.911374e-001 -1.267275e+001  0.000000e+000
      vertex  3.689194e+000 -1.340667e+001  0.000000e+000
    endloop
  endfacet
  facet normal  -0.000000e+000  0.000000e+000 -1.000000e+000
    outer loop
      vertex  3.896842e-001 -1.296239e+001  0.000000e+000
      vertex  3.689194e+000 -1.340667e+001  0.000000e+000
      vertex  3.051076e+000 -1.430449e+001  0.000000e+000
    endloop
  endfacet
  facet normal  -0.000000e+000  0.000000e+000 -9.999999e-001
    outer loop
      vertex  3.896842e-001 -1.296239e+001  0.000000e+000
      vertex  3.051076e+000 -1.430449e+001  0.000000e+000
      vertex  2.197118e+000 -1.500020e+001  0.000000e+000
    endloop
  endfacet
  facet normal  -0.000000e+000  0.000000e+000 -1.000000e+000
    outer loop
      vertex  3.896842e-001 -1.296239e+001  0.000000e+000
      vertex  2.197118e+000 -1.500020e+001  0.000000e+000
      vertex  1.188859e+000 -1.544368e+001  0.000000e+000
    endloop
  endfacet
  facet normal  0.000000e+000  -0.000000e+000 -9.999999e-001
    outer loop
      vertex -3.934513e+000 -1.245541e+001  0.000000e+000
      vertex -1.444097e+000  1.150000e+001  0.000000e+000
      vertex -1.295551e+000  1.084917e+001  0.000000e+000
    endloop
  endfacet
  facet normal  0.000000e+000  -0.000000e+000 -9.999999e-001
    outer loop
      vertex -3.934513e+000 -1.245541e+001  0.000000e+000
      vertex -1.295551e+000  1.084917e+001  0.000000e+000
      vertex -8.793319e-001  1.032725e+001  0.000000e+000
    endloop
  endfacet
  facet normal  0.000000e+000  -0.000000e+000 -1.000000e+000
    outer loop
      vertex -3.934513e+000 -1.245541e+001  0.000000e+000
      vertex -8.793319e-001  1.032725e+001  0.000000e+000
      vertex -2.778786e-001  1.003761e+001  0.000000e+000
    endloop
  endfacet
  facet normal  0.000000e+000  0.000000e+000 -1.000000e+000
    outer loop
      vertex -3.934513e+000 -1.245541e+001  0.000000e+000
      vertex -2.778786e-001  1.003761e+001  0.000000e+000
      vertex -8.793319e-001 -1.032725e+001  0.000000e+000
    endloop
  endfacet
  facet normal  0.000000e+000  0.000000e+000 -9.999999e-001
    outer loop
      vertex -3.934513e+000 -1.245541e+001  0.000000e+000
      vertex -8.793319e-001 -1.032725e+001  0.000000e+000
      vertex -1.295551e+000 -1.084917e+001  0.000000e+000
    endloop
  endfacet
  facet normal  0.000000e+000  0.000000e+000 -1.000000e+000
    outer loop
      vertex -3.934513e+000 -1.245541e+001  0.000000e+000
      vertex -1.295551e+000 -1.084917e+001  0.000000e+000
      vertex -1.444097e+000 -1.150000e+001  0.000000e+000
    endloop
  endfacet
  facet normal  0.000000e+000  -0.000000e+000 -1.000000e+000
    outer loop
      vertex -3.934513e+000 -1.245541e+001  0.000000e+000
      vertex -1.444097e+000 -1.150000e+001  0.000000e+000
      vertex -1.295551e+000 -1.215083e+001  0.000000e+000
    endloop
  endfacet
  facet normal  0.000000e+000  -0.000000e+000 -1.000000e+000
    outer loop
      vertex -3.934513e+000 -1.245541e+001  0.000000e+000
      vertex -1.295551e+000 -1.215083e+001  0.000000e+000
      vertex -8.793319e-001 -1.267275e+001  0.000000e+000
    endloop
  endfacet
  facet normal  -0.000000e+000  -0.000000e+000 -1.000000e+000
    outer loop
      vertex -3.934513e+000 -1.245541e+001  0.000000e+000
      vertex -8.793319e-001 -1.267275e+001  0.000000e+000
      vertex -2.778786e-001 -1.296239e+001  0.000000e+000
    endloop
  endfacet
  facet normal  -0.000000e+000  0.000000e+000 -1.000000e+000
    outer loop
      vertex -3.934513e+000 -1.245541e+001  0.000000e+000
      vertex -2.778786e-001 -1.296239e+001  0.000000e+000
      vertex -3.536580e+000 -1.348249e+001  0.000000e+000
    endloop
  endfacet
  facet normal  0.000000e+000  -0.000000e+000 -1.000000e+000
    outer loop
      vertex -3.934513e+000  1.245541e+001  0.000000e+000
      vertex -3.536580e+000  1.348249e+001  0.000000e+000
      vertex -2.778786e-001  1.296239e+001  0.000000e+000
    endloop
  endfacet
  facet normal  0.000000e+000  0.000000e+000 -1.000000e+000
    outer loop
      vertex -3.934513e+000  1.245541e+001  0.000000e+000
      vertex -2.778786e-001  1.296239e+001  0.000000e+000
      vertex -8.793319e-001  1.267275e+001  0.000000e+000
    endloop
  endfacet
  facet normal  0.000000e+000  0.000000e+000 -1.000000e+000
    outer loop
      vertex -3.934513e+000  1.245541e+001  0.000000e+000
      vertex -8.793319e-001  1.267275e+001  0.000000e+000
      vertex -1.295551e+000  1.215083e+001  0.000000e+000
    endloop
  endfacet
  facet normal  -0.000000e+000  0.000000e+000 -1.000000e+000
    outer loop
      vertex -3.934513e+000  1.245541e+001  0.000000e+000
      vertex -1.295551e+000  1.215083e+001  0.000000e+000
      vertex -1.444097e+000  1.150000e+001  0.000000e+000
    endloop
  endfacet
  facet normal  -0.000000e+000  0.000000e+000 -1.000000e+000
    outer loop
      vertex -3.934513e+000  1.245541e+001  0.000000e+000
      vertex -1.444097e+000  1.150000e+001  0.000000e+000
      vertex -3.934513e+000 -1.245541e+001  0.000000e+000
    endloop
  endfacet
  facet normal  0.000000e+000  0.000000e+000 -9.999999e-001
    outer loop
      vertex  4.065487e+000 -1.237146e+001  0.000000e+000
      vertex  3.689194e+000 -1.340667e+001  0.000000e+000
      vertex  9.911374e-001 -1.267275e+001  0.000000e+000
    endloop
  endfacet
  facet normal  0.000000e+000  0.000000e+000 -9.999999e-001
    outer loop
      vertex  4.065487e+000 -1.237146e+001  0.000000e+000
      vertex  9.911374e-001 -1.267275e+001  0.000000e+000
      vertex  1.407356e+000 -1.215083e+001  0.000000e+000
    endloop
  endfacet
  facet normal  0.000000e+000  0.000000e+000 -1.000000e+000
    outer loop
      vertex  4.065487e+000 -1.237146e+001  0.000000e+000
      vertex  1.407356e+000 -1.215083e+001  0.000000e+000
      vertex  1.555903e+000 -1.150000e+001  0.000000e+000
    endloop
  endfacet
  facet normal  0.000000e+000  0.000000e+000 -1.000000e+000
    outer loop
      vertex  4.065487e+000 -1.237146e+001  0.000000e+000
      vertex  1.555903e+000 -1.150000e+001  0.000000e+000
      vertex  1.407356e+000 -1.084917e+001  0.000000e+000
    endloop
  endfacet
  facet normal  0.000000e+000  0.000000e+000 -1.000000e+000
    outer loop
      vertex  4.065487e+000 -1.237146e+001  0.000000e+000
      vertex  1.407356e+000 -1.084917e+001  0.000000e+000
      vertex  9.911374e-001 -1.032725e+001  0.000000e+000
    endloop
  endfacet
  facet normal  0.000000e+000  0.000000e+000 -9.999999e-001
    outer loop
      vertex  4.065487e+000 -1.237146e+001  0.000000e+000
      vertex  9.911374e-001 -1.032725e+001  0.000000e+000
      vertex  3.896842e-001  1.003761e+001  0.000000e+000
    endloop
  endfacet
  facet normal  0.000000e+000  0.000000e+000 -1.000000e+000
    outer loop
      vertex  4.065487e+000 -1.237146e+001  0.000000e+000
      vertex  3.896842e-001  1.003761e+001  0.000000e+000
      vertex  9.911374e-001  1.032725e+001  0.000000e+000
    endloop
  endfacet
  facet normal  0.000000e+000  0.000000e+000 -1.000000e+000
    outer loop
      vertex  4.065487e+000 -1.237146e+001  0.000000e+000
      vertex  9.911374e-001  1.032725e+001  0.000000e+000
      vertex  1.407356e+000  1.084917e+001  0.000000e+000
    endloop
  endfacet
  facet normal  0.000000e+000  0.000000e+000 -1.000000e+000
    outer loop
      vertex  4.065487e+000 -1.237146e+001  0.000000e+000
      vertex  1.407356e+000  1.084917e+001  0.000000e+000
      vertex  1.555903e+000  1.150000e+001  0.000000e+000
    endloop
  endfacet
  facet normal  0.000000e+000  -0.000000e+000 -1.000000e+000
    outer loop
      vertex  9.895514e-002 -1.560297e+001  0.000000e+000
      vertex  3.896842e-001 -1.296239e+001  0.000000e+000
      vertex  1.188859e+000 -1.544368e+001  0.000000e+000
    endloop
  endfacet
  facet normal  0.000000e+000  0.000000e+000 -9.999999e-001
    outer loop
      vertex  3.896842e-001 -1.296239e+001  0.000000e+000
      vertex  9.895514e-002 -1.560297e+001  0.000000e+000
      vertex -2.778786e-001 -1.296239e+001  0.000000e+000
    endloop
  endfacet
  facet normal  0.000000e+000  -0.000000e+000 -1.000000e+000
    outer loop
      vertex -2.778786e-001 -1.296239e+001  0.000000e+000
      vertex  9.895514e-002 -1.560297e+001  0.000000e+000
      vertex -9.940508e-001 -1.546659e+001  0.000000e+000
    endloop
  endfacet
  facet normal  0.000000e+000  0.000000e+000 -1.000000e+000
    outer loop
      vertex -2.778786e-001 -1.296239e+001  0.000000e+000
      vertex -9.940508e-001 -1.546659e+001  0.000000e+000
      vertex -3.536580e+000 -1.348249e+001  0.000000e+000
    endloop
  endfacet
  facet normal  0.000000e+000  0.000000e+000 -9.999999e-001
    outer loop
      vertex -3.536580e+000 -1.348249e+001  0.000000e+000
      vertex -9.940508e-001 -1.546659e+001  0.000000e+000
      vertex -2.011394e+000 -1.504436e+001  0.000000e+000
    endloop
  endfacet
  facet normal  0.000000e+000  0.000000e+000 -1.000000e+000
    outer loop
      vertex -3.536580e+000 -1.348249e+001  0.000000e+000
      vertex -2.011394e+000 -1.504436e+001  0.000000e+000
      vertex -2.879763e+000 -1.436672e+001  0.000000e+000
    endloop
  endfacet
  facet normal  0.000000e+000  0.000000e+000 -1.000000e+000
    outer loop
      vertex  9.911374e-001 -1.032725e+001  0.000000e+000
      vertex  3.896842e-001 -1.003761e+001  0.000000e+000
      vertex  3.896842e-001  1.003761e+001  0.000000e+000
    endloop
  endfacet
  facet normal  0.000000e+000  -0.000000e+000 -1.000000e+000
    outer loop
      vertex  3.896842e-001  1.003761e+001  0.000000e+000
      vertex  3.896842e-001 -1.003761e+001  0.000000e+000
      vertex -2.778786e-001 -1.003761e+001  0.000000e+000
    endloop
  endfacet
  facet normal  0.000000e+000  0.000000e+000 -1.000000e+000
    outer loop
      vertex  3.896842e-001  1.003761e+001  0.000000e+000
      vertex -2.778786e-001 -1.003761e+001  0.000000e+000
      vertex -2.778786e-001  1.003761e+001  0.000000e+000
    endloop
  endfacet
  facet normal  0.000000e+000  0.000000e+000 -1.000000e+000
    outer loop
      vertex  2.197118e+000  1.500020e+001  0.000000e+000
      vertex  3.896842e-001  1.296239e+001  0.000000e+000
      vertex  1.188859e+000  1.544368e+001  0.000000e+000
    endloop
  endfacet
  facet normal  0.000000e+000  0.000000e+000 -1.000000e+000
    outer loop
      vertex  1.188859e+000  1.544368e+001  0.000000e+000
      vertex  3.896842e-001  1.296239e+001  0.000000e+000
      vertex -2.778786e-001  1.296239e+001  0.000000e+000
    endloop
  endfacet
  facet normal  0.000000e+000  0.000000e+000 -1.000000e+000
    outer loop
      vertex  1.188859e+000  1.544368e+001  0.000000e+000
      vertex -2.778786e-001  1.296239e+001  0.000000e+000
      vertex  9.895514e-002  1.560297e+001  0.000000e+000
    endloop
  endfacet
  facet normal  0.000000e+000  0.000000e+000 -1.000000e+000
    outer loop
      vertex  9.895514e-002  1.560297e+001  0.000000e+000
      vertex -2.778786e-001  1.296239e+001  0.000000e+000
      vertex -3.536580e+000  1.348249e+001  0.000000e+000
    endloop
  endfacet
  facet normal  0.000000e+000  0.000000e+000 -1.000000e+000
    outer loop
      vertex  9.895514e-002  1.560297e+001  0.000000e+000
      vertex -3.536580e+000  1.348249e+001  0.000000e+000
      vertex -9.940508e-001  1.546659e+001  0.000000e+000
    endloop
  endfacet
  facet normal  0.000000e+000  0.000000e+000 -9.999999e-001
    outer loop
      vertex -9.940508e-001  1.546659e+001  0.000000e+000
      vertex -3.536580e+000  1.348249e+001  0.000000e+000
      vertex -2.879763e+000  1.436672e+001  0.000000e+000
    endloop
  endfacet
  facet normal  0.000000e+000  0.000000e+000 -1.000000e+000
    outer loop
      vertex -9.940508e-001  1.546659e+001  0.000000e+000
      vertex -2.879763e+000  1.436672e+001  0.000000e+000
      vertex -2.011394e+000  1.504436e+001  0.000000e+000
    endloop
  endfacet
  facet normal  0.000000e+000  0.000000e+000 -1.000000e+000
    outer loop
      vertex  3.051076e+000  1.430449e+001  0.000000e+000
      vertex  3.689194e+000  1.340667e+001  0.000000e+000
      vertex  2.197118e+000  1.500020e+001  0.000000e+000
    endloop
  endfacet
  facet normal  0.000000e+000  -0.000000e+000 -1.000000e+000
    outer loop
      vertex  2.197118e+000  1.500020e+001  0.000000e+000
      vertex  3.689194e+000  1.340667e+001  0.000000e+000
      vertex  3.896842e-001  1.296239e+001  0.000000e+000
    endloop
  endfacet
  facet normal  4.338832e-001 -9.009691e-001  0.000000e+000
    outer loop
      vertex -2.778786e-001 -1.003761e+001  0.000000e+000
      vertex -8.793319e-001 -1.032725e+001  3.000000e+000
      vertex -8.793319e-001 -1.032725e+001  0.000000e+000
    endloop
  endfacet
  facet normal  7.818317e-001 -6.234895e-001  0.000000e+000
    outer loop
      vertex -8.793319e-001 -1.032725e+001  0.000000e+000
      vertex -8.793319e-001 -1.032725e+001  3.000000e+000
      vertex -1.295551e+000 -1.084917e+001  3.000000e+000
    endloop
  endfacet
  facet normal  7.818317e-001 -6.234895e-001  0.000000e+000
    outer loop
      vertex -8.793319e-001 -1.032725e+001  0.000000e+000
      vertex -1.295551e+000 -1.084917e+001  3.000000e+000
      vertex -1.295551e+000 -1.084917e+001  0.000000e+000
    endloop
  endfacet
  facet normal  9.749278e-001 -2.225209e-001  0.000000e+000
    outer loop
      vertex -1.295551e+000 -1.084917e+001  0.000000e+000
      vertex -1.295551e+000 -1.084917e+001  3.000000e+000
      vertex -1.444097e+000 -1.150000e+001  3.000000e+000
    endloop
  endfacet
  facet normal  9.749278e-001 -2.225209e-001  0.000000e+000
    outer loop
      vertex -1.295551e+000 -1.084917e+001  0.000000e+000
      vertex -1.444097e+000 -1.150000e+001  3.000000e+000
      vertex -1.444097e+000 -1.150000e+001  0.000000e+000
    endloop
  endfacet
  facet normal  4.338832e-001 -9.009691e-001  0.000000e+000
    outer loop
      vertex -8.793319e-001 -1.032725e+001  3.000000e+000
      vertex -2.778786e-001 -1.003761e+001  0.000000e+000
      vertex -2.778786e-001 -1.003761e+001  3.000000e+000
    endloop
  endfacet
  facet normal  0.000000e+000 -1.000000e+000  0.000000e+000
    outer loop
      vertex -2.778786e-001 -1.003761e+001  3.000000e+000
      vertex -2.778786e-001 -1.003761e+001  0.000000e+000
      vertex  3.896842e-001 -1.003761e+001  0.000000e+000
    endloop
  endfacet
  facet normal  0.000000e+000 -1.000000e+000  0.000000e+000
    outer loop
      vertex -2.778786e-001 -1.003761e+001  3.000000e+000
      vertex  3.896842e-001 -1.003761e+001  0.000000e+000
      vertex  3.896842e-001 -1.003761e+001  3.000000e+000
    endloop
  endfacet
  facet normal -4.338832e-001 -9.009691e-001  -0.000000e+000
    outer loop
      vertex  3.896842e-001 -1.003761e+001  3.000000e+000
      vertex  3.896842e-001 -1.003761e+001  0.000000e+000
      vertex  9.911374e-001 -1.032725e+001  0.000000e+000
    endloop
  endfacet
  facet normal -4.338832e-001 -9.009691e-001  0.000000e+000
    outer loop
      vertex  3.896842e-001 -1.003761e+001  3.000000e+000
      vertex  9.911374e-001 -1.032725e+001  0.000000e+000
      vertex  9.911374e-001 -1.032725e+001  3.000000e+000
    endloop
  endfacet
  facet normal -7.818317e-001 -6.234894e-001  -0.000000e+000
    outer loop
      vertex  9.911374e-001 -1.032725e+001  3.000000e+000
      vertex  9.911374e-001 -1.032725e+001  0.000000e+000
      vertex  1.407356e+000 -1.084917e+001  0.000000e+000
    endloop
  endfacet
  facet normal -7.818317e-001 -6.234894e-001  0.000000e+000
    outer loop
      vertex  9.911374e-001 -1.032725e+001  3.000000e+000
      vertex  1.407356e+000 -1.084917e+001  0.000000e+000
      vertex  1.407356e+000 -1.084917e+001  3.000000e+000
    endloop
  endfacet
  facet normal -9.749278e-001 -2.225209e-001  -0.000000e+000
    outer loop
      vertex  1.407356e+000 -1.084917e+001  3.000000e+000
      vertex  1.407356e+000 -1.084917e+001  0.000000e+000
      vertex  1.555903e+000 -1.150000e+001  0.000000e+000
    endloop
  endfacet
  facet normal -9.749278e-001 -2.225209e-001  0.000000e+000
    outer loop
      vertex  1.407356e+000 -1.084917e+001  3.000000e+000
      vertex  1.555903e+000 -1.150000e+001  0.000000e+000
      vertex  1.555903e+000 -1.150000e+001  3.000000e+000
    endloop
  endfacet
  facet normal -4.338832e-001  9.009691e-001  0.000000e+000
    outer loop
      vertex  3.896842e-001 -1.296239e+001  0.000000e+000
      vertex  9.911374e-001 -1.267275e+001  3.000000e+000
      vertex  9.911374e-001 -1.267275e+001  0.000000e+000
    endloop
  endfacet
  facet normal -7.818317e-001  6.234894e-001  0.000000e+000
    outer loop
      vertex  9.911374e-001 -1.267275e+001  0.000000e+000
      vertex  9.911374e-001 -1.267275e+001  3.000000e+000
      vertex  1.407356e+000 -1.215083e+001  3.000000e+000
    endloop
  endfacet
  facet normal -7.818317e-001  6.234894e-001  0.000000e+000
    outer loop
      vertex  9.911374e-001 -1.267275e+001  0.000000e+000
      vertex  1.407356e+000 -1.215083e+001  3.000000e+000
      vertex  1.407356e+000 -1.215083e+001  0.000000e+000
    endloop
  endfacet
  facet normal -9.749278e-001  2.225209e-001  0.000000e+000
    outer loop
      vertex  1.407356e+000 -1.215083e+001  0.000000e+000
      vertex  1.407356e+000 -1.215083e+001  3.000000e+000
      vertex  1.555903e+000 -1.150000e+001  3.000000e+000
    endloop
  endfacet
  facet normal -9.749278e-001  2.225209e-001  0.000000e+000
    outer loop
      vertex  1.407356e+000 -1.215083e+001  0.000000e+000
      vertex  1.555903e+000 -1.150000e+001  3.000000e+000
      vertex  1.555903e+000 -1.150000e+001  0.000000e+000
    endloop
  endfacet
  facet normal -4.338832e-001  9.009691e-001  0.000000e+000
    outer loop
      vertex  9.911374e-001 -1.267275e+001  3.000000e+000
      vertex  3.896842e-001 -1.296239e+001  0.000000e+000
      vertex  3.896842e-001 -1.296239e+001  3.000000e+000
    endloop
  endfacet
  facet normal  0.000000e+000  1.000000e+000  0.000000e+000
    outer loop
      vertex  3.896842e-001 -1.296239e+001  3.000000e+000
      vertex  3.896842e-001 -1.296239e+001  0.000000e+000
      vertex -2.778786e-001 -1.296239e+001  0.000000e+000
    endloop
  endfacet
  facet normal  0.000000e+000  1.000000e+000  0.000000e+000
    outer loop
      vertex  3.896842e-001 -1.296239e+001  3.000000e+000
      vertex -2.778786e-001 -1.296239e+001  0.000000e+000
      vertex -2.778786e-001 -1.296239e+001  3.000000e+000
    endloop
  endfacet
  facet normal  4.338832e-001  9.009691e-001  0.000000e+000
    outer loop
      vertex -2.778786e-001 -1.296239e+001  3.000000e+000
      vertex -2.778786e-001 -1.296239e+001  0.000000e+000
      vertex -8.793319e-001 -1.267275e+001  0.000000e+000
    endloop
  endfacet
  facet normal  4.338832e-001  9.009691e-001  -0.000000e+000
    outer loop
      vertex -2.778786e-001 -1.296239e+001  3.000000e+000
      vertex -8.793319e-001 -1.267275e+001  0.000000e+000
      vertex -8.793319e-001 -1.267275e+001  3.000000e+000
    endloop
  endfacet
  facet normal  7.818317e-001  6.234895e-001  0.000000e+000
    outer loop
      vertex -8.793319e-001 -1.267275e+001  3.000000e+000
      vertex -8.793319e-001 -1.267275e+001  0.000000e+000
      vertex -1.295551e+000 -1.215083e+001  0.000000e+000
    endloop
  endfacet
  facet normal  7.818317e-001  6.234895e-001  -0.000000e+000
    outer loop
      vertex -8.793319e-001 -1.267275e+001  3.000000e+000
      vertex -1.295551e+000 -1.215083e+001  0.000000e+000
      vertex -1.295551e+000 -1.215083e+001  3.000000e+000
    endloop
  endfacet
  facet normal  9.749278e-001  2.225209e-001  0.000000e+000
    outer loop
      vertex -1.295551e+000 -1.215083e+001  3.000000e+000
      vertex -1.295551e+000 -1.215083e+001  0.000000e+000
      vertex -1.444097e+000 -1.150000e+001  0.000000e+000
    endloop
  endfacet
  facet normal  9.749278e-001  2.225209e-001  -0.000000e+000
    outer loop
      vertex -1.295551e+000 -1.215083e+001  3.000000e+000
      vertex -1.444097e+000 -1.150000e+001  0.000000e+000
      vertex -1.444097e+000 -1.150000e+001  3.000000e+000
    endloop
  endfacet
  facet normal  4.338832e-001 -9.009691e-001  0.000000e+000
    outer loop
      vertex -2.778786e-001  1.296239e+001  0.000000e+000
      vertex -8.793319e-001  1.267275e+001  3.000000e+000
      vertex -8.793319e-001  1.267275e+001  0.000000e+000
    endloop
  endfacet
  facet normal  7.818317e-001 -6.234895e-001  0.000000e+000
    outer loop
      vertex -8.793319e-001  1.267275e+001  0.000000e+000
      vertex -8.793319e-001  1.267275e+001  3.000000e+000
      vertex -1.295551e+000  1.215083e+001  3.000000e+000
    endloop
  endfacet
  facet normal  7.818317e-001 -6.234895e-001  0.000000e+000
    outer loop
      vertex -8.793319e-001  1.267275e+001  0.000000e+000
      vertex -1.295551e+000  1.215083e+001  3.000000e+000
      vertex -1.295551e+000  1.215083e+001  0.000000e+000
    endloop
  endfacet
  facet normal  9.749278e-001 -2.225209e-001  0.000000e+000
    outer loop
      vertex -1.295551e+000  1.215083e+001  0.000000e+000
      vertex -1.295551e+000  1.215083e+001  3.000000e+000
      vertex -1.444097e+000  1.150000e+001  3.000000e+000
    endloop
  endfacet
  facet normal  9.749278e-001 -2.225209e-001  0.000000e+000
    outer loop
      vertex -1.295551e+000  1.215083e+001  0.000000e+000
      vertex -1.444097e+000  1.150000e+001  3.000000e+000
      vertex -1.444097e+000  1.150000e+001  0.000000e+000
    endloop
  endfacet
  facet normal  4.338832e-001 -9.009691e-001  0.000000e+000
    outer loop
      vertex -8.793319e-001  1.267275e+001  3.000000e+000
      vertex -2.778786e-001  1.296239e+001  0.000000e+000
      vertex -2.778786e-001  1.296239e+001  3.000000e+000
    endloop
  endfacet
  facet normal  0.000000e+000 -1.000000e+000  0.000000e+000
    outer loop
      vertex -2.778786e-001  1.296239e+001  3.000000e+000
      vertex -2.778786e-001  1.296239e+001  0.000000e+000
      vertex  3.896842e-001  1.296239e+001  0.000000e+000
    endloop
  endfacet
  facet normal  0.000000e+000 -1.000000e+000  0.000000e+000
    outer loop
      vertex -2.778786e-001  1.296239e+001  3.000000e+000
      vertex  3.896842e-001  1.296239e+001  0.000000e+000
      vertex  3.896842e-001  1.296239e+001  3.000000e+000
    endloop
  endfacet
  facet normal -4.338832e-001 -9.009691e-001  -0.000000e+000
    outer loop
      vertex  3.896842e-001  1.296239e+001  3.000000e+000
      vertex  3.896842e-001  1.296239e+001  0.000000e+000
      vertex  9.911374e-001  1.267275e+001  0.000000e+000
    endloop
  endfacet
  facet normal -4.338832e-001 -9.009691e-001  0.000000e+000
    outer loop
      vertex  3.896842e-001  1.296239e+001  3.000000e+000
      vertex  9.911374e-001  1.267275e+001  0.000000e+000
      vertex  9.911374e-001  1.267275e+001  3.000000e+000
    endloop
  endfacet
  facet normal -7.818317e-001 -6.234894e-001  -0.000000e+000
    outer loop
      vertex  9.911374e-001  1.267275e+001  3.000000e+000
      vertex  9.911374e-001  1.267275e+001  0.000000e+000
      vertex  1.407356e+000  1.215083e+001  0.000000e+000
    endloop
  endfacet
  facet normal -7.818317e-001 -6.234894e-001  0.000000e+000
    outer loop
      vertex  9.911374e-001  1.267275e+001  3.000000e+000
      vertex  1.407356e+000  1.215083e+001  0.000000e+000
      vertex  1.407356e+000  1.215083e+001  3.000000e+000
    endloop
  endfacet
  facet normal -9.749278e-001 -2.225209e-001  -0.000000e+000
    outer loop
      vertex  1.407356e+000  1.215083e+001  3.000000e+000
      vertex  1.407356e+000  1.215083e+001  0.000000e+000
      vertex  1.555903e+000  1.150000e+001  0.000000e+000
    endloop
  endfacet
  facet normal -9.749278e-001 -2.225209e-001  0.000000e+000
    outer loop
      vertex  1.407356e+000  1.215083e+001  3.000000e+000
      vertex  1.555903e+000  1.150000e+001  0.000000e+000
      vertex  1.555903e+000  1.150000e+001  3.000000e+000
    endloop
  endfacet
  facet normal -4.338832e-001  9.009691e-001  0.000000e+000
    outer loop
      vertex  3.896842e-001  1.003761e+001  0.000000e+000
      vertex  9.911374e-001  1.032725e+001  3.000000e+000
      vertex  9.911374e-001  1.032725e+001  0.000000e+000
    endloop
  endfacet
  facet normal -7.818317e-001  6.234894e-001  0.000000e+000
    outer loop
      vertex  9.911374e-001  1.032725e+001  0.000000e+000
      vertex  9.911374e-001  1.032725e+001  3.000000e+000
      vertex  1.407356e+000  1.084917e+001  3.000000e+000
    endloop
  endfacet
  facet normal -7.818317e-001  6.234894e-001  0.000000e+000
    outer loop
      vertex  9.911374e-001  1.032725e+001  0.000000e+000
      vertex  1.407356e+000  1.084917e+001  3.000000e+000
      vertex  1.407356e+000  1.084917e+001  0.000000e+000
    endloop
  endfacet
  facet normal -9.749278e-001  2.225209e-001  0.000000e+000
    outer loop
      vertex  1.407356e+000  1.084917e+001  0.000000e+000
      vertex  1.407356e+000  1.084917e+001  3.000000e+000
      vertex  1.555903e+000  1.150000e+001  3.000000e+000
    endloop
  endfacet
  facet normal -9.749278e-001  2.225209e-001  0.000000e+000
    outer loop
      vertex  1.407356e+000  1.084917e+001  0.000000e+000
      vertex  1.555903e+000  1.150000e+001  3.000000e+000
      vertex  1.555903e+000  1.150000e+001  0.000000e+000
    endloop
  endfacet
  facet normal -4.338832e-001  9.009691e-001  0.000000e+000
    outer loop
      vertex  9.911374e-001  1.032725e+001  3.000000e+000
      vertex  3.896842e-001  1.003761e+001  0.000000e+000
      vertex  3.896842e-001  1.003761e+001  3.000000e+000
    endloop
  endfacet
  facet normal  0.000000e+000  1.000000e+000  0.000000e+000
    outer loop
      vertex  3.896842e-001  1.003761e+001  3.000000e+000
      vertex  3.896842e-001  1.003761e+001  0.000000e+000
      vertex -2.778786e-001  1.003761e+001  0.000000e+000
    endloop
  endfacet
  facet normal  0.000000e+000  1.000000e+000  0.000000e+000
    outer loop
      vertex  3.896842e-001  1.003761e+001  3.000000e+000
      vertex -2.778786e-001  1.003761e+001  0.000000e+000
      vertex -2.778786e-001  1.003761e+001  3.000000e+000
    endloop
  endfacet
  facet normal  4.338832e-001  9.009691e-001  0.000000e+000
    outer loop
      vertex -2.778786e-001  1.003761e+001  3.000000e+000
      vertex -2.778786e-001  1.003761e+001  0.000000e+000
      vertex -8.793319e-001  1.032725e+001  0.000000e+000
    endloop
  endfacet
  facet normal  4.338832e-001  9.009691e-001  -0.000000e+000
    outer loop
      vertex -2.778786e-001  1.003761e+001  3.000000e+000
      vertex -8.793319e-001  1.032725e+001  0.000000e+000
      vertex -8.793319e-001  1.032725e+001  3.000000e+000
    endloop
  endfacet
  facet normal  7.818317e-001  6.234895e-001  0.000000e+000
    outer loop
      vertex -8.793319e-001  1.032725e+001  3.000000e+000
      vertex -8.793319e-001  1.032725e+001  0.000000e+000
      vertex -1.295551e+000  1.084917e+001  0.000000e+000
    endloop
  endfacet
  facet normal  7.818317e-001  6.234895e-001  -0.000000e+000
    outer loop
      vertex -8.793319e-001  1.032725e+001  3.000000e+000
      vertex -1.295551e+000  1.084917e+001  0.000000e+000
      vertex -1.295551e+000  1.084917e+001  3.000000e+000
    endloop
  endfacet
  facet normal  9.749278e-001  2.225209e-001  0.000000e+000
    outer loop
      vertex -1.295551e+000  1.084917e+001  3.000000e+000
      vertex -1.295551e+000  1.084917e+001  0.000000e+000
      vertex -1.444097e+000  1.150000e+001  0.000000e+000
    endloop
  endfacet
  facet normal  9.749278e-001  2.225209e-001  -0.000000e+000
    outer loop
      vertex -1.295551e+000  1.084917e+001  3.000000e+000
      vertex -1.444097e+000  1.150000e+001  0.000000e+000
      vertex -1.444097e+000  1.150000e+001  3.000000e+000
    endloop
  endfacet
  facet normal  1.000000e+000  0.000000e+000  0.000000e+000
    outer loop
      vertex  4.065487e+000 -1.237146e+001  3.000000e+000
      vertex  4.065487e+000 -1.237146e+001  0.000000e+000
      vertex  4.065487e+000  1.237146e+001  3.000000e+000
    endloop
  endfacet
  facet normal  1.000000e+000  0.000000e+000  0.000000e+000
    outer loop
      vertex  4.065487e+000  1.237146e+001  3.000000e+000
      vertex  4.065487e+000 -1.237146e+001  0.000000e+000
      vertex  4.065487e+000  1.237146e+001  0.000000e+000
    endloop
  endfacet
  facet normal  9.398364e-001 -3.416246e-001  0.000000e+000
    outer loop
      vertex  4.065487e+000 -1.237146e+001  0.000000e+000
      vertex  4.065487e+000 -1.237146e+001  3.000000e+000
      vertex  3.689194e+000 -1.340667e+001  0.000000e+000
    endloop
  endfacet
  facet normal  9.398364e-001 -3.416246e-001  0.000000e+000
    outer loop
      vertex  3.689194e+000 -1.340667e+001  0.000000e+000
      vertex  4.065487e+000 -1.237146e+001  3.000000e+000
      vertex  3.689194e+000 -1.340667e+001  3.000000e+000
    endloop
  endfacet
  facet normal  8.150955e-001 -5.793267e-001  0.000000e+000
    outer loop
      vertex  3.689194e+000 -1.340667e+001  0.000000e+000
      vertex  3.689194e+000 -1.340667e+001  3.000000e+000
      vertex  3.051076e+000 -1.430449e+001  0.000000e+000
    endloop
  endfacet
  facet normal  8.150955e-001 -5.793267e-001  0.000000e+000
    outer loop
      vertex  3.051076e+000 -1.430449e+001  0.000000e+000
      vertex  3.689194e+000 -1.340667e+001  3.000000e+000
      vertex  3.051076e+000 -1.430449e+001  3.000000e+000
    endloop
  endfacet
  facet normal  6.316164e-001 -7.752811e-001  0.000000e+000
    outer loop
      vertex  3.051076e+000 -1.430449e+001  0.000000e+000
      vertex  3.051076e+000 -1.430449e+001  3.000000e+000
      vertex  2.197118e+000 -1.500020e+001  0.000000e+000
    endloop
  endfacet
  facet normal  6.316164e-001 -7.752811e-001  0.000000e+000
    outer loop
      vertex  2.197118e+000 -1.500020e+001  0.000000e+000
      vertex  3.051076e+000 -1.430449e+001  3.000000e+000
      vertex  2.197118e+000 -1.500020e+001  3.000000e+000
    endloop
  endfacet
  facet normal  4.026217e-001 -9.153665e-001  0.000000e+000
    outer loop
      vertex  2.197118e+000 -1.500020e+001  0.000000e+000
      vertex  2.197118e+000 -1.500020e+001  3.000000e+000
      vertex  1.188859e+000 -1.544368e+001  0.000000e+000
    endloop
  endfacet
  facet normal  4.026217e-001 -9.153665e-001  0.000000e+000
    outer loop
      vertex  1.188859e+000 -1.544368e+001  0.000000e+000
      vertex  2.197118e+000 -1.500020e+001  3.000000e+000
      vertex  1.188859e+000 -1.544368e+001  3.000000e+000
    endloop
  endfacet
  facet normal  1.446128e-001 -9.894884e-001  0.000000e+000
    outer loop
      vertex  1.188859e+000 -1.544368e+001  0.000000e+000
      vertex  1.188859e+000 -1.544368e+001  3.000000e+000
      vertex  9.895514e-002 -1.560297e+001  0.000000e+000
    endloop
  endfacet
  facet normal  1.446128e-001 -9.894884e-001  0.000000e+000
    outer loop
      vertex  9.895514e-002 -1.560297e+001  0.000000e+000
      vertex  1.188859e+000 -1.544368e+001  3.000000e+000
      vertex  9.895514e-002 -1.560297e+001  3.000000e+000
    endloop
  endfacet
  facet normal -1.238178e-001 -9.923050e-001  -0.000000e+000
    outer loop
      vertex  9.895514e-002 -1.560297e+001  0.000000e+000
      vertex  9.895514e-002 -1.560297e+001  3.000000e+000
      vertex -9.940508e-001 -1.546659e+001  0.000000e+000
    endloop
  endfacet
  facet normal -1.238178e-001 -9.923050e-001  0.000000e+000
    outer loop
      vertex -9.940508e-001 -1.546659e+001  0.000000e+000
      vertex  9.895514e-002 -1.560297e+001  3.000000e+000
      vertex -9.940508e-001 -1.546659e+001  3.000000e+000
    endloop
  endfacet
  facet normal -3.833253e-001 -9.236134e-001  -0.000000e+000
    outer loop
      vertex -9.940508e-001 -1.546659e+001  0.000000e+000
      vertex -9.940508e-001 -1.546659e+001  3.000000e+000
      vertex -2.011394e+000 -1.504436e+001  0.000000e+000
    endloop
  endfacet
  facet normal -3.833253e-001 -9.236134e-001  0.000000e+000
    outer loop
      vertex -2.011394e+000 -1.504436e+001  0.000000e+000
      vertex -9.940508e-001 -1.546659e+001  3.000000e+000
      vertex -2.011394e+000 -1.504436e+001  3.000000e+000
    endloop
  endfacet
  facet normal -6.152092e-001 -7.883639e-001  -0.000000e+000
    outer loop
      vertex -2.011394e+000 -1.504436e+001  0.000000e+000
      vertex -2.011394e+000 -1.504436e+001  3.000000e+000
      vertex -2.879763e+000 -1.436672e+001  0.000000e+000
    endloop
  endfacet
  facet normal -6.152092e-001 -7.883639e-001  0.000000e+000
    outer loop
      vertex -2.879763e+000 -1.436672e+001  0.000000e+000
      vertex -2.011394e+000 -1.504436e+001  3.000000e+000
      vertex -2.879763e+000 -1.436672e+001  3.000000e+000
    endloop
  endfacet
  facet normal -8.027595e-001 -5.963029e-001  -0.000000e+000
    outer loop
      vertex -2.879763e+000 -1.436672e+001  0.000000e+000
      vertex -2.879763e+000 -1.436672e+001  3.000000e+000
      vertex -3.536580e+000 -1.348249e+001  0.000000e+000
    endloop
  endfacet
  facet normal -8.027595e-001 -5.963029e-001  0.000000e+000
    outer loop
      vertex -3.536580e+000 -1.348249e+001  0.000000e+000
      vertex -2.879763e+000 -1.436672e+001  3.000000e+000
      vertex -3.536580e+000 -1.348249e+001  3.000000e+000
    endloop
  endfacet
  facet normal -9.324610e-001 -3.612705e-001  -0.000000e+000
    outer loop
      vertex -3.536580e+000 -1.348249e+001  0.000000e+000
      vertex -3.536580e+000 -1.348249e+001  3.000000e+000
      vertex -3.934513e+000 -1.245541e+001  0.000000e+000
    endloop
  endfacet
  facet normal -9.324610e-001 -3.612705e-001  0.000000e+000
    outer loop
      vertex -3.934513e+000 -1.245541e+001  0.000000e+000
      vertex -3.536580e+000 -1.348249e+001  3.000000e+000
      vertex -3.934513e+000 -1.245541e+001  3.000000e+000
    endloop
  endfacet
  facet normal -1.000000e+000  0.000000e+000  0.000000e+000
    outer loop
      vertex -3.934513e+000  1.245541e+001  3.000000e+000
      vertex -3.934513e+000  1.245541e+001  0.000000e+000
      vertex -3.934513e+000 -1.245541e+001  3.000000e+000
    endloop
  endfacet
  facet normal -1.000000e+000  0.000000e+000  0.000000e+000
    outer loop
      vertex -3.934513e+000 -1.245541e+001  3.000000e+000
      vertex -3.934513e+000  1.245541e+001  0.000000e+000
      vertex -3.934513e+000 -1.245541e+001  0.000000e+000
    endloop
  endfacet
  facet normal -9.324610e-001  3.612705e-001  0.000000e+000
    outer loop
      vertex -3.934513e+000  1.245541e+001  0.000000e+000
      vertex -3.934513e+000  1.245541e+001  3.000000e+000
      vertex -3.536580e+000  1.348249e+001  0.000000e+000
    endloop
  endfacet
  facet normal -9.324610e-001  3.612705e-001  0.000000e+000
    outer loop
      vertex -3.536580e+000  1.348249e+001  0.000000e+000
      vertex -3.934513e+000  1.245541e+001  3.000000e+000
      vertex -3.536580e+000  1.348249e+001  3.000000e+000
    endloop
  endfacet
  facet normal -8.027595e-001  5.963029e-001  0.000000e+000
    outer loop
      vertex -3.536580e+000  1.348249e+001  0.000000e+000
      vertex -3.536580e+000  1.348249e+001  3.000000e+000
      vertex -2.879763e+000  1.436672e+001  0.000000e+000
    endloop
  endfacet
  facet normal -8.027595e-001  5.963029e-001  0.000000e+000
    outer loop
      vertex -2.879763e+000  1.436672e+001  0.000000e+000
      vertex -3.536580e+000  1.348249e+001  3.000000e+000
      vertex -2.879763e+000  1.436672e+001  3.000000e+000
    endloop
  endfacet
  facet normal -6.152092e-001  7.883639e-001  0.000000e+000
    outer loop
      vertex -2.879763e+000  1.436672e+001  0.000000e+000
      vertex -2.879763e+000  1.436672e+001  3.000000e+000
      vertex -2.011394e+000  1.504436e+001  0.000000e+000
    endloop
  endfacet
  facet normal -6.152092e-001  7.883639e-001  0.000000e+000
    outer loop
      vertex -2.011394e+000  1.504436e+001  0.000000e+000
      vertex -2.879763e+000  1.436672e+001  3.000000e+000
      vertex -2.011394e+000  1.504436e+001  3.000000e+000
    endloop
  endfacet
  facet normal -3.833253e-001  9.236134e-001  0.000000e+000
    outer loop
      vertex -2.011394e+000  1.504436e+001  0.000000e+000
      vertex -2.011394e+000  1.504436e+001  3.000000e+000
      vertex -9.940508e-001  1.546659e+001  0.000000e+000
    endloop
  endfacet
  facet normal -3.833253e-001  9.236134e-001  0.000000e+000
    outer loop
      vertex -9.940508e-001  1.546659e+001  0.000000e+000
      vertex -2.011394e+000  1.504436e+001  3.000000e+000
      vertex -9.940508e-001  1.546659e+001  3.000000e+000
    endloop
  endfacet
  facet normal -1.238178e-001  9.923050e-001  0.000000e+000
    outer loop
      vertex -9.940508e-001  1.546659e+001  0.000000e+000
      vertex -9.940508e-001  1.546659e+001  3.000000e+000
      vertex  9.895514e-002  1.560297e+001  0.000000e+000
    endloop
  endfacet
  facet normal -1.238178e-001  9.923050e-001  0.000000e+000
    outer loop
      vertex  9.895514e-002  1.560297e+001  0.000000e+000
      vertex -9.940508e-001  1.546659e+001  3.000000e+000
      vertex  9.895514e-002  1.560297e+001  3.000000e+000
    endloop
  endfacet
  facet normal  1.446128e-001  9.894884e-001  0.000000e+000
    outer loop
      vertex  9.895514e-002  1.560297e+001  0.000000e+000
      vertex  9.895514e-002  1.560297e+001  3.000000e+000
      vertex  1.188859e+000  1.544368e+001  0.000000e+000
    endloop
  endfacet
  facet normal  1.446128e-001  9.894884e-001  -0.000000e+000
    outer loop
      vertex  1.188859e+000  1.544368e+001  0.000000e+000
      vertex  9.895514e-002  1.560297e+001  3.000000e+000
      vertex  1.188859e+000  1.544368e+001  3.000000e+000
    endloop
  endfacet
  facet normal  4.026217e-001  9.153665e-001  0.000000e+000
    outer loop
      vertex  1.188859e+000  1.544368e+001  0.000000e+000
      vertex  1.188859e+000  1.544368e+001  3.000000e+000
      vertex  2.197118e+000  1.500020e+001  0.000000e+000
    endloop
  endfacet
  facet normal  4.026217e-001  9.153665e-001  -0.000000e+000
    outer loop
      vertex  2.197118e+000  1.500020e+001  0.000000e+000
      vertex  1.188859e+000  1.544368e+001  3.000000e+000
      vertex  2.197118e+000  1.500020e+001  3.000000e+000
    endloop
  endfacet
  facet normal  6.316164e-001  7.752811e-001  0.000000e+000
    outer loop
      vertex  2.197118e+000  1.500020e+001  0.000000e+000
      vertex  2.197118e+000  1.500020e+001  3.000000e+000
      vertex  3.051076e+000  1.430449e+001  0.000000e+000
    endloop
  endfacet
  facet normal  6.316164e-001  7.752811e-001  -0.000000e+000
    outer loop
      vertex  3.051076e+000  1.430449e+001  0.000000e+000
      vertex  2.197118e+000  1.500020e+001  3.000000e+000
      vertex  3.051076e+000  1.430449e+001  3.000000e+000
    endloop
  endfacet
  facet normal  8.150955e-001  5.793267e-001  0.000000e+000
    outer loop
      vertex  3.051076e+000  1.430449e+001  0.000000e+000
      vertex  3.051076e+000  1.430449e+001  3.000000e+000
      vertex  3.689194e+000  1.340667e+001  0.000000e+000
    endloop
  endfacet
  facet normal  8.150955e-001  5.793267e-001  -0.000000e+000
    outer loop
      vertex  3.689194e+000  1.340667e+001  0.000000e+000
      vertex  3.051076e+000  1.430449e+001  3.000000e+000
      vertex  3.689194e+000  1.340667e+001  3.000000e+000
    endloop
  endfacet
  facet normal  9.398364e-001  3.416246e-001  0.000000e+000
    outer loop
      vertex  3.689194e+000  1.340667e+001  0.000000e+000
      vertex  3.689194e+000  1.340667e+001  3.000000e+000
      vertex  4.065487e+000  1.237146e+001  0.000000e+000
    endloop
  endfacet
  facet normal  9.398364e-001  3.416246e-001  -0.000000e+000
    outer loop
      vertex  4.065487e+000  1.237146e+001  0.000000e+000
      vertex  3.689194e+000  1.340667e+001  3.000000e+000
      vertex  4.065487e+000  1.237146e+001  3.000000e+000
    endloop
  endfacet
endsolid CATIA STL
