solid CATIA STL
  facet normal  0.000000e+000  0.000000e+000  1.000000e+000
    outer loop
      vertex -2.730863e-001 -1.020461e+001  3.000000e+000
      vertex -2.730863e-001  1.020461e+001  3.000000e+000
      vertex -8.745397e-001 -1.049425e+001  3.000000e+000
    endloop
  endfacet
  facet normal  0.000000e+000  0.000000e+000  1.000000e+000
    outer loop
      vertex  4.070280e+000  1.253846e+001  3.000000e+000
      vertex  3.693986e+000  1.357367e+001  3.000000e+000
      vertex  3.944765e-001  1.312939e+001  3.000000e+000
    endloop
  endfacet
  facet normal  0.000000e+000  0.000000e+000  1.000000e+000
    outer loop
      vertex  4.070280e+000  1.253846e+001  3.000000e+000
      vertex  3.944765e-001  1.312939e+001  3.000000e+000
      vertex  9.959298e-001  1.283975e+001  3.000000e+000
    endloop
  endfacet
  facet normal  0.000000e+000  0.000000e+000  9.999999e-001
    outer loop
      vertex  4.070280e+000  1.253846e+001  3.000000e+000
      vertex  9.959298e-001  1.283975e+001  3.000000e+000
      vertex  1.412148e+000  1.231783e+001  3.000000e+000
    endloop
  endfacet
  facet normal  -0.000000e+000  0.000000e+000  9.999999e-001
    outer loop
      vertex  4.070280e+000  1.253846e+001  3.000000e+000
      vertex  1.412148e+000  1.231783e+001  3.000000e+000
      vertex  1.560695e+000  1.166700e+001  3.000000e+000
    endloop
  endfacet
  facet normal  -0.000000e+000  0.000000e+000  1.000000e+000
    outer loop
      vertex  4.070280e+000  1.253846e+001  3.000000e+000
      vertex  1.560695e+000  1.166700e+001  3.000000e+000
      vertex  4.070280e+000 -1.253846e+001  3.000000e+000
    endloop
  endfacet
  facet normal  0.000000e+000  -0.000000e+000  1.000000e+000
    outer loop
      vertex  3.944765e-001 -1.312939e+001  3.000000e+000
      vertex  1.193651e+000 -1.561068e+001  3.000000e+000
      vertex  2.201910e+000 -1.516720e+001  3.000000e+000
    endloop
  endfacet
  facet normal  0.000000e+000  -0.000000e+000  1.000000e+000
    outer loop
      vertex  3.944765e-001 -1.312939e+001  3.000000e+000
      vertex  2.201910e+000 -1.516720e+001  3.000000e+000
      vertex  3.055869e+000 -1.447149e+001  3.000000e+000
    endloop
  endfacet
  facet normal  0.000000e+000  -0.000000e+000  1.000000e+000
    outer loop
      vertex  3.944765e-001 -1.312939e+001  3.000000e+000
      vertex  3.055869e+000 -1.447149e+001  3.000000e+000
      vertex  3.693986e+000 -1.357367e+001  3.000000e+000
    endloop
  endfacet
  facet normal  0.000000e+000  0.000000e+000  1.000000e+000
    outer loop
      vertex  3.944765e-001 -1.312939e+001  3.000000e+000
      vertex  3.693986e+000 -1.357367e+001  3.000000e+000
      vertex  9.959298e-001 -1.283975e+001  3.000000e+000
    endloop
  endfacet
  facet normal  0.000000e+000  -0.000000e+000  1.000000e+000
    outer loop
      vertex -3.929720e+000 -1.262241e+001  3.000000e+000
      vertex -3.531787e+000 -1.364949e+001  3.000000e+000
      vertex -2.730863e-001 -1.312939e+001  3.000000e+000
    endloop
  endfacet
  facet normal  0.000000e+000  0.000000e+000  9.999999e-001
    outer loop
      vertex -3.929720e+000 -1.262241e+001  3.000000e+000
      vertex -2.730863e-001 -1.312939e+001  3.000000e+000
      vertex -8.745397e-001 -1.283975e+001  3.000000e+000
    endloop
  endfacet
  facet normal  0.000000e+000  0.000000e+000  1.000000e+000
    outer loop
      vertex -3.929720e+000 -1.262241e+001  3.000000e+000
      vertex -8.745397e-001 -1.283975e+001  3.000000e+000
      vertex -1.290758e+000 -1.231783e+001  3.000000e+000
    endloop
  endfacet
  facet normal  0.000000e+000  0.000000e+000  1.000000e+000
    outer loop
      vertex -3.929720e+000 -1.262241e+001  3.000000e+000
      vertex -1.290758e+000 -1.231783e+001  3.000000e+000
      vertex -1.439305e+000 -1.166700e+001  3.000000e+000
    endloop
  endfacet
  facet normal  0.000000e+000  -0.000000e+000  1.000000e+000
    outer loop
      vertex -3.929720e+000 -1.262241e+001  3.000000e+000
      vertex -1.439305e+000 -1.166700e+001  3.000000e+000
      vertex -1.290758e+000 -1.101617e+001  3.000000e+000
    endloop
  endfacet
  facet normal  0.000000e+000  -0.000000e+000  1.000000e+000
    outer loop
      vertex -3.929720e+000 -1.262241e+001  3.000000e+000
      vertex -1.290758e+000 -1.101617e+001  3.000000e+000
      vertex -8.745397e-001 -1.049425e+001  3.000000e+000
    endloop
  endfacet
  facet normal  0.000000e+000  -0.000000e+000  1.000000e+000
    outer loop
      vertex -3.929720e+000 -1.262241e+001  3.000000e+000
      vertex -8.745397e-001 -1.049425e+001  3.000000e+000
      vertex -2.730863e-001  1.020461e+001  3.000000e+000
    endloop
  endfacet
  facet normal  0.000000e+000  0.000000e+000  1.000000e+000
    outer loop
      vertex -3.929720e+000 -1.262241e+001  3.000000e+000
      vertex -2.730863e-001  1.020461e+001  3.000000e+000
      vertex -8.745397e-001  1.049425e+001  3.000000e+000
    endloop
  endfacet
  facet normal  0.000000e+000  0.000000e+000  1.000000e+000
    outer loop
      vertex -3.929720e+000 -1.262241e+001  3.000000e+000
      vertex -8.745397e-001  1.049425e+001  3.000000e+000
      vertex -1.290758e+000  1.101617e+001  3.000000e+000
    endloop
  endfacet
  facet normal  0.000000e+000  0.000000e+000  1.000000e+000
    outer loop
      vertex -3.929720e+000 -1.262241e+001  3.000000e+000
      vertex -1.290758e+000  1.101617e+001  3.000000e+000
      vertex -1.439305e+000  1.166700e+001  3.000000e+000
    endloop
  endfacet
  facet normal  0.000000e+000  0.000000e+000  1.000000e+000
    outer loop
      vertex -3.929720e+000  1.262241e+001  3.000000e+000
      vertex -3.929720e+000 -1.262241e+001  3.000000e+000
      vertex -1.439305e+000  1.166700e+001  3.000000e+000
    endloop
  endfacet
  facet normal  0.000000e+000  -0.000000e+000  1.000000e+000
    outer loop
      vertex -3.929720e+000  1.262241e+001  3.000000e+000
      vertex -1.439305e+000  1.166700e+001  3.000000e+000
      vertex -1.290758e+000  1.231783e+001  3.000000e+000
    endloop
  endfacet
  facet normal  0.000000e+000  -0.000000e+000  1.000000e+000
    outer loop
      vertex -3.929720e+000  1.262241e+001  3.000000e+000
      vertex -1.290758e+000  1.231783e+001  3.000000e+000
      vertex -8.745397e-001  1.283975e+001  3.000000e+000
    endloop
  endfacet
  facet normal  0.000000e+000  -0.000000e+000  1.000000e+000
    outer loop
      vertex -3.929720e+000  1.262241e+001  3.000000e+000
      vertex -8.745397e-001  1.283975e+001  3.000000e+000
      vertex -2.730863e-001  1.312939e+001  3.000000e+000
    endloop
  endfacet
  facet normal  0.000000e+000  0.000000e+000  1.000000e+000
    outer loop
      vertex -3.929720e+000  1.262241e+001  3.000000e+000
      vertex -2.730863e-001  1.312939e+001  3.000000e+000
      vertex -3.531787e+000  1.364949e+001  3.000000e+000
    endloop
  endfacet
  facet normal  0.000000e+000  0.000000e+000  1.000000e+000
    outer loop
      vertex  4.070280e+000 -1.253846e+001  3.000000e+000
      vertex  1.560695e+000  1.166700e+001  3.000000e+000
      vertex  1.412148e+000  1.101617e+001  3.000000e+000
    endloop
  endfacet
  facet normal  0.000000e+000  0.000000e+000  9.999999e-001
    outer loop
      vertex  4.070280e+000 -1.253846e+001  3.000000e+000
      vertex  1.412148e+000  1.101617e+001  3.000000e+000
      vertex  9.959298e-001  1.049425e+001  3.000000e+000
    endloop
  endfacet
  facet normal  0.000000e+000  0.000000e+000  1.000000e+000
    outer loop
      vertex  4.070280e+000 -1.253846e+001  3.000000e+000
      vertex  9.959298e-001  1.049425e+001  3.000000e+000
      vertex  3.944765e-001  1.020461e+001  3.000000e+000
    endloop
  endfacet
  facet normal  0.000000e+000  0.000000e+000  1.000000e+000
    outer loop
      vertex  4.070280e+000 -1.253846e+001  3.000000e+000
      vertex  3.944765e-001  1.020461e+001  3.000000e+000
      vertex  9.959298e-001 -1.049425e+001  3.000000e+000
    endloop
  endfacet
  facet normal  0.000000e+000  0.000000e+000  9.999999e-001
    outer loop
      vertex  4.070280e+000 -1.253846e+001  3.000000e+000
      vertex  9.959298e-001 -1.049425e+001  3.000000e+000
      vertex  1.412148e+000 -1.101617e+001  3.000000e+000
    endloop
  endfacet
  facet normal  0.000000e+000  0.000000e+000  9.999999e-001
    outer loop
      vertex  4.070280e+000 -1.253846e+001  3.000000e+000
      vertex  1.412148e+000 -1.101617e+001  3.000000e+000
      vertex  1.560695e+000 -1.166700e+001  3.000000e+000
    endloop
  endfacet
  facet normal  0.000000e+000  0.000000e+000  9.999999e-001
    outer loop
      vertex  4.070280e+000 -1.253846e+001  3.000000e+000
      vertex  1.560695e+000 -1.166700e+001  3.000000e+000
      vertex  1.412148e+000 -1.231783e+001  3.000000e+000
    endloop
  endfacet
  facet normal  0.000000e+000  0.000000e+000  1.000000e+000
    outer loop
      vertex  4.070280e+000 -1.253846e+001  3.000000e+000
      vertex  1.412148e+000 -1.231783e+001  3.000000e+000
      vertex  9.959298e-001 -1.283975e+001  3.000000e+000
    endloop
  endfacet
  facet normal  -0.000000e+000  0.000000e+000  9.999999e-001
    outer loop
      vertex  4.070280e+000 -1.253846e+001  3.000000e+000
      vertex  9.959298e-001 -1.283975e+001  3.000000e+000
      vertex  3.693986e+000 -1.357367e+001  3.000000e+000
    endloop
  endfacet
  facet normal  0.000000e+000  0.000000e+000  1.000000e+000
    outer loop
      vertex  1.193651e+000 -1.561068e+001  3.000000e+000
      vertex  3.944765e-001 -1.312939e+001  3.000000e+000
      vertex  1.037474e-001 -1.576997e+001  3.000000e+000
    endloop
  endfacet
  facet normal  0.000000e+000  -0.000000e+000  9.999999e-001
    outer loop
      vertex  1.037474e-001 -1.576997e+001  3.000000e+000
      vertex  3.944765e-001 -1.312939e+001  3.000000e+000
      vertex -2.730863e-001 -1.312939e+001  3.000000e+000
    endloop
  endfacet
  facet normal  0.000000e+000  0.000000e+000  1.000000e+000
    outer loop
      vertex  1.037474e-001 -1.576997e+001  3.000000e+000
      vertex -2.730863e-001 -1.312939e+001  3.000000e+000
      vertex -9.892585e-001 -1.563359e+001  3.000000e+000
    endloop
  endfacet
  facet normal  0.000000e+000  -0.000000e+000  1.000000e+000
    outer loop
      vertex -9.892585e-001 -1.563359e+001  3.000000e+000
      vertex -2.730863e-001 -1.312939e+001  3.000000e+000
      vertex -3.531787e+000 -1.364949e+001  3.000000e+000
    endloop
  endfacet
  facet normal  0.000000e+000  0.000000e+000  9.999999e-001
    outer loop
      vertex -9.892585e-001 -1.563359e+001  3.000000e+000
      vertex -3.531787e+000 -1.364949e+001  3.000000e+000
      vertex -2.006602e+000 -1.521136e+001  3.000000e+000
    endloop
  endfacet
  facet normal  0.000000e+000  0.000000e+000  1.000000e+000
    outer loop
      vertex -2.006602e+000 -1.521136e+001  3.000000e+000
      vertex -3.531787e+000 -1.364949e+001  3.000000e+000
      vertex -2.874971e+000 -1.453372e+001  3.000000e+000
    endloop
  endfacet
  facet normal  0.000000e+000  0.000000e+000  9.999999e-001
    outer loop
      vertex -2.730863e-001  1.020461e+001  3.000000e+000
      vertex -2.730863e-001 -1.020461e+001  3.000000e+000
      vertex  3.944765e-001  1.020461e+001  3.000000e+000
    endloop
  endfacet
  facet normal  0.000000e+000  0.000000e+000  9.999999e-001
    outer loop
      vertex  3.944765e-001  1.020461e+001  3.000000e+000
      vertex -2.730863e-001 -1.020461e+001  3.000000e+000
      vertex  3.944765e-001 -1.020461e+001  3.000000e+000
    endloop
  endfacet
  facet normal  -0.000000e+000  0.000000e+000  1.000000e+000
    outer loop
      vertex  3.944765e-001  1.020461e+001  3.000000e+000
      vertex  3.944765e-001 -1.020461e+001  3.000000e+000
      vertex  9.959298e-001 -1.049425e+001  3.000000e+000
    endloop
  endfacet
  facet normal  0.000000e+000  0.000000e+000  9.999999e-001
    outer loop
      vertex -2.006602e+000  1.521136e+001  3.000000e+000
      vertex -2.874971e+000  1.453372e+001  3.000000e+000
      vertex -9.892585e-001  1.563359e+001  3.000000e+000
    endloop
  endfacet
  facet normal  0.000000e+000  0.000000e+000  1.000000e+000
    outer loop
      vertex -9.892585e-001  1.563359e+001  3.000000e+000
      vertex -2.874971e+000  1.453372e+001  3.000000e+000
      vertex -3.531787e+000  1.364949e+001  3.000000e+000
    endloop
  endfacet
  facet normal  0.000000e+000  0.000000e+000  1.000000e+000
    outer loop
      vertex -9.892585e-001  1.563359e+001  3.000000e+000
      vertex -3.531787e+000  1.364949e+001  3.000000e+000
      vertex  1.037474e-001  1.576997e+001  3.000000e+000
    endloop
  endfacet
  facet normal  0.000000e+000  0.000000e+000  1.000000e+000
    outer loop
      vertex  1.037474e-001  1.576997e+001  3.000000e+000
      vertex -3.531787e+000  1.364949e+001  3.000000e+000
      vertex -2.730863e-001  1.312939e+001  3.000000e+000
    endloop
  endfacet
  facet normal  0.000000e+000  0.000000e+000  1.000000e+000
    outer loop
      vertex  1.037474e-001  1.576997e+001  3.000000e+000
      vertex -2.730863e-001  1.312939e+001  3.000000e+000
      vertex  1.193651e+000  1.561068e+001  3.000000e+000
    endloop
  endfacet
  facet normal  0.000000e+000  0.000000e+000  1.000000e+000
    outer loop
      vertex  1.193651e+000  1.561068e+001  3.000000e+000
      vertex -2.730863e-001  1.312939e+001  3.000000e+000
      vertex  3.944765e-001  1.312939e+001  3.000000e+000
    endloop
  endfacet
  facet normal  0.000000e+000  0.000000e+000  1.000000e+000
    outer loop
      vertex  1.193651e+000  1.561068e+001  3.000000e+000
      vertex  3.944765e-001  1.312939e+001  3.000000e+000
      vertex  2.201910e+000  1.516720e+001  3.000000e+000
    endloop
  endfacet
  facet normal  0.000000e+000  0.000000e+000  1.000000e+000
    outer loop
      vertex  3.055869e+000  1.447149e+001  3.000000e+000
      vertex  2.201910e+000  1.516720e+001  3.000000e+000
      vertex  3.693986e+000  1.357367e+001  3.000000e+000
    endloop
  endfacet
  facet normal  0.000000e+000  0.000000e+000  1.000000e+000
    outer loop
      vertex  3.693986e+000  1.357367e+001  3.000000e+000
      vertex  2.201910e+000  1.516720e+001  3.000000e+000
      vertex  3.944765e-001  1.312939e+001  3.000000e+000
    endloop
  endfacet
  facet normal  0.000000e+000  -0.000000e+000 -1.000000e+000
    outer loop
      vertex -8.745397e-001 -1.049425e+001  0.000000e+000
      vertex -2.730863e-001  1.020461e+001  0.000000e+000
      vertex -2.730863e-001 -1.020461e+001  0.000000e+000
    endloop
  endfacet
  facet normal  0.000000e+000  0.000000e+000 -1.000000e+000
    outer loop
      vertex  4.070280e+000  1.253846e+001  0.000000e+000
      vertex  4.070280e+000 -1.253846e+001  0.000000e+000
      vertex  1.560695e+000  1.166700e+001  0.000000e+000
    endloop
  endfacet
  facet normal  0.000000e+000  0.000000e+000 -9.999999e-001
    outer loop
      vertex  4.070280e+000  1.253846e+001  0.000000e+000
      vertex  1.560695e+000  1.166700e+001  0.000000e+000
      vertex  1.412148e+000  1.231783e+001  0.000000e+000
    endloop
  endfacet
  facet normal  0.000000e+000  0.000000e+000 -1.000000e+000
    outer loop
      vertex  4.070280e+000  1.253846e+001  0.000000e+000
      vertex  1.412148e+000  1.231783e+001  0.000000e+000
      vertex  9.959298e-001  1.283975e+001  0.000000e+000
    endloop
  endfacet
  facet normal  0.000000e+000  0.000000e+000 -1.000000e+000
    outer loop
      vertex  4.070280e+000  1.253846e+001  0.000000e+000
      vertex  9.959298e-001  1.283975e+001  0.000000e+000
      vertex  3.944765e-001  1.312939e+001  0.000000e+000
    endloop
  endfacet
  facet normal  0.000000e+000  0.000000e+000 -1.000000e+000
    outer loop
      vertex  4.070280e+000  1.253846e+001  0.000000e+000
      vertex  3.944765e-001  1.312939e+001  0.000000e+000
      vertex  3.693986e+000  1.357367e+001  0.000000e+000
    endloop
  endfacet
  facet normal  0.000000e+000  -0.000000e+000 -1.000000e+000
    outer loop
      vertex  3.944765e-001 -1.312939e+001  0.000000e+000
      vertex  9.959298e-001 -1.283975e+001  0.000000e+000
      vertex  3.693986e+000 -1.357367e+001  0.000000e+000
    endloop
  endfacet
  facet normal  -0.000000e+000  0.000000e+000 -1.000000e+000
    outer loop
      vertex  3.944765e-001 -1.312939e+001  0.000000e+000
      vertex  3.693986e+000 -1.357367e+001  0.000000e+000
      vertex  3.055869e+000 -1.447149e+001  0.000000e+000
    endloop
  endfacet
  facet normal  -0.000000e+000  0.000000e+000 -1.000000e+000
    outer loop
      vertex  3.944765e-001 -1.312939e+001  0.000000e+000
      vertex  3.055869e+000 -1.447149e+001  0.000000e+000
      vertex  2.201910e+000 -1.516720e+001  0.000000e+000
    endloop
  endfacet
  facet normal  -0.000000e+000  0.000000e+000 -1.000000e+000
    outer loop
      vertex  3.944765e-001 -1.312939e+001  0.000000e+000
      vertex  2.201910e+000 -1.516720e+001  0.000000e+000
      vertex  1.193651e+000 -1.561068e+001  0.000000e+000
    endloop
  endfacet
  facet normal  0.000000e+000  -0.000000e+000 -1.000000e+000
    outer loop
      vertex -3.929720e+000 -1.262241e+001  0.000000e+000
      vertex -1.439305e+000  1.166700e+001  0.000000e+000
      vertex -1.290758e+000  1.101617e+001  0.000000e+000
    endloop
  endfacet
  facet normal  0.000000e+000  -0.000000e+000 -1.000000e+000
    outer loop
      vertex -3.929720e+000 -1.262241e+001  0.000000e+000
      vertex -1.290758e+000  1.101617e+001  0.000000e+000
      vertex -8.745397e-001  1.049425e+001  0.000000e+000
    endloop
  endfacet
  facet normal  0.000000e+000  -0.000000e+000 -1.000000e+000
    outer loop
      vertex -3.929720e+000 -1.262241e+001  0.000000e+000
      vertex -8.745397e-001  1.049425e+001  0.000000e+000
      vertex -2.730863e-001  1.020461e+001  0.000000e+000
    endloop
  endfacet
  facet normal  0.000000e+000  0.000000e+000 -9.999999e-001
    outer loop
      vertex -3.929720e+000 -1.262241e+001  0.000000e+000
      vertex -2.730863e-001  1.020461e+001  0.000000e+000
      vertex -8.745397e-001 -1.049425e+001  0.000000e+000
    endloop
  endfacet
  facet normal  0.000000e+000  0.000000e+000 -1.000000e+000
    outer loop
      vertex -3.929720e+000 -1.262241e+001  0.000000e+000
      vertex -8.745397e-001 -1.049425e+001  0.000000e+000
      vertex -1.290758e+000 -1.101617e+001  0.000000e+000
    endloop
  endfacet
  facet normal  0.000000e+000  0.000000e+000 -1.000000e+000
    outer loop
      vertex -3.929720e+000 -1.262241e+001  0.000000e+000
      vertex -1.290758e+000 -1.101617e+001  0.000000e+000
      vertex -1.439305e+000 -1.166700e+001  0.000000e+000
    endloop
  endfacet
  facet normal  0.000000e+000  -0.000000e+000 -1.000000e+000
    outer loop
      vertex -3.929720e+000 -1.262241e+001  0.000000e+000
      vertex -1.439305e+000 -1.166700e+001  0.000000e+000
      vertex -1.290758e+000 -1.231783e+001  0.000000e+000
    endloop
  endfacet
  facet normal  0.000000e+000  -0.000000e+000 -1.000000e+000
    outer loop
      vertex -3.929720e+000 -1.262241e+001  0.000000e+000
      vertex -1.290758e+000 -1.231783e+001  0.000000e+000
      vertex -8.745397e-001 -1.283975e+001  0.000000e+000
    endloop
  endfacet
  facet normal  -0.000000e+000  -0.000000e+000 -1.000000e+000
    outer loop
      vertex -3.929720e+000 -1.262241e+001  0.000000e+000
      vertex -8.745397e-001 -1.283975e+001  0.000000e+000
      vertex -2.730863e-001 -1.312939e+001  0.000000e+000
    endloop
  endfacet
  facet normal  -0.000000e+000  0.000000e+000 -1.000000e+000
    outer loop
      vertex -3.929720e+000 -1.262241e+001  0.000000e+000
      vertex -2.730863e-001 -1.312939e+001  0.000000e+000
      vertex -3.531787e+000 -1.364949e+001  0.000000e+000
    endloop
  endfacet
  facet normal  0.000000e+000  -0.000000e+000 -1.000000e+000
    outer loop
      vertex -3.929720e+000  1.262241e+001  0.000000e+000
      vertex -3.531787e+000  1.364949e+001  0.000000e+000
      vertex -2.730863e-001  1.312939e+001  0.000000e+000
    endloop
  endfacet
  facet normal  0.000000e+000  0.000000e+000 -9.999999e-001
    outer loop
      vertex -3.929720e+000  1.262241e+001  0.000000e+000
      vertex -2.730863e-001  1.312939e+001  0.000000e+000
      vertex -8.745397e-001  1.283975e+001  0.000000e+000
    endloop
  endfacet
  facet normal  0.000000e+000  0.000000e+000 -1.000000e+000
    outer loop
      vertex -3.929720e+000  1.262241e+001  0.000000e+000
      vertex -8.745397e-001  1.283975e+001  0.000000e+000
      vertex -1.290758e+000  1.231783e+001  0.000000e+000
    endloop
  endfacet
  facet normal  -0.000000e+000  0.000000e+000 -1.000000e+000
    outer loop
      vertex -3.929720e+000  1.262241e+001  0.000000e+000
      vertex -1.290758e+000  1.231783e+001  0.000000e+000
      vertex -1.439305e+000  1.166700e+001  0.000000e+000
    endloop
  endfacet
  facet normal  -0.000000e+000  0.000000e+000 -1.000000e+000
    outer loop
      vertex -3.929720e+000  1.262241e+001  0.000000e+000
      vertex -1.439305e+000  1.166700e+001  0.000000e+000
      vertex -3.929720e+000 -1.262241e+001  0.000000e+000
    endloop
  endfacet
  facet normal  0.000000e+000  0.000000e+000 -9.999999e-001
    outer loop
      vertex  4.070280e+000 -1.253846e+001  0.000000e+000
      vertex  3.693986e+000 -1.357367e+001  0.000000e+000
      vertex  9.959298e-001 -1.283975e+001  0.000000e+000
    endloop
  endfacet
  facet normal  0.000000e+000  0.000000e+000 -9.999999e-001
    outer loop
      vertex  4.070280e+000 -1.253846e+001  0.000000e+000
      vertex  9.959298e-001 -1.283975e+001  0.000000e+000
      vertex  1.412148e+000 -1.231783e+001  0.000000e+000
    endloop
  endfacet
  facet normal  0.000000e+000  0.000000e+000 -9.999999e-001
    outer loop
      vertex  4.070280e+000 -1.253846e+001  0.000000e+000
      vertex  1.412148e+000 -1.231783e+001  0.000000e+000
      vertex  1.560695e+000 -1.166700e+001  0.000000e+000
    endloop
  endfacet
  facet normal  0.000000e+000  0.000000e+000 -9.999999e-001
    outer loop
      vertex  4.070280e+000 -1.253846e+001  0.000000e+000
      vertex  1.560695e+000 -1.166700e+001  0.000000e+000
      vertex  1.412148e+000 -1.101617e+001  0.000000e+000
    endloop
  endfacet
  facet normal  0.000000e+000  0.000000e+000 -1.000000e+000
    outer loop
      vertex  4.070280e+000 -1.253846e+001  0.000000e+000
      vertex  1.412148e+000 -1.101617e+001  0.000000e+000
      vertex  9.959298e-001 -1.049425e+001  0.000000e+000
    endloop
  endfacet
  facet normal  0.000000e+000  0.000000e+000 -1.000000e+000
    outer loop
      vertex  4.070280e+000 -1.253846e+001  0.000000e+000
      vertex  9.959298e-001 -1.049425e+001  0.000000e+000
      vertex  3.944765e-001  1.020461e+001  0.000000e+000
    endloop
  endfacet
  facet normal  0.000000e+000  0.000000e+000 -1.000000e+000
    outer loop
      vertex  4.070280e+000 -1.253846e+001  0.000000e+000
      vertex  3.944765e-001  1.020461e+001  0.000000e+000
      vertex  9.959298e-001  1.049425e+001  0.000000e+000
    endloop
  endfacet
  facet normal  0.000000e+000  0.000000e+000 -1.000000e+000
    outer loop
      vertex  4.070280e+000 -1.253846e+001  0.000000e+000
      vertex  9.959298e-001  1.049425e+001  0.000000e+000
      vertex  1.412148e+000  1.101617e+001  0.000000e+000
    endloop
  endfacet
  facet normal  0.000000e+000  0.000000e+000 -1.000000e+000
    outer loop
      vertex  4.070280e+000 -1.253846e+001  0.000000e+000
      vertex  1.412148e+000  1.101617e+001  0.000000e+000
      vertex  1.560695e+000  1.166700e+001  0.000000e+000
    endloop
  endfacet
  facet normal  0.000000e+000  -0.000000e+000 -1.000000e+000
    outer loop
      vertex  1.037474e-001 -1.576997e+001  0.000000e+000
      vertex  3.944765e-001 -1.312939e+001  0.000000e+000
      vertex  1.193651e+000 -1.561068e+001  0.000000e+000
    endloop
  endfacet
  facet normal  0.000000e+000  0.000000e+000 -9.999999e-001
    outer loop
      vertex  3.944765e-001 -1.312939e+001  0.000000e+000
      vertex  1.037474e-001 -1.576997e+001  0.000000e+000
      vertex -2.730863e-001 -1.312939e+001  0.000000e+000
    endloop
  endfacet
  facet normal  0.000000e+000  -0.000000e+000 -1.000000e+000
    outer loop
      vertex -2.730863e-001 -1.312939e+001  0.000000e+000
      vertex  1.037474e-001 -1.576997e+001  0.000000e+000
      vertex -9.892585e-001 -1.563359e+001  0.000000e+000
    endloop
  endfacet
  facet normal  0.000000e+000  0.000000e+000 -1.000000e+000
    outer loop
      vertex -2.730863e-001 -1.312939e+001  0.000000e+000
      vertex -9.892585e-001 -1.563359e+001  0.000000e+000
      vertex -3.531787e+000 -1.364949e+001  0.000000e+000
    endloop
  endfacet
  facet normal  0.000000e+000  0.000000e+000 -9.999999e-001
    outer loop
      vertex -3.531787e+000 -1.364949e+001  0.000000e+000
      vertex -9.892585e-001 -1.563359e+001  0.000000e+000
      vertex -2.006602e+000 -1.521136e+001  0.000000e+000
    endloop
  endfacet
  facet normal  0.000000e+000  0.000000e+000 -1.000000e+000
    outer loop
      vertex -3.531787e+000 -1.364949e+001  0.000000e+000
      vertex -2.006602e+000 -1.521136e+001  0.000000e+000
      vertex -2.874971e+000 -1.453372e+001  0.000000e+000
    endloop
  endfacet
  facet normal  0.000000e+000  0.000000e+000 -1.000000e+000
    outer loop
      vertex  9.959298e-001 -1.049425e+001  0.000000e+000
      vertex  3.944765e-001 -1.020461e+001  0.000000e+000
      vertex  3.944765e-001  1.020461e+001  0.000000e+000
    endloop
  endfacet
  facet normal  0.000000e+000  -0.000000e+000 -9.999999e-001
    outer loop
      vertex  3.944765e-001  1.020461e+001  0.000000e+000
      vertex  3.944765e-001 -1.020461e+001  0.000000e+000
      vertex -2.730863e-001 -1.020461e+001  0.000000e+000
    endloop
  endfacet
  facet normal  0.000000e+000  0.000000e+000 -9.999999e-001
    outer loop
      vertex  3.944765e-001  1.020461e+001  0.000000e+000
      vertex -2.730863e-001 -1.020461e+001  0.000000e+000
      vertex -2.730863e-001  1.020461e+001  0.000000e+000
    endloop
  endfacet
  facet normal  0.000000e+000  0.000000e+000 -1.000000e+000
    outer loop
      vertex  2.201910e+000  1.516720e+001  0.000000e+000
      vertex  3.944765e-001  1.312939e+001  0.000000e+000
      vertex  1.193651e+000  1.561068e+001  0.000000e+000
    endloop
  endfacet
  facet normal  0.000000e+000  0.000000e+000 -1.000000e+000
    outer loop
      vertex  1.193651e+000  1.561068e+001  0.000000e+000
      vertex  3.944765e-001  1.312939e+001  0.000000e+000
      vertex -2.730863e-001  1.312939e+001  0.000000e+000
    endloop
  endfacet
  facet normal  0.000000e+000  0.000000e+000 -1.000000e+000
    outer loop
      vertex  1.193651e+000  1.561068e+001  0.000000e+000
      vertex -2.730863e-001  1.312939e+001  0.000000e+000
      vertex  1.037474e-001  1.576997e+001  0.000000e+000
    endloop
  endfacet
  facet normal  0.000000e+000  0.000000e+000 -1.000000e+000
    outer loop
      vertex  1.037474e-001  1.576997e+001  0.000000e+000
      vertex -2.730863e-001  1.312939e+001  0.000000e+000
      vertex -3.531787e+000  1.364949e+001  0.000000e+000
    endloop
  endfacet
  facet normal  0.000000e+000  0.000000e+000 -1.000000e+000
    outer loop
      vertex  1.037474e-001  1.576997e+001  0.000000e+000
      vertex -3.531787e+000  1.364949e+001  0.000000e+000
      vertex -9.892585e-001  1.563359e+001  0.000000e+000
    endloop
  endfacet
  facet normal  0.000000e+000  0.000000e+000 -1.000000e+000
    outer loop
      vertex -9.892585e-001  1.563359e+001  0.000000e+000
      vertex -3.531787e+000  1.364949e+001  0.000000e+000
      vertex -2.874971e+000  1.453372e+001  0.000000e+000
    endloop
  endfacet
  facet normal  0.000000e+000  0.000000e+000 -9.999999e-001
    outer loop
      vertex -9.892585e-001  1.563359e+001  0.000000e+000
      vertex -2.874971e+000  1.453372e+001  0.000000e+000
      vertex -2.006602e+000  1.521136e+001  0.000000e+000
    endloop
  endfacet
  facet normal  0.000000e+000  0.000000e+000 -1.000000e+000
    outer loop
      vertex  3.055869e+000  1.447149e+001  0.000000e+000
      vertex  3.693986e+000  1.357367e+001  0.000000e+000
      vertex  2.201910e+000  1.516720e+001  0.000000e+000
    endloop
  endfacet
  facet normal  0.000000e+000  -0.000000e+000 -1.000000e+000
    outer loop
      vertex  2.201910e+000  1.516720e+001  0.000000e+000
      vertex  3.693986e+000  1.357367e+001  0.000000e+000
      vertex  3.944765e-001  1.312939e+001  0.000000e+000
    endloop
  endfacet
  facet normal  4.338844e-001 -9.009686e-001  0.000000e+000
    outer loop
      vertex -2.730863e-001 -1.020461e+001  0.000000e+000
      vertex -8.745397e-001 -1.049425e+001  3.000000e+000
      vertex -8.745397e-001 -1.049425e+001  0.000000e+000
    endloop
  endfacet
  facet normal  7.818313e-001 -6.234902e-001  0.000000e+000
    outer loop
      vertex -8.745397e-001 -1.049425e+001  0.000000e+000
      vertex -8.745397e-001 -1.049425e+001  3.000000e+000
      vertex -1.290758e+000 -1.101617e+001  3.000000e+000
    endloop
  endfacet
  facet normal  7.818313e-001 -6.234902e-001  0.000000e+000
    outer loop
      vertex -8.745397e-001 -1.049425e+001  0.000000e+000
      vertex -1.290758e+000 -1.101617e+001  3.000000e+000
      vertex -1.290758e+000 -1.101617e+001  0.000000e+000
    endloop
  endfacet
  facet normal  9.749278e-001 -2.225209e-001  0.000000e+000
    outer loop
      vertex -1.290758e+000 -1.101617e+001  0.000000e+000
      vertex -1.290758e+000 -1.101617e+001  3.000000e+000
      vertex -1.439305e+000 -1.166700e+001  3.000000e+000
    endloop
  endfacet
  facet normal  9.749278e-001 -2.225209e-001  0.000000e+000
    outer loop
      vertex -1.290758e+000 -1.101617e+001  0.000000e+000
      vertex -1.439305e+000 -1.166700e+001  3.000000e+000
      vertex -1.439305e+000 -1.166700e+001  0.000000e+000
    endloop
  endfacet
  facet normal  4.338844e-001 -9.009686e-001  0.000000e+000
    outer loop
      vertex -8.745397e-001 -1.049425e+001  3.000000e+000
      vertex -2.730863e-001 -1.020461e+001  0.000000e+000
      vertex -2.730863e-001 -1.020461e+001  3.000000e+000
    endloop
  endfacet
  facet normal  0.000000e+000 -1.000000e+000  0.000000e+000
    outer loop
      vertex -2.730863e-001 -1.020461e+001  3.000000e+000
      vertex -2.730863e-001 -1.020461e+001  0.000000e+000
      vertex  3.944765e-001 -1.020461e+001  0.000000e+000
    endloop
  endfacet
  facet normal  0.000000e+000 -1.000000e+000  0.000000e+000
    outer loop
      vertex -2.730863e-001 -1.020461e+001  3.000000e+000
      vertex  3.944765e-001 -1.020461e+001  0.000000e+000
      vertex  3.944765e-001 -1.020461e+001  3.000000e+000
    endloop
  endfacet
  facet normal -4.338844e-001 -9.009686e-001  -0.000000e+000
    outer loop
      vertex  3.944765e-001 -1.020461e+001  3.000000e+000
      vertex  3.944765e-001 -1.020461e+001  0.000000e+000
      vertex  9.959298e-001 -1.049425e+001  0.000000e+000
    endloop
  endfacet
  facet normal -4.338844e-001 -9.009686e-001  0.000000e+000
    outer loop
      vertex  3.944765e-001 -1.020461e+001  3.000000e+000
      vertex  9.959298e-001 -1.049425e+001  0.000000e+000
      vertex  9.959298e-001 -1.049425e+001  3.000000e+000
    endloop
  endfacet
  facet normal -7.818313e-001 -6.234902e-001  -0.000000e+000
    outer loop
      vertex  9.959298e-001 -1.049425e+001  3.000000e+000
      vertex  9.959298e-001 -1.049425e+001  0.000000e+000
      vertex  1.412148e+000 -1.101617e+001  0.000000e+000
    endloop
  endfacet
  facet normal -7.818313e-001 -6.234902e-001  0.000000e+000
    outer loop
      vertex  9.959298e-001 -1.049425e+001  3.000000e+000
      vertex  1.412148e+000 -1.101617e+001  0.000000e+000
      vertex  1.412148e+000 -1.101617e+001  3.000000e+000
    endloop
  endfacet
  facet normal -9.749278e-001 -2.225209e-001  -0.000000e+000
    outer loop
      vertex  1.412148e+000 -1.101617e+001  3.000000e+000
      vertex  1.412148e+000 -1.101617e+001  0.000000e+000
      vertex  1.560695e+000 -1.166700e+001  0.000000e+000
    endloop
  endfacet
  facet normal -9.749278e-001 -2.225209e-001  0.000000e+000
    outer loop
      vertex  1.412148e+000 -1.101617e+001  3.000000e+000
      vertex  1.560695e+000 -1.166700e+001  0.000000e+000
      vertex  1.560695e+000 -1.166700e+001  3.000000e+000
    endloop
  endfacet
  facet normal -4.338832e-001  9.009691e-001  0.000000e+000
    outer loop
      vertex  3.944765e-001 -1.312939e+001  0.000000e+000
      vertex  9.959298e-001 -1.283975e+001  3.000000e+000
      vertex  9.959298e-001 -1.283975e+001  0.000000e+000
    endloop
  endfacet
  facet normal -7.818317e-001  6.234894e-001  0.000000e+000
    outer loop
      vertex  9.959298e-001 -1.283975e+001  0.000000e+000
      vertex  9.959298e-001 -1.283975e+001  3.000000e+000
      vertex  1.412148e+000 -1.231783e+001  3.000000e+000
    endloop
  endfacet
  facet normal -7.818317e-001  6.234894e-001  0.000000e+000
    outer loop
      vertex  9.959298e-001 -1.283975e+001  0.000000e+000
      vertex  1.412148e+000 -1.231783e+001  3.000000e+000
      vertex  1.412148e+000 -1.231783e+001  0.000000e+000
    endloop
  endfacet
  facet normal -9.749278e-001  2.225209e-001  0.000000e+000
    outer loop
      vertex  1.412148e+000 -1.231783e+001  0.000000e+000
      vertex  1.412148e+000 -1.231783e+001  3.000000e+000
      vertex  1.560695e+000 -1.166700e+001  3.000000e+000
    endloop
  endfacet
  facet normal -9.749278e-001  2.225209e-001  0.000000e+000
    outer loop
      vertex  1.412148e+000 -1.231783e+001  0.000000e+000
      vertex  1.560695e+000 -1.166700e+001  3.000000e+000
      vertex  1.560695e+000 -1.166700e+001  0.000000e+000
    endloop
  endfacet
  facet normal -4.338832e-001  9.009691e-001  0.000000e+000
    outer loop
      vertex  9.959298e-001 -1.283975e+001  3.000000e+000
      vertex  3.944765e-001 -1.312939e+001  0.000000e+000
      vertex  3.944765e-001 -1.312939e+001  3.000000e+000
    endloop
  endfacet
  facet normal  0.000000e+000  1.000000e+000  0.000000e+000
    outer loop
      vertex  3.944765e-001 -1.312939e+001  3.000000e+000
      vertex  3.944765e-001 -1.312939e+001  0.000000e+000
      vertex -2.730863e-001 -1.312939e+001  0.000000e+000
    endloop
  endfacet
  facet normal  0.000000e+000  1.000000e+000  0.000000e+000
    outer loop
      vertex  3.944765e-001 -1.312939e+001  3.000000e+000
      vertex -2.730863e-001 -1.312939e+001  0.000000e+000
      vertex -2.730863e-001 -1.312939e+001  3.000000e+000
    endloop
  endfacet
  facet normal  4.338832e-001  9.009691e-001  0.000000e+000
    outer loop
      vertex -2.730863e-001 -1.312939e+001  3.000000e+000
      vertex -2.730863e-001 -1.312939e+001  0.000000e+000
      vertex -8.745397e-001 -1.283975e+001  0.000000e+000
    endloop
  endfacet
  facet normal  4.338832e-001  9.009691e-001  -0.000000e+000
    outer loop
      vertex -2.730863e-001 -1.312939e+001  3.000000e+000
      vertex -8.745397e-001 -1.283975e+001  0.000000e+000
      vertex -8.745397e-001 -1.283975e+001  3.000000e+000
    endloop
  endfacet
  facet normal  7.818317e-001  6.234894e-001  0.000000e+000
    outer loop
      vertex -8.745397e-001 -1.283975e+001  3.000000e+000
      vertex -8.745397e-001 -1.283975e+001  0.000000e+000
      vertex -1.290758e+000 -1.231783e+001  0.000000e+000
    endloop
  endfacet
  facet normal  7.818317e-001  6.234894e-001  -0.000000e+000
    outer loop
      vertex -8.745397e-001 -1.283975e+001  3.000000e+000
      vertex -1.290758e+000 -1.231783e+001  0.000000e+000
      vertex -1.290758e+000 -1.231783e+001  3.000000e+000
    endloop
  endfacet
  facet normal  9.749278e-001  2.225209e-001  0.000000e+000
    outer loop
      vertex -1.290758e+000 -1.231783e+001  3.000000e+000
      vertex -1.290758e+000 -1.231783e+001  0.000000e+000
      vertex -1.439305e+000 -1.166700e+001  0.000000e+000
    endloop
  endfacet
  facet normal  9.749278e-001  2.225209e-001  -0.000000e+000
    outer loop
      vertex -1.290758e+000 -1.231783e+001  3.000000e+000
      vertex -1.439305e+000 -1.166700e+001  0.000000e+000
      vertex -1.439305e+000 -1.166700e+001  3.000000e+000
    endloop
  endfacet
  facet normal  4.338832e-001 -9.009691e-001  0.000000e+000
    outer loop
      vertex -2.730863e-001  1.312939e+001  0.000000e+000
      vertex -8.745397e-001  1.283975e+001  3.000000e+000
      vertex -8.745397e-001  1.283975e+001  0.000000e+000
    endloop
  endfacet
  facet normal  7.818317e-001 -6.234894e-001  0.000000e+000
    outer loop
      vertex -8.745397e-001  1.283975e+001  0.000000e+000
      vertex -8.745397e-001  1.283975e+001  3.000000e+000
      vertex -1.290758e+000  1.231783e+001  3.000000e+000
    endloop
  endfacet
  facet normal  7.818317e-001 -6.234894e-001  0.000000e+000
    outer loop
      vertex -8.745397e-001  1.283975e+001  0.000000e+000
      vertex -1.290758e+000  1.231783e+001  3.000000e+000
      vertex -1.290758e+000  1.231783e+001  0.000000e+000
    endloop
  endfacet
  facet normal  9.749278e-001 -2.225209e-001  0.000000e+000
    outer loop
      vertex -1.290758e+000  1.231783e+001  0.000000e+000
      vertex -1.290758e+000  1.231783e+001  3.000000e+000
      vertex -1.439305e+000  1.166700e+001  3.000000e+000
    endloop
  endfacet
  facet normal  9.749278e-001 -2.225209e-001  0.000000e+000
    outer loop
      vertex -1.290758e+000  1.231783e+001  0.000000e+000
      vertex -1.439305e+000  1.166700e+001  3.000000e+000
      vertex -1.439305e+000  1.166700e+001  0.000000e+000
    endloop
  endfacet
  facet normal  4.338832e-001 -9.009691e-001  0.000000e+000
    outer loop
      vertex -8.745397e-001  1.283975e+001  3.000000e+000
      vertex -2.730863e-001  1.312939e+001  0.000000e+000
      vertex -2.730863e-001  1.312939e+001  3.000000e+000
    endloop
  endfacet
  facet normal  0.000000e+000 -1.000000e+000  0.000000e+000
    outer loop
      vertex -2.730863e-001  1.312939e+001  3.000000e+000
      vertex -2.730863e-001  1.312939e+001  0.000000e+000
      vertex  3.944765e-001  1.312939e+001  0.000000e+000
    endloop
  endfacet
  facet normal  0.000000e+000 -1.000000e+000  0.000000e+000
    outer loop
      vertex -2.730863e-001  1.312939e+001  3.000000e+000
      vertex  3.944765e-001  1.312939e+001  0.000000e+000
      vertex  3.944765e-001  1.312939e+001  3.000000e+000
    endloop
  endfacet
  facet normal -4.338832e-001 -9.009691e-001  -0.000000e+000
    outer loop
      vertex  3.944765e-001  1.312939e+001  3.000000e+000
      vertex  3.944765e-001  1.312939e+001  0.000000e+000
      vertex  9.959298e-001  1.283975e+001  0.000000e+000
    endloop
  endfacet
  facet normal -4.338832e-001 -9.009691e-001  0.000000e+000
    outer loop
      vertex  3.944765e-001  1.312939e+001  3.000000e+000
      vertex  9.959298e-001  1.283975e+001  0.000000e+000
      vertex  9.959298e-001  1.283975e+001  3.000000e+000
    endloop
  endfacet
  facet normal -7.818317e-001 -6.234894e-001  -0.000000e+000
    outer loop
      vertex  9.959298e-001  1.283975e+001  3.000000e+000
      vertex  9.959298e-001  1.283975e+001  0.000000e+000
      vertex  1.412148e+000  1.231783e+001  0.000000e+000
    endloop
  endfacet
  facet normal -7.818317e-001 -6.234894e-001  0.000000e+000
    outer loop
      vertex  9.959298e-001  1.283975e+001  3.000000e+000
      vertex  1.412148e+000  1.231783e+001  0.000000e+000
      vertex  1.412148e+000  1.231783e+001  3.000000e+000
    endloop
  endfacet
  facet normal -9.749278e-001 -2.225209e-001  -0.000000e+000
    outer loop
      vertex  1.412148e+000  1.231783e+001  3.000000e+000
      vertex  1.412148e+000  1.231783e+001  0.000000e+000
      vertex  1.560695e+000  1.166700e+001  0.000000e+000
    endloop
  endfacet
  facet normal -9.749278e-001 -2.225209e-001  0.000000e+000
    outer loop
      vertex  1.412148e+000  1.231783e+001  3.000000e+000
      vertex  1.560695e+000  1.166700e+001  0.000000e+000
      vertex  1.560695e+000  1.166700e+001  3.000000e+000
    endloop
  endfacet
  facet normal -4.338844e-001  9.009686e-001  0.000000e+000
    outer loop
      vertex  3.944765e-001  1.020461e+001  0.000000e+000
      vertex  9.959298e-001  1.049425e+001  3.000000e+000
      vertex  9.959298e-001  1.049425e+001  0.000000e+000
    endloop
  endfacet
  facet normal -7.818313e-001  6.234902e-001  0.000000e+000
    outer loop
      vertex  9.959298e-001  1.049425e+001  0.000000e+000
      vertex  9.959298e-001  1.049425e+001  3.000000e+000
      vertex  1.412148e+000  1.101617e+001  3.000000e+000
    endloop
  endfacet
  facet normal -7.818313e-001  6.234902e-001  0.000000e+000
    outer loop
      vertex  9.959298e-001  1.049425e+001  0.000000e+000
      vertex  1.412148e+000  1.101617e+001  3.000000e+000
      vertex  1.412148e+000  1.101617e+001  0.000000e+000
    endloop
  endfacet
  facet normal -9.749278e-001  2.225209e-001  0.000000e+000
    outer loop
      vertex  1.412148e+000  1.101617e+001  0.000000e+000
      vertex  1.412148e+000  1.101617e+001  3.000000e+000
      vertex  1.560695e+000  1.166700e+001  3.000000e+000
    endloop
  endfacet
  facet normal -9.749278e-001  2.225209e-001  0.000000e+000
    outer loop
      vertex  1.412148e+000  1.101617e+001  0.000000e+000
      vertex  1.560695e+000  1.166700e+001  3.000000e+000
      vertex  1.560695e+000  1.166700e+001  0.000000e+000
    endloop
  endfacet
  facet normal -4.338844e-001  9.009686e-001  0.000000e+000
    outer loop
      vertex  9.959298e-001  1.049425e+001  3.000000e+000
      vertex  3.944765e-001  1.020461e+001  0.000000e+000
      vertex  3.944765e-001  1.020461e+001  3.000000e+000
    endloop
  endfacet
  facet normal  0.000000e+000  1.000000e+000  0.000000e+000
    outer loop
      vertex  3.944765e-001  1.020461e+001  3.000000e+000
      vertex  3.944765e-001  1.020461e+001  0.000000e+000
      vertex -2.730863e-001  1.020461e+001  0.000000e+000
    endloop
  endfacet
  facet normal  0.000000e+000  1.000000e+000  0.000000e+000
    outer loop
      vertex  3.944765e-001  1.020461e+001  3.000000e+000
      vertex -2.730863e-001  1.020461e+001  0.000000e+000
      vertex -2.730863e-001  1.020461e+001  3.000000e+000
    endloop
  endfacet
  facet normal  4.338844e-001  9.009686e-001  0.000000e+000
    outer loop
      vertex -2.730863e-001  1.020461e+001  3.000000e+000
      vertex -2.730863e-001  1.020461e+001  0.000000e+000
      vertex -8.745397e-001  1.049425e+001  0.000000e+000
    endloop
  endfacet
  facet normal  4.338844e-001  9.009686e-001  -0.000000e+000
    outer loop
      vertex -2.730863e-001  1.020461e+001  3.000000e+000
      vertex -8.745397e-001  1.049425e+001  0.000000e+000
      vertex -8.745397e-001  1.049425e+001  3.000000e+000
    endloop
  endfacet
  facet normal  7.818313e-001  6.234902e-001  0.000000e+000
    outer loop
      vertex -8.745397e-001  1.049425e+001  3.000000e+000
      vertex -8.745397e-001  1.049425e+001  0.000000e+000
      vertex -1.290758e+000  1.101617e+001  0.000000e+000
    endloop
  endfacet
  facet normal  7.818313e-001  6.234902e-001  -0.000000e+000
    outer loop
      vertex -8.745397e-001  1.049425e+001  3.000000e+000
      vertex -1.290758e+000  1.101617e+001  0.000000e+000
      vertex -1.290758e+000  1.101617e+001  3.000000e+000
    endloop
  endfacet
  facet normal  9.749278e-001  2.225209e-001  0.000000e+000
    outer loop
      vertex -1.290758e+000  1.101617e+001  3.000000e+000
      vertex -1.290758e+000  1.101617e+001  0.000000e+000
      vertex -1.439305e+000  1.166700e+001  0.000000e+000
    endloop
  endfacet
  facet normal  9.749278e-001  2.225209e-001  -0.000000e+000
    outer loop
      vertex -1.290758e+000  1.101617e+001  3.000000e+000
      vertex -1.439305e+000  1.166700e+001  0.000000e+000
      vertex -1.439305e+000  1.166700e+001  3.000000e+000
    endloop
  endfacet
  facet normal  1.000000e+000  0.000000e+000  0.000000e+000
    outer loop
      vertex  4.070280e+000 -1.253846e+001  3.000000e+000
      vertex  4.070280e+000 -1.253846e+001  0.000000e+000
      vertex  4.070280e+000  1.253846e+001  3.000000e+000
    endloop
  endfacet
  facet normal  1.000000e+000  0.000000e+000  0.000000e+000
    outer loop
      vertex  4.070280e+000  1.253846e+001  3.000000e+000
      vertex  4.070280e+000 -1.253846e+001  0.000000e+000
      vertex  4.070280e+000  1.253846e+001  0.000000e+000
    endloop
  endfacet
  facet normal  9.398364e-001 -3.416246e-001  0.000000e+000
    outer loop
      vertex  4.070280e+000 -1.253846e+001  0.000000e+000
      vertex  4.070280e+000 -1.253846e+001  3.000000e+000
      vertex  3.693986e+000 -1.357367e+001  0.000000e+000
    endloop
  endfacet
  facet normal  9.398364e-001 -3.416246e-001  0.000000e+000
    outer loop
      vertex  3.693986e+000 -1.357367e+001  0.000000e+000
      vertex  4.070280e+000 -1.253846e+001  3.000000e+000
      vertex  3.693986e+000 -1.357367e+001  3.000000e+000
    endloop
  endfacet
  facet normal  8.150955e-001 -5.793267e-001  0.000000e+000
    outer loop
      vertex  3.693986e+000 -1.357367e+001  0.000000e+000
      vertex  3.693986e+000 -1.357367e+001  3.000000e+000
      vertex  3.055869e+000 -1.447149e+001  0.000000e+000
    endloop
  endfacet
  facet normal  8.150955e-001 -5.793267e-001  0.000000e+000
    outer loop
      vertex  3.055869e+000 -1.447149e+001  0.000000e+000
      vertex  3.693986e+000 -1.357367e+001  3.000000e+000
      vertex  3.055869e+000 -1.447149e+001  3.000000e+000
    endloop
  endfacet
  facet normal  6.316169e-001 -7.752807e-001  0.000000e+000
    outer loop
      vertex  3.055869e+000 -1.447149e+001  0.000000e+000
      vertex  3.055869e+000 -1.447149e+001  3.000000e+000
      vertex  2.201910e+000 -1.516720e+001  0.000000e+000
    endloop
  endfacet
  facet normal  6.316169e-001 -7.752807e-001  0.000000e+000
    outer loop
      vertex  2.201910e+000 -1.516720e+001  0.000000e+000
      vertex  3.055869e+000 -1.447149e+001  3.000000e+000
      vertex  2.201910e+000 -1.516720e+001  3.000000e+000
    endloop
  endfacet
  facet normal  4.026210e-001 -9.153668e-001  0.000000e+000
    outer loop
      vertex  2.201910e+000 -1.516720e+001  0.000000e+000
      vertex  2.201910e+000 -1.516720e+001  3.000000e+000
      vertex  1.193651e+000 -1.561068e+001  0.000000e+000
    endloop
  endfacet
  facet normal  4.026210e-001 -9.153668e-001  0.000000e+000
    outer loop
      vertex  1.193651e+000 -1.561068e+001  0.000000e+000
      vertex  2.201910e+000 -1.516720e+001  3.000000e+000
      vertex  1.193651e+000 -1.561068e+001  3.000000e+000
    endloop
  endfacet
  facet normal  1.446128e-001 -9.894884e-001  0.000000e+000
    outer loop
      vertex  1.193651e+000 -1.561068e+001  0.000000e+000
      vertex  1.193651e+000 -1.561068e+001  3.000000e+000
      vertex  1.037474e-001 -1.576997e+001  0.000000e+000
    endloop
  endfacet
  facet normal  1.446128e-001 -9.894884e-001  0.000000e+000
    outer loop
      vertex  1.037474e-001 -1.576997e+001  0.000000e+000
      vertex  1.193651e+000 -1.561068e+001  3.000000e+000
      vertex  1.037474e-001 -1.576997e+001  3.000000e+000
    endloop
  endfacet
  facet normal -1.238178e-001 -9.923050e-001  -0.000000e+000
    outer loop
      vertex  1.037474e-001 -1.576997e+001  0.000000e+000
      vertex  1.037474e-001 -1.576997e+001  3.000000e+000
      vertex -9.892585e-001 -1.563359e+001  0.000000e+000
    endloop
  endfacet
  facet normal -1.238178e-001 -9.923050e-001  0.000000e+000
    outer loop
      vertex -9.892585e-001 -1.563359e+001  0.000000e+000
      vertex  1.037474e-001 -1.576997e+001  3.000000e+000
      vertex -9.892585e-001 -1.563359e+001  3.000000e+000
    endloop
  endfacet
  facet normal -3.833253e-001 -9.236134e-001  -0.000000e+000
    outer loop
      vertex -9.892585e-001 -1.563359e+001  0.000000e+000
      vertex -9.892585e-001 -1.563359e+001  3.000000e+000
      vertex -2.006602e+000 -1.521136e+001  0.000000e+000
    endloop
  endfacet
  facet normal -3.833253e-001 -9.236134e-001  0.000000e+000
    outer loop
      vertex -2.006602e+000 -1.521136e+001  0.000000e+000
      vertex -9.892585e-001 -1.563359e+001  3.000000e+000
      vertex -2.006602e+000 -1.521136e+001  3.000000e+000
    endloop
  endfacet
  facet normal -6.152086e-001 -7.883643e-001  -0.000000e+000
    outer loop
      vertex -2.006602e+000 -1.521136e+001  0.000000e+000
      vertex -2.006602e+000 -1.521136e+001  3.000000e+000
      vertex -2.874971e+000 -1.453372e+001  0.000000e+000
    endloop
  endfacet
  facet normal -6.152086e-001 -7.883643e-001  0.000000e+000
    outer loop
      vertex -2.874971e+000 -1.453372e+001  0.000000e+000
      vertex -2.006602e+000 -1.521136e+001  3.000000e+000
      vertex -2.874971e+000 -1.453372e+001  3.000000e+000
    endloop
  endfacet
  facet normal -8.027598e-001 -5.963025e-001  -0.000000e+000
    outer loop
      vertex -2.874971e+000 -1.453372e+001  0.000000e+000
      vertex -2.874971e+000 -1.453372e+001  3.000000e+000
      vertex -3.531787e+000 -1.364949e+001  0.000000e+000
    endloop
  endfacet
  facet normal -8.027598e-001 -5.963025e-001  0.000000e+000
    outer loop
      vertex -3.531787e+000 -1.364949e+001  0.000000e+000
      vertex -2.874971e+000 -1.453372e+001  3.000000e+000
      vertex -3.531787e+000 -1.364949e+001  3.000000e+000
    endloop
  endfacet
  facet normal -9.324608e-001 -3.612708e-001  -0.000000e+000
    outer loop
      vertex -3.531787e+000 -1.364949e+001  0.000000e+000
      vertex -3.531787e+000 -1.364949e+001  3.000000e+000
      vertex -3.929720e+000 -1.262241e+001  0.000000e+000
    endloop
  endfacet
  facet normal -9.324608e-001 -3.612708e-001  0.000000e+000
    outer loop
      vertex -3.929720e+000 -1.262241e+001  0.000000e+000
      vertex -3.531787e+000 -1.364949e+001  3.000000e+000
      vertex -3.929720e+000 -1.262241e+001  3.000000e+000
    endloop
  endfacet
  facet normal -1.000000e+000  0.000000e+000  0.000000e+000
    outer loop
      vertex -3.929720e+000  1.262241e+001  3.000000e+000
      vertex -3.929720e+000  1.262241e+001  0.000000e+000
      vertex -3.929720e+000 -1.262241e+001  3.000000e+000
    endloop
  endfacet
  facet normal -1.000000e+000  0.000000e+000  0.000000e+000
    outer loop
      vertex -3.929720e+000 -1.262241e+001  3.000000e+000
      vertex -3.929720e+000  1.262241e+001  0.000000e+000
      vertex -3.929720e+000 -1.262241e+001  0.000000e+000
    endloop
  endfacet
  facet normal -9.324608e-001  3.612708e-001  0.000000e+000
    outer loop
      vertex -3.929720e+000  1.262241e+001  0.000000e+000
      vertex -3.929720e+000  1.262241e+001  3.000000e+000
      vertex -3.531787e+000  1.364949e+001  0.000000e+000
    endloop
  endfacet
  facet normal -9.324608e-001  3.612708e-001  0.000000e+000
    outer loop
      vertex -3.531787e+000  1.364949e+001  0.000000e+000
      vertex -3.929720e+000  1.262241e+001  3.000000e+000
      vertex -3.531787e+000  1.364949e+001  3.000000e+000
    endloop
  endfacet
  facet normal -8.027598e-001  5.963025e-001  0.000000e+000
    outer loop
      vertex -3.531787e+000  1.364949e+001  0.000000e+000
      vertex -3.531787e+000  1.364949e+001  3.000000e+000
      vertex -2.874971e+000  1.453372e+001  0.000000e+000
    endloop
  endfacet
  facet normal -8.027598e-001  5.963025e-001  0.000000e+000
    outer loop
      vertex -2.874971e+000  1.453372e+001  0.000000e+000
      vertex -3.531787e+000  1.364949e+001  3.000000e+000
      vertex -2.874971e+000  1.453372e+001  3.000000e+000
    endloop
  endfacet
  facet normal -6.152086e-001  7.883643e-001  0.000000e+000
    outer loop
      vertex -2.874971e+000  1.453372e+001  0.000000e+000
      vertex -2.874971e+000  1.453372e+001  3.000000e+000
      vertex -2.006602e+000  1.521136e+001  0.000000e+000
    endloop
  endfacet
  facet normal -6.152086e-001  7.883643e-001  0.000000e+000
    outer loop
      vertex -2.006602e+000  1.521136e+001  0.000000e+000
      vertex -2.874971e+000  1.453372e+001  3.000000e+000
      vertex -2.006602e+000  1.521136e+001  3.000000e+000
    endloop
  endfacet
  facet normal -3.833253e-001  9.236134e-001  0.000000e+000
    outer loop
      vertex -2.006602e+000  1.521136e+001  0.000000e+000
      vertex -2.006602e+000  1.521136e+001  3.000000e+000
      vertex -9.892585e-001  1.563359e+001  0.000000e+000
    endloop
  endfacet
  facet normal -3.833253e-001  9.236134e-001  0.000000e+000
    outer loop
      vertex -9.892585e-001  1.563359e+001  0.000000e+000
      vertex -2.006602e+000  1.521136e+001  3.000000e+000
      vertex -9.892585e-001  1.563359e+001  3.000000e+000
    endloop
  endfacet
  facet normal -1.238178e-001  9.923050e-001  0.000000e+000
    outer loop
      vertex -9.892585e-001  1.563359e+001  0.000000e+000
      vertex -9.892585e-001  1.563359e+001  3.000000e+000
      vertex  1.037474e-001  1.576997e+001  0.000000e+000
    endloop
  endfacet
  facet normal -1.238178e-001  9.923050e-001  0.000000e+000
    outer loop
      vertex  1.037474e-001  1.576997e+001  0.000000e+000
      vertex -9.892585e-001  1.563359e+001  3.000000e+000
      vertex  1.037474e-001  1.576997e+001  3.000000e+000
    endloop
  endfacet
  facet normal  1.446128e-001  9.894884e-001  0.000000e+000
    outer loop
      vertex  1.037474e-001  1.576997e+001  0.000000e+000
      vertex  1.037474e-001  1.576997e+001  3.000000e+000
      vertex  1.193651e+000  1.561068e+001  0.000000e+000
    endloop
  endfacet
  facet normal  1.446128e-001  9.894884e-001  -0.000000e+000
    outer loop
      vertex  1.193651e+000  1.561068e+001  0.000000e+000
      vertex  1.037474e-001  1.576997e+001  3.000000e+000
      vertex  1.193651e+000  1.561068e+001  3.000000e+000
    endloop
  endfacet
  facet normal  4.026210e-001  9.153668e-001  0.000000e+000
    outer loop
      vertex  1.193651e+000  1.561068e+001  0.000000e+000
      vertex  1.193651e+000  1.561068e+001  3.000000e+000
      vertex  2.201910e+000  1.516720e+001  0.000000e+000
    endloop
  endfacet
  facet normal  4.026210e-001  9.153668e-001  -0.000000e+000
    outer loop
      vertex  2.201910e+000  1.516720e+001  0.000000e+000
      vertex  1.193651e+000  1.561068e+001  3.000000e+000
      vertex  2.201910e+000  1.516720e+001  3.000000e+000
    endloop
  endfacet
  facet normal  6.316169e-001  7.752807e-001  0.000000e+000
    outer loop
      vertex  2.201910e+000  1.516720e+001  0.000000e+000
      vertex  2.201910e+000  1.516720e+001  3.000000e+000
      vertex  3.055869e+000  1.447149e+001  0.000000e+000
    endloop
  endfacet
  facet normal  6.316169e-001  7.752807e-001  -0.000000e+000
    outer loop
      vertex  3.055869e+000  1.447149e+001  0.000000e+000
      vertex  2.201910e+000  1.516720e+001  3.000000e+000
      vertex  3.055869e+000  1.447149e+001  3.000000e+000
    endloop
  endfacet
  facet normal  8.150955e-001  5.793267e-001  0.000000e+000
    outer loop
      vertex  3.055869e+000  1.447149e+001  0.000000e+000
      vertex  3.055869e+000  1.447149e+001  3.000000e+000
      vertex  3.693986e+000  1.357367e+001  0.000000e+000
    endloop
  endfacet
  facet normal  8.150955e-001  5.793267e-001  -0.000000e+000
    outer loop
      vertex  3.693986e+000  1.357367e+001  0.000000e+000
      vertex  3.055869e+000  1.447149e+001  3.000000e+000
      vertex  3.693986e+000  1.357367e+001  3.000000e+000
    endloop
  endfacet
  facet normal  9.398364e-001  3.416246e-001  0.000000e+000
    outer loop
      vertex  3.693986e+000  1.357367e+001  0.000000e+000
      vertex  3.693986e+000  1.357367e+001  3.000000e+000
      vertex  4.070280e+000  1.253846e+001  0.000000e+000
    endloop
  endfacet
  facet normal  9.398364e-001  3.416246e-001  -0.000000e+000
    outer loop
      vertex  4.070280e+000  1.253846e+001  0.000000e+000
      vertex  3.693986e+000  1.357367e+001  3.000000e+000
      vertex  4.070280e+000  1.253846e+001  3.000000e+000
    endloop
  endfacet
endsolid CATIA STL
