solid CATIA STL
  facet normal  0.000000e+000  0.000000e+000  1.000000e+000
    outer loop
      vertex -2.778786e-001 -5.934412e+000  3.000000e+000
      vertex -2.778786e-001  5.934412e+000  3.000000e+000
      vertex -8.793319e-001 -6.224057e+000  3.000000e+000
    endloop
  endfacet
  facet normal  0.000000e+000  0.000000e+000  1.000000e+000
    outer loop
      vertex  4.065487e+000  8.268266e+000  3.000000e+000
      vertex  3.689194e+000  9.303479e+000  3.000000e+000
      vertex  3.896842e-001  8.859197e+000  3.000000e+000
    endloop
  endfacet
  facet normal  0.000000e+000  0.000000e+000  1.000000e+000
    outer loop
      vertex  4.065487e+000  8.268266e+000  3.000000e+000
      vertex  3.896842e-001  8.859197e+000  3.000000e+000
      vertex  9.911374e-001  8.569551e+000  3.000000e+000
    endloop
  endfacet
  facet normal  0.000000e+000  0.000000e+000  1.000000e+000
    outer loop
      vertex  4.065487e+000  8.268266e+000  3.000000e+000
      vertex  9.911374e-001  8.569551e+000  3.000000e+000
      vertex  1.407356e+000  8.047630e+000  3.000000e+000
    endloop
  endfacet
  facet normal  -0.000000e+000  0.000000e+000  9.999999e-001
    outer loop
      vertex  4.065487e+000  8.268266e+000  3.000000e+000
      vertex  1.407356e+000  8.047630e+000  3.000000e+000
      vertex  1.555903e+000  7.396804e+000  3.000000e+000
    endloop
  endfacet
  facet normal  -0.000000e+000  0.000000e+000  1.000000e+000
    outer loop
      vertex  4.065487e+000  8.268266e+000  3.000000e+000
      vertex  1.555903e+000  7.396804e+000  3.000000e+000
      vertex  4.065487e+000 -8.268266e+000  3.000000e+000
    endloop
  endfacet
  facet normal  0.000000e+000  -0.000000e+000  1.000000e+000
    outer loop
      vertex  3.896842e-001 -8.859197e+000  3.000000e+000
      vertex  1.188859e+000 -1.134049e+001  3.000000e+000
      vertex  2.197118e+000 -1.089701e+001  3.000000e+000
    endloop
  endfacet
  facet normal  0.000000e+000  -0.000000e+000  9.999999e-001
    outer loop
      vertex  3.896842e-001 -8.859197e+000  3.000000e+000
      vertex  2.197118e+000 -1.089701e+001  3.000000e+000
      vertex  3.051076e+000 -1.020129e+001  3.000000e+000
    endloop
  endfacet
  facet normal  0.000000e+000  -0.000000e+000  1.000000e+000
    outer loop
      vertex  3.896842e-001 -8.859197e+000  3.000000e+000
      vertex  3.051076e+000 -1.020129e+001  3.000000e+000
      vertex  3.689194e+000 -9.303479e+000  3.000000e+000
    endloop
  endfacet
  facet normal  0.000000e+000  0.000000e+000  1.000000e+000
    outer loop
      vertex  3.896842e-001 -8.859197e+000  3.000000e+000
      vertex  3.689194e+000 -9.303479e+000  3.000000e+000
      vertex  9.911374e-001 -8.569551e+000  3.000000e+000
    endloop
  endfacet
  facet normal  0.000000e+000  -0.000000e+000  1.000000e+000
    outer loop
      vertex -3.934513e+000 -8.352210e+000  3.000000e+000
      vertex -3.536580e+000 -9.379299e+000  3.000000e+000
      vertex -2.778786e-001 -8.859197e+000  3.000000e+000
    endloop
  endfacet
  facet normal  0.000000e+000  0.000000e+000  1.000000e+000
    outer loop
      vertex -3.934513e+000 -8.352210e+000  3.000000e+000
      vertex -2.778786e-001 -8.859197e+000  3.000000e+000
      vertex -8.793319e-001 -8.569551e+000  3.000000e+000
    endloop
  endfacet
  facet normal  0.000000e+000  0.000000e+000  1.000000e+000
    outer loop
      vertex -3.934513e+000 -8.352210e+000  3.000000e+000
      vertex -8.793319e-001 -8.569551e+000  3.000000e+000
      vertex -1.295551e+000 -8.047630e+000  3.000000e+000
    endloop
  endfacet
  facet normal  0.000000e+000  0.000000e+000  1.000000e+000
    outer loop
      vertex -3.934513e+000 -8.352210e+000  3.000000e+000
      vertex -1.295551e+000 -8.047630e+000  3.000000e+000
      vertex -1.444097e+000 -7.396804e+000  3.000000e+000
    endloop
  endfacet
  facet normal  0.000000e+000  -0.000000e+000  1.000000e+000
    outer loop
      vertex -3.934513e+000 -8.352210e+000  3.000000e+000
      vertex -1.444097e+000 -7.396804e+000  3.000000e+000
      vertex -1.295551e+000 -6.745979e+000  3.000000e+000
    endloop
  endfacet
  facet normal  0.000000e+000  -0.000000e+000  1.000000e+000
    outer loop
      vertex -3.934513e+000 -8.352210e+000  3.000000e+000
      vertex -1.295551e+000 -6.745979e+000  3.000000e+000
      vertex -8.793319e-001 -6.224057e+000  3.000000e+000
    endloop
  endfacet
  facet normal  0.000000e+000  -0.000000e+000  1.000000e+000
    outer loop
      vertex -3.934513e+000 -8.352210e+000  3.000000e+000
      vertex -8.793319e-001 -6.224057e+000  3.000000e+000
      vertex -2.778786e-001  5.934412e+000  3.000000e+000
    endloop
  endfacet
  facet normal  0.000000e+000  0.000000e+000  1.000000e+000
    outer loop
      vertex -3.934513e+000 -8.352210e+000  3.000000e+000
      vertex -2.778786e-001  5.934412e+000  3.000000e+000
      vertex -8.793319e-001  6.224057e+000  3.000000e+000
    endloop
  endfacet
  facet normal  0.000000e+000  0.000000e+000  1.000000e+000
    outer loop
      vertex -3.934513e+000 -8.352210e+000  3.000000e+000
      vertex -8.793319e-001  6.224057e+000  3.000000e+000
      vertex -1.295551e+000  6.745979e+000  3.000000e+000
    endloop
  endfacet
  facet normal  0.000000e+000  0.000000e+000  1.000000e+000
    outer loop
      vertex -3.934513e+000 -8.352210e+000  3.000000e+000
      vertex -1.295551e+000  6.745979e+000  3.000000e+000
      vertex -1.444097e+000  7.396804e+000  3.000000e+000
    endloop
  endfacet
  facet normal  0.000000e+000  0.000000e+000  1.000000e+000
    outer loop
      vertex -3.934513e+000  8.352210e+000  3.000000e+000
      vertex -3.934513e+000 -8.352210e+000  3.000000e+000
      vertex -1.444097e+000  7.396804e+000  3.000000e+000
    endloop
  endfacet
  facet normal  0.000000e+000  -0.000000e+000  9.999999e-001
    outer loop
      vertex -3.934513e+000  8.352210e+000  3.000000e+000
      vertex -1.444097e+000  7.396804e+000  3.000000e+000
      vertex -1.295551e+000  8.047630e+000  3.000000e+000
    endloop
  endfacet
  facet normal  0.000000e+000  -0.000000e+000  1.000000e+000
    outer loop
      vertex -3.934513e+000  8.352210e+000  3.000000e+000
      vertex -1.295551e+000  8.047630e+000  3.000000e+000
      vertex -8.793319e-001  8.569551e+000  3.000000e+000
    endloop
  endfacet
  facet normal  0.000000e+000  -0.000000e+000  1.000000e+000
    outer loop
      vertex -3.934513e+000  8.352210e+000  3.000000e+000
      vertex -8.793319e-001  8.569551e+000  3.000000e+000
      vertex -2.778786e-001  8.859197e+000  3.000000e+000
    endloop
  endfacet
  facet normal  0.000000e+000  0.000000e+000  1.000000e+000
    outer loop
      vertex -3.934513e+000  8.352210e+000  3.000000e+000
      vertex -2.778786e-001  8.859197e+000  3.000000e+000
      vertex -3.536580e+000  9.379299e+000  3.000000e+000
    endloop
  endfacet
  facet normal  0.000000e+000  0.000000e+000  1.000000e+000
    outer loop
      vertex  4.065487e+000 -8.268266e+000  3.000000e+000
      vertex  1.555903e+000  7.396804e+000  3.000000e+000
      vertex  1.407356e+000  6.745979e+000  3.000000e+000
    endloop
  endfacet
  facet normal  0.000000e+000  0.000000e+000  1.000000e+000
    outer loop
      vertex  4.065487e+000 -8.268266e+000  3.000000e+000
      vertex  1.407356e+000  6.745979e+000  3.000000e+000
      vertex  9.911374e-001  6.224057e+000  3.000000e+000
    endloop
  endfacet
  facet normal  0.000000e+000  0.000000e+000  1.000000e+000
    outer loop
      vertex  4.065487e+000 -8.268266e+000  3.000000e+000
      vertex  9.911374e-001  6.224057e+000  3.000000e+000
      vertex  3.896842e-001  5.934412e+000  3.000000e+000
    endloop
  endfacet
  facet normal  0.000000e+000  0.000000e+000  1.000000e+000
    outer loop
      vertex  4.065487e+000 -8.268266e+000  3.000000e+000
      vertex  3.896842e-001  5.934412e+000  3.000000e+000
      vertex  9.911374e-001 -6.224057e+000  3.000000e+000
    endloop
  endfacet
  facet normal  0.000000e+000  0.000000e+000  9.999999e-001
    outer loop
      vertex  4.065487e+000 -8.268266e+000  3.000000e+000
      vertex  9.911374e-001 -6.224057e+000  3.000000e+000
      vertex  1.407356e+000 -6.745979e+000  3.000000e+000
    endloop
  endfacet
  facet normal  0.000000e+000  0.000000e+000  1.000000e+000
    outer loop
      vertex  4.065487e+000 -8.268266e+000  3.000000e+000
      vertex  1.407356e+000 -6.745979e+000  3.000000e+000
      vertex  1.555903e+000 -7.396804e+000  3.000000e+000
    endloop
  endfacet
  facet normal  0.000000e+000  0.000000e+000  9.999999e-001
    outer loop
      vertex  4.065487e+000 -8.268266e+000  3.000000e+000
      vertex  1.555903e+000 -7.396804e+000  3.000000e+000
      vertex  1.407356e+000 -8.047630e+000  3.000000e+000
    endloop
  endfacet
  facet normal  0.000000e+000  0.000000e+000  1.000000e+000
    outer loop
      vertex  4.065487e+000 -8.268266e+000  3.000000e+000
      vertex  1.407356e+000 -8.047630e+000  3.000000e+000
      vertex  9.911374e-001 -8.569551e+000  3.000000e+000
    endloop
  endfacet
  facet normal  -0.000000e+000  0.000000e+000  1.000000e+000
    outer loop
      vertex  4.065487e+000 -8.268266e+000  3.000000e+000
      vertex  9.911374e-001 -8.569551e+000  3.000000e+000
      vertex  3.689194e+000 -9.303479e+000  3.000000e+000
    endloop
  endfacet
  facet normal  0.000000e+000  0.000000e+000  1.000000e+000
    outer loop
      vertex  1.188859e+000 -1.134049e+001  3.000000e+000
      vertex  3.896842e-001 -8.859197e+000  3.000000e+000
      vertex  9.895514e-002 -1.149977e+001  3.000000e+000
    endloop
  endfacet
  facet normal  0.000000e+000  -0.000000e+000  1.000000e+000
    outer loop
      vertex  9.895514e-002 -1.149977e+001  3.000000e+000
      vertex  3.896842e-001 -8.859197e+000  3.000000e+000
      vertex -2.778786e-001 -8.859197e+000  3.000000e+000
    endloop
  endfacet
  facet normal  0.000000e+000  0.000000e+000  1.000000e+000
    outer loop
      vertex  9.895514e-002 -1.149977e+001  3.000000e+000
      vertex -2.778786e-001 -8.859197e+000  3.000000e+000
      vertex -9.940508e-001 -1.136339e+001  3.000000e+000
    endloop
  endfacet
  facet normal  0.000000e+000  -0.000000e+000  9.999999e-001
    outer loop
      vertex -9.940508e-001 -1.136339e+001  3.000000e+000
      vertex -2.778786e-001 -8.859197e+000  3.000000e+000
      vertex -3.536580e+000 -9.379299e+000  3.000000e+000
    endloop
  endfacet
  facet normal  0.000000e+000  0.000000e+000  1.000000e+000
    outer loop
      vertex -9.940508e-001 -1.136339e+001  3.000000e+000
      vertex -3.536580e+000 -9.379299e+000  3.000000e+000
      vertex -2.011394e+000 -1.094117e+001  3.000000e+000
    endloop
  endfacet
  facet normal  0.000000e+000  0.000000e+000  1.000000e+000
    outer loop
      vertex -2.011394e+000 -1.094117e+001  3.000000e+000
      vertex -3.536580e+000 -9.379299e+000  3.000000e+000
      vertex -2.879763e+000 -1.026352e+001  3.000000e+000
    endloop
  endfacet
  facet normal  0.000000e+000  0.000000e+000  1.000000e+000
    outer loop
      vertex -2.778786e-001  5.934412e+000  3.000000e+000
      vertex -2.778786e-001 -5.934412e+000  3.000000e+000
      vertex  3.896842e-001  5.934412e+000  3.000000e+000
    endloop
  endfacet
  facet normal  0.000000e+000  0.000000e+000  1.000000e+000
    outer loop
      vertex  3.896842e-001  5.934412e+000  3.000000e+000
      vertex -2.778786e-001 -5.934412e+000  3.000000e+000
      vertex  3.896842e-001 -5.934412e+000  3.000000e+000
    endloop
  endfacet
  facet normal  -0.000000e+000  0.000000e+000  1.000000e+000
    outer loop
      vertex  3.896842e-001  5.934412e+000  3.000000e+000
      vertex  3.896842e-001 -5.934412e+000  3.000000e+000
      vertex  9.911374e-001 -6.224057e+000  3.000000e+000
    endloop
  endfacet
  facet normal  0.000000e+000  0.000000e+000  9.999999e-001
    outer loop
      vertex -2.011394e+000  1.094117e+001  3.000000e+000
      vertex -2.879763e+000  1.026352e+001  3.000000e+000
      vertex -9.940508e-001  1.136339e+001  3.000000e+000
    endloop
  endfacet
  facet normal  0.000000e+000  0.000000e+000  1.000000e+000
    outer loop
      vertex -9.940508e-001  1.136339e+001  3.000000e+000
      vertex -2.879763e+000  1.026352e+001  3.000000e+000
      vertex -3.536580e+000  9.379299e+000  3.000000e+000
    endloop
  endfacet
  facet normal  0.000000e+000  0.000000e+000  1.000000e+000
    outer loop
      vertex -9.940508e-001  1.136339e+001  3.000000e+000
      vertex -3.536580e+000  9.379299e+000  3.000000e+000
      vertex  9.895514e-002  1.149977e+001  3.000000e+000
    endloop
  endfacet
  facet normal  0.000000e+000  0.000000e+000  1.000000e+000
    outer loop
      vertex  9.895514e-002  1.149977e+001  3.000000e+000
      vertex -3.536580e+000  9.379299e+000  3.000000e+000
      vertex -2.778786e-001  8.859197e+000  3.000000e+000
    endloop
  endfacet
  facet normal  0.000000e+000  0.000000e+000  1.000000e+000
    outer loop
      vertex  9.895514e-002  1.149977e+001  3.000000e+000
      vertex -2.778786e-001  8.859197e+000  3.000000e+000
      vertex  1.188859e+000  1.134049e+001  3.000000e+000
    endloop
  endfacet
  facet normal  0.000000e+000  0.000000e+000  1.000000e+000
    outer loop
      vertex  1.188859e+000  1.134049e+001  3.000000e+000
      vertex -2.778786e-001  8.859197e+000  3.000000e+000
      vertex  3.896842e-001  8.859197e+000  3.000000e+000
    endloop
  endfacet
  facet normal  0.000000e+000  0.000000e+000  1.000000e+000
    outer loop
      vertex  1.188859e+000  1.134049e+001  3.000000e+000
      vertex  3.896842e-001  8.859197e+000  3.000000e+000
      vertex  2.197118e+000  1.089701e+001  3.000000e+000
    endloop
  endfacet
  facet normal  0.000000e+000  0.000000e+000  1.000000e+000
    outer loop
      vertex  3.051076e+000  1.020129e+001  3.000000e+000
      vertex  2.197118e+000  1.089701e+001  3.000000e+000
      vertex  3.689194e+000  9.303479e+000  3.000000e+000
    endloop
  endfacet
  facet normal  0.000000e+000  0.000000e+000  1.000000e+000
    outer loop
      vertex  3.689194e+000  9.303479e+000  3.000000e+000
      vertex  2.197118e+000  1.089701e+001  3.000000e+000
      vertex  3.896842e-001  8.859197e+000  3.000000e+000
    endloop
  endfacet
  facet normal  0.000000e+000  -0.000000e+000 -1.000000e+000
    outer loop
      vertex -8.793319e-001 -6.224057e+000  0.000000e+000
      vertex -2.778786e-001  5.934412e+000  0.000000e+000
      vertex -2.778786e-001 -5.934412e+000  0.000000e+000
    endloop
  endfacet
  facet normal  0.000000e+000  0.000000e+000 -1.000000e+000
    outer loop
      vertex  4.065487e+000  8.268266e+000  0.000000e+000
      vertex  4.065487e+000 -8.268266e+000  0.000000e+000
      vertex  1.555903e+000  7.396804e+000  0.000000e+000
    endloop
  endfacet
  facet normal  0.000000e+000  0.000000e+000 -9.999999e-001
    outer loop
      vertex  4.065487e+000  8.268266e+000  0.000000e+000
      vertex  1.555903e+000  7.396804e+000  0.000000e+000
      vertex  1.407356e+000  8.047630e+000  0.000000e+000
    endloop
  endfacet
  facet normal  0.000000e+000  0.000000e+000 -1.000000e+000
    outer loop
      vertex  4.065487e+000  8.268266e+000  0.000000e+000
      vertex  1.407356e+000  8.047630e+000  0.000000e+000
      vertex  9.911374e-001  8.569551e+000  0.000000e+000
    endloop
  endfacet
  facet normal  0.000000e+000  0.000000e+000 -1.000000e+000
    outer loop
      vertex  4.065487e+000  8.268266e+000  0.000000e+000
      vertex  9.911374e-001  8.569551e+000  0.000000e+000
      vertex  3.896842e-001  8.859197e+000  0.000000e+000
    endloop
  endfacet
  facet normal  0.000000e+000  0.000000e+000 -1.000000e+000
    outer loop
      vertex  4.065487e+000  8.268266e+000  0.000000e+000
      vertex  3.896842e-001  8.859197e+000  0.000000e+000
      vertex  3.689194e+000  9.303479e+000  0.000000e+000
    endloop
  endfacet
  facet normal  0.000000e+000  -0.000000e+000 -1.000000e+000
    outer loop
      vertex  3.896842e-001 -8.859197e+000  0.000000e+000
      vertex  9.911374e-001 -8.569551e+000  0.000000e+000
      vertex  3.689194e+000 -9.303479e+000  0.000000e+000
    endloop
  endfacet
  facet normal  -0.000000e+000  0.000000e+000 -1.000000e+000
    outer loop
      vertex  3.896842e-001 -8.859197e+000  0.000000e+000
      vertex  3.689194e+000 -9.303479e+000  0.000000e+000
      vertex  3.051076e+000 -1.020129e+001  0.000000e+000
    endloop
  endfacet
  facet normal  -0.000000e+000  0.000000e+000 -9.999999e-001
    outer loop
      vertex  3.896842e-001 -8.859197e+000  0.000000e+000
      vertex  3.051076e+000 -1.020129e+001  0.000000e+000
      vertex  2.197118e+000 -1.089701e+001  0.000000e+000
    endloop
  endfacet
  facet normal  -0.000000e+000  0.000000e+000 -1.000000e+000
    outer loop
      vertex  3.896842e-001 -8.859197e+000  0.000000e+000
      vertex  2.197118e+000 -1.089701e+001  0.000000e+000
      vertex  1.188859e+000 -1.134049e+001  0.000000e+000
    endloop
  endfacet
  facet normal  0.000000e+000  -0.000000e+000 -1.000000e+000
    outer loop
      vertex -3.934513e+000 -8.352210e+000  0.000000e+000
      vertex -1.444097e+000  7.396804e+000  0.000000e+000
      vertex -1.295551e+000  6.745979e+000  0.000000e+000
    endloop
  endfacet
  facet normal  0.000000e+000  -0.000000e+000 -1.000000e+000
    outer loop
      vertex -3.934513e+000 -8.352210e+000  0.000000e+000
      vertex -1.295551e+000  6.745979e+000  0.000000e+000
      vertex -8.793319e-001  6.224057e+000  0.000000e+000
    endloop
  endfacet
  facet normal  0.000000e+000  -0.000000e+000 -1.000000e+000
    outer loop
      vertex -3.934513e+000 -8.352210e+000  0.000000e+000
      vertex -8.793319e-001  6.224057e+000  0.000000e+000
      vertex -2.778786e-001  5.934412e+000  0.000000e+000
    endloop
  endfacet
  facet normal  0.000000e+000  0.000000e+000 -1.000000e+000
    outer loop
      vertex -3.934513e+000 -8.352210e+000  0.000000e+000
      vertex -2.778786e-001  5.934412e+000  0.000000e+000
      vertex -8.793319e-001 -6.224057e+000  0.000000e+000
    endloop
  endfacet
  facet normal  0.000000e+000  0.000000e+000 -1.000000e+000
    outer loop
      vertex -3.934513e+000 -8.352210e+000  0.000000e+000
      vertex -8.793319e-001 -6.224057e+000  0.000000e+000
      vertex -1.295551e+000 -6.745979e+000  0.000000e+000
    endloop
  endfacet
  facet normal  0.000000e+000  0.000000e+000 -1.000000e+000
    outer loop
      vertex -3.934513e+000 -8.352210e+000  0.000000e+000
      vertex -1.295551e+000 -6.745979e+000  0.000000e+000
      vertex -1.444097e+000 -7.396804e+000  0.000000e+000
    endloop
  endfacet
  facet normal  0.000000e+000  -0.000000e+000 -9.999999e-001
    outer loop
      vertex -3.934513e+000 -8.352210e+000  0.000000e+000
      vertex -1.444097e+000 -7.396804e+000  0.000000e+000
      vertex -1.295551e+000 -8.047630e+000  0.000000e+000
    endloop
  endfacet
  facet normal  0.000000e+000  -0.000000e+000 -1.000000e+000
    outer loop
      vertex -3.934513e+000 -8.352210e+000  0.000000e+000
      vertex -1.295551e+000 -8.047630e+000  0.000000e+000
      vertex -8.793319e-001 -8.569551e+000  0.000000e+000
    endloop
  endfacet
  facet normal  -0.000000e+000  -0.000000e+000 -1.000000e+000
    outer loop
      vertex -3.934513e+000 -8.352210e+000  0.000000e+000
      vertex -8.793319e-001 -8.569551e+000  0.000000e+000
      vertex -2.778786e-001 -8.859197e+000  0.000000e+000
    endloop
  endfacet
  facet normal  -0.000000e+000  0.000000e+000 -1.000000e+000
    outer loop
      vertex -3.934513e+000 -8.352210e+000  0.000000e+000
      vertex -2.778786e-001 -8.859197e+000  0.000000e+000
      vertex -3.536580e+000 -9.379299e+000  0.000000e+000
    endloop
  endfacet
  facet normal  0.000000e+000  -0.000000e+000 -1.000000e+000
    outer loop
      vertex -3.934513e+000  8.352210e+000  0.000000e+000
      vertex -3.536580e+000  9.379299e+000  0.000000e+000
      vertex -2.778786e-001  8.859197e+000  0.000000e+000
    endloop
  endfacet
  facet normal  0.000000e+000  0.000000e+000 -1.000000e+000
    outer loop
      vertex -3.934513e+000  8.352210e+000  0.000000e+000
      vertex -2.778786e-001  8.859197e+000  0.000000e+000
      vertex -8.793319e-001  8.569551e+000  0.000000e+000
    endloop
  endfacet
  facet normal  0.000000e+000  0.000000e+000 -1.000000e+000
    outer loop
      vertex -3.934513e+000  8.352210e+000  0.000000e+000
      vertex -8.793319e-001  8.569551e+000  0.000000e+000
      vertex -1.295551e+000  8.047630e+000  0.000000e+000
    endloop
  endfacet
  facet normal  -0.000000e+000  0.000000e+000 -1.000000e+000
    outer loop
      vertex -3.934513e+000  8.352210e+000  0.000000e+000
      vertex -1.295551e+000  8.047630e+000  0.000000e+000
      vertex -1.444097e+000  7.396804e+000  0.000000e+000
    endloop
  endfacet
  facet normal  -0.000000e+000  0.000000e+000 -1.000000e+000
    outer loop
      vertex -3.934513e+000  8.352210e+000  0.000000e+000
      vertex -1.444097e+000  7.396804e+000  0.000000e+000
      vertex -3.934513e+000 -8.352210e+000  0.000000e+000
    endloop
  endfacet
  facet normal  0.000000e+000  0.000000e+000 -1.000000e+000
    outer loop
      vertex  4.065487e+000 -8.268266e+000  0.000000e+000
      vertex  3.689194e+000 -9.303479e+000  0.000000e+000
      vertex  9.911374e-001 -8.569551e+000  0.000000e+000
    endloop
  endfacet
  facet normal  0.000000e+000  0.000000e+000 -1.000000e+000
    outer loop
      vertex  4.065487e+000 -8.268266e+000  0.000000e+000
      vertex  9.911374e-001 -8.569551e+000  0.000000e+000
      vertex  1.407356e+000 -8.047630e+000  0.000000e+000
    endloop
  endfacet
  facet normal  0.000000e+000  0.000000e+000 -9.999999e-001
    outer loop
      vertex  4.065487e+000 -8.268266e+000  0.000000e+000
      vertex  1.407356e+000 -8.047630e+000  0.000000e+000
      vertex  1.555903e+000 -7.396804e+000  0.000000e+000
    endloop
  endfacet
  facet normal  0.000000e+000  0.000000e+000 -1.000000e+000
    outer loop
      vertex  4.065487e+000 -8.268266e+000  0.000000e+000
      vertex  1.555903e+000 -7.396804e+000  0.000000e+000
      vertex  1.407356e+000 -6.745979e+000  0.000000e+000
    endloop
  endfacet
  facet normal  0.000000e+000  0.000000e+000 -9.999999e-001
    outer loop
      vertex  4.065487e+000 -8.268266e+000  0.000000e+000
      vertex  1.407356e+000 -6.745979e+000  0.000000e+000
      vertex  9.911374e-001 -6.224057e+000  0.000000e+000
    endloop
  endfacet
  facet normal  0.000000e+000  0.000000e+000 -1.000000e+000
    outer loop
      vertex  4.065487e+000 -8.268266e+000  0.000000e+000
      vertex  9.911374e-001 -6.224057e+000  0.000000e+000
      vertex  3.896842e-001  5.934412e+000  0.000000e+000
    endloop
  endfacet
  facet normal  0.000000e+000  0.000000e+000 -1.000000e+000
    outer loop
      vertex  4.065487e+000 -8.268266e+000  0.000000e+000
      vertex  3.896842e-001  5.934412e+000  0.000000e+000
      vertex  9.911374e-001  6.224057e+000  0.000000e+000
    endloop
  endfacet
  facet normal  0.000000e+000  0.000000e+000 -1.000000e+000
    outer loop
      vertex  4.065487e+000 -8.268266e+000  0.000000e+000
      vertex  9.911374e-001  6.224057e+000  0.000000e+000
      vertex  1.407356e+000  6.745979e+000  0.000000e+000
    endloop
  endfacet
  facet normal  0.000000e+000  0.000000e+000 -1.000000e+000
    outer loop
      vertex  4.065487e+000 -8.268266e+000  0.000000e+000
      vertex  1.407356e+000  6.745979e+000  0.000000e+000
      vertex  1.555903e+000  7.396804e+000  0.000000e+000
    endloop
  endfacet
  facet normal  0.000000e+000  -0.000000e+000 -1.000000e+000
    outer loop
      vertex  9.895514e-002 -1.149977e+001  0.000000e+000
      vertex  3.896842e-001 -8.859197e+000  0.000000e+000
      vertex  1.188859e+000 -1.134049e+001  0.000000e+000
    endloop
  endfacet
  facet normal  0.000000e+000  0.000000e+000 -1.000000e+000
    outer loop
      vertex  3.896842e-001 -8.859197e+000  0.000000e+000
      vertex  9.895514e-002 -1.149977e+001  0.000000e+000
      vertex -2.778786e-001 -8.859197e+000  0.000000e+000
    endloop
  endfacet
  facet normal  0.000000e+000  -0.000000e+000 -1.000000e+000
    outer loop
      vertex -2.778786e-001 -8.859197e+000  0.000000e+000
      vertex  9.895514e-002 -1.149977e+001  0.000000e+000
      vertex -9.940508e-001 -1.136339e+001  0.000000e+000
    endloop
  endfacet
  facet normal  0.000000e+000  0.000000e+000 -9.999999e-001
    outer loop
      vertex -2.778786e-001 -8.859197e+000  0.000000e+000
      vertex -9.940508e-001 -1.136339e+001  0.000000e+000
      vertex -3.536580e+000 -9.379299e+000  0.000000e+000
    endloop
  endfacet
  facet normal  0.000000e+000  0.000000e+000 -1.000000e+000
    outer loop
      vertex -3.536580e+000 -9.379299e+000  0.000000e+000
      vertex -9.940508e-001 -1.136339e+001  0.000000e+000
      vertex -2.011394e+000 -1.094117e+001  0.000000e+000
    endloop
  endfacet
  facet normal  0.000000e+000  0.000000e+000 -1.000000e+000
    outer loop
      vertex -3.536580e+000 -9.379299e+000  0.000000e+000
      vertex -2.011394e+000 -1.094117e+001  0.000000e+000
      vertex -2.879763e+000 -1.026352e+001  0.000000e+000
    endloop
  endfacet
  facet normal  0.000000e+000  0.000000e+000 -1.000000e+000
    outer loop
      vertex  9.911374e-001 -6.224057e+000  0.000000e+000
      vertex  3.896842e-001 -5.934412e+000  0.000000e+000
      vertex  3.896842e-001  5.934412e+000  0.000000e+000
    endloop
  endfacet
  facet normal  0.000000e+000  -0.000000e+000 -1.000000e+000
    outer loop
      vertex  3.896842e-001  5.934412e+000  0.000000e+000
      vertex  3.896842e-001 -5.934412e+000  0.000000e+000
      vertex -2.778786e-001 -5.934412e+000  0.000000e+000
    endloop
  endfacet
  facet normal  0.000000e+000  0.000000e+000 -1.000000e+000
    outer loop
      vertex  3.896842e-001  5.934412e+000  0.000000e+000
      vertex -2.778786e-001 -5.934412e+000  0.000000e+000
      vertex -2.778786e-001  5.934412e+000  0.000000e+000
    endloop
  endfacet
  facet normal  0.000000e+000  0.000000e+000 -1.000000e+000
    outer loop
      vertex  2.197118e+000  1.089701e+001  0.000000e+000
      vertex  3.896842e-001  8.859197e+000  0.000000e+000
      vertex  1.188859e+000  1.134049e+001  0.000000e+000
    endloop
  endfacet
  facet normal  0.000000e+000  0.000000e+000 -1.000000e+000
    outer loop
      vertex  1.188859e+000  1.134049e+001  0.000000e+000
      vertex  3.896842e-001  8.859197e+000  0.000000e+000
      vertex -2.778786e-001  8.859197e+000  0.000000e+000
    endloop
  endfacet
  facet normal  0.000000e+000  0.000000e+000 -1.000000e+000
    outer loop
      vertex  1.188859e+000  1.134049e+001  0.000000e+000
      vertex -2.778786e-001  8.859197e+000  0.000000e+000
      vertex  9.895514e-002  1.149977e+001  0.000000e+000
    endloop
  endfacet
  facet normal  0.000000e+000  0.000000e+000 -1.000000e+000
    outer loop
      vertex  9.895514e-002  1.149977e+001  0.000000e+000
      vertex -2.778786e-001  8.859197e+000  0.000000e+000
      vertex -3.536580e+000  9.379299e+000  0.000000e+000
    endloop
  endfacet
  facet normal  0.000000e+000  0.000000e+000 -1.000000e+000
    outer loop
      vertex  9.895514e-002  1.149977e+001  0.000000e+000
      vertex -3.536580e+000  9.379299e+000  0.000000e+000
      vertex -9.940508e-001  1.136339e+001  0.000000e+000
    endloop
  endfacet
  facet normal  0.000000e+000  0.000000e+000 -1.000000e+000
    outer loop
      vertex -9.940508e-001  1.136339e+001  0.000000e+000
      vertex -3.536580e+000  9.379299e+000  0.000000e+000
      vertex -2.879763e+000  1.026352e+001  0.000000e+000
    endloop
  endfacet
  facet normal  0.000000e+000  0.000000e+000 -9.999999e-001
    outer loop
      vertex -9.940508e-001  1.136339e+001  0.000000e+000
      vertex -2.879763e+000  1.026352e+001  0.000000e+000
      vertex -2.011394e+000  1.094117e+001  0.000000e+000
    endloop
  endfacet
  facet normal  0.000000e+000  0.000000e+000 -1.000000e+000
    outer loop
      vertex  3.051076e+000  1.020129e+001  0.000000e+000
      vertex  3.689194e+000  9.303479e+000  0.000000e+000
      vertex  2.197118e+000  1.089701e+001  0.000000e+000
    endloop
  endfacet
  facet normal  0.000000e+000  -0.000000e+000 -1.000000e+000
    outer loop
      vertex  2.197118e+000  1.089701e+001  0.000000e+000
      vertex  3.689194e+000  9.303479e+000  0.000000e+000
      vertex  3.896842e-001  8.859197e+000  0.000000e+000
    endloop
  endfacet
  facet normal  4.338838e-001 -9.009688e-001  0.000000e+000
    outer loop
      vertex -2.778786e-001 -5.934412e+000  0.000000e+000
      vertex -8.793319e-001 -6.224057e+000  3.000000e+000
      vertex -8.793319e-001 -6.224057e+000  0.000000e+000
    endloop
  endfacet
  facet normal  7.818315e-001 -6.234899e-001  0.000000e+000
    outer loop
      vertex -8.793319e-001 -6.224057e+000  0.000000e+000
      vertex -8.793319e-001 -6.224057e+000  3.000000e+000
      vertex -1.295551e+000 -6.745979e+000  3.000000e+000
    endloop
  endfacet
  facet normal  7.818315e-001 -6.234899e-001  0.000000e+000
    outer loop
      vertex -8.793319e-001 -6.224057e+000  0.000000e+000
      vertex -1.295551e+000 -6.745979e+000  3.000000e+000
      vertex -1.295551e+000 -6.745979e+000  0.000000e+000
    endloop
  endfacet
  facet normal  9.749278e-001 -2.225209e-001  0.000000e+000
    outer loop
      vertex -1.295551e+000 -6.745979e+000  0.000000e+000
      vertex -1.295551e+000 -6.745979e+000  3.000000e+000
      vertex -1.444097e+000 -7.396804e+000  3.000000e+000
    endloop
  endfacet
  facet normal  9.749278e-001 -2.225209e-001  0.000000e+000
    outer loop
      vertex -1.295551e+000 -6.745979e+000  0.000000e+000
      vertex -1.444097e+000 -7.396804e+000  3.000000e+000
      vertex -1.444097e+000 -7.396804e+000  0.000000e+000
    endloop
  endfacet
  facet normal  4.338838e-001 -9.009688e-001  0.000000e+000
    outer loop
      vertex -8.793319e-001 -6.224057e+000  3.000000e+000
      vertex -2.778786e-001 -5.934412e+000  0.000000e+000
      vertex -2.778786e-001 -5.934412e+000  3.000000e+000
    endloop
  endfacet
  facet normal  0.000000e+000 -1.000000e+000  0.000000e+000
    outer loop
      vertex -2.778786e-001 -5.934412e+000  3.000000e+000
      vertex -2.778786e-001 -5.934412e+000  0.000000e+000
      vertex  3.896842e-001 -5.934412e+000  0.000000e+000
    endloop
  endfacet
  facet normal  0.000000e+000 -1.000000e+000  0.000000e+000
    outer loop
      vertex -2.778786e-001 -5.934412e+000  3.000000e+000
      vertex  3.896842e-001 -5.934412e+000  0.000000e+000
      vertex  3.896842e-001 -5.934412e+000  3.000000e+000
    endloop
  endfacet
  facet normal -4.338838e-001 -9.009688e-001  -0.000000e+000
    outer loop
      vertex  3.896842e-001 -5.934412e+000  3.000000e+000
      vertex  3.896842e-001 -5.934412e+000  0.000000e+000
      vertex  9.911374e-001 -6.224057e+000  0.000000e+000
    endloop
  endfacet
  facet normal -4.338838e-001 -9.009688e-001  0.000000e+000
    outer loop
      vertex  3.896842e-001 -5.934412e+000  3.000000e+000
      vertex  9.911374e-001 -6.224057e+000  0.000000e+000
      vertex  9.911374e-001 -6.224057e+000  3.000000e+000
    endloop
  endfacet
  facet normal -7.818315e-001 -6.234898e-001  -0.000000e+000
    outer loop
      vertex  9.911374e-001 -6.224057e+000  3.000000e+000
      vertex  9.911374e-001 -6.224057e+000  0.000000e+000
      vertex  1.407356e+000 -6.745979e+000  0.000000e+000
    endloop
  endfacet
  facet normal -7.818315e-001 -6.234898e-001  0.000000e+000
    outer loop
      vertex  9.911374e-001 -6.224057e+000  3.000000e+000
      vertex  1.407356e+000 -6.745979e+000  0.000000e+000
      vertex  1.407356e+000 -6.745979e+000  3.000000e+000
    endloop
  endfacet
  facet normal -9.749278e-001 -2.225209e-001  -0.000000e+000
    outer loop
      vertex  1.407356e+000 -6.745979e+000  3.000000e+000
      vertex  1.407356e+000 -6.745979e+000  0.000000e+000
      vertex  1.555903e+000 -7.396804e+000  0.000000e+000
    endloop
  endfacet
  facet normal -9.749278e-001 -2.225209e-001  0.000000e+000
    outer loop
      vertex  1.407356e+000 -6.745979e+000  3.000000e+000
      vertex  1.555903e+000 -7.396804e+000  0.000000e+000
      vertex  1.555903e+000 -7.396804e+000  3.000000e+000
    endloop
  endfacet
  facet normal -4.338844e-001  9.009686e-001  0.000000e+000
    outer loop
      vertex  3.896842e-001 -8.859197e+000  0.000000e+000
      vertex  9.911374e-001 -8.569551e+000  3.000000e+000
      vertex  9.911374e-001 -8.569551e+000  0.000000e+000
    endloop
  endfacet
  facet normal -7.818313e-001  6.234902e-001  0.000000e+000
    outer loop
      vertex  9.911374e-001 -8.569551e+000  0.000000e+000
      vertex  9.911374e-001 -8.569551e+000  3.000000e+000
      vertex  1.407356e+000 -8.047630e+000  3.000000e+000
    endloop
  endfacet
  facet normal -7.818313e-001  6.234902e-001  0.000000e+000
    outer loop
      vertex  9.911374e-001 -8.569551e+000  0.000000e+000
      vertex  1.407356e+000 -8.047630e+000  3.000000e+000
      vertex  1.407356e+000 -8.047630e+000  0.000000e+000
    endloop
  endfacet
  facet normal -9.749280e-001  2.225208e-001  0.000000e+000
    outer loop
      vertex  1.407356e+000 -8.047630e+000  0.000000e+000
      vertex  1.407356e+000 -8.047630e+000  3.000000e+000
      vertex  1.555903e+000 -7.396804e+000  3.000000e+000
    endloop
  endfacet
  facet normal -9.749280e-001  2.225208e-001  0.000000e+000
    outer loop
      vertex  1.407356e+000 -8.047630e+000  0.000000e+000
      vertex  1.555903e+000 -7.396804e+000  3.000000e+000
      vertex  1.555903e+000 -7.396804e+000  0.000000e+000
    endloop
  endfacet
  facet normal -4.338844e-001  9.009686e-001  0.000000e+000
    outer loop
      vertex  9.911374e-001 -8.569551e+000  3.000000e+000
      vertex  3.896842e-001 -8.859197e+000  0.000000e+000
      vertex  3.896842e-001 -8.859197e+000  3.000000e+000
    endloop
  endfacet
  facet normal  0.000000e+000  1.000000e+000  0.000000e+000
    outer loop
      vertex  3.896842e-001 -8.859197e+000  3.000000e+000
      vertex  3.896842e-001 -8.859197e+000  0.000000e+000
      vertex -2.778786e-001 -8.859197e+000  0.000000e+000
    endloop
  endfacet
  facet normal  0.000000e+000  1.000000e+000  0.000000e+000
    outer loop
      vertex  3.896842e-001 -8.859197e+000  3.000000e+000
      vertex -2.778786e-001 -8.859197e+000  0.000000e+000
      vertex -2.778786e-001 -8.859197e+000  3.000000e+000
    endloop
  endfacet
  facet normal  4.338844e-001  9.009686e-001  0.000000e+000
    outer loop
      vertex -2.778786e-001 -8.859197e+000  3.000000e+000
      vertex -2.778786e-001 -8.859197e+000  0.000000e+000
      vertex -8.793319e-001 -8.569551e+000  0.000000e+000
    endloop
  endfacet
  facet normal  4.338844e-001  9.009686e-001  -0.000000e+000
    outer loop
      vertex -2.778786e-001 -8.859197e+000  3.000000e+000
      vertex -8.793319e-001 -8.569551e+000  0.000000e+000
      vertex -8.793319e-001 -8.569551e+000  3.000000e+000
    endloop
  endfacet
  facet normal  7.818311e-001  6.234902e-001  0.000000e+000
    outer loop
      vertex -8.793319e-001 -8.569551e+000  3.000000e+000
      vertex -8.793319e-001 -8.569551e+000  0.000000e+000
      vertex -1.295551e+000 -8.047630e+000  0.000000e+000
    endloop
  endfacet
  facet normal  7.818311e-001  6.234902e-001  -0.000000e+000
    outer loop
      vertex -8.793319e-001 -8.569551e+000  3.000000e+000
      vertex -1.295551e+000 -8.047630e+000  0.000000e+000
      vertex -1.295551e+000 -8.047630e+000  3.000000e+000
    endloop
  endfacet
  facet normal  9.749280e-001  2.225208e-001  0.000000e+000
    outer loop
      vertex -1.295551e+000 -8.047630e+000  3.000000e+000
      vertex -1.295551e+000 -8.047630e+000  0.000000e+000
      vertex -1.444097e+000 -7.396804e+000  0.000000e+000
    endloop
  endfacet
  facet normal  9.749280e-001  2.225208e-001  -0.000000e+000
    outer loop
      vertex -1.295551e+000 -8.047630e+000  3.000000e+000
      vertex -1.444097e+000 -7.396804e+000  0.000000e+000
      vertex -1.444097e+000 -7.396804e+000  3.000000e+000
    endloop
  endfacet
  facet normal  4.338844e-001 -9.009686e-001  0.000000e+000
    outer loop
      vertex -2.778786e-001  8.859197e+000  0.000000e+000
      vertex -8.793319e-001  8.569551e+000  3.000000e+000
      vertex -8.793319e-001  8.569551e+000  0.000000e+000
    endloop
  endfacet
  facet normal  7.818311e-001 -6.234902e-001  0.000000e+000
    outer loop
      vertex -8.793319e-001  8.569551e+000  0.000000e+000
      vertex -8.793319e-001  8.569551e+000  3.000000e+000
      vertex -1.295551e+000  8.047630e+000  3.000000e+000
    endloop
  endfacet
  facet normal  7.818311e-001 -6.234902e-001  0.000000e+000
    outer loop
      vertex -8.793319e-001  8.569551e+000  0.000000e+000
      vertex -1.295551e+000  8.047630e+000  3.000000e+000
      vertex -1.295551e+000  8.047630e+000  0.000000e+000
    endloop
  endfacet
  facet normal  9.749280e-001 -2.225208e-001  0.000000e+000
    outer loop
      vertex -1.295551e+000  8.047630e+000  0.000000e+000
      vertex -1.295551e+000  8.047630e+000  3.000000e+000
      vertex -1.444097e+000  7.396804e+000  3.000000e+000
    endloop
  endfacet
  facet normal  9.749280e-001 -2.225208e-001  0.000000e+000
    outer loop
      vertex -1.295551e+000  8.047630e+000  0.000000e+000
      vertex -1.444097e+000  7.396804e+000  3.000000e+000
      vertex -1.444097e+000  7.396804e+000  0.000000e+000
    endloop
  endfacet
  facet normal  4.338844e-001 -9.009686e-001  0.000000e+000
    outer loop
      vertex -8.793319e-001  8.569551e+000  3.000000e+000
      vertex -2.778786e-001  8.859197e+000  0.000000e+000
      vertex -2.778786e-001  8.859197e+000  3.000000e+000
    endloop
  endfacet
  facet normal  0.000000e+000 -1.000000e+000  0.000000e+000
    outer loop
      vertex -2.778786e-001  8.859197e+000  3.000000e+000
      vertex -2.778786e-001  8.859197e+000  0.000000e+000
      vertex  3.896842e-001  8.859197e+000  0.000000e+000
    endloop
  endfacet
  facet normal  0.000000e+000 -1.000000e+000  0.000000e+000
    outer loop
      vertex -2.778786e-001  8.859197e+000  3.000000e+000
      vertex  3.896842e-001  8.859197e+000  0.000000e+000
      vertex  3.896842e-001  8.859197e+000  3.000000e+000
    endloop
  endfacet
  facet normal -4.338844e-001 -9.009686e-001  -0.000000e+000
    outer loop
      vertex  3.896842e-001  8.859197e+000  3.000000e+000
      vertex  3.896842e-001  8.859197e+000  0.000000e+000
      vertex  9.911374e-001  8.569551e+000  0.000000e+000
    endloop
  endfacet
  facet normal -4.338844e-001 -9.009686e-001  0.000000e+000
    outer loop
      vertex  3.896842e-001  8.859197e+000  3.000000e+000
      vertex  9.911374e-001  8.569551e+000  0.000000e+000
      vertex  9.911374e-001  8.569551e+000  3.000000e+000
    endloop
  endfacet
  facet normal -7.818313e-001 -6.234902e-001  -0.000000e+000
    outer loop
      vertex  9.911374e-001  8.569551e+000  3.000000e+000
      vertex  9.911374e-001  8.569551e+000  0.000000e+000
      vertex  1.407356e+000  8.047630e+000  0.000000e+000
    endloop
  endfacet
  facet normal -7.818313e-001 -6.234902e-001  0.000000e+000
    outer loop
      vertex  9.911374e-001  8.569551e+000  3.000000e+000
      vertex  1.407356e+000  8.047630e+000  0.000000e+000
      vertex  1.407356e+000  8.047630e+000  3.000000e+000
    endloop
  endfacet
  facet normal -9.749280e-001 -2.225208e-001  -0.000000e+000
    outer loop
      vertex  1.407356e+000  8.047630e+000  3.000000e+000
      vertex  1.407356e+000  8.047630e+000  0.000000e+000
      vertex  1.555903e+000  7.396804e+000  0.000000e+000
    endloop
  endfacet
  facet normal -9.749280e-001 -2.225208e-001  0.000000e+000
    outer loop
      vertex  1.407356e+000  8.047630e+000  3.000000e+000
      vertex  1.555903e+000  7.396804e+000  0.000000e+000
      vertex  1.555903e+000  7.396804e+000  3.000000e+000
    endloop
  endfacet
  facet normal -4.338838e-001  9.009688e-001  0.000000e+000
    outer loop
      vertex  3.896842e-001  5.934412e+000  0.000000e+000
      vertex  9.911374e-001  6.224057e+000  3.000000e+000
      vertex  9.911374e-001  6.224057e+000  0.000000e+000
    endloop
  endfacet
  facet normal -7.818315e-001  6.234898e-001  0.000000e+000
    outer loop
      vertex  9.911374e-001  6.224057e+000  0.000000e+000
      vertex  9.911374e-001  6.224057e+000  3.000000e+000
      vertex  1.407356e+000  6.745979e+000  3.000000e+000
    endloop
  endfacet
  facet normal -7.818315e-001  6.234898e-001  0.000000e+000
    outer loop
      vertex  9.911374e-001  6.224057e+000  0.000000e+000
      vertex  1.407356e+000  6.745979e+000  3.000000e+000
      vertex  1.407356e+000  6.745979e+000  0.000000e+000
    endloop
  endfacet
  facet normal -9.749278e-001  2.225209e-001  0.000000e+000
    outer loop
      vertex  1.407356e+000  6.745979e+000  0.000000e+000
      vertex  1.407356e+000  6.745979e+000  3.000000e+000
      vertex  1.555903e+000  7.396804e+000  3.000000e+000
    endloop
  endfacet
  facet normal -9.749278e-001  2.225209e-001  0.000000e+000
    outer loop
      vertex  1.407356e+000  6.745979e+000  0.000000e+000
      vertex  1.555903e+000  7.396804e+000  3.000000e+000
      vertex  1.555903e+000  7.396804e+000  0.000000e+000
    endloop
  endfacet
  facet normal -4.338838e-001  9.009688e-001  0.000000e+000
    outer loop
      vertex  9.911374e-001  6.224057e+000  3.000000e+000
      vertex  3.896842e-001  5.934412e+000  0.000000e+000
      vertex  3.896842e-001  5.934412e+000  3.000000e+000
    endloop
  endfacet
  facet normal  0.000000e+000  1.000000e+000  0.000000e+000
    outer loop
      vertex  3.896842e-001  5.934412e+000  3.000000e+000
      vertex  3.896842e-001  5.934412e+000  0.000000e+000
      vertex -2.778786e-001  5.934412e+000  0.000000e+000
    endloop
  endfacet
  facet normal  0.000000e+000  1.000000e+000  0.000000e+000
    outer loop
      vertex  3.896842e-001  5.934412e+000  3.000000e+000
      vertex -2.778786e-001  5.934412e+000  0.000000e+000
      vertex -2.778786e-001  5.934412e+000  3.000000e+000
    endloop
  endfacet
  facet normal  4.338838e-001  9.009688e-001  0.000000e+000
    outer loop
      vertex -2.778786e-001  5.934412e+000  3.000000e+000
      vertex -2.778786e-001  5.934412e+000  0.000000e+000
      vertex -8.793319e-001  6.224057e+000  0.000000e+000
    endloop
  endfacet
  facet normal  4.338838e-001  9.009688e-001  -0.000000e+000
    outer loop
      vertex -2.778786e-001  5.934412e+000  3.000000e+000
      vertex -8.793319e-001  6.224057e+000  0.000000e+000
      vertex -8.793319e-001  6.224057e+000  3.000000e+000
    endloop
  endfacet
  facet normal  7.818315e-001  6.234899e-001  0.000000e+000
    outer loop
      vertex -8.793319e-001  6.224057e+000  3.000000e+000
      vertex -8.793319e-001  6.224057e+000  0.000000e+000
      vertex -1.295551e+000  6.745979e+000  0.000000e+000
    endloop
  endfacet
  facet normal  7.818315e-001  6.234899e-001  -0.000000e+000
    outer loop
      vertex -8.793319e-001  6.224057e+000  3.000000e+000
      vertex -1.295551e+000  6.745979e+000  0.000000e+000
      vertex -1.295551e+000  6.745979e+000  3.000000e+000
    endloop
  endfacet
  facet normal  9.749278e-001  2.225209e-001  0.000000e+000
    outer loop
      vertex -1.295551e+000  6.745979e+000  3.000000e+000
      vertex -1.295551e+000  6.745979e+000  0.000000e+000
      vertex -1.444097e+000  7.396804e+000  0.000000e+000
    endloop
  endfacet
  facet normal  9.749278e-001  2.225209e-001  -0.000000e+000
    outer loop
      vertex -1.295551e+000  6.745979e+000  3.000000e+000
      vertex -1.444097e+000  7.396804e+000  0.000000e+000
      vertex -1.444097e+000  7.396804e+000  3.000000e+000
    endloop
  endfacet
  facet normal  1.000000e+000  0.000000e+000  0.000000e+000
    outer loop
      vertex  4.065487e+000 -8.268266e+000  3.000000e+000
      vertex  4.065487e+000 -8.268266e+000  0.000000e+000
      vertex  4.065487e+000  8.268266e+000  3.000000e+000
    endloop
  endfacet
  facet normal  1.000000e+000  0.000000e+000  0.000000e+000
    outer loop
      vertex  4.065487e+000  8.268266e+000  3.000000e+000
      vertex  4.065487e+000 -8.268266e+000  0.000000e+000
      vertex  4.065487e+000  8.268266e+000  0.000000e+000
    endloop
  endfacet
  facet normal  9.398366e-001 -3.416243e-001  0.000000e+000
    outer loop
      vertex  4.065487e+000 -8.268266e+000  0.000000e+000
      vertex  4.065487e+000 -8.268266e+000  3.000000e+000
      vertex  3.689194e+000 -9.303479e+000  0.000000e+000
    endloop
  endfacet
  facet normal  9.398366e-001 -3.416243e-001  0.000000e+000
    outer loop
      vertex  3.689194e+000 -9.303479e+000  0.000000e+000
      vertex  4.065487e+000 -8.268266e+000  3.000000e+000
      vertex  3.689194e+000 -9.303479e+000  3.000000e+000
    endloop
  endfacet
  facet normal  8.150955e-001 -5.793267e-001  0.000000e+000
    outer loop
      vertex  3.689194e+000 -9.303479e+000  0.000000e+000
      vertex  3.689194e+000 -9.303479e+000  3.000000e+000
      vertex  3.051076e+000 -1.020129e+001  0.000000e+000
    endloop
  endfacet
  facet normal  8.150955e-001 -5.793267e-001  0.000000e+000
    outer loop
      vertex  3.051076e+000 -1.020129e+001  0.000000e+000
      vertex  3.689194e+000 -9.303479e+000  3.000000e+000
      vertex  3.051076e+000 -1.020129e+001  3.000000e+000
    endloop
  endfacet
  facet normal  6.316164e-001 -7.752811e-001  0.000000e+000
    outer loop
      vertex  3.051076e+000 -1.020129e+001  0.000000e+000
      vertex  3.051076e+000 -1.020129e+001  3.000000e+000
      vertex  2.197118e+000 -1.089701e+001  0.000000e+000
    endloop
  endfacet
  facet normal  6.316164e-001 -7.752811e-001  0.000000e+000
    outer loop
      vertex  2.197118e+000 -1.089701e+001  0.000000e+000
      vertex  3.051076e+000 -1.020129e+001  3.000000e+000
      vertex  2.197118e+000 -1.089701e+001  3.000000e+000
    endloop
  endfacet
  facet normal  4.026217e-001 -9.153665e-001  0.000000e+000
    outer loop
      vertex  2.197118e+000 -1.089701e+001  0.000000e+000
      vertex  2.197118e+000 -1.089701e+001  3.000000e+000
      vertex  1.188859e+000 -1.134049e+001  0.000000e+000
    endloop
  endfacet
  facet normal  4.026217e-001 -9.153665e-001  0.000000e+000
    outer loop
      vertex  1.188859e+000 -1.134049e+001  0.000000e+000
      vertex  2.197118e+000 -1.089701e+001  3.000000e+000
      vertex  1.188859e+000 -1.134049e+001  3.000000e+000
    endloop
  endfacet
  facet normal  1.446120e-001 -9.894885e-001  0.000000e+000
    outer loop
      vertex  1.188859e+000 -1.134049e+001  0.000000e+000
      vertex  1.188859e+000 -1.134049e+001  3.000000e+000
      vertex  9.895514e-002 -1.149977e+001  0.000000e+000
    endloop
  endfacet
  facet normal  1.446120e-001 -9.894885e-001  0.000000e+000
    outer loop
      vertex  9.895514e-002 -1.149977e+001  0.000000e+000
      vertex  1.188859e+000 -1.134049e+001  3.000000e+000
      vertex  9.895514e-002 -1.149977e+001  3.000000e+000
    endloop
  endfacet
  facet normal -1.238178e-001 -9.923050e-001  -0.000000e+000
    outer loop
      vertex  9.895514e-002 -1.149977e+001  0.000000e+000
      vertex  9.895514e-002 -1.149977e+001  3.000000e+000
      vertex -9.940508e-001 -1.136339e+001  0.000000e+000
    endloop
  endfacet
  facet normal -1.238178e-001 -9.923050e-001  0.000000e+000
    outer loop
      vertex -9.940508e-001 -1.136339e+001  0.000000e+000
      vertex  9.895514e-002 -1.149977e+001  3.000000e+000
      vertex -9.940508e-001 -1.136339e+001  3.000000e+000
    endloop
  endfacet
  facet normal -3.833246e-001 -9.236137e-001  -0.000000e+000
    outer loop
      vertex -9.940508e-001 -1.136339e+001  0.000000e+000
      vertex -9.940508e-001 -1.136339e+001  3.000000e+000
      vertex -2.011394e+000 -1.094117e+001  0.000000e+000
    endloop
  endfacet
  facet normal -3.833246e-001 -9.236137e-001  0.000000e+000
    outer loop
      vertex -2.011394e+000 -1.094117e+001  0.000000e+000
      vertex -9.940508e-001 -1.136339e+001  3.000000e+000
      vertex -2.011394e+000 -1.094117e+001  3.000000e+000
    endloop
  endfacet
  facet normal -6.152092e-001 -7.883639e-001  -0.000000e+000
    outer loop
      vertex -2.011394e+000 -1.094117e+001  0.000000e+000
      vertex -2.011394e+000 -1.094117e+001  3.000000e+000
      vertex -2.879763e+000 -1.026352e+001  0.000000e+000
    endloop
  endfacet
  facet normal -6.152092e-001 -7.883639e-001  0.000000e+000
    outer loop
      vertex -2.879763e+000 -1.026352e+001  0.000000e+000
      vertex -2.011394e+000 -1.094117e+001  3.000000e+000
      vertex -2.879763e+000 -1.026352e+001  3.000000e+000
    endloop
  endfacet
  facet normal -8.027595e-001 -5.963029e-001  -0.000000e+000
    outer loop
      vertex -2.879763e+000 -1.026352e+001  0.000000e+000
      vertex -2.879763e+000 -1.026352e+001  3.000000e+000
      vertex -3.536580e+000 -9.379299e+000  0.000000e+000
    endloop
  endfacet
  facet normal -8.027595e-001 -5.963029e-001  0.000000e+000
    outer loop
      vertex -3.536580e+000 -9.379299e+000  0.000000e+000
      vertex -2.879763e+000 -1.026352e+001  3.000000e+000
      vertex -3.536580e+000 -9.379299e+000  3.000000e+000
    endloop
  endfacet
  facet normal -9.324610e-001 -3.612705e-001  -0.000000e+000
    outer loop
      vertex -3.536580e+000 -9.379299e+000  0.000000e+000
      vertex -3.536580e+000 -9.379299e+000  3.000000e+000
      vertex -3.934513e+000 -8.352210e+000  0.000000e+000
    endloop
  endfacet
  facet normal -9.324610e-001 -3.612705e-001  0.000000e+000
    outer loop
      vertex -3.934513e+000 -8.352210e+000  0.000000e+000
      vertex -3.536580e+000 -9.379299e+000  3.000000e+000
      vertex -3.934513e+000 -8.352210e+000  3.000000e+000
    endloop
  endfacet
  facet normal -1.000000e+000  0.000000e+000  0.000000e+000
    outer loop
      vertex -3.934513e+000  8.352210e+000  3.000000e+000
      vertex -3.934513e+000  8.352210e+000  0.000000e+000
      vertex -3.934513e+000 -8.352210e+000  3.000000e+000
    endloop
  endfacet
  facet normal -1.000000e+000  0.000000e+000  0.000000e+000
    outer loop
      vertex -3.934513e+000 -8.352210e+000  3.000000e+000
      vertex -3.934513e+000  8.352210e+000  0.000000e+000
      vertex -3.934513e+000 -8.352210e+000  0.000000e+000
    endloop
  endfacet
  facet normal -9.324610e-001  3.612705e-001  0.000000e+000
    outer loop
      vertex -3.934513e+000  8.352210e+000  0.000000e+000
      vertex -3.934513e+000  8.352210e+000  3.000000e+000
      vertex -3.536580e+000  9.379299e+000  0.000000e+000
    endloop
  endfacet
  facet normal -9.324610e-001  3.612705e-001  0.000000e+000
    outer loop
      vertex -3.536580e+000  9.379299e+000  0.000000e+000
      vertex -3.934513e+000  8.352210e+000  3.000000e+000
      vertex -3.536580e+000  9.379299e+000  3.000000e+000
    endloop
  endfacet
  facet normal -8.027595e-001  5.963029e-001  0.000000e+000
    outer loop
      vertex -3.536580e+000  9.379299e+000  0.000000e+000
      vertex -3.536580e+000  9.379299e+000  3.000000e+000
      vertex -2.879763e+000  1.026352e+001  0.000000e+000
    endloop
  endfacet
  facet normal -8.027595e-001  5.963029e-001  0.000000e+000
    outer loop
      vertex -2.879763e+000  1.026352e+001  0.000000e+000
      vertex -3.536580e+000  9.379299e+000  3.000000e+000
      vertex -2.879763e+000  1.026352e+001  3.000000e+000
    endloop
  endfacet
  facet normal -6.152092e-001  7.883639e-001  0.000000e+000
    outer loop
      vertex -2.879763e+000  1.026352e+001  0.000000e+000
      vertex -2.879763e+000  1.026352e+001  3.000000e+000
      vertex -2.011394e+000  1.094117e+001  0.000000e+000
    endloop
  endfacet
  facet normal -6.152092e-001  7.883639e-001  0.000000e+000
    outer loop
      vertex -2.011394e+000  1.094117e+001  0.000000e+000
      vertex -2.879763e+000  1.026352e+001  3.000000e+000
      vertex -2.011394e+000  1.094117e+001  3.000000e+000
    endloop
  endfacet
  facet normal -3.833246e-001  9.236137e-001  0.000000e+000
    outer loop
      vertex -2.011394e+000  1.094117e+001  0.000000e+000
      vertex -2.011394e+000  1.094117e+001  3.000000e+000
      vertex -9.940508e-001  1.136339e+001  0.000000e+000
    endloop
  endfacet
  facet normal -3.833246e-001  9.236137e-001  0.000000e+000
    outer loop
      vertex -9.940508e-001  1.136339e+001  0.000000e+000
      vertex -2.011394e+000  1.094117e+001  3.000000e+000
      vertex -9.940508e-001  1.136339e+001  3.000000e+000
    endloop
  endfacet
  facet normal -1.238178e-001  9.923050e-001  0.000000e+000
    outer loop
      vertex -9.940508e-001  1.136339e+001  0.000000e+000
      vertex -9.940508e-001  1.136339e+001  3.000000e+000
      vertex  9.895514e-002  1.149977e+001  0.000000e+000
    endloop
  endfacet
  facet normal -1.238178e-001  9.923050e-001  0.000000e+000
    outer loop
      vertex  9.895514e-002  1.149977e+001  0.000000e+000
      vertex -9.940508e-001  1.136339e+001  3.000000e+000
      vertex  9.895514e-002  1.149977e+001  3.000000e+000
    endloop
  endfacet
  facet normal  1.446120e-001  9.894885e-001  0.000000e+000
    outer loop
      vertex  9.895514e-002  1.149977e+001  0.000000e+000
      vertex  9.895514e-002  1.149977e+001  3.000000e+000
      vertex  1.188859e+000  1.134049e+001  0.000000e+000
    endloop
  endfacet
  facet normal  1.446120e-001  9.894885e-001  -0.000000e+000
    outer loop
      vertex  1.188859e+000  1.134049e+001  0.000000e+000
      vertex  9.895514e-002  1.149977e+001  3.000000e+000
      vertex  1.188859e+000  1.134049e+001  3.000000e+000
    endloop
  endfacet
  facet normal  4.026217e-001  9.153665e-001  0.000000e+000
    outer loop
      vertex  1.188859e+000  1.134049e+001  0.000000e+000
      vertex  1.188859e+000  1.134049e+001  3.000000e+000
      vertex  2.197118e+000  1.089701e+001  0.000000e+000
    endloop
  endfacet
  facet normal  4.026217e-001  9.153665e-001  -0.000000e+000
    outer loop
      vertex  2.197118e+000  1.089701e+001  0.000000e+000
      vertex  1.188859e+000  1.134049e+001  3.000000e+000
      vertex  2.197118e+000  1.089701e+001  3.000000e+000
    endloop
  endfacet
  facet normal  6.316164e-001  7.752811e-001  0.000000e+000
    outer loop
      vertex  2.197118e+000  1.089701e+001  0.000000e+000
      vertex  2.197118e+000  1.089701e+001  3.000000e+000
      vertex  3.051076e+000  1.020129e+001  0.000000e+000
    endloop
  endfacet
  facet normal  6.316164e-001  7.752811e-001  -0.000000e+000
    outer loop
      vertex  3.051076e+000  1.020129e+001  0.000000e+000
      vertex  2.197118e+000  1.089701e+001  3.000000e+000
      vertex  3.051076e+000  1.020129e+001  3.000000e+000
    endloop
  endfacet
  facet normal  8.150955e-001  5.793267e-001  0.000000e+000
    outer loop
      vertex  3.051076e+000  1.020129e+001  0.000000e+000
      vertex  3.051076e+000  1.020129e+001  3.000000e+000
      vertex  3.689194e+000  9.303479e+000  0.000000e+000
    endloop
  endfacet
  facet normal  8.150955e-001  5.793267e-001  -0.000000e+000
    outer loop
      vertex  3.689194e+000  9.303479e+000  0.000000e+000
      vertex  3.051076e+000  1.020129e+001  3.000000e+000
      vertex  3.689194e+000  9.303479e+000  3.000000e+000
    endloop
  endfacet
  facet normal  9.398366e-001  3.416243e-001  0.000000e+000
    outer loop
      vertex  3.689194e+000  9.303479e+000  0.000000e+000
      vertex  3.689194e+000  9.303479e+000  3.000000e+000
      vertex  4.065487e+000  8.268266e+000  0.000000e+000
    endloop
  endfacet
  facet normal  9.398366e-001  3.416243e-001  -0.000000e+000
    outer loop
      vertex  4.065487e+000  8.268266e+000  0.000000e+000
      vertex  3.689194e+000  9.303479e+000  3.000000e+000
      vertex  4.065487e+000  8.268266e+000  3.000000e+000
    endloop
  endfacet
endsolid CATIA STL
