solid CATIA STL
  facet normal  0.000000e+000  0.000000e+000  1.000000e+000
    outer loop
      vertex -2.730863e-001 -7.434646e+000  3.000000e+000
      vertex -2.730863e-001  7.434646e+000  3.000000e+000
      vertex -8.745397e-001 -7.724291e+000  3.000000e+000
    endloop
  endfacet
  facet normal  0.000000e+000  0.000000e+000  1.000000e+000
    outer loop
      vertex  4.070280e+000  9.768500e+000  3.000000e+000
      vertex  3.693986e+000  1.080371e+001  3.000000e+000
      vertex  3.944765e-001  1.035943e+001  3.000000e+000
    endloop
  endfacet
  facet normal  0.000000e+000  0.000000e+000  1.000000e+000
    outer loop
      vertex  4.070280e+000  9.768500e+000  3.000000e+000
      vertex  3.944765e-001  1.035943e+001  3.000000e+000
      vertex  9.959298e-001  1.006979e+001  3.000000e+000
    endloop
  endfacet
  facet normal  0.000000e+000  0.000000e+000  9.999999e-001
    outer loop
      vertex  4.070280e+000  9.768500e+000  3.000000e+000
      vertex  9.959298e-001  1.006979e+001  3.000000e+000
      vertex  1.412148e+000  9.547864e+000  3.000000e+000
    endloop
  endfacet
  facet normal  -0.000000e+000  0.000000e+000  9.999999e-001
    outer loop
      vertex  4.070280e+000  9.768500e+000  3.000000e+000
      vertex  1.412148e+000  9.547864e+000  3.000000e+000
      vertex  1.560695e+000  8.897038e+000  3.000000e+000
    endloop
  endfacet
  facet normal  -0.000000e+000  0.000000e+000  1.000000e+000
    outer loop
      vertex  4.070280e+000  9.768500e+000  3.000000e+000
      vertex  1.560695e+000  8.897038e+000  3.000000e+000
      vertex  4.070280e+000 -9.768500e+000  3.000000e+000
    endloop
  endfacet
  facet normal  0.000000e+000  -0.000000e+000  1.000000e+000
    outer loop
      vertex  3.944765e-001 -1.035943e+001  3.000000e+000
      vertex  1.193651e+000 -1.284072e+001  3.000000e+000
      vertex  2.201910e+000 -1.239724e+001  3.000000e+000
    endloop
  endfacet
  facet normal  0.000000e+000  -0.000000e+000  9.999999e-001
    outer loop
      vertex  3.944765e-001 -1.035943e+001  3.000000e+000
      vertex  2.201910e+000 -1.239724e+001  3.000000e+000
      vertex  3.055869e+000 -1.170153e+001  3.000000e+000
    endloop
  endfacet
  facet normal  0.000000e+000  -0.000000e+000  1.000000e+000
    outer loop
      vertex  3.944765e-001 -1.035943e+001  3.000000e+000
      vertex  3.055869e+000 -1.170153e+001  3.000000e+000
      vertex  3.693986e+000 -1.080371e+001  3.000000e+000
    endloop
  endfacet
  facet normal  0.000000e+000  0.000000e+000  1.000000e+000
    outer loop
      vertex  3.944765e-001 -1.035943e+001  3.000000e+000
      vertex  3.693986e+000 -1.080371e+001  3.000000e+000
      vertex  9.959298e-001 -1.006979e+001  3.000000e+000
    endloop
  endfacet
  facet normal  0.000000e+000  -0.000000e+000  9.999999e-001
    outer loop
      vertex -3.929720e+000 -9.852444e+000  3.000000e+000
      vertex -3.531787e+000 -1.087953e+001  3.000000e+000
      vertex -2.730863e-001 -1.035943e+001  3.000000e+000
    endloop
  endfacet
  facet normal  0.000000e+000  0.000000e+000  1.000000e+000
    outer loop
      vertex -3.929720e+000 -9.852444e+000  3.000000e+000
      vertex -2.730863e-001 -1.035943e+001  3.000000e+000
      vertex -8.745397e-001 -1.006979e+001  3.000000e+000
    endloop
  endfacet
  facet normal  0.000000e+000  0.000000e+000  9.999999e-001
    outer loop
      vertex -3.929720e+000 -9.852444e+000  3.000000e+000
      vertex -8.745397e-001 -1.006979e+001  3.000000e+000
      vertex -1.290758e+000 -9.547864e+000  3.000000e+000
    endloop
  endfacet
  facet normal  0.000000e+000  0.000000e+000  1.000000e+000
    outer loop
      vertex -3.929720e+000 -9.852444e+000  3.000000e+000
      vertex -1.290758e+000 -9.547864e+000  3.000000e+000
      vertex -1.439305e+000 -8.897038e+000  3.000000e+000
    endloop
  endfacet
  facet normal  0.000000e+000  -0.000000e+000  9.999999e-001
    outer loop
      vertex -3.929720e+000 -9.852444e+000  3.000000e+000
      vertex -1.439305e+000 -8.897038e+000  3.000000e+000
      vertex -1.290758e+000 -8.246213e+000  3.000000e+000
    endloop
  endfacet
  facet normal  0.000000e+000  -0.000000e+000  9.999999e-001
    outer loop
      vertex -3.929720e+000 -9.852444e+000  3.000000e+000
      vertex -1.290758e+000 -8.246213e+000  3.000000e+000
      vertex -8.745397e-001 -7.724291e+000  3.000000e+000
    endloop
  endfacet
  facet normal  0.000000e+000  -0.000000e+000  1.000000e+000
    outer loop
      vertex -3.929720e+000 -9.852444e+000  3.000000e+000
      vertex -8.745397e-001 -7.724291e+000  3.000000e+000
      vertex -2.730863e-001  7.434646e+000  3.000000e+000
    endloop
  endfacet
  facet normal  0.000000e+000  0.000000e+000  1.000000e+000
    outer loop
      vertex -3.929720e+000 -9.852444e+000  3.000000e+000
      vertex -2.730863e-001  7.434646e+000  3.000000e+000
      vertex -8.745397e-001  7.724291e+000  3.000000e+000
    endloop
  endfacet
  facet normal  0.000000e+000  0.000000e+000  9.999999e-001
    outer loop
      vertex -3.929720e+000 -9.852444e+000  3.000000e+000
      vertex -8.745397e-001  7.724291e+000  3.000000e+000
      vertex -1.290758e+000  8.246213e+000  3.000000e+000
    endloop
  endfacet
  facet normal  0.000000e+000  0.000000e+000  9.999999e-001
    outer loop
      vertex -3.929720e+000 -9.852444e+000  3.000000e+000
      vertex -1.290758e+000  8.246213e+000  3.000000e+000
      vertex -1.439305e+000  8.897038e+000  3.000000e+000
    endloop
  endfacet
  facet normal  0.000000e+000  0.000000e+000  1.000000e+000
    outer loop
      vertex -3.929720e+000  9.852444e+000  3.000000e+000
      vertex -3.929720e+000 -9.852444e+000  3.000000e+000
      vertex -1.439305e+000  8.897038e+000  3.000000e+000
    endloop
  endfacet
  facet normal  0.000000e+000  -0.000000e+000  1.000000e+000
    outer loop
      vertex -3.929720e+000  9.852444e+000  3.000000e+000
      vertex -1.439305e+000  8.897038e+000  3.000000e+000
      vertex -1.290758e+000  9.547864e+000  3.000000e+000
    endloop
  endfacet
  facet normal  0.000000e+000  -0.000000e+000  9.999999e-001
    outer loop
      vertex -3.929720e+000  9.852444e+000  3.000000e+000
      vertex -1.290758e+000  9.547864e+000  3.000000e+000
      vertex -8.745397e-001  1.006979e+001  3.000000e+000
    endloop
  endfacet
  facet normal  0.000000e+000  -0.000000e+000  1.000000e+000
    outer loop
      vertex -3.929720e+000  9.852444e+000  3.000000e+000
      vertex -8.745397e-001  1.006979e+001  3.000000e+000
      vertex -2.730863e-001  1.035943e+001  3.000000e+000
    endloop
  endfacet
  facet normal  0.000000e+000  0.000000e+000  9.999999e-001
    outer loop
      vertex -3.929720e+000  9.852444e+000  3.000000e+000
      vertex -2.730863e-001  1.035943e+001  3.000000e+000
      vertex -3.531787e+000  1.087953e+001  3.000000e+000
    endloop
  endfacet
  facet normal  0.000000e+000  0.000000e+000  1.000000e+000
    outer loop
      vertex  4.070280e+000 -9.768500e+000  3.000000e+000
      vertex  1.560695e+000  8.897038e+000  3.000000e+000
      vertex  1.412148e+000  8.246213e+000  3.000000e+000
    endloop
  endfacet
  facet normal  0.000000e+000  0.000000e+000  1.000000e+000
    outer loop
      vertex  4.070280e+000 -9.768500e+000  3.000000e+000
      vertex  1.412148e+000  8.246213e+000  3.000000e+000
      vertex  9.959298e-001  7.724291e+000  3.000000e+000
    endloop
  endfacet
  facet normal  0.000000e+000  0.000000e+000  1.000000e+000
    outer loop
      vertex  4.070280e+000 -9.768500e+000  3.000000e+000
      vertex  9.959298e-001  7.724291e+000  3.000000e+000
      vertex  3.944765e-001  7.434646e+000  3.000000e+000
    endloop
  endfacet
  facet normal  0.000000e+000  0.000000e+000  1.000000e+000
    outer loop
      vertex  4.070280e+000 -9.768500e+000  3.000000e+000
      vertex  3.944765e-001  7.434646e+000  3.000000e+000
      vertex  9.959298e-001 -7.724291e+000  3.000000e+000
    endloop
  endfacet
  facet normal  0.000000e+000  0.000000e+000  1.000000e+000
    outer loop
      vertex  4.070280e+000 -9.768500e+000  3.000000e+000
      vertex  9.959298e-001 -7.724291e+000  3.000000e+000
      vertex  1.412148e+000 -8.246213e+000  3.000000e+000
    endloop
  endfacet
  facet normal  0.000000e+000  0.000000e+000  9.999999e-001
    outer loop
      vertex  4.070280e+000 -9.768500e+000  3.000000e+000
      vertex  1.412148e+000 -8.246213e+000  3.000000e+000
      vertex  1.560695e+000 -8.897038e+000  3.000000e+000
    endloop
  endfacet
  facet normal  0.000000e+000  0.000000e+000  9.999999e-001
    outer loop
      vertex  4.070280e+000 -9.768500e+000  3.000000e+000
      vertex  1.560695e+000 -8.897038e+000  3.000000e+000
      vertex  1.412148e+000 -9.547864e+000  3.000000e+000
    endloop
  endfacet
  facet normal  0.000000e+000  0.000000e+000  9.999999e-001
    outer loop
      vertex  4.070280e+000 -9.768500e+000  3.000000e+000
      vertex  1.412148e+000 -9.547864e+000  3.000000e+000
      vertex  9.959298e-001 -1.006979e+001  3.000000e+000
    endloop
  endfacet
  facet normal  -0.000000e+000  0.000000e+000  1.000000e+000
    outer loop
      vertex  4.070280e+000 -9.768500e+000  3.000000e+000
      vertex  9.959298e-001 -1.006979e+001  3.000000e+000
      vertex  3.693986e+000 -1.080371e+001  3.000000e+000
    endloop
  endfacet
  facet normal  0.000000e+000  0.000000e+000  1.000000e+000
    outer loop
      vertex  1.193651e+000 -1.284072e+001  3.000000e+000
      vertex  3.944765e-001 -1.035943e+001  3.000000e+000
      vertex  1.037474e-001 -1.300001e+001  3.000000e+000
    endloop
  endfacet
  facet normal  0.000000e+000  -0.000000e+000  1.000000e+000
    outer loop
      vertex  1.037474e-001 -1.300001e+001  3.000000e+000
      vertex  3.944765e-001 -1.035943e+001  3.000000e+000
      vertex -2.730863e-001 -1.035943e+001  3.000000e+000
    endloop
  endfacet
  facet normal  0.000000e+000  0.000000e+000  1.000000e+000
    outer loop
      vertex  1.037474e-001 -1.300001e+001  3.000000e+000
      vertex -2.730863e-001 -1.035943e+001  3.000000e+000
      vertex -9.892585e-001 -1.286363e+001  3.000000e+000
    endloop
  endfacet
  facet normal  0.000000e+000  -0.000000e+000  1.000000e+000
    outer loop
      vertex -9.892585e-001 -1.286363e+001  3.000000e+000
      vertex -2.730863e-001 -1.035943e+001  3.000000e+000
      vertex -3.531787e+000 -1.087953e+001  3.000000e+000
    endloop
  endfacet
  facet normal  0.000000e+000  0.000000e+000  9.999999e-001
    outer loop
      vertex -9.892585e-001 -1.286363e+001  3.000000e+000
      vertex -3.531787e+000 -1.087953e+001  3.000000e+000
      vertex -2.006602e+000 -1.244140e+001  3.000000e+000
    endloop
  endfacet
  facet normal  0.000000e+000  0.000000e+000  1.000000e+000
    outer loop
      vertex -2.006602e+000 -1.244140e+001  3.000000e+000
      vertex -3.531787e+000 -1.087953e+001  3.000000e+000
      vertex -2.874971e+000 -1.176376e+001  3.000000e+000
    endloop
  endfacet
  facet normal  0.000000e+000  0.000000e+000  1.000000e+000
    outer loop
      vertex -2.730863e-001  7.434646e+000  3.000000e+000
      vertex -2.730863e-001 -7.434646e+000  3.000000e+000
      vertex  3.944765e-001  7.434646e+000  3.000000e+000
    endloop
  endfacet
  facet normal  0.000000e+000  0.000000e+000  1.000000e+000
    outer loop
      vertex  3.944765e-001  7.434646e+000  3.000000e+000
      vertex -2.730863e-001 -7.434646e+000  3.000000e+000
      vertex  3.944765e-001 -7.434646e+000  3.000000e+000
    endloop
  endfacet
  facet normal  -0.000000e+000  0.000000e+000  1.000000e+000
    outer loop
      vertex  3.944765e-001  7.434646e+000  3.000000e+000
      vertex  3.944765e-001 -7.434646e+000  3.000000e+000
      vertex  9.959298e-001 -7.724291e+000  3.000000e+000
    endloop
  endfacet
  facet normal  0.000000e+000  0.000000e+000  1.000000e+000
    outer loop
      vertex -2.006602e+000  1.244140e+001  3.000000e+000
      vertex -2.874971e+000  1.176376e+001  3.000000e+000
      vertex -9.892585e-001  1.286363e+001  3.000000e+000
    endloop
  endfacet
  facet normal  0.000000e+000  0.000000e+000  9.999999e-001
    outer loop
      vertex -9.892585e-001  1.286363e+001  3.000000e+000
      vertex -2.874971e+000  1.176376e+001  3.000000e+000
      vertex -3.531787e+000  1.087953e+001  3.000000e+000
    endloop
  endfacet
  facet normal  0.000000e+000  0.000000e+000  1.000000e+000
    outer loop
      vertex -9.892585e-001  1.286363e+001  3.000000e+000
      vertex -3.531787e+000  1.087953e+001  3.000000e+000
      vertex  1.037474e-001  1.300001e+001  3.000000e+000
    endloop
  endfacet
  facet normal  0.000000e+000  0.000000e+000  1.000000e+000
    outer loop
      vertex  1.037474e-001  1.300001e+001  3.000000e+000
      vertex -3.531787e+000  1.087953e+001  3.000000e+000
      vertex -2.730863e-001  1.035943e+001  3.000000e+000
    endloop
  endfacet
  facet normal  0.000000e+000  0.000000e+000  1.000000e+000
    outer loop
      vertex  1.037474e-001  1.300001e+001  3.000000e+000
      vertex -2.730863e-001  1.035943e+001  3.000000e+000
      vertex  1.193651e+000  1.284072e+001  3.000000e+000
    endloop
  endfacet
  facet normal  0.000000e+000  0.000000e+000  1.000000e+000
    outer loop
      vertex  1.193651e+000  1.284072e+001  3.000000e+000
      vertex -2.730863e-001  1.035943e+001  3.000000e+000
      vertex  3.944765e-001  1.035943e+001  3.000000e+000
    endloop
  endfacet
  facet normal  0.000000e+000  0.000000e+000  1.000000e+000
    outer loop
      vertex  1.193651e+000  1.284072e+001  3.000000e+000
      vertex  3.944765e-001  1.035943e+001  3.000000e+000
      vertex  2.201910e+000  1.239724e+001  3.000000e+000
    endloop
  endfacet
  facet normal  0.000000e+000  0.000000e+000  1.000000e+000
    outer loop
      vertex  3.055869e+000  1.170153e+001  3.000000e+000
      vertex  2.201910e+000  1.239724e+001  3.000000e+000
      vertex  3.693986e+000  1.080371e+001  3.000000e+000
    endloop
  endfacet
  facet normal  0.000000e+000  0.000000e+000  1.000000e+000
    outer loop
      vertex  3.693986e+000  1.080371e+001  3.000000e+000
      vertex  2.201910e+000  1.239724e+001  3.000000e+000
      vertex  3.944765e-001  1.035943e+001  3.000000e+000
    endloop
  endfacet
  facet normal  0.000000e+000  -0.000000e+000 -1.000000e+000
    outer loop
      vertex -8.745397e-001 -7.724291e+000  0.000000e+000
      vertex -2.730863e-001  7.434646e+000  0.000000e+000
      vertex -2.730863e-001 -7.434646e+000  0.000000e+000
    endloop
  endfacet
  facet normal  0.000000e+000  0.000000e+000 -1.000000e+000
    outer loop
      vertex  4.070280e+000  9.768500e+000  0.000000e+000
      vertex  4.070280e+000 -9.768500e+000  0.000000e+000
      vertex  1.560695e+000  8.897038e+000  0.000000e+000
    endloop
  endfacet
  facet normal  0.000000e+000  0.000000e+000 -9.999999e-001
    outer loop
      vertex  4.070280e+000  9.768500e+000  0.000000e+000
      vertex  1.560695e+000  8.897038e+000  0.000000e+000
      vertex  1.412148e+000  9.547864e+000  0.000000e+000
    endloop
  endfacet
  facet normal  0.000000e+000  0.000000e+000 -9.999999e-001
    outer loop
      vertex  4.070280e+000  9.768500e+000  0.000000e+000
      vertex  1.412148e+000  9.547864e+000  0.000000e+000
      vertex  9.959298e-001  1.006979e+001  0.000000e+000
    endloop
  endfacet
  facet normal  0.000000e+000  0.000000e+000 -1.000000e+000
    outer loop
      vertex  4.070280e+000  9.768500e+000  0.000000e+000
      vertex  9.959298e-001  1.006979e+001  0.000000e+000
      vertex  3.944765e-001  1.035943e+001  0.000000e+000
    endloop
  endfacet
  facet normal  0.000000e+000  0.000000e+000 -1.000000e+000
    outer loop
      vertex  4.070280e+000  9.768500e+000  0.000000e+000
      vertex  3.944765e-001  1.035943e+001  0.000000e+000
      vertex  3.693986e+000  1.080371e+001  0.000000e+000
    endloop
  endfacet
  facet normal  0.000000e+000  -0.000000e+000 -1.000000e+000
    outer loop
      vertex  3.944765e-001 -1.035943e+001  0.000000e+000
      vertex  9.959298e-001 -1.006979e+001  0.000000e+000
      vertex  3.693986e+000 -1.080371e+001  0.000000e+000
    endloop
  endfacet
  facet normal  -0.000000e+000  0.000000e+000 -1.000000e+000
    outer loop
      vertex  3.944765e-001 -1.035943e+001  0.000000e+000
      vertex  3.693986e+000 -1.080371e+001  0.000000e+000
      vertex  3.055869e+000 -1.170153e+001  0.000000e+000
    endloop
  endfacet
  facet normal  -0.000000e+000  0.000000e+000 -9.999999e-001
    outer loop
      vertex  3.944765e-001 -1.035943e+001  0.000000e+000
      vertex  3.055869e+000 -1.170153e+001  0.000000e+000
      vertex  2.201910e+000 -1.239724e+001  0.000000e+000
    endloop
  endfacet
  facet normal  -0.000000e+000  0.000000e+000 -1.000000e+000
    outer loop
      vertex  3.944765e-001 -1.035943e+001  0.000000e+000
      vertex  2.201910e+000 -1.239724e+001  0.000000e+000
      vertex  1.193651e+000 -1.284072e+001  0.000000e+000
    endloop
  endfacet
  facet normal  0.000000e+000  -0.000000e+000 -9.999999e-001
    outer loop
      vertex -3.929720e+000 -9.852444e+000  0.000000e+000
      vertex -1.439305e+000  8.897038e+000  0.000000e+000
      vertex -1.290758e+000  8.246213e+000  0.000000e+000
    endloop
  endfacet
  facet normal  0.000000e+000  -0.000000e+000 -9.999999e-001
    outer loop
      vertex -3.929720e+000 -9.852444e+000  0.000000e+000
      vertex -1.290758e+000  8.246213e+000  0.000000e+000
      vertex -8.745397e-001  7.724291e+000  0.000000e+000
    endloop
  endfacet
  facet normal  0.000000e+000  -0.000000e+000 -1.000000e+000
    outer loop
      vertex -3.929720e+000 -9.852444e+000  0.000000e+000
      vertex -8.745397e-001  7.724291e+000  0.000000e+000
      vertex -2.730863e-001  7.434646e+000  0.000000e+000
    endloop
  endfacet
  facet normal  0.000000e+000  0.000000e+000 -1.000000e+000
    outer loop
      vertex -3.929720e+000 -9.852444e+000  0.000000e+000
      vertex -2.730863e-001  7.434646e+000  0.000000e+000
      vertex -8.745397e-001 -7.724291e+000  0.000000e+000
    endloop
  endfacet
  facet normal  0.000000e+000  0.000000e+000 -9.999999e-001
    outer loop
      vertex -3.929720e+000 -9.852444e+000  0.000000e+000
      vertex -8.745397e-001 -7.724291e+000  0.000000e+000
      vertex -1.290758e+000 -8.246213e+000  0.000000e+000
    endloop
  endfacet
  facet normal  0.000000e+000  0.000000e+000 -9.999999e-001
    outer loop
      vertex -3.929720e+000 -9.852444e+000  0.000000e+000
      vertex -1.290758e+000 -8.246213e+000  0.000000e+000
      vertex -1.439305e+000 -8.897038e+000  0.000000e+000
    endloop
  endfacet
  facet normal  0.000000e+000  -0.000000e+000 -1.000000e+000
    outer loop
      vertex -3.929720e+000 -9.852444e+000  0.000000e+000
      vertex -1.439305e+000 -8.897038e+000  0.000000e+000
      vertex -1.290758e+000 -9.547864e+000  0.000000e+000
    endloop
  endfacet
  facet normal  0.000000e+000  -0.000000e+000 -9.999999e-001
    outer loop
      vertex -3.929720e+000 -9.852444e+000  0.000000e+000
      vertex -1.290758e+000 -9.547864e+000  0.000000e+000
      vertex -8.745397e-001 -1.006979e+001  0.000000e+000
    endloop
  endfacet
  facet normal  -0.000000e+000  -0.000000e+000 -1.000000e+000
    outer loop
      vertex -3.929720e+000 -9.852444e+000  0.000000e+000
      vertex -8.745397e-001 -1.006979e+001  0.000000e+000
      vertex -2.730863e-001 -1.035943e+001  0.000000e+000
    endloop
  endfacet
  facet normal  -0.000000e+000  0.000000e+000 -9.999999e-001
    outer loop
      vertex -3.929720e+000 -9.852444e+000  0.000000e+000
      vertex -2.730863e-001 -1.035943e+001  0.000000e+000
      vertex -3.531787e+000 -1.087953e+001  0.000000e+000
    endloop
  endfacet
  facet normal  0.000000e+000  -0.000000e+000 -9.999999e-001
    outer loop
      vertex -3.929720e+000  9.852444e+000  0.000000e+000
      vertex -3.531787e+000  1.087953e+001  0.000000e+000
      vertex -2.730863e-001  1.035943e+001  0.000000e+000
    endloop
  endfacet
  facet normal  0.000000e+000  0.000000e+000 -1.000000e+000
    outer loop
      vertex -3.929720e+000  9.852444e+000  0.000000e+000
      vertex -2.730863e-001  1.035943e+001  0.000000e+000
      vertex -8.745397e-001  1.006979e+001  0.000000e+000
    endloop
  endfacet
  facet normal  0.000000e+000  0.000000e+000 -9.999999e-001
    outer loop
      vertex -3.929720e+000  9.852444e+000  0.000000e+000
      vertex -8.745397e-001  1.006979e+001  0.000000e+000
      vertex -1.290758e+000  9.547864e+000  0.000000e+000
    endloop
  endfacet
  facet normal  -0.000000e+000  0.000000e+000 -1.000000e+000
    outer loop
      vertex -3.929720e+000  9.852444e+000  0.000000e+000
      vertex -1.290758e+000  9.547864e+000  0.000000e+000
      vertex -1.439305e+000  8.897038e+000  0.000000e+000
    endloop
  endfacet
  facet normal  -0.000000e+000  0.000000e+000 -1.000000e+000
    outer loop
      vertex -3.929720e+000  9.852444e+000  0.000000e+000
      vertex -1.439305e+000  8.897038e+000  0.000000e+000
      vertex -3.929720e+000 -9.852444e+000  0.000000e+000
    endloop
  endfacet
  facet normal  0.000000e+000  0.000000e+000 -1.000000e+000
    outer loop
      vertex  4.070280e+000 -9.768500e+000  0.000000e+000
      vertex  3.693986e+000 -1.080371e+001  0.000000e+000
      vertex  9.959298e-001 -1.006979e+001  0.000000e+000
    endloop
  endfacet
  facet normal  0.000000e+000  0.000000e+000 -9.999999e-001
    outer loop
      vertex  4.070280e+000 -9.768500e+000  0.000000e+000
      vertex  9.959298e-001 -1.006979e+001  0.000000e+000
      vertex  1.412148e+000 -9.547864e+000  0.000000e+000
    endloop
  endfacet
  facet normal  0.000000e+000  0.000000e+000 -9.999999e-001
    outer loop
      vertex  4.070280e+000 -9.768500e+000  0.000000e+000
      vertex  1.412148e+000 -9.547864e+000  0.000000e+000
      vertex  1.560695e+000 -8.897038e+000  0.000000e+000
    endloop
  endfacet
  facet normal  0.000000e+000  0.000000e+000 -9.999999e-001
    outer loop
      vertex  4.070280e+000 -9.768500e+000  0.000000e+000
      vertex  1.560695e+000 -8.897038e+000  0.000000e+000
      vertex  1.412148e+000 -8.246213e+000  0.000000e+000
    endloop
  endfacet
  facet normal  0.000000e+000  0.000000e+000 -1.000000e+000
    outer loop
      vertex  4.070280e+000 -9.768500e+000  0.000000e+000
      vertex  1.412148e+000 -8.246213e+000  0.000000e+000
      vertex  9.959298e-001 -7.724291e+000  0.000000e+000
    endloop
  endfacet
  facet normal  0.000000e+000  0.000000e+000 -1.000000e+000
    outer loop
      vertex  4.070280e+000 -9.768500e+000  0.000000e+000
      vertex  9.959298e-001 -7.724291e+000  0.000000e+000
      vertex  3.944765e-001  7.434646e+000  0.000000e+000
    endloop
  endfacet
  facet normal  0.000000e+000  0.000000e+000 -1.000000e+000
    outer loop
      vertex  4.070280e+000 -9.768500e+000  0.000000e+000
      vertex  3.944765e-001  7.434646e+000  0.000000e+000
      vertex  9.959298e-001  7.724291e+000  0.000000e+000
    endloop
  endfacet
  facet normal  0.000000e+000  0.000000e+000 -1.000000e+000
    outer loop
      vertex  4.070280e+000 -9.768500e+000  0.000000e+000
      vertex  9.959298e-001  7.724291e+000  0.000000e+000
      vertex  1.412148e+000  8.246213e+000  0.000000e+000
    endloop
  endfacet
  facet normal  0.000000e+000  0.000000e+000 -1.000000e+000
    outer loop
      vertex  4.070280e+000 -9.768500e+000  0.000000e+000
      vertex  1.412148e+000  8.246213e+000  0.000000e+000
      vertex  1.560695e+000  8.897038e+000  0.000000e+000
    endloop
  endfacet
  facet normal  0.000000e+000  -0.000000e+000 -1.000000e+000
    outer loop
      vertex  1.037474e-001 -1.300001e+001  0.000000e+000
      vertex  3.944765e-001 -1.035943e+001  0.000000e+000
      vertex  1.193651e+000 -1.284072e+001  0.000000e+000
    endloop
  endfacet
  facet normal  0.000000e+000  0.000000e+000 -1.000000e+000
    outer loop
      vertex  3.944765e-001 -1.035943e+001  0.000000e+000
      vertex  1.037474e-001 -1.300001e+001  0.000000e+000
      vertex -2.730863e-001 -1.035943e+001  0.000000e+000
    endloop
  endfacet
  facet normal  0.000000e+000  -0.000000e+000 -1.000000e+000
    outer loop
      vertex -2.730863e-001 -1.035943e+001  0.000000e+000
      vertex  1.037474e-001 -1.300001e+001  0.000000e+000
      vertex -9.892585e-001 -1.286363e+001  0.000000e+000
    endloop
  endfacet
  facet normal  0.000000e+000  0.000000e+000 -1.000000e+000
    outer loop
      vertex -2.730863e-001 -1.035943e+001  0.000000e+000
      vertex -9.892585e-001 -1.286363e+001  0.000000e+000
      vertex -3.531787e+000 -1.087953e+001  0.000000e+000
    endloop
  endfacet
  facet normal  0.000000e+000  0.000000e+000 -9.999999e-001
    outer loop
      vertex -3.531787e+000 -1.087953e+001  0.000000e+000
      vertex -9.892585e-001 -1.286363e+001  0.000000e+000
      vertex -2.006602e+000 -1.244140e+001  0.000000e+000
    endloop
  endfacet
  facet normal  0.000000e+000  0.000000e+000 -1.000000e+000
    outer loop
      vertex -3.531787e+000 -1.087953e+001  0.000000e+000
      vertex -2.006602e+000 -1.244140e+001  0.000000e+000
      vertex -2.874971e+000 -1.176376e+001  0.000000e+000
    endloop
  endfacet
  facet normal  0.000000e+000  0.000000e+000 -1.000000e+000
    outer loop
      vertex  9.959298e-001 -7.724291e+000  0.000000e+000
      vertex  3.944765e-001 -7.434646e+000  0.000000e+000
      vertex  3.944765e-001  7.434646e+000  0.000000e+000
    endloop
  endfacet
  facet normal  0.000000e+000  -0.000000e+000 -1.000000e+000
    outer loop
      vertex  3.944765e-001  7.434646e+000  0.000000e+000
      vertex  3.944765e-001 -7.434646e+000  0.000000e+000
      vertex -2.730863e-001 -7.434646e+000  0.000000e+000
    endloop
  endfacet
  facet normal  0.000000e+000  0.000000e+000 -1.000000e+000
    outer loop
      vertex  3.944765e-001  7.434646e+000  0.000000e+000
      vertex -2.730863e-001 -7.434646e+000  0.000000e+000
      vertex -2.730863e-001  7.434646e+000  0.000000e+000
    endloop
  endfacet
  facet normal  0.000000e+000  0.000000e+000 -1.000000e+000
    outer loop
      vertex  2.201910e+000  1.239724e+001  0.000000e+000
      vertex  3.944765e-001  1.035943e+001  0.000000e+000
      vertex  1.193651e+000  1.284072e+001  0.000000e+000
    endloop
  endfacet
  facet normal  0.000000e+000  0.000000e+000 -1.000000e+000
    outer loop
      vertex  1.193651e+000  1.284072e+001  0.000000e+000
      vertex  3.944765e-001  1.035943e+001  0.000000e+000
      vertex -2.730863e-001  1.035943e+001  0.000000e+000
    endloop
  endfacet
  facet normal  0.000000e+000  0.000000e+000 -1.000000e+000
    outer loop
      vertex  1.193651e+000  1.284072e+001  0.000000e+000
      vertex -2.730863e-001  1.035943e+001  0.000000e+000
      vertex  1.037474e-001  1.300001e+001  0.000000e+000
    endloop
  endfacet
  facet normal  0.000000e+000  0.000000e+000 -1.000000e+000
    outer loop
      vertex  1.037474e-001  1.300001e+001  0.000000e+000
      vertex -2.730863e-001  1.035943e+001  0.000000e+000
      vertex -3.531787e+000  1.087953e+001  0.000000e+000
    endloop
  endfacet
  facet normal  0.000000e+000  0.000000e+000 -1.000000e+000
    outer loop
      vertex  1.037474e-001  1.300001e+001  0.000000e+000
      vertex -3.531787e+000  1.087953e+001  0.000000e+000
      vertex -9.892585e-001  1.286363e+001  0.000000e+000
    endloop
  endfacet
  facet normal  0.000000e+000  0.000000e+000 -9.999999e-001
    outer loop
      vertex -9.892585e-001  1.286363e+001  0.000000e+000
      vertex -3.531787e+000  1.087953e+001  0.000000e+000
      vertex -2.874971e+000  1.176376e+001  0.000000e+000
    endloop
  endfacet
  facet normal  0.000000e+000  0.000000e+000 -1.000000e+000
    outer loop
      vertex -9.892585e-001  1.286363e+001  0.000000e+000
      vertex -2.874971e+000  1.176376e+001  0.000000e+000
      vertex -2.006602e+000  1.244140e+001  0.000000e+000
    endloop
  endfacet
  facet normal  0.000000e+000  0.000000e+000 -1.000000e+000
    outer loop
      vertex  3.055869e+000  1.170153e+001  0.000000e+000
      vertex  3.693986e+000  1.080371e+001  0.000000e+000
      vertex  2.201910e+000  1.239724e+001  0.000000e+000
    endloop
  endfacet
  facet normal  0.000000e+000  -0.000000e+000 -1.000000e+000
    outer loop
      vertex  2.201910e+000  1.239724e+001  0.000000e+000
      vertex  3.693986e+000  1.080371e+001  0.000000e+000
      vertex  3.944765e-001  1.035943e+001  0.000000e+000
    endloop
  endfacet
  facet normal  4.338838e-001 -9.009688e-001  0.000000e+000
    outer loop
      vertex -2.730863e-001 -7.434646e+000  0.000000e+000
      vertex -8.745397e-001 -7.724291e+000  3.000000e+000
      vertex -8.745397e-001 -7.724291e+000  0.000000e+000
    endloop
  endfacet
  facet normal  7.818317e-001 -6.234894e-001  0.000000e+000
    outer loop
      vertex -8.745397e-001 -7.724291e+000  0.000000e+000
      vertex -8.745397e-001 -7.724291e+000  3.000000e+000
      vertex -1.290758e+000 -8.246213e+000  3.000000e+000
    endloop
  endfacet
  facet normal  7.818317e-001 -6.234894e-001  0.000000e+000
    outer loop
      vertex -8.745397e-001 -7.724291e+000  0.000000e+000
      vertex -1.290758e+000 -8.246213e+000  3.000000e+000
      vertex -1.290758e+000 -8.246213e+000  0.000000e+000
    endloop
  endfacet
  facet normal  9.749278e-001 -2.225209e-001  0.000000e+000
    outer loop
      vertex -1.290758e+000 -8.246213e+000  0.000000e+000
      vertex -1.290758e+000 -8.246213e+000  3.000000e+000
      vertex -1.439305e+000 -8.897038e+000  3.000000e+000
    endloop
  endfacet
  facet normal  9.749278e-001 -2.225209e-001  0.000000e+000
    outer loop
      vertex -1.290758e+000 -8.246213e+000  0.000000e+000
      vertex -1.439305e+000 -8.897038e+000  3.000000e+000
      vertex -1.439305e+000 -8.897038e+000  0.000000e+000
    endloop
  endfacet
  facet normal  4.338838e-001 -9.009688e-001  0.000000e+000
    outer loop
      vertex -8.745397e-001 -7.724291e+000  3.000000e+000
      vertex -2.730863e-001 -7.434646e+000  0.000000e+000
      vertex -2.730863e-001 -7.434646e+000  3.000000e+000
    endloop
  endfacet
  facet normal  0.000000e+000 -1.000000e+000  0.000000e+000
    outer loop
      vertex -2.730863e-001 -7.434646e+000  3.000000e+000
      vertex -2.730863e-001 -7.434646e+000  0.000000e+000
      vertex  3.944765e-001 -7.434646e+000  0.000000e+000
    endloop
  endfacet
  facet normal  0.000000e+000 -1.000000e+000  0.000000e+000
    outer loop
      vertex -2.730863e-001 -7.434646e+000  3.000000e+000
      vertex  3.944765e-001 -7.434646e+000  0.000000e+000
      vertex  3.944765e-001 -7.434646e+000  3.000000e+000
    endloop
  endfacet
  facet normal -4.338838e-001 -9.009688e-001  -0.000000e+000
    outer loop
      vertex  3.944765e-001 -7.434646e+000  3.000000e+000
      vertex  3.944765e-001 -7.434646e+000  0.000000e+000
      vertex  9.959298e-001 -7.724291e+000  0.000000e+000
    endloop
  endfacet
  facet normal -4.338838e-001 -9.009688e-001  0.000000e+000
    outer loop
      vertex  3.944765e-001 -7.434646e+000  3.000000e+000
      vertex  9.959298e-001 -7.724291e+000  0.000000e+000
      vertex  9.959298e-001 -7.724291e+000  3.000000e+000
    endloop
  endfacet
  facet normal -7.818317e-001 -6.234894e-001  -0.000000e+000
    outer loop
      vertex  9.959298e-001 -7.724291e+000  3.000000e+000
      vertex  9.959298e-001 -7.724291e+000  0.000000e+000
      vertex  1.412148e+000 -8.246213e+000  0.000000e+000
    endloop
  endfacet
  facet normal -7.818317e-001 -6.234894e-001  0.000000e+000
    outer loop
      vertex  9.959298e-001 -7.724291e+000  3.000000e+000
      vertex  1.412148e+000 -8.246213e+000  0.000000e+000
      vertex  1.412148e+000 -8.246213e+000  3.000000e+000
    endloop
  endfacet
  facet normal -9.749278e-001 -2.225209e-001  -0.000000e+000
    outer loop
      vertex  1.412148e+000 -8.246213e+000  3.000000e+000
      vertex  1.412148e+000 -8.246213e+000  0.000000e+000
      vertex  1.560695e+000 -8.897038e+000  0.000000e+000
    endloop
  endfacet
  facet normal -9.749278e-001 -2.225209e-001  0.000000e+000
    outer loop
      vertex  1.412148e+000 -8.246213e+000  3.000000e+000
      vertex  1.560695e+000 -8.897038e+000  0.000000e+000
      vertex  1.560695e+000 -8.897038e+000  3.000000e+000
    endloop
  endfacet
  facet normal -4.338844e-001  9.009686e-001  0.000000e+000
    outer loop
      vertex  3.944765e-001 -1.035943e+001  0.000000e+000
      vertex  9.959298e-001 -1.006979e+001  3.000000e+000
      vertex  9.959298e-001 -1.006979e+001  0.000000e+000
    endloop
  endfacet
  facet normal -7.818313e-001  6.234902e-001  0.000000e+000
    outer loop
      vertex  9.959298e-001 -1.006979e+001  0.000000e+000
      vertex  9.959298e-001 -1.006979e+001  3.000000e+000
      vertex  1.412148e+000 -9.547864e+000  3.000000e+000
    endloop
  endfacet
  facet normal -7.818313e-001  6.234902e-001  0.000000e+000
    outer loop
      vertex  9.959298e-001 -1.006979e+001  0.000000e+000
      vertex  1.412148e+000 -9.547864e+000  3.000000e+000
      vertex  1.412148e+000 -9.547864e+000  0.000000e+000
    endloop
  endfacet
  facet normal -9.749278e-001  2.225209e-001  0.000000e+000
    outer loop
      vertex  1.412148e+000 -9.547864e+000  0.000000e+000
      vertex  1.412148e+000 -9.547864e+000  3.000000e+000
      vertex  1.560695e+000 -8.897038e+000  3.000000e+000
    endloop
  endfacet
  facet normal -9.749278e-001  2.225209e-001  0.000000e+000
    outer loop
      vertex  1.412148e+000 -9.547864e+000  0.000000e+000
      vertex  1.560695e+000 -8.897038e+000  3.000000e+000
      vertex  1.560695e+000 -8.897038e+000  0.000000e+000
    endloop
  endfacet
  facet normal -4.338844e-001  9.009686e-001  0.000000e+000
    outer loop
      vertex  9.959298e-001 -1.006979e+001  3.000000e+000
      vertex  3.944765e-001 -1.035943e+001  0.000000e+000
      vertex  3.944765e-001 -1.035943e+001  3.000000e+000
    endloop
  endfacet
  facet normal  0.000000e+000  1.000000e+000  0.000000e+000
    outer loop
      vertex  3.944765e-001 -1.035943e+001  3.000000e+000
      vertex  3.944765e-001 -1.035943e+001  0.000000e+000
      vertex -2.730863e-001 -1.035943e+001  0.000000e+000
    endloop
  endfacet
  facet normal  0.000000e+000  1.000000e+000  0.000000e+000
    outer loop
      vertex  3.944765e-001 -1.035943e+001  3.000000e+000
      vertex -2.730863e-001 -1.035943e+001  0.000000e+000
      vertex -2.730863e-001 -1.035943e+001  3.000000e+000
    endloop
  endfacet
  facet normal  4.338844e-001  9.009686e-001  0.000000e+000
    outer loop
      vertex -2.730863e-001 -1.035943e+001  3.000000e+000
      vertex -2.730863e-001 -1.035943e+001  0.000000e+000
      vertex -8.745397e-001 -1.006979e+001  0.000000e+000
    endloop
  endfacet
  facet normal  4.338844e-001  9.009686e-001  -0.000000e+000
    outer loop
      vertex -2.730863e-001 -1.035943e+001  3.000000e+000
      vertex -8.745397e-001 -1.006979e+001  0.000000e+000
      vertex -8.745397e-001 -1.006979e+001  3.000000e+000
    endloop
  endfacet
  facet normal  7.818313e-001  6.234902e-001  0.000000e+000
    outer loop
      vertex -8.745397e-001 -1.006979e+001  3.000000e+000
      vertex -8.745397e-001 -1.006979e+001  0.000000e+000
      vertex -1.290758e+000 -9.547864e+000  0.000000e+000
    endloop
  endfacet
  facet normal  7.818313e-001  6.234902e-001  -0.000000e+000
    outer loop
      vertex -8.745397e-001 -1.006979e+001  3.000000e+000
      vertex -1.290758e+000 -9.547864e+000  0.000000e+000
      vertex -1.290758e+000 -9.547864e+000  3.000000e+000
    endloop
  endfacet
  facet normal  9.749278e-001  2.225209e-001  0.000000e+000
    outer loop
      vertex -1.290758e+000 -9.547864e+000  3.000000e+000
      vertex -1.290758e+000 -9.547864e+000  0.000000e+000
      vertex -1.439305e+000 -8.897038e+000  0.000000e+000
    endloop
  endfacet
  facet normal  9.749278e-001  2.225209e-001  -0.000000e+000
    outer loop
      vertex -1.290758e+000 -9.547864e+000  3.000000e+000
      vertex -1.439305e+000 -8.897038e+000  0.000000e+000
      vertex -1.439305e+000 -8.897038e+000  3.000000e+000
    endloop
  endfacet
  facet normal  4.338844e-001 -9.009686e-001  0.000000e+000
    outer loop
      vertex -2.730863e-001  1.035943e+001  0.000000e+000
      vertex -8.745397e-001  1.006979e+001  3.000000e+000
      vertex -8.745397e-001  1.006979e+001  0.000000e+000
    endloop
  endfacet
  facet normal  7.818313e-001 -6.234902e-001  0.000000e+000
    outer loop
      vertex -8.745397e-001  1.006979e+001  0.000000e+000
      vertex -8.745397e-001  1.006979e+001  3.000000e+000
      vertex -1.290758e+000  9.547864e+000  3.000000e+000
    endloop
  endfacet
  facet normal  7.818313e-001 -6.234902e-001  0.000000e+000
    outer loop
      vertex -8.745397e-001  1.006979e+001  0.000000e+000
      vertex -1.290758e+000  9.547864e+000  3.000000e+000
      vertex -1.290758e+000  9.547864e+000  0.000000e+000
    endloop
  endfacet
  facet normal  9.749278e-001 -2.225209e-001  0.000000e+000
    outer loop
      vertex -1.290758e+000  9.547864e+000  0.000000e+000
      vertex -1.290758e+000  9.547864e+000  3.000000e+000
      vertex -1.439305e+000  8.897038e+000  3.000000e+000
    endloop
  endfacet
  facet normal  9.749278e-001 -2.225209e-001  0.000000e+000
    outer loop
      vertex -1.290758e+000  9.547864e+000  0.000000e+000
      vertex -1.439305e+000  8.897038e+000  3.000000e+000
      vertex -1.439305e+000  8.897038e+000  0.000000e+000
    endloop
  endfacet
  facet normal  4.338844e-001 -9.009686e-001  0.000000e+000
    outer loop
      vertex -8.745397e-001  1.006979e+001  3.000000e+000
      vertex -2.730863e-001  1.035943e+001  0.000000e+000
      vertex -2.730863e-001  1.035943e+001  3.000000e+000
    endloop
  endfacet
  facet normal  0.000000e+000 -1.000000e+000  0.000000e+000
    outer loop
      vertex -2.730863e-001  1.035943e+001  3.000000e+000
      vertex -2.730863e-001  1.035943e+001  0.000000e+000
      vertex  3.944765e-001  1.035943e+001  0.000000e+000
    endloop
  endfacet
  facet normal  0.000000e+000 -1.000000e+000  0.000000e+000
    outer loop
      vertex -2.730863e-001  1.035943e+001  3.000000e+000
      vertex  3.944765e-001  1.035943e+001  0.000000e+000
      vertex  3.944765e-001  1.035943e+001  3.000000e+000
    endloop
  endfacet
  facet normal -4.338844e-001 -9.009686e-001  -0.000000e+000
    outer loop
      vertex  3.944765e-001  1.035943e+001  3.000000e+000
      vertex  3.944765e-001  1.035943e+001  0.000000e+000
      vertex  9.959298e-001  1.006979e+001  0.000000e+000
    endloop
  endfacet
  facet normal -4.338844e-001 -9.009686e-001  0.000000e+000
    outer loop
      vertex  3.944765e-001  1.035943e+001  3.000000e+000
      vertex  9.959298e-001  1.006979e+001  0.000000e+000
      vertex  9.959298e-001  1.006979e+001  3.000000e+000
    endloop
  endfacet
  facet normal -7.818313e-001 -6.234902e-001  -0.000000e+000
    outer loop
      vertex  9.959298e-001  1.006979e+001  3.000000e+000
      vertex  9.959298e-001  1.006979e+001  0.000000e+000
      vertex  1.412148e+000  9.547864e+000  0.000000e+000
    endloop
  endfacet
  facet normal -7.818313e-001 -6.234902e-001  0.000000e+000
    outer loop
      vertex  9.959298e-001  1.006979e+001  3.000000e+000
      vertex  1.412148e+000  9.547864e+000  0.000000e+000
      vertex  1.412148e+000  9.547864e+000  3.000000e+000
    endloop
  endfacet
  facet normal -9.749278e-001 -2.225209e-001  -0.000000e+000
    outer loop
      vertex  1.412148e+000  9.547864e+000  3.000000e+000
      vertex  1.412148e+000  9.547864e+000  0.000000e+000
      vertex  1.560695e+000  8.897038e+000  0.000000e+000
    endloop
  endfacet
  facet normal -9.749278e-001 -2.225209e-001  0.000000e+000
    outer loop
      vertex  1.412148e+000  9.547864e+000  3.000000e+000
      vertex  1.560695e+000  8.897038e+000  0.000000e+000
      vertex  1.560695e+000  8.897038e+000  3.000000e+000
    endloop
  endfacet
  facet normal -4.338838e-001  9.009688e-001  0.000000e+000
    outer loop
      vertex  3.944765e-001  7.434646e+000  0.000000e+000
      vertex  9.959298e-001  7.724291e+000  3.000000e+000
      vertex  9.959298e-001  7.724291e+000  0.000000e+000
    endloop
  endfacet
  facet normal -7.818317e-001  6.234894e-001  0.000000e+000
    outer loop
      vertex  9.959298e-001  7.724291e+000  0.000000e+000
      vertex  9.959298e-001  7.724291e+000  3.000000e+000
      vertex  1.412148e+000  8.246213e+000  3.000000e+000
    endloop
  endfacet
  facet normal -7.818317e-001  6.234894e-001  0.000000e+000
    outer loop
      vertex  9.959298e-001  7.724291e+000  0.000000e+000
      vertex  1.412148e+000  8.246213e+000  3.000000e+000
      vertex  1.412148e+000  8.246213e+000  0.000000e+000
    endloop
  endfacet
  facet normal -9.749278e-001  2.225209e-001  0.000000e+000
    outer loop
      vertex  1.412148e+000  8.246213e+000  0.000000e+000
      vertex  1.412148e+000  8.246213e+000  3.000000e+000
      vertex  1.560695e+000  8.897038e+000  3.000000e+000
    endloop
  endfacet
  facet normal -9.749278e-001  2.225209e-001  0.000000e+000
    outer loop
      vertex  1.412148e+000  8.246213e+000  0.000000e+000
      vertex  1.560695e+000  8.897038e+000  3.000000e+000
      vertex  1.560695e+000  8.897038e+000  0.000000e+000
    endloop
  endfacet
  facet normal -4.338838e-001  9.009688e-001  0.000000e+000
    outer loop
      vertex  9.959298e-001  7.724291e+000  3.000000e+000
      vertex  3.944765e-001  7.434646e+000  0.000000e+000
      vertex  3.944765e-001  7.434646e+000  3.000000e+000
    endloop
  endfacet
  facet normal  0.000000e+000  1.000000e+000  0.000000e+000
    outer loop
      vertex  3.944765e-001  7.434646e+000  3.000000e+000
      vertex  3.944765e-001  7.434646e+000  0.000000e+000
      vertex -2.730863e-001  7.434646e+000  0.000000e+000
    endloop
  endfacet
  facet normal  0.000000e+000  1.000000e+000  0.000000e+000
    outer loop
      vertex  3.944765e-001  7.434646e+000  3.000000e+000
      vertex -2.730863e-001  7.434646e+000  0.000000e+000
      vertex -2.730863e-001  7.434646e+000  3.000000e+000
    endloop
  endfacet
  facet normal  4.338838e-001  9.009688e-001  0.000000e+000
    outer loop
      vertex -2.730863e-001  7.434646e+000  3.000000e+000
      vertex -2.730863e-001  7.434646e+000  0.000000e+000
      vertex -8.745397e-001  7.724291e+000  0.000000e+000
    endloop
  endfacet
  facet normal  4.338838e-001  9.009688e-001  -0.000000e+000
    outer loop
      vertex -2.730863e-001  7.434646e+000  3.000000e+000
      vertex -8.745397e-001  7.724291e+000  0.000000e+000
      vertex -8.745397e-001  7.724291e+000  3.000000e+000
    endloop
  endfacet
  facet normal  7.818317e-001  6.234894e-001  0.000000e+000
    outer loop
      vertex -8.745397e-001  7.724291e+000  3.000000e+000
      vertex -8.745397e-001  7.724291e+000  0.000000e+000
      vertex -1.290758e+000  8.246213e+000  0.000000e+000
    endloop
  endfacet
  facet normal  7.818317e-001  6.234894e-001  -0.000000e+000
    outer loop
      vertex -8.745397e-001  7.724291e+000  3.000000e+000
      vertex -1.290758e+000  8.246213e+000  0.000000e+000
      vertex -1.290758e+000  8.246213e+000  3.000000e+000
    endloop
  endfacet
  facet normal  9.749278e-001  2.225209e-001  0.000000e+000
    outer loop
      vertex -1.290758e+000  8.246213e+000  3.000000e+000
      vertex -1.290758e+000  8.246213e+000  0.000000e+000
      vertex -1.439305e+000  8.897038e+000  0.000000e+000
    endloop
  endfacet
  facet normal  9.749278e-001  2.225209e-001  -0.000000e+000
    outer loop
      vertex -1.290758e+000  8.246213e+000  3.000000e+000
      vertex -1.439305e+000  8.897038e+000  0.000000e+000
      vertex -1.439305e+000  8.897038e+000  3.000000e+000
    endloop
  endfacet
  facet normal  1.000000e+000  0.000000e+000  0.000000e+000
    outer loop
      vertex  4.070280e+000 -9.768500e+000  3.000000e+000
      vertex  4.070280e+000 -9.768500e+000  0.000000e+000
      vertex  4.070280e+000  9.768500e+000  3.000000e+000
    endloop
  endfacet
  facet normal  1.000000e+000  0.000000e+000  0.000000e+000
    outer loop
      vertex  4.070280e+000  9.768500e+000  3.000000e+000
      vertex  4.070280e+000 -9.768500e+000  0.000000e+000
      vertex  4.070280e+000  9.768500e+000  0.000000e+000
    endloop
  endfacet
  facet normal  9.398364e-001 -3.416246e-001  0.000000e+000
    outer loop
      vertex  4.070280e+000 -9.768500e+000  0.000000e+000
      vertex  4.070280e+000 -9.768500e+000  3.000000e+000
      vertex  3.693986e+000 -1.080371e+001  0.000000e+000
    endloop
  endfacet
  facet normal  9.398364e-001 -3.416246e-001  0.000000e+000
    outer loop
      vertex  3.693986e+000 -1.080371e+001  0.000000e+000
      vertex  4.070280e+000 -9.768500e+000  3.000000e+000
      vertex  3.693986e+000 -1.080371e+001  3.000000e+000
    endloop
  endfacet
  facet normal  8.150955e-001 -5.793267e-001  0.000000e+000
    outer loop
      vertex  3.693986e+000 -1.080371e+001  0.000000e+000
      vertex  3.693986e+000 -1.080371e+001  3.000000e+000
      vertex  3.055869e+000 -1.170153e+001  0.000000e+000
    endloop
  endfacet
  facet normal  8.150955e-001 -5.793267e-001  0.000000e+000
    outer loop
      vertex  3.055869e+000 -1.170153e+001  0.000000e+000
      vertex  3.693986e+000 -1.080371e+001  3.000000e+000
      vertex  3.055869e+000 -1.170153e+001  3.000000e+000
    endloop
  endfacet
  facet normal  6.316164e-001 -7.752811e-001  0.000000e+000
    outer loop
      vertex  3.055869e+000 -1.170153e+001  0.000000e+000
      vertex  3.055869e+000 -1.170153e+001  3.000000e+000
      vertex  2.201910e+000 -1.239724e+001  0.000000e+000
    endloop
  endfacet
  facet normal  6.316164e-001 -7.752811e-001  0.000000e+000
    outer loop
      vertex  2.201910e+000 -1.239724e+001  0.000000e+000
      vertex  3.055869e+000 -1.170153e+001  3.000000e+000
      vertex  2.201910e+000 -1.239724e+001  3.000000e+000
    endloop
  endfacet
  facet normal  4.026217e-001 -9.153665e-001  0.000000e+000
    outer loop
      vertex  2.201910e+000 -1.239724e+001  0.000000e+000
      vertex  2.201910e+000 -1.239724e+001  3.000000e+000
      vertex  1.193651e+000 -1.284072e+001  0.000000e+000
    endloop
  endfacet
  facet normal  4.026217e-001 -9.153665e-001  0.000000e+000
    outer loop
      vertex  1.193651e+000 -1.284072e+001  0.000000e+000
      vertex  2.201910e+000 -1.239724e+001  3.000000e+000
      vertex  1.193651e+000 -1.284072e+001  3.000000e+000
    endloop
  endfacet
  facet normal  1.446120e-001 -9.894885e-001  0.000000e+000
    outer loop
      vertex  1.193651e+000 -1.284072e+001  0.000000e+000
      vertex  1.193651e+000 -1.284072e+001  3.000000e+000
      vertex  1.037474e-001 -1.300001e+001  0.000000e+000
    endloop
  endfacet
  facet normal  1.446120e-001 -9.894885e-001  0.000000e+000
    outer loop
      vertex  1.037474e-001 -1.300001e+001  0.000000e+000
      vertex  1.193651e+000 -1.284072e+001  3.000000e+000
      vertex  1.037474e-001 -1.300001e+001  3.000000e+000
    endloop
  endfacet
  facet normal -1.238169e-001 -9.923051e-001  -0.000000e+000
    outer loop
      vertex  1.037474e-001 -1.300001e+001  0.000000e+000
      vertex  1.037474e-001 -1.300001e+001  3.000000e+000
      vertex -9.892585e-001 -1.286363e+001  0.000000e+000
    endloop
  endfacet
  facet normal -1.238169e-001 -9.923051e-001  0.000000e+000
    outer loop
      vertex -9.892585e-001 -1.286363e+001  0.000000e+000
      vertex  1.037474e-001 -1.300001e+001  3.000000e+000
      vertex -9.892585e-001 -1.286363e+001  3.000000e+000
    endloop
  endfacet
  facet normal -3.833253e-001 -9.236134e-001  -0.000000e+000
    outer loop
      vertex -9.892585e-001 -1.286363e+001  0.000000e+000
      vertex -9.892585e-001 -1.286363e+001  3.000000e+000
      vertex -2.006602e+000 -1.244140e+001  0.000000e+000
    endloop
  endfacet
  facet normal -3.833253e-001 -9.236134e-001  0.000000e+000
    outer loop
      vertex -2.006602e+000 -1.244140e+001  0.000000e+000
      vertex -9.892585e-001 -1.286363e+001  3.000000e+000
      vertex -2.006602e+000 -1.244140e+001  3.000000e+000
    endloop
  endfacet
  facet normal -6.152092e-001 -7.883639e-001  -0.000000e+000
    outer loop
      vertex -2.006602e+000 -1.244140e+001  0.000000e+000
      vertex -2.006602e+000 -1.244140e+001  3.000000e+000
      vertex -2.874971e+000 -1.176376e+001  0.000000e+000
    endloop
  endfacet
  facet normal -6.152092e-001 -7.883639e-001  0.000000e+000
    outer loop
      vertex -2.874971e+000 -1.176376e+001  0.000000e+000
      vertex -2.006602e+000 -1.244140e+001  3.000000e+000
      vertex -2.874971e+000 -1.176376e+001  3.000000e+000
    endloop
  endfacet
  facet normal -8.027595e-001 -5.963029e-001  -0.000000e+000
    outer loop
      vertex -2.874971e+000 -1.176376e+001  0.000000e+000
      vertex -2.874971e+000 -1.176376e+001  3.000000e+000
      vertex -3.531787e+000 -1.087953e+001  0.000000e+000
    endloop
  endfacet
  facet normal -8.027595e-001 -5.963029e-001  0.000000e+000
    outer loop
      vertex -3.531787e+000 -1.087953e+001  0.000000e+000
      vertex -2.874971e+000 -1.176376e+001  3.000000e+000
      vertex -3.531787e+000 -1.087953e+001  3.000000e+000
    endloop
  endfacet
  facet normal -9.324610e-001 -3.612705e-001  -0.000000e+000
    outer loop
      vertex -3.531787e+000 -1.087953e+001  0.000000e+000
      vertex -3.531787e+000 -1.087953e+001  3.000000e+000
      vertex -3.929720e+000 -9.852444e+000  0.000000e+000
    endloop
  endfacet
  facet normal -9.324610e-001 -3.612705e-001  0.000000e+000
    outer loop
      vertex -3.929720e+000 -9.852444e+000  0.000000e+000
      vertex -3.531787e+000 -1.087953e+001  3.000000e+000
      vertex -3.929720e+000 -9.852444e+000  3.000000e+000
    endloop
  endfacet
  facet normal -1.000000e+000  0.000000e+000  0.000000e+000
    outer loop
      vertex -3.929720e+000  9.852444e+000  3.000000e+000
      vertex -3.929720e+000  9.852444e+000  0.000000e+000
      vertex -3.929720e+000 -9.852444e+000  3.000000e+000
    endloop
  endfacet
  facet normal -1.000000e+000  0.000000e+000  0.000000e+000
    outer loop
      vertex -3.929720e+000 -9.852444e+000  3.000000e+000
      vertex -3.929720e+000  9.852444e+000  0.000000e+000
      vertex -3.929720e+000 -9.852444e+000  0.000000e+000
    endloop
  endfacet
  facet normal -9.324610e-001  3.612705e-001  0.000000e+000
    outer loop
      vertex -3.929720e+000  9.852444e+000  0.000000e+000
      vertex -3.929720e+000  9.852444e+000  3.000000e+000
      vertex -3.531787e+000  1.087953e+001  0.000000e+000
    endloop
  endfacet
  facet normal -9.324610e-001  3.612705e-001  0.000000e+000
    outer loop
      vertex -3.531787e+000  1.087953e+001  0.000000e+000
      vertex -3.929720e+000  9.852444e+000  3.000000e+000
      vertex -3.531787e+000  1.087953e+001  3.000000e+000
    endloop
  endfacet
  facet normal -8.027595e-001  5.963029e-001  0.000000e+000
    outer loop
      vertex -3.531787e+000  1.087953e+001  0.000000e+000
      vertex -3.531787e+000  1.087953e+001  3.000000e+000
      vertex -2.874971e+000  1.176376e+001  0.000000e+000
    endloop
  endfacet
  facet normal -8.027595e-001  5.963029e-001  0.000000e+000
    outer loop
      vertex -2.874971e+000  1.176376e+001  0.000000e+000
      vertex -3.531787e+000  1.087953e+001  3.000000e+000
      vertex -2.874971e+000  1.176376e+001  3.000000e+000
    endloop
  endfacet
  facet normal -6.152092e-001  7.883639e-001  0.000000e+000
    outer loop
      vertex -2.874971e+000  1.176376e+001  0.000000e+000
      vertex -2.874971e+000  1.176376e+001  3.000000e+000
      vertex -2.006602e+000  1.244140e+001  0.000000e+000
    endloop
  endfacet
  facet normal -6.152092e-001  7.883639e-001  0.000000e+000
    outer loop
      vertex -2.006602e+000  1.244140e+001  0.000000e+000
      vertex -2.874971e+000  1.176376e+001  3.000000e+000
      vertex -2.006602e+000  1.244140e+001  3.000000e+000
    endloop
  endfacet
  facet normal -3.833253e-001  9.236134e-001  0.000000e+000
    outer loop
      vertex -2.006602e+000  1.244140e+001  0.000000e+000
      vertex -2.006602e+000  1.244140e+001  3.000000e+000
      vertex -9.892585e-001  1.286363e+001  0.000000e+000
    endloop
  endfacet
  facet normal -3.833253e-001  9.236134e-001  0.000000e+000
    outer loop
      vertex -9.892585e-001  1.286363e+001  0.000000e+000
      vertex -2.006602e+000  1.244140e+001  3.000000e+000
      vertex -9.892585e-001  1.286363e+001  3.000000e+000
    endloop
  endfacet
  facet normal -1.238169e-001  9.923051e-001  0.000000e+000
    outer loop
      vertex -9.892585e-001  1.286363e+001  0.000000e+000
      vertex -9.892585e-001  1.286363e+001  3.000000e+000
      vertex  1.037474e-001  1.300001e+001  0.000000e+000
    endloop
  endfacet
  facet normal -1.238169e-001  9.923051e-001  0.000000e+000
    outer loop
      vertex  1.037474e-001  1.300001e+001  0.000000e+000
      vertex -9.892585e-001  1.286363e+001  3.000000e+000
      vertex  1.037474e-001  1.300001e+001  3.000000e+000
    endloop
  endfacet
  facet normal  1.446120e-001  9.894885e-001  0.000000e+000
    outer loop
      vertex  1.037474e-001  1.300001e+001  0.000000e+000
      vertex  1.037474e-001  1.300001e+001  3.000000e+000
      vertex  1.193651e+000  1.284072e+001  0.000000e+000
    endloop
  endfacet
  facet normal  1.446120e-001  9.894885e-001  -0.000000e+000
    outer loop
      vertex  1.193651e+000  1.284072e+001  0.000000e+000
      vertex  1.037474e-001  1.300001e+001  3.000000e+000
      vertex  1.193651e+000  1.284072e+001  3.000000e+000
    endloop
  endfacet
  facet normal  4.026217e-001  9.153665e-001  0.000000e+000
    outer loop
      vertex  1.193651e+000  1.284072e+001  0.000000e+000
      vertex  1.193651e+000  1.284072e+001  3.000000e+000
      vertex  2.201910e+000  1.239724e+001  0.000000e+000
    endloop
  endfacet
  facet normal  4.026217e-001  9.153665e-001  -0.000000e+000
    outer loop
      vertex  2.201910e+000  1.239724e+001  0.000000e+000
      vertex  1.193651e+000  1.284072e+001  3.000000e+000
      vertex  2.201910e+000  1.239724e+001  3.000000e+000
    endloop
  endfacet
  facet normal  6.316164e-001  7.752811e-001  0.000000e+000
    outer loop
      vertex  2.201910e+000  1.239724e+001  0.000000e+000
      vertex  2.201910e+000  1.239724e+001  3.000000e+000
      vertex  3.055869e+000  1.170153e+001  0.000000e+000
    endloop
  endfacet
  facet normal  6.316164e-001  7.752811e-001  -0.000000e+000
    outer loop
      vertex  3.055869e+000  1.170153e+001  0.000000e+000
      vertex  2.201910e+000  1.239724e+001  3.000000e+000
      vertex  3.055869e+000  1.170153e+001  3.000000e+000
    endloop
  endfacet
  facet normal  8.150955e-001  5.793267e-001  0.000000e+000
    outer loop
      vertex  3.055869e+000  1.170153e+001  0.000000e+000
      vertex  3.055869e+000  1.170153e+001  3.000000e+000
      vertex  3.693986e+000  1.080371e+001  0.000000e+000
    endloop
  endfacet
  facet normal  8.150955e-001  5.793267e-001  -0.000000e+000
    outer loop
      vertex  3.693986e+000  1.080371e+001  0.000000e+000
      vertex  3.055869e+000  1.170153e+001  3.000000e+000
      vertex  3.693986e+000  1.080371e+001  3.000000e+000
    endloop
  endfacet
  facet normal  9.398364e-001  3.416246e-001  0.000000e+000
    outer loop
      vertex  3.693986e+000  1.080371e+001  0.000000e+000
      vertex  3.693986e+000  1.080371e+001  3.000000e+000
      vertex  4.070280e+000  9.768500e+000  0.000000e+000
    endloop
  endfacet
  facet normal  9.398364e-001  3.416246e-001  -0.000000e+000
    outer loop
      vertex  4.070280e+000  9.768500e+000  0.000000e+000
      vertex  3.693986e+000  1.080371e+001  3.000000e+000
      vertex  4.070280e+000  9.768500e+000  3.000000e+000
    endloop
  endfacet
endsolid CATIA STL
