solid CATIA STL
  facet normal  -0.000000e+000 -1.000000e+000  -0.000000e+000
    outer loop
      vertex  2.950000e+001 -6.481941e+000 -1.695658e+000
      vertex  2.950000e+001 -6.481941e+000  4.179518e+000
      vertex  2.488077e+001 -6.481941e+000  4.179518e+000
    endloop
  endfacet
  facet normal  -0.000000e+000 -1.000000e+000  0.000000e+000
    outer loop
      vertex  2.295650e+001 -6.481941e+000  4.179518e+000
      vertex  2.413234e+001 -6.481941e+000  4.894546e+000
      vertex  2.376830e+001 -6.481941e+000  4.894546e+000
    endloop
  endfacet
  facet normal  0.000000e+000 -1.000000e+000  0.000000e+000
    outer loop
      vertex  2.488077e+001 -6.481941e+000  4.179518e+000
      vertex  2.413234e+001 -6.481941e+000  4.894546e+000
      vertex  2.950000e+001 -6.481941e+000 -1.695658e+000
    endloop
  endfacet
  facet normal  0.000000e+000 -1.000000e+000  0.000000e+000
    outer loop
      vertex  2.950000e+001 -6.481941e+000 -1.695658e+000
      vertex  2.413234e+001 -6.481941e+000  4.894546e+000
      vertex  2.295650e+001 -6.481941e+000  4.179518e+000
    endloop
  endfacet
  facet normal  0.000000e+000 -1.000000e+000  -0.000000e+000
    outer loop
      vertex  2.950000e+001 -6.481941e+000 -1.695658e+000
      vertex  2.295650e+001 -6.481941e+000  4.179518e+000
      vertex  0.000000e+000 -6.481941e+000 -1.695658e+000
    endloop
  endfacet
  facet normal  0.000000e+000 -1.000000e+000  0.000000e+000
    outer loop
      vertex  0.000000e+000 -6.481941e+000 -1.695658e+000
      vertex  2.295650e+001 -6.481941e+000  4.179518e+000
      vertex  0.000000e+000 -6.481941e+000  4.179518e+000
    endloop
  endfacet
  facet normal  -0.000000e+000  1.000000e+000  0.000000e+000
    outer loop
      vertex  2.950000e+001 -4.146723e+000 -1.695658e+000
      vertex  2.488077e+001 -4.146723e+000  4.179518e+000
      vertex  2.950000e+001 -4.146723e+000  4.179518e+000
    endloop
  endfacet
  facet normal  0.000000e+000  1.000000e+000  0.000000e+000
    outer loop
      vertex  2.376830e+001 -4.146723e+000  4.894546e+000
      vertex  2.413234e+001 -4.146723e+000  4.894546e+000
      vertex  2.295650e+001 -4.146723e+000  4.179518e+000
    endloop
  endfacet
  facet normal  0.000000e+000  1.000000e+000  0.000000e+000
    outer loop
      vertex  2.488077e+001 -4.146723e+000  4.179518e+000
      vertex  2.950000e+001 -4.146723e+000 -1.695658e+000
      vertex  2.413234e+001 -4.146723e+000  4.894546e+000
    endloop
  endfacet
  facet normal  0.000000e+000  1.000000e+000  0.000000e+000
    outer loop
      vertex  2.413234e+001 -4.146723e+000  4.894546e+000
      vertex  2.950000e+001 -4.146723e+000 -1.695658e+000
      vertex  2.295650e+001 -4.146723e+000  4.179518e+000
    endloop
  endfacet
  facet normal  0.000000e+000  1.000000e+000  0.000000e+000
    outer loop
      vertex  2.950000e+001 -4.146723e+000 -1.695658e+000
      vertex  0.000000e+000 -4.146723e+000 -1.695658e+000
      vertex  2.295650e+001 -4.146723e+000  4.179518e+000
    endloop
  endfacet
  facet normal  0.000000e+000  1.000000e+000  0.000000e+000
    outer loop
      vertex  2.295650e+001 -4.146723e+000  4.179518e+000
      vertex  0.000000e+000 -4.146723e+000 -1.695658e+000
      vertex  0.000000e+000 -4.146723e+000  4.179518e+000
    endloop
  endfacet
  facet normal  -0.000000e+000  0.000000e+000  1.000000e+000
    outer loop
      vertex  2.950000e+001 -4.146723e+000  4.179518e+000
      vertex  2.488077e+001 -4.146723e+000  4.179518e+000
      vertex  2.950000e+001 -6.481941e+000  4.179518e+000
    endloop
  endfacet
  facet normal  0.000000e+000  0.000000e+000  1.000000e+000
    outer loop
      vertex  2.950000e+001 -6.481941e+000  4.179518e+000
      vertex  2.488077e+001 -4.146723e+000  4.179518e+000
      vertex  2.488077e+001 -6.481941e+000  4.179518e+000
    endloop
  endfacet
  facet normal  -0.000000e+000  0.000000e+000  9.999999e-001
    outer loop
      vertex  2.295650e+001 -4.146723e+000  4.179518e+000
      vertex  0.000000e+000 -4.146723e+000  4.179518e+000
      vertex  2.295650e+001 -6.481941e+000  4.179518e+000
    endloop
  endfacet
  facet normal  0.000000e+000  0.000000e+000  9.999999e-001
    outer loop
      vertex  2.295650e+001 -6.481941e+000  4.179518e+000
      vertex  0.000000e+000 -4.146723e+000  4.179518e+000
      vertex  0.000000e+000 -6.481941e+000  4.179518e+000
    endloop
  endfacet
  facet normal -6.609641e-001  0.000000e+000  7.504175e-001
    outer loop
      vertex  2.295650e+001 -6.481941e+000  4.179518e+000
      vertex  2.376830e+001 -6.481941e+000  4.894546e+000
      vertex  2.295650e+001 -4.146723e+000  4.179518e+000
    endloop
  endfacet
  facet normal -6.609641e-001  0.000000e+000  7.504175e-001
    outer loop
      vertex  2.295650e+001 -4.146723e+000  4.179518e+000
      vertex  2.376830e+001 -6.481941e+000  4.894546e+000
      vertex  2.376830e+001 -4.146723e+000  4.894546e+000
    endloop
  endfacet
  facet normal  6.907886e-001  0.000000e+000  7.230568e-001
    outer loop
      vertex  2.413234e+001 -6.481941e+000  4.894546e+000
      vertex  2.488077e+001 -6.481941e+000  4.179518e+000
      vertex  2.413234e+001 -4.146723e+000  4.894546e+000
    endloop
  endfacet
  facet normal  6.907886e-001  0.000000e+000  7.230568e-001
    outer loop
      vertex  2.413234e+001 -4.146723e+000  4.894546e+000
      vertex  2.488077e+001 -6.481941e+000  4.179518e+000
      vertex  2.488077e+001 -4.146723e+000  4.179518e+000
    endloop
  endfacet
  facet normal  0.000000e+000  0.000000e+000  1.000000e+000
    outer loop
      vertex  2.376830e+001 -6.481941e+000  4.894546e+000
      vertex  2.413234e+001 -6.481941e+000  4.894546e+000
      vertex  2.376830e+001 -4.146723e+000  4.894546e+000
    endloop
  endfacet
  facet normal  -0.000000e+000  0.000000e+000  1.000000e+000
    outer loop
      vertex  2.376830e+001 -4.146723e+000  4.894546e+000
      vertex  2.413234e+001 -6.481941e+000  4.894546e+000
      vertex  2.413234e+001 -4.146723e+000  4.894546e+000
    endloop
  endfacet
  facet normal  1.000000e+000  0.000000e+000  0.000000e+000
    outer loop
      vertex  2.950000e+001 -4.146723e+000 -1.695658e+000
      vertex  2.950000e+001 -4.146723e+000  4.179518e+000
      vertex  2.950000e+001 -6.481941e+000 -1.695658e+000
    endloop
  endfacet
  facet normal  1.000000e+000  0.000000e+000  0.000000e+000
    outer loop
      vertex  2.950000e+001 -6.481941e+000 -1.695658e+000
      vertex  2.950000e+001 -4.146723e+000  4.179518e+000
      vertex  2.950000e+001 -6.481941e+000  4.179518e+000
    endloop
  endfacet
  facet normal -1.000000e+000  0.000000e+000  0.000000e+000
    outer loop
      vertex  0.000000e+000 -6.481941e+000 -1.695658e+000
      vertex  0.000000e+000 -6.481941e+000  4.179518e+000
      vertex  0.000000e+000 -4.146723e+000 -1.695658e+000
    endloop
  endfacet
  facet normal -1.000000e+000  0.000000e+000  0.000000e+000
    outer loop
      vertex  0.000000e+000 -4.146723e+000 -1.695658e+000
      vertex  0.000000e+000 -6.481941e+000  4.179518e+000
      vertex  0.000000e+000 -4.146723e+000  4.179518e+000
    endloop
  endfacet
  facet normal  -0.000000e+000  0.000000e+000 -1.000000e+000
    outer loop
      vertex  0.000000e+000 -4.146723e+000 -1.695658e+000
      vertex  2.950000e+001 -4.146723e+000 -1.695658e+000
      vertex  0.000000e+000 -6.481941e+000 -1.695658e+000
    endloop
  endfacet
  facet normal  0.000000e+000  0.000000e+000 -1.000000e+000
    outer loop
      vertex  0.000000e+000 -6.481941e+000 -1.695658e+000
      vertex  2.950000e+001 -4.146723e+000 -1.695658e+000
      vertex  2.950000e+001 -6.481941e+000 -1.695658e+000
    endloop
  endfacet
  facet normal -1.000000e+000  0.000000e+000  0.000000e+000
    outer loop
      vertex  0.000000e+000 -8.739129e+000  5.796772e+000
      vertex  0.000000e+000 -1.073913e+001  5.796772e+000
      vertex  0.000000e+000 -1.073913e+001  8.296772e+000
    endloop
  endfacet
  facet normal -1.000000e+000  0.000000e+000  0.000000e+000
    outer loop
      vertex  0.000000e+000 -8.739129e+000  5.796772e+000
      vertex  0.000000e+000 -1.073913e+001  8.296772e+000
      vertex  0.000000e+000 -7.391291e-001  8.296772e+000
    endloop
  endfacet
  facet normal -9.999999e-001  0.000000e+000  0.000000e+000
    outer loop
      vertex  0.000000e+000 -8.739129e+000  5.796772e+000
      vertex  0.000000e+000 -7.391291e-001  8.296772e+000
      vertex  0.000000e+000 -3.739129e+000  4.587111e+000
    endloop
  endfacet
  facet normal -9.999999e-001  0.000000e+000  0.000000e+000
    outer loop
      vertex  0.000000e+000 -8.739129e+000  5.796772e+000
      vertex  0.000000e+000 -3.739129e+000  4.587111e+000
      vertex  0.000000e+000 -6.888490e+000  4.587111e+000
    endloop
  endfacet
  facet normal -1.000000e+000  -0.000000e+000  -0.000000e+000
    outer loop
      vertex  0.000000e+000 -8.739129e+000  5.796772e+000
      vertex  0.000000e+000 -6.888490e+000  4.587111e+000
      vertex  0.000000e+000 -6.888490e+000  4.052611e+000
    endloop
  endfacet
  facet normal -1.000000e+000  0.000000e+000  0.000000e+000
    outer loop
      vertex  0.000000e+000 -8.739129e+000  5.796772e+000
      vertex  0.000000e+000 -6.888490e+000  4.052611e+000
      vertex  0.000000e+000 -8.739129e+000  4.052611e+000
    endloop
  endfacet
  facet normal -1.000000e+000  0.000000e+000  0.000000e+000
    outer loop
      vertex  0.000000e+000 -1.073913e+001 -4.603252e+000
      vertex  0.000000e+000 -1.073913e+001 -2.103252e+000
      vertex  0.000000e+000 -8.739129e+000 -2.103252e+000
    endloop
  endfacet
  facet normal -1.000000e+000  0.000000e+000  -0.000000e+000
    outer loop
      vertex  0.000000e+000 -1.073913e+001 -4.603252e+000
      vertex  0.000000e+000 -8.739129e+000 -2.103252e+000
      vertex  0.000000e+000 -6.888490e+000 -2.103252e+000
    endloop
  endfacet
  facet normal -9.999999e-001  0.000000e+000  -0.000000e+000
    outer loop
      vertex  0.000000e+000 -1.073913e+001 -4.603252e+000
      vertex  0.000000e+000 -6.888490e+000 -2.103252e+000
      vertex  0.000000e+000 -3.739129e+000 -2.103252e+000
    endloop
  endfacet
  facet normal -1.000000e+000  0.000000e+000  -0.000000e+000
    outer loop
      vertex  0.000000e+000 -1.073913e+001 -4.603252e+000
      vertex  0.000000e+000 -3.739129e+000 -2.103252e+000
      vertex  0.000000e+000 -7.391291e-001 -4.603252e+000
    endloop
  endfacet
  facet normal -1.000000e+000  0.000000e+000  0.000000e+000
    outer loop
      vertex  0.000000e+000 -3.739129e+000  4.587111e+000
      vertex  0.000000e+000 -7.391291e-001  8.296772e+000
      vertex  0.000000e+000 -3.739129e+000 -2.103252e+000
    endloop
  endfacet
  facet normal -1.000000e+000  0.000000e+000  0.000000e+000
    outer loop
      vertex  0.000000e+000 -3.739129e+000 -2.103252e+000
      vertex  0.000000e+000 -7.391291e-001  8.296772e+000
      vertex  0.000000e+000 -7.391291e-001 -4.603252e+000
    endloop
  endfacet
  facet normal -1.000000e+000  0.000000e+000  0.000000e+000
    outer loop
      vertex  0.000000e+000 -8.739129e+000 -2.103252e+000
      vertex  0.000000e+000 -8.739129e+000  0.000000e+000
      vertex  0.000000e+000 -6.888490e+000 -2.103252e+000
    endloop
  endfacet
  facet normal -1.000000e+000  0.000000e+000  0.000000e+000
    outer loop
      vertex  0.000000e+000 -6.888490e+000 -2.103252e+000
      vertex  0.000000e+000 -8.739129e+000  0.000000e+000
      vertex  0.000000e+000 -6.888490e+000  0.000000e+000
    endloop
  endfacet
  facet normal  0.000000e+000  0.000000e+000 -1.000000e+000
    outer loop
      vertex  0.000000e+000 -6.888490e+000  4.587111e+000
      vertex  0.000000e+000 -3.739129e+000  4.587111e+000
      vertex  9.500000e+000 -6.888490e+000  4.587111e+000
    endloop
  endfacet
  facet normal  0.000000e+000  0.000000e+000 -1.000000e+000
    outer loop
      vertex  9.500000e+000 -6.888490e+000  4.587111e+000
      vertex  0.000000e+000 -3.739129e+000  4.587111e+000
      vertex  9.500000e+000 -3.739129e+000  4.587111e+000
    endloop
  endfacet
  facet normal  -0.000000e+000  1.000000e+000  0.000000e+000
    outer loop
      vertex  9.500000e+000 -6.888490e+000  4.587111e+000
      vertex  9.500000e+000 -6.888490e+000  5.796772e+000
      vertex  1.000000e+001 -6.888490e+000  5.796772e+000
    endloop
  endfacet
  facet normal  -0.000000e+000  9.999999e-001  0.000000e+000
    outer loop
      vertex  9.500000e+000 -6.888490e+000  4.587111e+000
      vertex  1.000000e+001 -6.888490e+000  5.796772e+000
      vertex  1.822968e+001 -6.888490e+000  5.796772e+000
    endloop
  endfacet
  facet normal  -0.000000e+000  1.000000e+000  0.000000e+000
    outer loop
      vertex  9.500000e+000 -6.888490e+000  4.587111e+000
      vertex  1.822968e+001 -6.888490e+000  5.796772e+000
      vertex  2.000000e+001 -6.888490e+000  5.796772e+000
    endloop
  endfacet
  facet normal  0.000000e+000  1.000000e+000  0.000000e+000
    outer loop
      vertex  9.500000e+000 -6.888490e+000  4.587111e+000
      vertex  2.000000e+001 -6.888490e+000  5.796772e+000
      vertex  2.000000e+001 -6.888490e+000  4.052611e+000
    endloop
  endfacet
  facet normal  0.000000e+000  1.000000e+000  0.000000e+000
    outer loop
      vertex  9.500000e+000 -6.888490e+000  4.587111e+000
      vertex  2.000000e+001 -6.888490e+000  4.052611e+000
      vertex  0.000000e+000 -6.888490e+000  4.052611e+000
    endloop
  endfacet
  facet normal  0.000000e+000  1.000000e+000  0.000000e+000
    outer loop
      vertex  9.500000e+000 -6.888490e+000  4.587111e+000
      vertex  0.000000e+000 -6.888490e+000  4.052611e+000
      vertex  0.000000e+000 -6.888490e+000  4.587111e+000
    endloop
  endfacet
  facet normal  0.000000e+000  9.999999e-001  -0.000000e+000
    outer loop
      vertex  1.822968e+001 -6.888490e+000  8.296772e+000
      vertex  1.822968e+001 -6.888490e+000  5.796772e+000
      vertex  1.000000e+001 -6.888490e+000  8.296772e+000
    endloop
  endfacet
  facet normal  0.000000e+000  9.999999e-001  0.000000e+000
    outer loop
      vertex  1.000000e+001 -6.888490e+000  8.296772e+000
      vertex  1.822968e+001 -6.888490e+000  5.796772e+000
      vertex  1.000000e+001 -6.888490e+000  5.796772e+000
    endloop
  endfacet
  facet normal  -0.000000e+000 -1.000000e+000  -0.000000e+000
    outer loop
      vertex  2.000000e+001 -3.739129e+000 -2.103252e+000
      vertex  2.000000e+001 -3.739129e+000  5.796772e+000
      vertex  1.822968e+001 -3.739129e+000  5.796772e+000
    endloop
  endfacet
  facet normal  -0.000000e+000 -1.000000e+000  -0.000000e+000
    outer loop
      vertex  2.000000e+001 -3.739129e+000 -2.103252e+000
      vertex  1.822968e+001 -3.739129e+000  5.796772e+000
      vertex  1.000000e+001 -3.739129e+000  5.796772e+000
    endloop
  endfacet
  facet normal  -0.000000e+000 -1.000000e+000  -0.000000e+000
    outer loop
      vertex  2.000000e+001 -3.739129e+000 -2.103252e+000
      vertex  1.000000e+001 -3.739129e+000  5.796772e+000
      vertex  9.500000e+000 -3.739129e+000  5.796772e+000
    endloop
  endfacet
  facet normal  0.000000e+000 -1.000000e+000  0.000000e+000
    outer loop
      vertex  2.000000e+001 -3.739129e+000 -2.103252e+000
      vertex  9.500000e+000 -3.739129e+000  5.796772e+000
      vertex  9.500000e+000 -3.739129e+000  4.587111e+000
    endloop
  endfacet
  facet normal  -0.000000e+000 -1.000000e+000  -0.000000e+000
    outer loop
      vertex  2.000000e+001 -3.739129e+000 -2.103252e+000
      vertex  9.500000e+000 -3.739129e+000  4.587111e+000
      vertex  0.000000e+000 -3.739129e+000  4.587111e+000
    endloop
  endfacet
  facet normal  0.000000e+000 -1.000000e+000  0.000000e+000
    outer loop
      vertex  2.000000e+001 -3.739129e+000 -2.103252e+000
      vertex  0.000000e+000 -3.739129e+000  4.587111e+000
      vertex  0.000000e+000 -3.739129e+000 -2.103252e+000
    endloop
  endfacet
  facet normal  0.000000e+000 -9.999999e-001  -0.000000e+000
    outer loop
      vertex  1.822968e+001 -3.739129e+000  5.796772e+000
      vertex  1.822968e+001 -3.739129e+000  8.296772e+000
      vertex  1.000000e+001 -3.739129e+000  5.796772e+000
    endloop
  endfacet
  facet normal  0.000000e+000 -9.999999e-001  0.000000e+000
    outer loop
      vertex  1.000000e+001 -3.739129e+000  5.796772e+000
      vertex  1.822968e+001 -3.739129e+000  8.296772e+000
      vertex  1.000000e+001 -3.739129e+000  8.296772e+000
    endloop
  endfacet
  facet normal  0.000000e+000  0.000000e+000 -1.000000e+000
    outer loop
      vertex  1.000000e+001 -6.888490e+000  5.796772e+000
      vertex  9.500000e+000 -6.888490e+000  5.796772e+000
      vertex  1.000000e+001 -6.088490e+000  5.796772e+000
    endloop
  endfacet
  facet normal  -0.000000e+000  0.000000e+000 -1.000000e+000
    outer loop
      vertex  1.000000e+001 -4.539129e+000  5.796772e+000
      vertex  1.742968e+001 -4.539129e+000  5.796772e+000
      vertex  1.452830e+001 -4.588490e+000  5.796772e+000
    endloop
  endfacet
  facet normal  -0.000000e+000  -0.000000e+000 -1.000000e+000
    outer loop
      vertex  1.000000e+001 -4.539129e+000  5.796772e+000
      vertex  1.452830e+001 -4.588490e+000  5.796772e+000
      vertex  1.452830e+001 -6.088490e+000  5.796772e+000
    endloop
  endfacet
  facet normal  0.000000e+000  0.000000e+000 -9.999999e-001
    outer loop
      vertex  1.000000e+001 -4.539129e+000  5.796772e+000
      vertex  1.452830e+001 -6.088490e+000  5.796772e+000
      vertex  1.000000e+001 -6.088490e+000  5.796772e+000
    endloop
  endfacet
  facet normal  -0.000000e+000  0.000000e+000 -1.000000e+000
    outer loop
      vertex  1.000000e+001 -4.539129e+000  5.796772e+000
      vertex  1.000000e+001 -6.088490e+000  5.796772e+000
      vertex  9.500000e+000 -6.888490e+000  5.796772e+000
    endloop
  endfacet
  facet normal  0.000000e+000  0.000000e+000 -9.999999e-001
    outer loop
      vertex  1.000000e+001 -4.539129e+000  5.796772e+000
      vertex  9.500000e+000 -6.888490e+000  5.796772e+000
      vertex  9.500000e+000 -3.739129e+000  5.796772e+000
    endloop
  endfacet
  facet normal  0.000000e+000  0.000000e+000 -1.000000e+000
    outer loop
      vertex  1.000000e+001 -4.539129e+000  5.796772e+000
      vertex  9.500000e+000 -3.739129e+000  5.796772e+000
      vertex  1.000000e+001 -3.739129e+000  5.796772e+000
    endloop
  endfacet
  facet normal  0.000000e+000  0.000000e+000 -1.000000e+000
    outer loop
      vertex  1.452830e+001 -4.588490e+000  5.796772e+000
      vertex  1.742968e+001 -4.539129e+000  5.796772e+000
      vertex  1.694762e+001 -4.588490e+000  5.796772e+000
    endloop
  endfacet
  facet normal  0.000000e+000  0.000000e+000 -1.000000e+000
    outer loop
      vertex  1.694762e+001 -4.588490e+000  5.796772e+000
      vertex  1.742968e+001 -4.539129e+000  5.796772e+000
      vertex  1.742968e+001 -6.088490e+000  5.796772e+000
    endloop
  endfacet
  facet normal  0.000000e+000  0.000000e+000 -1.000000e+000
    outer loop
      vertex  1.694762e+001 -4.588490e+000  5.796772e+000
      vertex  1.742968e+001 -6.088490e+000  5.796772e+000
      vertex  1.694762e+001 -6.088490e+000  5.796772e+000
    endloop
  endfacet
  facet normal  9.999999e-001  0.000000e+000  0.000000e+000
    outer loop
      vertex  9.500000e+000 -3.739129e+000  4.587111e+000
      vertex  9.500000e+000 -3.739129e+000  5.796772e+000
      vertex  9.500000e+000 -6.888490e+000  4.587111e+000
    endloop
  endfacet
  facet normal  9.999999e-001  0.000000e+000  0.000000e+000
    outer loop
      vertex  9.500000e+000 -6.888490e+000  4.587111e+000
      vertex  9.500000e+000 -3.739129e+000  5.796772e+000
      vertex  9.500000e+000 -6.888490e+000  5.796772e+000
    endloop
  endfacet
  facet normal  0.000000e+000 -1.000000e+000  0.000000e+000
    outer loop
      vertex  1.694762e+001 -6.088490e+000  5.796772e+000
      vertex  1.742968e+001 -6.088490e+000  5.796772e+000
      vertex  1.742968e+001 -6.088490e+000  8.296772e+000
    endloop
  endfacet
  facet normal  0.000000e+000 -1.000000e+000  0.000000e+000
    outer loop
      vertex  1.452830e+001 -6.088490e+000  5.796772e+000
      vertex  1.462038e+001 -6.088490e+000  5.333855e+000
      vertex  1.488260e+001 -6.088490e+000  4.941413e+000
    endloop
  endfacet
  facet normal  0.000000e+000 -1.000000e+000  0.000000e+000
    outer loop
      vertex  1.452830e+001 -6.088490e+000  5.796772e+000
      vertex  1.488260e+001 -6.088490e+000  4.941413e+000
      vertex  1.527504e+001 -6.088490e+000  4.679192e+000
    endloop
  endfacet
  facet normal  0.000000e+000 -1.000000e+000  0.000000e+000
    outer loop
      vertex  1.452830e+001 -6.088490e+000  5.796772e+000
      vertex  1.527504e+001 -6.088490e+000  4.679192e+000
      vertex  1.573796e+001 -6.088490e+000  4.587111e+000
    endloop
  endfacet
  facet normal  0.000000e+000 -1.000000e+000  0.000000e+000
    outer loop
      vertex  1.452830e+001 -6.088490e+000  5.796772e+000
      vertex  1.573796e+001 -6.088490e+000  4.587111e+000
      vertex  1.620088e+001 -6.088490e+000  4.679192e+000
    endloop
  endfacet
  facet normal  0.000000e+000 -1.000000e+000  0.000000e+000
    outer loop
      vertex  1.452830e+001 -6.088490e+000  5.796772e+000
      vertex  1.620088e+001 -6.088490e+000  4.679192e+000
      vertex  1.659332e+001 -6.088490e+000  4.941413e+000
    endloop
  endfacet
  facet normal  0.000000e+000 -1.000000e+000  0.000000e+000
    outer loop
      vertex  1.452830e+001 -6.088490e+000  5.796772e+000
      vertex  1.659332e+001 -6.088490e+000  4.941413e+000
      vertex  1.685554e+001 -6.088490e+000  5.333855e+000
    endloop
  endfacet
  facet normal  0.000000e+000 -1.000000e+000  0.000000e+000
    outer loop
      vertex  1.452830e+001 -6.088490e+000  5.796772e+000
      vertex  1.685554e+001 -6.088490e+000  5.333855e+000
      vertex  1.694762e+001 -6.088490e+000  5.796772e+000
    endloop
  endfacet
  facet normal  0.000000e+000 -9.999999e-001  0.000000e+000
    outer loop
      vertex  1.452830e+001 -6.088490e+000  5.796772e+000
      vertex  1.694762e+001 -6.088490e+000  5.796772e+000
      vertex  1.742968e+001 -6.088490e+000  8.296772e+000
    endloop
  endfacet
  facet normal  -0.000000e+000 -1.000000e+000  0.000000e+000
    outer loop
      vertex  1.452830e+001 -6.088490e+000  5.796772e+000
      vertex  1.742968e+001 -6.088490e+000  8.296772e+000
      vertex  1.000000e+001 -6.088490e+000  8.296772e+000
    endloop
  endfacet
  facet normal  0.000000e+000 -1.000000e+000  0.000000e+000
    outer loop
      vertex  1.452830e+001 -6.088490e+000  5.796772e+000
      vertex  1.000000e+001 -6.088490e+000  8.296772e+000
      vertex  1.000000e+001 -6.088490e+000  5.796772e+000
    endloop
  endfacet
  facet normal  9.807848e-001  0.000000e+000 -1.950925e-001
    outer loop
      vertex  1.694762e+001 -4.588490e+000  5.796772e+000
      vertex  1.694762e+001 -6.088490e+000  5.796772e+000
      vertex  1.685554e+001 -4.588490e+000  5.333855e+000
    endloop
  endfacet
  facet normal  9.807848e-001  0.000000e+000 -1.950925e-001
    outer loop
      vertex  1.685554e+001 -4.588490e+000  5.333855e+000
      vertex  1.694762e+001 -6.088490e+000  5.796772e+000
      vertex  1.685554e+001 -6.088490e+000  5.333855e+000
    endloop
  endfacet
  facet normal  8.314707e-001  0.000000e+000 -5.555686e-001
    outer loop
      vertex  1.685554e+001 -4.588490e+000  5.333855e+000
      vertex  1.685554e+001 -6.088490e+000  5.333855e+000
      vertex  1.659332e+001 -4.588490e+000  4.941413e+000
    endloop
  endfacet
  facet normal  8.314707e-001  0.000000e+000 -5.555686e-001
    outer loop
      vertex  1.659332e+001 -4.588490e+000  4.941413e+000
      vertex  1.685554e+001 -6.088490e+000  5.333855e+000
      vertex  1.659332e+001 -6.088490e+000  4.941413e+000
    endloop
  endfacet
  facet normal  5.555695e-001  0.000000e+000 -8.314701e-001
    outer loop
      vertex  1.659332e+001 -4.588490e+000  4.941413e+000
      vertex  1.659332e+001 -6.088490e+000  4.941413e+000
      vertex  1.620088e+001 -4.588490e+000  4.679192e+000
    endloop
  endfacet
  facet normal  5.555695e-001  0.000000e+000 -8.314701e-001
    outer loop
      vertex  1.620088e+001 -4.588490e+000  4.679192e+000
      vertex  1.659332e+001 -6.088490e+000  4.941413e+000
      vertex  1.620088e+001 -6.088490e+000  4.679192e+000
    endloop
  endfacet
  facet normal  1.950906e-001  0.000000e+000 -9.807852e-001
    outer loop
      vertex  1.620088e+001 -4.588490e+000  4.679192e+000
      vertex  1.620088e+001 -6.088490e+000  4.679192e+000
      vertex  1.573796e+001 -4.588490e+000  4.587111e+000
    endloop
  endfacet
  facet normal  1.950906e-001  0.000000e+000 -9.807852e-001
    outer loop
      vertex  1.573796e+001 -4.588490e+000  4.587111e+000
      vertex  1.620088e+001 -6.088490e+000  4.679192e+000
      vertex  1.573796e+001 -6.088490e+000  4.587111e+000
    endloop
  endfacet
  facet normal -1.950906e-001  0.000000e+000 -9.807852e-001
    outer loop
      vertex  1.573796e+001 -4.588490e+000  4.587111e+000
      vertex  1.573796e+001 -6.088490e+000  4.587111e+000
      vertex  1.527504e+001 -4.588490e+000  4.679192e+000
    endloop
  endfacet
  facet normal -1.950906e-001  -0.000000e+000 -9.807852e-001
    outer loop
      vertex  1.527504e+001 -4.588490e+000  4.679192e+000
      vertex  1.573796e+001 -6.088490e+000  4.587111e+000
      vertex  1.527504e+001 -6.088490e+000  4.679192e+000
    endloop
  endfacet
  facet normal -5.555704e-001  0.000000e+000 -8.314694e-001
    outer loop
      vertex  1.527504e+001 -4.588490e+000  4.679192e+000
      vertex  1.527504e+001 -6.088490e+000  4.679192e+000
      vertex  1.488260e+001 -4.588490e+000  4.941413e+000
    endloop
  endfacet
  facet normal -5.555704e-001  -0.000000e+000 -8.314694e-001
    outer loop
      vertex  1.488260e+001 -4.588490e+000  4.941413e+000
      vertex  1.527504e+001 -6.088490e+000  4.679192e+000
      vertex  1.488260e+001 -6.088490e+000  4.941413e+000
    endloop
  endfacet
  facet normal -8.314688e-001  0.000000e+000 -5.555713e-001
    outer loop
      vertex  1.488260e+001 -4.588490e+000  4.941413e+000
      vertex  1.488260e+001 -6.088490e+000  4.941413e+000
      vertex  1.462038e+001 -4.588490e+000  5.333855e+000
    endloop
  endfacet
  facet normal -8.314688e-001  -0.000000e+000 -5.555713e-001
    outer loop
      vertex  1.462038e+001 -4.588490e+000  5.333855e+000
      vertex  1.488260e+001 -6.088490e+000  4.941413e+000
      vertex  1.462038e+001 -6.088490e+000  5.333855e+000
    endloop
  endfacet
  facet normal -9.807855e-001  0.000000e+000 -1.950886e-001
    outer loop
      vertex  1.462038e+001 -4.588490e+000  5.333855e+000
      vertex  1.462038e+001 -6.088490e+000  5.333855e+000
      vertex  1.452830e+001 -4.588490e+000  5.796772e+000
    endloop
  endfacet
  facet normal -9.807855e-001  -0.000000e+000 -1.950886e-001
    outer loop
      vertex  1.452830e+001 -4.588490e+000  5.796772e+000
      vertex  1.462038e+001 -6.088490e+000  5.333855e+000
      vertex  1.452830e+001 -6.088490e+000  5.796772e+000
    endloop
  endfacet
  facet normal  0.000000e+000  1.000000e+000  -0.000000e+000
    outer loop
      vertex  1.573796e+001 -4.588490e+000  5.796772e+000
      vertex  1.462038e+001 -4.588490e+000  5.333855e+000
      vertex  1.452830e+001 -4.588490e+000  5.796772e+000
    endloop
  endfacet
  facet normal  -0.000000e+000  1.000000e+000  0.000000e+000
    outer loop
      vertex  1.573796e+001 -4.588490e+000  4.587111e+000
      vertex  1.527504e+001 -4.588490e+000  4.679192e+000
      vertex  1.620088e+001 -4.588490e+000  4.679192e+000
    endloop
  endfacet
  facet normal  0.000000e+000  1.000000e+000  0.000000e+000
    outer loop
      vertex  1.620088e+001 -4.588490e+000  4.679192e+000
      vertex  1.527504e+001 -4.588490e+000  4.679192e+000
      vertex  1.488260e+001 -4.588490e+000  4.941413e+000
    endloop
  endfacet
  facet normal  -0.000000e+000  9.999999e-001  0.000000e+000
    outer loop
      vertex  1.620088e+001 -4.588490e+000  4.679192e+000
      vertex  1.488260e+001 -4.588490e+000  4.941413e+000
      vertex  1.659332e+001 -4.588490e+000  4.941413e+000
    endloop
  endfacet
  facet normal  0.000000e+000  1.000000e+000  0.000000e+000
    outer loop
      vertex  1.659332e+001 -4.588490e+000  4.941413e+000
      vertex  1.488260e+001 -4.588490e+000  4.941413e+000
      vertex  1.462038e+001 -4.588490e+000  5.333855e+000
    endloop
  endfacet
  facet normal  -0.000000e+000  1.000000e+000  0.000000e+000
    outer loop
      vertex  1.659332e+001 -4.588490e+000  4.941413e+000
      vertex  1.462038e+001 -4.588490e+000  5.333855e+000
      vertex  1.685554e+001 -4.588490e+000  5.333855e+000
    endloop
  endfacet
  facet normal  0.000000e+000  1.000000e+000  0.000000e+000
    outer loop
      vertex  1.685554e+001 -4.588490e+000  5.333855e+000
      vertex  1.462038e+001 -4.588490e+000  5.333855e+000
      vertex  1.573796e+001 -4.588490e+000  5.796772e+000
    endloop
  endfacet
  facet normal  -0.000000e+000  1.000000e+000  0.000000e+000
    outer loop
      vertex  1.685554e+001 -4.588490e+000  5.333855e+000
      vertex  1.573796e+001 -4.588490e+000  5.796772e+000
      vertex  1.694762e+001 -4.588490e+000  5.796772e+000
    endloop
  endfacet
  facet normal  1.000000e+000  0.000000e+000  0.000000e+000
    outer loop
      vertex  1.000000e+001 -4.539129e+000  5.796772e+000
      vertex  1.000000e+001 -3.739129e+000  5.796772e+000
      vertex  1.000000e+001 -4.539129e+000  8.296772e+000
    endloop
  endfacet
  facet normal  1.000000e+000  -0.000000e+000  0.000000e+000
    outer loop
      vertex  1.000000e+001 -4.539129e+000  8.296772e+000
      vertex  1.000000e+001 -3.739129e+000  5.796772e+000
      vertex  1.000000e+001 -3.739129e+000  8.296772e+000
    endloop
  endfacet
  facet normal  1.000000e+000  0.000000e+000  0.000000e+000
    outer loop
      vertex  1.000000e+001 -6.888490e+000  5.796772e+000
      vertex  1.000000e+001 -6.088490e+000  5.796772e+000
      vertex  1.000000e+001 -6.888490e+000  8.296772e+000
    endloop
  endfacet
  facet normal  1.000000e+000  -0.000000e+000  0.000000e+000
    outer loop
      vertex  1.000000e+001 -6.888490e+000  8.296772e+000
      vertex  1.000000e+001 -6.088490e+000  5.796772e+000
      vertex  1.000000e+001 -6.088490e+000  8.296772e+000
    endloop
  endfacet
  facet normal -1.000000e+000  0.000000e+000  0.000000e+000
    outer loop
      vertex  1.822968e+001 -6.888490e+000  5.796772e+000
      vertex  1.822968e+001 -6.888490e+000  8.296772e+000
      vertex  1.822968e+001 -3.739129e+000  5.796772e+000
    endloop
  endfacet
  facet normal -1.000000e+000  0.000000e+000  0.000000e+000
    outer loop
      vertex  1.822968e+001 -3.739129e+000  5.796772e+000
      vertex  1.822968e+001 -6.888490e+000  8.296772e+000
      vertex  1.822968e+001 -3.739129e+000  8.296772e+000
    endloop
  endfacet
  facet normal  -0.000000e+000  0.000000e+000 -1.000000e+000
    outer loop
      vertex  1.822968e+001 -3.739129e+000  5.796772e+000
      vertex  2.000000e+001 -3.739129e+000  5.796772e+000
      vertex  1.822968e+001 -6.888490e+000  5.796772e+000
    endloop
  endfacet
  facet normal  0.000000e+000  0.000000e+000 -1.000000e+000
    outer loop
      vertex  1.822968e+001 -6.888490e+000  5.796772e+000
      vertex  2.000000e+001 -3.739129e+000  5.796772e+000
      vertex  2.000000e+001 -6.888490e+000  5.796772e+000
    endloop
  endfacet
  facet normal  0.000000e+000  0.000000e+000  1.000000e+000
    outer loop
      vertex  0.000000e+000 -1.073913e+001  8.296772e+000
      vertex  2.000000e+001 -1.073913e+001  8.296772e+000
      vertex  1.822968e+001 -6.888490e+000  8.296772e+000
    endloop
  endfacet
  facet normal  0.000000e+000  0.000000e+000  9.999999e-001
    outer loop
      vertex  0.000000e+000 -1.073913e+001  8.296772e+000
      vertex  1.822968e+001 -6.888490e+000  8.296772e+000
      vertex  1.000000e+001 -6.888490e+000  8.296772e+000
    endloop
  endfacet
  facet normal  0.000000e+000  -0.000000e+000  1.000000e+000
    outer loop
      vertex  0.000000e+000 -1.073913e+001  8.296772e+000
      vertex  1.000000e+001 -6.888490e+000  8.296772e+000
      vertex  1.000000e+001 -6.088490e+000  8.296772e+000
    endloop
  endfacet
  facet normal  0.000000e+000  -0.000000e+000  1.000000e+000
    outer loop
      vertex  0.000000e+000 -1.073913e+001  8.296772e+000
      vertex  1.000000e+001 -6.088490e+000  8.296772e+000
      vertex  1.000000e+001 -4.539129e+000  8.296772e+000
    endloop
  endfacet
  facet normal  0.000000e+000  -0.000000e+000  1.000000e+000
    outer loop
      vertex  0.000000e+000 -1.073913e+001  8.296772e+000
      vertex  1.000000e+001 -4.539129e+000  8.296772e+000
      vertex  1.000000e+001 -3.739129e+000  8.296772e+000
    endloop
  endfacet
  facet normal  0.000000e+000  0.000000e+000  1.000000e+000
    outer loop
      vertex  0.000000e+000 -1.073913e+001  8.296772e+000
      vertex  1.000000e+001 -3.739129e+000  8.296772e+000
      vertex  0.000000e+000 -7.391291e-001  8.296772e+000
    endloop
  endfacet
  facet normal  -0.000000e+000  0.000000e+000  1.000000e+000
    outer loop
      vertex  1.742968e+001 -4.539129e+000  8.296772e+000
      vertex  1.000000e+001 -4.539129e+000  8.296772e+000
      vertex  1.742968e+001 -6.088490e+000  8.296772e+000
    endloop
  endfacet
  facet normal  0.000000e+000  0.000000e+000  1.000000e+000
    outer loop
      vertex  1.742968e+001 -6.088490e+000  8.296772e+000
      vertex  1.000000e+001 -4.539129e+000  8.296772e+000
      vertex  1.000000e+001 -6.088490e+000  8.296772e+000
    endloop
  endfacet
  facet normal  0.000000e+000  0.000000e+000  9.999999e-001
    outer loop
      vertex  1.000000e+001 -3.739129e+000  8.296772e+000
      vertex  1.822968e+001 -3.739129e+000  8.296772e+000
      vertex  0.000000e+000 -7.391291e-001  8.296772e+000
    endloop
  endfacet
  facet normal  -0.000000e+000  0.000000e+000  1.000000e+000
    outer loop
      vertex  0.000000e+000 -7.391291e-001  8.296772e+000
      vertex  1.822968e+001 -3.739129e+000  8.296772e+000
      vertex  2.000000e+001 -7.391291e-001  8.296772e+000
    endloop
  endfacet
  facet normal  0.000000e+000  0.000000e+000  1.000000e+000
    outer loop
      vertex  1.822968e+001 -3.739129e+000  8.296772e+000
      vertex  1.822968e+001 -6.888490e+000  8.296772e+000
      vertex  2.000000e+001 -7.391291e-001  8.296772e+000
    endloop
  endfacet
  facet normal  0.000000e+000  0.000000e+000  1.000000e+000
    outer loop
      vertex  2.000000e+001 -7.391291e-001  8.296772e+000
      vertex  1.822968e+001 -6.888490e+000  8.296772e+000
      vertex  2.000000e+001 -1.073913e+001  8.296772e+000
    endloop
  endfacet
  facet normal  1.000000e+000  0.000000e+000  0.000000e+000
    outer loop
      vertex  1.742968e+001 -6.088490e+000  5.796772e+000
      vertex  1.742968e+001 -4.539129e+000  5.796772e+000
      vertex  1.742968e+001 -6.088490e+000  8.296772e+000
    endloop
  endfacet
  facet normal  1.000000e+000  -0.000000e+000  0.000000e+000
    outer loop
      vertex  1.742968e+001 -6.088490e+000  8.296772e+000
      vertex  1.742968e+001 -4.539129e+000  5.796772e+000
      vertex  1.742968e+001 -4.539129e+000  8.296772e+000
    endloop
  endfacet
  facet normal  0.000000e+000  1.000000e+000  -0.000000e+000
    outer loop
      vertex  1.742968e+001 -4.539129e+000  8.296772e+000
      vertex  1.742968e+001 -4.539129e+000  5.796772e+000
      vertex  1.000000e+001 -4.539129e+000  8.296772e+000
    endloop
  endfacet
  facet normal  0.000000e+000  1.000000e+000  0.000000e+000
    outer loop
      vertex  1.000000e+001 -4.539129e+000  8.296772e+000
      vertex  1.742968e+001 -4.539129e+000  5.796772e+000
      vertex  1.000000e+001 -4.539129e+000  5.796772e+000
    endloop
  endfacet
  facet normal  1.000000e+000  -0.000000e+000  0.000000e+000
    outer loop
      vertex  2.000000e+001 -7.391291e-001  8.296772e+000
      vertex  2.000000e+001 -1.073913e+001  8.296772e+000
      vertex  2.000000e+001 -1.073913e+001  5.796772e+000
    endloop
  endfacet
  facet normal  1.000000e+000  0.000000e+000  0.000000e+000
    outer loop
      vertex  2.000000e+001 -7.391291e-001  8.296772e+000
      vertex  2.000000e+001 -1.073913e+001  5.796772e+000
      vertex  2.000000e+001 -8.739129e+000  5.796772e+000
    endloop
  endfacet
  facet normal  1.000000e+000  0.000000e+000  0.000000e+000
    outer loop
      vertex  2.000000e+001 -7.391291e-001  8.296772e+000
      vertex  2.000000e+001 -8.739129e+000  5.796772e+000
      vertex  2.000000e+001 -6.888490e+000  5.796772e+000
    endloop
  endfacet
  facet normal  1.000000e+000  0.000000e+000  0.000000e+000
    outer loop
      vertex  2.000000e+001 -7.391291e-001  8.296772e+000
      vertex  2.000000e+001 -6.888490e+000  5.796772e+000
      vertex  2.000000e+001 -3.739129e+000  5.796772e+000
    endloop
  endfacet
  facet normal  1.000000e+000  -0.000000e+000  0.000000e+000
    outer loop
      vertex  2.000000e+001 -7.391291e-001  8.296772e+000
      vertex  2.000000e+001 -3.739129e+000  5.796772e+000
      vertex  2.000000e+001 -3.739129e+000 -2.103252e+000
    endloop
  endfacet
  facet normal  1.000000e+000  -0.000000e+000  0.000000e+000
    outer loop
      vertex  2.000000e+001 -7.391291e-001  8.296772e+000
      vertex  2.000000e+001 -3.739129e+000 -2.103252e+000
      vertex  2.000000e+001 -7.391291e-001 -4.603252e+000
    endloop
  endfacet
  facet normal  1.000000e+000  0.000000e+000  0.000000e+000
    outer loop
      vertex  2.000000e+001 -1.073913e+001 -4.603252e+000
      vertex  2.000000e+001 -7.391291e-001 -4.603252e+000
      vertex  2.000000e+001 -3.739129e+000 -2.103252e+000
    endloop
  endfacet
  facet normal  9.999999e-001  0.000000e+000  0.000000e+000
    outer loop
      vertex  2.000000e+001 -1.073913e+001 -4.603252e+000
      vertex  2.000000e+001 -3.739129e+000 -2.103252e+000
      vertex  2.000000e+001 -6.888490e+000 -2.103252e+000
    endloop
  endfacet
  facet normal  1.000000e+000  0.000000e+000  0.000000e+000
    outer loop
      vertex  2.000000e+001 -1.073913e+001 -4.603252e+000
      vertex  2.000000e+001 -6.888490e+000 -2.103252e+000
      vertex  2.000000e+001 -8.739129e+000 -2.103252e+000
    endloop
  endfacet
  facet normal  1.000000e+000  0.000000e+000  0.000000e+000
    outer loop
      vertex  2.000000e+001 -1.073913e+001 -4.603252e+000
      vertex  2.000000e+001 -8.739129e+000 -2.103252e+000
      vertex  2.000000e+001 -1.073913e+001 -2.103252e+000
    endloop
  endfacet
  facet normal  1.000000e+000  0.000000e+000  0.000000e+000
    outer loop
      vertex  2.000000e+001 -8.739129e+000  4.052611e+000
      vertex  2.000000e+001 -6.888490e+000  4.052611e+000
      vertex  2.000000e+001 -8.739129e+000  5.796772e+000
    endloop
  endfacet
  facet normal  1.000000e+000  -0.000000e+000  0.000000e+000
    outer loop
      vertex  2.000000e+001 -8.739129e+000  5.796772e+000
      vertex  2.000000e+001 -6.888490e+000  4.052611e+000
      vertex  2.000000e+001 -6.888490e+000  5.796772e+000
    endloop
  endfacet
  facet normal  1.000000e+000  0.000000e+000  0.000000e+000
    outer loop
      vertex  2.000000e+001 -8.739129e+000 -2.103252e+000
      vertex  2.000000e+001 -6.888490e+000 -2.103252e+000
      vertex  2.000000e+001 -8.739129e+000  0.000000e+000
    endloop
  endfacet
  facet normal  1.000000e+000  -0.000000e+000  0.000000e+000
    outer loop
      vertex  2.000000e+001 -8.739129e+000  0.000000e+000
      vertex  2.000000e+001 -6.888490e+000 -2.103252e+000
      vertex  2.000000e+001 -6.888490e+000  0.000000e+000
    endloop
  endfacet
  facet normal  0.000000e+000 -1.000000e+000  0.000000e+000
    outer loop
      vertex  0.000000e+000 -1.073913e+001  5.796772e+000
      vertex  2.000000e+001 -1.073913e+001  5.796772e+000
      vertex  0.000000e+000 -1.073913e+001  8.296772e+000
    endloop
  endfacet
  facet normal  0.000000e+000 -1.000000e+000  0.000000e+000
    outer loop
      vertex  0.000000e+000 -1.073913e+001  8.296772e+000
      vertex  2.000000e+001 -1.073913e+001  5.796772e+000
      vertex  2.000000e+001 -1.073913e+001  8.296772e+000
    endloop
  endfacet
  facet normal  0.000000e+000  1.000000e+000  0.000000e+000
    outer loop
      vertex  0.000000e+000 -7.391291e-001  8.296772e+000
      vertex  2.000000e+001 -7.391291e-001  8.296772e+000
      vertex  0.000000e+000 -7.391291e-001 -4.603252e+000
    endloop
  endfacet
  facet normal  0.000000e+000  1.000000e+000  0.000000e+000
    outer loop
      vertex  0.000000e+000 -7.391291e-001 -4.603252e+000
      vertex  2.000000e+001 -7.391291e-001  8.296772e+000
      vertex  2.000000e+001 -7.391291e-001 -4.603252e+000
    endloop
  endfacet
  facet normal  0.000000e+000  4.768371e-008 -1.000000e+000
    outer loop
      vertex  0.000000e+000 -7.391291e-001 -4.603252e+000
      vertex  2.000000e+001 -7.391291e-001 -4.603252e+000
      vertex  0.000000e+000 -1.073913e+001 -4.603252e+000
    endloop
  endfacet
  facet normal  0.000000e+000  4.768371e-008 -1.000000e+000
    outer loop
      vertex  0.000000e+000 -1.073913e+001 -4.603252e+000
      vertex  2.000000e+001 -7.391291e-001 -4.603252e+000
      vertex  2.000000e+001 -1.073913e+001 -4.603252e+000
    endloop
  endfacet
  facet normal  0.000000e+000 -9.999999e-001  0.000000e+000
    outer loop
      vertex  0.000000e+000 -1.073913e+001 -4.603252e+000
      vertex  2.000000e+001 -1.073913e+001 -4.603252e+000
      vertex  0.000000e+000 -1.073913e+001 -2.103252e+000
    endloop
  endfacet
  facet normal  0.000000e+000 -9.999999e-001  0.000000e+000
    outer loop
      vertex  0.000000e+000 -1.073913e+001 -2.103252e+000
      vertex  2.000000e+001 -1.073913e+001 -4.603252e+000
      vertex  2.000000e+001 -1.073913e+001 -2.103252e+000
    endloop
  endfacet
  facet normal  0.000000e+000  0.000000e+000  1.000000e+000
    outer loop
      vertex  0.000000e+000 -1.073913e+001 -2.103252e+000
      vertex  2.000000e+001 -1.073913e+001 -2.103252e+000
      vertex  0.000000e+000 -8.739129e+000 -2.103252e+000
    endloop
  endfacet
  facet normal  -0.000000e+000  0.000000e+000  1.000000e+000
    outer loop
      vertex  0.000000e+000 -8.739129e+000 -2.103252e+000
      vertex  2.000000e+001 -1.073913e+001 -2.103252e+000
      vertex  2.000000e+001 -8.739129e+000 -2.103252e+000
    endloop
  endfacet
  facet normal  0.000000e+000 -1.000000e+000  0.000000e+000
    outer loop
      vertex  0.000000e+000 -8.739129e+000 -2.103252e+000
      vertex  2.000000e+001 -8.739129e+000 -2.103252e+000
      vertex  0.000000e+000 -8.739129e+000  0.000000e+000
    endloop
  endfacet
  facet normal  0.000000e+000 -1.000000e+000  0.000000e+000
    outer loop
      vertex  0.000000e+000 -8.739129e+000  0.000000e+000
      vertex  2.000000e+001 -8.739129e+000 -2.103252e+000
      vertex  2.000000e+001 -8.739129e+000  0.000000e+000
    endloop
  endfacet
  facet normal  0.000000e+000  0.000000e+000  1.000000e+000
    outer loop
      vertex  0.000000e+000 -8.739129e+000  0.000000e+000
      vertex  2.000000e+001 -8.739129e+000  0.000000e+000
      vertex  0.000000e+000 -6.888490e+000  0.000000e+000
    endloop
  endfacet
  facet normal  -0.000000e+000  0.000000e+000  1.000000e+000
    outer loop
      vertex  0.000000e+000 -6.888490e+000  0.000000e+000
      vertex  2.000000e+001 -8.739129e+000  0.000000e+000
      vertex  2.000000e+001 -6.888490e+000  0.000000e+000
    endloop
  endfacet
  facet normal  0.000000e+000  1.000000e+000  0.000000e+000
    outer loop
      vertex  0.000000e+000 -6.888490e+000  0.000000e+000
      vertex  2.000000e+001 -6.888490e+000  0.000000e+000
      vertex  0.000000e+000 -6.888490e+000 -2.103252e+000
    endloop
  endfacet
  facet normal  0.000000e+000  1.000000e+000  0.000000e+000
    outer loop
      vertex  0.000000e+000 -6.888490e+000 -2.103252e+000
      vertex  2.000000e+001 -6.888490e+000  0.000000e+000
      vertex  2.000000e+001 -6.888490e+000 -2.103252e+000
    endloop
  endfacet
  facet normal  0.000000e+000  0.000000e+000  9.999999e-001
    outer loop
      vertex  0.000000e+000 -6.888490e+000 -2.103252e+000
      vertex  2.000000e+001 -6.888490e+000 -2.103252e+000
      vertex  0.000000e+000 -3.739129e+000 -2.103252e+000
    endloop
  endfacet
  facet normal  -0.000000e+000  0.000000e+000  9.999999e-001
    outer loop
      vertex  0.000000e+000 -3.739129e+000 -2.103252e+000
      vertex  2.000000e+001 -6.888490e+000 -2.103252e+000
      vertex  2.000000e+001 -3.739129e+000 -2.103252e+000
    endloop
  endfacet
  facet normal  -0.000000e+000  0.000000e+000 -1.000000e+000
    outer loop
      vertex  0.000000e+000 -6.888490e+000  4.052611e+000
      vertex  2.000000e+001 -6.888490e+000  4.052611e+000
      vertex  0.000000e+000 -8.739129e+000  4.052611e+000
    endloop
  endfacet
  facet normal  0.000000e+000  0.000000e+000 -1.000000e+000
    outer loop
      vertex  0.000000e+000 -8.739129e+000  4.052611e+000
      vertex  2.000000e+001 -6.888490e+000  4.052611e+000
      vertex  2.000000e+001 -8.739129e+000  4.052611e+000
    endloop
  endfacet
  facet normal  0.000000e+000 -1.000000e+000  0.000000e+000
    outer loop
      vertex  0.000000e+000 -8.739129e+000  4.052611e+000
      vertex  2.000000e+001 -8.739129e+000  4.052611e+000
      vertex  0.000000e+000 -8.739129e+000  5.796772e+000
    endloop
  endfacet
  facet normal  0.000000e+000 -1.000000e+000  0.000000e+000
    outer loop
      vertex  0.000000e+000 -8.739129e+000  5.796772e+000
      vertex  2.000000e+001 -8.739129e+000  4.052611e+000
      vertex  2.000000e+001 -8.739129e+000  5.796772e+000
    endloop
  endfacet
  facet normal  -0.000000e+000  0.000000e+000 -1.000000e+000
    outer loop
      vertex  0.000000e+000 -8.739129e+000  5.796772e+000
      vertex  2.000000e+001 -8.739129e+000  5.796772e+000
      vertex  0.000000e+000 -1.073913e+001  5.796772e+000
    endloop
  endfacet
  facet normal  0.000000e+000  0.000000e+000 -1.000000e+000
    outer loop
      vertex  0.000000e+000 -1.073913e+001  5.796772e+000
      vertex  2.000000e+001 -8.739129e+000  5.796772e+000
      vertex  2.000000e+001 -1.073913e+001  5.796772e+000
    endloop
  endfacet
endsolid CATIA STL
