solid CATIA STL
  facet normal  0.000000e+000  1.000000e+000  0.000000e+000
    outer loop
      vertex -6.729715e+000  1.000000e+001  7.975850e+000
      vertex  1.075684e+001  1.000000e+001  7.975850e+000
      vertex  3.929863e-002  1.000000e+001  7.202225e+000
    endloop
  endfacet
  facet normal  0.000000e+000  1.000000e+000  0.000000e+000
    outer loop
      vertex -6.729715e+000  1.000000e+001  7.975850e+000
      vertex  3.929863e-002  1.000000e+001  7.202225e+000
      vertex -9.992550e-001  1.000000e+001  7.093690e+000
    endloop
  endfacet
  facet normal  0.000000e+000  1.000000e+000  0.000000e+000
    outer loop
      vertex -6.729715e+000  1.000000e+001  7.975850e+000
      vertex -9.992550e-001  1.000000e+001  7.093690e+000
      vertex -1.974330e+000  1.000000e+001  6.720056e+000
    endloop
  endfacet
  facet normal  0.000000e+000  1.000000e+000  0.000000e+000
    outer loop
      vertex -6.729715e+000  1.000000e+001  7.975850e+000
      vertex -1.974330e+000  1.000000e+001  6.720056e+000
      vertex -2.819476e+000  1.000000e+001  6.106784e+000
    endloop
  endfacet
  facet normal  0.000000e+000  1.000000e+000  0.000000e+000
    outer loop
      vertex -6.729715e+000  1.000000e+001  7.975850e+000
      vertex -2.819476e+000  1.000000e+001  6.106784e+000
      vertex -9.922831e+000  1.000000e+001 -2.079634e+000
    endloop
  endfacet
  facet normal  0.000000e+000  1.000000e+000  0.000000e+000
    outer loop
      vertex  4.962423e+000  1.000000e+001 -2.079634e+000
      vertex -8.968318e+000  1.000000e+001 -2.079634e+000
      vertex -1.748476e-001  1.000000e+001 -7.949081e-001
    endloop
  endfacet
  facet normal  -0.000000e+000  1.000000e+000  0.000000e+000
    outer loop
      vertex  4.962423e+000  1.000000e+001 -2.079634e+000
      vertex -1.748476e-001  1.000000e+001 -7.949081e-001
      vertex  8.637061e-001  1.000000e+001 -6.863728e-001
    endloop
  endfacet
  facet normal  -0.000000e+000  1.000000e+000  0.000000e+000
    outer loop
      vertex  4.962423e+000  1.000000e+001 -2.079634e+000
      vertex  8.637061e-001  1.000000e+001 -6.863728e-001
      vertex  1.838781e+000  1.000000e+001 -3.127383e-001
    endloop
  endfacet
  facet normal  -0.000000e+000  1.000000e+000  0.000000e+000
    outer loop
      vertex  4.962423e+000  1.000000e+001 -2.079634e+000
      vertex  1.838781e+000  1.000000e+001 -3.127383e-001
      vertex  2.683927e+000  1.000000e+001  3.005329e-001
    endloop
  endfacet
  facet normal  -0.000000e+000  1.000000e+000  0.000000e+000
    outer loop
      vertex  4.962423e+000  1.000000e+001 -2.079634e+000
      vertex  2.683927e+000  1.000000e+001  3.005329e-001
      vertex  3.341549e+000  1.000000e+001  1.111647e+000
    endloop
  endfacet
  facet normal  -0.000000e+000  1.000000e+000  0.000000e+000
    outer loop
      vertex  4.962423e+000  1.000000e+001 -2.079634e+000
      vertex  3.341549e+000  1.000000e+001  1.111647e+000
      vertex  3.766832e+000  1.000000e+001  2.065329e+000
    endloop
  endfacet
  facet normal  -0.000000e+000  1.000000e+000  0.000000e+000
    outer loop
      vertex  4.962423e+000  1.000000e+001 -2.079634e+000
      vertex  3.766832e+000  1.000000e+001  2.065329e+000
      vertex  3.930792e+000  1.000000e+001  3.096586e+000
    endloop
  endfacet
  facet normal  -0.000000e+000  1.000000e+000  -0.000000e+000
    outer loop
      vertex  4.962423e+000  1.000000e+001 -2.079634e+000
      vertex  3.930792e+000  1.000000e+001  3.096586e+000
      vertex  3.822257e+000  1.000000e+001  4.135139e+000
    endloop
  endfacet
  facet normal  0.000000e+000  1.000000e+000  -0.000000e+000
    outer loop
      vertex  1.075684e+001  1.000000e+001  7.975850e+000
      vertex  4.962423e+000  1.000000e+001 -2.079634e+000
      vertex  3.822257e+000  1.000000e+001  4.135139e+000
    endloop
  endfacet
  facet normal  0.000000e+000  1.000000e+000  -0.000000e+000
    outer loop
      vertex  1.075684e+001  1.000000e+001  7.975850e+000
      vertex  3.822257e+000  1.000000e+001  4.135139e+000
      vertex  3.448622e+000  1.000000e+001  5.110214e+000
    endloop
  endfacet
  facet normal  0.000000e+000  1.000000e+000  -0.000000e+000
    outer loop
      vertex  1.075684e+001  1.000000e+001  7.975850e+000
      vertex  3.448622e+000  1.000000e+001  5.110214e+000
      vertex  2.835351e+000  1.000000e+001  5.955360e+000
    endloop
  endfacet
  facet normal  0.000000e+000  1.000000e+000  -0.000000e+000
    outer loop
      vertex  1.075684e+001  1.000000e+001  7.975850e+000
      vertex  2.835351e+000  1.000000e+001  5.955360e+000
      vertex  2.024237e+000  1.000000e+001  6.612982e+000
    endloop
  endfacet
  facet normal  0.000000e+000  1.000000e+000  -0.000000e+000
    outer loop
      vertex  1.075684e+001  1.000000e+001  7.975850e+000
      vertex  2.024237e+000  1.000000e+001  6.612982e+000
      vertex  1.070555e+000  1.000000e+001  7.038265e+000
    endloop
  endfacet
  facet normal  0.000000e+000  1.000000e+000  -0.000000e+000
    outer loop
      vertex  1.075684e+001  1.000000e+001  7.975850e+000
      vertex  1.070555e+000  1.000000e+001  7.038265e+000
      vertex  3.929863e-002  1.000000e+001  7.202225e+000
    endloop
  endfacet
  facet normal  0.000000e+000  9.999999e-001  0.000000e+000
    outer loop
      vertex -9.922831e+000  1.000000e+001 -2.079634e+000
      vertex -2.819476e+000  1.000000e+001  6.106784e+000
      vertex -3.477098e+000  1.000000e+001  5.295670e+000
    endloop
  endfacet
  facet normal  0.000000e+000  1.000000e+000  0.000000e+000
    outer loop
      vertex -9.922831e+000  1.000000e+001 -2.079634e+000
      vertex -3.477098e+000  1.000000e+001  5.295670e+000
      vertex -3.902381e+000  1.000000e+001  4.341989e+000
    endloop
  endfacet
  facet normal  0.000000e+000  1.000000e+000  0.000000e+000
    outer loop
      vertex -9.922831e+000  1.000000e+001 -2.079634e+000
      vertex -3.902381e+000  1.000000e+001  4.341989e+000
      vertex -4.066341e+000  1.000000e+001  3.310732e+000
    endloop
  endfacet
  facet normal  0.000000e+000  9.999999e-001  0.000000e+000
    outer loop
      vertex -9.922831e+000  1.000000e+001 -2.079634e+000
      vertex -4.066341e+000  1.000000e+001  3.310732e+000
      vertex -3.957806e+000  1.000000e+001  2.272178e+000
    endloop
  endfacet
  facet normal  0.000000e+000  1.000000e+000  0.000000e+000
    outer loop
      vertex -9.922831e+000  1.000000e+001 -2.079634e+000
      vertex -3.957806e+000  1.000000e+001  2.272178e+000
      vertex -3.584171e+000  1.000000e+001  1.297103e+000
    endloop
  endfacet
  facet normal  0.000000e+000  1.000000e+000  0.000000e+000
    outer loop
      vertex -9.922831e+000  1.000000e+001 -2.079634e+000
      vertex -3.584171e+000  1.000000e+001  1.297103e+000
      vertex -2.970900e+000  1.000000e+001  4.519571e-001
    endloop
  endfacet
  facet normal  0.000000e+000  1.000000e+000  0.000000e+000
    outer loop
      vertex -9.922831e+000  1.000000e+001 -2.079634e+000
      vertex -2.970900e+000  1.000000e+001  4.519571e-001
      vertex -2.159786e+000  1.000000e+001 -2.056652e-001
    endloop
  endfacet
  facet normal  0.000000e+000  1.000000e+000  0.000000e+000
    outer loop
      vertex -9.922831e+000  1.000000e+001 -2.079634e+000
      vertex -2.159786e+000  1.000000e+001 -2.056652e-001
      vertex -1.206104e+000  1.000000e+001 -6.309476e-001
    endloop
  endfacet
  facet normal  0.000000e+000  1.000000e+000  0.000000e+000
    outer loop
      vertex -9.922831e+000  1.000000e+001 -2.079634e+000
      vertex -1.206104e+000  1.000000e+001 -6.309476e-001
      vertex -1.748476e-001  1.000000e+001 -7.949081e-001
    endloop
  endfacet
  facet normal  0.000000e+000  1.000000e+000  0.000000e+000
    outer loop
      vertex -9.922831e+000  1.000000e+001 -2.079634e+000
      vertex -1.748476e-001  1.000000e+001 -7.949081e-001
      vertex -8.968318e+000  1.000000e+001 -2.079634e+000
    endloop
  endfacet
  facet normal  9.875957e-001  0.000000e+000 -1.570185e-001
    outer loop
      vertex  3.766832e+000  1.000000e+001  2.065329e+000
      vertex  3.766832e+000  1.700000e+001  2.065329e+000
      vertex  3.930792e+000  1.000000e+001  3.096586e+000
    endloop
  endfacet
  facet normal  9.875957e-001  0.000000e+000 -1.570185e-001
    outer loop
      vertex  3.930792e+000  1.000000e+001  3.096586e+000
      vertex  3.766832e+000  1.700000e+001  2.065329e+000
      vertex  3.930792e+000  1.700000e+001  3.096586e+000
    endloop
  endfacet
  facet normal  9.945834e-001  0.000000e+000  1.039401e-001
    outer loop
      vertex  3.930792e+000  1.000000e+001  3.096586e+000
      vertex  3.930792e+000  1.700000e+001  3.096586e+000
      vertex  3.822257e+000  1.000000e+001  4.135139e+000
    endloop
  endfacet
  facet normal  9.945834e-001  -0.000000e+000  1.039401e-001
    outer loop
      vertex  3.822257e+000  1.000000e+001  4.135139e+000
      vertex  3.930792e+000  1.700000e+001  3.096586e+000
      vertex  3.822257e+000  1.700000e+001  4.135139e+000
    endloop
  endfacet
  facet normal  9.337922e-001  0.000000e+000  3.578155e-001
    outer loop
      vertex  3.822257e+000  1.000000e+001  4.135139e+000
      vertex  3.822257e+000  1.700000e+001  4.135139e+000
      vertex  3.448622e+000  1.000000e+001  5.110214e+000
    endloop
  endfacet
  facet normal  9.337922e-001  -0.000000e+000  3.578155e-001
    outer loop
      vertex  3.448622e+000  1.000000e+001  5.110214e+000
      vertex  3.822257e+000  1.700000e+001  4.135139e+000
      vertex  3.448622e+000  1.700000e+001  5.110214e+000
    endloop
  endfacet
  facet normal  8.093645e-001  0.000000e+000  5.873066e-001
    outer loop
      vertex  3.448622e+000  1.000000e+001  5.110214e+000
      vertex  3.448622e+000  1.700000e+001  5.110214e+000
      vertex  2.835351e+000  1.000000e+001  5.955360e+000
    endloop
  endfacet
  facet normal  8.093645e-001  -0.000000e+000  5.873066e-001
    outer loop
      vertex  2.835351e+000  1.000000e+001  5.955360e+000
      vertex  3.448622e+000  1.700000e+001  5.110214e+000
      vertex  2.835351e+000  1.700000e+001  5.955360e+000
    endloop
  endfacet
  facet normal  6.297801e-001  0.000000e+000  7.767735e-001
    outer loop
      vertex  2.835351e+000  1.000000e+001  5.955360e+000
      vertex  2.835351e+000  1.700000e+001  5.955360e+000
      vertex  2.024237e+000  1.000000e+001  6.612982e+000
    endloop
  endfacet
  facet normal  6.297801e-001  -0.000000e+000  7.767735e-001
    outer loop
      vertex  2.024237e+000  1.000000e+001  6.612982e+000
      vertex  2.835351e+000  1.700000e+001  5.955360e+000
      vertex  2.024237e+000  1.700000e+001  6.612982e+000
    endloop
  endfacet
  facet normal  4.072770e-001  0.000000e+000  9.133047e-001
    outer loop
      vertex  2.024237e+000  1.000000e+001  6.612982e+000
      vertex  2.024237e+000  1.700000e+001  6.612982e+000
      vertex  1.070555e+000  1.000000e+001  7.038265e+000
    endloop
  endfacet
  facet normal  4.072770e-001  -0.000000e+000  9.133047e-001
    outer loop
      vertex  1.070555e+000  1.000000e+001  7.038265e+000
      vertex  2.024237e+000  1.700000e+001  6.612982e+000
      vertex  1.070555e+000  1.700000e+001  7.038265e+000
    endloop
  endfacet
  facet normal  1.570187e-001  0.000000e+000  9.875957e-001
    outer loop
      vertex  1.070555e+000  1.000000e+001  7.038265e+000
      vertex  1.070555e+000  1.700000e+001  7.038265e+000
      vertex  3.929863e-002  1.000000e+001  7.202225e+000
    endloop
  endfacet
  facet normal  1.570187e-001  -0.000000e+000  9.875957e-001
    outer loop
      vertex  3.929863e-002  1.000000e+001  7.202225e+000
      vertex  1.070555e+000  1.700000e+001  7.038265e+000
      vertex  3.929863e-002  1.700000e+001  7.202225e+000
    endloop
  endfacet
  facet normal -1.039401e-001  0.000000e+000  9.945835e-001
    outer loop
      vertex  3.929863e-002  1.000000e+001  7.202225e+000
      vertex  3.929863e-002  1.700000e+001  7.202225e+000
      vertex -9.992550e-001  1.000000e+001  7.093690e+000
    endloop
  endfacet
  facet normal -1.039401e-001  0.000000e+000  9.945835e-001
    outer loop
      vertex -9.992550e-001  1.000000e+001  7.093690e+000
      vertex  3.929863e-002  1.700000e+001  7.202225e+000
      vertex -9.992550e-001  1.700000e+001  7.093690e+000
    endloop
  endfacet
  facet normal -3.578155e-001  0.000000e+000  9.337923e-001
    outer loop
      vertex -9.992550e-001  1.000000e+001  7.093690e+000
      vertex -9.992550e-001  1.700000e+001  7.093690e+000
      vertex -1.974330e+000  1.000000e+001  6.720056e+000
    endloop
  endfacet
  facet normal -3.578155e-001  0.000000e+000  9.337923e-001
    outer loop
      vertex -1.974330e+000  1.000000e+001  6.720056e+000
      vertex -9.992550e-001  1.700000e+001  7.093690e+000
      vertex -1.974330e+000  1.700000e+001  6.720056e+000
    endloop
  endfacet
  facet normal -5.873067e-001  0.000000e+000  8.093644e-001
    outer loop
      vertex -1.974330e+000  1.000000e+001  6.720056e+000
      vertex -1.974330e+000  1.700000e+001  6.720056e+000
      vertex -2.819476e+000  1.000000e+001  6.106784e+000
    endloop
  endfacet
  facet normal -5.873067e-001  0.000000e+000  8.093644e-001
    outer loop
      vertex -2.819476e+000  1.000000e+001  6.106784e+000
      vertex -1.974330e+000  1.700000e+001  6.720056e+000
      vertex -2.819476e+000  1.700000e+001  6.106784e+000
    endloop
  endfacet
  facet normal -7.767735e-001  0.000000e+000  6.297801e-001
    outer loop
      vertex -2.819476e+000  1.000000e+001  6.106784e+000
      vertex -2.819476e+000  1.700000e+001  6.106784e+000
      vertex -3.477098e+000  1.000000e+001  5.295670e+000
    endloop
  endfacet
  facet normal -7.767735e-001  0.000000e+000  6.297801e-001
    outer loop
      vertex -3.477098e+000  1.000000e+001  5.295670e+000
      vertex -2.819476e+000  1.700000e+001  6.106784e+000
      vertex -3.477098e+000  1.700000e+001  5.295670e+000
    endloop
  endfacet
  facet normal -9.133047e-001  0.000000e+000  4.072770e-001
    outer loop
      vertex -3.477098e+000  1.000000e+001  5.295670e+000
      vertex -3.477098e+000  1.700000e+001  5.295670e+000
      vertex -3.902381e+000  1.000000e+001  4.341989e+000
    endloop
  endfacet
  facet normal -9.133047e-001  0.000000e+000  4.072770e-001
    outer loop
      vertex -3.902381e+000  1.000000e+001  4.341989e+000
      vertex -3.477098e+000  1.700000e+001  5.295670e+000
      vertex -3.902381e+000  1.700000e+001  4.341989e+000
    endloop
  endfacet
  facet normal -9.875957e-001  0.000000e+000  1.570185e-001
    outer loop
      vertex -3.902381e+000  1.000000e+001  4.341989e+000
      vertex -3.902381e+000  1.700000e+001  4.341989e+000
      vertex -4.066341e+000  1.000000e+001  3.310732e+000
    endloop
  endfacet
  facet normal -9.875957e-001  0.000000e+000  1.570185e-001
    outer loop
      vertex -4.066341e+000  1.000000e+001  3.310732e+000
      vertex -3.902381e+000  1.700000e+001  4.341989e+000
      vertex -4.066341e+000  1.700000e+001  3.310732e+000
    endloop
  endfacet
  facet normal -9.945835e-001  -0.000000e+000 -1.039399e-001
    outer loop
      vertex -4.066341e+000  1.000000e+001  3.310732e+000
      vertex -4.066341e+000  1.700000e+001  3.310732e+000
      vertex -3.957806e+000  1.000000e+001  2.272178e+000
    endloop
  endfacet
  facet normal -9.945835e-001  0.000000e+000 -1.039399e-001
    outer loop
      vertex -3.957806e+000  1.000000e+001  2.272178e+000
      vertex -4.066341e+000  1.700000e+001  3.310732e+000
      vertex -3.957806e+000  1.700000e+001  2.272178e+000
    endloop
  endfacet
  facet normal -9.337921e-001  -0.000000e+000 -3.578157e-001
    outer loop
      vertex -3.957806e+000  1.000000e+001  2.272178e+000
      vertex -3.957806e+000  1.700000e+001  2.272178e+000
      vertex -3.584171e+000  1.000000e+001  1.297103e+000
    endloop
  endfacet
  facet normal -9.337921e-001  0.000000e+000 -3.578157e-001
    outer loop
      vertex -3.584171e+000  1.000000e+001  1.297103e+000
      vertex -3.957806e+000  1.700000e+001  2.272178e+000
      vertex -3.584171e+000  1.700000e+001  1.297103e+000
    endloop
  endfacet
  facet normal -8.093646e-001  -0.000000e+000 -5.873065e-001
    outer loop
      vertex -3.584171e+000  1.000000e+001  1.297103e+000
      vertex -3.584171e+000  1.700000e+001  1.297103e+000
      vertex -2.970900e+000  1.000000e+001  4.519571e-001
    endloop
  endfacet
  facet normal -8.093646e-001  0.000000e+000 -5.873065e-001
    outer loop
      vertex -2.970900e+000  1.000000e+001  4.519571e-001
      vertex -3.584171e+000  1.700000e+001  1.297103e+000
      vertex -2.970900e+000  1.700000e+001  4.519571e-001
    endloop
  endfacet
  facet normal -6.297799e-001  -0.000000e+000 -7.767737e-001
    outer loop
      vertex -2.970900e+000  1.000000e+001  4.519571e-001
      vertex -2.970900e+000  1.700000e+001  4.519571e-001
      vertex -2.159786e+000  1.000000e+001 -2.056652e-001
    endloop
  endfacet
  facet normal -6.297799e-001  0.000000e+000 -7.767737e-001
    outer loop
      vertex -2.159786e+000  1.000000e+001 -2.056652e-001
      vertex -2.970900e+000  1.700000e+001  4.519571e-001
      vertex -2.159786e+000  1.700000e+001 -2.056652e-001
    endloop
  endfacet
  facet normal -4.072770e-001  -0.000000e+000 -9.133047e-001
    outer loop
      vertex -2.159786e+000  1.000000e+001 -2.056652e-001
      vertex -2.159786e+000  1.700000e+001 -2.056652e-001
      vertex -1.206104e+000  1.000000e+001 -6.309476e-001
    endloop
  endfacet
  facet normal -4.072770e-001  0.000000e+000 -9.133047e-001
    outer loop
      vertex -1.206104e+000  1.000000e+001 -6.309476e-001
      vertex -2.159786e+000  1.700000e+001 -2.056652e-001
      vertex -1.206104e+000  1.700000e+001 -6.309476e-001
    endloop
  endfacet
  facet normal -1.570187e-001  -0.000000e+000 -9.875957e-001
    outer loop
      vertex -1.206104e+000  1.000000e+001 -6.309476e-001
      vertex -1.206104e+000  1.700000e+001 -6.309476e-001
      vertex -1.748476e-001  1.000000e+001 -7.949081e-001
    endloop
  endfacet
  facet normal -1.570187e-001  0.000000e+000 -9.875957e-001
    outer loop
      vertex -1.748476e-001  1.000000e+001 -7.949081e-001
      vertex -1.206104e+000  1.700000e+001 -6.309476e-001
      vertex -1.748476e-001  1.700000e+001 -7.949081e-001
    endloop
  endfacet
  facet normal  1.039402e-001  0.000000e+000 -9.945835e-001
    outer loop
      vertex -1.748476e-001  1.000000e+001 -7.949081e-001
      vertex -1.748476e-001  1.700000e+001 -7.949081e-001
      vertex  8.637061e-001  1.000000e+001 -6.863728e-001
    endloop
  endfacet
  facet normal  1.039402e-001  0.000000e+000 -9.945835e-001
    outer loop
      vertex  8.637061e-001  1.000000e+001 -6.863728e-001
      vertex -1.748476e-001  1.700000e+001 -7.949081e-001
      vertex  8.637061e-001  1.700000e+001 -6.863728e-001
    endloop
  endfacet
  facet normal  3.578156e-001  0.000000e+000 -9.337922e-001
    outer loop
      vertex  8.637061e-001  1.000000e+001 -6.863728e-001
      vertex  8.637061e-001  1.700000e+001 -6.863728e-001
      vertex  1.838781e+000  1.000000e+001 -3.127383e-001
    endloop
  endfacet
  facet normal  3.578156e-001  0.000000e+000 -9.337922e-001
    outer loop
      vertex  1.838781e+000  1.000000e+001 -3.127383e-001
      vertex  8.637061e-001  1.700000e+001 -6.863728e-001
      vertex  1.838781e+000  1.700000e+001 -3.127383e-001
    endloop
  endfacet
  facet normal  5.873066e-001  0.000000e+000 -8.093646e-001
    outer loop
      vertex  1.838781e+000  1.000000e+001 -3.127383e-001
      vertex  1.838781e+000  1.700000e+001 -3.127383e-001
      vertex  2.683927e+000  1.000000e+001  3.005329e-001
    endloop
  endfacet
  facet normal  5.873066e-001  0.000000e+000 -8.093646e-001
    outer loop
      vertex  2.683927e+000  1.000000e+001  3.005329e-001
      vertex  1.838781e+000  1.700000e+001 -3.127383e-001
      vertex  2.683927e+000  1.700000e+001  3.005329e-001
    endloop
  endfacet
  facet normal  7.767736e-001  0.000000e+000 -6.297801e-001
    outer loop
      vertex  2.683927e+000  1.000000e+001  3.005329e-001
      vertex  2.683927e+000  1.700000e+001  3.005329e-001
      vertex  3.341549e+000  1.000000e+001  1.111647e+000
    endloop
  endfacet
  facet normal  7.767736e-001  0.000000e+000 -6.297801e-001
    outer loop
      vertex  3.341549e+000  1.000000e+001  1.111647e+000
      vertex  2.683927e+000  1.700000e+001  3.005329e-001
      vertex  3.341549e+000  1.700000e+001  1.111647e+000
    endloop
  endfacet
  facet normal  9.133047e-001  0.000000e+000 -4.072770e-001
    outer loop
      vertex  3.341549e+000  1.000000e+001  1.111647e+000
      vertex  3.341549e+000  1.700000e+001  1.111647e+000
      vertex  3.766832e+000  1.000000e+001  2.065329e+000
    endloop
  endfacet
  facet normal  9.133047e-001  0.000000e+000 -4.072770e-001
    outer loop
      vertex  3.766832e+000  1.000000e+001  2.065329e+000
      vertex  3.341549e+000  1.700000e+001  1.111647e+000
      vertex  3.766832e+000  1.700000e+001  2.065329e+000
    endloop
  endfacet
  facet normal  -0.000000e+000  1.000000e+000  0.000000e+000
    outer loop
      vertex  1.070555e+000  1.700000e+001  7.038265e+000
      vertex -9.992550e-001  1.700000e+001  7.093690e+000
      vertex  3.929863e-002  1.700000e+001  7.202225e+000
    endloop
  endfacet
  facet normal  0.000000e+000  1.000000e+000  0.000000e+000
    outer loop
      vertex -9.992550e-001  1.700000e+001  7.093690e+000
      vertex  1.070555e+000  1.700000e+001  7.038265e+000
      vertex -1.974330e+000  1.700000e+001  6.720056e+000
    endloop
  endfacet
  facet normal  -0.000000e+000  1.000000e+000  0.000000e+000
    outer loop
      vertex -1.974330e+000  1.700000e+001  6.720056e+000
      vertex  1.070555e+000  1.700000e+001  7.038265e+000
      vertex  2.024237e+000  1.700000e+001  6.612982e+000
    endloop
  endfacet
  facet normal  0.000000e+000  1.000000e+000  0.000000e+000
    outer loop
      vertex -1.974330e+000  1.700000e+001  6.720056e+000
      vertex  2.024237e+000  1.700000e+001  6.612982e+000
      vertex -2.819476e+000  1.700000e+001  6.106784e+000
    endloop
  endfacet
  facet normal  -0.000000e+000  1.000000e+000  0.000000e+000
    outer loop
      vertex -2.819476e+000  1.700000e+001  6.106784e+000
      vertex  2.024237e+000  1.700000e+001  6.612982e+000
      vertex  2.835351e+000  1.700000e+001  5.955360e+000
    endloop
  endfacet
  facet normal  0.000000e+000  9.999999e-001  0.000000e+000
    outer loop
      vertex -2.819476e+000  1.700000e+001  6.106784e+000
      vertex  2.835351e+000  1.700000e+001  5.955360e+000
      vertex -3.477098e+000  1.700000e+001  5.295670e+000
    endloop
  endfacet
  facet normal  -0.000000e+000  1.000000e+000  0.000000e+000
    outer loop
      vertex -3.477098e+000  1.700000e+001  5.295670e+000
      vertex  2.835351e+000  1.700000e+001  5.955360e+000
      vertex  3.448622e+000  1.700000e+001  5.110214e+000
    endloop
  endfacet
  facet normal  0.000000e+000  1.000000e+000  0.000000e+000
    outer loop
      vertex -3.477098e+000  1.700000e+001  5.295670e+000
      vertex  3.448622e+000  1.700000e+001  5.110214e+000
      vertex -3.902381e+000  1.700000e+001  4.341989e+000
    endloop
  endfacet
  facet normal  -0.000000e+000  9.999999e-001  0.000000e+000
    outer loop
      vertex -3.902381e+000  1.700000e+001  4.341989e+000
      vertex  3.448622e+000  1.700000e+001  5.110214e+000
      vertex  3.822257e+000  1.700000e+001  4.135139e+000
    endloop
  endfacet
  facet normal  0.000000e+000  1.000000e+000  0.000000e+000
    outer loop
      vertex -3.902381e+000  1.700000e+001  4.341989e+000
      vertex  3.822257e+000  1.700000e+001  4.135139e+000
      vertex -4.066341e+000  1.700000e+001  3.310732e+000
    endloop
  endfacet
  facet normal  -0.000000e+000  1.000000e+000  0.000000e+000
    outer loop
      vertex -4.066341e+000  1.700000e+001  3.310732e+000
      vertex  3.822257e+000  1.700000e+001  4.135139e+000
      vertex  3.930792e+000  1.700000e+001  3.096586e+000
    endloop
  endfacet
  facet normal  0.000000e+000  1.000000e+000  0.000000e+000
    outer loop
      vertex -4.066341e+000  1.700000e+001  3.310732e+000
      vertex  3.930792e+000  1.700000e+001  3.096586e+000
      vertex -3.957806e+000  1.700000e+001  2.272178e+000
    endloop
  endfacet
  facet normal  -0.000000e+000  1.000000e+000  0.000000e+000
    outer loop
      vertex -3.957806e+000  1.700000e+001  2.272178e+000
      vertex  3.930792e+000  1.700000e+001  3.096586e+000
      vertex  3.766832e+000  1.700000e+001  2.065329e+000
    endloop
  endfacet
  facet normal  0.000000e+000  1.000000e+000  0.000000e+000
    outer loop
      vertex -3.957806e+000  1.700000e+001  2.272178e+000
      vertex  3.766832e+000  1.700000e+001  2.065329e+000
      vertex -3.584171e+000  1.700000e+001  1.297103e+000
    endloop
  endfacet
  facet normal  -0.000000e+000  1.000000e+000  0.000000e+000
    outer loop
      vertex -3.584171e+000  1.700000e+001  1.297103e+000
      vertex  3.766832e+000  1.700000e+001  2.065329e+000
      vertex  3.341549e+000  1.700000e+001  1.111647e+000
    endloop
  endfacet
  facet normal  0.000000e+000  1.000000e+000  0.000000e+000
    outer loop
      vertex -3.584171e+000  1.700000e+001  1.297103e+000
      vertex  3.341549e+000  1.700000e+001  1.111647e+000
      vertex -2.970900e+000  1.700000e+001  4.519571e-001
    endloop
  endfacet
  facet normal  -0.000000e+000  1.000000e+000  0.000000e+000
    outer loop
      vertex -2.970900e+000  1.700000e+001  4.519571e-001
      vertex  3.341549e+000  1.700000e+001  1.111647e+000
      vertex  2.683927e+000  1.700000e+001  3.005329e-001
    endloop
  endfacet
  facet normal  0.000000e+000  9.999999e-001  0.000000e+000
    outer loop
      vertex -2.970900e+000  1.700000e+001  4.519571e-001
      vertex  2.683927e+000  1.700000e+001  3.005329e-001
      vertex -2.159786e+000  1.700000e+001 -2.056652e-001
    endloop
  endfacet
  facet normal  -0.000000e+000  1.000000e+000  0.000000e+000
    outer loop
      vertex -2.159786e+000  1.700000e+001 -2.056652e-001
      vertex  2.683927e+000  1.700000e+001  3.005329e-001
      vertex  1.838781e+000  1.700000e+001 -3.127383e-001
    endloop
  endfacet
  facet normal  0.000000e+000  9.999999e-001  0.000000e+000
    outer loop
      vertex -2.159786e+000  1.700000e+001 -2.056652e-001
      vertex  1.838781e+000  1.700000e+001 -3.127383e-001
      vertex -1.206104e+000  1.700000e+001 -6.309476e-001
    endloop
  endfacet
  facet normal  -0.000000e+000  1.000000e+000  0.000000e+000
    outer loop
      vertex -1.206104e+000  1.700000e+001 -6.309476e-001
      vertex  1.838781e+000  1.700000e+001 -3.127383e-001
      vertex  8.637061e-001  1.700000e+001 -6.863728e-001
    endloop
  endfacet
  facet normal  0.000000e+000  1.000000e+000  0.000000e+000
    outer loop
      vertex -1.206104e+000  1.700000e+001 -6.309476e-001
      vertex  8.637061e-001  1.700000e+001 -6.863728e-001
      vertex -1.748476e-001  1.700000e+001 -7.949081e-001
    endloop
  endfacet
  facet normal  0.000000e+000 -1.000000e+000  0.000000e+000
    outer loop
      vertex  4.962423e+000  0.000000e+000 -2.079634e+000
      vertex  3.863703e+000  0.000000e+000  3.656219e+000
      vertex  4.000000e+000  0.000000e+000  2.620943e+000
    endloop
  endfacet
  facet normal  0.000000e+000 -9.999999e-001  -0.000000e+000
    outer loop
      vertex  4.962423e+000  0.000000e+000 -2.079634e+000
      vertex  4.000000e+000  0.000000e+000  2.620943e+000
      vertex  3.863703e+000  0.000000e+000  1.585667e+000
    endloop
  endfacet
  facet normal  0.000000e+000 -1.000000e+000  -0.000000e+000
    outer loop
      vertex  4.962423e+000  0.000000e+000 -2.079634e+000
      vertex  3.863703e+000  0.000000e+000  1.585667e+000
      vertex  3.464102e+000  0.000000e+000  6.209428e-001
    endloop
  endfacet
  facet normal  0.000000e+000 -9.999999e-001  -0.000000e+000
    outer loop
      vertex  4.962423e+000  0.000000e+000 -2.079634e+000
      vertex  3.464102e+000  0.000000e+000  6.209428e-001
      vertex  2.828427e+000  0.000000e+000 -2.074843e-001
    endloop
  endfacet
  facet normal  0.000000e+000 -1.000000e+000  -0.000000e+000
    outer loop
      vertex  4.962423e+000  0.000000e+000 -2.079634e+000
      vertex  2.828427e+000  0.000000e+000 -2.074843e-001
      vertex  2.000000e+000  0.000000e+000 -8.431588e-001
    endloop
  endfacet
  facet normal  0.000000e+000 -1.000000e+000  -0.000000e+000
    outer loop
      vertex  4.962423e+000  0.000000e+000 -2.079634e+000
      vertex  2.000000e+000  0.000000e+000 -8.431588e-001
      vertex  1.035276e+000  0.000000e+000 -1.242760e+000
    endloop
  endfacet
  facet normal  0.000000e+000 -1.000000e+000  -0.000000e+000
    outer loop
      vertex  4.962423e+000  0.000000e+000 -2.079634e+000
      vertex  1.035276e+000  0.000000e+000 -1.242760e+000
      vertex -1.592536e-014  0.000000e+000 -1.379057e+000
    endloop
  endfacet
  facet normal  0.000000e+000 -1.000000e+000  -0.000000e+000
    outer loop
      vertex  4.962423e+000  0.000000e+000 -2.079634e+000
      vertex -1.592536e-014  0.000000e+000 -1.379057e+000
      vertex -8.968318e+000  0.000000e+000 -2.079634e+000
    endloop
  endfacet
  facet normal  0.000000e+000 -1.000000e+000  0.000000e+000
    outer loop
      vertex  1.075684e+001  0.000000e+000  7.975850e+000
      vertex -6.729715e+000  0.000000e+000  7.975850e+000
      vertex  4.777360e-015  0.000000e+000  6.620943e+000
    endloop
  endfacet
  facet normal  0.000000e+000 -9.999999e-001  0.000000e+000
    outer loop
      vertex  1.075684e+001  0.000000e+000  7.975850e+000
      vertex  4.777360e-015  0.000000e+000  6.620943e+000
      vertex  1.035276e+000  0.000000e+000  6.484646e+000
    endloop
  endfacet
  facet normal  0.000000e+000 -1.000000e+000  0.000000e+000
    outer loop
      vertex  1.075684e+001  0.000000e+000  7.975850e+000
      vertex  1.035276e+000  0.000000e+000  6.484646e+000
      vertex  2.000000e+000  0.000000e+000  6.085044e+000
    endloop
  endfacet
  facet normal  0.000000e+000 -9.999999e-001  0.000000e+000
    outer loop
      vertex  1.075684e+001  0.000000e+000  7.975850e+000
      vertex  2.000000e+000  0.000000e+000  6.085044e+000
      vertex  2.828427e+000  0.000000e+000  5.449370e+000
    endloop
  endfacet
  facet normal  0.000000e+000 -1.000000e+000  0.000000e+000
    outer loop
      vertex  1.075684e+001  0.000000e+000  7.975850e+000
      vertex  2.828427e+000  0.000000e+000  5.449370e+000
      vertex  3.464102e+000  0.000000e+000  4.620943e+000
    endloop
  endfacet
  facet normal  0.000000e+000 -1.000000e+000  0.000000e+000
    outer loop
      vertex  1.075684e+001  0.000000e+000  7.975850e+000
      vertex  3.464102e+000  0.000000e+000  4.620943e+000
      vertex  3.863703e+000  0.000000e+000  3.656219e+000
    endloop
  endfacet
  facet normal  0.000000e+000 -1.000000e+000  0.000000e+000
    outer loop
      vertex  1.075684e+001  0.000000e+000  7.975850e+000
      vertex  3.863703e+000  0.000000e+000  3.656219e+000
      vertex  4.962423e+000  0.000000e+000 -2.079634e+000
    endloop
  endfacet
  facet normal  0.000000e+000 -1.000000e+000  0.000000e+000
    outer loop
      vertex -9.922831e+000  0.000000e+000 -2.079634e+000
      vertex -8.968318e+000  0.000000e+000 -2.079634e+000
      vertex -1.592536e-014  0.000000e+000 -1.379057e+000
    endloop
  endfacet
  facet normal  -0.000000e+000 -1.000000e+000  0.000000e+000
    outer loop
      vertex -9.922831e+000  0.000000e+000 -2.079634e+000
      vertex -1.592536e-014  0.000000e+000 -1.379057e+000
      vertex -1.035276e+000  0.000000e+000 -1.242760e+000
    endloop
  endfacet
  facet normal  -0.000000e+000 -1.000000e+000  0.000000e+000
    outer loop
      vertex -9.922831e+000  0.000000e+000 -2.079634e+000
      vertex -1.035276e+000  0.000000e+000 -1.242760e+000
      vertex -2.000000e+000  0.000000e+000 -8.431588e-001
    endloop
  endfacet
  facet normal  -0.000000e+000 -1.000000e+000  0.000000e+000
    outer loop
      vertex -9.922831e+000  0.000000e+000 -2.079634e+000
      vertex -2.000000e+000  0.000000e+000 -8.431588e-001
      vertex -2.828427e+000  0.000000e+000 -2.074843e-001
    endloop
  endfacet
  facet normal  -0.000000e+000 -9.999999e-001  0.000000e+000
    outer loop
      vertex -9.922831e+000  0.000000e+000 -2.079634e+000
      vertex -2.828427e+000  0.000000e+000 -2.074843e-001
      vertex -3.464102e+000  0.000000e+000  6.209428e-001
    endloop
  endfacet
  facet normal  -0.000000e+000 -1.000000e+000  0.000000e+000
    outer loop
      vertex -9.922831e+000  0.000000e+000 -2.079634e+000
      vertex -3.464102e+000  0.000000e+000  6.209428e-001
      vertex -3.863703e+000  0.000000e+000  1.585667e+000
    endloop
  endfacet
  facet normal  -0.000000e+000 -1.000000e+000  0.000000e+000
    outer loop
      vertex -9.922831e+000  0.000000e+000 -2.079634e+000
      vertex -3.863703e+000  0.000000e+000  1.585667e+000
      vertex -4.000000e+000  0.000000e+000  2.620943e+000
    endloop
  endfacet
  facet normal  -0.000000e+000 -9.999999e-001  0.000000e+000
    outer loop
      vertex -9.922831e+000  0.000000e+000 -2.079634e+000
      vertex -4.000000e+000  0.000000e+000  2.620943e+000
      vertex -3.863703e+000  0.000000e+000  3.656219e+000
    endloop
  endfacet
  facet normal  -0.000000e+000 -1.000000e+000  0.000000e+000
    outer loop
      vertex -9.922831e+000  0.000000e+000 -2.079634e+000
      vertex -3.863703e+000  0.000000e+000  3.656219e+000
      vertex -3.464102e+000  0.000000e+000  4.620943e+000
    endloop
  endfacet
  facet normal  -0.000000e+000 -1.000000e+000  0.000000e+000
    outer loop
      vertex -9.922831e+000  0.000000e+000 -2.079634e+000
      vertex -3.464102e+000  0.000000e+000  4.620943e+000
      vertex -2.828427e+000  0.000000e+000  5.449370e+000
    endloop
  endfacet
  facet normal  0.000000e+000 -1.000000e+000  0.000000e+000
    outer loop
      vertex -6.729715e+000  0.000000e+000  7.975850e+000
      vertex -9.922831e+000  0.000000e+000 -2.079634e+000
      vertex -2.828427e+000  0.000000e+000  5.449370e+000
    endloop
  endfacet
  facet normal  0.000000e+000 -1.000000e+000  0.000000e+000
    outer loop
      vertex -6.729715e+000  0.000000e+000  7.975850e+000
      vertex -2.828427e+000  0.000000e+000  5.449370e+000
      vertex -2.000000e+000  0.000000e+000  6.085044e+000
    endloop
  endfacet
  facet normal  0.000000e+000 -1.000000e+000  0.000000e+000
    outer loop
      vertex -6.729715e+000  0.000000e+000  7.975850e+000
      vertex -2.000000e+000  0.000000e+000  6.085044e+000
      vertex -1.035276e+000  0.000000e+000  6.484646e+000
    endloop
  endfacet
  facet normal  0.000000e+000 -1.000000e+000  0.000000e+000
    outer loop
      vertex -6.729715e+000  0.000000e+000  7.975850e+000
      vertex -1.035276e+000  0.000000e+000  6.484646e+000
      vertex  4.777360e-015  0.000000e+000  6.620943e+000
    endloop
  endfacet
  facet normal  9.914449e-001  0.000000e+000 -1.305262e-001
    outer loop
      vertex  4.000000e+000  0.000000e+000  2.620943e+000
      vertex  4.000000e+000 -2.500000e+001  2.620943e+000
      vertex  3.863703e+000  0.000000e+000  1.585667e+000
    endloop
  endfacet
  facet normal  9.914449e-001  0.000000e+000 -1.305262e-001
    outer loop
      vertex  3.863703e+000  0.000000e+000  1.585667e+000
      vertex  4.000000e+000 -2.500000e+001  2.620943e+000
      vertex  3.863703e+000 -2.500000e+001  1.585667e+000
    endloop
  endfacet
  facet normal  9.238796e-001  0.000000e+000 -3.826835e-001
    outer loop
      vertex  3.863703e+000  0.000000e+000  1.585667e+000
      vertex  3.863703e+000 -2.500000e+001  1.585667e+000
      vertex  3.464102e+000  0.000000e+000  6.209428e-001
    endloop
  endfacet
  facet normal  9.238796e-001  0.000000e+000 -3.826835e-001
    outer loop
      vertex  3.464102e+000  0.000000e+000  6.209428e-001
      vertex  3.863703e+000 -2.500000e+001  1.585667e+000
      vertex  3.464102e+000 -2.500000e+001  6.209428e-001
    endloop
  endfacet
  facet normal  7.933534e-001  0.000000e+000 -6.087614e-001
    outer loop
      vertex  3.464102e+000  0.000000e+000  6.209428e-001
      vertex  3.464102e+000 -2.500000e+001  6.209428e-001
      vertex  2.828427e+000  0.000000e+000 -2.074843e-001
    endloop
  endfacet
  facet normal  7.933534e-001  0.000000e+000 -6.087614e-001
    outer loop
      vertex  2.828427e+000  0.000000e+000 -2.074843e-001
      vertex  3.464102e+000 -2.500000e+001  6.209428e-001
      vertex  2.828427e+000 -2.500000e+001 -2.074843e-001
    endloop
  endfacet
  facet normal  6.087614e-001  0.000000e+000 -7.933533e-001
    outer loop
      vertex  2.828427e+000  0.000000e+000 -2.074843e-001
      vertex  2.828427e+000 -2.500000e+001 -2.074843e-001
      vertex  2.000000e+000  0.000000e+000 -8.431588e-001
    endloop
  endfacet
  facet normal  6.087614e-001  0.000000e+000 -7.933533e-001
    outer loop
      vertex  2.000000e+000  0.000000e+000 -8.431588e-001
      vertex  2.828427e+000 -2.500000e+001 -2.074843e-001
      vertex  2.000000e+000 -2.500000e+001 -8.431588e-001
    endloop
  endfacet
  facet normal  3.826834e-001  0.000000e+000 -9.238796e-001
    outer loop
      vertex  2.000000e+000  0.000000e+000 -8.431588e-001
      vertex  2.000000e+000 -2.500000e+001 -8.431588e-001
      vertex  1.035276e+000  0.000000e+000 -1.242760e+000
    endloop
  endfacet
  facet normal  3.826834e-001  0.000000e+000 -9.238796e-001
    outer loop
      vertex  1.035276e+000  0.000000e+000 -1.242760e+000
      vertex  2.000000e+000 -2.500000e+001 -8.431588e-001
      vertex  1.035276e+000 -2.500000e+001 -1.242760e+000
    endloop
  endfacet
  facet normal  1.305262e-001  0.000000e+000 -9.914449e-001
    outer loop
      vertex  1.035276e+000  0.000000e+000 -1.242760e+000
      vertex  1.035276e+000 -2.500000e+001 -1.242760e+000
      vertex -1.592536e-014  0.000000e+000 -1.379057e+000
    endloop
  endfacet
  facet normal  1.305262e-001  3.709779e-017 -9.914449e-001
    outer loop
      vertex -1.592536e-014  0.000000e+000 -1.379057e+000
      vertex  1.035276e+000 -2.500000e+001 -1.242760e+000
      vertex -8.819933e-015 -2.500000e+001 -1.379057e+000
    endloop
  endfacet
  facet normal -1.305262e-001 -3.709779e-017 -9.914449e-001
    outer loop
      vertex -1.592536e-014  0.000000e+000 -1.379057e+000
      vertex -8.819933e-015 -2.500000e+001 -1.379057e+000
      vertex -1.035276e+000  0.000000e+000 -1.242760e+000
    endloop
  endfacet
  facet normal -1.305262e-001  -0.000000e+000 -9.914449e-001
    outer loop
      vertex -1.035276e+000  0.000000e+000 -1.242760e+000
      vertex -8.819933e-015 -2.500000e+001 -1.379057e+000
      vertex -1.035276e+000 -2.500000e+001 -1.242760e+000
    endloop
  endfacet
  facet normal -3.826834e-001  0.000000e+000 -9.238796e-001
    outer loop
      vertex -1.035276e+000  0.000000e+000 -1.242760e+000
      vertex -1.035276e+000 -2.500000e+001 -1.242760e+000
      vertex -2.000000e+000  0.000000e+000 -8.431588e-001
    endloop
  endfacet
  facet normal -3.826834e-001  -0.000000e+000 -9.238796e-001
    outer loop
      vertex -2.000000e+000  0.000000e+000 -8.431588e-001
      vertex -1.035276e+000 -2.500000e+001 -1.242760e+000
      vertex -2.000000e+000 -2.500000e+001 -8.431588e-001
    endloop
  endfacet
  facet normal -6.087614e-001  0.000000e+000 -7.933533e-001
    outer loop
      vertex -2.000000e+000  0.000000e+000 -8.431588e-001
      vertex -2.000000e+000 -2.500000e+001 -8.431588e-001
      vertex -2.828427e+000  0.000000e+000 -2.074843e-001
    endloop
  endfacet
  facet normal -6.087614e-001  -0.000000e+000 -7.933533e-001
    outer loop
      vertex -2.828427e+000  0.000000e+000 -2.074843e-001
      vertex -2.000000e+000 -2.500000e+001 -8.431588e-001
      vertex -2.828427e+000 -2.500000e+001 -2.074843e-001
    endloop
  endfacet
  facet normal -7.933534e-001  0.000000e+000 -6.087614e-001
    outer loop
      vertex -2.828427e+000  0.000000e+000 -2.074843e-001
      vertex -2.828427e+000 -2.500000e+001 -2.074843e-001
      vertex -3.464102e+000  0.000000e+000  6.209428e-001
    endloop
  endfacet
  facet normal -7.933534e-001  -0.000000e+000 -6.087614e-001
    outer loop
      vertex -3.464102e+000  0.000000e+000  6.209428e-001
      vertex -2.828427e+000 -2.500000e+001 -2.074843e-001
      vertex -3.464102e+000 -2.500000e+001  6.209428e-001
    endloop
  endfacet
  facet normal -9.238796e-001  0.000000e+000 -3.826835e-001
    outer loop
      vertex -3.464102e+000  0.000000e+000  6.209428e-001
      vertex -3.464102e+000 -2.500000e+001  6.209428e-001
      vertex -3.863703e+000  0.000000e+000  1.585667e+000
    endloop
  endfacet
  facet normal -9.238796e-001  -0.000000e+000 -3.826835e-001
    outer loop
      vertex -3.863703e+000  0.000000e+000  1.585667e+000
      vertex -3.464102e+000 -2.500000e+001  6.209428e-001
      vertex -3.863703e+000 -2.500000e+001  1.585667e+000
    endloop
  endfacet
  facet normal -9.914449e-001  0.000000e+000 -1.305262e-001
    outer loop
      vertex -3.863703e+000  0.000000e+000  1.585667e+000
      vertex -3.863703e+000 -2.500000e+001  1.585667e+000
      vertex -4.000000e+000  0.000000e+000  2.620943e+000
    endloop
  endfacet
  facet normal -9.914449e-001  -0.000000e+000 -1.305262e-001
    outer loop
      vertex -4.000000e+000  0.000000e+000  2.620943e+000
      vertex -3.863703e+000 -2.500000e+001  1.585667e+000
      vertex -4.000000e+000 -2.500000e+001  2.620943e+000
    endloop
  endfacet
  facet normal -9.914449e-001  0.000000e+000  1.305262e-001
    outer loop
      vertex -4.000000e+000  0.000000e+000  2.620943e+000
      vertex -4.000000e+000 -2.500000e+001  2.620943e+000
      vertex -3.863703e+000  0.000000e+000  3.656219e+000
    endloop
  endfacet
  facet normal -9.914449e-001  0.000000e+000  1.305262e-001
    outer loop
      vertex -3.863703e+000  0.000000e+000  3.656219e+000
      vertex -4.000000e+000 -2.500000e+001  2.620943e+000
      vertex -3.863703e+000 -2.500000e+001  3.656219e+000
    endloop
  endfacet
  facet normal -9.238795e-001  0.000000e+000  3.826834e-001
    outer loop
      vertex -3.863703e+000  0.000000e+000  3.656219e+000
      vertex -3.863703e+000 -2.500000e+001  3.656219e+000
      vertex -3.464102e+000  0.000000e+000  4.620943e+000
    endloop
  endfacet
  facet normal -9.238794e-001 -7.299108e-009  3.826835e-001
    outer loop
      vertex -3.464102e+000  0.000000e+000  4.620943e+000
      vertex -3.863703e+000 -2.500000e+001  3.656219e+000
      vertex -3.464102e+000 -2.500000e+001  4.620943e+000
    endloop
  endfacet
  facet normal -7.933533e-001 -1.161121e-008  6.087615e-001
    outer loop
      vertex -3.464102e+000  0.000000e+000  4.620943e+000
      vertex -3.464102e+000 -2.500000e+001  4.620943e+000
      vertex -2.828427e+000  0.000000e+000  5.449370e+000
    endloop
  endfacet
  facet normal -7.933534e-001  0.000000e+000  6.087613e-001
    outer loop
      vertex -2.828427e+000  0.000000e+000  5.449370e+000
      vertex -3.464102e+000 -2.500000e+001  4.620943e+000
      vertex -2.828427e+000 -2.500000e+001  5.449370e+000
    endloop
  endfacet
  facet normal -6.087614e-001  0.000000e+000  7.933533e-001
    outer loop
      vertex -2.828427e+000  0.000000e+000  5.449370e+000
      vertex -2.828427e+000 -2.500000e+001  5.449370e+000
      vertex -2.000000e+000  0.000000e+000  6.085044e+000
    endloop
  endfacet
  facet normal -6.087614e-001  0.000000e+000  7.933533e-001
    outer loop
      vertex -2.000000e+000  0.000000e+000  6.085044e+000
      vertex -2.828427e+000 -2.500000e+001  5.449370e+000
      vertex -2.000000e+000 -2.500000e+001  6.085044e+000
    endloop
  endfacet
  facet normal -3.826836e-001  0.000000e+000  9.238795e-001
    outer loop
      vertex -2.000000e+000  0.000000e+000  6.085044e+000
      vertex -2.000000e+000 -2.500000e+001  6.085044e+000
      vertex -1.035276e+000  0.000000e+000  6.484646e+000
    endloop
  endfacet
  facet normal -3.826836e-001  0.000000e+000  9.238795e-001
    outer loop
      vertex -1.035276e+000  0.000000e+000  6.484646e+000
      vertex -2.000000e+000 -2.500000e+001  6.085044e+000
      vertex -1.035276e+000 -2.500000e+001  6.484646e+000
    endloop
  endfacet
  facet normal -1.305262e-001  0.000000e+000  9.914449e-001
    outer loop
      vertex -1.035276e+000  0.000000e+000  6.484646e+000
      vertex -1.035276e+000 -2.500000e+001  6.484646e+000
      vertex  4.777360e-015  0.000000e+000  6.620943e+000
    endloop
  endfacet
  facet normal -1.305262e-001  0.000000e+000  9.914449e-001
    outer loop
      vertex  4.777360e-015  0.000000e+000  6.620943e+000
      vertex -1.035276e+000 -2.500000e+001  6.484646e+000
      vertex  4.777360e-015 -2.500000e+001  6.620943e+000
    endloop
  endfacet
  facet normal  1.305262e-001  -0.000000e+000  9.914449e-001
    outer loop
      vertex  4.777360e-015  0.000000e+000  6.620943e+000
      vertex  4.777360e-015 -2.500000e+001  6.620943e+000
      vertex  1.035276e+000  0.000000e+000  6.484646e+000
    endloop
  endfacet
  facet normal  1.305262e-001  0.000000e+000  9.914449e-001
    outer loop
      vertex  1.035276e+000  0.000000e+000  6.484646e+000
      vertex  4.777360e-015 -2.500000e+001  6.620943e+000
      vertex  1.035276e+000 -2.500000e+001  6.484646e+000
    endloop
  endfacet
  facet normal  3.826836e-001  -0.000000e+000  9.238795e-001
    outer loop
      vertex  1.035276e+000  0.000000e+000  6.484646e+000
      vertex  1.035276e+000 -2.500000e+001  6.484646e+000
      vertex  2.000000e+000  0.000000e+000  6.085044e+000
    endloop
  endfacet
  facet normal  3.826836e-001  0.000000e+000  9.238795e-001
    outer loop
      vertex  2.000000e+000  0.000000e+000  6.085044e+000
      vertex  1.035276e+000 -2.500000e+001  6.484646e+000
      vertex  2.000000e+000 -2.500000e+001  6.085044e+000
    endloop
  endfacet
  facet normal  6.087614e-001  -0.000000e+000  7.933533e-001
    outer loop
      vertex  2.000000e+000  0.000000e+000  6.085044e+000
      vertex  2.000000e+000 -2.500000e+001  6.085044e+000
      vertex  2.828427e+000  0.000000e+000  5.449370e+000
    endloop
  endfacet
  facet normal  6.087614e-001  0.000000e+000  7.933533e-001
    outer loop
      vertex  2.828427e+000  0.000000e+000  5.449370e+000
      vertex  2.000000e+000 -2.500000e+001  6.085044e+000
      vertex  2.828427e+000 -2.500000e+001  5.449370e+000
    endloop
  endfacet
  facet normal  7.933534e-001  -0.000000e+000  6.087613e-001
    outer loop
      vertex  2.828427e+000  0.000000e+000  5.449370e+000
      vertex  2.828427e+000 -2.500000e+001  5.449370e+000
      vertex  3.464102e+000  0.000000e+000  4.620943e+000
    endloop
  endfacet
  facet normal  7.933533e-001  1.161121e-008  6.087615e-001
    outer loop
      vertex  3.464102e+000  0.000000e+000  4.620943e+000
      vertex  2.828427e+000 -2.500000e+001  5.449370e+000
      vertex  3.464102e+000 -2.500000e+001  4.620943e+000
    endloop
  endfacet
  facet normal  9.238794e-001  7.299108e-009  3.826835e-001
    outer loop
      vertex  3.464102e+000  0.000000e+000  4.620943e+000
      vertex  3.464102e+000 -2.500000e+001  4.620943e+000
      vertex  3.863703e+000  0.000000e+000  3.656219e+000
    endloop
  endfacet
  facet normal  9.238795e-001  0.000000e+000  3.826834e-001
    outer loop
      vertex  3.863703e+000  0.000000e+000  3.656219e+000
      vertex  3.464102e+000 -2.500000e+001  4.620943e+000
      vertex  3.863703e+000 -2.500000e+001  3.656219e+000
    endloop
  endfacet
  facet normal  9.914449e-001  -0.000000e+000  1.305262e-001
    outer loop
      vertex  3.863703e+000  0.000000e+000  3.656219e+000
      vertex  3.863703e+000 -2.500000e+001  3.656219e+000
      vertex  4.000000e+000  0.000000e+000  2.620943e+000
    endloop
  endfacet
  facet normal  9.914449e-001  0.000000e+000  1.305262e-001
    outer loop
      vertex  4.000000e+000  0.000000e+000  2.620943e+000
      vertex  3.863703e+000 -2.500000e+001  3.656219e+000
      vertex  4.000000e+000 -2.500000e+001  2.620943e+000
    endloop
  endfacet
  facet normal  0.000000e+000 -1.000000e+000  0.000000e+000
    outer loop
      vertex -1.035276e+000 -2.500000e+001  6.484646e+000
      vertex  1.035276e+000 -2.500000e+001  6.484646e+000
      vertex  4.777360e-015 -2.500000e+001  6.620943e+000
    endloop
  endfacet
  facet normal  0.000000e+000 -1.000000e+000  0.000000e+000
    outer loop
      vertex  1.035276e+000 -2.500000e+001  6.484646e+000
      vertex -1.035276e+000 -2.500000e+001  6.484646e+000
      vertex  2.000000e+000 -2.500000e+001  6.085044e+000
    endloop
  endfacet
  facet normal  0.000000e+000 -9.999999e-001  0.000000e+000
    outer loop
      vertex  2.000000e+000 -2.500000e+001  6.085044e+000
      vertex -1.035276e+000 -2.500000e+001  6.484646e+000
      vertex -2.000000e+000 -2.500000e+001  6.085044e+000
    endloop
  endfacet
  facet normal  0.000000e+000 -1.000000e+000  0.000000e+000
    outer loop
      vertex  2.000000e+000 -2.500000e+001  6.085044e+000
      vertex -2.000000e+000 -2.500000e+001  6.085044e+000
      vertex  2.828427e+000 -2.500000e+001  5.449370e+000
    endloop
  endfacet
  facet normal  0.000000e+000 -1.000000e+000  0.000000e+000
    outer loop
      vertex  2.828427e+000 -2.500000e+001  5.449370e+000
      vertex -2.000000e+000 -2.500000e+001  6.085044e+000
      vertex -2.828427e+000 -2.500000e+001  5.449370e+000
    endloop
  endfacet
  facet normal  0.000000e+000 -1.000000e+000  0.000000e+000
    outer loop
      vertex  2.828427e+000 -2.500000e+001  5.449370e+000
      vertex -2.828427e+000 -2.500000e+001  5.449370e+000
      vertex  3.464102e+000 -2.500000e+001  4.620943e+000
    endloop
  endfacet
  facet normal  -0.000000e+000 -1.000000e+000  0.000000e+000
    outer loop
      vertex  3.464102e+000 -2.500000e+001  4.620943e+000
      vertex -2.828427e+000 -2.500000e+001  5.449370e+000
      vertex -3.464102e+000 -2.500000e+001  4.620943e+000
    endloop
  endfacet
  facet normal  0.000000e+000 -1.000000e+000  0.000000e+000
    outer loop
      vertex  3.464102e+000 -2.500000e+001  4.620943e+000
      vertex -3.464102e+000 -2.500000e+001  4.620943e+000
      vertex  3.863703e+000 -2.500000e+001  3.656219e+000
    endloop
  endfacet
  facet normal  0.000000e+000 -1.000000e+000  0.000000e+000
    outer loop
      vertex  3.863703e+000 -2.500000e+001  3.656219e+000
      vertex -3.464102e+000 -2.500000e+001  4.620943e+000
      vertex -3.863703e+000 -2.500000e+001  3.656219e+000
    endloop
  endfacet
  facet normal  0.000000e+000 -1.000000e+000  0.000000e+000
    outer loop
      vertex  3.863703e+000 -2.500000e+001  3.656219e+000
      vertex -3.863703e+000 -2.500000e+001  3.656219e+000
      vertex  4.000000e+000 -2.500000e+001  2.620943e+000
    endloop
  endfacet
  facet normal  0.000000e+000 -1.000000e+000  0.000000e+000
    outer loop
      vertex  4.000000e+000 -2.500000e+001  2.620943e+000
      vertex -3.863703e+000 -2.500000e+001  3.656219e+000
      vertex -4.000000e+000 -2.500000e+001  2.620943e+000
    endloop
  endfacet
  facet normal  0.000000e+000 -1.000000e+000  0.000000e+000
    outer loop
      vertex  4.000000e+000 -2.500000e+001  2.620943e+000
      vertex -4.000000e+000 -2.500000e+001  2.620943e+000
      vertex  3.863703e+000 -2.500000e+001  1.585667e+000
    endloop
  endfacet
  facet normal  0.000000e+000 -1.000000e+000  0.000000e+000
    outer loop
      vertex  3.863703e+000 -2.500000e+001  1.585667e+000
      vertex -4.000000e+000 -2.500000e+001  2.620943e+000
      vertex -3.863703e+000 -2.500000e+001  1.585667e+000
    endloop
  endfacet
  facet normal  0.000000e+000 -9.999999e-001  0.000000e+000
    outer loop
      vertex  3.863703e+000 -2.500000e+001  1.585667e+000
      vertex -3.863703e+000 -2.500000e+001  1.585667e+000
      vertex  3.464102e+000 -2.500000e+001  6.209428e-001
    endloop
  endfacet
  facet normal  0.000000e+000 -1.000000e+000  0.000000e+000
    outer loop
      vertex  3.464102e+000 -2.500000e+001  6.209428e-001
      vertex -3.863703e+000 -2.500000e+001  1.585667e+000
      vertex -3.464102e+000 -2.500000e+001  6.209428e-001
    endloop
  endfacet
  facet normal  0.000000e+000 -1.000000e+000  0.000000e+000
    outer loop
      vertex  3.464102e+000 -2.500000e+001  6.209428e-001
      vertex -3.464102e+000 -2.500000e+001  6.209428e-001
      vertex  2.828427e+000 -2.500000e+001 -2.074843e-001
    endloop
  endfacet
  facet normal  0.000000e+000 -1.000000e+000  0.000000e+000
    outer loop
      vertex  2.828427e+000 -2.500000e+001 -2.074843e-001
      vertex -3.464102e+000 -2.500000e+001  6.209428e-001
      vertex -2.828427e+000 -2.500000e+001 -2.074843e-001
    endloop
  endfacet
  facet normal  0.000000e+000 -1.000000e+000  0.000000e+000
    outer loop
      vertex  2.828427e+000 -2.500000e+001 -2.074843e-001
      vertex -2.828427e+000 -2.500000e+001 -2.074843e-001
      vertex  2.000000e+000 -2.500000e+001 -8.431588e-001
    endloop
  endfacet
  facet normal  0.000000e+000 -1.000000e+000  0.000000e+000
    outer loop
      vertex  2.000000e+000 -2.500000e+001 -8.431588e-001
      vertex -2.828427e+000 -2.500000e+001 -2.074843e-001
      vertex -2.000000e+000 -2.500000e+001 -8.431588e-001
    endloop
  endfacet
  facet normal  0.000000e+000 -1.000000e+000  0.000000e+000
    outer loop
      vertex  2.000000e+000 -2.500000e+001 -8.431588e-001
      vertex -2.000000e+000 -2.500000e+001 -8.431588e-001
      vertex  1.035276e+000 -2.500000e+001 -1.242760e+000
    endloop
  endfacet
  facet normal  0.000000e+000 -1.000000e+000  0.000000e+000
    outer loop
      vertex  1.035276e+000 -2.500000e+001 -1.242760e+000
      vertex -2.000000e+000 -2.500000e+001 -8.431588e-001
      vertex -1.035276e+000 -2.500000e+001 -1.242760e+000
    endloop
  endfacet
  facet normal  0.000000e+000 -1.000000e+000  0.000000e+000
    outer loop
      vertex  1.035276e+000 -2.500000e+001 -1.242760e+000
      vertex -1.035276e+000 -2.500000e+001 -1.242760e+000
      vertex -8.819933e-015 -2.500000e+001 -1.379057e+000
    endloop
  endfacet
  facet normal  -0.000000e+000  0.000000e+000  1.000000e+000
    outer loop
      vertex  1.075684e+001  1.000000e+001  7.975850e+000
      vertex -6.729715e+000  1.000000e+001  7.975850e+000
      vertex  1.075684e+001  0.000000e+000  7.975850e+000
    endloop
  endfacet
  facet normal  0.000000e+000  0.000000e+000  1.000000e+000
    outer loop
      vertex  1.075684e+001  0.000000e+000  7.975850e+000
      vertex -6.729715e+000  1.000000e+001  7.975850e+000
      vertex -6.729715e+000  0.000000e+000  7.975850e+000
    endloop
  endfacet
  facet normal -9.530997e-001  0.000000e+000  3.026565e-001
    outer loop
      vertex -6.729715e+000  1.000000e+001  7.975850e+000
      vertex -9.922831e+000  1.000000e+001 -2.079634e+000
      vertex -6.729715e+000  0.000000e+000  7.975850e+000
    endloop
  endfacet
  facet normal -9.530997e-001  0.000000e+000  3.026565e-001
    outer loop
      vertex -6.729715e+000  0.000000e+000  7.975850e+000
      vertex -9.922831e+000  1.000000e+001 -2.079634e+000
      vertex -9.922831e+000  0.000000e+000 -2.079634e+000
    endloop
  endfacet
  facet normal  -0.000000e+000  0.000000e+000 -1.000000e+000
    outer loop
      vertex -9.922831e+000  1.000000e+001 -2.079634e+000
      vertex -8.968318e+000  1.000000e+001 -2.079634e+000
      vertex -9.922831e+000  0.000000e+000 -2.079634e+000
    endloop
  endfacet
  facet normal  0.000000e+000  0.000000e+000 -1.000000e+000
    outer loop
      vertex -9.922831e+000  0.000000e+000 -2.079634e+000
      vertex -8.968318e+000  1.000000e+001 -2.079634e+000
      vertex -8.968318e+000  0.000000e+000 -2.079634e+000
    endloop
  endfacet
  facet normal  -0.000000e+000  0.000000e+000 -1.000000e+000
    outer loop
      vertex -8.968318e+000  1.000000e+001 -2.079634e+000
      vertex  4.962423e+000  1.000000e+001 -2.079634e+000
      vertex -8.968318e+000  0.000000e+000 -2.079634e+000
    endloop
  endfacet
  facet normal  0.000000e+000  0.000000e+000 -1.000000e+000
    outer loop
      vertex -8.968318e+000  0.000000e+000 -2.079634e+000
      vertex  4.962423e+000  1.000000e+001 -2.079634e+000
      vertex  4.962423e+000  0.000000e+000 -2.079634e+000
    endloop
  endfacet
  facet normal  8.664400e-001  0.000000e+000 -4.992812e-001
    outer loop
      vertex  1.075684e+001  1.000000e+001  7.975850e+000
      vertex  1.075684e+001  0.000000e+000  7.975850e+000
      vertex  4.962423e+000  1.000000e+001 -2.079634e+000
    endloop
  endfacet
  facet normal  8.664400e-001  0.000000e+000 -4.992812e-001
    outer loop
      vertex  4.962423e+000  1.000000e+001 -2.079634e+000
      vertex  1.075684e+001  0.000000e+000  7.975850e+000
      vertex  4.962423e+000  0.000000e+000 -2.079634e+000
    endloop
  endfacet
endsolid CATIA STL
