solid CATIA STL
  facet normal  0.000000e+000  0.000000e+000 -1.000000e+000
    outer loop
      vertex -4.054047e+001 -6.216769e+000  7.541771e-001
      vertex -6.067558e+001 -2.647257e+000  7.541771e-001
      vertex -4.054047e+001 -9.720047e-001  7.541771e-001
    endloop
  endfacet
  facet normal  -0.000000e+000  0.000000e+000 -1.000000e+000
    outer loop
      vertex -4.054047e+001 -9.720047e-001  7.541771e-001
      vertex -6.067558e+001 -2.647257e+000  7.541771e-001
      vertex -6.067558e+001 -9.720047e-001  7.541771e-001
    endloop
  endfacet
  facet normal -1.000000e+000  0.000000e+000  0.000000e+000
    outer loop
      vertex -6.500000e+001  3.582800e+001  2.200000e+001
      vertex -6.500000e+001  3.582800e+001  7.541771e-001
      vertex -6.500000e+001 -1.880634e+000  2.200000e+001
    endloop
  endfacet
  facet normal -1.000000e+000  0.000000e+000  0.000000e+000
    outer loop
      vertex -6.500000e+001 -1.880634e+000  2.200000e+001
      vertex -6.500000e+001  3.582800e+001  7.541771e-001
      vertex -6.500000e+001 -1.880634e+000  7.541771e-001
    endloop
  endfacet
  facet normal  -0.000000e+000  0.000000e+000  1.000000e+000
    outer loop
      vertex  6.000000e+001  3.582800e+001  2.200000e+001
      vertex -6.500000e+001  3.582800e+001  2.200000e+001
      vertex  6.000000e+001 -1.967200e+001  2.200000e+001
    endloop
  endfacet
  facet normal  0.000000e+000  0.000000e+000  1.000000e+000
    outer loop
      vertex  6.000000e+001 -1.967200e+001  2.200000e+001
      vertex -6.500000e+001  3.582800e+001  2.200000e+001
      vertex -6.500000e+001 -1.880634e+000  2.200000e+001
    endloop
  endfacet
  facet normal  0.000000e+000  0.000000e+000  1.000000e+000
    outer loop
      vertex  6.000000e+001 -1.967200e+001  2.200000e+001
      vertex -6.500000e+001 -1.880634e+000  2.200000e+001
      vertex  3.535864e+001 -1.967200e+001  2.200000e+001
    endloop
  endfacet
  facet normal  0.000000e+000  0.000000e+000 -1.000000e+000
    outer loop
      vertex  3.186488e+001 -1.217200e+001  7.541771e-001
      vertex  3.186488e+001  3.132800e+001  7.541771e-001
      vertex  3.586488e+001  3.132800e+001  7.541771e-001
    endloop
  endfacet
  facet normal  0.000000e+000  0.000000e+000 -1.000000e+000
    outer loop
      vertex  3.535864e+001 -1.967200e+001  7.541771e-001
      vertex -4.054047e+001 -6.216769e+000  7.541771e-001
      vertex -3.654047e+001 -4.672005e+000  7.541771e-001
    endloop
  endfacet
  facet normal  0.000000e+000  0.000000e+000 -1.000000e+000
    outer loop
      vertex  3.535864e+001 -1.967200e+001  7.541771e-001
      vertex -3.654047e+001 -4.672005e+000  7.541771e-001
      vertex -1.240535e+001 -8.572004e+000  7.541771e-001
    endloop
  endfacet
  facet normal  0.000000e+000  0.000000e+000 -1.000000e+000
    outer loop
      vertex  3.535864e+001 -1.967200e+001  7.541771e-001
      vertex -1.240535e+001 -8.572004e+000  7.541771e-001
      vertex  1.172977e+001 -1.217200e+001  7.541771e-001
    endloop
  endfacet
  facet normal  0.000000e+000  0.000000e+000 -1.000000e+000
    outer loop
      vertex  3.535864e+001 -1.967200e+001  7.541771e-001
      vertex  1.172977e+001 -1.217200e+001  7.541771e-001
      vertex  3.186488e+001 -1.217200e+001  7.541771e-001
    endloop
  endfacet
  facet normal  0.000000e+000  0.000000e+000 -1.000000e+000
    outer loop
      vertex  3.535864e+001 -1.967200e+001  7.541771e-001
      vertex  3.186488e+001 -1.217200e+001  7.541771e-001
      vertex  3.586488e+001  3.132800e+001  7.541771e-001
    endloop
  endfacet
  facet normal  0.000000e+000  -0.000000e+000 -1.000000e+000
    outer loop
      vertex  3.535864e+001 -1.967200e+001  7.541771e-001
      vertex  3.586488e+001  3.132800e+001  7.541771e-001
      vertex  3.586488e+001 -1.617200e+001  7.541771e-001
    endloop
  endfacet
  facet normal  0.000000e+000  -0.000000e+000 -1.000000e+000
    outer loop
      vertex  3.535864e+001 -1.967200e+001  7.541771e-001
      vertex  3.586488e+001 -1.617200e+001  7.541771e-001
      vertex  5.600000e+001 -1.617200e+001  7.541771e-001
    endloop
  endfacet
  facet normal  0.000000e+000  -0.000000e+000 -1.000000e+000
    outer loop
      vertex  3.535864e+001 -1.967200e+001  7.541771e-001
      vertex  5.600000e+001 -1.617200e+001  7.541771e-001
      vertex  6.000000e+001 -1.967200e+001  7.541771e-001
    endloop
  endfacet
  facet normal  0.000000e+000  0.000000e+000 -1.000000e+000
    outer loop
      vertex -4.054047e+001 -9.720047e-001  7.541771e-001
      vertex -4.054047e+001  3.132800e+001  7.541771e-001
      vertex -3.654047e+001  3.132800e+001  7.541771e-001
    endloop
  endfacet
  facet normal  0.000000e+000  -0.000000e+000 -1.000000e+000
    outer loop
      vertex -4.054047e+001 -9.720047e-001  7.541771e-001
      vertex -3.654047e+001  3.132800e+001  7.541771e-001
      vertex -3.654047e+001 -4.672005e+000  7.541771e-001
    endloop
  endfacet
  facet normal  -0.000000e+000  0.000000e+000 -1.000000e+000
    outer loop
      vertex -4.054047e+001 -9.720047e-001  7.541771e-001
      vertex -3.654047e+001 -4.672005e+000  7.541771e-001
      vertex -4.054047e+001 -6.216769e+000  7.541771e-001
    endloop
  endfacet
  facet normal  -0.000000e+000  0.000000e+000 -1.000000e+000
    outer loop
      vertex -6.500000e+001  3.582800e+001  7.541771e-001
      vertex  6.000000e+001  3.582800e+001  7.541771e-001
      vertex  5.600000e+001  3.132800e+001  7.541771e-001
    endloop
  endfacet
  facet normal  0.000000e+000  0.000000e+000 -9.999999e-001
    outer loop
      vertex -6.500000e+001  3.582800e+001  7.541771e-001
      vertex  5.600000e+001  3.132800e+001  7.541771e-001
      vertex  3.586488e+001  3.132800e+001  7.541771e-001
    endloop
  endfacet
  facet normal  0.000000e+000  0.000000e+000 -1.000000e+000
    outer loop
      vertex -6.500000e+001  3.582800e+001  7.541771e-001
      vertex  3.586488e+001  3.132800e+001  7.541771e-001
      vertex  3.186488e+001  3.132800e+001  7.541771e-001
    endloop
  endfacet
  facet normal  0.000000e+000  0.000000e+000 -9.999999e-001
    outer loop
      vertex -6.500000e+001  3.582800e+001  7.541771e-001
      vertex  3.186488e+001  3.132800e+001  7.541771e-001
      vertex  1.172977e+001  3.132800e+001  7.541771e-001
    endloop
  endfacet
  facet normal  0.000000e+000  0.000000e+000 -1.000000e+000
    outer loop
      vertex -6.500000e+001  3.582800e+001  7.541771e-001
      vertex  1.172977e+001  3.132800e+001  7.541771e-001
      vertex  7.729767e+000  3.132800e+001  7.541771e-001
    endloop
  endfacet
  facet normal  0.000000e+000  0.000000e+000 -9.999999e-001
    outer loop
      vertex -6.500000e+001  3.582800e+001  7.541771e-001
      vertex  7.729767e+000  3.132800e+001  7.541771e-001
      vertex -1.240535e+001  3.132800e+001  7.541771e-001
    endloop
  endfacet
  facet normal  0.000000e+000  0.000000e+000 -1.000000e+000
    outer loop
      vertex -6.500000e+001  3.582800e+001  7.541771e-001
      vertex -1.240535e+001  3.132800e+001  7.541771e-001
      vertex -1.640535e+001  3.132800e+001  7.541771e-001
    endloop
  endfacet
  facet normal  0.000000e+000  0.000000e+000 -9.999999e-001
    outer loop
      vertex -6.500000e+001  3.582800e+001  7.541771e-001
      vertex -1.640535e+001  3.132800e+001  7.541771e-001
      vertex -3.654047e+001  3.132800e+001  7.541771e-001
    endloop
  endfacet
  facet normal  0.000000e+000  0.000000e+000 -1.000000e+000
    outer loop
      vertex -6.500000e+001  3.582800e+001  7.541771e-001
      vertex -3.654047e+001  3.132800e+001  7.541771e-001
      vertex -4.054047e+001  3.132800e+001  7.541771e-001
    endloop
  endfacet
  facet normal  0.000000e+000  0.000000e+000 -9.999999e-001
    outer loop
      vertex -6.500000e+001  3.582800e+001  7.541771e-001
      vertex -4.054047e+001  3.132800e+001  7.541771e-001
      vertex -6.067558e+001  3.132800e+001  7.541771e-001
    endloop
  endfacet
  facet normal  -0.000000e+000  -0.000000e+000 -1.000000e+000
    outer loop
      vertex -6.500000e+001  3.582800e+001  7.541771e-001
      vertex -6.067558e+001  3.132800e+001  7.541771e-001
      vertex -6.067558e+001 -9.720047e-001  7.541771e-001
    endloop
  endfacet
  facet normal  -0.000000e+000  -0.000000e+000 -1.000000e+000
    outer loop
      vertex -6.500000e+001  3.582800e+001  7.541771e-001
      vertex -6.067558e+001 -9.720047e-001  7.541771e-001
      vertex -6.067558e+001 -2.647257e+000  7.541771e-001
    endloop
  endfacet
  facet normal  0.000000e+000  0.000000e+000 -1.000000e+000
    outer loop
      vertex -6.500000e+001  3.582800e+001  7.541771e-001
      vertex -6.067558e+001 -2.647257e+000  7.541771e-001
      vertex -6.500000e+001 -1.880634e+000  7.541771e-001
    endloop
  endfacet
  facet normal  0.000000e+000  0.000000e+000 -1.000000e+000
    outer loop
      vertex  1.172977e+001 -1.217200e+001  7.541771e-001
      vertex -1.240535e+001 -8.572004e+000  7.541771e-001
      vertex  7.729767e+000 -8.572004e+000  7.541771e-001
    endloop
  endfacet
  facet normal  0.000000e+000  0.000000e+000 -1.000000e+000
    outer loop
      vertex  1.172977e+001 -1.217200e+001  7.541771e-001
      vertex  7.729767e+000 -8.572004e+000  7.541771e-001
      vertex  7.729767e+000  3.132800e+001  7.541771e-001
    endloop
  endfacet
  facet normal  0.000000e+000  0.000000e+000 -1.000000e+000
    outer loop
      vertex  1.172977e+001 -1.217200e+001  7.541771e-001
      vertex  7.729767e+000  3.132800e+001  7.541771e-001
      vertex  1.172977e+001  3.132800e+001  7.541771e-001
    endloop
  endfacet
  facet normal  0.000000e+000  0.000000e+000 -1.000000e+000
    outer loop
      vertex -1.240535e+001 -8.572004e+000  7.541771e-001
      vertex -3.654047e+001 -4.672005e+000  7.541771e-001
      vertex -1.640535e+001 -4.672005e+000  7.541771e-001
    endloop
  endfacet
  facet normal  0.000000e+000  0.000000e+000 -1.000000e+000
    outer loop
      vertex -1.240535e+001 -8.572004e+000  7.541771e-001
      vertex -1.640535e+001 -4.672005e+000  7.541771e-001
      vertex -1.640535e+001  3.132800e+001  7.541771e-001
    endloop
  endfacet
  facet normal  0.000000e+000  0.000000e+000 -1.000000e+000
    outer loop
      vertex -1.240535e+001 -8.572004e+000  7.541771e-001
      vertex -1.640535e+001  3.132800e+001  7.541771e-001
      vertex -1.240535e+001  3.132800e+001  7.541771e-001
    endloop
  endfacet
  facet normal  0.000000e+000  0.000000e+000 -1.000000e+000
    outer loop
      vertex  6.000000e+001  3.582800e+001  7.541771e-001
      vertex  6.000000e+001 -1.967200e+001  7.541771e-001
      vertex  5.600000e+001  3.132800e+001  7.541771e-001
    endloop
  endfacet
  facet normal  0.000000e+000  0.000000e+000 -1.000000e+000
    outer loop
      vertex  5.600000e+001  3.132800e+001  7.541771e-001
      vertex  6.000000e+001 -1.967200e+001  7.541771e-001
      vertex  5.600000e+001 -1.617200e+001  7.541771e-001
    endloop
  endfacet
  facet normal  0.000000e+000 -1.000000e+000  0.000000e+000
    outer loop
      vertex  6.000000e+001 -1.967200e+001  2.200000e+001
      vertex  3.535864e+001 -1.967200e+001  2.200000e+001
      vertex  6.000000e+001 -1.967200e+001  7.541771e-001
    endloop
  endfacet
  facet normal  0.000000e+000 -1.000000e+000  0.000000e+000
    outer loop
      vertex  6.000000e+001 -1.967200e+001  7.541771e-001
      vertex  3.535864e+001 -1.967200e+001  2.200000e+001
      vertex  3.535864e+001 -1.967200e+001  7.541771e-001
    endloop
  endfacet
  facet normal -1.745562e-001 -9.846472e-001  -0.000000e+000
    outer loop
      vertex -6.067558e+001 -2.647257e+000  7.541771e-001
      vertex -6.500000e+001 -1.880634e+000  2.200000e+001
      vertex -6.500000e+001 -1.880634e+000  7.541771e-001
    endloop
  endfacet
  facet normal -1.745562e-001 -9.846472e-001  -0.000000e+000
    outer loop
      vertex  3.535864e+001 -1.967200e+001  7.541771e-001
      vertex  3.535864e+001 -1.967200e+001  2.200000e+001
      vertex -4.054047e+001 -6.216769e+000  7.541771e-001
    endloop
  endfacet
  facet normal -1.745562e-001 -9.846472e-001 -1.409297e-008
    outer loop
      vertex -4.054047e+001 -6.216769e+000  7.541771e-001
      vertex  3.535864e+001 -1.967200e+001  2.200000e+001
      vertex -6.500000e+001 -1.880634e+000  2.200000e+001
    endloop
  endfacet
  facet normal -1.745562e-001 -9.846472e-001  4.390187e-009
    outer loop
      vertex -4.054047e+001 -6.216769e+000  7.541771e-001
      vertex -6.500000e+001 -1.880634e+000  2.200000e+001
      vertex -6.067558e+001 -2.647257e+000  7.541771e-001
    endloop
  endfacet
  facet normal  0.000000e+000  1.000000e+000  0.000000e+000
    outer loop
      vertex  6.000000e+001  3.582800e+001  7.541771e-001
      vertex -6.500000e+001  3.582800e+001  7.541771e-001
      vertex  6.000000e+001  3.582800e+001  2.200000e+001
    endloop
  endfacet
  facet normal  0.000000e+000  1.000000e+000  0.000000e+000
    outer loop
      vertex  6.000000e+001  3.582800e+001  2.200000e+001
      vertex -6.500000e+001  3.582800e+001  7.541771e-001
      vertex -6.500000e+001  3.582800e+001  2.200000e+001
    endloop
  endfacet
  facet normal  9.999999e-001  0.000000e+000  0.000000e+000
    outer loop
      vertex  6.000000e+001 -1.967200e+001  2.200000e+001
      vertex  6.000000e+001 -1.967200e+001  7.541771e-001
      vertex  6.000000e+001  3.582800e+001  2.200000e+001
    endloop
  endfacet
  facet normal  9.999999e-001  0.000000e+000  0.000000e+000
    outer loop
      vertex  6.000000e+001  3.582800e+001  2.200000e+001
      vertex  6.000000e+001 -1.967200e+001  7.541771e-001
      vertex  6.000000e+001  3.582800e+001  7.541771e-001
    endloop
  endfacet
  facet normal  0.000000e+000 -1.000000e+000  0.000000e+000
    outer loop
      vertex  4.610232e+001  3.132800e+001  8.450456e+000
      vertex  5.010232e+001  3.132800e+001  8.450456e+000
      vertex  5.010232e+001  3.132800e+001  1.145046e+001
    endloop
  endfacet
  facet normal  -0.000000e+000 -1.000000e+000  -0.000000e+000
    outer loop
      vertex  5.600000e+001  3.132800e+001  7.541771e-001
      vertex  5.600000e+001  3.132800e+001  3.404825e+000
      vertex  4.610232e+001  3.132800e+001  3.404825e+000
    endloop
  endfacet
  facet normal  -0.000000e+000 -9.999999e-001  -0.000000e+000
    outer loop
      vertex  5.600000e+001  3.132800e+001  7.541771e-001
      vertex  4.610232e+001  3.132800e+001  3.404825e+000
      vertex  4.160232e+001  3.132800e+001  3.404825e+000
    endloop
  endfacet
  facet normal  -0.000000e+000 -1.000000e+000  -0.000000e+000
    outer loop
      vertex  5.600000e+001  3.132800e+001  7.541771e-001
      vertex  4.160232e+001  3.132800e+001  3.404825e+000
      vertex  3.586488e+001  3.132800e+001  3.404825e+000
    endloop
  endfacet
  facet normal  0.000000e+000 -1.000000e+000  -0.000000e+000
    outer loop
      vertex  5.600000e+001  3.132800e+001  7.541771e-001
      vertex  3.586488e+001  3.132800e+001  3.404825e+000
      vertex  3.586488e+001  3.132800e+001  7.541771e-001
    endloop
  endfacet
  facet normal  0.000000e+000 -1.000000e+000  0.000000e+000
    outer loop
      vertex  4.160232e+001  3.132800e+001  3.404825e+000
      vertex  4.610232e+001  3.132800e+001  3.404825e+000
      vertex  4.160232e+001  3.132800e+001  8.450456e+000
    endloop
  endfacet
  facet normal  0.000000e+000 -1.000000e+000  0.000000e+000
    outer loop
      vertex  4.160232e+001  3.132800e+001  8.450456e+000
      vertex  4.610232e+001  3.132800e+001  3.404825e+000
      vertex  4.610232e+001  3.132800e+001  8.450456e+000
    endloop
  endfacet
  facet normal  0.000000e+000 -1.000000e+000  0.000000e+000
    outer loop
      vertex  4.160232e+001  3.132800e+001  8.450456e+000
      vertex  4.610232e+001  3.132800e+001  8.450456e+000
      vertex  5.010232e+001  3.132800e+001  1.145046e+001
    endloop
  endfacet
  facet normal  0.000000e+000 -1.000000e+000  0.000000e+000
    outer loop
      vertex  3.760232e+001  3.132800e+001  1.145046e+001
      vertex  3.760232e+001  3.132800e+001  8.450456e+000
      vertex  5.010232e+001  3.132800e+001  1.145046e+001
    endloop
  endfacet
  facet normal  0.000000e+000 -1.000000e+000  0.000000e+000
    outer loop
      vertex  5.010232e+001  3.132800e+001  1.145046e+001
      vertex  3.760232e+001  3.132800e+001  8.450456e+000
      vertex  4.160232e+001  3.132800e+001  8.450456e+000
    endloop
  endfacet
  facet normal  0.000000e+000 -1.000000e+000  0.000000e+000
    outer loop
      vertex  2.427592e+001  3.132800e+001  8.450456e+000
      vertex  2.827592e+001  3.132800e+001  8.450456e+000
      vertex  2.827592e+001  3.132800e+001  1.145046e+001
    endloop
  endfacet
  facet normal  -0.000000e+000 -1.000000e+000  -0.000000e+000
    outer loop
      vertex  3.186488e+001  3.132800e+001  7.541771e-001
      vertex  3.186488e+001  3.132800e+001  3.404825e+000
      vertex  2.427592e+001  3.132800e+001  3.404825e+000
    endloop
  endfacet
  facet normal  -0.000000e+000 -9.999999e-001  -0.000000e+000
    outer loop
      vertex  3.186488e+001  3.132800e+001  7.541771e-001
      vertex  2.427592e+001  3.132800e+001  3.404825e+000
      vertex  1.977592e+001  3.132800e+001  3.404825e+000
    endloop
  endfacet
  facet normal  -0.000000e+000 -1.000000e+000  -0.000000e+000
    outer loop
      vertex  3.186488e+001  3.132800e+001  7.541771e-001
      vertex  1.977592e+001  3.132800e+001  3.404825e+000
      vertex  1.172977e+001  3.132800e+001  3.404825e+000
    endloop
  endfacet
  facet normal  0.000000e+000 -1.000000e+000  0.000000e+000
    outer loop
      vertex  3.186488e+001  3.132800e+001  7.541771e-001
      vertex  1.172977e+001  3.132800e+001  3.404825e+000
      vertex  1.172977e+001  3.132800e+001  7.541771e-001
    endloop
  endfacet
  facet normal  0.000000e+000 -1.000000e+000  0.000000e+000
    outer loop
      vertex  1.977592e+001  3.132800e+001  3.404825e+000
      vertex  2.427592e+001  3.132800e+001  3.404825e+000
      vertex  1.977592e+001  3.132800e+001  8.450456e+000
    endloop
  endfacet
  facet normal  0.000000e+000 -1.000000e+000  0.000000e+000
    outer loop
      vertex  1.977592e+001  3.132800e+001  8.450456e+000
      vertex  2.427592e+001  3.132800e+001  3.404825e+000
      vertex  2.427592e+001  3.132800e+001  8.450456e+000
    endloop
  endfacet
  facet normal  0.000000e+000 -1.000000e+000  0.000000e+000
    outer loop
      vertex  1.977592e+001  3.132800e+001  8.450456e+000
      vertex  2.427592e+001  3.132800e+001  8.450456e+000
      vertex  2.827592e+001  3.132800e+001  1.145046e+001
    endloop
  endfacet
  facet normal  0.000000e+000 -1.000000e+000  0.000000e+000
    outer loop
      vertex  1.577592e+001  3.132800e+001  1.145046e+001
      vertex  1.577592e+001  3.132800e+001  8.450456e+000
      vertex  2.827592e+001  3.132800e+001  1.145046e+001
    endloop
  endfacet
  facet normal  0.000000e+000 -1.000000e+000  0.000000e+000
    outer loop
      vertex  2.827592e+001  3.132800e+001  1.145046e+001
      vertex  1.577592e+001  3.132800e+001  8.450456e+000
      vertex  1.977592e+001  3.132800e+001  8.450456e+000
    endloop
  endfacet
  facet normal  0.000000e+000 -1.000000e+000  0.000000e+000
    outer loop
      vertex  3.908070e-001  3.132800e+001  8.450456e+000
      vertex  3.890807e+000  3.132800e+001  8.450456e+000
      vertex  3.890807e+000  3.132800e+001  1.145046e+001
    endloop
  endfacet
  facet normal  -0.000000e+000 -1.000000e+000  -0.000000e+000
    outer loop
      vertex  7.729767e+000  3.132800e+001  7.541771e-001
      vertex  7.729767e+000  3.132800e+001  3.404825e+000
      vertex  3.908070e-001  3.132800e+001  3.404825e+000
    endloop
  endfacet
  facet normal  -0.000000e+000 -9.999999e-001  -0.000000e+000
    outer loop
      vertex  7.729767e+000  3.132800e+001  7.541771e-001
      vertex  3.908070e-001  3.132800e+001  3.404825e+000
      vertex -4.109193e+000  3.132800e+001  3.404825e+000
    endloop
  endfacet
  facet normal  -0.000000e+000 -1.000000e+000  -0.000000e+000
    outer loop
      vertex  7.729767e+000  3.132800e+001  7.541771e-001
      vertex -4.109193e+000  3.132800e+001  3.404825e+000
      vertex -1.240535e+001  3.132800e+001  3.404825e+000
    endloop
  endfacet
  facet normal  0.000000e+000 -1.000000e+000  0.000000e+000
    outer loop
      vertex  7.729767e+000  3.132800e+001  7.541771e-001
      vertex -1.240535e+001  3.132800e+001  3.404825e+000
      vertex -1.240535e+001  3.132800e+001  7.541771e-001
    endloop
  endfacet
  facet normal  0.000000e+000 -1.000000e+000  0.000000e+000
    outer loop
      vertex -4.109193e+000  3.132800e+001  3.404825e+000
      vertex  3.908070e-001  3.132800e+001  3.404825e+000
      vertex -4.109193e+000  3.132800e+001  8.450456e+000
    endloop
  endfacet
  facet normal  0.000000e+000 -1.000000e+000  0.000000e+000
    outer loop
      vertex -4.109193e+000  3.132800e+001  8.450456e+000
      vertex  3.908070e-001  3.132800e+001  3.404825e+000
      vertex  3.908070e-001  3.132800e+001  8.450456e+000
    endloop
  endfacet
  facet normal  0.000000e+000 -1.000000e+000  0.000000e+000
    outer loop
      vertex -4.109193e+000  3.132800e+001  8.450456e+000
      vertex  3.908070e-001  3.132800e+001  8.450456e+000
      vertex  3.890807e+000  3.132800e+001  1.145046e+001
    endloop
  endfacet
  facet normal  0.000000e+000 -1.000000e+000  0.000000e+000
    outer loop
      vertex -8.109193e+000  3.132800e+001  1.145046e+001
      vertex -8.109193e+000  3.132800e+001  8.450456e+000
      vertex  3.890807e+000  3.132800e+001  1.145046e+001
    endloop
  endfacet
  facet normal  0.000000e+000 -1.000000e+000  0.000000e+000
    outer loop
      vertex  3.890807e+000  3.132800e+001  1.145046e+001
      vertex -8.109193e+000  3.132800e+001  8.450456e+000
      vertex -4.109193e+000  3.132800e+001  8.450456e+000
    endloop
  endfacet
  facet normal  0.000000e+000 -1.000000e+000  0.000000e+000
    outer loop
      vertex -2.399431e+001  3.132800e+001  8.450456e+000
      vertex -1.999431e+001  3.132800e+001  8.450456e+000
      vertex -1.999431e+001  3.132800e+001  1.145046e+001
    endloop
  endfacet
  facet normal  -0.000000e+000 -1.000000e+000  -0.000000e+000
    outer loop
      vertex -1.640535e+001  3.132800e+001  7.541771e-001
      vertex -1.640535e+001  3.132800e+001  3.404825e+000
      vertex -2.399431e+001  3.132800e+001  3.404825e+000
    endloop
  endfacet
  facet normal  -0.000000e+000 -9.999999e-001  -0.000000e+000
    outer loop
      vertex -1.640535e+001  3.132800e+001  7.541771e-001
      vertex -2.399431e+001  3.132800e+001  3.404825e+000
      vertex -2.849431e+001  3.132800e+001  3.404825e+000
    endloop
  endfacet
  facet normal  -0.000000e+000 -1.000000e+000  -0.000000e+000
    outer loop
      vertex -1.640535e+001  3.132800e+001  7.541771e-001
      vertex -2.849431e+001  3.132800e+001  3.404825e+000
      vertex -3.654047e+001  3.132800e+001  3.404825e+000
    endloop
  endfacet
  facet normal  0.000000e+000 -1.000000e+000  0.000000e+000
    outer loop
      vertex -1.640535e+001  3.132800e+001  7.541771e-001
      vertex -3.654047e+001  3.132800e+001  3.404825e+000
      vertex -3.654047e+001  3.132800e+001  7.541771e-001
    endloop
  endfacet
  facet normal  0.000000e+000 -1.000000e+000  0.000000e+000
    outer loop
      vertex -2.849431e+001  3.132800e+001  3.404825e+000
      vertex -2.399431e+001  3.132800e+001  3.404825e+000
      vertex -2.849431e+001  3.132800e+001  8.450456e+000
    endloop
  endfacet
  facet normal  0.000000e+000 -1.000000e+000  0.000000e+000
    outer loop
      vertex -2.849431e+001  3.132800e+001  8.450456e+000
      vertex -2.399431e+001  3.132800e+001  3.404825e+000
      vertex -2.399431e+001  3.132800e+001  8.450456e+000
    endloop
  endfacet
  facet normal  0.000000e+000 -1.000000e+000  0.000000e+000
    outer loop
      vertex -2.849431e+001  3.132800e+001  8.450456e+000
      vertex -2.399431e+001  3.132800e+001  8.450456e+000
      vertex -1.999431e+001  3.132800e+001  1.145046e+001
    endloop
  endfacet
  facet normal  0.000000e+000 -1.000000e+000  0.000000e+000
    outer loop
      vertex -3.249431e+001  3.132800e+001  1.145046e+001
      vertex -3.249431e+001  3.132800e+001  8.450456e+000
      vertex -1.999431e+001  3.132800e+001  1.145046e+001
    endloop
  endfacet
  facet normal  0.000000e+000 -1.000000e+000  0.000000e+000
    outer loop
      vertex -1.999431e+001  3.132800e+001  1.145046e+001
      vertex -3.249431e+001  3.132800e+001  8.450456e+000
      vertex -2.849431e+001  3.132800e+001  8.450456e+000
    endloop
  endfacet
  facet normal  0.000000e+000 -1.000000e+000  0.000000e+000
    outer loop
      vertex -4.812943e+001  3.132800e+001  8.450456e+000
      vertex -4.412943e+001  3.132800e+001  8.450456e+000
      vertex -4.412943e+001  3.132800e+001  1.145046e+001
    endloop
  endfacet
  facet normal  -0.000000e+000 -1.000000e+000  -0.000000e+000
    outer loop
      vertex -4.054047e+001  3.132800e+001  7.541771e-001
      vertex -4.054047e+001  3.132800e+001  3.404825e+000
      vertex -4.812943e+001  3.132800e+001  3.404825e+000
    endloop
  endfacet
  facet normal  -0.000000e+000 -9.999999e-001  -0.000000e+000
    outer loop
      vertex -4.054047e+001  3.132800e+001  7.541771e-001
      vertex -4.812943e+001  3.132800e+001  3.404825e+000
      vertex -5.262943e+001  3.132800e+001  3.404825e+000
    endloop
  endfacet
  facet normal  -0.000000e+000 -1.000000e+000  -0.000000e+000
    outer loop
      vertex -4.054047e+001  3.132800e+001  7.541771e-001
      vertex -5.262943e+001  3.132800e+001  3.404825e+000
      vertex -6.067558e+001  3.132800e+001  3.404825e+000
    endloop
  endfacet
  facet normal  0.000000e+000 -1.000000e+000  0.000000e+000
    outer loop
      vertex -4.054047e+001  3.132800e+001  7.541771e-001
      vertex -6.067558e+001  3.132800e+001  3.404825e+000
      vertex -6.067558e+001  3.132800e+001  7.541771e-001
    endloop
  endfacet
  facet normal  0.000000e+000 -1.000000e+000  0.000000e+000
    outer loop
      vertex -5.262943e+001  3.132800e+001  3.404825e+000
      vertex -4.812943e+001  3.132800e+001  3.404825e+000
      vertex -5.262943e+001  3.132800e+001  8.450456e+000
    endloop
  endfacet
  facet normal  0.000000e+000 -1.000000e+000  0.000000e+000
    outer loop
      vertex -5.262943e+001  3.132800e+001  8.450456e+000
      vertex -4.812943e+001  3.132800e+001  3.404825e+000
      vertex -4.812943e+001  3.132800e+001  8.450456e+000
    endloop
  endfacet
  facet normal  0.000000e+000 -1.000000e+000  0.000000e+000
    outer loop
      vertex -5.262943e+001  3.132800e+001  8.450456e+000
      vertex -4.812943e+001  3.132800e+001  8.450456e+000
      vertex -4.412943e+001  3.132800e+001  1.145046e+001
    endloop
  endfacet
  facet normal  0.000000e+000 -1.000000e+000  0.000000e+000
    outer loop
      vertex -5.662943e+001  3.132800e+001  1.145046e+001
      vertex -5.662943e+001  3.132800e+001  8.450456e+000
      vertex -4.412943e+001  3.132800e+001  1.145046e+001
    endloop
  endfacet
  facet normal  0.000000e+000 -1.000000e+000  0.000000e+000
    outer loop
      vertex -4.412943e+001  3.132800e+001  1.145046e+001
      vertex -5.662943e+001  3.132800e+001  8.450456e+000
      vertex -5.262943e+001  3.132800e+001  8.450456e+000
    endloop
  endfacet
  facet normal -9.999999e-001  0.000000e+000  0.000000e+000
    outer loop
      vertex  5.600000e+001  3.132800e+001  3.404825e+000
      vertex  5.600000e+001  3.132800e+001  7.541771e-001
      vertex  5.600000e+001 -1.617200e+001  3.404825e+000
    endloop
  endfacet
  facet normal -9.999999e-001  0.000000e+000  0.000000e+000
    outer loop
      vertex  5.600000e+001 -1.617200e+001  3.404825e+000
      vertex  5.600000e+001  3.132800e+001  7.541771e-001
      vertex  5.600000e+001 -1.617200e+001  7.541771e-001
    endloop
  endfacet
  facet normal -1.000000e+000  0.000000e+000  0.000000e+000
    outer loop
      vertex  3.186488e+001  3.132800e+001  3.404825e+000
      vertex  3.186488e+001  3.132800e+001  7.541771e-001
      vertex  3.186488e+001 -1.217200e+001  3.404825e+000
    endloop
  endfacet
  facet normal -1.000000e+000  0.000000e+000  0.000000e+000
    outer loop
      vertex  3.186488e+001 -1.217200e+001  3.404825e+000
      vertex  3.186488e+001  3.132800e+001  7.541771e-001
      vertex  3.186488e+001 -1.217200e+001  7.541771e-001
    endloop
  endfacet
  facet normal -1.000000e+000  0.000000e+000  0.000000e+000
    outer loop
      vertex  7.729767e+000  3.132800e+001  3.404825e+000
      vertex  7.729767e+000  3.132800e+001  7.541771e-001
      vertex  7.729767e+000 -8.572004e+000  3.404825e+000
    endloop
  endfacet
  facet normal -1.000000e+000  0.000000e+000  0.000000e+000
    outer loop
      vertex  7.729767e+000 -8.572004e+000  3.404825e+000
      vertex  7.729767e+000  3.132800e+001  7.541771e-001
      vertex  7.729767e+000 -8.572004e+000  7.541771e-001
    endloop
  endfacet
  facet normal -9.999999e-001  0.000000e+000  0.000000e+000
    outer loop
      vertex -1.640535e+001  3.132800e+001  3.404825e+000
      vertex -1.640535e+001  3.132800e+001  7.541771e-001
      vertex -1.640535e+001 -4.672005e+000  3.404825e+000
    endloop
  endfacet
  facet normal -9.999999e-001  0.000000e+000  0.000000e+000
    outer loop
      vertex -1.640535e+001 -4.672005e+000  3.404825e+000
      vertex -1.640535e+001  3.132800e+001  7.541771e-001
      vertex -1.640535e+001 -4.672005e+000  7.541771e-001
    endloop
  endfacet
  facet normal -1.000000e+000  0.000000e+000  0.000000e+000
    outer loop
      vertex -4.054047e+001  3.132800e+001  3.404825e+000
      vertex -4.054047e+001  3.132800e+001  7.541771e-001
      vertex -4.054047e+001 -9.720047e-001  3.404825e+000
    endloop
  endfacet
  facet normal -1.000000e+000  0.000000e+000  0.000000e+000
    outer loop
      vertex -4.054047e+001 -9.720047e-001  3.404825e+000
      vertex -4.054047e+001  3.132800e+001  7.541771e-001
      vertex -4.054047e+001 -9.720047e-001  7.541771e-001
    endloop
  endfacet
  facet normal  0.000000e+000  0.000000e+000 -1.000000e+000
    outer loop
      vertex  1.977592e+001 -1.217200e+001  3.404825e+000
      vertex  1.172977e+001 -1.217200e+001  3.404825e+000
      vertex  1.977592e+001  3.132800e+001  3.404825e+000
    endloop
  endfacet
  facet normal  -0.000000e+000  0.000000e+000 -1.000000e+000
    outer loop
      vertex  1.977592e+001  3.132800e+001  3.404825e+000
      vertex  1.172977e+001 -1.217200e+001  3.404825e+000
      vertex  1.172977e+001  3.132800e+001  3.404825e+000
    endloop
  endfacet
  facet normal  1.000000e+000  -0.000000e+000  0.000000e+000
    outer loop
      vertex  1.977592e+001  3.132800e+001  8.450456e+000
      vertex  1.977592e+001 -1.217200e+001  8.450456e+000
      vertex  1.977592e+001  3.132800e+001  3.404825e+000
    endloop
  endfacet
  facet normal  1.000000e+000  0.000000e+000  0.000000e+000
    outer loop
      vertex  1.977592e+001  3.132800e+001  3.404825e+000
      vertex  1.977592e+001 -1.217200e+001  8.450456e+000
      vertex  1.977592e+001 -1.217200e+001  3.404825e+000
    endloop
  endfacet
  facet normal  0.000000e+000  0.000000e+000  1.000000e+000
    outer loop
      vertex  1.977592e+001 -1.217200e+001  8.450456e+000
      vertex  1.977592e+001  3.132800e+001  8.450456e+000
      vertex  1.577592e+001 -1.217200e+001  8.450456e+000
    endloop
  endfacet
  facet normal  0.000000e+000  0.000000e+000  1.000000e+000
    outer loop
      vertex  1.577592e+001 -1.217200e+001  8.450456e+000
      vertex  1.977592e+001  3.132800e+001  8.450456e+000
      vertex  1.577592e+001  3.132800e+001  8.450456e+000
    endloop
  endfacet
  facet normal  1.000000e+000  0.000000e+000  0.000000e+000
    outer loop
      vertex  1.577592e+001  3.132800e+001  8.450456e+000
      vertex  1.577592e+001  3.132800e+001  1.145046e+001
      vertex  1.577592e+001 -1.217200e+001  8.450456e+000
    endloop
  endfacet
  facet normal  1.000000e+000  0.000000e+000  0.000000e+000
    outer loop
      vertex  1.577592e+001 -1.217200e+001  8.450456e+000
      vertex  1.577592e+001  3.132800e+001  1.145046e+001
      vertex  1.577592e+001 -1.217200e+001  1.145046e+001
    endloop
  endfacet
  facet normal  0.000000e+000  0.000000e+000 -1.000000e+000
    outer loop
      vertex  1.577592e+001 -1.217200e+001  1.145046e+001
      vertex  1.577592e+001  3.132800e+001  1.145046e+001
      vertex  2.827592e+001 -1.217200e+001  1.145046e+001
    endloop
  endfacet
  facet normal  0.000000e+000  0.000000e+000 -1.000000e+000
    outer loop
      vertex  2.827592e+001 -1.217200e+001  1.145046e+001
      vertex  1.577592e+001  3.132800e+001  1.145046e+001
      vertex  2.827592e+001  3.132800e+001  1.145046e+001
    endloop
  endfacet
  facet normal -1.000000e+000  0.000000e+000  0.000000e+000
    outer loop
      vertex  2.827592e+001  3.132800e+001  1.145046e+001
      vertex  2.827592e+001  3.132800e+001  8.450456e+000
      vertex  2.827592e+001 -1.217200e+001  1.145046e+001
    endloop
  endfacet
  facet normal -1.000000e+000  0.000000e+000  0.000000e+000
    outer loop
      vertex  2.827592e+001 -1.217200e+001  1.145046e+001
      vertex  2.827592e+001  3.132800e+001  8.450456e+000
      vertex  2.827592e+001 -1.217200e+001  8.450456e+000
    endloop
  endfacet
  facet normal  0.000000e+000  0.000000e+000  1.000000e+000
    outer loop
      vertex  2.827592e+001 -1.217200e+001  8.450456e+000
      vertex  2.827592e+001  3.132800e+001  8.450456e+000
      vertex  2.427592e+001 -1.217200e+001  8.450456e+000
    endloop
  endfacet
  facet normal  0.000000e+000  0.000000e+000  1.000000e+000
    outer loop
      vertex  2.427592e+001 -1.217200e+001  8.450456e+000
      vertex  2.827592e+001  3.132800e+001  8.450456e+000
      vertex  2.427592e+001  3.132800e+001  8.450456e+000
    endloop
  endfacet
  facet normal -1.000000e+000  0.000000e+000  0.000000e+000
    outer loop
      vertex  2.427592e+001  3.132800e+001  8.450456e+000
      vertex  2.427592e+001  3.132800e+001  3.404825e+000
      vertex  2.427592e+001 -1.217200e+001  8.450456e+000
    endloop
  endfacet
  facet normal -1.000000e+000  0.000000e+000  0.000000e+000
    outer loop
      vertex  2.427592e+001 -1.217200e+001  8.450456e+000
      vertex  2.427592e+001  3.132800e+001  3.404825e+000
      vertex  2.427592e+001 -1.217200e+001  3.404825e+000
    endloop
  endfacet
  facet normal  0.000000e+000  0.000000e+000 -1.000000e+000
    outer loop
      vertex  3.186488e+001 -1.217200e+001  3.404825e+000
      vertex  2.427592e+001 -1.217200e+001  3.404825e+000
      vertex  3.186488e+001  3.132800e+001  3.404825e+000
    endloop
  endfacet
  facet normal  -0.000000e+000  0.000000e+000 -1.000000e+000
    outer loop
      vertex  3.186488e+001  3.132800e+001  3.404825e+000
      vertex  2.427592e+001 -1.217200e+001  3.404825e+000
      vertex  2.427592e+001  3.132800e+001  3.404825e+000
    endloop
  endfacet
  facet normal  1.000000e+000  -0.000000e+000  0.000000e+000
    outer loop
      vertex  4.160232e+001  3.132800e+001  8.450456e+000
      vertex  4.160232e+001 -1.617200e+001  8.450456e+000
      vertex  4.160232e+001  3.132800e+001  3.404825e+000
    endloop
  endfacet
  facet normal  1.000000e+000  0.000000e+000  0.000000e+000
    outer loop
      vertex  4.160232e+001  3.132800e+001  3.404825e+000
      vertex  4.160232e+001 -1.617200e+001  8.450456e+000
      vertex  4.160232e+001 -1.617200e+001  3.404825e+000
    endloop
  endfacet
  facet normal  0.000000e+000  0.000000e+000  1.000000e+000
    outer loop
      vertex  4.160232e+001 -1.617200e+001  8.450456e+000
      vertex  4.160232e+001  3.132800e+001  8.450456e+000
      vertex  3.760232e+001 -1.617200e+001  8.450456e+000
    endloop
  endfacet
  facet normal  0.000000e+000  0.000000e+000  1.000000e+000
    outer loop
      vertex  3.760232e+001 -1.617200e+001  8.450456e+000
      vertex  4.160232e+001  3.132800e+001  8.450456e+000
      vertex  3.760232e+001  3.132800e+001  8.450456e+000
    endloop
  endfacet
  facet normal  1.000000e+000  0.000000e+000  0.000000e+000
    outer loop
      vertex  3.760232e+001  3.132800e+001  8.450456e+000
      vertex  3.760232e+001  3.132800e+001  1.145046e+001
      vertex  3.760232e+001 -1.617200e+001  8.450456e+000
    endloop
  endfacet
  facet normal  1.000000e+000  0.000000e+000  0.000000e+000
    outer loop
      vertex  3.760232e+001 -1.617200e+001  8.450456e+000
      vertex  3.760232e+001  3.132800e+001  1.145046e+001
      vertex  3.760232e+001 -1.617200e+001  1.145046e+001
    endloop
  endfacet
  facet normal  0.000000e+000  0.000000e+000 -1.000000e+000
    outer loop
      vertex  3.760232e+001 -1.617200e+001  1.145046e+001
      vertex  3.760232e+001  3.132800e+001  1.145046e+001
      vertex  5.010232e+001 -1.617200e+001  1.145046e+001
    endloop
  endfacet
  facet normal  0.000000e+000  0.000000e+000 -1.000000e+000
    outer loop
      vertex  5.010232e+001 -1.617200e+001  1.145046e+001
      vertex  3.760232e+001  3.132800e+001  1.145046e+001
      vertex  5.010232e+001  3.132800e+001  1.145046e+001
    endloop
  endfacet
  facet normal -1.000000e+000  0.000000e+000  0.000000e+000
    outer loop
      vertex  5.010232e+001  3.132800e+001  1.145046e+001
      vertex  5.010232e+001  3.132800e+001  8.450456e+000
      vertex  5.010232e+001 -1.617200e+001  1.145046e+001
    endloop
  endfacet
  facet normal -1.000000e+000  0.000000e+000  0.000000e+000
    outer loop
      vertex  5.010232e+001 -1.617200e+001  1.145046e+001
      vertex  5.010232e+001  3.132800e+001  8.450456e+000
      vertex  5.010232e+001 -1.617200e+001  8.450456e+000
    endloop
  endfacet
  facet normal  0.000000e+000  0.000000e+000  1.000000e+000
    outer loop
      vertex  5.010232e+001 -1.617200e+001  8.450456e+000
      vertex  5.010232e+001  3.132800e+001  8.450456e+000
      vertex  4.610232e+001 -1.617200e+001  8.450456e+000
    endloop
  endfacet
  facet normal  0.000000e+000  0.000000e+000  1.000000e+000
    outer loop
      vertex  4.610232e+001 -1.617200e+001  8.450456e+000
      vertex  5.010232e+001  3.132800e+001  8.450456e+000
      vertex  4.610232e+001  3.132800e+001  8.450456e+000
    endloop
  endfacet
  facet normal -1.000000e+000  0.000000e+000  0.000000e+000
    outer loop
      vertex  4.610232e+001  3.132800e+001  8.450456e+000
      vertex  4.610232e+001  3.132800e+001  3.404825e+000
      vertex  4.610232e+001 -1.617200e+001  8.450456e+000
    endloop
  endfacet
  facet normal -1.000000e+000  0.000000e+000  0.000000e+000
    outer loop
      vertex  4.610232e+001 -1.617200e+001  8.450456e+000
      vertex  4.610232e+001  3.132800e+001  3.404825e+000
      vertex  4.610232e+001 -1.617200e+001  3.404825e+000
    endloop
  endfacet
  facet normal  0.000000e+000  0.000000e+000 -1.000000e+000
    outer loop
      vertex  5.600000e+001 -1.617200e+001  3.404825e+000
      vertex  4.610232e+001 -1.617200e+001  3.404825e+000
      vertex  5.600000e+001  3.132800e+001  3.404825e+000
    endloop
  endfacet
  facet normal  -0.000000e+000  0.000000e+000 -1.000000e+000
    outer loop
      vertex  5.600000e+001  3.132800e+001  3.404825e+000
      vertex  4.610232e+001 -1.617200e+001  3.404825e+000
      vertex  4.610232e+001  3.132800e+001  3.404825e+000
    endloop
  endfacet
  facet normal  1.000000e+000  -0.000000e+000  0.000000e+000
    outer loop
      vertex -6.067558e+001  3.132800e+001  3.404825e+000
      vertex -6.067558e+001 -9.720047e-001  3.404825e+000
      vertex -6.067558e+001  3.132800e+001  7.541771e-001
    endloop
  endfacet
  facet normal  1.000000e+000  0.000000e+000  0.000000e+000
    outer loop
      vertex -6.067558e+001  3.132800e+001  7.541771e-001
      vertex -6.067558e+001 -9.720047e-001  3.404825e+000
      vertex -6.067558e+001 -9.720047e-001  7.541771e-001
    endloop
  endfacet
  facet normal  0.000000e+000  0.000000e+000 -1.000000e+000
    outer loop
      vertex -5.262943e+001 -9.720047e-001  3.404825e+000
      vertex -6.067558e+001 -9.720047e-001  3.404825e+000
      vertex -5.262943e+001  3.132800e+001  3.404825e+000
    endloop
  endfacet
  facet normal  -0.000000e+000  0.000000e+000 -1.000000e+000
    outer loop
      vertex -5.262943e+001  3.132800e+001  3.404825e+000
      vertex -6.067558e+001 -9.720047e-001  3.404825e+000
      vertex -6.067558e+001  3.132800e+001  3.404825e+000
    endloop
  endfacet
  facet normal  1.000000e+000  -0.000000e+000  0.000000e+000
    outer loop
      vertex -5.262943e+001  3.132800e+001  8.450456e+000
      vertex -5.262943e+001 -9.720047e-001  8.450456e+000
      vertex -5.262943e+001  3.132800e+001  3.404825e+000
    endloop
  endfacet
  facet normal  1.000000e+000  0.000000e+000  0.000000e+000
    outer loop
      vertex -5.262943e+001  3.132800e+001  3.404825e+000
      vertex -5.262943e+001 -9.720047e-001  8.450456e+000
      vertex -5.262943e+001 -9.720047e-001  3.404825e+000
    endloop
  endfacet
  facet normal  0.000000e+000  0.000000e+000  1.000000e+000
    outer loop
      vertex -5.262943e+001 -9.720047e-001  8.450456e+000
      vertex -5.262943e+001  3.132800e+001  8.450456e+000
      vertex -5.662943e+001 -9.720047e-001  8.450456e+000
    endloop
  endfacet
  facet normal  0.000000e+000  0.000000e+000  1.000000e+000
    outer loop
      vertex -5.662943e+001 -9.720047e-001  8.450456e+000
      vertex -5.262943e+001  3.132800e+001  8.450456e+000
      vertex -5.662943e+001  3.132800e+001  8.450456e+000
    endloop
  endfacet
  facet normal  1.000000e+000  0.000000e+000  0.000000e+000
    outer loop
      vertex -5.662943e+001  3.132800e+001  8.450456e+000
      vertex -5.662943e+001  3.132800e+001  1.145046e+001
      vertex -5.662943e+001 -9.720047e-001  8.450456e+000
    endloop
  endfacet
  facet normal  1.000000e+000  0.000000e+000  0.000000e+000
    outer loop
      vertex -5.662943e+001 -9.720047e-001  8.450456e+000
      vertex -5.662943e+001  3.132800e+001  1.145046e+001
      vertex -5.662943e+001 -9.720047e-001  1.145046e+001
    endloop
  endfacet
  facet normal  0.000000e+000  0.000000e+000 -1.000000e+000
    outer loop
      vertex -5.662943e+001 -9.720047e-001  1.145046e+001
      vertex -5.662943e+001  3.132800e+001  1.145046e+001
      vertex -4.412943e+001 -9.720047e-001  1.145046e+001
    endloop
  endfacet
  facet normal  0.000000e+000  0.000000e+000 -1.000000e+000
    outer loop
      vertex -4.412943e+001 -9.720047e-001  1.145046e+001
      vertex -5.662943e+001  3.132800e+001  1.145046e+001
      vertex -4.412943e+001  3.132800e+001  1.145046e+001
    endloop
  endfacet
  facet normal -1.000000e+000  0.000000e+000  0.000000e+000
    outer loop
      vertex -4.412943e+001  3.132800e+001  1.145046e+001
      vertex -4.412943e+001  3.132800e+001  8.450456e+000
      vertex -4.412943e+001 -9.720047e-001  1.145046e+001
    endloop
  endfacet
  facet normal -1.000000e+000  0.000000e+000  0.000000e+000
    outer loop
      vertex -4.412943e+001 -9.720047e-001  1.145046e+001
      vertex -4.412943e+001  3.132800e+001  8.450456e+000
      vertex -4.412943e+001 -9.720047e-001  8.450456e+000
    endloop
  endfacet
  facet normal  0.000000e+000  0.000000e+000  1.000000e+000
    outer loop
      vertex -4.412943e+001 -9.720047e-001  8.450456e+000
      vertex -4.412943e+001  3.132800e+001  8.450456e+000
      vertex -4.812943e+001 -9.720047e-001  8.450456e+000
    endloop
  endfacet
  facet normal  0.000000e+000  0.000000e+000  1.000000e+000
    outer loop
      vertex -4.812943e+001 -9.720047e-001  8.450456e+000
      vertex -4.412943e+001  3.132800e+001  8.450456e+000
      vertex -4.812943e+001  3.132800e+001  8.450456e+000
    endloop
  endfacet
  facet normal -1.000000e+000  0.000000e+000  0.000000e+000
    outer loop
      vertex -4.812943e+001  3.132800e+001  8.450456e+000
      vertex -4.812943e+001  3.132800e+001  3.404825e+000
      vertex -4.812943e+001 -9.720047e-001  8.450456e+000
    endloop
  endfacet
  facet normal -1.000000e+000  0.000000e+000  0.000000e+000
    outer loop
      vertex -4.812943e+001 -9.720047e-001  8.450456e+000
      vertex -4.812943e+001  3.132800e+001  3.404825e+000
      vertex -4.812943e+001 -9.720047e-001  3.404825e+000
    endloop
  endfacet
  facet normal  0.000000e+000  0.000000e+000 -1.000000e+000
    outer loop
      vertex -4.054047e+001 -9.720047e-001  3.404825e+000
      vertex -4.812943e+001 -9.720047e-001  3.404825e+000
      vertex -4.054047e+001  3.132800e+001  3.404825e+000
    endloop
  endfacet
  facet normal  -0.000000e+000  0.000000e+000 -1.000000e+000
    outer loop
      vertex -4.054047e+001  3.132800e+001  3.404825e+000
      vertex -4.812943e+001 -9.720047e-001  3.404825e+000
      vertex -4.812943e+001  3.132800e+001  3.404825e+000
    endloop
  endfacet
  facet normal  0.000000e+000  0.000000e+000 -1.000000e+000
    outer loop
      vertex -2.849431e+001 -4.672005e+000  3.404825e+000
      vertex -3.654047e+001 -4.672005e+000  3.404825e+000
      vertex -2.849431e+001  3.132800e+001  3.404825e+000
    endloop
  endfacet
  facet normal  -0.000000e+000  0.000000e+000 -1.000000e+000
    outer loop
      vertex -2.849431e+001  3.132800e+001  3.404825e+000
      vertex -3.654047e+001 -4.672005e+000  3.404825e+000
      vertex -3.654047e+001  3.132800e+001  3.404825e+000
    endloop
  endfacet
  facet normal  1.000000e+000  -0.000000e+000  0.000000e+000
    outer loop
      vertex -2.849431e+001  3.132800e+001  8.450456e+000
      vertex -2.849431e+001 -4.672005e+000  8.450456e+000
      vertex -2.849431e+001  3.132800e+001  3.404825e+000
    endloop
  endfacet
  facet normal  1.000000e+000  0.000000e+000  0.000000e+000
    outer loop
      vertex -2.849431e+001  3.132800e+001  3.404825e+000
      vertex -2.849431e+001 -4.672005e+000  8.450456e+000
      vertex -2.849431e+001 -4.672005e+000  3.404825e+000
    endloop
  endfacet
  facet normal  0.000000e+000  0.000000e+000  1.000000e+000
    outer loop
      vertex -2.849431e+001 -4.672005e+000  8.450456e+000
      vertex -2.849431e+001  3.132800e+001  8.450456e+000
      vertex -3.249431e+001 -4.672005e+000  8.450456e+000
    endloop
  endfacet
  facet normal  0.000000e+000  0.000000e+000  1.000000e+000
    outer loop
      vertex -3.249431e+001 -4.672005e+000  8.450456e+000
      vertex -2.849431e+001  3.132800e+001  8.450456e+000
      vertex -3.249431e+001  3.132800e+001  8.450456e+000
    endloop
  endfacet
  facet normal  1.000000e+000  0.000000e+000  0.000000e+000
    outer loop
      vertex -3.249431e+001  3.132800e+001  8.450456e+000
      vertex -3.249431e+001  3.132800e+001  1.145046e+001
      vertex -3.249431e+001 -4.672005e+000  8.450456e+000
    endloop
  endfacet
  facet normal  1.000000e+000  0.000000e+000  0.000000e+000
    outer loop
      vertex -3.249431e+001 -4.672005e+000  8.450456e+000
      vertex -3.249431e+001  3.132800e+001  1.145046e+001
      vertex -3.249431e+001 -4.672005e+000  1.145046e+001
    endloop
  endfacet
  facet normal  0.000000e+000  0.000000e+000 -1.000000e+000
    outer loop
      vertex -3.249431e+001 -4.672005e+000  1.145046e+001
      vertex -3.249431e+001  3.132800e+001  1.145046e+001
      vertex -1.999431e+001 -4.672005e+000  1.145046e+001
    endloop
  endfacet
  facet normal  0.000000e+000  0.000000e+000 -1.000000e+000
    outer loop
      vertex -1.999431e+001 -4.672005e+000  1.145046e+001
      vertex -3.249431e+001  3.132800e+001  1.145046e+001
      vertex -1.999431e+001  3.132800e+001  1.145046e+001
    endloop
  endfacet
  facet normal -1.000000e+000  0.000000e+000  0.000000e+000
    outer loop
      vertex -1.999431e+001  3.132800e+001  1.145046e+001
      vertex -1.999431e+001  3.132800e+001  8.450456e+000
      vertex -1.999431e+001 -4.672005e+000  1.145046e+001
    endloop
  endfacet
  facet normal -1.000000e+000  0.000000e+000  0.000000e+000
    outer loop
      vertex -1.999431e+001 -4.672005e+000  1.145046e+001
      vertex -1.999431e+001  3.132800e+001  8.450456e+000
      vertex -1.999431e+001 -4.672005e+000  8.450456e+000
    endloop
  endfacet
  facet normal  0.000000e+000  0.000000e+000  1.000000e+000
    outer loop
      vertex -1.999431e+001 -4.672005e+000  8.450456e+000
      vertex -1.999431e+001  3.132800e+001  8.450456e+000
      vertex -2.399431e+001 -4.672005e+000  8.450456e+000
    endloop
  endfacet
  facet normal  0.000000e+000  0.000000e+000  1.000000e+000
    outer loop
      vertex -2.399431e+001 -4.672005e+000  8.450456e+000
      vertex -1.999431e+001  3.132800e+001  8.450456e+000
      vertex -2.399431e+001  3.132800e+001  8.450456e+000
    endloop
  endfacet
  facet normal -1.000000e+000  0.000000e+000  0.000000e+000
    outer loop
      vertex -2.399431e+001  3.132800e+001  8.450456e+000
      vertex -2.399431e+001  3.132800e+001  3.404825e+000
      vertex -2.399431e+001 -4.672005e+000  8.450456e+000
    endloop
  endfacet
  facet normal -1.000000e+000  0.000000e+000  0.000000e+000
    outer loop
      vertex -2.399431e+001 -4.672005e+000  8.450456e+000
      vertex -2.399431e+001  3.132800e+001  3.404825e+000
      vertex -2.399431e+001 -4.672005e+000  3.404825e+000
    endloop
  endfacet
  facet normal  0.000000e+000  0.000000e+000 -1.000000e+000
    outer loop
      vertex -1.640535e+001 -4.672005e+000  3.404825e+000
      vertex -2.399431e+001 -4.672005e+000  3.404825e+000
      vertex -1.640535e+001  3.132800e+001  3.404825e+000
    endloop
  endfacet
  facet normal  -0.000000e+000  0.000000e+000 -1.000000e+000
    outer loop
      vertex -1.640535e+001  3.132800e+001  3.404825e+000
      vertex -2.399431e+001 -4.672005e+000  3.404825e+000
      vertex -2.399431e+001  3.132800e+001  3.404825e+000
    endloop
  endfacet
  facet normal  0.000000e+000  0.000000e+000 -1.000000e+000
    outer loop
      vertex -4.109193e+000 -8.572004e+000  3.404825e+000
      vertex -1.240535e+001 -8.572004e+000  3.404825e+000
      vertex -4.109193e+000  3.132800e+001  3.404825e+000
    endloop
  endfacet
  facet normal  -0.000000e+000  0.000000e+000 -1.000000e+000
    outer loop
      vertex -4.109193e+000  3.132800e+001  3.404825e+000
      vertex -1.240535e+001 -8.572004e+000  3.404825e+000
      vertex -1.240535e+001  3.132800e+001  3.404825e+000
    endloop
  endfacet
  facet normal  1.000000e+000  -0.000000e+000  0.000000e+000
    outer loop
      vertex -4.109193e+000  3.132800e+001  8.450456e+000
      vertex -4.109193e+000 -8.572004e+000  8.450456e+000
      vertex -4.109193e+000  3.132800e+001  3.404825e+000
    endloop
  endfacet
  facet normal  1.000000e+000  0.000000e+000  0.000000e+000
    outer loop
      vertex -4.109193e+000  3.132800e+001  3.404825e+000
      vertex -4.109193e+000 -8.572004e+000  8.450456e+000
      vertex -4.109193e+000 -8.572004e+000  3.404825e+000
    endloop
  endfacet
  facet normal  0.000000e+000  0.000000e+000  1.000000e+000
    outer loop
      vertex -4.109193e+000 -8.572004e+000  8.450456e+000
      vertex -4.109193e+000  3.132800e+001  8.450456e+000
      vertex -8.109193e+000 -8.572004e+000  8.450456e+000
    endloop
  endfacet
  facet normal  0.000000e+000  0.000000e+000  1.000000e+000
    outer loop
      vertex -8.109193e+000 -8.572004e+000  8.450456e+000
      vertex -4.109193e+000  3.132800e+001  8.450456e+000
      vertex -8.109193e+000  3.132800e+001  8.450456e+000
    endloop
  endfacet
  facet normal  1.000000e+000  0.000000e+000  0.000000e+000
    outer loop
      vertex -8.109193e+000  3.132800e+001  8.450456e+000
      vertex -8.109193e+000  3.132800e+001  1.145046e+001
      vertex -8.109193e+000 -8.572004e+000  8.450456e+000
    endloop
  endfacet
  facet normal  1.000000e+000  0.000000e+000  0.000000e+000
    outer loop
      vertex -8.109193e+000 -8.572004e+000  8.450456e+000
      vertex -8.109193e+000  3.132800e+001  1.145046e+001
      vertex -8.109193e+000 -8.572004e+000  1.145046e+001
    endloop
  endfacet
  facet normal  0.000000e+000  0.000000e+000 -1.000000e+000
    outer loop
      vertex -8.109193e+000 -8.572004e+000  1.145046e+001
      vertex -8.109193e+000  3.132800e+001  1.145046e+001
      vertex  3.890807e+000 -8.572004e+000  1.145046e+001
    endloop
  endfacet
  facet normal  0.000000e+000  0.000000e+000 -1.000000e+000
    outer loop
      vertex  3.890807e+000 -8.572004e+000  1.145046e+001
      vertex -8.109193e+000  3.132800e+001  1.145046e+001
      vertex  3.890807e+000  3.132800e+001  1.145046e+001
    endloop
  endfacet
  facet normal -1.000000e+000  0.000000e+000  0.000000e+000
    outer loop
      vertex  3.890807e+000  3.132800e+001  1.145046e+001
      vertex  3.890807e+000  3.132800e+001  8.450456e+000
      vertex  3.890807e+000 -8.572004e+000  1.145046e+001
    endloop
  endfacet
  facet normal -1.000000e+000  0.000000e+000  0.000000e+000
    outer loop
      vertex  3.890807e+000 -8.572004e+000  1.145046e+001
      vertex  3.890807e+000  3.132800e+001  8.450456e+000
      vertex  3.890807e+000 -8.572004e+000  8.450456e+000
    endloop
  endfacet
  facet normal  0.000000e+000  0.000000e+000  1.000000e+000
    outer loop
      vertex  3.890807e+000 -8.572004e+000  8.450456e+000
      vertex  3.890807e+000  3.132800e+001  8.450456e+000
      vertex  3.908070e-001 -8.572004e+000  8.450456e+000
    endloop
  endfacet
  facet normal  0.000000e+000  0.000000e+000  1.000000e+000
    outer loop
      vertex  3.908070e-001 -8.572004e+000  8.450456e+000
      vertex  3.890807e+000  3.132800e+001  8.450456e+000
      vertex  3.908070e-001  3.132800e+001  8.450456e+000
    endloop
  endfacet
  facet normal -1.000000e+000  0.000000e+000  0.000000e+000
    outer loop
      vertex  3.908070e-001  3.132800e+001  8.450456e+000
      vertex  3.908070e-001  3.132800e+001  3.404825e+000
      vertex  3.908070e-001 -8.572004e+000  8.450456e+000
    endloop
  endfacet
  facet normal -1.000000e+000  0.000000e+000  0.000000e+000
    outer loop
      vertex  3.908070e-001 -8.572004e+000  8.450456e+000
      vertex  3.908070e-001  3.132800e+001  3.404825e+000
      vertex  3.908070e-001 -8.572004e+000  3.404825e+000
    endloop
  endfacet
  facet normal  0.000000e+000  0.000000e+000 -1.000000e+000
    outer loop
      vertex  7.729767e+000 -8.572004e+000  3.404825e+000
      vertex  3.908070e-001 -8.572004e+000  3.404825e+000
      vertex  7.729767e+000  3.132800e+001  3.404825e+000
    endloop
  endfacet
  facet normal  -0.000000e+000  0.000000e+000 -1.000000e+000
    outer loop
      vertex  7.729767e+000  3.132800e+001  3.404825e+000
      vertex  3.908070e-001 -8.572004e+000  3.404825e+000
      vertex  3.908070e-001  3.132800e+001  3.404825e+000
    endloop
  endfacet
  facet normal  0.000000e+000  0.000000e+000 -1.000000e+000
    outer loop
      vertex  4.160232e+001 -1.617200e+001  3.404825e+000
      vertex  3.586488e+001 -1.617200e+001  3.404825e+000
      vertex  4.160232e+001  3.132800e+001  3.404825e+000
    endloop
  endfacet
  facet normal  -0.000000e+000  0.000000e+000 -1.000000e+000
    outer loop
      vertex  4.160232e+001  3.132800e+001  3.404825e+000
      vertex  3.586488e+001 -1.617200e+001  3.404825e+000
      vertex  3.586488e+001  3.132800e+001  3.404825e+000
    endloop
  endfacet
  facet normal  9.999999e-001  -0.000000e+000  0.000000e+000
    outer loop
      vertex -3.654047e+001  3.132800e+001  3.404825e+000
      vertex -3.654047e+001 -4.672005e+000  3.404825e+000
      vertex -3.654047e+001  3.132800e+001  7.541771e-001
    endloop
  endfacet
  facet normal  9.999999e-001  0.000000e+000  0.000000e+000
    outer loop
      vertex -3.654047e+001  3.132800e+001  7.541771e-001
      vertex -3.654047e+001 -4.672005e+000  3.404825e+000
      vertex -3.654047e+001 -4.672005e+000  7.541771e-001
    endloop
  endfacet
  facet normal  1.000000e+000  -0.000000e+000  0.000000e+000
    outer loop
      vertex -1.240535e+001  3.132800e+001  3.404825e+000
      vertex -1.240535e+001 -8.572004e+000  3.404825e+000
      vertex -1.240535e+001  3.132800e+001  7.541771e-001
    endloop
  endfacet
  facet normal  1.000000e+000  0.000000e+000  0.000000e+000
    outer loop
      vertex -1.240535e+001  3.132800e+001  7.541771e-001
      vertex -1.240535e+001 -8.572004e+000  3.404825e+000
      vertex -1.240535e+001 -8.572004e+000  7.541771e-001
    endloop
  endfacet
  facet normal  1.000000e+000  -0.000000e+000  0.000000e+000
    outer loop
      vertex  1.172977e+001  3.132800e+001  3.404825e+000
      vertex  1.172977e+001 -1.217200e+001  3.404825e+000
      vertex  1.172977e+001  3.132800e+001  7.541771e-001
    endloop
  endfacet
  facet normal  1.000000e+000  0.000000e+000  0.000000e+000
    outer loop
      vertex  1.172977e+001  3.132800e+001  7.541771e-001
      vertex  1.172977e+001 -1.217200e+001  3.404825e+000
      vertex  1.172977e+001 -1.217200e+001  7.541771e-001
    endloop
  endfacet
  facet normal  9.999999e-001  0.000000e+000 -2.878313e-006
    outer loop
      vertex  3.586488e+001  3.132800e+001  3.404825e+000
      vertex  3.586488e+001 -1.617200e+001  3.404825e+000
      vertex  3.586488e+001  3.132800e+001  7.541771e-001
    endloop
  endfacet
  facet normal  9.999999e-001  0.000000e+000 -2.878313e-006
    outer loop
      vertex  3.586488e+001  3.132800e+001  7.541771e-001
      vertex  3.586488e+001 -1.617200e+001  3.404825e+000
      vertex  3.586488e+001 -1.617200e+001  7.541771e-001
    endloop
  endfacet
  facet normal  0.000000e+000  1.000000e+000  0.000000e+000
    outer loop
      vertex -5.662943e+001 -9.720047e-001  1.145046e+001
      vertex -4.412943e+001 -9.720047e-001  1.145046e+001
      vertex -4.412943e+001 -9.720047e-001  8.450456e+000
    endloop
  endfacet
  facet normal  0.000000e+000  1.000000e+000  0.000000e+000
    outer loop
      vertex -5.662943e+001 -9.720047e-001  1.145046e+001
      vertex -4.412943e+001 -9.720047e-001  8.450456e+000
      vertex -4.812943e+001 -9.720047e-001  8.450456e+000
    endloop
  endfacet
  facet normal  0.000000e+000  1.000000e+000  0.000000e+000
    outer loop
      vertex -5.662943e+001 -9.720047e-001  1.145046e+001
      vertex -4.812943e+001 -9.720047e-001  8.450456e+000
      vertex -5.262943e+001 -9.720047e-001  8.450456e+000
    endloop
  endfacet
  facet normal  0.000000e+000  1.000000e+000  0.000000e+000
    outer loop
      vertex -5.662943e+001 -9.720047e-001  1.145046e+001
      vertex -5.262943e+001 -9.720047e-001  8.450456e+000
      vertex -5.662943e+001 -9.720047e-001  8.450456e+000
    endloop
  endfacet
  facet normal  0.000000e+000  1.000000e+000  0.000000e+000
    outer loop
      vertex -4.054047e+001 -9.720047e-001  7.541771e-001
      vertex -6.067558e+001 -9.720047e-001  7.541771e-001
      vertex -6.067558e+001 -9.720047e-001  3.404825e+000
    endloop
  endfacet
  facet normal  -0.000000e+000  1.000000e+000  0.000000e+000
    outer loop
      vertex -4.054047e+001 -9.720047e-001  7.541771e-001
      vertex -6.067558e+001 -9.720047e-001  3.404825e+000
      vertex -5.262943e+001 -9.720047e-001  3.404825e+000
    endloop
  endfacet
  facet normal  -0.000000e+000  9.999999e-001  0.000000e+000
    outer loop
      vertex -4.054047e+001 -9.720047e-001  7.541771e-001
      vertex -5.262943e+001 -9.720047e-001  3.404825e+000
      vertex -4.812943e+001 -9.720047e-001  3.404825e+000
    endloop
  endfacet
  facet normal  -0.000000e+000  1.000000e+000  0.000000e+000
    outer loop
      vertex -4.054047e+001 -9.720047e-001  7.541771e-001
      vertex -4.812943e+001 -9.720047e-001  3.404825e+000
      vertex -4.054047e+001 -9.720047e-001  3.404825e+000
    endloop
  endfacet
  facet normal  0.000000e+000  1.000000e+000  0.000000e+000
    outer loop
      vertex -4.812943e+001 -9.720047e-001  3.404825e+000
      vertex -5.262943e+001 -9.720047e-001  3.404825e+000
      vertex -4.812943e+001 -9.720047e-001  8.450456e+000
    endloop
  endfacet
  facet normal  0.000000e+000  1.000000e+000  0.000000e+000
    outer loop
      vertex -4.812943e+001 -9.720047e-001  8.450456e+000
      vertex -5.262943e+001 -9.720047e-001  3.404825e+000
      vertex -5.262943e+001 -9.720047e-001  8.450456e+000
    endloop
  endfacet
  facet normal  0.000000e+000  1.000000e+000  0.000000e+000
    outer loop
      vertex -3.249431e+001 -4.672005e+000  1.145046e+001
      vertex -1.999431e+001 -4.672005e+000  1.145046e+001
      vertex -1.999431e+001 -4.672005e+000  8.450456e+000
    endloop
  endfacet
  facet normal  0.000000e+000  1.000000e+000  0.000000e+000
    outer loop
      vertex -3.249431e+001 -4.672005e+000  1.145046e+001
      vertex -1.999431e+001 -4.672005e+000  8.450456e+000
      vertex -2.399431e+001 -4.672005e+000  8.450456e+000
    endloop
  endfacet
  facet normal  0.000000e+000  1.000000e+000  0.000000e+000
    outer loop
      vertex -3.249431e+001 -4.672005e+000  1.145046e+001
      vertex -2.399431e+001 -4.672005e+000  8.450456e+000
      vertex -2.849431e+001 -4.672005e+000  8.450456e+000
    endloop
  endfacet
  facet normal  0.000000e+000  1.000000e+000  0.000000e+000
    outer loop
      vertex -3.249431e+001 -4.672005e+000  1.145046e+001
      vertex -2.849431e+001 -4.672005e+000  8.450456e+000
      vertex -3.249431e+001 -4.672005e+000  8.450456e+000
    endloop
  endfacet
  facet normal  0.000000e+000  1.000000e+000  0.000000e+000
    outer loop
      vertex -1.640535e+001 -4.672005e+000  7.541771e-001
      vertex -3.654047e+001 -4.672005e+000  7.541771e-001
      vertex -3.654047e+001 -4.672005e+000  3.404825e+000
    endloop
  endfacet
  facet normal  -0.000000e+000  1.000000e+000  0.000000e+000
    outer loop
      vertex -1.640535e+001 -4.672005e+000  7.541771e-001
      vertex -3.654047e+001 -4.672005e+000  3.404825e+000
      vertex -2.849431e+001 -4.672005e+000  3.404825e+000
    endloop
  endfacet
  facet normal  -0.000000e+000  9.999999e-001  0.000000e+000
    outer loop
      vertex -1.640535e+001 -4.672005e+000  7.541771e-001
      vertex -2.849431e+001 -4.672005e+000  3.404825e+000
      vertex -2.399431e+001 -4.672005e+000  3.404825e+000
    endloop
  endfacet
  facet normal  -0.000000e+000  1.000000e+000  0.000000e+000
    outer loop
      vertex -1.640535e+001 -4.672005e+000  7.541771e-001
      vertex -2.399431e+001 -4.672005e+000  3.404825e+000
      vertex -1.640535e+001 -4.672005e+000  3.404825e+000
    endloop
  endfacet
  facet normal  0.000000e+000  1.000000e+000  0.000000e+000
    outer loop
      vertex -2.399431e+001 -4.672005e+000  3.404825e+000
      vertex -2.849431e+001 -4.672005e+000  3.404825e+000
      vertex -2.399431e+001 -4.672005e+000  8.450456e+000
    endloop
  endfacet
  facet normal  0.000000e+000  1.000000e+000  0.000000e+000
    outer loop
      vertex -2.399431e+001 -4.672005e+000  8.450456e+000
      vertex -2.849431e+001 -4.672005e+000  3.404825e+000
      vertex -2.849431e+001 -4.672005e+000  8.450456e+000
    endloop
  endfacet
  facet normal  0.000000e+000  1.000000e+000  0.000000e+000
    outer loop
      vertex -8.109193e+000 -8.572004e+000  1.145046e+001
      vertex  3.890807e+000 -8.572004e+000  1.145046e+001
      vertex  3.890807e+000 -8.572004e+000  8.450456e+000
    endloop
  endfacet
  facet normal  0.000000e+000  1.000000e+000  0.000000e+000
    outer loop
      vertex -8.109193e+000 -8.572004e+000  1.145046e+001
      vertex  3.890807e+000 -8.572004e+000  8.450456e+000
      vertex  3.908070e-001 -8.572004e+000  8.450456e+000
    endloop
  endfacet
  facet normal  0.000000e+000  1.000000e+000  0.000000e+000
    outer loop
      vertex -8.109193e+000 -8.572004e+000  1.145046e+001
      vertex  3.908070e-001 -8.572004e+000  8.450456e+000
      vertex -4.109193e+000 -8.572004e+000  8.450456e+000
    endloop
  endfacet
  facet normal  0.000000e+000  1.000000e+000  0.000000e+000
    outer loop
      vertex -8.109193e+000 -8.572004e+000  1.145046e+001
      vertex -4.109193e+000 -8.572004e+000  8.450456e+000
      vertex -8.109193e+000 -8.572004e+000  8.450456e+000
    endloop
  endfacet
  facet normal  0.000000e+000  1.000000e+000  0.000000e+000
    outer loop
      vertex  7.729767e+000 -8.572004e+000  7.541771e-001
      vertex -1.240535e+001 -8.572004e+000  7.541771e-001
      vertex -1.240535e+001 -8.572004e+000  3.404825e+000
    endloop
  endfacet
  facet normal  -0.000000e+000  1.000000e+000  0.000000e+000
    outer loop
      vertex  7.729767e+000 -8.572004e+000  7.541771e-001
      vertex -1.240535e+001 -8.572004e+000  3.404825e+000
      vertex -4.109193e+000 -8.572004e+000  3.404825e+000
    endloop
  endfacet
  facet normal  -0.000000e+000  9.999999e-001  0.000000e+000
    outer loop
      vertex  7.729767e+000 -8.572004e+000  7.541771e-001
      vertex -4.109193e+000 -8.572004e+000  3.404825e+000
      vertex  3.908070e-001 -8.572004e+000  3.404825e+000
    endloop
  endfacet
  facet normal  -0.000000e+000  1.000000e+000  0.000000e+000
    outer loop
      vertex  7.729767e+000 -8.572004e+000  7.541771e-001
      vertex  3.908070e-001 -8.572004e+000  3.404825e+000
      vertex  7.729767e+000 -8.572004e+000  3.404825e+000
    endloop
  endfacet
  facet normal  0.000000e+000  1.000000e+000  0.000000e+000
    outer loop
      vertex  3.908070e-001 -8.572004e+000  3.404825e+000
      vertex -4.109193e+000 -8.572004e+000  3.404825e+000
      vertex  3.908070e-001 -8.572004e+000  8.450456e+000
    endloop
  endfacet
  facet normal  0.000000e+000  1.000000e+000  0.000000e+000
    outer loop
      vertex  3.908070e-001 -8.572004e+000  8.450456e+000
      vertex -4.109193e+000 -8.572004e+000  3.404825e+000
      vertex -4.109193e+000 -8.572004e+000  8.450456e+000
    endloop
  endfacet
  facet normal  0.000000e+000  1.000000e+000  0.000000e+000
    outer loop
      vertex  1.577592e+001 -1.217200e+001  1.145046e+001
      vertex  2.827592e+001 -1.217200e+001  1.145046e+001
      vertex  2.827592e+001 -1.217200e+001  8.450456e+000
    endloop
  endfacet
  facet normal  0.000000e+000  1.000000e+000  0.000000e+000
    outer loop
      vertex  1.577592e+001 -1.217200e+001  1.145046e+001
      vertex  2.827592e+001 -1.217200e+001  8.450456e+000
      vertex  2.427592e+001 -1.217200e+001  8.450456e+000
    endloop
  endfacet
  facet normal  0.000000e+000  1.000000e+000  0.000000e+000
    outer loop
      vertex  1.577592e+001 -1.217200e+001  1.145046e+001
      vertex  2.427592e+001 -1.217200e+001  8.450456e+000
      vertex  1.977592e+001 -1.217200e+001  8.450456e+000
    endloop
  endfacet
  facet normal  0.000000e+000  9.999999e-001  0.000000e+000
    outer loop
      vertex  1.577592e+001 -1.217200e+001  1.145046e+001
      vertex  1.977592e+001 -1.217200e+001  8.450456e+000
      vertex  1.577592e+001 -1.217200e+001  8.450456e+000
    endloop
  endfacet
  facet normal  0.000000e+000  1.000000e+000  0.000000e+000
    outer loop
      vertex  3.186488e+001 -1.217200e+001  7.541771e-001
      vertex  1.172977e+001 -1.217200e+001  7.541771e-001
      vertex  1.172977e+001 -1.217200e+001  3.404825e+000
    endloop
  endfacet
  facet normal  -0.000000e+000  1.000000e+000  0.000000e+000
    outer loop
      vertex  3.186488e+001 -1.217200e+001  7.541771e-001
      vertex  1.172977e+001 -1.217200e+001  3.404825e+000
      vertex  1.977592e+001 -1.217200e+001  3.404825e+000
    endloop
  endfacet
  facet normal  -0.000000e+000  9.999999e-001  0.000000e+000
    outer loop
      vertex  3.186488e+001 -1.217200e+001  7.541771e-001
      vertex  1.977592e+001 -1.217200e+001  3.404825e+000
      vertex  2.427592e+001 -1.217200e+001  3.404825e+000
    endloop
  endfacet
  facet normal  -0.000000e+000  1.000000e+000  0.000000e+000
    outer loop
      vertex  3.186488e+001 -1.217200e+001  7.541771e-001
      vertex  2.427592e+001 -1.217200e+001  3.404825e+000
      vertex  3.186488e+001 -1.217200e+001  3.404825e+000
    endloop
  endfacet
  facet normal  0.000000e+000  1.000000e+000  0.000000e+000
    outer loop
      vertex  2.427592e+001 -1.217200e+001  3.404825e+000
      vertex  1.977592e+001 -1.217200e+001  3.404825e+000
      vertex  2.427592e+001 -1.217200e+001  8.450456e+000
    endloop
  endfacet
  facet normal  0.000000e+000  1.000000e+000  0.000000e+000
    outer loop
      vertex  2.427592e+001 -1.217200e+001  8.450456e+000
      vertex  1.977592e+001 -1.217200e+001  3.404825e+000
      vertex  1.977592e+001 -1.217200e+001  8.450456e+000
    endloop
  endfacet
  facet normal  0.000000e+000  1.000000e+000  0.000000e+000
    outer loop
      vertex  3.760232e+001 -1.617200e+001  1.145046e+001
      vertex  5.010232e+001 -1.617200e+001  1.145046e+001
      vertex  5.010232e+001 -1.617200e+001  8.450456e+000
    endloop
  endfacet
  facet normal  0.000000e+000  1.000000e+000  0.000000e+000
    outer loop
      vertex  3.760232e+001 -1.617200e+001  1.145046e+001
      vertex  5.010232e+001 -1.617200e+001  8.450456e+000
      vertex  4.610232e+001 -1.617200e+001  8.450456e+000
    endloop
  endfacet
  facet normal  0.000000e+000  1.000000e+000  0.000000e+000
    outer loop
      vertex  3.760232e+001 -1.617200e+001  1.145046e+001
      vertex  4.610232e+001 -1.617200e+001  8.450456e+000
      vertex  4.160232e+001 -1.617200e+001  8.450456e+000
    endloop
  endfacet
  facet normal  0.000000e+000  1.000000e+000  0.000000e+000
    outer loop
      vertex  3.760232e+001 -1.617200e+001  1.145046e+001
      vertex  4.160232e+001 -1.617200e+001  8.450456e+000
      vertex  3.760232e+001 -1.617200e+001  8.450456e+000
    endloop
  endfacet
  facet normal  0.000000e+000  1.000000e+000  0.000000e+000
    outer loop
      vertex  5.600000e+001 -1.617200e+001  7.541771e-001
      vertex  3.586488e+001 -1.617200e+001  7.541771e-001
      vertex  3.586488e+001 -1.617200e+001  3.404825e+000
    endloop
  endfacet
  facet normal  -0.000000e+000  1.000000e+000  0.000000e+000
    outer loop
      vertex  5.600000e+001 -1.617200e+001  7.541771e-001
      vertex  3.586488e+001 -1.617200e+001  3.404825e+000
      vertex  4.160232e+001 -1.617200e+001  3.404825e+000
    endloop
  endfacet
  facet normal  -0.000000e+000  9.999999e-001  0.000000e+000
    outer loop
      vertex  5.600000e+001 -1.617200e+001  7.541771e-001
      vertex  4.160232e+001 -1.617200e+001  3.404825e+000
      vertex  4.610232e+001 -1.617200e+001  3.404825e+000
    endloop
  endfacet
  facet normal  -0.000000e+000  1.000000e+000  0.000000e+000
    outer loop
      vertex  5.600000e+001 -1.617200e+001  7.541771e-001
      vertex  4.610232e+001 -1.617200e+001  3.404825e+000
      vertex  5.600000e+001 -1.617200e+001  3.404825e+000
    endloop
  endfacet
  facet normal  0.000000e+000  1.000000e+000  0.000000e+000
    outer loop
      vertex  4.610232e+001 -1.617200e+001  3.404825e+000
      vertex  4.160232e+001 -1.617200e+001  3.404825e+000
      vertex  4.610232e+001 -1.617200e+001  8.450456e+000
    endloop
  endfacet
  facet normal  0.000000e+000  1.000000e+000  0.000000e+000
    outer loop
      vertex  4.610232e+001 -1.617200e+001  8.450456e+000
      vertex  4.160232e+001 -1.617200e+001  3.404825e+000
      vertex  4.160232e+001 -1.617200e+001  8.450456e+000
    endloop
  endfacet
endsolid CATIA STL
