solid CATIA STL
  facet normal  0.000000e+000  0.000000e+000  1.000000e+000
    outer loop
      vertex  4.855600e+001  4.600000e+001  1.000000e+001
      vertex  4.550000e+001  1.150000e+002  1.000000e+001
      vertex  4.444004e+000  4.600000e+001  1.000000e+001
    endloop
  endfacet
  facet normal  0.000000e+000  0.000000e+000  1.000000e+000
    outer loop
      vertex  7.500000e+000  1.175000e+002  1.000000e+001
      vertex  7.500000e+000  1.150000e+002  1.000000e+001
      vertex  4.550000e+001  1.175000e+002  1.000000e+001
    endloop
  endfacet
  facet normal  0.000000e+000  0.000000e+000  1.000000e+000
    outer loop
      vertex  4.550000e+001  1.175000e+002  1.000000e+001
      vertex  7.500000e+000  1.150000e+002  1.000000e+001
      vertex  4.444004e+000  4.600000e+001  1.000000e+001
    endloop
  endfacet
  facet normal  0.000000e+000  0.000000e+000  9.999999e-001
    outer loop
      vertex  4.550000e+001  1.175000e+002  1.000000e+001
      vertex  4.444004e+000  4.600000e+001  1.000000e+001
      vertex  4.550000e+001  1.150000e+002  1.000000e+001
    endloop
  endfacet
  facet normal  0.000000e+000  -0.000000e+000 -1.000000e+000
    outer loop
      vertex  4.444004e+000  4.600000e+001 -1.350000e+001
      vertex  7.500000e+000  1.150000e+002 -1.350000e+001
      vertex  4.855600e+001  4.600000e+001 -1.350000e+001
    endloop
  endfacet
  facet normal  0.000000e+000  0.000000e+000 -1.000000e+000
    outer loop
      vertex  4.550000e+001  1.175000e+002 -1.350000e+001
      vertex  4.550000e+001  1.150000e+002 -1.350000e+001
      vertex  7.500000e+000  1.175000e+002 -1.350000e+001
    endloop
  endfacet
  facet normal  0.000000e+000  0.000000e+000 -1.000000e+000
    outer loop
      vertex  7.500000e+000  1.175000e+002 -1.350000e+001
      vertex  4.550000e+001  1.150000e+002 -1.350000e+001
      vertex  4.855600e+001  4.600000e+001 -1.350000e+001
    endloop
  endfacet
  facet normal  0.000000e+000  0.000000e+000 -9.999999e-001
    outer loop
      vertex  7.500000e+000  1.175000e+002 -1.350000e+001
      vertex  4.855600e+001  4.600000e+001 -1.350000e+001
      vertex  7.500000e+000  1.150000e+002 -1.350000e+001
    endloop
  endfacet
  facet normal  9.999999e-001  -0.000000e+000  0.000000e+000
    outer loop
      vertex  4.550000e+001  1.175000e+002  1.000000e+001
      vertex  4.550000e+001  1.150000e+002  1.000000e+001
      vertex  4.550000e+001  1.175000e+002 -1.350000e+001
    endloop
  endfacet
  facet normal  9.999999e-001  0.000000e+000  0.000000e+000
    outer loop
      vertex  4.550000e+001  1.175000e+002 -1.350000e+001
      vertex  4.550000e+001  1.150000e+002  1.000000e+001
      vertex  4.550000e+001  1.150000e+002 -1.350000e+001
    endloop
  endfacet
  facet normal -9.999999e-001  0.000000e+000  0.000000e+000
    outer loop
      vertex  7.500000e+000  1.175000e+002 -1.350000e+001
      vertex  7.500000e+000  1.150000e+002 -1.350000e+001
      vertex  7.500000e+000  1.175000e+002  1.000000e+001
    endloop
  endfacet
  facet normal -9.999999e-001  -0.000000e+000  0.000000e+000
    outer loop
      vertex  7.500000e+000  1.175000e+002  1.000000e+001
      vertex  7.500000e+000  1.150000e+002 -1.350000e+001
      vertex  7.500000e+000  1.150000e+002  1.000000e+001
    endloop
  endfacet
  facet normal  0.000000e+000 -1.000000e+000  -0.000000e+000
    outer loop
      vertex  4.250000e+001  1.150000e+002 -1.050000e+001
      vertex  4.250000e+001  1.150000e+002  7.000000e+000
      vertex  1.050000e+001  1.150000e+002 -1.050000e+001
    endloop
  endfacet
  facet normal  0.000000e+000 -1.000000e+000  0.000000e+000
    outer loop
      vertex  1.050000e+001  1.150000e+002 -1.050000e+001
      vertex  4.250000e+001  1.150000e+002  7.000000e+000
      vertex  1.050000e+001  1.150000e+002  7.000000e+000
    endloop
  endfacet
  facet normal  9.990206e-001 -4.424643e-002  0.000000e+000
    outer loop
      vertex  1.050000e+001  1.150000e+002 -1.050000e+001
      vertex  1.050000e+001  1.150000e+002  7.000000e+000
      vertex  7.444004e+000  4.600000e+001 -1.050000e+001
    endloop
  endfacet
  facet normal  9.990206e-001 -4.424643e-002  0.000000e+000
    outer loop
      vertex  7.444004e+000  4.600000e+001 -1.050000e+001
      vertex  1.050000e+001  1.150000e+002  7.000000e+000
      vertex  7.444004e+000  4.600000e+001  7.000000e+000
    endloop
  endfacet
  facet normal  0.000000e+000  0.000000e+000  1.000000e+000
    outer loop
      vertex  1.050000e+001  1.150000e+002 -1.050000e+001
      vertex  7.444004e+000  4.600000e+001 -1.050000e+001
      vertex  4.250000e+001  1.150000e+002 -1.050000e+001
    endloop
  endfacet
  facet normal  0.000000e+000  0.000000e+000  1.000000e+000
    outer loop
      vertex  4.250000e+001  1.150000e+002 -1.050000e+001
      vertex  7.444004e+000  4.600000e+001 -1.050000e+001
      vertex  4.555600e+001  4.600000e+001 -1.050000e+001
    endloop
  endfacet
  facet normal  0.000000e+000  0.000000e+000 -1.000000e+000
    outer loop
      vertex  4.250000e+001  1.150000e+002  7.000000e+000
      vertex  4.555600e+001  4.600000e+001  7.000000e+000
      vertex  1.050000e+001  1.150000e+002  7.000000e+000
    endloop
  endfacet
  facet normal  0.000000e+000  -0.000000e+000 -1.000000e+000
    outer loop
      vertex  1.050000e+001  1.150000e+002  7.000000e+000
      vertex  4.555600e+001  4.600000e+001  7.000000e+000
      vertex  7.444004e+000  4.600000e+001  7.000000e+000
    endloop
  endfacet
  facet normal -9.990206e-001 -4.424642e-002  0.000000e+000
    outer loop
      vertex  4.250000e+001  1.150000e+002  7.000000e+000
      vertex  4.250000e+001  1.150000e+002 -1.050000e+001
      vertex  4.555600e+001  4.600000e+001  7.000000e+000
    endloop
  endfacet
  facet normal -9.990206e-001 -4.424642e-002  -0.000000e+000
    outer loop
      vertex  4.555600e+001  4.600000e+001  7.000000e+000
      vertex  4.250000e+001  1.150000e+002 -1.050000e+001
      vertex  4.555600e+001  4.600000e+001 -1.050000e+001
    endloop
  endfacet
  facet normal  9.990206e-001  4.424642e-002  -0.000000e+000
    outer loop
      vertex  4.855600e+001  4.600000e+001  1.000000e+001
      vertex  4.855600e+001  4.600000e+001 -1.350000e+001
      vertex  4.550000e+001  1.150000e+002  1.000000e+001
    endloop
  endfacet
  facet normal  9.990206e-001  4.424642e-002  0.000000e+000
    outer loop
      vertex  4.550000e+001  1.150000e+002  1.000000e+001
      vertex  4.855600e+001  4.600000e+001 -1.350000e+001
      vertex  4.550000e+001  1.150000e+002 -1.350000e+001
    endloop
  endfacet
  facet normal -9.990206e-001  4.424643e-002  0.000000e+000
    outer loop
      vertex  4.444004e+000  4.600000e+001 -1.350000e+001
      vertex  4.444004e+000  4.600000e+001  1.000000e+001
      vertex  7.500000e+000  1.150000e+002 -1.350000e+001
    endloop
  endfacet
  facet normal -9.990206e-001  4.424643e-002  0.000000e+000
    outer loop
      vertex  7.500000e+000  1.150000e+002 -1.350000e+001
      vertex  4.444004e+000  4.600000e+001  1.000000e+001
      vertex  7.500000e+000  1.150000e+002  1.000000e+001
    endloop
  endfacet
  facet normal  0.000000e+000  1.000000e+000  0.000000e+000
    outer loop
      vertex  4.550000e+001  1.175000e+002 -1.350000e+001
      vertex  7.500000e+000  1.175000e+002 -1.350000e+001
      vertex  4.550000e+001  1.175000e+002  1.000000e+001
    endloop
  endfacet
  facet normal  0.000000e+000  1.000000e+000  0.000000e+000
    outer loop
      vertex  4.550000e+001  1.175000e+002  1.000000e+001
      vertex  7.500000e+000  1.175000e+002 -1.350000e+001
      vertex  7.500000e+000  1.175000e+002  1.000000e+001
    endloop
  endfacet
  facet normal  0.000000e+000 -9.999999e-001  0.000000e+000
    outer loop
      vertex  4.855600e+001  4.600000e+001  1.000000e+001
      vertex  4.555600e+001  4.600000e+001 -1.050000e+001
      vertex  4.855600e+001  4.600000e+001 -1.350000e+001
    endloop
  endfacet
  facet normal  0.000000e+000 -1.000000e+000  0.000000e+000
    outer loop
      vertex  4.855600e+001  4.600000e+001 -1.350000e+001
      vertex  4.555600e+001  4.600000e+001 -1.050000e+001
      vertex  7.444004e+000  4.600000e+001 -1.050000e+001
    endloop
  endfacet
  facet normal  0.000000e+000 -1.000000e+000  -0.000000e+000
    outer loop
      vertex  4.855600e+001  4.600000e+001 -1.350000e+001
      vertex  7.444004e+000  4.600000e+001 -1.050000e+001
      vertex  4.444004e+000  4.600000e+001 -1.350000e+001
    endloop
  endfacet
  facet normal  0.000000e+000 -1.000000e+000  0.000000e+000
    outer loop
      vertex  4.555600e+001  4.600000e+001 -1.050000e+001
      vertex  4.855600e+001  4.600000e+001  1.000000e+001
      vertex  4.555600e+001  4.600000e+001  7.000000e+000
    endloop
  endfacet
  facet normal  0.000000e+000 -1.000000e+000  0.000000e+000
    outer loop
      vertex  4.555600e+001  4.600000e+001  7.000000e+000
      vertex  4.855600e+001  4.600000e+001  1.000000e+001
      vertex  4.444004e+000  4.600000e+001  1.000000e+001
    endloop
  endfacet
  facet normal  0.000000e+000 -1.000000e+000  0.000000e+000
    outer loop
      vertex  4.555600e+001  4.600000e+001  7.000000e+000
      vertex  4.444004e+000  4.600000e+001  1.000000e+001
      vertex  7.444004e+000  4.600000e+001  7.000000e+000
    endloop
  endfacet
  facet normal  -0.000000e+000 -9.999999e-001  0.000000e+000
    outer loop
      vertex  7.444004e+000  4.600000e+001  7.000000e+000
      vertex  4.444004e+000  4.600000e+001  1.000000e+001
      vertex  4.444004e+000  4.600000e+001 -1.350000e+001
    endloop
  endfacet
  facet normal  0.000000e+000 -1.000000e+000  0.000000e+000
    outer loop
      vertex  7.444004e+000  4.600000e+001  7.000000e+000
      vertex  4.444004e+000  4.600000e+001 -1.350000e+001
      vertex  7.444004e+000  4.600000e+001 -1.050000e+001
    endloop
  endfacet
endsolid CATIA STL
