solid CATIA STL
  facet normal -7.067166e-002  4.595166e-003 -9.974890e-001
    outer loop
      vertex  6.132159e+000  5.952591e+001 -4.023537e+001
      vertex  7.533477e+000  5.500000e+001 -4.035550e+001
      vertex  3.770930e+000  5.500000e+001 -4.008892e+001
    endloop
  endfacet
  facet normal -5.088189e-002 -5.768231e-003 -9.986879e-001
    outer loop
      vertex  3.770930e+000  5.500000e+001 -4.008892e+001
      vertex  2.006343e+000  5.952591e+001 -4.002516e+001
      vertex  6.132159e+000  5.952591e+001 -4.023537e+001
    endloop
  endfacet
  facet normal -2.357472e-002  4.892837e-003 -9.997101e-001
    outer loop
      vertex  2.006343e+000  5.952591e+001 -4.002516e+001
      vertex  3.770930e+000  5.500000e+001 -4.008892e+001
      vertex -2.266215e-014  5.500000e+001 -4.000000e+001
    endloop
  endfacet
  facet normal  7.405496e-004 -5.887678e-003 -9.999824e-001
    outer loop
      vertex -2.266215e-014  5.500000e+001 -4.000000e+001
      vertex -2.124823e+000  5.952591e+001 -4.002822e+001
      vertex  2.006343e+000  5.952591e+001 -4.002516e+001
    endloop
  endfacet
  facet normal  2.357473e-002  4.834204e-003 -9.997104e-001
    outer loop
      vertex -3.770930e+000  5.500000e+001 -4.008892e+001
      vertex -2.124823e+000  5.952591e+001 -4.002822e+001
      vertex -2.266215e-014  5.500000e+001 -4.000000e+001
    endloop
  endfacet
  facet normal  5.236210e-002 -5.650706e-003 -9.986122e-001
    outer loop
      vertex -6.250322e+000  5.952591e+001 -4.024454e+001
      vertex -2.124823e+000  5.952591e+001 -4.002822e+001
      vertex -3.770930e+000  5.500000e+001 -4.008892e+001
    endloop
  endfacet
  facet normal  7.067174e-002  4.418301e-003 -9.974899e-001
    outer loop
      vertex -7.533477e+000  5.500000e+001 -4.035550e+001
      vertex -6.250322e+000  5.952591e+001 -4.024454e+001
      vertex -3.770930e+000  5.500000e+001 -4.008892e+001
    endloop
  endfacet
  facet normal -7.067192e-002 -3.799238e-003 -9.974924e-001
    outer loop
      vertex  3.770930e+000  8.000000e+001 -4.008892e+001
      vertex  7.533477e+000  8.000000e+001 -4.035550e+001
      vertex  6.132159e+000  7.452591e+001 -4.023537e+001
    endloop
  endfacet
  facet normal -5.088216e-002  4.769127e-003 -9.986933e-001
    outer loop
      vertex  2.006343e+000  7.452591e+001 -4.002516e+001
      vertex  3.770930e+000  8.000000e+001 -4.008892e+001
      vertex  6.132159e+000  7.452591e+001 -4.023537e+001
    endloop
  endfacet
  facet normal -2.357481e-002 -4.045351e-003 -9.997140e-001
    outer loop
      vertex -2.266215e-014  8.000000e+001 -4.000000e+001
      vertex  3.770930e+000  8.000000e+001 -4.008892e+001
      vertex  2.006343e+000  7.452591e+001 -4.002516e+001
    endloop
  endfacet
  facet normal  7.405534e-004  4.867885e-003 -9.999878e-001
    outer loop
      vertex -2.124823e+000  7.452591e+001 -4.002822e+001
      vertex -2.266215e-014  8.000000e+001 -4.000000e+001
      vertex  2.006343e+000  7.452591e+001 -4.002516e+001
    endloop
  endfacet
  facet normal  2.357482e-002 -3.996874e-003 -9.997141e-001
    outer loop
      vertex -2.124823e+000  7.452591e+001 -4.002822e+001
      vertex -3.770930e+000  8.000000e+001 -4.008892e+001
      vertex -2.266215e-014  8.000000e+001 -4.000000e+001
    endloop
  endfacet
  facet normal  5.236236e-002  4.671956e-003 -9.986172e-001
    outer loop
      vertex -3.770930e+000  8.000000e+001 -4.008892e+001
      vertex -2.124823e+000  7.452591e+001 -4.002822e+001
      vertex -6.250322e+000  7.452591e+001 -4.024454e+001
    endloop
  endfacet
  facet normal  7.067195e-002 -3.653006e-003 -9.974929e-001
    outer loop
      vertex -6.250322e+000  7.452591e+001 -4.024454e+001
      vertex -7.533477e+000  8.000000e+001 -4.035550e+001
      vertex -3.770930e+000  8.000000e+001 -4.008892e+001
    endloop
  endfacet
  facet normal -1.337524e-001  1.766593e-004 -9.910147e-001
    outer loop
      vertex  1.024162e+001  5.952591e+001 -4.065828e+001
      vertex  1.074550e+001  6.702591e+001 -4.072495e+001
      vertex  1.127928e+001  5.500000e+001 -4.079913e+001
    endloop
  endfacet
  facet normal -1.176112e-001  3.940761e-003 -9.930519e-001
    outer loop
      vertex  1.024162e+001  5.952591e+001 -4.065828e+001
      vertex  1.127928e+001  5.500000e+001 -4.079913e+001
      vertex  7.533477e+000  5.500000e+001 -4.035550e+001
    endloop
  endfacet
  facet normal -1.023689e-001 -5.292130e-003 -9.947325e-001
    outer loop
      vertex  1.024162e+001  5.952591e+001 -4.065828e+001
      vertex  7.533477e+000  5.500000e+001 -4.035550e+001
      vertex  6.132159e+000  5.952591e+001 -4.023537e+001
    endloop
  endfacet
  facet normal -1.023693e-001  4.375486e-003 -9.947368e-001
    outer loop
      vertex  1.024162e+001  7.452591e+001 -4.065828e+001
      vertex  6.132159e+000  7.452591e+001 -4.023537e+001
      vertex  7.533477e+000  8.000000e+001 -4.035550e+001
    endloop
  endfacet
  facet normal -1.176115e-001 -3.258181e-003 -9.930543e-001
    outer loop
      vertex  1.024162e+001  7.452591e+001 -4.065828e+001
      vertex  7.533477e+000  8.000000e+001 -4.035550e+001
      vertex  1.127928e+001  8.000000e+001 -4.079913e+001
    endloop
  endfacet
  facet normal -1.336354e-001 -1.686551e-004 -9.910306e-001
    outer loop
      vertex  1.024162e+001  7.452591e+001 -4.065828e+001
      vertex  1.127928e+001  8.000000e+001 -4.079913e+001
      vertex  1.074550e+001  6.702591e+001 -4.072495e+001
    endloop
  endfacet
  facet normal -1.311686e-001  0.000000e+000 -9.913601e-001
    outer loop
      vertex  1.024162e+001  7.452591e+001 -4.065828e+001
      vertex  1.074550e+001  6.702591e+001 -4.072495e+001
      vertex  1.024162e+001  5.952591e+001 -4.065828e+001
    endloop
  endfacet
  facet normal  1.344615e-001 -1.340288e-004 -9.909188e-001
    outer loop
      vertex -1.035915e+001  7.452591e+001 -4.067353e+001
      vertex -1.074550e+001  6.702591e+001 -4.072495e+001
      vertex -1.127928e+001  8.000000e+001 -4.079913e+001
    endloop
  endfacet
  facet normal  1.176116e-001 -3.015289e-003 -9.930551e-001
    outer loop
      vertex -1.035915e+001  7.452591e+001 -4.067353e+001
      vertex -1.127928e+001  8.000000e+001 -4.079913e+001
      vertex -7.533477e+000  8.000000e+001 -4.035550e+001
    endloop
  endfacet
  facet normal  1.038422e-001  4.181213e-003 -9.945850e-001
    outer loop
      vertex -1.035915e+001  7.452591e+001 -4.067353e+001
      vertex -7.533477e+000  8.000000e+001 -4.035550e+001
      vertex -6.250322e+000  7.452591e+001 -4.024454e+001
    endloop
  endfacet
  facet normal  1.038418e-001 -5.057157e-003 -9.945810e-001
    outer loop
      vertex -1.035915e+001  5.952591e+001 -4.067353e+001
      vertex -6.250322e+000  5.952591e+001 -4.024454e+001
      vertex -7.533477e+000  5.500000e+001 -4.035550e+001
    endloop
  endfacet
  facet normal  1.176113e-001  3.646991e-003 -9.930530e-001
    outer loop
      vertex -1.035915e+001  5.952591e+001 -4.067353e+001
      vertex -7.533477e+000  5.500000e+001 -4.035550e+001
      vertex -1.127928e+001  5.500000e+001 -4.079913e+001
    endloop
  endfacet
  facet normal  1.345697e-001  1.397038e-004 -9.909041e-001
    outer loop
      vertex -1.035915e+001  5.952591e+001 -4.067353e+001
      vertex -1.127928e+001  5.500000e+001 -4.079913e+001
      vertex -1.074550e+001  6.702591e+001 -4.072495e+001
    endloop
  endfacet
  facet normal  1.319053e-001  0.000000e+000 -9.912622e-001
    outer loop
      vertex -1.035915e+001  5.952591e+001 -4.067353e+001
      vertex -1.074550e+001  6.702591e+001 -4.072495e+001
      vertex -1.035915e+001  7.452591e+001 -4.067353e+001
    endloop
  endfacet
  facet normal -1.642907e-001 -1.207186e-003 -9.864113e-001
    outer loop
      vertex  1.127928e+001  5.500000e+001 -4.079913e+001
      vertex  1.074550e+001  6.702591e+001 -4.072495e+001
      vertex  1.500000e+001  5.500000e+001 -4.141883e+001
    endloop
  endfacet
  facet normal -1.585513e-001  8.774688e-004 -9.873503e-001
    outer loop
      vertex  1.500000e+001  5.500000e+001 -4.141883e+001
      vertex  1.074550e+001  6.702591e+001 -4.072495e+001
      vertex  1.127928e+001  8.000000e+001 -4.079913e+001
    endloop
  endfacet
  facet normal -1.642908e-001  0.000000e+000 -9.864119e-001
    outer loop
      vertex  1.500000e+001  5.500000e+001 -4.141883e+001
      vertex  1.127928e+001  8.000000e+001 -4.079913e+001
      vertex  1.500000e+001  8.000000e+001 -4.141883e+001
    endloop
  endfacet
  facet normal  1.642907e-001 -1.207191e-003 -9.864112e-001
    outer loop
      vertex -1.127928e+001  5.500000e+001 -4.079913e+001
      vertex -1.500000e+001  5.500000e+001 -4.141883e+001
      vertex -1.074550e+001  6.702591e+001 -4.072495e+001
    endloop
  endfacet
  facet normal  1.609679e-001  0.000000e+000 -9.869596e-001
    outer loop
      vertex -1.074550e+001  6.702591e+001 -4.072495e+001
      vertex -1.500000e+001  5.500000e+001 -4.141883e+001
      vertex -1.500000e+001  8.000000e+001 -4.141883e+001
    endloop
  endfacet
  facet normal  1.642907e-001  1.118966e-003 -9.864114e-001
    outer loop
      vertex -1.074550e+001  6.702591e+001 -4.072495e+001
      vertex -1.500000e+001  8.000000e+001 -4.141883e+001
      vertex -1.127928e+001  8.000000e+001 -4.079913e+001
    endloop
  endfacet
  facet normal  -0.000000e+000  0.000000e+000  1.000000e+000
    outer loop
      vertex  1.241367e+001  8.000000e+001 -3.806426e+001
      vertex  1.024162e+001  5.952591e+001 -3.806426e+001
      vertex  1.241367e+001  5.500000e+001 -3.806426e+001
    endloop
  endfacet
  facet normal  0.000000e+000  0.000000e+000  1.000000e+000
    outer loop
      vertex  1.241367e+001  5.500000e+001 -3.806426e+001
      vertex  1.024162e+001  5.952591e+001 -3.806426e+001
      vertex -1.035915e+001  5.952591e+001 -3.806426e+001
    endloop
  endfacet
  facet normal  0.000000e+000  0.000000e+000  1.000000e+000
    outer loop
      vertex  1.241367e+001  5.500000e+001 -3.806426e+001
      vertex -1.035915e+001  5.952591e+001 -3.806426e+001
      vertex -1.241367e+001  5.500000e+001 -3.806426e+001
    endloop
  endfacet
  facet normal  0.000000e+000  0.000000e+000  1.000000e+000
    outer loop
      vertex  1.024162e+001  5.952591e+001 -3.806426e+001
      vertex  1.241367e+001  8.000000e+001 -3.806426e+001
      vertex  1.024162e+001  7.452591e+001 -3.806426e+001
    endloop
  endfacet
  facet normal  0.000000e+000  -0.000000e+000  1.000000e+000
    outer loop
      vertex  1.024162e+001  7.452591e+001 -3.806426e+001
      vertex  1.241367e+001  8.000000e+001 -3.806426e+001
      vertex -1.241367e+001  8.000000e+001 -3.806426e+001
    endloop
  endfacet
  facet normal  0.000000e+000  0.000000e+000  1.000000e+000
    outer loop
      vertex  1.024162e+001  7.452591e+001 -3.806426e+001
      vertex -1.241367e+001  8.000000e+001 -3.806426e+001
      vertex -1.035915e+001  7.452591e+001 -3.806426e+001
    endloop
  endfacet
  facet normal  0.000000e+000  0.000000e+000  1.000000e+000
    outer loop
      vertex -1.035915e+001  7.452591e+001 -3.806426e+001
      vertex -1.241367e+001  8.000000e+001 -3.806426e+001
      vertex -1.241367e+001  5.500000e+001 -3.806426e+001
    endloop
  endfacet
  facet normal  0.000000e+000  0.000000e+000  1.000000e+000
    outer loop
      vertex -1.035915e+001  7.452591e+001 -3.806426e+001
      vertex -1.241367e+001  5.500000e+001 -3.806426e+001
      vertex -1.035915e+001  5.952591e+001 -3.806426e+001
    endloop
  endfacet
  facet normal  0.000000e+000 -1.000000e+000  0.000000e+000
    outer loop
      vertex  1.024162e+001  7.452591e+001 -3.806426e+001
      vertex -1.035915e+001  7.452591e+001 -3.806426e+001
      vertex -1.035915e+001  7.452591e+001 -4.067353e+001
    endloop
  endfacet
  facet normal  0.000000e+000 -1.000000e+000  0.000000e+000
    outer loop
      vertex  1.024162e+001  7.452591e+001 -3.806426e+001
      vertex -1.035915e+001  7.452591e+001 -4.067353e+001
      vertex -6.250322e+000  7.452591e+001 -4.024454e+001
    endloop
  endfacet
  facet normal  0.000000e+000 -1.000000e+000  0.000000e+000
    outer loop
      vertex  1.024162e+001  7.452591e+001 -3.806426e+001
      vertex -6.250322e+000  7.452591e+001 -4.024454e+001
      vertex -2.124823e+000  7.452591e+001 -4.002822e+001
    endloop
  endfacet
  facet normal  0.000000e+000 -1.000000e+000  0.000000e+000
    outer loop
      vertex  1.024162e+001  7.452591e+001 -3.806426e+001
      vertex -2.124823e+000  7.452591e+001 -4.002822e+001
      vertex  2.006343e+000  7.452591e+001 -4.002516e+001
    endloop
  endfacet
  facet normal  0.000000e+000 -1.000000e+000  0.000000e+000
    outer loop
      vertex  1.024162e+001  7.452591e+001 -3.806426e+001
      vertex  2.006343e+000  7.452591e+001 -4.002516e+001
      vertex  6.132159e+000  7.452591e+001 -4.023537e+001
    endloop
  endfacet
  facet normal  0.000000e+000 -1.000000e+000  0.000000e+000
    outer loop
      vertex  1.024162e+001  7.452591e+001 -3.806426e+001
      vertex  6.132159e+000  7.452591e+001 -4.023537e+001
      vertex  1.024162e+001  7.452591e+001 -4.065828e+001
    endloop
  endfacet
  facet normal  1.000000e+000  0.000000e+000  0.000000e+000
    outer loop
      vertex -1.035915e+001  5.952591e+001 -4.067353e+001
      vertex -1.035915e+001  7.452591e+001 -4.067353e+001
      vertex -1.035915e+001  5.952591e+001 -3.806426e+001
    endloop
  endfacet
  facet normal  1.000000e+000  -0.000000e+000  0.000000e+000
    outer loop
      vertex -1.035915e+001  5.952591e+001 -3.806426e+001
      vertex -1.035915e+001  7.452591e+001 -4.067353e+001
      vertex -1.035915e+001  7.452591e+001 -3.806426e+001
    endloop
  endfacet
  facet normal  0.000000e+000  1.000000e+000  -0.000000e+000
    outer loop
      vertex  1.024162e+001  5.952591e+001 -3.806426e+001
      vertex  1.024162e+001  5.952591e+001 -4.065828e+001
      vertex  6.132159e+000  5.952591e+001 -4.023537e+001
    endloop
  endfacet
  facet normal  0.000000e+000  1.000000e+000  -0.000000e+000
    outer loop
      vertex  1.024162e+001  5.952591e+001 -3.806426e+001
      vertex  6.132159e+000  5.952591e+001 -4.023537e+001
      vertex  2.006343e+000  5.952591e+001 -4.002516e+001
    endloop
  endfacet
  facet normal  0.000000e+000  1.000000e+000  -0.000000e+000
    outer loop
      vertex  1.024162e+001  5.952591e+001 -3.806426e+001
      vertex  2.006343e+000  5.952591e+001 -4.002516e+001
      vertex -1.035915e+001  5.952591e+001 -3.806426e+001
    endloop
  endfacet
  facet normal  0.000000e+000  1.000000e+000  0.000000e+000
    outer loop
      vertex -1.035915e+001  5.952591e+001 -3.806426e+001
      vertex  2.006343e+000  5.952591e+001 -4.002516e+001
      vertex -2.124823e+000  5.952591e+001 -4.002822e+001
    endloop
  endfacet
  facet normal  0.000000e+000  1.000000e+000  0.000000e+000
    outer loop
      vertex -1.035915e+001  5.952591e+001 -3.806426e+001
      vertex -2.124823e+000  5.952591e+001 -4.002822e+001
      vertex -6.250322e+000  5.952591e+001 -4.024454e+001
    endloop
  endfacet
  facet normal  0.000000e+000  1.000000e+000  0.000000e+000
    outer loop
      vertex -1.035915e+001  5.952591e+001 -3.806426e+001
      vertex -6.250322e+000  5.952591e+001 -4.024454e+001
      vertex -1.035915e+001  5.952591e+001 -4.067353e+001
    endloop
  endfacet
  facet normal -1.000000e+000  0.000000e+000  0.000000e+000
    outer loop
      vertex  1.024162e+001  7.452591e+001 -4.065828e+001
      vertex  1.024162e+001  5.952591e+001 -4.065828e+001
      vertex  1.024162e+001  7.452591e+001 -3.806426e+001
    endloop
  endfacet
  facet normal -1.000000e+000  -0.000000e+000  0.000000e+000
    outer loop
      vertex  1.024162e+001  7.452591e+001 -3.806426e+001
      vertex  1.024162e+001  5.952591e+001 -4.065828e+001
      vertex  1.024162e+001  5.952591e+001 -3.806426e+001
    endloop
  endfacet
  facet normal  0.000000e+000  1.000000e+000  -0.000000e+000
    outer loop
      vertex -1.262634e+001  5.900000e+001 -5.874688e+000
      vertex -1.262634e+001  5.900000e+001 -3.413945e+001
      vertex -1.500000e+001  5.900000e+001 -5.874688e+000
    endloop
  endfacet
  facet normal  0.000000e+000  1.000000e+000  0.000000e+000
    outer loop
      vertex -1.500000e+001  5.900000e+001 -5.874688e+000
      vertex -1.262634e+001  5.900000e+001 -3.413945e+001
      vertex -1.500000e+001  5.900000e+001 -3.413945e+001
    endloop
  endfacet
  facet normal  0.000000e+000  0.000000e+000  9.999999e-001
    outer loop
      vertex -1.262634e+001  5.900000e+001 -3.413945e+001
      vertex -1.262634e+001  7.600000e+001 -3.413945e+001
      vertex -1.500000e+001  5.900000e+001 -3.413945e+001
    endloop
  endfacet
  facet normal  0.000000e+000  0.000000e+000  9.999999e-001
    outer loop
      vertex -1.500000e+001  5.900000e+001 -3.413945e+001
      vertex -1.262634e+001  7.600000e+001 -3.413945e+001
      vertex -1.500000e+001  7.600000e+001 -3.413945e+001
    endloop
  endfacet
  facet normal  0.000000e+000 -1.000000e+000  0.000000e+000
    outer loop
      vertex -1.262634e+001  7.600000e+001 -5.874688e+000
      vertex -1.500000e+001  7.600000e+001 -5.874688e+000
      vertex -1.262634e+001  7.600000e+001 -3.413945e+001
    endloop
  endfacet
  facet normal  0.000000e+000 -1.000000e+000  0.000000e+000
    outer loop
      vertex -1.262634e+001  7.600000e+001 -3.413945e+001
      vertex -1.500000e+001  7.600000e+001 -5.874688e+000
      vertex -1.500000e+001  7.600000e+001 -3.413945e+001
    endloop
  endfacet
  facet normal  0.000000e+000  0.000000e+000 -9.999999e-001
    outer loop
      vertex -1.262634e+001  5.900000e+001 -5.874688e+000
      vertex -1.500000e+001  5.900000e+001 -5.874688e+000
      vertex -1.262634e+001  7.600000e+001 -5.874688e+000
    endloop
  endfacet
  facet normal  -0.000000e+000  0.000000e+000 -9.999999e-001
    outer loop
      vertex -1.262634e+001  7.600000e+001 -5.874688e+000
      vertex -1.500000e+001  5.900000e+001 -5.874688e+000
      vertex -1.500000e+001  7.600000e+001 -5.874688e+000
    endloop
  endfacet
  facet normal  1.000000e+000  -0.000000e+000  0.000000e+000
    outer loop
      vertex -1.262634e+001  8.000000e+001 -5.874688e+000
      vertex -1.262634e+001  7.600000e+001 -5.874688e+000
      vertex -1.262634e+001  8.000000e+001 -3.413945e+001
    endloop
  endfacet
  facet normal  1.000000e+000  0.000000e+000  0.000000e+000
    outer loop
      vertex -1.262634e+001  8.000000e+001 -3.413945e+001
      vertex -1.262634e+001  7.600000e+001 -5.874688e+000
      vertex -1.262634e+001  7.600000e+001 -3.413945e+001
    endloop
  endfacet
  facet normal  1.000000e+000  -0.000000e+000  0.000000e+000
    outer loop
      vertex -1.262634e+001  5.900000e+001 -5.874688e+000
      vertex -1.262634e+001  5.500000e+001 -5.874688e+000
      vertex -1.262634e+001  5.900000e+001 -3.413945e+001
    endloop
  endfacet
  facet normal  1.000000e+000  0.000000e+000  0.000000e+000
    outer loop
      vertex -1.262634e+001  5.900000e+001 -3.413945e+001
      vertex -1.262634e+001  5.500000e+001 -5.874688e+000
      vertex -1.262634e+001  5.500000e+001 -3.413945e+001
    endloop
  endfacet
  facet normal -1.000000e+000  -0.000000e+000  0.000000e+000
    outer loop
      vertex -1.500000e+001  5.500000e+001  3.000000e+000
      vertex -1.500000e+001  5.900000e+001 -3.413945e+001
      vertex -1.500000e+001  5.500000e+001 -4.141883e+001
    endloop
  endfacet
  facet normal -9.999999e-001  0.000000e+000  0.000000e+000
    outer loop
      vertex -1.500000e+001  5.500000e+001 -4.141883e+001
      vertex -1.500000e+001  5.900000e+001 -3.413945e+001
      vertex -1.500000e+001  7.600000e+001 -3.413945e+001
    endloop
  endfacet
  facet normal -1.000000e+000  0.000000e+000  -0.000000e+000
    outer loop
      vertex -1.500000e+001  5.500000e+001 -4.141883e+001
      vertex -1.500000e+001  7.600000e+001 -3.413945e+001
      vertex -1.500000e+001  8.000000e+001 -4.141883e+001
    endloop
  endfacet
  facet normal -1.000000e+000  0.000000e+000  0.000000e+000
    outer loop
      vertex -1.500000e+001  5.900000e+001 -3.413945e+001
      vertex -1.500000e+001  5.500000e+001  3.000000e+000
      vertex -1.500000e+001  5.900000e+001 -5.874688e+000
    endloop
  endfacet
  facet normal -9.999999e-001  0.000000e+000  0.000000e+000
    outer loop
      vertex -1.500000e+001  5.900000e+001 -5.874688e+000
      vertex -1.500000e+001  5.500000e+001  3.000000e+000
      vertex -1.500000e+001  8.000000e+001  3.000000e+000
    endloop
  endfacet
  facet normal -1.000000e+000  0.000000e+000  0.000000e+000
    outer loop
      vertex -1.500000e+001  5.900000e+001 -5.874688e+000
      vertex -1.500000e+001  8.000000e+001  3.000000e+000
      vertex -1.500000e+001  7.600000e+001 -5.874688e+000
    endloop
  endfacet
  facet normal -1.000000e+000  0.000000e+000  0.000000e+000
    outer loop
      vertex -1.500000e+001  7.600000e+001 -5.874688e+000
      vertex -1.500000e+001  8.000000e+001  3.000000e+000
      vertex -1.500000e+001  8.000000e+001 -4.141883e+001
    endloop
  endfacet
  facet normal -1.000000e+000  0.000000e+000  0.000000e+000
    outer loop
      vertex -1.500000e+001  7.600000e+001 -5.874688e+000
      vertex -1.500000e+001  8.000000e+001 -4.141883e+001
      vertex -1.500000e+001  7.600000e+001 -3.413945e+001
    endloop
  endfacet
  facet normal -8.359806e-001  0.000000e+000 -5.487589e-001
    outer loop
      vertex -2.604945e+000  5.500000e+001 -2.114131e+001
      vertex -1.262634e+001  5.500000e+001 -5.874688e+000
      vertex -1.262634e+001  5.900000e+001 -5.874688e+000
    endloop
  endfacet
  facet normal -8.359807e-001  0.000000e+000 -5.487589e-001
    outer loop
      vertex -2.604945e+000  5.500000e+001 -2.114131e+001
      vertex -1.262634e+001  5.900000e+001 -5.874688e+000
      vertex -1.262634e+001  7.600000e+001 -5.874688e+000
    endloop
  endfacet
  facet normal -8.359806e-001  0.000000e+000 -5.487589e-001
    outer loop
      vertex -2.604945e+000  5.500000e+001 -2.114131e+001
      vertex -1.262634e+001  7.600000e+001 -5.874688e+000
      vertex -1.262634e+001  8.000000e+001 -5.874688e+000
    endloop
  endfacet
  facet normal -8.359807e-001  0.000000e+000 -5.487589e-001
    outer loop
      vertex -2.604945e+000  5.500000e+001 -2.114131e+001
      vertex -1.262634e+001  8.000000e+001 -5.874688e+000
      vertex -2.604945e+000  8.000000e+001 -2.114131e+001
    endloop
  endfacet
  facet normal -7.919515e-001  0.000000e+000  6.105839e-001
    outer loop
      vertex -1.262634e+001  5.900000e+001 -3.413945e+001
      vertex -1.262634e+001  5.500000e+001 -3.413945e+001
      vertex -2.604945e+000  5.500000e+001 -2.114131e+001
    endloop
  endfacet
  facet normal -7.919515e-001  0.000000e+000  6.105838e-001
    outer loop
      vertex -2.604945e+000  8.000000e+001 -2.114131e+001
      vertex -1.262634e+001  8.000000e+001 -3.413945e+001
      vertex -2.604945e+000  5.500000e+001 -2.114131e+001
    endloop
  endfacet
  facet normal -7.919515e-001  0.000000e+000  6.105840e-001
    outer loop
      vertex -2.604945e+000  5.500000e+001 -2.114131e+001
      vertex -1.262634e+001  8.000000e+001 -3.413945e+001
      vertex -1.262634e+001  7.600000e+001 -3.413945e+001
    endloop
  endfacet
  facet normal -7.919516e-001  0.000000e+000  6.105839e-001
    outer loop
      vertex -2.604945e+000  5.500000e+001 -2.114131e+001
      vertex -1.262634e+001  7.600000e+001 -3.413945e+001
      vertex -1.262634e+001  5.900000e+001 -3.413945e+001
    endloop
  endfacet
  facet normal  0.000000e+000 -1.000000e+000  0.000000e+000
    outer loop
      vertex  1.500000e+001  7.600000e+001 -5.874688e+000
      vertex  1.262634e+001  7.600000e+001 -5.874688e+000
      vertex  1.500000e+001  7.600000e+001 -3.413945e+001
    endloop
  endfacet
  facet normal  0.000000e+000 -1.000000e+000  0.000000e+000
    outer loop
      vertex  1.500000e+001  7.600000e+001 -3.413945e+001
      vertex  1.262634e+001  7.600000e+001 -5.874688e+000
      vertex  1.262634e+001  7.600000e+001 -3.413945e+001
    endloop
  endfacet
  facet normal  0.000000e+000  0.000000e+000  9.999999e-001
    outer loop
      vertex  1.500000e+001  5.900000e+001 -3.413945e+001
      vertex  1.500000e+001  7.600000e+001 -3.413945e+001
      vertex  1.262634e+001  5.900000e+001 -3.413945e+001
    endloop
  endfacet
  facet normal  0.000000e+000  0.000000e+000  9.999999e-001
    outer loop
      vertex  1.262634e+001  5.900000e+001 -3.413945e+001
      vertex  1.500000e+001  7.600000e+001 -3.413945e+001
      vertex  1.262634e+001  7.600000e+001 -3.413945e+001
    endloop
  endfacet
  facet normal  0.000000e+000  1.000000e+000  -0.000000e+000
    outer loop
      vertex  1.500000e+001  5.900000e+001 -5.874688e+000
      vertex  1.500000e+001  5.900000e+001 -3.413945e+001
      vertex  1.262634e+001  5.900000e+001 -5.874688e+000
    endloop
  endfacet
  facet normal  0.000000e+000  1.000000e+000  0.000000e+000
    outer loop
      vertex  1.262634e+001  5.900000e+001 -5.874688e+000
      vertex  1.500000e+001  5.900000e+001 -3.413945e+001
      vertex  1.262634e+001  5.900000e+001 -3.413945e+001
    endloop
  endfacet
  facet normal  0.000000e+000  0.000000e+000 -9.999999e-001
    outer loop
      vertex  1.500000e+001  5.900000e+001 -5.874688e+000
      vertex  1.262634e+001  5.900000e+001 -5.874688e+000
      vertex  1.500000e+001  7.600000e+001 -5.874688e+000
    endloop
  endfacet
  facet normal  -0.000000e+000  0.000000e+000 -9.999999e-001
    outer loop
      vertex  1.500000e+001  7.600000e+001 -5.874688e+000
      vertex  1.262634e+001  5.900000e+001 -5.874688e+000
      vertex  1.262634e+001  7.600000e+001 -5.874688e+000
    endloop
  endfacet
  facet normal  1.000000e+000  0.000000e+000  0.000000e+000
    outer loop
      vertex  1.500000e+001  8.000000e+001 -4.141883e+001
      vertex  1.500000e+001  7.600000e+001 -3.413945e+001
      vertex  1.500000e+001  5.500000e+001 -4.141883e+001
    endloop
  endfacet
  facet normal  9.999999e-001  0.000000e+000  0.000000e+000
    outer loop
      vertex  1.500000e+001  5.500000e+001 -4.141883e+001
      vertex  1.500000e+001  7.600000e+001 -3.413945e+001
      vertex  1.500000e+001  5.900000e+001 -3.413945e+001
    endloop
  endfacet
  facet normal  1.000000e+000  0.000000e+000  0.000000e+000
    outer loop
      vertex  1.500000e+001  5.500000e+001 -4.141883e+001
      vertex  1.500000e+001  5.900000e+001 -3.413945e+001
      vertex  1.500000e+001  5.500000e+001  3.000000e+000
    endloop
  endfacet
  facet normal  1.000000e+000  0.000000e+000  0.000000e+000
    outer loop
      vertex  1.500000e+001  5.500000e+001  3.000000e+000
      vertex  1.500000e+001  5.900000e+001 -3.413945e+001
      vertex  1.500000e+001  5.900000e+001 -5.874688e+000
    endloop
  endfacet
  facet normal  9.999999e-001  0.000000e+000  -0.000000e+000
    outer loop
      vertex  1.500000e+001  5.500000e+001  3.000000e+000
      vertex  1.500000e+001  5.900000e+001 -5.874688e+000
      vertex  1.500000e+001  8.000000e+001  3.000000e+000
    endloop
  endfacet
  facet normal  1.000000e+000  0.000000e+000  0.000000e+000
    outer loop
      vertex  1.500000e+001  8.000000e+001  3.000000e+000
      vertex  1.500000e+001  5.900000e+001 -5.874688e+000
      vertex  1.500000e+001  7.600000e+001 -5.874688e+000
    endloop
  endfacet
  facet normal  1.000000e+000  -0.000000e+000  0.000000e+000
    outer loop
      vertex  1.500000e+001  8.000000e+001  3.000000e+000
      vertex  1.500000e+001  7.600000e+001 -5.874688e+000
      vertex  1.500000e+001  8.000000e+001 -4.141883e+001
    endloop
  endfacet
  facet normal  1.000000e+000  0.000000e+000  0.000000e+000
    outer loop
      vertex  1.500000e+001  8.000000e+001 -4.141883e+001
      vertex  1.500000e+001  7.600000e+001 -5.874688e+000
      vertex  1.500000e+001  7.600000e+001 -3.413945e+001
    endloop
  endfacet
  facet normal -1.000000e+000  0.000000e+000  0.000000e+000
    outer loop
      vertex  1.262634e+001  8.000000e+001 -5.874688e+000
      vertex  1.262634e+001  8.000000e+001 -3.413945e+001
      vertex  1.262634e+001  7.600000e+001 -5.874688e+000
    endloop
  endfacet
  facet normal -1.000000e+000  0.000000e+000  0.000000e+000
    outer loop
      vertex  1.262634e+001  7.600000e+001 -5.874688e+000
      vertex  1.262634e+001  8.000000e+001 -3.413945e+001
      vertex  1.262634e+001  7.600000e+001 -3.413945e+001
    endloop
  endfacet
  facet normal -1.000000e+000  0.000000e+000  0.000000e+000
    outer loop
      vertex  1.262634e+001  5.900000e+001 -5.874688e+000
      vertex  1.262634e+001  5.900000e+001 -3.413945e+001
      vertex  1.262634e+001  5.500000e+001 -5.874688e+000
    endloop
  endfacet
  facet normal -1.000000e+000  0.000000e+000  0.000000e+000
    outer loop
      vertex  1.262634e+001  5.500000e+001 -5.874688e+000
      vertex  1.262634e+001  5.900000e+001 -3.413945e+001
      vertex  1.262634e+001  5.500000e+001 -3.413945e+001
    endloop
  endfacet
  facet normal  8.359807e-001  0.000000e+000 -5.487589e-001
    outer loop
      vertex  2.604945e+000  5.500000e+001 -2.114131e+001
      vertex  2.604945e+000  8.000000e+001 -2.114131e+001
      vertex  1.262634e+001  8.000000e+001 -5.874688e+000
    endloop
  endfacet
  facet normal  8.359806e-001  0.000000e+000 -5.487589e-001
    outer loop
      vertex  2.604945e+000  5.500000e+001 -2.114131e+001
      vertex  1.262634e+001  8.000000e+001 -5.874688e+000
      vertex  1.262634e+001  7.600000e+001 -5.874688e+000
    endloop
  endfacet
  facet normal  8.359807e-001  0.000000e+000 -5.487589e-001
    outer loop
      vertex  2.604945e+000  5.500000e+001 -2.114131e+001
      vertex  1.262634e+001  7.600000e+001 -5.874688e+000
      vertex  1.262634e+001  5.900000e+001 -5.874688e+000
    endloop
  endfacet
  facet normal  8.359806e-001  0.000000e+000 -5.487589e-001
    outer loop
      vertex  2.604945e+000  5.500000e+001 -2.114131e+001
      vertex  1.262634e+001  5.900000e+001 -5.874688e+000
      vertex  1.262634e+001  5.500000e+001 -5.874688e+000
    endloop
  endfacet
  facet normal  7.919515e-001  -0.000000e+000  6.105839e-001
    outer loop
      vertex  2.604945e+000  5.500000e+001 -2.114131e+001
      vertex  1.262634e+001  5.500000e+001 -3.413945e+001
      vertex  1.262634e+001  5.900000e+001 -3.413945e+001
    endloop
  endfacet
  facet normal  7.919516e-001  0.000000e+000  6.105839e-001
    outer loop
      vertex  1.262634e+001  5.900000e+001 -3.413945e+001
      vertex  1.262634e+001  7.600000e+001 -3.413945e+001
      vertex  2.604945e+000  5.500000e+001 -2.114131e+001
    endloop
  endfacet
  facet normal  7.919515e-001  0.000000e+000  6.105840e-001
    outer loop
      vertex  2.604945e+000  5.500000e+001 -2.114131e+001
      vertex  1.262634e+001  7.600000e+001 -3.413945e+001
      vertex  1.262634e+001  8.000000e+001 -3.413945e+001
    endloop
  endfacet
  facet normal  7.919515e-001  0.000000e+000  6.105838e-001
    outer loop
      vertex  2.604945e+000  5.500000e+001 -2.114131e+001
      vertex  1.262634e+001  8.000000e+001 -3.413945e+001
      vertex  2.604945e+000  8.000000e+001 -2.114131e+001
    endloop
  endfacet
  facet normal  0.000000e+000  0.000000e+000 -1.000000e+000
    outer loop
      vertex  1.262634e+001  8.000000e+001 -6.160377e-001
      vertex  1.262634e+001  5.500000e+001 -6.160377e-001
      vertex  2.248907e+000  8.000000e+001 -6.160377e-001
    endloop
  endfacet
  facet normal  0.000000e+000  0.000000e+000 -1.000000e+000
    outer loop
      vertex  2.248907e+000  8.000000e+001 -6.160377e-001
      vertex  1.262634e+001  5.500000e+001 -6.160377e-001
      vertex  2.248907e+000  5.500000e+001 -6.160377e-001
    endloop
  endfacet
  facet normal  0.000000e+000  0.000000e+000 -1.000000e+000
    outer loop
      vertex -2.248907e+000  8.000000e+001 -6.160377e-001
      vertex -2.248907e+000  5.500000e+001 -6.160377e-001
      vertex -1.241367e+001  8.000000e+001 -6.160377e-001
    endloop
  endfacet
  facet normal  0.000000e+000  0.000000e+000 -1.000000e+000
    outer loop
      vertex -1.241367e+001  8.000000e+001 -6.160377e-001
      vertex -2.248907e+000  5.500000e+001 -6.160377e-001
      vertex -1.241367e+001  5.500000e+001 -6.160377e-001
    endloop
  endfacet
  facet normal  -0.000000e+000 -1.000000e+000  0.000000e+000
    outer loop
      vertex -6.819367e-001  5.500000e+001  1.458020e+000
      vertex  8.427184e-017  5.500000e+001  1.563851e+000
      vertex -1.500000e+001  5.500000e+001  3.000000e+000
    endloop
  endfacet
  facet normal  -0.000000e+000 -9.999999e-001  0.000000e+000
    outer loop
      vertex  2.604945e+000  5.500000e+001 -2.114131e+001
      vertex  1.262634e+001  5.500000e+001 -5.874688e+000
      vertex  1.262634e+001  5.500000e+001 -6.160377e-001
    endloop
  endfacet
  facet normal  0.000000e+000 -1.000000e+000  0.000000e+000
    outer loop
      vertex  2.604945e+000  5.500000e+001 -2.114131e+001
      vertex  1.262634e+001  5.500000e+001 -6.160377e-001
      vertex  0.000000e+000  5.500000e+001 -1.985103e+001
    endloop
  endfacet
  facet normal  0.000000e+000 -9.999999e-001  -0.000000e+000
    outer loop
      vertex  2.604945e+000  5.500000e+001 -2.114131e+001
      vertex  0.000000e+000  5.500000e+001 -1.985103e+001
      vertex -2.604945e+000  5.500000e+001 -2.114131e+001
    endloop
  endfacet
  facet normal  0.000000e+000 -1.000000e+000  0.000000e+000
    outer loop
      vertex  2.604945e+000  5.500000e+001 -2.114131e+001
      vertex -2.604945e+000  5.500000e+001 -2.114131e+001
      vertex  0.000000e+000  5.500000e+001 -2.196324e+001
    endloop
  endfacet
  facet normal  0.000000e+000 -9.999999e-001  0.000000e+000
    outer loop
      vertex  2.604945e+000  5.500000e+001 -2.114131e+001
      vertex  0.000000e+000  5.500000e+001 -2.196324e+001
      vertex  1.241367e+001  5.500000e+001 -3.806426e+001
    endloop
  endfacet
  facet normal  0.000000e+000 -1.000000e+000  0.000000e+000
    outer loop
      vertex  2.604945e+000  5.500000e+001 -2.114131e+001
      vertex  1.241367e+001  5.500000e+001 -3.806426e+001
      vertex  1.262634e+001  5.500000e+001 -3.413945e+001
    endloop
  endfacet
  facet normal  0.000000e+000 -1.000000e+000  0.000000e+000
    outer loop
      vertex  1.241367e+001  5.500000e+001 -3.806426e+001
      vertex -7.533477e+000  5.500000e+001 -4.035550e+001
      vertex -3.770930e+000  5.500000e+001 -4.008892e+001
    endloop
  endfacet
  facet normal  0.000000e+000 -9.999999e-001  0.000000e+000
    outer loop
      vertex  1.241367e+001  5.500000e+001 -3.806426e+001
      vertex -3.770930e+000  5.500000e+001 -4.008892e+001
      vertex -2.266215e-014  5.500000e+001 -4.000000e+001
    endloop
  endfacet
  facet normal  0.000000e+000 -1.000000e+000  0.000000e+000
    outer loop
      vertex  1.241367e+001  5.500000e+001 -3.806426e+001
      vertex -2.266215e-014  5.500000e+001 -4.000000e+001
      vertex  3.770930e+000  5.500000e+001 -4.008892e+001
    endloop
  endfacet
  facet normal  0.000000e+000 -1.000000e+000  0.000000e+000
    outer loop
      vertex  1.241367e+001  5.500000e+001 -3.806426e+001
      vertex  3.770930e+000  5.500000e+001 -4.008892e+001
      vertex  7.533477e+000  5.500000e+001 -4.035550e+001
    endloop
  endfacet
  facet normal  0.000000e+000 -1.000000e+000  0.000000e+000
    outer loop
      vertex  1.241367e+001  5.500000e+001 -3.806426e+001
      vertex  7.533477e+000  5.500000e+001 -4.035550e+001
      vertex  1.127928e+001  5.500000e+001 -4.079913e+001
    endloop
  endfacet
  facet normal  0.000000e+000 -9.999999e-001  0.000000e+000
    outer loop
      vertex  1.241367e+001  5.500000e+001 -3.806426e+001
      vertex  1.127928e+001  5.500000e+001 -4.079913e+001
      vertex  1.500000e+001  5.500000e+001 -4.141883e+001
    endloop
  endfacet
  facet normal  0.000000e+000 -9.999999e-001  0.000000e+000
    outer loop
      vertex -1.241367e+001  5.500000e+001 -6.160377e-001
      vertex -2.248907e+000  5.500000e+001 -6.160377e-001
      vertex -2.121879e+000  5.500000e+001  6.227005e-002
    endloop
  endfacet
  facet normal  -0.000000e+000 -1.000000e+000  0.000000e+000
    outer loop
      vertex -1.241367e+001  5.500000e+001 -6.160377e-001
      vertex -2.121879e+000  5.500000e+001  6.227005e-002
      vertex -1.795241e+000  5.500000e+001  6.701728e-001
    endloop
  endfacet
  facet normal  -0.000000e+000 -1.000000e+000  0.000000e+000
    outer loop
      vertex -1.241367e+001  5.500000e+001 -6.160377e-001
      vertex -1.795241e+000  5.500000e+001  6.701728e-001
      vertex -1.299722e+000  5.500000e+001  1.150484e+000
    endloop
  endfacet
  facet normal  -0.000000e+000 -1.000000e+000  0.000000e+000
    outer loop
      vertex -1.241367e+001  5.500000e+001 -6.160377e-001
      vertex -1.299722e+000  5.500000e+001  1.150484e+000
      vertex -6.819367e-001  5.500000e+001  1.458020e+000
    endloop
  endfacet
  facet normal  -0.000000e+000 -1.000000e+000  0.000000e+000
    outer loop
      vertex -1.241367e+001  5.500000e+001 -6.160377e-001
      vertex -6.819367e-001  5.500000e+001  1.458020e+000
      vertex -1.500000e+001  5.500000e+001  3.000000e+000
    endloop
  endfacet
  facet normal  0.000000e+000 -1.000000e+000  0.000000e+000
    outer loop
      vertex -1.241367e+001  5.500000e+001 -6.160377e-001
      vertex -1.500000e+001  5.500000e+001  3.000000e+000
      vertex -1.500000e+001  5.500000e+001 -4.141883e+001
    endloop
  endfacet
  facet normal  0.000000e+000 -9.999999e-001  0.000000e+000
    outer loop
      vertex -1.241367e+001  5.500000e+001 -3.806426e+001
      vertex -1.500000e+001  5.500000e+001 -4.141883e+001
      vertex -1.127928e+001  5.500000e+001 -4.079913e+001
    endloop
  endfacet
  facet normal  0.000000e+000 -1.000000e+000  0.000000e+000
    outer loop
      vertex -1.241367e+001  5.500000e+001 -3.806426e+001
      vertex -1.127928e+001  5.500000e+001 -4.079913e+001
      vertex -7.533477e+000  5.500000e+001 -4.035550e+001
    endloop
  endfacet
  facet normal  0.000000e+000 -1.000000e+000  0.000000e+000
    outer loop
      vertex -1.241367e+001  5.500000e+001 -3.806426e+001
      vertex -7.533477e+000  5.500000e+001 -4.035550e+001
      vertex  1.241367e+001  5.500000e+001 -3.806426e+001
    endloop
  endfacet
  facet normal  0.000000e+000 -1.000000e+000  0.000000e+000
    outer loop
      vertex  1.500000e+001  5.500000e+001  3.000000e+000
      vertex -1.500000e+001  5.500000e+001  3.000000e+000
      vertex  8.427184e-017  5.500000e+001  1.563851e+000
    endloop
  endfacet
  facet normal  0.000000e+000 -1.000000e+000  0.000000e+000
    outer loop
      vertex  1.500000e+001  5.500000e+001  3.000000e+000
      vertex  8.427184e-017  5.500000e+001  1.563851e+000
      vertex  6.819367e-001  5.500000e+001  1.458020e+000
    endloop
  endfacet
  facet normal  0.000000e+000 -1.000000e+000  0.000000e+000
    outer loop
      vertex  1.500000e+001  5.500000e+001  3.000000e+000
      vertex  6.819367e-001  5.500000e+001  1.458020e+000
      vertex  1.299722e+000  5.500000e+001  1.150484e+000
    endloop
  endfacet
  facet normal  0.000000e+000 -1.000000e+000  0.000000e+000
    outer loop
      vertex  1.500000e+001  5.500000e+001  3.000000e+000
      vertex  1.299722e+000  5.500000e+001  1.150484e+000
      vertex  1.795241e+000  5.500000e+001  6.701728e-001
    endloop
  endfacet
  facet normal  0.000000e+000 -1.000000e+000  0.000000e+000
    outer loop
      vertex  1.500000e+001  5.500000e+001  3.000000e+000
      vertex  1.795241e+000  5.500000e+001  6.701728e-001
      vertex  2.121879e+000  5.500000e+001  6.227005e-002
    endloop
  endfacet
  facet normal  0.000000e+000 -1.000000e+000  0.000000e+000
    outer loop
      vertex  1.500000e+001  5.500000e+001  3.000000e+000
      vertex  2.121879e+000  5.500000e+001  6.227005e-002
      vertex  2.248907e+000  5.500000e+001 -6.160377e-001
    endloop
  endfacet
  facet normal  0.000000e+000 -1.000000e+000  0.000000e+000
    outer loop
      vertex  1.500000e+001  5.500000e+001  3.000000e+000
      vertex  2.248907e+000  5.500000e+001 -6.160377e-001
      vertex  1.262634e+001  5.500000e+001 -6.160377e-001
    endloop
  endfacet
  facet normal  0.000000e+000 -1.000000e+000  0.000000e+000
    outer loop
      vertex  1.500000e+001  5.500000e+001  3.000000e+000
      vertex  1.262634e+001  5.500000e+001 -6.160377e-001
      vertex  1.500000e+001  5.500000e+001 -4.141883e+001
    endloop
  endfacet
  facet normal  0.000000e+000 -9.999999e-001  0.000000e+000
    outer loop
      vertex  1.500000e+001  5.500000e+001 -4.141883e+001
      vertex  1.262634e+001  5.500000e+001 -6.160377e-001
      vertex  1.262634e+001  5.500000e+001 -5.874688e+000
    endloop
  endfacet
  facet normal  0.000000e+000 -1.000000e+000  0.000000e+000
    outer loop
      vertex  1.500000e+001  5.500000e+001 -4.141883e+001
      vertex  1.262634e+001  5.500000e+001 -5.874688e+000
      vertex  1.262634e+001  5.500000e+001 -3.413945e+001
    endloop
  endfacet
  facet normal  0.000000e+000 -9.999999e-001  -0.000000e+000
    outer loop
      vertex  1.500000e+001  5.500000e+001 -4.141883e+001
      vertex  1.262634e+001  5.500000e+001 -3.413945e+001
      vertex  1.241367e+001  5.500000e+001 -3.806426e+001
    endloop
  endfacet
  facet normal  -0.000000e+000 -9.999999e-001  0.000000e+000
    outer loop
      vertex -1.500000e+001  5.500000e+001 -4.141883e+001
      vertex -1.241367e+001  5.500000e+001 -3.806426e+001
      vertex -1.262634e+001  5.500000e+001 -3.413945e+001
    endloop
  endfacet
  facet normal  -0.000000e+000 -1.000000e+000  0.000000e+000
    outer loop
      vertex -1.500000e+001  5.500000e+001 -4.141883e+001
      vertex -1.262634e+001  5.500000e+001 -3.413945e+001
      vertex -1.262634e+001  5.500000e+001 -5.874688e+000
    endloop
  endfacet
  facet normal  -0.000000e+000 -1.000000e+000  0.000000e+000
    outer loop
      vertex -1.500000e+001  5.500000e+001 -4.141883e+001
      vertex -1.262634e+001  5.500000e+001 -5.874688e+000
      vertex -1.241367e+001  5.500000e+001 -6.160377e-001
    endloop
  endfacet
  facet normal  0.000000e+000 -1.000000e+000  0.000000e+000
    outer loop
      vertex -2.604945e+000  5.500000e+001 -2.114131e+001
      vertex -1.262634e+001  5.500000e+001 -3.413945e+001
      vertex  0.000000e+000  5.500000e+001 -2.196324e+001
    endloop
  endfacet
  facet normal  0.000000e+000 -1.000000e+000  0.000000e+000
    outer loop
      vertex  0.000000e+000  5.500000e+001 -2.196324e+001
      vertex -1.262634e+001  5.500000e+001 -3.413945e+001
      vertex -1.241367e+001  5.500000e+001 -3.806426e+001
    endloop
  endfacet
  facet normal  0.000000e+000 -1.000000e+000  0.000000e+000
    outer loop
      vertex -1.241367e+001  5.500000e+001 -6.160377e-001
      vertex -1.262634e+001  5.500000e+001 -5.874688e+000
      vertex  0.000000e+000  5.500000e+001 -1.985103e+001
    endloop
  endfacet
  facet normal  -0.000000e+000 -1.000000e+000  0.000000e+000
    outer loop
      vertex  0.000000e+000  5.500000e+001 -1.985103e+001
      vertex -1.262634e+001  5.500000e+001 -5.874688e+000
      vertex -2.604945e+000  5.500000e+001 -2.114131e+001
    endloop
  endfacet
  facet normal  0.000000e+000  1.000000e+000  0.000000e+000
    outer loop
      vertex -1.500000e+001  8.000000e+001  3.000000e+000
      vertex -1.377728e-016  8.000000e+001  1.563851e+000
      vertex -6.819367e-001  8.000000e+001  1.458020e+000
    endloop
  endfacet
  facet normal  0.000000e+000  1.000000e+000  0.000000e+000
    outer loop
      vertex  2.604945e+000  8.000000e+001 -2.114131e+001
      vertex  1.262634e+001  8.000000e+001 -3.413945e+001
      vertex  1.241367e+001  8.000000e+001 -3.806426e+001
    endloop
  endfacet
  facet normal  0.000000e+000  1.000000e+000  0.000000e+000
    outer loop
      vertex  2.604945e+000  8.000000e+001 -2.114131e+001
      vertex  1.241367e+001  8.000000e+001 -3.806426e+001
      vertex  0.000000e+000  8.000000e+001 -2.196324e+001
    endloop
  endfacet
  facet normal  0.000000e+000  1.000000e+000  -0.000000e+000
    outer loop
      vertex  2.604945e+000  8.000000e+001 -2.114131e+001
      vertex  0.000000e+000  8.000000e+001 -2.196324e+001
      vertex -2.604945e+000  8.000000e+001 -2.114131e+001
    endloop
  endfacet
  facet normal  0.000000e+000  9.999999e-001  0.000000e+000
    outer loop
      vertex  2.604945e+000  8.000000e+001 -2.114131e+001
      vertex -2.604945e+000  8.000000e+001 -2.114131e+001
      vertex  0.000000e+000  8.000000e+001 -1.985103e+001
    endloop
  endfacet
  facet normal  -0.000000e+000  1.000000e+000  0.000000e+000
    outer loop
      vertex  2.604945e+000  8.000000e+001 -2.114131e+001
      vertex  0.000000e+000  8.000000e+001 -1.985103e+001
      vertex  1.262634e+001  8.000000e+001 -6.160377e-001
    endloop
  endfacet
  facet normal  0.000000e+000  9.999999e-001  0.000000e+000
    outer loop
      vertex  2.604945e+000  8.000000e+001 -2.114131e+001
      vertex  1.262634e+001  8.000000e+001 -6.160377e-001
      vertex  1.262634e+001  8.000000e+001 -5.874688e+000
    endloop
  endfacet
  facet normal  0.000000e+000  9.999999e-001  0.000000e+000
    outer loop
      vertex  1.241367e+001  8.000000e+001 -3.806426e+001
      vertex  1.500000e+001  8.000000e+001 -4.141883e+001
      vertex  1.127928e+001  8.000000e+001 -4.079913e+001
    endloop
  endfacet
  facet normal  0.000000e+000  1.000000e+000  -0.000000e+000
    outer loop
      vertex  1.241367e+001  8.000000e+001 -3.806426e+001
      vertex  1.127928e+001  8.000000e+001 -4.079913e+001
      vertex  7.533477e+000  8.000000e+001 -4.035550e+001
    endloop
  endfacet
  facet normal  0.000000e+000  1.000000e+000  -0.000000e+000
    outer loop
      vertex  1.241367e+001  8.000000e+001 -3.806426e+001
      vertex  7.533477e+000  8.000000e+001 -4.035550e+001
      vertex  3.770930e+000  8.000000e+001 -4.008892e+001
    endloop
  endfacet
  facet normal  0.000000e+000  1.000000e+000  -0.000000e+000
    outer loop
      vertex  1.241367e+001  8.000000e+001 -3.806426e+001
      vertex  3.770930e+000  8.000000e+001 -4.008892e+001
      vertex -2.266215e-014  8.000000e+001 -4.000000e+001
    endloop
  endfacet
  facet normal  0.000000e+000  9.999999e-001  -0.000000e+000
    outer loop
      vertex  1.241367e+001  8.000000e+001 -3.806426e+001
      vertex -2.266215e-014  8.000000e+001 -4.000000e+001
      vertex -3.770930e+000  8.000000e+001 -4.008892e+001
    endloop
  endfacet
  facet normal  0.000000e+000  1.000000e+000  -0.000000e+000
    outer loop
      vertex  1.241367e+001  8.000000e+001 -3.806426e+001
      vertex -3.770930e+000  8.000000e+001 -4.008892e+001
      vertex -7.533477e+000  8.000000e+001 -4.035550e+001
    endloop
  endfacet
  facet normal  0.000000e+000  1.000000e+000  0.000000e+000
    outer loop
      vertex -1.241367e+001  8.000000e+001 -6.160377e-001
      vertex -1.500000e+001  8.000000e+001 -4.141883e+001
      vertex -1.500000e+001  8.000000e+001  3.000000e+000
    endloop
  endfacet
  facet normal  0.000000e+000  1.000000e+000  0.000000e+000
    outer loop
      vertex -1.241367e+001  8.000000e+001 -6.160377e-001
      vertex -1.500000e+001  8.000000e+001  3.000000e+000
      vertex -6.819367e-001  8.000000e+001  1.458020e+000
    endloop
  endfacet
  facet normal  0.000000e+000  1.000000e+000  0.000000e+000
    outer loop
      vertex -1.241367e+001  8.000000e+001 -6.160377e-001
      vertex -6.819367e-001  8.000000e+001  1.458020e+000
      vertex -1.299722e+000  8.000000e+001  1.150484e+000
    endloop
  endfacet
  facet normal  0.000000e+000  1.000000e+000  0.000000e+000
    outer loop
      vertex -1.241367e+001  8.000000e+001 -6.160377e-001
      vertex -1.299722e+000  8.000000e+001  1.150484e+000
      vertex -1.795241e+000  8.000000e+001  6.701728e-001
    endloop
  endfacet
  facet normal  0.000000e+000  1.000000e+000  0.000000e+000
    outer loop
      vertex -1.241367e+001  8.000000e+001 -6.160377e-001
      vertex -1.795241e+000  8.000000e+001  6.701728e-001
      vertex -2.121879e+000  8.000000e+001  6.227005e-002
    endloop
  endfacet
  facet normal  0.000000e+000  9.999999e-001  0.000000e+000
    outer loop
      vertex -1.241367e+001  8.000000e+001 -6.160377e-001
      vertex -2.121879e+000  8.000000e+001  6.227005e-002
      vertex -2.248907e+000  8.000000e+001 -6.160377e-001
    endloop
  endfacet
  facet normal  0.000000e+000  1.000000e+000  0.000000e+000
    outer loop
      vertex -1.241367e+001  8.000000e+001 -3.806426e+001
      vertex  1.241367e+001  8.000000e+001 -3.806426e+001
      vertex -7.533477e+000  8.000000e+001 -4.035550e+001
    endloop
  endfacet
  facet normal  0.000000e+000  1.000000e+000  0.000000e+000
    outer loop
      vertex -1.241367e+001  8.000000e+001 -3.806426e+001
      vertex -7.533477e+000  8.000000e+001 -4.035550e+001
      vertex -1.127928e+001  8.000000e+001 -4.079913e+001
    endloop
  endfacet
  facet normal  0.000000e+000  9.999999e-001  0.000000e+000
    outer loop
      vertex -1.241367e+001  8.000000e+001 -3.806426e+001
      vertex -1.127928e+001  8.000000e+001 -4.079913e+001
      vertex -1.500000e+001  8.000000e+001 -4.141883e+001
    endloop
  endfacet
  facet normal  0.000000e+000  1.000000e+000  -0.000000e+000
    outer loop
      vertex  1.500000e+001  8.000000e+001  3.000000e+000
      vertex  1.500000e+001  8.000000e+001 -4.141883e+001
      vertex  1.262634e+001  8.000000e+001 -6.160377e-001
    endloop
  endfacet
  facet normal  0.000000e+000  1.000000e+000  -0.000000e+000
    outer loop
      vertex  1.500000e+001  8.000000e+001  3.000000e+000
      vertex  1.262634e+001  8.000000e+001 -6.160377e-001
      vertex  2.248907e+000  8.000000e+001 -6.160377e-001
    endloop
  endfacet
  facet normal  0.000000e+000  1.000000e+000  -0.000000e+000
    outer loop
      vertex  1.500000e+001  8.000000e+001  3.000000e+000
      vertex  2.248907e+000  8.000000e+001 -6.160377e-001
      vertex  2.121879e+000  8.000000e+001  6.227005e-002
    endloop
  endfacet
  facet normal  0.000000e+000  1.000000e+000  -0.000000e+000
    outer loop
      vertex  1.500000e+001  8.000000e+001  3.000000e+000
      vertex  2.121879e+000  8.000000e+001  6.227005e-002
      vertex  1.795241e+000  8.000000e+001  6.701728e-001
    endloop
  endfacet
  facet normal  0.000000e+000  1.000000e+000  -0.000000e+000
    outer loop
      vertex  1.500000e+001  8.000000e+001  3.000000e+000
      vertex  1.795241e+000  8.000000e+001  6.701728e-001
      vertex  1.299722e+000  8.000000e+001  1.150484e+000
    endloop
  endfacet
  facet normal  0.000000e+000  1.000000e+000  -0.000000e+000
    outer loop
      vertex  1.500000e+001  8.000000e+001  3.000000e+000
      vertex  1.299722e+000  8.000000e+001  1.150484e+000
      vertex  6.819367e-001  8.000000e+001  1.458020e+000
    endloop
  endfacet
  facet normal  0.000000e+000  1.000000e+000  -0.000000e+000
    outer loop
      vertex  1.500000e+001  8.000000e+001  3.000000e+000
      vertex  6.819367e-001  8.000000e+001  1.458020e+000
      vertex -1.377728e-016  8.000000e+001  1.563851e+000
    endloop
  endfacet
  facet normal  0.000000e+000  1.000000e+000  -0.000000e+000
    outer loop
      vertex  1.500000e+001  8.000000e+001  3.000000e+000
      vertex -1.377728e-016  8.000000e+001  1.563851e+000
      vertex -1.500000e+001  8.000000e+001  3.000000e+000
    endloop
  endfacet
  facet normal  -0.000000e+000  9.999999e-001  0.000000e+000
    outer loop
      vertex  1.500000e+001  8.000000e+001 -4.141883e+001
      vertex  1.241367e+001  8.000000e+001 -3.806426e+001
      vertex  1.262634e+001  8.000000e+001 -3.413945e+001
    endloop
  endfacet
  facet normal  -0.000000e+000  1.000000e+000  0.000000e+000
    outer loop
      vertex  1.500000e+001  8.000000e+001 -4.141883e+001
      vertex  1.262634e+001  8.000000e+001 -3.413945e+001
      vertex  1.262634e+001  8.000000e+001 -5.874688e+000
    endloop
  endfacet
  facet normal  -0.000000e+000  9.999999e-001  0.000000e+000
    outer loop
      vertex  1.500000e+001  8.000000e+001 -4.141883e+001
      vertex  1.262634e+001  8.000000e+001 -5.874688e+000
      vertex  1.262634e+001  8.000000e+001 -6.160377e-001
    endloop
  endfacet
  facet normal  0.000000e+000  1.000000e+000  0.000000e+000
    outer loop
      vertex -1.500000e+001  8.000000e+001 -4.141883e+001
      vertex -1.241367e+001  8.000000e+001 -6.160377e-001
      vertex -1.262634e+001  8.000000e+001 -5.874688e+000
    endloop
  endfacet
  facet normal  0.000000e+000  1.000000e+000  0.000000e+000
    outer loop
      vertex -1.500000e+001  8.000000e+001 -4.141883e+001
      vertex -1.262634e+001  8.000000e+001 -5.874688e+000
      vertex -1.262634e+001  8.000000e+001 -3.413945e+001
    endloop
  endfacet
  facet normal  0.000000e+000  9.999999e-001  0.000000e+000
    outer loop
      vertex -1.500000e+001  8.000000e+001 -4.141883e+001
      vertex -1.262634e+001  8.000000e+001 -3.413945e+001
      vertex -1.241367e+001  8.000000e+001 -3.806426e+001
    endloop
  endfacet
  facet normal  0.000000e+000  1.000000e+000  0.000000e+000
    outer loop
      vertex -2.604945e+000  8.000000e+001 -2.114131e+001
      vertex  0.000000e+000  8.000000e+001 -2.196324e+001
      vertex -1.262634e+001  8.000000e+001 -3.413945e+001
    endloop
  endfacet
  facet normal  -0.000000e+000  1.000000e+000  0.000000e+000
    outer loop
      vertex -1.262634e+001  8.000000e+001 -3.413945e+001
      vertex  0.000000e+000  8.000000e+001 -2.196324e+001
      vertex -1.241367e+001  8.000000e+001 -3.806426e+001
    endloop
  endfacet
  facet normal  0.000000e+000  1.000000e+000  0.000000e+000
    outer loop
      vertex -1.241367e+001  8.000000e+001 -6.160377e-001
      vertex  0.000000e+000  8.000000e+001 -1.985103e+001
      vertex -1.262634e+001  8.000000e+001 -5.874688e+000
    endloop
  endfacet
  facet normal  0.000000e+000  1.000000e+000  0.000000e+000
    outer loop
      vertex -1.262634e+001  8.000000e+001 -5.874688e+000
      vertex  0.000000e+000  8.000000e+001 -1.985103e+001
      vertex -2.604945e+000  8.000000e+001 -2.114131e+001
    endloop
  endfacet
  facet normal -1.533554e-001  -0.000000e+000 -9.881710e-001
    outer loop
      vertex  8.427184e-017  5.500000e+001  1.563851e+000
      vertex  6.819367e-001  8.000000e+001  1.458020e+000
      vertex  6.819367e-001  5.500000e+001  1.458020e+000
    endloop
  endfacet
  facet normal -4.456401e-001  0.000000e+000 -8.952122e-001
    outer loop
      vertex  6.819367e-001  5.500000e+001  1.458020e+000
      vertex  6.819367e-001  8.000000e+001  1.458020e+000
      vertex  1.299722e+000  8.000000e+001  1.150484e+000
    endloop
  endfacet
  facet normal -4.456401e-001  -0.000000e+000 -8.952122e-001
    outer loop
      vertex  6.819367e-001  5.500000e+001  1.458020e+000
      vertex  1.299722e+000  8.000000e+001  1.150484e+000
      vertex  1.299722e+000  5.500000e+001  1.150484e+000
    endloop
  endfacet
  facet normal -6.960027e-001  0.000000e+000 -7.180392e-001
    outer loop
      vertex  1.299722e+000  5.500000e+001  1.150484e+000
      vertex  1.299722e+000  8.000000e+001  1.150484e+000
      vertex  1.795241e+000  8.000000e+001  6.701728e-001
    endloop
  endfacet
  facet normal -6.960027e-001  -0.000000e+000 -7.180392e-001
    outer loop
      vertex  1.299722e+000  5.500000e+001  1.150484e+000
      vertex  1.795241e+000  8.000000e+001  6.701728e-001
      vertex  1.795241e+000  5.500000e+001  6.701728e-001
    endloop
  endfacet
  facet normal -8.808910e-001  0.000000e+000 -4.733192e-001
    outer loop
      vertex  1.795241e+000  5.500000e+001  6.701728e-001
      vertex  1.795241e+000  8.000000e+001  6.701728e-001
      vertex  2.121879e+000  8.000000e+001  6.227005e-002
    endloop
  endfacet
  facet normal -8.808910e-001  -0.000000e+000 -4.733192e-001
    outer loop
      vertex  1.795241e+000  5.500000e+001  6.701728e-001
      vertex  2.121879e+000  8.000000e+001  6.227005e-002
      vertex  2.121879e+000  5.500000e+001  6.227005e-002
    endloop
  endfacet
  facet normal -9.829126e-001  0.000000e+000 -1.840729e-001
    outer loop
      vertex  2.121879e+000  5.500000e+001  6.227005e-002
      vertex  2.121879e+000  8.000000e+001  6.227005e-002
      vertex  2.248907e+000  8.000000e+001 -6.160377e-001
    endloop
  endfacet
  facet normal -9.829126e-001  -0.000000e+000 -1.840729e-001
    outer loop
      vertex  2.121879e+000  5.500000e+001  6.227005e-002
      vertex  2.248907e+000  8.000000e+001 -6.160377e-001
      vertex  2.248907e+000  5.500000e+001 -6.160377e-001
    endloop
  endfacet
  facet normal -1.533554e-001 -1.362070e-018 -9.881710e-001
    outer loop
      vertex  6.819367e-001  8.000000e+001  1.458020e+000
      vertex  8.427184e-017  5.500000e+001  1.563851e+000
      vertex -1.377728e-016  8.000000e+001  1.563851e+000
    endloop
  endfacet
  facet normal  1.533554e-001  1.362070e-018 -9.881710e-001
    outer loop
      vertex -1.377728e-016  8.000000e+001  1.563851e+000
      vertex  8.427184e-017  5.500000e+001  1.563851e+000
      vertex -6.819367e-001  5.500000e+001  1.458020e+000
    endloop
  endfacet
  facet normal  1.533554e-001  0.000000e+000 -9.881710e-001
    outer loop
      vertex -1.377728e-016  8.000000e+001  1.563851e+000
      vertex -6.819367e-001  5.500000e+001  1.458020e+000
      vertex -6.819367e-001  8.000000e+001  1.458020e+000
    endloop
  endfacet
  facet normal  4.456401e-001  0.000000e+000 -8.952122e-001
    outer loop
      vertex -6.819367e-001  8.000000e+001  1.458020e+000
      vertex -6.819367e-001  5.500000e+001  1.458020e+000
      vertex -1.299722e+000  5.500000e+001  1.150484e+000
    endloop
  endfacet
  facet normal  4.456401e-001  0.000000e+000 -8.952122e-001
    outer loop
      vertex -6.819367e-001  8.000000e+001  1.458020e+000
      vertex -1.299722e+000  5.500000e+001  1.150484e+000
      vertex -1.299722e+000  8.000000e+001  1.150484e+000
    endloop
  endfacet
  facet normal  6.960027e-001  0.000000e+000 -7.180392e-001
    outer loop
      vertex -1.299722e+000  8.000000e+001  1.150484e+000
      vertex -1.299722e+000  5.500000e+001  1.150484e+000
      vertex -1.795241e+000  5.500000e+001  6.701728e-001
    endloop
  endfacet
  facet normal  6.960027e-001  0.000000e+000 -7.180392e-001
    outer loop
      vertex -1.299722e+000  8.000000e+001  1.150484e+000
      vertex -1.795241e+000  5.500000e+001  6.701728e-001
      vertex -1.795241e+000  8.000000e+001  6.701728e-001
    endloop
  endfacet
  facet normal  8.808910e-001  0.000000e+000 -4.733192e-001
    outer loop
      vertex -1.795241e+000  8.000000e+001  6.701728e-001
      vertex -1.795241e+000  5.500000e+001  6.701728e-001
      vertex -2.121879e+000  5.500000e+001  6.227005e-002
    endloop
  endfacet
  facet normal  8.808910e-001  0.000000e+000 -4.733192e-001
    outer loop
      vertex -1.795241e+000  8.000000e+001  6.701728e-001
      vertex -2.121879e+000  5.500000e+001  6.227005e-002
      vertex -2.121879e+000  8.000000e+001  6.227005e-002
    endloop
  endfacet
  facet normal  9.829126e-001  0.000000e+000 -1.840729e-001
    outer loop
      vertex -2.121879e+000  8.000000e+001  6.227005e-002
      vertex -2.121879e+000  5.500000e+001  6.227005e-002
      vertex -2.248907e+000  5.500000e+001 -6.160377e-001
    endloop
  endfacet
  facet normal  9.829126e-001  0.000000e+000 -1.840729e-001
    outer loop
      vertex -2.121879e+000  8.000000e+001  6.227005e-002
      vertex -2.248907e+000  5.500000e+001 -6.160377e-001
      vertex -2.248907e+000  8.000000e+001 -6.160377e-001
    endloop
  endfacet
  facet normal -7.919515e-001  -0.000000e+000 -6.105840e-001
    outer loop
      vertex  0.000000e+000  5.500000e+001 -2.196324e+001
      vertex  0.000000e+000  8.000000e+001 -2.196324e+001
      vertex  1.241367e+001  5.500000e+001 -3.806426e+001
    endloop
  endfacet
  facet normal -7.919515e-001  0.000000e+000 -6.105840e-001
    outer loop
      vertex  1.241367e+001  5.500000e+001 -3.806426e+001
      vertex  0.000000e+000  8.000000e+001 -2.196324e+001
      vertex  1.241367e+001  8.000000e+001 -3.806426e+001
    endloop
  endfacet
  facet normal  7.919515e-001  0.000000e+000 -6.105840e-001
    outer loop
      vertex  0.000000e+000  5.500000e+001 -2.196324e+001
      vertex -1.241367e+001  5.500000e+001 -3.806426e+001
      vertex  0.000000e+000  8.000000e+001 -2.196324e+001
    endloop
  endfacet
  facet normal  7.919515e-001  0.000000e+000 -6.105840e-001
    outer loop
      vertex  0.000000e+000  8.000000e+001 -2.196324e+001
      vertex -1.241367e+001  5.500000e+001 -3.806426e+001
      vertex -1.241367e+001  8.000000e+001 -3.806426e+001
    endloop
  endfacet
  facet normal  8.402171e-001  0.000000e+000  5.422502e-001
    outer loop
      vertex  0.000000e+000  5.500000e+001 -1.985103e+001
      vertex  0.000000e+000  8.000000e+001 -1.985103e+001
      vertex -1.241367e+001  5.500000e+001 -6.160377e-001
    endloop
  endfacet
  facet normal  8.402171e-001  -0.000000e+000  5.422502e-001
    outer loop
      vertex -1.241367e+001  5.500000e+001 -6.160377e-001
      vertex  0.000000e+000  8.000000e+001 -1.985103e+001
      vertex -1.241367e+001  8.000000e+001 -6.160377e-001
    endloop
  endfacet
  facet normal -8.359807e-001  0.000000e+000  5.487589e-001
    outer loop
      vertex  0.000000e+000  5.500000e+001 -1.985103e+001
      vertex  1.262634e+001  5.500000e+001 -6.160377e-001
      vertex  0.000000e+000  8.000000e+001 -1.985103e+001
    endloop
  endfacet
  facet normal -8.359807e-001  0.000000e+000  5.487589e-001
    outer loop
      vertex  0.000000e+000  8.000000e+001 -1.985103e+001
      vertex  1.262634e+001  5.500000e+001 -6.160377e-001
      vertex  1.262634e+001  8.000000e+001 -6.160377e-001
    endloop
  endfacet
  facet normal  0.000000e+000  0.000000e+000  1.000000e+000
    outer loop
      vertex -1.500000e+001  8.000000e+001  3.000000e+000
      vertex -1.500000e+001  5.500000e+001  3.000000e+000
      vertex  1.500000e+001  8.000000e+001  3.000000e+000
    endloop
  endfacet
  facet normal  0.000000e+000  0.000000e+000  1.000000e+000
    outer loop
      vertex  1.500000e+001  8.000000e+001  3.000000e+000
      vertex -1.500000e+001  5.500000e+001  3.000000e+000
      vertex  1.500000e+001  5.500000e+001  3.000000e+000
    endloop
  endfacet
endsolid CATIA STL
