solid CATIA STL
  facet normal  3.032762e-017 -1.617231e-016  1.000000e+000
    outer loop
      vertex  1.500000e+001 -4.000000e+000  0.000000e+000
      vertex  0.000000e+000 -4.000000e+000  4.549143e-016
      vertex  9.657977e+000 -5.001779e+000  0.000000e+000
    endloop
  endfacet
  facet normal  0.000000e+000  0.000000e+000  1.000000e+000
    outer loop
      vertex  1.500000e+001 -4.000000e+000  0.000000e+000
      vertex  9.657977e+000 -5.001779e+000  0.000000e+000
      vertex  1.017892e+001 -5.001779e+000  0.000000e+000
    endloop
  endfacet
  facet normal  -0.000000e+000  0.000000e+000  9.999999e-001
    outer loop
      vertex  1.500000e+001 -4.000000e+000  0.000000e+000
      vertex  1.017892e+001 -5.001779e+000  0.000000e+000
      vertex  1.066845e+001 -5.179953e+000  0.000000e+000
    endloop
  endfacet
  facet normal  -0.000000e+000  0.000000e+000  1.000000e+000
    outer loop
      vertex  1.500000e+001 -4.000000e+000  0.000000e+000
      vertex  1.066845e+001 -5.179953e+000  0.000000e+000
      vertex  1.106752e+001 -5.514809e+000  0.000000e+000
    endloop
  endfacet
  facet normal  -0.000000e+000  0.000000e+000  1.000000e+000
    outer loop
      vertex  1.500000e+001 -4.000000e+000  0.000000e+000
      vertex  1.106752e+001 -5.514809e+000  0.000000e+000
      vertex  1.132799e+001 -5.965961e+000  0.000000e+000
    endloop
  endfacet
  facet normal  -0.000000e+000  0.000000e+000  9.999999e-001
    outer loop
      vertex  1.500000e+001 -4.000000e+000  0.000000e+000
      vertex  1.132799e+001 -5.965961e+000  0.000000e+000
      vertex  1.500000e+001 -1.400000e+001  0.000000e+000
    endloop
  endfacet
  facet normal  0.000000e+000  0.000000e+000  1.000000e+000
    outer loop
      vertex  0.000000e+000 -1.400000e+001  0.000000e+000
      vertex  1.500000e+001 -1.400000e+001  0.000000e+000
      vertex  1.017892e+001 -7.956202e+000  0.000000e+000
    endloop
  endfacet
  facet normal  0.000000e+000  0.000000e+000  1.000000e+000
    outer loop
      vertex  0.000000e+000 -1.400000e+001  0.000000e+000
      vertex  1.017892e+001 -7.956202e+000  0.000000e+000
      vertex  9.657977e+000 -7.956202e+000  0.000000e+000
    endloop
  endfacet
  facet normal  0.000000e+000  0.000000e+000  1.000000e+000
    outer loop
      vertex  0.000000e+000 -1.400000e+001  0.000000e+000
      vertex  9.657977e+000 -7.956202e+000  0.000000e+000
      vertex  9.168449e+000 -7.778028e+000  0.000000e+000
    endloop
  endfacet
  facet normal  0.000000e+000  0.000000e+000  1.000000e+000
    outer loop
      vertex  0.000000e+000 -1.400000e+001  0.000000e+000
      vertex  9.168449e+000 -7.778028e+000  0.000000e+000
      vertex  8.769382e+000 -7.443172e+000  0.000000e+000
    endloop
  endfacet
  facet normal  0.000000e+000  0.000000e+000  1.000000e+000
    outer loop
      vertex  0.000000e+000 -1.400000e+001  0.000000e+000
      vertex  8.769382e+000 -7.443172e+000  0.000000e+000
      vertex  8.508910e+000 -6.992021e+000  0.000000e+000
    endloop
  endfacet
  facet normal  0.000000e+000  0.000000e+000  1.000000e+000
    outer loop
      vertex  0.000000e+000 -1.400000e+001  0.000000e+000
      vertex  8.508910e+000 -6.992021e+000  0.000000e+000
      vertex  8.418449e+000 -6.478991e+000  0.000000e+000
    endloop
  endfacet
  facet normal  0.000000e+000  -0.000000e+000  1.000000e+000
    outer loop
      vertex  0.000000e+000 -1.400000e+001  0.000000e+000
      vertex  8.418449e+000 -6.478991e+000  0.000000e+000
      vertex  8.508910e+000 -5.965961e+000  0.000000e+000
    endloop
  endfacet
  facet normal  0.000000e+000  -0.000000e+000  1.000000e+000
    outer loop
      vertex  0.000000e+000 -1.400000e+001  0.000000e+000
      vertex  8.508910e+000 -5.965961e+000  0.000000e+000
      vertex  8.769382e+000 -5.514809e+000  0.000000e+000
    endloop
  endfacet
  facet normal  4.401718e-017 -4.549143e-017  9.999999e-001
    outer loop
      vertex  0.000000e+000 -4.000000e+000  4.549143e-016
      vertex  0.000000e+000 -1.400000e+001  0.000000e+000
      vertex  8.769382e+000 -5.514809e+000  0.000000e+000
    endloop
  endfacet
  facet normal  4.301926e-017 -5.126843e-017  9.999999e-001
    outer loop
      vertex  0.000000e+000 -4.000000e+000  4.549143e-016
      vertex  8.769382e+000 -5.514809e+000  0.000000e+000
      vertex  9.168449e+000 -5.179953e+000  0.000000e+000
    endloop
  endfacet
  facet normal  3.665607e-017 -1.007117e-016  1.000000e+000
    outer loop
      vertex  0.000000e+000 -4.000000e+000  4.549143e-016
      vertex  9.168449e+000 -5.179953e+000  0.000000e+000
      vertex  9.657977e+000 -5.001779e+000  0.000000e+000
    endloop
  endfacet
  facet normal  0.000000e+000  0.000000e+000  9.999999e-001
    outer loop
      vertex  1.500000e+001 -1.400000e+001  0.000000e+000
      vertex  1.132799e+001 -5.965961e+000  0.000000e+000
      vertex  1.141845e+001 -6.478991e+000  0.000000e+000
    endloop
  endfacet
  facet normal  0.000000e+000  0.000000e+000  1.000000e+000
    outer loop
      vertex  1.500000e+001 -1.400000e+001  0.000000e+000
      vertex  1.141845e+001 -6.478991e+000  0.000000e+000
      vertex  1.132799e+001 -6.992021e+000  0.000000e+000
    endloop
  endfacet
  facet normal  0.000000e+000  0.000000e+000  9.999999e-001
    outer loop
      vertex  1.500000e+001 -1.400000e+001  0.000000e+000
      vertex  1.132799e+001 -6.992021e+000  0.000000e+000
      vertex  1.106752e+001 -7.443172e+000  0.000000e+000
    endloop
  endfacet
  facet normal  0.000000e+000  0.000000e+000  1.000000e+000
    outer loop
      vertex  1.500000e+001 -1.400000e+001  0.000000e+000
      vertex  1.106752e+001 -7.443172e+000  0.000000e+000
      vertex  1.066845e+001 -7.778028e+000  0.000000e+000
    endloop
  endfacet
  facet normal  0.000000e+000  0.000000e+000  9.999999e-001
    outer loop
      vertex  1.500000e+001 -1.400000e+001  0.000000e+000
      vertex  1.066845e+001 -7.778028e+000  0.000000e+000
      vertex  1.017892e+001 -7.956202e+000  0.000000e+000
    endloop
  endfacet
  facet normal  1.905389e-016  2.093962e-016  1.000000e+000
    outer loop
      vertex  0.000000e+000  1.400000e+001  4.440892e-016
      vertex  0.000000e+000  4.000000e+000  2.538051e-015
      vertex  9.168449e+000  7.778028e+000  0.000000e+000
    endloop
  endfacet
  facet normal  1.690920e-017 -4.645764e-017  1.000000e+000
    outer loop
      vertex  0.000000e+000  1.400000e+001  4.440892e-016
      vertex  9.168449e+000  7.778028e+000  0.000000e+000
      vertex  9.657977e+000  7.956202e+000  0.000000e+000
    endloop
  endfacet
  facet normal  0.000000e+000 -7.347850e-017  1.000000e+000
    outer loop
      vertex  0.000000e+000  1.400000e+001  4.440892e-016
      vertex  9.657977e+000  7.956202e+000  0.000000e+000
      vertex  1.017892e+001  7.956202e+000  0.000000e+000
    endloop
  endfacet
  facet normal  0.000000e+000 -7.347851e-017  1.000000e+000
    outer loop
      vertex  0.000000e+000  1.400000e+001  4.440892e-016
      vertex  1.017892e+001  7.956202e+000  0.000000e+000
      vertex  1.500000e+001  1.400000e+001  4.440892e-016
    endloop
  endfacet
  facet normal  1.692034e-016  8.142942e-016  1.000000e+000
    outer loop
      vertex  0.000000e+000  4.000000e+000  2.538051e-015
      vertex  1.500000e+001  4.000000e+000  0.000000e+000
      vertex  1.017892e+001  5.001779e+000  0.000000e+000
    endloop
  endfacet
  facet normal  0.000000e+000  2.533544e-015  1.000000e+000
    outer loop
      vertex  0.000000e+000  4.000000e+000  2.538051e-015
      vertex  1.017892e+001  5.001779e+000  0.000000e+000
      vertex  9.657977e+000  5.001779e+000  0.000000e+000
    endloop
  endfacet
  facet normal  2.045110e-016  5.618892e-016  1.000000e+000
    outer loop
      vertex  0.000000e+000  4.000000e+000  2.538051e-015
      vertex  9.657977e+000  5.001779e+000  0.000000e+000
      vertex  9.168449e+000  5.179953e+000  0.000000e+000
    endloop
  endfacet
  facet normal  2.400125e-016  2.860360e-016  9.999999e-001
    outer loop
      vertex  0.000000e+000  4.000000e+000  2.538051e-015
      vertex  9.168449e+000  5.179953e+000  0.000000e+000
      vertex  8.769382e+000  5.514809e+000  0.000000e+000
    endloop
  endfacet
  facet normal  2.631753e-016  1.519443e-016  1.000000e+000
    outer loop
      vertex  0.000000e+000  4.000000e+000  2.538051e-015
      vertex  8.769382e+000  5.514809e+000  0.000000e+000
      vertex  8.508910e+000  5.965961e+000  0.000000e+000
    endloop
  endfacet
  facet normal  2.866054e-016  5.053611e-017  1.000000e+000
    outer loop
      vertex  0.000000e+000  4.000000e+000  2.538051e-015
      vertex  8.508910e+000  5.965961e+000  0.000000e+000
      vertex  8.418449e+000  6.478991e+000  0.000000e+000
    endloop
  endfacet
  facet normal  3.179982e-016 -5.607150e-017  1.000000e+000
    outer loop
      vertex  0.000000e+000  4.000000e+000  2.538051e-015
      vertex  8.418449e+000  6.478991e+000  0.000000e+000
      vertex  8.508910e+000  6.992021e+000  0.000000e+000
    endloop
  endfacet
  facet normal  3.742629e-016 -2.160807e-016  1.000000e+000
    outer loop
      vertex  0.000000e+000  4.000000e+000  2.538051e-015
      vertex  8.508910e+000  6.992021e+000  0.000000e+000
      vertex  8.769382e+000  7.443172e+000  0.000000e+000
    endloop
  endfacet
  facet normal  5.439499e-016 -6.482550e-016  1.000000e+000
    outer loop
      vertex  0.000000e+000  4.000000e+000  2.538051e-015
      vertex  8.769382e+000  7.443172e+000  0.000000e+000
      vertex  9.168449e+000  7.778028e+000  0.000000e+000
    endloop
  endfacet
  facet normal  0.000000e+000  0.000000e+000  9.999999e-001
    outer loop
      vertex  1.500000e+001  4.000000e+000  0.000000e+000
      vertex  1.106752e+001  7.443172e+000  0.000000e+000
      vertex  1.132799e+001  6.992021e+000  0.000000e+000
    endloop
  endfacet
  facet normal  0.000000e+000  0.000000e+000  1.000000e+000
    outer loop
      vertex  1.500000e+001  4.000000e+000  0.000000e+000
      vertex  1.132799e+001  6.992021e+000  0.000000e+000
      vertex  1.141845e+001  6.478991e+000  0.000000e+000
    endloop
  endfacet
  facet normal  0.000000e+000  0.000000e+000  1.000000e+000
    outer loop
      vertex  1.500000e+001  4.000000e+000  0.000000e+000
      vertex  1.141845e+001  6.478991e+000  0.000000e+000
      vertex  1.132799e+001  5.965961e+000  0.000000e+000
    endloop
  endfacet
  facet normal  0.000000e+000  0.000000e+000  1.000000e+000
    outer loop
      vertex  1.500000e+001  4.000000e+000  0.000000e+000
      vertex  1.132799e+001  5.965961e+000  0.000000e+000
      vertex  1.106752e+001  5.514809e+000  0.000000e+000
    endloop
  endfacet
  facet normal  0.000000e+000  0.000000e+000  9.999999e-001
    outer loop
      vertex  1.500000e+001  4.000000e+000  0.000000e+000
      vertex  1.106752e+001  5.514809e+000  0.000000e+000
      vertex  1.066845e+001  5.179953e+000  0.000000e+000
    endloop
  endfacet
  facet normal  0.000000e+000  0.000000e+000  9.999999e-001
    outer loop
      vertex  1.500000e+001  4.000000e+000  0.000000e+000
      vertex  1.066845e+001  5.179953e+000  0.000000e+000
      vertex  1.017892e+001  5.001779e+000  0.000000e+000
    endloop
  endfacet
  facet normal -2.072639e-017 -5.694526e-017  9.999999e-001
    outer loop
      vertex  1.500000e+001  1.400000e+001  4.440892e-016
      vertex  1.017892e+001  7.956202e+000  0.000000e+000
      vertex  1.066845e+001  7.778028e+000  0.000000e+000
    endloop
  endfacet
  facet normal -3.780571e-017 -4.505515e-017  1.000000e+000
    outer loop
      vertex  1.500000e+001  1.400000e+001  4.440892e-016
      vertex  1.066845e+001  7.778028e+000  0.000000e+000
      vertex  1.106752e+001  7.443172e+000  0.000000e+000
    endloop
  endfacet
  facet normal -3.888320e-017 -4.440892e-017  1.000000e+000
    outer loop
      vertex  1.500000e+001  1.400000e+001  4.440892e-016
      vertex  1.106752e+001  7.443172e+000  0.000000e+000
      vertex  1.500000e+001  4.000000e+000  0.000000e+000
    endloop
  endfacet
  facet normal  0.000000e+000  1.000000e+000  0.000000e+000
    outer loop
      vertex  0.000000e+000  1.400000e+001  4.440892e-016
      vertex  1.500000e+001  1.400000e+001  4.440892e-016
      vertex  0.000000e+000  1.400000e+001 -5.211483e+000
    endloop
  endfacet
  facet normal  0.000000e+000  1.000000e+000  0.000000e+000
    outer loop
      vertex  0.000000e+000  1.400000e+001 -5.211483e+000
      vertex  1.500000e+001  1.400000e+001  4.440892e-016
      vertex  1.500000e+001  1.400000e+001 -5.211483e+000
    endloop
  endfacet
  facet normal  0.000000e+000 -1.000000e+000  0.000000e+000
    outer loop
      vertex  0.000000e+000 -1.400000e+001 -5.211483e+000
      vertex  1.500000e+001 -1.400000e+001 -5.211483e+000
      vertex  0.000000e+000 -1.400000e+001  0.000000e+000
    endloop
  endfacet
  facet normal  0.000000e+000 -1.000000e+000  0.000000e+000
    outer loop
      vertex  0.000000e+000 -1.400000e+001  0.000000e+000
      vertex  1.500000e+001 -1.400000e+001 -5.211483e+000
      vertex  1.500000e+001 -1.400000e+001  0.000000e+000
    endloop
  endfacet
  facet normal  1.000000e+000  0.000000e+000  0.000000e+000
    outer loop
      vertex  1.500000e+001  1.400000e+001 -5.211483e+000
      vertex  1.500000e+001  1.400000e+001  4.440892e-016
      vertex  1.500000e+001  4.000000e+000  0.000000e+000
    endloop
  endfacet
  facet normal  1.000000e+000  0.000000e+000  0.000000e+000
    outer loop
      vertex  1.500000e+001  1.400000e+001 -5.211483e+000
      vertex  1.500000e+001  4.000000e+000  0.000000e+000
      vertex  1.500000e+001  3.899709e+000 -8.900818e-001
    endloop
  endfacet
  facet normal  1.000000e+000  0.000000e+000  0.000000e+000
    outer loop
      vertex  1.500000e+001  1.400000e+001 -5.211483e+000
      vertex  1.500000e+001  3.899709e+000 -8.900818e-001
      vertex  1.500000e+001  3.603872e+000 -1.735531e+000
    endloop
  endfacet
  facet normal  1.000000e+000  0.000000e+000  0.000000e+000
    outer loop
      vertex  1.500000e+001  1.400000e+001 -5.211483e+000
      vertex  1.500000e+001  3.603872e+000 -1.735531e+000
      vertex  1.500000e+001  3.127322e+000 -2.493953e+000
    endloop
  endfacet
  facet normal  1.000000e+000  0.000000e+000  0.000000e+000
    outer loop
      vertex  1.500000e+001  1.400000e+001 -5.211483e+000
      vertex  1.500000e+001  3.127322e+000 -2.493953e+000
      vertex  1.500000e+001  2.493955e+000 -3.127317e+000
    endloop
  endfacet
  facet normal  1.000000e+000  0.000000e+000  0.000000e+000
    outer loop
      vertex  1.500000e+001  1.400000e+001 -5.211483e+000
      vertex  1.500000e+001  2.493955e+000 -3.127317e+000
      vertex  1.500000e+001  1.735532e+000 -3.603865e+000
    endloop
  endfacet
  facet normal  1.000000e+000  0.000000e+000  0.000000e+000
    outer loop
      vertex  1.500000e+001  1.400000e+001 -5.211483e+000
      vertex  1.500000e+001  1.735532e+000 -3.603865e+000
      vertex  1.500000e+001  8.900821e-001 -3.899700e+000
    endloop
  endfacet
  facet normal  1.000000e+000  0.000000e+000  0.000000e+000
    outer loop
      vertex  1.500000e+001  1.400000e+001 -5.211483e+000
      vertex  1.500000e+001  8.900821e-001 -3.899700e+000
      vertex  1.500000e+001  1.918014e-015 -3.999988e+000
    endloop
  endfacet
  facet normal  1.000000e+000  0.000000e+000  0.000000e+000
    outer loop
      vertex  1.500000e+001  1.400000e+001 -5.211483e+000
      vertex  1.500000e+001  1.918014e-015 -3.999988e+000
      vertex  1.500000e+001 -1.400000e+001 -5.211483e+000
    endloop
  endfacet
  facet normal  1.000000e+000  0.000000e+000  0.000000e+000
    outer loop
      vertex  1.500000e+001 -1.400000e+001 -5.211483e+000
      vertex  1.500000e+001  1.918014e-015 -3.999988e+000
      vertex  1.500000e+001 -8.900821e-001 -3.899700e+000
    endloop
  endfacet
  facet normal  1.000000e+000  0.000000e+000  0.000000e+000
    outer loop
      vertex  1.500000e+001 -1.400000e+001 -5.211483e+000
      vertex  1.500000e+001 -8.900821e-001 -3.899700e+000
      vertex  1.500000e+001 -1.735532e+000 -3.603865e+000
    endloop
  endfacet
  facet normal  1.000000e+000  0.000000e+000  0.000000e+000
    outer loop
      vertex  1.500000e+001 -1.400000e+001 -5.211483e+000
      vertex  1.500000e+001 -1.735532e+000 -3.603865e+000
      vertex  1.500000e+001 -2.493955e+000 -3.127317e+000
    endloop
  endfacet
  facet normal  1.000000e+000  0.000000e+000  0.000000e+000
    outer loop
      vertex  1.500000e+001 -1.400000e+001 -5.211483e+000
      vertex  1.500000e+001 -2.493955e+000 -3.127317e+000
      vertex  1.500000e+001 -3.127322e+000 -2.493953e+000
    endloop
  endfacet
  facet normal  1.000000e+000  0.000000e+000  0.000000e+000
    outer loop
      vertex  1.500000e+001 -1.400000e+001 -5.211483e+000
      vertex  1.500000e+001 -3.127322e+000 -2.493953e+000
      vertex  1.500000e+001 -3.603872e+000 -1.735531e+000
    endloop
  endfacet
  facet normal  1.000000e+000  0.000000e+000  0.000000e+000
    outer loop
      vertex  1.500000e+001 -1.400000e+001 -5.211483e+000
      vertex  1.500000e+001 -3.603872e+000 -1.735531e+000
      vertex  1.500000e+001 -3.899709e+000 -8.900818e-001
    endloop
  endfacet
  facet normal  1.000000e+000  0.000000e+000  0.000000e+000
    outer loop
      vertex  1.500000e+001 -1.400000e+001 -5.211483e+000
      vertex  1.500000e+001 -3.899709e+000 -8.900818e-001
      vertex  1.500000e+001 -4.000000e+000  0.000000e+000
    endloop
  endfacet
  facet normal  1.000000e+000  0.000000e+000  0.000000e+000
    outer loop
      vertex  1.500000e+001 -1.400000e+001 -5.211483e+000
      vertex  1.500000e+001 -4.000000e+000  0.000000e+000
      vertex  1.500000e+001 -1.400000e+001  0.000000e+000
    endloop
  endfacet
  facet normal -1.000000e+000  0.000000e+000  0.000000e+000
    outer loop
      vertex  0.000000e+000  1.400000e+001 -5.211483e+000
      vertex  0.000000e+000 -1.400000e+001 -5.211483e+000
      vertex  0.000000e+000  1.918014e-015 -3.999988e+000
    endloop
  endfacet
  facet normal -1.000000e+000  0.000000e+000  0.000000e+000
    outer loop
      vertex  0.000000e+000  1.400000e+001 -5.211483e+000
      vertex  0.000000e+000  1.918014e-015 -3.999988e+000
      vertex  0.000000e+000  8.900821e-001 -3.899700e+000
    endloop
  endfacet
  facet normal -1.000000e+000  0.000000e+000  0.000000e+000
    outer loop
      vertex  0.000000e+000  1.400000e+001 -5.211483e+000
      vertex  0.000000e+000  8.900821e-001 -3.899700e+000
      vertex  0.000000e+000  1.735532e+000 -3.603865e+000
    endloop
  endfacet
  facet normal -1.000000e+000  0.000000e+000  0.000000e+000
    outer loop
      vertex  0.000000e+000  1.400000e+001 -5.211483e+000
      vertex  0.000000e+000  1.735532e+000 -3.603865e+000
      vertex  0.000000e+000  2.493955e+000 -3.127317e+000
    endloop
  endfacet
  facet normal -1.000000e+000  0.000000e+000  0.000000e+000
    outer loop
      vertex  0.000000e+000  1.400000e+001 -5.211483e+000
      vertex  0.000000e+000  2.493955e+000 -3.127317e+000
      vertex  0.000000e+000  3.127322e+000 -2.493953e+000
    endloop
  endfacet
  facet normal -1.000000e+000  0.000000e+000  0.000000e+000
    outer loop
      vertex  0.000000e+000  1.400000e+001 -5.211483e+000
      vertex  0.000000e+000  3.127322e+000 -2.493953e+000
      vertex  0.000000e+000  3.603872e+000 -1.735531e+000
    endloop
  endfacet
  facet normal -1.000000e+000  0.000000e+000  0.000000e+000
    outer loop
      vertex  0.000000e+000  1.400000e+001 -5.211483e+000
      vertex  0.000000e+000  3.603872e+000 -1.735531e+000
      vertex  0.000000e+000  3.899709e+000 -8.900818e-001
    endloop
  endfacet
  facet normal -1.000000e+000  0.000000e+000  0.000000e+000
    outer loop
      vertex  0.000000e+000  1.400000e+001 -5.211483e+000
      vertex  0.000000e+000  3.899709e+000 -8.900818e-001
      vertex  0.000000e+000  4.000000e+000  2.538051e-015
    endloop
  endfacet
  facet normal -1.000000e+000  0.000000e+000  0.000000e+000
    outer loop
      vertex  0.000000e+000  1.400000e+001 -5.211483e+000
      vertex  0.000000e+000  4.000000e+000  2.538051e-015
      vertex  0.000000e+000  1.400000e+001  4.440892e-016
    endloop
  endfacet
  facet normal -1.000000e+000  0.000000e+000  0.000000e+000
    outer loop
      vertex  0.000000e+000 -1.400000e+001 -5.211483e+000
      vertex  0.000000e+000 -1.400000e+001  0.000000e+000
      vertex  0.000000e+000 -4.000000e+000  4.549143e-016
    endloop
  endfacet
  facet normal -1.000000e+000  0.000000e+000  -0.000000e+000
    outer loop
      vertex  0.000000e+000 -1.400000e+001 -5.211483e+000
      vertex  0.000000e+000 -4.000000e+000  4.549143e-016
      vertex  0.000000e+000 -3.899709e+000 -8.900818e-001
    endloop
  endfacet
  facet normal -1.000000e+000  0.000000e+000  -0.000000e+000
    outer loop
      vertex  0.000000e+000 -1.400000e+001 -5.211483e+000
      vertex  0.000000e+000 -3.899709e+000 -8.900818e-001
      vertex  0.000000e+000 -3.603872e+000 -1.735531e+000
    endloop
  endfacet
  facet normal -1.000000e+000  0.000000e+000  -0.000000e+000
    outer loop
      vertex  0.000000e+000 -1.400000e+001 -5.211483e+000
      vertex  0.000000e+000 -3.603872e+000 -1.735531e+000
      vertex  0.000000e+000 -3.127322e+000 -2.493953e+000
    endloop
  endfacet
  facet normal -1.000000e+000  0.000000e+000  -0.000000e+000
    outer loop
      vertex  0.000000e+000 -1.400000e+001 -5.211483e+000
      vertex  0.000000e+000 -3.127322e+000 -2.493953e+000
      vertex  0.000000e+000 -2.493955e+000 -3.127317e+000
    endloop
  endfacet
  facet normal -1.000000e+000  0.000000e+000  -0.000000e+000
    outer loop
      vertex  0.000000e+000 -1.400000e+001 -5.211483e+000
      vertex  0.000000e+000 -2.493955e+000 -3.127317e+000
      vertex  0.000000e+000 -1.735532e+000 -3.603865e+000
    endloop
  endfacet
  facet normal -1.000000e+000  0.000000e+000  -0.000000e+000
    outer loop
      vertex  0.000000e+000 -1.400000e+001 -5.211483e+000
      vertex  0.000000e+000 -1.735532e+000 -3.603865e+000
      vertex  0.000000e+000 -8.900821e-001 -3.899700e+000
    endloop
  endfacet
  facet normal -1.000000e+000  0.000000e+000  -0.000000e+000
    outer loop
      vertex  0.000000e+000 -1.400000e+001 -5.211483e+000
      vertex  0.000000e+000 -8.900821e-001 -3.899700e+000
      vertex  0.000000e+000  1.918014e-015 -3.999988e+000
    endloop
  endfacet
  facet normal -3.420202e-001 -9.396926e-001  0.000000e+000
    outer loop
      vertex  1.017892e+001  7.956202e+000  0.000000e+000
      vertex  1.066845e+001  7.778028e+000 -5.211483e+000
      vertex  1.066845e+001  7.778028e+000  0.000000e+000
    endloop
  endfacet
  facet normal -6.427872e-001 -7.660448e-001  -0.000000e+000
    outer loop
      vertex  1.066845e+001  7.778028e+000  0.000000e+000
      vertex  1.066845e+001  7.778028e+000 -5.211483e+000
      vertex  1.106752e+001  7.443172e+000 -5.211483e+000
    endloop
  endfacet
  facet normal -6.427872e-001 -7.660448e-001  0.000000e+000
    outer loop
      vertex  1.066845e+001  7.778028e+000  0.000000e+000
      vertex  1.106752e+001  7.443172e+000 -5.211483e+000
      vertex  1.106752e+001  7.443172e+000  0.000000e+000
    endloop
  endfacet
  facet normal -8.660255e-001 -4.999999e-001  -0.000000e+000
    outer loop
      vertex  1.106752e+001  7.443172e+000  0.000000e+000
      vertex  1.106752e+001  7.443172e+000 -5.211483e+000
      vertex  1.132799e+001  6.992021e+000 -5.211483e+000
    endloop
  endfacet
  facet normal -8.660255e-001 -4.999999e-001  0.000000e+000
    outer loop
      vertex  1.106752e+001  7.443172e+000  0.000000e+000
      vertex  1.132799e+001  6.992021e+000 -5.211483e+000
      vertex  1.132799e+001  6.992021e+000  0.000000e+000
    endloop
  endfacet
  facet normal -9.848079e-001 -1.736477e-001  -0.000000e+000
    outer loop
      vertex  1.132799e+001  6.992021e+000  0.000000e+000
      vertex  1.132799e+001  6.992021e+000 -5.211483e+000
      vertex  1.141845e+001  6.478991e+000 -5.211483e+000
    endloop
  endfacet
  facet normal -9.848079e-001 -1.736477e-001  0.000000e+000
    outer loop
      vertex  1.132799e+001  6.992021e+000  0.000000e+000
      vertex  1.141845e+001  6.478991e+000 -5.211483e+000
      vertex  1.141845e+001  6.478991e+000  0.000000e+000
    endloop
  endfacet
  facet normal -3.420202e-001 -9.396926e-001  -0.000000e+000
    outer loop
      vertex  1.066845e+001  7.778028e+000 -5.211483e+000
      vertex  1.017892e+001  7.956202e+000  0.000000e+000
      vertex  1.017892e+001  7.956202e+000 -5.211483e+000
    endloop
  endfacet
  facet normal  0.000000e+000 -1.000000e+000  0.000000e+000
    outer loop
      vertex  1.017892e+001  7.956202e+000 -5.211483e+000
      vertex  1.017892e+001  7.956202e+000  0.000000e+000
      vertex  9.657977e+000  7.956202e+000  0.000000e+000
    endloop
  endfacet
  facet normal  0.000000e+000 -1.000000e+000  0.000000e+000
    outer loop
      vertex  1.017892e+001  7.956202e+000 -5.211483e+000
      vertex  9.657977e+000  7.956202e+000  0.000000e+000
      vertex  9.657977e+000  7.956202e+000 -5.211483e+000
    endloop
  endfacet
  facet normal  3.420202e-001 -9.396926e-001  0.000000e+000
    outer loop
      vertex  9.657977e+000  7.956202e+000 -5.211483e+000
      vertex  9.657977e+000  7.956202e+000  0.000000e+000
      vertex  9.168449e+000  7.778028e+000  0.000000e+000
    endloop
  endfacet
  facet normal  3.420202e-001 -9.396926e-001  0.000000e+000
    outer loop
      vertex  9.657977e+000  7.956202e+000 -5.211483e+000
      vertex  9.168449e+000  7.778028e+000  0.000000e+000
      vertex  9.168449e+000  7.778028e+000 -5.211483e+000
    endloop
  endfacet
  facet normal  6.427872e-001 -7.660448e-001  0.000000e+000
    outer loop
      vertex  9.168449e+000  7.778028e+000 -5.211483e+000
      vertex  9.168449e+000  7.778028e+000  0.000000e+000
      vertex  8.769382e+000  7.443172e+000  0.000000e+000
    endloop
  endfacet
  facet normal  6.427872e-001 -7.660448e-001  0.000000e+000
    outer loop
      vertex  9.168449e+000  7.778028e+000 -5.211483e+000
      vertex  8.769382e+000  7.443172e+000  0.000000e+000
      vertex  8.769382e+000  7.443172e+000 -5.211483e+000
    endloop
  endfacet
  facet normal  8.660255e-001 -4.999999e-001  0.000000e+000
    outer loop
      vertex  8.769382e+000  7.443172e+000 -5.211483e+000
      vertex  8.769382e+000  7.443172e+000  0.000000e+000
      vertex  8.508910e+000  6.992021e+000  0.000000e+000
    endloop
  endfacet
  facet normal  8.660255e-001 -4.999999e-001  0.000000e+000
    outer loop
      vertex  8.769382e+000  7.443172e+000 -5.211483e+000
      vertex  8.508910e+000  6.992021e+000  0.000000e+000
      vertex  8.508910e+000  6.992021e+000 -5.211483e+000
    endloop
  endfacet
  facet normal  9.848079e-001 -1.736477e-001  0.000000e+000
    outer loop
      vertex  8.508910e+000  6.992021e+000 -5.211483e+000
      vertex  8.508910e+000  6.992021e+000  0.000000e+000
      vertex  8.418449e+000  6.478991e+000  0.000000e+000
    endloop
  endfacet
  facet normal  9.848079e-001 -1.736477e-001  0.000000e+000
    outer loop
      vertex  8.508910e+000  6.992021e+000 -5.211483e+000
      vertex  8.418449e+000  6.478991e+000  0.000000e+000
      vertex  8.418449e+000  6.478991e+000 -5.211483e+000
    endloop
  endfacet
  facet normal -3.420202e-001 -9.396926e-001  0.000000e+000
    outer loop
      vertex  1.017892e+001 -5.001779e+000  0.000000e+000
      vertex  1.066845e+001 -5.179953e+000 -5.211483e+000
      vertex  1.066845e+001 -5.179953e+000  0.000000e+000
    endloop
  endfacet
  facet normal -6.427872e-001 -7.660448e-001  -0.000000e+000
    outer loop
      vertex  1.066845e+001 -5.179953e+000  0.000000e+000
      vertex  1.066845e+001 -5.179953e+000 -5.211483e+000
      vertex  1.106752e+001 -5.514809e+000 -5.211483e+000
    endloop
  endfacet
  facet normal -6.427872e-001 -7.660448e-001  0.000000e+000
    outer loop
      vertex  1.066845e+001 -5.179953e+000  0.000000e+000
      vertex  1.106752e+001 -5.514809e+000 -5.211483e+000
      vertex  1.106752e+001 -5.514809e+000  0.000000e+000
    endloop
  endfacet
  facet normal -8.660255e-001 -4.999999e-001  -0.000000e+000
    outer loop
      vertex  1.106752e+001 -5.514809e+000  0.000000e+000
      vertex  1.106752e+001 -5.514809e+000 -5.211483e+000
      vertex  1.132799e+001 -5.965961e+000 -5.211483e+000
    endloop
  endfacet
  facet normal -8.660255e-001 -4.999999e-001  0.000000e+000
    outer loop
      vertex  1.106752e+001 -5.514809e+000  0.000000e+000
      vertex  1.132799e+001 -5.965961e+000 -5.211483e+000
      vertex  1.132799e+001 -5.965961e+000  0.000000e+000
    endloop
  endfacet
  facet normal -9.848079e-001 -1.736477e-001  -0.000000e+000
    outer loop
      vertex  1.132799e+001 -5.965961e+000  0.000000e+000
      vertex  1.132799e+001 -5.965961e+000 -5.211483e+000
      vertex  1.141845e+001 -6.478991e+000 -5.211483e+000
    endloop
  endfacet
  facet normal -9.848079e-001 -1.736477e-001  0.000000e+000
    outer loop
      vertex  1.132799e+001 -5.965961e+000  0.000000e+000
      vertex  1.141845e+001 -6.478991e+000 -5.211483e+000
      vertex  1.141845e+001 -6.478991e+000  0.000000e+000
    endloop
  endfacet
  facet normal -3.420202e-001 -9.396926e-001  -0.000000e+000
    outer loop
      vertex  1.066845e+001 -5.179953e+000 -5.211483e+000
      vertex  1.017892e+001 -5.001779e+000  0.000000e+000
      vertex  1.017892e+001 -5.001779e+000 -5.211483e+000
    endloop
  endfacet
  facet normal  0.000000e+000 -1.000000e+000  0.000000e+000
    outer loop
      vertex  1.017892e+001 -5.001779e+000 -5.211483e+000
      vertex  1.017892e+001 -5.001779e+000  0.000000e+000
      vertex  9.657977e+000 -5.001779e+000  0.000000e+000
    endloop
  endfacet
  facet normal  0.000000e+000 -1.000000e+000  0.000000e+000
    outer loop
      vertex  1.017892e+001 -5.001779e+000 -5.211483e+000
      vertex  9.657977e+000 -5.001779e+000  0.000000e+000
      vertex  9.657977e+000 -5.001779e+000 -5.211483e+000
    endloop
  endfacet
  facet normal  3.420202e-001 -9.396926e-001  0.000000e+000
    outer loop
      vertex  9.657977e+000 -5.001779e+000 -5.211483e+000
      vertex  9.657977e+000 -5.001779e+000  0.000000e+000
      vertex  9.168449e+000 -5.179953e+000  0.000000e+000
    endloop
  endfacet
  facet normal  3.420202e-001 -9.396926e-001  0.000000e+000
    outer loop
      vertex  9.657977e+000 -5.001779e+000 -5.211483e+000
      vertex  9.168449e+000 -5.179953e+000  0.000000e+000
      vertex  9.168449e+000 -5.179953e+000 -5.211483e+000
    endloop
  endfacet
  facet normal  6.427872e-001 -7.660448e-001  0.000000e+000
    outer loop
      vertex  9.168449e+000 -5.179953e+000 -5.211483e+000
      vertex  9.168449e+000 -5.179953e+000  0.000000e+000
      vertex  8.769382e+000 -5.514809e+000  0.000000e+000
    endloop
  endfacet
  facet normal  6.427872e-001 -7.660448e-001  0.000000e+000
    outer loop
      vertex  9.168449e+000 -5.179953e+000 -5.211483e+000
      vertex  8.769382e+000 -5.514809e+000  0.000000e+000
      vertex  8.769382e+000 -5.514809e+000 -5.211483e+000
    endloop
  endfacet
  facet normal  8.660255e-001 -4.999999e-001  0.000000e+000
    outer loop
      vertex  8.769382e+000 -5.514809e+000 -5.211483e+000
      vertex  8.769382e+000 -5.514809e+000  0.000000e+000
      vertex  8.508910e+000 -5.965961e+000  0.000000e+000
    endloop
  endfacet
  facet normal  8.660255e-001 -4.999999e-001  0.000000e+000
    outer loop
      vertex  8.769382e+000 -5.514809e+000 -5.211483e+000
      vertex  8.508910e+000 -5.965961e+000  0.000000e+000
      vertex  8.508910e+000 -5.965961e+000 -5.211483e+000
    endloop
  endfacet
  facet normal  9.848079e-001 -1.736477e-001  0.000000e+000
    outer loop
      vertex  8.508910e+000 -5.965961e+000 -5.211483e+000
      vertex  8.508910e+000 -5.965961e+000  0.000000e+000
      vertex  8.418449e+000 -6.478991e+000  0.000000e+000
    endloop
  endfacet
  facet normal  9.848079e-001 -1.736477e-001  0.000000e+000
    outer loop
      vertex  8.508910e+000 -5.965961e+000 -5.211483e+000
      vertex  8.418449e+000 -6.478991e+000  0.000000e+000
      vertex  8.418449e+000 -6.478991e+000 -5.211483e+000
    endloop
  endfacet
  facet normal  3.420202e-001  9.396926e-001  -0.000000e+000
    outer loop
      vertex  9.657977e+000 -7.956202e+000  0.000000e+000
      vertex  9.168449e+000 -7.778028e+000 -5.211483e+000
      vertex  9.168449e+000 -7.778028e+000  0.000000e+000
    endloop
  endfacet
  facet normal  6.427872e-001  7.660448e-001  0.000000e+000
    outer loop
      vertex  9.168449e+000 -7.778028e+000  0.000000e+000
      vertex  9.168449e+000 -7.778028e+000 -5.211483e+000
      vertex  8.769382e+000 -7.443172e+000 -5.211483e+000
    endloop
  endfacet
  facet normal  6.427872e-001  7.660448e-001  -0.000000e+000
    outer loop
      vertex  9.168449e+000 -7.778028e+000  0.000000e+000
      vertex  8.769382e+000 -7.443172e+000 -5.211483e+000
      vertex  8.769382e+000 -7.443172e+000  0.000000e+000
    endloop
  endfacet
  facet normal  8.660255e-001  4.999999e-001  0.000000e+000
    outer loop
      vertex  8.769382e+000 -7.443172e+000  0.000000e+000
      vertex  8.769382e+000 -7.443172e+000 -5.211483e+000
      vertex  8.508910e+000 -6.992021e+000 -5.211483e+000
    endloop
  endfacet
  facet normal  8.660255e-001  4.999999e-001  -0.000000e+000
    outer loop
      vertex  8.769382e+000 -7.443172e+000  0.000000e+000
      vertex  8.508910e+000 -6.992021e+000 -5.211483e+000
      vertex  8.508910e+000 -6.992021e+000  0.000000e+000
    endloop
  endfacet
  facet normal  9.848079e-001  1.736477e-001  0.000000e+000
    outer loop
      vertex  8.508910e+000 -6.992021e+000  0.000000e+000
      vertex  8.508910e+000 -6.992021e+000 -5.211483e+000
      vertex  8.418449e+000 -6.478991e+000 -5.211483e+000
    endloop
  endfacet
  facet normal  9.848079e-001  1.736477e-001  -0.000000e+000
    outer loop
      vertex  8.508910e+000 -6.992021e+000  0.000000e+000
      vertex  8.418449e+000 -6.478991e+000 -5.211483e+000
      vertex  8.418449e+000 -6.478991e+000  0.000000e+000
    endloop
  endfacet
  facet normal  3.420202e-001  9.396926e-001  0.000000e+000
    outer loop
      vertex  9.168449e+000 -7.778028e+000 -5.211483e+000
      vertex  9.657977e+000 -7.956202e+000  0.000000e+000
      vertex  9.657977e+000 -7.956202e+000 -5.211483e+000
    endloop
  endfacet
  facet normal  0.000000e+000  1.000000e+000  0.000000e+000
    outer loop
      vertex  9.657977e+000 -7.956202e+000 -5.211483e+000
      vertex  9.657977e+000 -7.956202e+000  0.000000e+000
      vertex  1.017892e+001 -7.956202e+000  0.000000e+000
    endloop
  endfacet
  facet normal  0.000000e+000  1.000000e+000  0.000000e+000
    outer loop
      vertex  9.657977e+000 -7.956202e+000 -5.211483e+000
      vertex  1.017892e+001 -7.956202e+000  0.000000e+000
      vertex  1.017892e+001 -7.956202e+000 -5.211483e+000
    endloop
  endfacet
  facet normal -3.420202e-001  9.396926e-001  0.000000e+000
    outer loop
      vertex  1.017892e+001 -7.956202e+000 -5.211483e+000
      vertex  1.017892e+001 -7.956202e+000  0.000000e+000
      vertex  1.066845e+001 -7.778028e+000  0.000000e+000
    endloop
  endfacet
  facet normal -3.420202e-001  9.396926e-001  0.000000e+000
    outer loop
      vertex  1.017892e+001 -7.956202e+000 -5.211483e+000
      vertex  1.066845e+001 -7.778028e+000  0.000000e+000
      vertex  1.066845e+001 -7.778028e+000 -5.211483e+000
    endloop
  endfacet
  facet normal -6.427872e-001  7.660448e-001  0.000000e+000
    outer loop
      vertex  1.066845e+001 -7.778028e+000 -5.211483e+000
      vertex  1.066845e+001 -7.778028e+000  0.000000e+000
      vertex  1.106752e+001 -7.443172e+000  0.000000e+000
    endloop
  endfacet
  facet normal -6.427872e-001  7.660448e-001  0.000000e+000
    outer loop
      vertex  1.066845e+001 -7.778028e+000 -5.211483e+000
      vertex  1.106752e+001 -7.443172e+000  0.000000e+000
      vertex  1.106752e+001 -7.443172e+000 -5.211483e+000
    endloop
  endfacet
  facet normal -8.660255e-001  4.999999e-001  0.000000e+000
    outer loop
      vertex  1.106752e+001 -7.443172e+000 -5.211483e+000
      vertex  1.106752e+001 -7.443172e+000  0.000000e+000
      vertex  1.132799e+001 -6.992021e+000  0.000000e+000
    endloop
  endfacet
  facet normal -8.660255e-001  4.999999e-001  0.000000e+000
    outer loop
      vertex  1.106752e+001 -7.443172e+000 -5.211483e+000
      vertex  1.132799e+001 -6.992021e+000  0.000000e+000
      vertex  1.132799e+001 -6.992021e+000 -5.211483e+000
    endloop
  endfacet
  facet normal -9.848079e-001  1.736477e-001  0.000000e+000
    outer loop
      vertex  1.132799e+001 -6.992021e+000 -5.211483e+000
      vertex  1.132799e+001 -6.992021e+000  0.000000e+000
      vertex  1.141845e+001 -6.478991e+000  0.000000e+000
    endloop
  endfacet
  facet normal -9.848079e-001  1.736477e-001  0.000000e+000
    outer loop
      vertex  1.132799e+001 -6.992021e+000 -5.211483e+000
      vertex  1.141845e+001 -6.478991e+000  0.000000e+000
      vertex  1.141845e+001 -6.478991e+000 -5.211483e+000
    endloop
  endfacet
  facet normal  3.420202e-001  9.396926e-001  -0.000000e+000
    outer loop
      vertex  9.657977e+000  5.001779e+000  0.000000e+000
      vertex  9.168449e+000  5.179953e+000 -5.211483e+000
      vertex  9.168449e+000  5.179953e+000  0.000000e+000
    endloop
  endfacet
  facet normal  6.427872e-001  7.660448e-001  0.000000e+000
    outer loop
      vertex  9.168449e+000  5.179953e+000  0.000000e+000
      vertex  9.168449e+000  5.179953e+000 -5.211483e+000
      vertex  8.769382e+000  5.514809e+000 -5.211483e+000
    endloop
  endfacet
  facet normal  6.427872e-001  7.660448e-001  -0.000000e+000
    outer loop
      vertex  9.168449e+000  5.179953e+000  0.000000e+000
      vertex  8.769382e+000  5.514809e+000 -5.211483e+000
      vertex  8.769382e+000  5.514809e+000  0.000000e+000
    endloop
  endfacet
  facet normal  8.660255e-001  4.999999e-001  0.000000e+000
    outer loop
      vertex  8.769382e+000  5.514809e+000  0.000000e+000
      vertex  8.769382e+000  5.514809e+000 -5.211483e+000
      vertex  8.508910e+000  5.965961e+000 -5.211483e+000
    endloop
  endfacet
  facet normal  8.660255e-001  4.999999e-001  -0.000000e+000
    outer loop
      vertex  8.769382e+000  5.514809e+000  0.000000e+000
      vertex  8.508910e+000  5.965961e+000 -5.211483e+000
      vertex  8.508910e+000  5.965961e+000  0.000000e+000
    endloop
  endfacet
  facet normal  9.848079e-001  1.736477e-001  0.000000e+000
    outer loop
      vertex  8.508910e+000  5.965961e+000  0.000000e+000
      vertex  8.508910e+000  5.965961e+000 -5.211483e+000
      vertex  8.418449e+000  6.478991e+000 -5.211483e+000
    endloop
  endfacet
  facet normal  9.848079e-001  1.736477e-001  -0.000000e+000
    outer loop
      vertex  8.508910e+000  5.965961e+000  0.000000e+000
      vertex  8.418449e+000  6.478991e+000 -5.211483e+000
      vertex  8.418449e+000  6.478991e+000  0.000000e+000
    endloop
  endfacet
  facet normal  3.420202e-001  9.396926e-001  0.000000e+000
    outer loop
      vertex  9.168449e+000  5.179953e+000 -5.211483e+000
      vertex  9.657977e+000  5.001779e+000  0.000000e+000
      vertex  9.657977e+000  5.001779e+000 -5.211483e+000
    endloop
  endfacet
  facet normal  0.000000e+000  1.000000e+000  0.000000e+000
    outer loop
      vertex  9.657977e+000  5.001779e+000 -5.211483e+000
      vertex  9.657977e+000  5.001779e+000  0.000000e+000
      vertex  1.017892e+001  5.001779e+000  0.000000e+000
    endloop
  endfacet
  facet normal  0.000000e+000  1.000000e+000  0.000000e+000
    outer loop
      vertex  9.657977e+000  5.001779e+000 -5.211483e+000
      vertex  1.017892e+001  5.001779e+000  0.000000e+000
      vertex  1.017892e+001  5.001779e+000 -5.211483e+000
    endloop
  endfacet
  facet normal -3.420202e-001  9.396926e-001  0.000000e+000
    outer loop
      vertex  1.017892e+001  5.001779e+000 -5.211483e+000
      vertex  1.017892e+001  5.001779e+000  0.000000e+000
      vertex  1.066845e+001  5.179953e+000  0.000000e+000
    endloop
  endfacet
  facet normal -3.420202e-001  9.396926e-001  0.000000e+000
    outer loop
      vertex  1.017892e+001  5.001779e+000 -5.211483e+000
      vertex  1.066845e+001  5.179953e+000  0.000000e+000
      vertex  1.066845e+001  5.179953e+000 -5.211483e+000
    endloop
  endfacet
  facet normal -6.427872e-001  7.660448e-001  0.000000e+000
    outer loop
      vertex  1.066845e+001  5.179953e+000 -5.211483e+000
      vertex  1.066845e+001  5.179953e+000  0.000000e+000
      vertex  1.106752e+001  5.514809e+000  0.000000e+000
    endloop
  endfacet
  facet normal -6.427872e-001  7.660448e-001  0.000000e+000
    outer loop
      vertex  1.066845e+001  5.179953e+000 -5.211483e+000
      vertex  1.106752e+001  5.514809e+000  0.000000e+000
      vertex  1.106752e+001  5.514809e+000 -5.211483e+000
    endloop
  endfacet
  facet normal -8.660255e-001  4.999999e-001  0.000000e+000
    outer loop
      vertex  1.106752e+001  5.514809e+000 -5.211483e+000
      vertex  1.106752e+001  5.514809e+000  0.000000e+000
      vertex  1.132799e+001  5.965961e+000  0.000000e+000
    endloop
  endfacet
  facet normal -8.660255e-001  4.999999e-001  0.000000e+000
    outer loop
      vertex  1.106752e+001  5.514809e+000 -5.211483e+000
      vertex  1.132799e+001  5.965961e+000  0.000000e+000
      vertex  1.132799e+001  5.965961e+000 -5.211483e+000
    endloop
  endfacet
  facet normal -9.848079e-001  1.736477e-001  0.000000e+000
    outer loop
      vertex  1.132799e+001  5.965961e+000 -5.211483e+000
      vertex  1.132799e+001  5.965961e+000  0.000000e+000
      vertex  1.141845e+001  6.478991e+000  0.000000e+000
    endloop
  endfacet
  facet normal -9.848079e-001  1.736477e-001  0.000000e+000
    outer loop
      vertex  1.132799e+001  5.965961e+000 -5.211483e+000
      vertex  1.141845e+001  6.478991e+000  0.000000e+000
      vertex  1.141845e+001  6.478991e+000 -5.211483e+000
    endloop
  endfacet
  facet normal  0.000000e+000 -1.119642e-001  9.937122e-001
    outer loop
      vertex  0.000000e+000  1.918014e-015 -3.999988e+000
      vertex  1.500000e+001  8.900821e-001 -3.899700e+000
      vertex  0.000000e+000  8.900821e-001 -3.899700e+000
    endloop
  endfacet
  facet normal  0.000000e+000 -3.302784e-001  9.438836e-001
    outer loop
      vertex  0.000000e+000  8.900821e-001 -3.899700e+000
      vertex  1.500000e+001  8.900821e-001 -3.899700e+000
      vertex  1.500000e+001  1.735532e+000 -3.603865e+000
    endloop
  endfacet
  facet normal  0.000000e+000 -3.302784e-001  9.438836e-001
    outer loop
      vertex  0.000000e+000  8.900821e-001 -3.899700e+000
      vertex  1.500000e+001  1.735532e+000 -3.603865e+000
      vertex  0.000000e+000  1.735532e+000 -3.603865e+000
    endloop
  endfacet
  facet normal  0.000000e+000 -5.320313e-001  8.467246e-001
    outer loop
      vertex  0.000000e+000  1.735532e+000 -3.603865e+000
      vertex  1.500000e+001  1.735532e+000 -3.603865e+000
      vertex  1.500000e+001  2.493955e+000 -3.127317e+000
    endloop
  endfacet
  facet normal  0.000000e+000 -5.320313e-001  8.467246e-001
    outer loop
      vertex  0.000000e+000  1.735532e+000 -3.603865e+000
      vertex  1.500000e+001  2.493955e+000 -3.127317e+000
      vertex  0.000000e+000  2.493955e+000 -3.127317e+000
    endloop
  endfacet
  facet normal  0.000000e+000 -7.071055e-001  7.071080e-001
    outer loop
      vertex  0.000000e+000  2.493955e+000 -3.127317e+000
      vertex  1.500000e+001  2.493955e+000 -3.127317e+000
      vertex  1.500000e+001  3.127322e+000 -2.493953e+000
    endloop
  endfacet
  facet normal  0.000000e+000 -7.071055e-001  7.071080e-001
    outer loop
      vertex  0.000000e+000  2.493955e+000 -3.127317e+000
      vertex  1.500000e+001  3.127322e+000 -2.493953e+000
      vertex  0.000000e+000  3.127322e+000 -2.493953e+000
    endloop
  endfacet
  facet normal  0.000000e+000 -8.467232e-001  5.320336e-001
    outer loop
      vertex  0.000000e+000  3.127322e+000 -2.493953e+000
      vertex  1.500000e+001  3.127322e+000 -2.493953e+000
      vertex  1.500000e+001  3.603872e+000 -1.735531e+000
    endloop
  endfacet
  facet normal  0.000000e+000 -8.467232e-001  5.320336e-001
    outer loop
      vertex  0.000000e+000  3.127322e+000 -2.493953e+000
      vertex  1.500000e+001  3.603872e+000 -1.735531e+000
      vertex  0.000000e+000  3.603872e+000 -1.735531e+000
    endloop
  endfacet
  facet normal  0.000000e+000 -9.438825e-001  3.302813e-001
    outer loop
      vertex  0.000000e+000  3.603872e+000 -1.735531e+000
      vertex  1.500000e+001  3.603872e+000 -1.735531e+000
      vertex  1.500000e+001  3.899709e+000 -8.900818e-001
    endloop
  endfacet
  facet normal  0.000000e+000 -9.438825e-001  3.302813e-001
    outer loop
      vertex  0.000000e+000  3.603872e+000 -1.735531e+000
      vertex  1.500000e+001  3.899709e+000 -8.900818e-001
      vertex  0.000000e+000  3.899709e+000 -8.900818e-001
    endloop
  endfacet
  facet normal  0.000000e+000 -9.937119e-001  1.119671e-001
    outer loop
      vertex  0.000000e+000  3.899709e+000 -8.900818e-001
      vertex  1.500000e+001  3.899709e+000 -8.900818e-001
      vertex  1.500000e+001  4.000000e+000  0.000000e+000
    endloop
  endfacet
  facet normal  1.894522e-017 -9.937119e-001  1.119671e-001
    outer loop
      vertex  0.000000e+000  3.899709e+000 -8.900818e-001
      vertex  1.500000e+001  4.000000e+000  0.000000e+000
      vertex  0.000000e+000  4.000000e+000  2.538051e-015
    endloop
  endfacet
  facet normal  0.000000e+000 -1.119642e-001  9.937122e-001
    outer loop
      vertex  1.500000e+001  8.900821e-001 -3.899700e+000
      vertex  0.000000e+000  1.918014e-015 -3.999988e+000
      vertex  1.500000e+001  1.918014e-015 -3.999988e+000
    endloop
  endfacet
  facet normal  0.000000e+000  1.119642e-001  9.937122e-001
    outer loop
      vertex  1.500000e+001  1.918014e-015 -3.999988e+000
      vertex  0.000000e+000  1.918014e-015 -3.999988e+000
      vertex  0.000000e+000 -8.900821e-001 -3.899700e+000
    endloop
  endfacet
  facet normal  -0.000000e+000  1.119642e-001  9.937122e-001
    outer loop
      vertex  1.500000e+001  1.918014e-015 -3.999988e+000
      vertex  0.000000e+000 -8.900821e-001 -3.899700e+000
      vertex  1.500000e+001 -8.900821e-001 -3.899700e+000
    endloop
  endfacet
  facet normal  0.000000e+000  3.302784e-001  9.438836e-001
    outer loop
      vertex  1.500000e+001 -8.900821e-001 -3.899700e+000
      vertex  0.000000e+000 -8.900821e-001 -3.899700e+000
      vertex  0.000000e+000 -1.735532e+000 -3.603865e+000
    endloop
  endfacet
  facet normal  -0.000000e+000  3.302784e-001  9.438836e-001
    outer loop
      vertex  1.500000e+001 -8.900821e-001 -3.899700e+000
      vertex  0.000000e+000 -1.735532e+000 -3.603865e+000
      vertex  1.500000e+001 -1.735532e+000 -3.603865e+000
    endloop
  endfacet
  facet normal  0.000000e+000  5.320313e-001  8.467246e-001
    outer loop
      vertex  1.500000e+001 -1.735532e+000 -3.603865e+000
      vertex  0.000000e+000 -1.735532e+000 -3.603865e+000
      vertex  0.000000e+000 -2.493955e+000 -3.127317e+000
    endloop
  endfacet
  facet normal  -0.000000e+000  5.320313e-001  8.467246e-001
    outer loop
      vertex  1.500000e+001 -1.735532e+000 -3.603865e+000
      vertex  0.000000e+000 -2.493955e+000 -3.127317e+000
      vertex  1.500000e+001 -2.493955e+000 -3.127317e+000
    endloop
  endfacet
  facet normal  0.000000e+000  7.071055e-001  7.071080e-001
    outer loop
      vertex  1.500000e+001 -2.493955e+000 -3.127317e+000
      vertex  0.000000e+000 -2.493955e+000 -3.127317e+000
      vertex  0.000000e+000 -3.127322e+000 -2.493953e+000
    endloop
  endfacet
  facet normal  -0.000000e+000  7.071055e-001  7.071080e-001
    outer loop
      vertex  1.500000e+001 -2.493955e+000 -3.127317e+000
      vertex  0.000000e+000 -3.127322e+000 -2.493953e+000
      vertex  1.500000e+001 -3.127322e+000 -2.493953e+000
    endloop
  endfacet
  facet normal  0.000000e+000  8.467232e-001  5.320336e-001
    outer loop
      vertex  1.500000e+001 -3.127322e+000 -2.493953e+000
      vertex  0.000000e+000 -3.127322e+000 -2.493953e+000
      vertex  0.000000e+000 -3.603872e+000 -1.735531e+000
    endloop
  endfacet
  facet normal  -0.000000e+000  8.467232e-001  5.320336e-001
    outer loop
      vertex  1.500000e+001 -3.127322e+000 -2.493953e+000
      vertex  0.000000e+000 -3.603872e+000 -1.735531e+000
      vertex  1.500000e+001 -3.603872e+000 -1.735531e+000
    endloop
  endfacet
  facet normal  0.000000e+000  9.438825e-001  3.302813e-001
    outer loop
      vertex  1.500000e+001 -3.603872e+000 -1.735531e+000
      vertex  0.000000e+000 -3.603872e+000 -1.735531e+000
      vertex  0.000000e+000 -3.899709e+000 -8.900818e-001
    endloop
  endfacet
  facet normal  -0.000000e+000  9.438825e-001  3.302813e-001
    outer loop
      vertex  1.500000e+001 -3.603872e+000 -1.735531e+000
      vertex  0.000000e+000 -3.899709e+000 -8.900818e-001
      vertex  1.500000e+001 -3.899709e+000 -8.900818e-001
    endloop
  endfacet
  facet normal  0.000000e+000  9.937119e-001  1.119671e-001
    outer loop
      vertex  1.500000e+001 -3.899709e+000 -8.900818e-001
      vertex  0.000000e+000 -3.899709e+000 -8.900818e-001
      vertex  0.000000e+000 -4.000000e+000  4.549143e-016
    endloop
  endfacet
  facet normal  3.395696e-018  9.937119e-001  1.119671e-001
    outer loop
      vertex  1.500000e+001 -3.899709e+000 -8.900818e-001
      vertex  0.000000e+000 -4.000000e+000  4.549143e-016
      vertex  1.500000e+001 -4.000000e+000  0.000000e+000
    endloop
  endfacet
  facet normal  0.000000e+000  0.000000e+000 -1.000000e+000
    outer loop
      vertex  9.168449e+000 -5.179953e+000 -5.211483e+000
      vertex  8.769382e+000 -5.514809e+000 -5.211483e+000
      vertex  9.657977e+000  5.001779e+000 -5.211483e+000
    endloop
  endfacet
  facet normal  0.000000e+000  0.000000e+000 -1.000000e+000
    outer loop
      vertex  9.657977e+000 -5.001779e+000 -5.211483e+000
      vertex  9.168449e+000 -5.179953e+000 -5.211483e+000
      vertex  9.657977e+000  5.001779e+000 -5.211483e+000
    endloop
  endfacet
  facet normal  0.000000e+000  0.000000e+000 -1.000000e+000
    outer loop
      vertex  1.017892e+001  5.001779e+000 -5.211483e+000
      vertex  1.500000e+001 -1.400000e+001 -5.211483e+000
      vertex  1.132799e+001 -5.965961e+000 -5.211483e+000
    endloop
  endfacet
  facet normal  0.000000e+000  0.000000e+000 -1.000000e+000
    outer loop
      vertex  1.017892e+001  5.001779e+000 -5.211483e+000
      vertex  1.132799e+001 -5.965961e+000 -5.211483e+000
      vertex  1.106752e+001 -5.514809e+000 -5.211483e+000
    endloop
  endfacet
  facet normal  0.000000e+000  0.000000e+000 -1.000000e+000
    outer loop
      vertex  1.017892e+001  5.001779e+000 -5.211483e+000
      vertex  1.106752e+001 -5.514809e+000 -5.211483e+000
      vertex  1.066845e+001 -5.179953e+000 -5.211483e+000
    endloop
  endfacet
  facet normal  0.000000e+000  0.000000e+000 -1.000000e+000
    outer loop
      vertex  1.017892e+001  5.001779e+000 -5.211483e+000
      vertex  1.066845e+001 -5.179953e+000 -5.211483e+000
      vertex  1.017892e+001 -5.001779e+000 -5.211483e+000
    endloop
  endfacet
  facet normal  0.000000e+000  0.000000e+000 -1.000000e+000
    outer loop
      vertex  1.017892e+001  5.001779e+000 -5.211483e+000
      vertex  1.017892e+001 -5.001779e+000 -5.211483e+000
      vertex  9.657977e+000 -5.001779e+000 -5.211483e+000
    endloop
  endfacet
  facet normal  0.000000e+000  0.000000e+000 -1.000000e+000
    outer loop
      vertex  1.017892e+001  5.001779e+000 -5.211483e+000
      vertex  9.657977e+000 -5.001779e+000 -5.211483e+000
      vertex  9.657977e+000  5.001779e+000 -5.211483e+000
    endloop
  endfacet
  facet normal  0.000000e+000  0.000000e+000 -1.000000e+000
    outer loop
      vertex  0.000000e+000 -1.400000e+001 -5.211483e+000
      vertex  8.508910e+000  6.992021e+000 -5.211483e+000
      vertex  8.418449e+000  6.478991e+000 -5.211483e+000
    endloop
  endfacet
  facet normal  0.000000e+000  -0.000000e+000 -1.000000e+000
    outer loop
      vertex  0.000000e+000 -1.400000e+001 -5.211483e+000
      vertex  8.418449e+000  6.478991e+000 -5.211483e+000
      vertex  8.508910e+000  5.965961e+000 -5.211483e+000
    endloop
  endfacet
  facet normal  0.000000e+000  -0.000000e+000 -1.000000e+000
    outer loop
      vertex  0.000000e+000 -1.400000e+001 -5.211483e+000
      vertex  8.508910e+000  5.965961e+000 -5.211483e+000
      vertex  8.769382e+000  5.514809e+000 -5.211483e+000
    endloop
  endfacet
  facet normal  0.000000e+000  -0.000000e+000 -1.000000e+000
    outer loop
      vertex  0.000000e+000 -1.400000e+001 -5.211483e+000
      vertex  8.769382e+000  5.514809e+000 -5.211483e+000
      vertex  9.168449e+000  5.179953e+000 -5.211483e+000
    endloop
  endfacet
  facet normal  0.000000e+000  -0.000000e+000 -1.000000e+000
    outer loop
      vertex  0.000000e+000 -1.400000e+001 -5.211483e+000
      vertex  9.168449e+000  5.179953e+000 -5.211483e+000
      vertex  9.657977e+000  5.001779e+000 -5.211483e+000
    endloop
  endfacet
  facet normal  0.000000e+000  0.000000e+000 -1.000000e+000
    outer loop
      vertex  0.000000e+000 -1.400000e+001 -5.211483e+000
      vertex  9.657977e+000  5.001779e+000 -5.211483e+000
      vertex  8.769382e+000 -5.514809e+000 -5.211483e+000
    endloop
  endfacet
  facet normal  0.000000e+000  0.000000e+000 -9.999999e-001
    outer loop
      vertex  0.000000e+000 -1.400000e+001 -5.211483e+000
      vertex  8.769382e+000 -5.514809e+000 -5.211483e+000
      vertex  8.508910e+000 -5.965961e+000 -5.211483e+000
    endloop
  endfacet
  facet normal  0.000000e+000  0.000000e+000 -1.000000e+000
    outer loop
      vertex  0.000000e+000 -1.400000e+001 -5.211483e+000
      vertex  8.508910e+000 -5.965961e+000 -5.211483e+000
      vertex  8.418449e+000 -6.478991e+000 -5.211483e+000
    endloop
  endfacet
  facet normal  0.000000e+000  -0.000000e+000 -1.000000e+000
    outer loop
      vertex  0.000000e+000 -1.400000e+001 -5.211483e+000
      vertex  8.418449e+000 -6.478991e+000 -5.211483e+000
      vertex  8.508910e+000 -6.992021e+000 -5.211483e+000
    endloop
  endfacet
  facet normal  0.000000e+000  -0.000000e+000 -1.000000e+000
    outer loop
      vertex  0.000000e+000 -1.400000e+001 -5.211483e+000
      vertex  8.508910e+000 -6.992021e+000 -5.211483e+000
      vertex  8.769382e+000 -7.443172e+000 -5.211483e+000
    endloop
  endfacet
  facet normal  0.000000e+000  -0.000000e+000 -1.000000e+000
    outer loop
      vertex  0.000000e+000 -1.400000e+001 -5.211483e+000
      vertex  8.769382e+000 -7.443172e+000 -5.211483e+000
      vertex  9.168449e+000 -7.778028e+000 -5.211483e+000
    endloop
  endfacet
  facet normal  0.000000e+000  -0.000000e+000 -1.000000e+000
    outer loop
      vertex  0.000000e+000 -1.400000e+001 -5.211483e+000
      vertex  9.168449e+000 -7.778028e+000 -5.211483e+000
      vertex  9.657977e+000 -7.956202e+000 -5.211483e+000
    endloop
  endfacet
  facet normal  0.000000e+000  -0.000000e+000 -1.000000e+000
    outer loop
      vertex  0.000000e+000 -1.400000e+001 -5.211483e+000
      vertex  9.657977e+000 -7.956202e+000 -5.211483e+000
      vertex  1.017892e+001 -7.956202e+000 -5.211483e+000
    endloop
  endfacet
  facet normal  0.000000e+000  -0.000000e+000 -1.000000e+000
    outer loop
      vertex  0.000000e+000 -1.400000e+001 -5.211483e+000
      vertex  1.017892e+001 -7.956202e+000 -5.211483e+000
      vertex  1.500000e+001 -1.400000e+001 -5.211483e+000
    endloop
  endfacet
  facet normal  0.000000e+000  0.000000e+000 -9.999999e-001
    outer loop
      vertex  1.500000e+001 -1.400000e+001 -5.211483e+000
      vertex  1.017892e+001 -7.956202e+000 -5.211483e+000
      vertex  1.066845e+001 -7.778028e+000 -5.211483e+000
    endloop
  endfacet
  facet normal  0.000000e+000  0.000000e+000 -1.000000e+000
    outer loop
      vertex  1.500000e+001 -1.400000e+001 -5.211483e+000
      vertex  1.066845e+001 -7.778028e+000 -5.211483e+000
      vertex  1.106752e+001 -7.443172e+000 -5.211483e+000
    endloop
  endfacet
  facet normal  0.000000e+000  0.000000e+000 -9.999999e-001
    outer loop
      vertex  1.500000e+001 -1.400000e+001 -5.211483e+000
      vertex  1.106752e+001 -7.443172e+000 -5.211483e+000
      vertex  1.132799e+001 -6.992021e+000 -5.211483e+000
    endloop
  endfacet
  facet normal  0.000000e+000  0.000000e+000 -1.000000e+000
    outer loop
      vertex  1.500000e+001 -1.400000e+001 -5.211483e+000
      vertex  1.132799e+001 -6.992021e+000 -5.211483e+000
      vertex  1.141845e+001 -6.478991e+000 -5.211483e+000
    endloop
  endfacet
  facet normal  0.000000e+000  0.000000e+000 -1.000000e+000
    outer loop
      vertex  1.500000e+001 -1.400000e+001 -5.211483e+000
      vertex  1.141845e+001 -6.478991e+000 -5.211483e+000
      vertex  1.132799e+001 -5.965961e+000 -5.211483e+000
    endloop
  endfacet
  facet normal  0.000000e+000  0.000000e+000 -1.000000e+000
    outer loop
      vertex  1.500000e+001 -1.400000e+001 -5.211483e+000
      vertex  1.017892e+001  5.001779e+000 -5.211483e+000
      vertex  1.066845e+001  5.179953e+000 -5.211483e+000
    endloop
  endfacet
  facet normal  0.000000e+000  0.000000e+000 -1.000000e+000
    outer loop
      vertex  1.500000e+001 -1.400000e+001 -5.211483e+000
      vertex  1.066845e+001  5.179953e+000 -5.211483e+000
      vertex  1.106752e+001  5.514809e+000 -5.211483e+000
    endloop
  endfacet
  facet normal  0.000000e+000  0.000000e+000 -1.000000e+000
    outer loop
      vertex  1.500000e+001 -1.400000e+001 -5.211483e+000
      vertex  1.106752e+001  5.514809e+000 -5.211483e+000
      vertex  1.132799e+001  5.965961e+000 -5.211483e+000
    endloop
  endfacet
  facet normal  0.000000e+000  0.000000e+000 -1.000000e+000
    outer loop
      vertex  1.500000e+001 -1.400000e+001 -5.211483e+000
      vertex  1.132799e+001  5.965961e+000 -5.211483e+000
      vertex  1.141845e+001  6.478991e+000 -5.211483e+000
    endloop
  endfacet
  facet normal  0.000000e+000  0.000000e+000 -1.000000e+000
    outer loop
      vertex  1.500000e+001  1.400000e+001 -5.211483e+000
      vertex  1.500000e+001 -1.400000e+001 -5.211483e+000
      vertex  1.141845e+001  6.478991e+000 -5.211483e+000
    endloop
  endfacet
  facet normal  0.000000e+000  0.000000e+000 -1.000000e+000
    outer loop
      vertex  1.500000e+001  1.400000e+001 -5.211483e+000
      vertex  1.141845e+001  6.478991e+000 -5.211483e+000
      vertex  1.132799e+001  6.992021e+000 -5.211483e+000
    endloop
  endfacet
  facet normal  0.000000e+000  0.000000e+000 -9.999999e-001
    outer loop
      vertex  1.500000e+001  1.400000e+001 -5.211483e+000
      vertex  1.132799e+001  6.992021e+000 -5.211483e+000
      vertex  1.106752e+001  7.443172e+000 -5.211483e+000
    endloop
  endfacet
  facet normal  0.000000e+000  0.000000e+000 -1.000000e+000
    outer loop
      vertex  1.500000e+001  1.400000e+001 -5.211483e+000
      vertex  1.106752e+001  7.443172e+000 -5.211483e+000
      vertex  1.066845e+001  7.778028e+000 -5.211483e+000
    endloop
  endfacet
  facet normal  0.000000e+000  0.000000e+000 -9.999999e-001
    outer loop
      vertex  1.500000e+001  1.400000e+001 -5.211483e+000
      vertex  1.066845e+001  7.778028e+000 -5.211483e+000
      vertex  1.017892e+001  7.956202e+000 -5.211483e+000
    endloop
  endfacet
  facet normal  0.000000e+000  0.000000e+000 -1.000000e+000
    outer loop
      vertex  1.500000e+001  1.400000e+001 -5.211483e+000
      vertex  1.017892e+001  7.956202e+000 -5.211483e+000
      vertex  9.657977e+000  7.956202e+000 -5.211483e+000
    endloop
  endfacet
  facet normal  0.000000e+000  0.000000e+000 -1.000000e+000
    outer loop
      vertex  1.500000e+001  1.400000e+001 -5.211483e+000
      vertex  9.657977e+000  7.956202e+000 -5.211483e+000
      vertex  0.000000e+000  1.400000e+001 -5.211483e+000
    endloop
  endfacet
  facet normal  -0.000000e+000  0.000000e+000 -1.000000e+000
    outer loop
      vertex  0.000000e+000  1.400000e+001 -5.211483e+000
      vertex  9.657977e+000  7.956202e+000 -5.211483e+000
      vertex  9.168449e+000  7.778028e+000 -5.211483e+000
    endloop
  endfacet
  facet normal  -0.000000e+000  0.000000e+000 -1.000000e+000
    outer loop
      vertex  0.000000e+000  1.400000e+001 -5.211483e+000
      vertex  9.168449e+000  7.778028e+000 -5.211483e+000
      vertex  8.769382e+000  7.443172e+000 -5.211483e+000
    endloop
  endfacet
  facet normal  -0.000000e+000  0.000000e+000 -1.000000e+000
    outer loop
      vertex  0.000000e+000  1.400000e+001 -5.211483e+000
      vertex  8.769382e+000  7.443172e+000 -5.211483e+000
      vertex  8.508910e+000  6.992021e+000 -5.211483e+000
    endloop
  endfacet
  facet normal  -0.000000e+000  0.000000e+000 -1.000000e+000
    outer loop
      vertex  0.000000e+000  1.400000e+001 -5.211483e+000
      vertex  8.508910e+000  6.992021e+000 -5.211483e+000
      vertex  0.000000e+000 -1.400000e+001 -5.211483e+000
    endloop
  endfacet
endsolid CATIA STL
