solid CATIA STL
  facet normal  -0.000000e+000  0.000000e+000 -1.000000e+000
    outer loop
      vertex -2.900062e-001 -2.485820e+001  6.000000e+000
      vertex  2.713521e+000 -2.485820e+001  6.000000e+000
      vertex -4.905067e+000 -1.200000e+002  6.000000e+000
    endloop
  endfacet
  facet normal  0.000000e+000  0.000000e+000 -1.000000e+000
    outer loop
      vertex -4.905067e+000 -1.200000e+002  6.000000e+000
      vertex  2.713521e+000 -2.485820e+001  6.000000e+000
      vertex -1.756018e+000 -1.170000e+002  6.000000e+000
    endloop
  endfacet
  facet normal  0.000000e+000  -0.000000e+000 -1.000000e+000
    outer loop
      vertex -4.905067e+000 -1.200000e+002  6.000000e+000
      vertex -1.756018e+000 -1.170000e+002  6.000000e+000
      vertex  5.790507e+001 -1.200000e+002  6.000000e+000
    endloop
  endfacet
  facet normal  0.000000e+000  0.000000e+000 -1.000000e+000
    outer loop
      vertex  5.790507e+001 -1.200000e+002  6.000000e+000
      vertex -1.756018e+000 -1.170000e+002  6.000000e+000
      vertex  5.475602e+001 -1.170000e+002  6.000000e+000
    endloop
  endfacet
  facet normal  0.000000e+000  0.000000e+000 -1.000000e+000
    outer loop
      vertex  5.790507e+001 -1.200000e+002  6.000000e+000
      vertex  5.475602e+001 -1.170000e+002  6.000000e+000
      vertex  5.329000e+001 -2.485820e+001  6.000000e+000
    endloop
  endfacet
  facet normal  -0.000000e+000  -0.000000e+000 -1.000000e+000
    outer loop
      vertex  5.329000e+001 -2.485820e+001  6.000000e+000
      vertex  5.475602e+001 -1.170000e+002  6.000000e+000
      vertex  5.028648e+001 -2.485820e+001  6.000000e+000
    endloop
  endfacet
  facet normal  9.988256e-001  4.845020e-002  0.000000e+000
    outer loop
      vertex  4.626334e+001  1.200000e+002  6.000000e+000
      vertex  4.626334e+001  1.200000e+002  2.100000e+001
      vertex  5.329000e+001 -2.485820e+001  6.000000e+000
    endloop
  endfacet
  facet normal  9.988256e-001  4.845022e-002 -1.354744e-007
    outer loop
      vertex  5.329000e+001 -2.485820e+001  6.000000e+000
      vertex  4.626334e+001  1.200000e+002  2.100000e+001
      vertex  5.790507e+001 -1.200000e+002  2.100000e+001
    endloop
  endfacet
  facet normal  9.988256e-001  4.845024e-002  0.000000e+000
    outer loop
      vertex  5.329000e+001 -2.485820e+001  6.000000e+000
      vertex  5.790507e+001 -1.200000e+002  2.100000e+001
      vertex  5.790507e+001 -1.200000e+002  6.000000e+000
    endloop
  endfacet
  facet normal -9.988124e-001 -4.872255e-002  -0.000000e+000
    outer loop
      vertex  4.340546e+001  1.169975e+002  1.400000e+001
      vertex  4.340534e+001  1.170000e+002  1.400000e+001
      vertex  4.340534e+001  1.170000e+002  6.000000e+000
    endloop
  endfacet
  facet normal -9.988256e-001 -4.845022e-002  8.539119e-008
    outer loop
      vertex  4.340546e+001  1.169975e+002  1.400000e+001
      vertex  4.340534e+001  1.170000e+002  6.000000e+000
      vertex  5.028648e+001 -2.485820e+001  6.000000e+000
    endloop
  endfacet
  facet normal -9.988257e-001 -4.845021e-002 -1.111110e-007
    outer loop
      vertex  4.340546e+001  1.169975e+002  1.400000e+001
      vertex  5.028648e+001 -2.485820e+001  6.000000e+000
      vertex  5.055043e+001 -3.029962e+001  1.826353e+001
    endloop
  endfacet
  facet normal -9.988256e-001 -4.845025e-002 -1.979410e-006
    outer loop
      vertex  4.340546e+001  1.169975e+002  1.400000e+001
      vertex  5.055043e+001 -3.029962e+001  1.826353e+001
      vertex  4.995554e+001 -1.803575e+001  1.858811e+001
    endloop
  endfacet
  facet normal -9.988256e-001 -4.845018e-002  4.098032e-007
    outer loop
      vertex  4.340546e+001  1.169975e+002  1.400000e+001
      vertex  4.995554e+001 -1.803575e+001  1.858811e+001
      vertex  4.939407e+001 -6.460673e+000  1.888336e+001
    endloop
  endfacet
  facet normal -9.988256e-001 -4.845016e-002  9.392234e-007
    outer loop
      vertex  4.340546e+001  1.169975e+002  1.400000e+001
      vertex  4.939407e+001 -6.460673e+000  1.888336e+001
      vertex  4.889134e+001  3.903323e+000  1.899917e+001
    endloop
  endfacet
  facet normal -9.988256e-001 -4.845006e-002  3.128425e-006
    outer loop
      vertex  4.340546e+001  1.169975e+002  1.400000e+001
      vertex  4.889134e+001  3.903323e+000  1.899917e+001
      vertex  4.855757e+001  1.078412e+001  1.896424e+001
    endloop
  endfacet
  facet normal -9.988256e-001 -4.845080e-002 -1.258709e-005
    outer loop
      vertex  4.340546e+001  1.169975e+002  1.400000e+001
      vertex  4.855757e+001  1.078412e+001  1.896424e+001
      vertex  4.833554e+001  1.536143e+001  1.889423e+001
    endloop
  endfacet
  facet normal -9.988256e-001 -4.845029e-002 -2.229015e-006
    outer loop
      vertex  4.340546e+001  1.169975e+002  1.400000e+001
      vertex  4.833554e+001  1.536143e+001  1.889423e+001
      vertex  4.789150e+001  2.451550e+001  1.867206e+001
    endloop
  endfacet
  facet normal -9.988257e-001 -4.844987e-002  6.262309e-006
    outer loop
      vertex  4.340546e+001  1.169975e+002  1.400000e+001
      vertex  4.789150e+001  2.451550e+001  1.867206e+001
      vertex  4.713853e+001  4.003844e+001  1.822997e+001
    endloop
  endfacet
  facet normal -9.988256e-001 -4.845016e-002  1.050971e-006
    outer loop
      vertex  4.340546e+001  1.169975e+002  1.400000e+001
      vertex  4.713853e+001  4.003844e+001  1.822997e+001
      vertex  4.657325e+001  5.169201e+001  1.801342e+001
    endloop
  endfacet
  facet normal -9.988256e-001 -4.845040e-002 -2.809498e-006
    outer loop
      vertex  4.340546e+001  1.169975e+002  1.400000e+001
      vertex  4.657325e+001  5.169201e+001  1.801342e+001
      vertex  4.602125e+001  6.307161e+001  1.793708e+001
    endloop
  endfacet
  facet normal -9.988256e-001 -4.845040e-002 -2.945064e-006
    outer loop
      vertex  4.340546e+001  1.169975e+002  1.400000e+001
      vertex  4.602125e+001  6.307161e+001  1.793708e+001
      vertex  4.564641e+001  7.079917e+001  1.790071e+001
    endloop
  endfacet
  facet normal -9.988257e-001 -4.844959e-002  6.664604e-006
    outer loop
      vertex  4.340546e+001  1.169975e+002  1.400000e+001
      vertex  4.564641e+001  7.079917e+001  1.790071e+001
      vertex  4.545584e+001  7.472785e+001  1.786291e+001
    endloop
  endfacet
  facet normal -9.988256e-001 -4.845019e-002  0.000000e+000
    outer loop
      vertex  4.340546e+001  1.169975e+002  1.400000e+001
      vertex  4.545584e+001  7.472785e+001  1.786291e+001
      vertex  4.517401e+001  8.053792e+001  1.775769e+001
    endloop
  endfacet
  facet normal -9.988256e-001 -4.845081e-002 -5.874298e-006
    outer loop
      vertex  4.340546e+001  1.169975e+002  1.400000e+001
      vertex  4.517401e+001  8.053792e+001  1.775769e+001
      vertex  4.489261e+001  8.633913e+001  1.756896e+001
    endloop
  endfacet
  facet normal -9.988256e-001 -4.844956e-002  4.811187e-006
    outer loop
      vertex  4.340546e+001  1.169975e+002  1.400000e+001
      vertex  4.489261e+001  8.633913e+001  1.756896e+001
      vertex  4.466011e+001  9.113216e+001  1.733390e+001
    endloop
  endfacet
  facet normal -9.988256e-001 -4.844996e-002  1.717009e-006
    outer loop
      vertex  4.340546e+001  1.169975e+002  1.400000e+001
      vertex  4.466011e+001  9.113216e+001  1.733390e+001
      vertex  4.442796e+001  9.591816e+001  1.701729e+001
    endloop
  endfacet
  facet normal -9.988256e-001 -4.845018e-002  1.789901e-007
    outer loop
      vertex  4.340546e+001  1.169975e+002  1.400000e+001
      vertex  4.442796e+001  9.591816e+001  1.701729e+001
      vertex  4.408667e+001  1.029540e+002  1.638888e+001
    endloop
  endfacet
  facet normal -9.988254e-001 -4.845155e-002 -8.054933e-006
    outer loop
      vertex  4.340546e+001  1.169975e+002  1.400000e+001
      vertex  4.408667e+001  1.029540e+002  1.638888e+001
      vertex  4.374580e+001  1.099812e+002  1.555561e+001
    endloop
  endfacet
  facet normal -9.988257e-001 -4.844980e-002  0.000000e+000
    outer loop
      vertex  4.340546e+001  1.169975e+002  1.400000e+001
      vertex  4.374580e+001  1.099812e+002  1.555561e+001
      vertex  4.340546e+001  1.169975e+002  1.451196e+001
    endloop
  endfacet
  facet normal -9.988256e-001 -4.845022e-002  0.000000e+000
    outer loop
      vertex  5.028648e+001 -2.485820e+001  6.000000e+000
      vertex  5.475602e+001 -1.170000e+002  6.000000e+000
      vertex  5.475602e+001 -1.170000e+002  1.650000e+001
    endloop
  endfacet
  facet normal -9.988256e-001 -4.845023e-002 -3.743769e-008
    outer loop
      vertex  5.028648e+001 -2.485820e+001  6.000000e+000
      vertex  5.475602e+001 -1.170000e+002  1.650000e+001
      vertex  5.381567e+001 -9.761430e+001  1.650000e+001
    endloop
  endfacet
  facet normal -9.988256e-001 -4.845040e-002 -1.198968e-006
    outer loop
      vertex  5.028648e+001 -2.485820e+001  6.000000e+000
      vertex  5.381567e+001 -9.761430e+001  1.650000e+001
      vertex  5.342740e+001 -8.960994e+001  1.713567e+001
    endloop
  endfacet
  facet normal -9.988256e-001 -4.845015e-002  2.288454e-007
    outer loop
      vertex  5.028648e+001 -2.485820e+001  6.000000e+000
      vertex  5.342740e+001 -8.960994e+001  1.713567e+001
      vertex  5.304286e+001 -8.168235e+001  1.757225e+001
    endloop
  endfacet
  facet normal -9.988256e-001 -4.845026e-002 -3.454458e-007
    outer loop
      vertex  5.028648e+001 -2.485820e+001  6.000000e+000
      vertex  5.304286e+001 -8.168235e+001  1.757225e+001
      vertex  5.268539e+001 -7.431290e+001  1.781840e+001
    endloop
  endfacet
  facet normal -9.988256e-001 -4.845003e-002  6.052368e-007
    outer loop
      vertex  5.028648e+001 -2.485820e+001  6.000000e+000
      vertex  5.268539e+001 -7.431290e+001  1.781840e+001
      vertex  5.244596e+001 -6.937708e+001  1.791183e+001
    endloop
  endfacet
  facet normal -9.988256e-001 -4.845032e-002 -4.676912e-007
    outer loop
      vertex  5.028648e+001 -2.485820e+001  6.000000e+000
      vertex  5.244596e+001 -6.937708e+001  1.791183e+001
      vertex  5.196203e+001 -5.940059e+001  1.798741e+001
    endloop
  endfacet
  facet normal -9.988256e-001 -4.845027e-002 -3.076524e-007
    outer loop
      vertex  5.028648e+001 -2.485820e+001  6.000000e+000
      vertex  5.196203e+001 -5.940059e+001  1.798741e+001
      vertex  5.129262e+001 -4.560037e+001  1.803854e+001
    endloop
  endfacet
  facet normal -9.988257e-001 -4.845013e-002 -7.565336e-008
    outer loop
      vertex  5.028648e+001 -2.485820e+001  6.000000e+000
      vertex  5.129262e+001 -4.560037e+001  1.803854e+001
      vertex  5.055043e+001 -3.029962e+001  1.826353e+001
    endloop
  endfacet
  facet normal  0.000000e+000  1.000000e+000  0.000000e+000
    outer loop
      vertex -1.756018e+000 -1.170000e+002  1.650000e+001
      vertex  5.475602e+001 -1.170000e+002  1.650000e+001
      vertex -1.756018e+000 -1.170000e+002  6.000000e+000
    endloop
  endfacet
  facet normal  0.000000e+000  1.000000e+000  0.000000e+000
    outer loop
      vertex -1.756018e+000 -1.170000e+002  6.000000e+000
      vertex  5.475602e+001 -1.170000e+002  1.650000e+001
      vertex  5.475602e+001 -1.170000e+002  6.000000e+000
    endloop
  endfacet
  facet normal  0.000000e+000  -0.000000e+000 -1.000000e+000
    outer loop
      vertex -1.756018e+000 -1.170000e+002  1.650000e+001
      vertex -8.156728e-001 -9.761430e+001  1.650000e+001
      vertex  5.475602e+001 -1.170000e+002  1.650000e+001
    endloop
  endfacet
  facet normal  0.000000e+000  0.000000e+000 -1.000000e+000
    outer loop
      vertex  5.475602e+001 -1.170000e+002  1.650000e+001
      vertex -8.156728e-001 -9.761430e+001  1.650000e+001
      vertex  5.381567e+001 -9.761430e+001  1.650000e+001
    endloop
  endfacet
  facet normal  0.000000e+000 -1.000000e+000  0.000000e+000
    outer loop
      vertex  9.594542e+000  1.169975e+002  1.400000e+001
      vertex  2.650000e+001  1.169975e+002  1.400000e+001
      vertex  9.594542e+000  1.169975e+002  1.451196e+001
    endloop
  endfacet
  facet normal  0.000000e+000 -1.000000e+000  0.000000e+000
    outer loop
      vertex  9.594542e+000  1.169975e+002  1.451196e+001
      vertex  2.650000e+001  1.169975e+002  1.400000e+001
      vertex  4.340546e+001  1.169975e+002  1.400000e+001
    endloop
  endfacet
  facet normal  0.000000e+000 -1.000000e+000  0.000000e+000
    outer loop
      vertex  9.594542e+000  1.169975e+002  1.451196e+001
      vertex  4.340546e+001  1.169975e+002  1.400000e+001
      vertex  4.340546e+001  1.169975e+002  1.451196e+001
    endloop
  endfacet
  facet normal  -0.000000e+000 -1.471278e-001 -9.891174e-001
    outer loop
      vertex  9.594542e+000  1.169975e+002  1.451196e+001
      vertex  4.340546e+001  1.169975e+002  1.451196e+001
      vertex  9.254199e+000  1.099812e+002  1.555561e+001
    endloop
  endfacet
  facet normal  0.000000e+000 -1.471278e-001 -9.891175e-001
    outer loop
      vertex  9.254199e+000  1.099812e+002  1.555561e+001
      vertex  4.340546e+001  1.169975e+002  1.451196e+001
      vertex  4.374580e+001  1.099812e+002  1.555561e+001
    endloop
  endfacet
  facet normal  -0.000000e+000 -1.177530e-001 -9.930428e-001
    outer loop
      vertex  9.254199e+000  1.099812e+002  1.555561e+001
      vertex  4.374580e+001  1.099812e+002  1.555561e+001
      vertex  8.913332e+000  1.029540e+002  1.638888e+001
    endloop
  endfacet
  facet normal  0.000000e+000 -1.177530e-001 -9.930429e-001
    outer loop
      vertex  8.913332e+000  1.029540e+002  1.638888e+001
      vertex  4.374580e+001  1.099812e+002  1.555561e+001
      vertex  4.408667e+001  1.029540e+002  1.638888e+001
    endloop
  endfacet
  facet normal  -0.000000e+000 -8.896125e-002 -9.960350e-001
    outer loop
      vertex  8.913332e+000  1.029540e+002  1.638888e+001
      vertex  4.408667e+001  1.029540e+002  1.638888e+001
      vertex  8.572042e+000  9.591816e+001  1.701729e+001
    endloop
  endfacet
  facet normal  0.000000e+000 -8.896125e-002 -9.960350e-001
    outer loop
      vertex  8.572042e+000  9.591816e+001  1.701729e+001
      vertex  4.408667e+001  1.029540e+002  1.638888e+001
      vertex  4.442796e+001  9.591816e+001  1.701729e+001
    endloop
  endfacet
  facet normal  -0.000000e+000 -6.600872e-002 -9.978191e-001
    outer loop
      vertex  8.572042e+000  9.591816e+001  1.701729e+001
      vertex  4.442796e+001  9.591816e+001  1.701729e+001
      vertex  8.339887e+000  9.113216e+001  1.733390e+001
    endloop
  endfacet
  facet normal  0.000000e+000 -6.600872e-002 -9.978190e-001
    outer loop
      vertex  8.339887e+000  9.113216e+001  1.733390e+001
      vertex  4.442796e+001  9.591816e+001  1.701729e+001
      vertex  4.466011e+001  9.113216e+001  1.733390e+001
    endloop
  endfacet
  facet normal  -0.000000e+000 -4.898471e-002 -9.987996e-001
    outer loop
      vertex  8.339887e+000  9.113216e+001  1.733390e+001
      vertex  4.466011e+001  9.113216e+001  1.733390e+001
      vertex  8.107390e+000  8.633913e+001  1.756896e+001
    endloop
  endfacet
  facet normal  0.000000e+000 -4.898471e-002 -9.987995e-001
    outer loop
      vertex  8.107390e+000  8.633913e+001  1.756896e+001
      vertex  4.466011e+001  9.113216e+001  1.733390e+001
      vertex  4.489261e+001  8.633913e+001  1.756896e+001
    endloop
  endfacet
  facet normal  -0.000000e+000 -3.251440e-002 -9.994712e-001
    outer loop
      vertex  8.107390e+000  8.633913e+001  1.756896e+001
      vertex  4.489261e+001  8.633913e+001  1.756896e+001
      vertex  7.825990e+000  8.053792e+001  1.775769e+001
    endloop
  endfacet
  facet normal  0.000000e+000 -3.251440e-002 -9.994712e-001
    outer loop
      vertex  7.825990e+000  8.053792e+001  1.775769e+001
      vertex  4.489261e+001  8.633913e+001  1.756896e+001
      vertex  4.517401e+001  8.053792e+001  1.775769e+001
    endloop
  endfacet
  facet normal  -0.000000e+000 -1.810712e-002 -9.998361e-001
    outer loop
      vertex  7.825990e+000  8.053792e+001  1.775769e+001
      vertex  4.517401e+001  8.053792e+001  1.775769e+001
      vertex  7.544160e+000  7.472785e+001  1.786291e+001
    endloop
  endfacet
  facet normal  0.000000e+000 -1.810712e-002 -9.998360e-001
    outer loop
      vertex  7.544160e+000  7.472785e+001  1.786291e+001
      vertex  4.517401e+001  8.053792e+001  1.775769e+001
      vertex  4.545584e+001  7.472785e+001  1.786291e+001
    endloop
  endfacet
  facet normal  -0.000000e+000 -9.622520e-003 -9.999537e-001
    outer loop
      vertex  7.544160e+000  7.472785e+001  1.786291e+001
      vertex  4.545584e+001  7.472785e+001  1.786291e+001
      vertex  7.353590e+000  7.079917e+001  1.790071e+001
    endloop
  endfacet
  facet normal  0.000000e+000 -9.622521e-003 -9.999537e-001
    outer loop
      vertex  7.353590e+000  7.079917e+001  1.790071e+001
      vertex  4.545584e+001  7.472785e+001  1.786291e+001
      vertex  4.564641e+001  7.079917e+001  1.790071e+001
    endloop
  endfacet
  facet normal  -0.000000e+000 -4.706391e-003 -9.999890e-001
    outer loop
      vertex  7.353590e+000  7.079917e+001  1.790071e+001
      vertex  4.564641e+001  7.079917e+001  1.790071e+001
      vertex  6.978748e+000  6.307161e+001  1.793708e+001
    endloop
  endfacet
  facet normal  0.000000e+000 -4.706390e-003 -9.999890e-001
    outer loop
      vertex  6.978748e+000  6.307161e+001  1.793708e+001
      vertex  4.564641e+001  7.079917e+001  1.790071e+001
      vertex  4.602125e+001  6.307161e+001  1.793708e+001
    endloop
  endfacet
  facet normal  -0.000000e+000 -6.708317e-003 -9.999775e-001
    outer loop
      vertex  6.978748e+000  6.307161e+001  1.793708e+001
      vertex  4.602125e+001  6.307161e+001  1.793708e+001
      vertex  6.426756e+000  5.169201e+001  1.801342e+001
    endloop
  endfacet
  facet normal  0.000000e+000 -6.708318e-003 -9.999775e-001
    outer loop
      vertex  6.426756e+000  5.169201e+001  1.801342e+001
      vertex  4.602125e+001  6.307161e+001  1.793708e+001
      vertex  4.657325e+001  5.169201e+001  1.801342e+001
    endloop
  endfacet
  facet normal  -0.000000e+000 -1.857900e-002 -9.998273e-001
    outer loop
      vertex  6.426756e+000  5.169201e+001  1.801342e+001
      vertex  4.657325e+001  5.169201e+001  1.801342e+001
      vertex  5.861475e+000  4.003844e+001  1.822997e+001
    endloop
  endfacet
  facet normal  0.000000e+000 -1.857900e-002 -9.998274e-001
    outer loop
      vertex  5.861475e+000  4.003844e+001  1.822997e+001
      vertex  4.657325e+001  5.169201e+001  1.801342e+001
      vertex  4.713853e+001  4.003844e+001  1.822997e+001
    endloop
  endfacet
  facet normal  -0.000000e+000 -2.846830e-002 -9.995946e-001
    outer loop
      vertex  5.861475e+000  4.003844e+001  1.822997e+001
      vertex  4.713853e+001  4.003844e+001  1.822997e+001
      vertex  5.108500e+000  2.451550e+001  1.867206e+001
    endloop
  endfacet
  facet normal  0.000000e+000 -2.846830e-002 -9.995947e-001
    outer loop
      vertex  5.108500e+000  2.451550e+001  1.867206e+001
      vertex  4.713853e+001  4.003844e+001  1.822997e+001
      vertex  4.789150e+001  2.451550e+001  1.867206e+001
    endloop
  endfacet
  facet normal  -0.000000e+000 -2.426271e-002 -9.997056e-001
    outer loop
      vertex  5.108500e+000  2.451550e+001  1.867206e+001
      vertex  4.789150e+001  2.451550e+001  1.867206e+001
      vertex  4.664462e+000  1.536143e+001  1.889423e+001
    endloop
  endfacet
  facet normal  0.000000e+000 -2.426271e-002 -9.997056e-001
    outer loop
      vertex  4.664462e+000  1.536143e+001  1.889423e+001
      vertex  4.789150e+001  2.451550e+001  1.867206e+001
      vertex  4.833554e+001  1.536143e+001  1.889423e+001
    endloop
  endfacet
  facet normal  -0.000000e+000 -1.529345e-002 -9.998831e-001
    outer loop
      vertex  4.664462e+000  1.536143e+001  1.889423e+001
      vertex  4.833554e+001  1.536143e+001  1.889423e+001
      vertex  4.442430e+000  1.078412e+001  1.896424e+001
    endloop
  endfacet
  facet normal  0.000000e+000 -1.529345e-002 -9.998830e-001
    outer loop
      vertex  4.442430e+000  1.078412e+001  1.896424e+001
      vertex  4.833554e+001  1.536143e+001  1.889423e+001
      vertex  4.855757e+001  1.078412e+001  1.896424e+001
    endloop
  endfacet
  facet normal  -0.000000e+000 -5.075725e-003 -9.999871e-001
    outer loop
      vertex  4.442430e+000  1.078412e+001  1.896424e+001
      vertex  4.855757e+001  1.078412e+001  1.896424e+001
      vertex  4.108662e+000  3.903323e+000  1.899917e+001
    endloop
  endfacet
  facet normal  0.000000e+000 -5.075724e-003 -9.999871e-001
    outer loop
      vertex  4.108662e+000  3.903323e+000  1.899917e+001
      vertex  4.855757e+001  1.078412e+001  1.896424e+001
      vertex  4.889134e+001  3.903323e+000  1.899917e+001
    endloop
  endfacet
  facet normal  0.000000e+000  1.117323e-002 -9.999375e-001
    outer loop
      vertex  4.108662e+000  3.903323e+000  1.899917e+001
      vertex  4.889134e+001  3.903323e+000  1.899917e+001
      vertex  3.605933e+000 -6.460673e+000  1.888336e+001
    endloop
  endfacet
  facet normal  0.000000e+000  1.117323e-002 -9.999376e-001
    outer loop
      vertex  3.605933e+000 -6.460673e+000  1.888336e+001
      vertex  4.889134e+001  3.903323e+000  1.899917e+001
      vertex  4.939407e+001 -6.460673e+000  1.888336e+001
    endloop
  endfacet
  facet normal  0.000000e+000  2.549942e-002 -9.996747e-001
    outer loop
      vertex  3.605933e+000 -6.460673e+000  1.888336e+001
      vertex  4.939407e+001 -6.460673e+000  1.888336e+001
      vertex  3.044459e+000 -1.803575e+001  1.858811e+001
    endloop
  endfacet
  facet normal  0.000000e+000  2.549942e-002 -9.996748e-001
    outer loop
      vertex  3.044459e+000 -1.803575e+001  1.858811e+001
      vertex  4.939407e+001 -6.460673e+000  1.888336e+001
      vertex  4.995554e+001 -1.803575e+001  1.858811e+001
    endloop
  endfacet
  facet normal  0.000000e+000  2.645657e-002 -9.996499e-001
    outer loop
      vertex  3.044459e+000 -1.803575e+001  1.858811e+001
      vertex  4.995554e+001 -1.803575e+001  1.858811e+001
      vertex  2.449573e+000 -3.029962e+001  1.826353e+001
    endloop
  endfacet
  facet normal  0.000000e+000  2.645657e-002 -9.996500e-001
    outer loop
      vertex  2.449573e+000 -3.029962e+001  1.826353e+001
      vertex  4.995554e+001 -1.803575e+001  1.858811e+001
      vertex  5.055043e+001 -3.029962e+001  1.826353e+001
    endloop
  endfacet
  facet normal  0.000000e+000  1.470322e-002 -9.998920e-001
    outer loop
      vertex  2.449573e+000 -3.029962e+001  1.826353e+001
      vertex  5.055043e+001 -3.029962e+001  1.826353e+001
      vertex  1.707377e+000 -4.560037e+001  1.803854e+001
    endloop
  endfacet
  facet normal  0.000000e+000  1.470322e-002 -9.998919e-001
    outer loop
      vertex  1.707377e+000 -4.560037e+001  1.803854e+001
      vertex  5.055043e+001 -3.029962e+001  1.826353e+001
      vertex  5.129262e+001 -4.560037e+001  1.803854e+001
    endloop
  endfacet
  facet normal  0.000000e+000  3.704594e-003 -9.999931e-001
    outer loop
      vertex  1.707377e+000 -4.560037e+001  1.803854e+001
      vertex  5.129262e+001 -4.560037e+001  1.803854e+001
      vertex  1.037967e+000 -5.940059e+001  1.798741e+001
    endloop
  endfacet
  facet normal  0.000000e+000  3.704594e-003 -9.999931e-001
    outer loop
      vertex  1.037967e+000 -5.940059e+001  1.798741e+001
      vertex  5.129262e+001 -4.560037e+001  1.803854e+001
      vertex  5.196203e+001 -5.940059e+001  1.798741e+001
    endloop
  endfacet
  facet normal  0.000000e+000  7.575462e-003 -9.999713e-001
    outer loop
      vertex  1.037967e+000 -5.940059e+001  1.798741e+001
      vertex  5.196203e+001 -5.940059e+001  1.798741e+001
      vertex  5.540355e-001 -6.937708e+001  1.791183e+001
    endloop
  endfacet
  facet normal  0.000000e+000  7.575462e-003 -9.999714e-001
    outer loop
      vertex  5.540355e-001 -6.937708e+001  1.791183e+001
      vertex  5.196203e+001 -5.940059e+001  1.798741e+001
      vertex  5.244596e+001 -6.937708e+001  1.791183e+001
    endloop
  endfacet
  facet normal  0.000000e+000  1.892587e-002 -9.998208e-001
    outer loop
      vertex  5.540355e-001 -6.937708e+001  1.791183e+001
      vertex  5.244596e+001 -6.937708e+001  1.791183e+001
      vertex  3.146125e-001 -7.431290e+001  1.781840e+001
    endloop
  endfacet
  facet normal  0.000000e+000  1.892587e-002 -9.998209e-001
    outer loop
      vertex  3.146125e-001 -7.431290e+001  1.781840e+001
      vertex  5.244596e+001 -6.937708e+001  1.791183e+001
      vertex  5.268539e+001 -7.431290e+001  1.781840e+001
    endloop
  endfacet
  facet normal  0.000000e+000  3.338372e-002 -9.994426e-001
    outer loop
      vertex  3.146125e-001 -7.431290e+001  1.781840e+001
      vertex  5.268539e+001 -7.431290e+001  1.781840e+001
      vertex -4.285859e-002 -8.168235e+001  1.757225e+001
    endloop
  endfacet
  facet normal  0.000000e+000  3.338372e-002 -9.994426e-001
    outer loop
      vertex -4.285859e-002 -8.168235e+001  1.757225e+001
      vertex  5.268539e+001 -7.431290e+001  1.781840e+001
      vertex  5.304286e+001 -8.168235e+001  1.757225e+001
    endloop
  endfacet
  facet normal  0.000000e+000  5.498749e-002 -9.984871e-001
    outer loop
      vertex -4.285859e-002 -8.168235e+001  1.757225e+001
      vertex  5.304286e+001 -8.168235e+001  1.757225e+001
      vertex -4.274037e-001 -8.960994e+001  1.713567e+001
    endloop
  endfacet
  facet normal  0.000000e+000  5.498749e-002 -9.984871e-001
    outer loop
      vertex -4.274037e-001 -8.960994e+001  1.713567e+001
      vertex  5.304286e+001 -8.168235e+001  1.757225e+001
      vertex  5.342740e+001 -8.960994e+001  1.713567e+001
    endloop
  endfacet
  facet normal  0.000000e+000  7.916590e-002 -9.968614e-001
    outer loop
      vertex -4.274037e-001 -8.960994e+001  1.713567e+001
      vertex  5.342740e+001 -8.960994e+001  1.713567e+001
      vertex -8.156728e-001 -9.761430e+001  1.650000e+001
    endloop
  endfacet
  facet normal  0.000000e+000  7.916591e-002 -9.968615e-001
    outer loop
      vertex -8.156728e-001 -9.761430e+001  1.650000e+001
      vertex  5.342740e+001 -8.960994e+001  1.713567e+001
      vertex  5.381567e+001 -9.761430e+001  1.650000e+001
    endloop
  endfacet
  facet normal  0.000000e+000  0.000000e+000 -1.000000e+000
    outer loop
      vertex  4.340534e+001  1.170000e+002  1.400000e+001
      vertex  4.340546e+001  1.169975e+002  1.400000e+001
      vertex  2.650000e+001  1.169975e+002  1.400000e+001
    endloop
  endfacet
  facet normal  0.000000e+000  0.000000e+000 -9.999999e-001
    outer loop
      vertex  4.340534e+001  1.170000e+002  1.400000e+001
      vertex  2.650000e+001  1.169975e+002  1.400000e+001
      vertex  9.594542e+000  1.169975e+002  1.400000e+001
    endloop
  endfacet
  facet normal  0.000000e+000  0.000000e+000 -1.000000e+000
    outer loop
      vertex  4.340534e+001  1.170000e+002  1.400000e+001
      vertex  9.594542e+000  1.169975e+002  1.400000e+001
      vertex  9.594663e+000  1.170000e+002  1.400000e+001
    endloop
  endfacet
  facet normal -9.988256e-001  4.845022e-002  0.000000e+000
    outer loop
      vertex -4.905067e+000 -1.200000e+002  6.000000e+000
      vertex -4.905067e+000 -1.200000e+002  2.100000e+001
      vertex -2.900062e-001 -2.485820e+001  6.000000e+000
    endloop
  endfacet
  facet normal -9.988256e-001  4.845022e-002  0.000000e+000
    outer loop
      vertex -2.900062e-001 -2.485820e+001  6.000000e+000
      vertex -4.905067e+000 -1.200000e+002  2.100000e+001
      vertex  6.736657e+000  1.200000e+002  2.100000e+001
    endloop
  endfacet
  facet normal -9.988256e-001  4.845021e-002  0.000000e+000
    outer loop
      vertex -2.900062e-001 -2.485820e+001  6.000000e+000
      vertex  6.736657e+000  1.200000e+002  2.100000e+001
      vertex  6.736657e+000  1.200000e+002  6.000000e+000
    endloop
  endfacet
  facet normal  9.988309e-001 -4.834281e-002  0.000000e+000
    outer loop
      vertex  9.594663e+000  1.170000e+002  1.400000e+001
      vertex  9.594542e+000  1.169975e+002  1.400000e+001
      vertex  9.594663e+000  1.170000e+002  6.000000e+000
    endloop
  endfacet
  facet normal  9.988256e-001 -4.845022e-002 -3.367745e-008
    outer loop
      vertex  2.713521e+000 -2.485820e+001  6.000000e+000
      vertex  9.594663e+000  1.170000e+002  6.000000e+000
      vertex  9.594542e+000  1.169975e+002  1.400000e+001
    endloop
  endfacet
  facet normal  9.988256e-001 -4.845022e-002  0.000000e+000
    outer loop
      vertex  2.713521e+000 -2.485820e+001  6.000000e+000
      vertex  9.594542e+000  1.169975e+002  1.400000e+001
      vertex  3.044459e+000 -1.803575e+001  1.858811e+001
    endloop
  endfacet
  facet normal  9.988256e-001 -4.845022e-002  3.130016e-009
    outer loop
      vertex  2.713521e+000 -2.485820e+001  6.000000e+000
      vertex  3.044459e+000 -1.803575e+001  1.858811e+001
      vertex  2.449573e+000 -3.029962e+001  1.826353e+001
    endloop
  endfacet
  facet normal  9.988257e-001 -4.845022e-002  0.000000e+000
    outer loop
      vertex  2.713521e+000 -2.485820e+001  6.000000e+000
      vertex  2.449573e+000 -3.029962e+001  1.826353e+001
      vertex  1.707377e+000 -4.560037e+001  1.803854e+001
    endloop
  endfacet
  facet normal  9.988256e-001 -4.845021e-002  5.697267e-009
    outer loop
      vertex  2.713521e+000 -2.485820e+001  6.000000e+000
      vertex  1.707377e+000 -4.560037e+001  1.803854e+001
      vertex  1.037967e+000 -5.940059e+001  1.798741e+001
    endloop
  endfacet
  facet normal  9.988256e-001 -4.845020e-002  4.676912e-008
    outer loop
      vertex  2.713521e+000 -2.485820e+001  6.000000e+000
      vertex  1.037967e+000 -5.940059e+001  1.798741e+001
      vertex  5.540355e-001 -6.937708e+001  1.791183e+001
    endloop
  endfacet
  facet normal  9.988256e-001 -4.845025e-002 -1.513092e-007
    outer loop
      vertex  2.713521e+000 -2.485820e+001  6.000000e+000
      vertex  5.540355e-001 -6.937708e+001  1.791183e+001
      vertex  3.146125e-001 -7.431290e+001  1.781840e+001
    endloop
  endfacet
  facet normal  9.988256e-001 -4.845022e-002 -3.838287e-008
    outer loop
      vertex  2.713521e+000 -2.485820e+001  6.000000e+000
      vertex  3.146125e-001 -7.431290e+001  1.781840e+001
      vertex -4.285859e-002 -8.168235e+001  1.757225e+001
    endloop
  endfacet
  facet normal  9.988257e-001 -4.845022e-002 -3.269219e-008
    outer loop
      vertex  2.713521e+000 -2.485820e+001  6.000000e+000
      vertex -4.285859e-002 -8.168235e+001  1.757225e+001
      vertex -4.274037e-001 -8.960994e+001  1.713567e+001
    endloop
  endfacet
  facet normal  9.988256e-001 -4.845021e-002  4.386466e-008
    outer loop
      vertex  2.713521e+000 -2.485820e+001  6.000000e+000
      vertex -4.274037e-001 -8.960994e+001  1.713567e+001
      vertex -8.156728e-001 -9.761430e+001  1.650000e+001
    endloop
  endfacet
  facet normal  9.988256e-001 -4.845022e-002  7.487538e-008
    outer loop
      vertex  2.713521e+000 -2.485820e+001  6.000000e+000
      vertex -8.156728e-001 -9.761430e+001  1.650000e+001
      vertex -1.756018e+000 -1.170000e+002  1.650000e+001
    endloop
  endfacet
  facet normal  9.988256e-001 -4.845022e-002  0.000000e+000
    outer loop
      vertex  2.713521e+000 -2.485820e+001  6.000000e+000
      vertex -1.756018e+000 -1.170000e+002  1.650000e+001
      vertex -1.756018e+000 -1.170000e+002  6.000000e+000
    endloop
  endfacet
  facet normal  9.988256e-001 -4.845020e-002  0.000000e+000
    outer loop
      vertex  9.594542e+000  1.169975e+002  1.400000e+001
      vertex  9.594542e+000  1.169975e+002  1.451196e+001
      vertex  9.254199e+000  1.099812e+002  1.555561e+001
    endloop
  endfacet
  facet normal  9.988256e-001 -4.845024e-002 -1.404930e-007
    outer loop
      vertex  9.594542e+000  1.169975e+002  1.400000e+001
      vertex  9.254199e+000  1.099812e+002  1.555561e+001
      vertex  8.913332e+000  1.029540e+002  1.638888e+001
    endloop
  endfacet
  facet normal  9.988256e-001 -4.845018e-002  1.789901e-007
    outer loop
      vertex  9.594542e+000  1.169975e+002  1.400000e+001
      vertex  8.913332e+000  1.029540e+002  1.638888e+001
      vertex  8.572042e+000  9.591816e+001  1.701729e+001
    endloop
  endfacet
  facet normal  9.988255e-001 -4.845032e-002 -8.585045e-007
    outer loop
      vertex  9.594542e+000  1.169975e+002  1.400000e+001
      vertex  8.572042e+000  9.591816e+001  1.701729e+001
      vertex  8.339887e+000  9.113216e+001  1.733390e+001
    endloop
  endfacet
  facet normal  9.988256e-001 -4.845018e-002  3.367831e-007
    outer loop
      vertex  9.594542e+000  1.169975e+002  1.400000e+001
      vertex  8.339887e+000  9.113216e+001  1.733390e+001
      vertex  8.107390e+000  8.633913e+001  1.756896e+001
    endloop
  endfacet
  facet normal  9.988256e-001 -4.845032e-002 -8.939151e-007
    outer loop
      vertex  9.594542e+000  1.169975e+002  1.400000e+001
      vertex  8.107390e+000  8.633913e+001  1.756896e+001
      vertex  7.825990e+000  8.053792e+001  1.775769e+001
    endloop
  endfacet
  facet normal  9.988256e-001 -4.845018e-002  3.175869e-007
    outer loop
      vertex  9.594542e+000  1.169975e+002  1.400000e+001
      vertex  7.825990e+000  8.053792e+001  1.775769e+001
      vertex  7.544160e+000  7.472785e+001  1.786291e+001
    endloop
  endfacet
  facet normal  9.988256e-001 -4.845026e-002 -4.910760e-007
    outer loop
      vertex  9.594542e+000  1.169975e+002  1.400000e+001
      vertex  7.544160e+000  7.472785e+001  1.786291e+001
      vertex  7.353590e+000  7.079917e+001  1.790071e+001
    endloop
  endfacet
  facet normal  9.988256e-001 -4.845020e-002  2.677331e-007
    outer loop
      vertex  9.594542e+000  1.169975e+002  1.400000e+001
      vertex  7.353590e+000  7.079917e+001  1.790071e+001
      vertex  6.978748e+000  6.307161e+001  1.793708e+001
    endloop
  endfacet
  facet normal  9.988256e-001 -4.845020e-002  2.341248e-007
    outer loop
      vertex  9.594542e+000  1.169975e+002  1.400000e+001
      vertex  6.978748e+000  6.307161e+001  1.793708e+001
      vertex  6.426756e+000  5.169201e+001  1.801342e+001
    endloop
  endfacet
  facet normal  9.988256e-001 -4.845021e-002  0.000000e+000
    outer loop
      vertex  9.594542e+000  1.169975e+002  1.400000e+001
      vertex  6.426756e+000  5.169201e+001  1.801342e+001
      vertex  5.861475e+000  4.003844e+001  1.822997e+001
    endloop
  endfacet
  facet normal  9.988256e-001 -4.845024e-002 -4.817161e-007
    outer loop
      vertex  9.594542e+000  1.169975e+002  1.400000e+001
      vertex  5.861475e+000  4.003844e+001  1.822997e+001
      vertex  5.108500e+000  2.451550e+001  1.867206e+001
    endloop
  endfacet
  facet normal  9.988256e-001 -4.845016e-002  1.028776e-006
    outer loop
      vertex  9.594542e+000  1.169975e+002  1.400000e+001
      vertex  5.108500e+000  2.451550e+001  1.867206e+001
      vertex  4.664462e+000  1.536143e+001  1.889423e+001
    endloop
  endfacet
  facet normal  9.988256e-001 -4.845018e-002  9.969968e-007
    outer loop
      vertex  9.594542e+000  1.169975e+002  1.400000e+001
      vertex  4.664462e+000  1.536143e+001  1.889423e+001
      vertex  4.442430e+000  1.078412e+001  1.896424e+001
    endloop
  endfacet
  facet normal  9.988256e-001 -4.845021e-002  0.000000e+000
    outer loop
      vertex  9.594542e+000  1.169975e+002  1.400000e+001
      vertex  4.442430e+000  1.078412e+001  1.896424e+001
      vertex  4.108662e+000  3.903323e+000  1.899917e+001
    endloop
  endfacet
  facet normal  9.988256e-001 -4.845024e-002 -4.109102e-007
    outer loop
      vertex  9.594542e+000  1.169975e+002  1.400000e+001
      vertex  4.108662e+000  3.903323e+000  1.899917e+001
      vertex  3.605933e+000 -6.460673e+000  1.888336e+001
    endloop
  endfacet
  facet normal  9.988256e-001 -4.845021e-002  1.639213e-007
    outer loop
      vertex  9.594542e+000  1.169975e+002  1.400000e+001
      vertex  3.605933e+000 -6.460673e+000  1.888336e+001
      vertex  3.044459e+000 -1.803575e+001  1.858811e+001
    endloop
  endfacet
  facet normal  0.000000e+000  0.000000e+000 -9.999999e-001
    outer loop
      vertex  5.329000e+001 -2.485820e+001  6.000000e+000
      vertex  5.028648e+001 -2.485820e+001  6.000000e+000
      vertex  4.626334e+001  1.200000e+002  6.000000e+000
    endloop
  endfacet
  facet normal  0.000000e+000  -0.000000e+000 -1.000000e+000
    outer loop
      vertex  4.626334e+001  1.200000e+002  6.000000e+000
      vertex  5.028648e+001 -2.485820e+001  6.000000e+000
      vertex  4.340534e+001  1.170000e+002  6.000000e+000
    endloop
  endfacet
  facet normal  0.000000e+000  0.000000e+000 -1.000000e+000
    outer loop
      vertex  4.626334e+001  1.200000e+002  6.000000e+000
      vertex  4.340534e+001  1.170000e+002  6.000000e+000
      vertex  6.736657e+000  1.200000e+002  6.000000e+000
    endloop
  endfacet
  facet normal  0.000000e+000  0.000000e+000 -1.000000e+000
    outer loop
      vertex  6.736657e+000  1.200000e+002  6.000000e+000
      vertex  4.340534e+001  1.170000e+002  6.000000e+000
      vertex  9.594663e+000  1.170000e+002  6.000000e+000
    endloop
  endfacet
  facet normal  -0.000000e+000  0.000000e+000 -1.000000e+000
    outer loop
      vertex  6.736657e+000  1.200000e+002  6.000000e+000
      vertex  9.594663e+000  1.170000e+002  6.000000e+000
      vertex -2.900062e-001 -2.485820e+001  6.000000e+000
    endloop
  endfacet
  facet normal  0.000000e+000  0.000000e+000 -1.000000e+000
    outer loop
      vertex -2.900062e-001 -2.485820e+001  6.000000e+000
      vertex  9.594663e+000  1.170000e+002  6.000000e+000
      vertex  2.713521e+000 -2.485820e+001  6.000000e+000
    endloop
  endfacet
  facet normal  0.000000e+000  1.000000e+000  0.000000e+000
    outer loop
      vertex  6.736657e+000  1.200000e+002  2.100000e+001
      vertex  4.626334e+001  1.200000e+002  2.100000e+001
      vertex  6.736657e+000  1.200000e+002  6.000000e+000
    endloop
  endfacet
  facet normal  0.000000e+000  1.000000e+000  0.000000e+000
    outer loop
      vertex  6.736657e+000  1.200000e+002  6.000000e+000
      vertex  4.626334e+001  1.200000e+002  2.100000e+001
      vertex  4.626334e+001  1.200000e+002  6.000000e+000
    endloop
  endfacet
  facet normal  0.000000e+000 -1.000000e+000  0.000000e+000
    outer loop
      vertex -4.905067e+000 -1.200000e+002  2.100000e+001
      vertex -4.905067e+000 -1.200000e+002  6.000000e+000
      vertex  5.790507e+001 -1.200000e+002  2.100000e+001
    endloop
  endfacet
  facet normal  0.000000e+000 -1.000000e+000  -0.000000e+000
    outer loop
      vertex  5.790507e+001 -1.200000e+002  2.100000e+001
      vertex -4.905067e+000 -1.200000e+002  6.000000e+000
      vertex  5.790507e+001 -1.200000e+002  6.000000e+000
    endloop
  endfacet
  facet normal  0.000000e+000 -1.000000e+000  0.000000e+000
    outer loop
      vertex  9.594663e+000  1.170000e+002  1.400000e+001
      vertex  9.594663e+000  1.170000e+002  6.000000e+000
      vertex  4.340534e+001  1.170000e+002  1.400000e+001
    endloop
  endfacet
  facet normal  0.000000e+000 -1.000000e+000  -0.000000e+000
    outer loop
      vertex  4.340534e+001  1.170000e+002  1.400000e+001
      vertex  9.594663e+000  1.170000e+002  6.000000e+000
      vertex  4.340534e+001  1.170000e+002  6.000000e+000
    endloop
  endfacet
  facet normal  0.000000e+000  0.000000e+000  1.000000e+000
    outer loop
      vertex  5.790507e+001 -1.200000e+002  2.100000e+001
      vertex  4.626334e+001  1.200000e+002  2.100000e+001
      vertex -4.905067e+000 -1.200000e+002  2.100000e+001
    endloop
  endfacet
  facet normal  0.000000e+000  0.000000e+000  1.000000e+000
    outer loop
      vertex -4.905067e+000 -1.200000e+002  2.100000e+001
      vertex  4.626334e+001  1.200000e+002  2.100000e+001
      vertex  6.736657e+000  1.200000e+002  2.100000e+001
    endloop
  endfacet
endsolid CATIA STL
