solid CATIA STL
  facet normal  1.000000e+000  0.000000e+000  0.000000e+000
    outer loop
      vertex  4.000000e+000  2.500000e+000 -2.388820e+000
      vertex  4.000000e+000  2.500000e+000  0.000000e+000
      vertex  4.000000e+000  1.000000e+000  0.000000e+000
    endloop
  endfacet
  facet normal  1.000000e+000  0.000000e+000  0.000000e+000
    outer loop
      vertex  4.000000e+000  2.500000e+000 -2.388820e+000
      vertex  4.000000e+000  1.000000e+000  0.000000e+000
      vertex  4.000000e+000  9.009688e-001 -4.338837e-001
    endloop
  endfacet
  facet normal  1.000000e+000  0.000000e+000  0.000000e+000
    outer loop
      vertex  4.000000e+000  2.500000e+000 -2.388820e+000
      vertex  4.000000e+000  9.009688e-001 -4.338837e-001
      vertex  4.000000e+000  6.234898e-001 -7.818315e-001
    endloop
  endfacet
  facet normal  1.000000e+000  0.000000e+000  0.000000e+000
    outer loop
      vertex  4.000000e+000  2.500000e+000 -2.388820e+000
      vertex  4.000000e+000  6.234898e-001 -7.818315e-001
      vertex  4.000000e+000  2.225209e-001 -9.749279e-001
    endloop
  endfacet
  facet normal  1.000000e+000  0.000000e+000  0.000000e+000
    outer loop
      vertex  4.000000e+000  2.500000e+000 -2.388820e+000
      vertex  4.000000e+000  2.225209e-001 -9.749279e-001
      vertex  4.000000e+000 -2.225209e-001 -9.749279e-001
    endloop
  endfacet
  facet normal  1.000000e+000  0.000000e+000  0.000000e+000
    outer loop
      vertex  4.000000e+000  2.500000e+000 -2.388820e+000
      vertex  4.000000e+000 -2.225209e-001 -9.749279e-001
      vertex  4.000000e+000 -2.500000e+000 -2.388820e+000
    endloop
  endfacet
  facet normal  1.000000e+000  0.000000e+000  0.000000e+000
    outer loop
      vertex  4.000000e+000 -2.500000e+000 -2.388820e+000
      vertex  4.000000e+000 -2.225209e-001 -9.749279e-001
      vertex  4.000000e+000 -6.234898e-001 -7.818315e-001
    endloop
  endfacet
  facet normal  1.000000e+000  0.000000e+000  0.000000e+000
    outer loop
      vertex  4.000000e+000 -2.500000e+000 -2.388820e+000
      vertex  4.000000e+000 -6.234898e-001 -7.818315e-001
      vertex  4.000000e+000 -9.009688e-001 -4.338837e-001
    endloop
  endfacet
  facet normal  9.999999e-001  0.000000e+000  0.000000e+000
    outer loop
      vertex  4.000000e+000 -2.500000e+000 -2.388820e+000
      vertex  4.000000e+000 -9.009688e-001 -4.338837e-001
      vertex  4.000000e+000 -1.000000e+000  1.224647e-016
    endloop
  endfacet
  facet normal  1.000000e+000  0.000000e+000  0.000000e+000
    outer loop
      vertex  4.000000e+000 -2.500000e+000 -2.388820e+000
      vertex  4.000000e+000 -1.000000e+000  1.224647e-016
      vertex  4.000000e+000 -2.500000e+000  0.000000e+000
    endloop
  endfacet
  facet normal  1.000000e+000  0.000000e+000  0.000000e+000
    outer loop
      vertex  4.000000e+000 -1.038538e+000  2.274080e+000
      vertex  4.000000e+000 -1.637152e+000  1.889374e+000
      vertex  4.000000e+000 -3.557871e-001  2.474554e+000
    endloop
  endfacet
  facet normal  1.000000e+000  0.000000e+000  0.000000e+000
    outer loop
      vertex  4.000000e+000 -3.557871e-001  2.474554e+000
      vertex  4.000000e+000 -1.637152e+000  1.889374e+000
      vertex  4.000000e+000 -2.103134e+000  1.351602e+000
    endloop
  endfacet
  facet normal  1.000000e+000  -0.000000e+000  0.000000e+000
    outer loop
      vertex  4.000000e+000 -3.557871e-001  2.474554e+000
      vertex  4.000000e+000 -2.103134e+000  1.351602e+000
      vertex  4.000000e+000 -2.225209e-001  9.749279e-001
    endloop
  endfacet
  facet normal  1.000000e+000  0.000000e+000  -0.000000e+000
    outer loop
      vertex  4.000000e+000 -3.557871e-001  2.474554e+000
      vertex  4.000000e+000 -2.225209e-001  9.749279e-001
      vertex  4.000000e+000  3.557871e-001  2.474554e+000
    endloop
  endfacet
  facet normal  1.000000e+000  0.000000e+000  0.000000e+000
    outer loop
      vertex  4.000000e+000  3.557871e-001  2.474554e+000
      vertex  4.000000e+000 -2.225209e-001  9.749279e-001
      vertex  4.000000e+000  2.225209e-001  9.749279e-001
    endloop
  endfacet
  facet normal  1.000000e+000  0.000000e+000  0.000000e+000
    outer loop
      vertex  4.000000e+000  3.557871e-001  2.474554e+000
      vertex  4.000000e+000  2.225209e-001  9.749279e-001
      vertex  4.000000e+000  1.038538e+000  2.274080e+000
    endloop
  endfacet
  facet normal  1.000000e+000  0.000000e+000  0.000000e+000
    outer loop
      vertex  4.000000e+000  1.637152e+000  1.889374e+000
      vertex  4.000000e+000  1.038538e+000  2.274080e+000
      vertex  4.000000e+000  2.103134e+000  1.351602e+000
    endloop
  endfacet
  facet normal  1.000000e+000  0.000000e+000  0.000000e+000
    outer loop
      vertex  4.000000e+000  2.103134e+000  1.351602e+000
      vertex  4.000000e+000  1.038538e+000  2.274080e+000
      vertex  4.000000e+000  2.225209e-001  9.749279e-001
    endloop
  endfacet
  facet normal  1.000000e+000  -0.000000e+000  0.000000e+000
    outer loop
      vertex  4.000000e+000  2.103134e+000  1.351602e+000
      vertex  4.000000e+000  2.225209e-001  9.749279e-001
      vertex  4.000000e+000  2.398732e+000  7.043314e-001
    endloop
  endfacet
  facet normal  1.000000e+000  0.000000e+000  0.000000e+000
    outer loop
      vertex  4.000000e+000  2.398732e+000  7.043314e-001
      vertex  4.000000e+000  2.225209e-001  9.749279e-001
      vertex  4.000000e+000  6.234898e-001  7.818315e-001
    endloop
  endfacet
  facet normal  1.000000e+000  0.000000e+000  0.000000e+000
    outer loop
      vertex  4.000000e+000  2.398732e+000  7.043314e-001
      vertex  4.000000e+000  6.234898e-001  7.818315e-001
      vertex  4.000000e+000  2.500000e+000  0.000000e+000
    endloop
  endfacet
  facet normal  1.000000e+000  0.000000e+000  0.000000e+000
    outer loop
      vertex  4.000000e+000  2.500000e+000  0.000000e+000
      vertex  4.000000e+000  6.234898e-001  7.818315e-001
      vertex  4.000000e+000  9.009688e-001  4.338837e-001
    endloop
  endfacet
  facet normal  1.000000e+000  0.000000e+000  0.000000e+000
    outer loop
      vertex  4.000000e+000  2.500000e+000  0.000000e+000
      vertex  4.000000e+000  9.009688e-001  4.338837e-001
      vertex  4.000000e+000  1.000000e+000  0.000000e+000
    endloop
  endfacet
  facet normal  1.000000e+000  0.000000e+000  0.000000e+000
    outer loop
      vertex  4.000000e+000 -2.225209e-001  9.749279e-001
      vertex  4.000000e+000 -2.103134e+000  1.351602e+000
      vertex  4.000000e+000 -6.234898e-001  7.818315e-001
    endloop
  endfacet
  facet normal  1.000000e+000  0.000000e+000  0.000000e+000
    outer loop
      vertex  4.000000e+000 -6.234898e-001  7.818315e-001
      vertex  4.000000e+000 -2.103134e+000  1.351602e+000
      vertex  4.000000e+000 -2.398732e+000  7.043314e-001
    endloop
  endfacet
  facet normal  1.000000e+000  -0.000000e+000  0.000000e+000
    outer loop
      vertex  4.000000e+000 -6.234898e-001  7.818315e-001
      vertex  4.000000e+000 -2.398732e+000  7.043314e-001
      vertex  4.000000e+000 -9.009688e-001  4.338837e-001
    endloop
  endfacet
  facet normal  1.000000e+000  0.000000e+000  0.000000e+000
    outer loop
      vertex  4.000000e+000 -9.009688e-001  4.338837e-001
      vertex  4.000000e+000 -2.398732e+000  7.043314e-001
      vertex  4.000000e+000 -2.500000e+000  0.000000e+000
    endloop
  endfacet
  facet normal  1.000000e+000  0.000000e+000  0.000000e+000
    outer loop
      vertex  4.000000e+000 -9.009688e-001  4.338837e-001
      vertex  4.000000e+000 -2.500000e+000  0.000000e+000
      vertex  4.000000e+000 -1.000000e+000  1.224647e-016
    endloop
  endfacet
  facet normal -1.000000e+000  0.000000e+000  0.000000e+000
    outer loop
      vertex  0.000000e+000  2.500000e+000 -2.388820e+000
      vertex  0.000000e+000 -2.500000e+000 -2.388820e+000
      vertex  0.000000e+000 -2.225209e-001 -9.749279e-001
    endloop
  endfacet
  facet normal -1.000000e+000  0.000000e+000  0.000000e+000
    outer loop
      vertex  0.000000e+000  2.500000e+000 -2.388820e+000
      vertex  0.000000e+000 -2.225209e-001 -9.749279e-001
      vertex  0.000000e+000  2.225209e-001 -9.749279e-001
    endloop
  endfacet
  facet normal -1.000000e+000  0.000000e+000  0.000000e+000
    outer loop
      vertex  0.000000e+000  2.500000e+000 -2.388820e+000
      vertex  0.000000e+000  2.225209e-001 -9.749279e-001
      vertex  0.000000e+000  6.234898e-001 -7.818315e-001
    endloop
  endfacet
  facet normal -1.000000e+000  0.000000e+000  0.000000e+000
    outer loop
      vertex  0.000000e+000  2.500000e+000 -2.388820e+000
      vertex  0.000000e+000  6.234898e-001 -7.818315e-001
      vertex  0.000000e+000  9.009688e-001 -4.338837e-001
    endloop
  endfacet
  facet normal -9.999999e-001  0.000000e+000  0.000000e+000
    outer loop
      vertex  0.000000e+000  2.500000e+000 -2.388820e+000
      vertex  0.000000e+000  9.009688e-001 -4.338837e-001
      vertex  0.000000e+000  1.000000e+000  0.000000e+000
    endloop
  endfacet
  facet normal -1.000000e+000  0.000000e+000  0.000000e+000
    outer loop
      vertex  0.000000e+000  2.500000e+000 -2.388820e+000
      vertex  0.000000e+000  1.000000e+000  0.000000e+000
      vertex  0.000000e+000  2.500000e+000  0.000000e+000
    endloop
  endfacet
  facet normal -1.000000e+000  0.000000e+000  0.000000e+000
    outer loop
      vertex  0.000000e+000 -2.500000e+000 -2.388820e+000
      vertex  0.000000e+000 -2.500000e+000  0.000000e+000
      vertex  0.000000e+000 -1.000000e+000  1.224647e-016
    endloop
  endfacet
  facet normal -1.000000e+000  0.000000e+000  -0.000000e+000
    outer loop
      vertex  0.000000e+000 -2.500000e+000 -2.388820e+000
      vertex  0.000000e+000 -1.000000e+000  1.224647e-016
      vertex  0.000000e+000 -9.009688e-001 -4.338837e-001
    endloop
  endfacet
  facet normal -1.000000e+000  0.000000e+000  -0.000000e+000
    outer loop
      vertex  0.000000e+000 -2.500000e+000 -2.388820e+000
      vertex  0.000000e+000 -9.009688e-001 -4.338837e-001
      vertex  0.000000e+000 -6.234898e-001 -7.818315e-001
    endloop
  endfacet
  facet normal -1.000000e+000  0.000000e+000  -0.000000e+000
    outer loop
      vertex  0.000000e+000 -2.500000e+000 -2.388820e+000
      vertex  0.000000e+000 -6.234898e-001 -7.818315e-001
      vertex  0.000000e+000 -2.225209e-001 -9.749279e-001
    endloop
  endfacet
  facet normal -1.000000e+000  0.000000e+000  0.000000e+000
    outer loop
      vertex  0.000000e+000 -2.225209e-001  9.749279e-001
      vertex  0.000000e+000 -2.103134e+000  1.351602e+000
      vertex  0.000000e+000 -3.557871e-001  2.474554e+000
    endloop
  endfacet
  facet normal -1.000000e+000  0.000000e+000  0.000000e+000
    outer loop
      vertex  0.000000e+000 -3.557871e-001  2.474554e+000
      vertex  0.000000e+000 -2.103134e+000  1.351602e+000
      vertex  0.000000e+000 -1.637152e+000  1.889374e+000
    endloop
  endfacet
  facet normal -1.000000e+000  0.000000e+000  0.000000e+000
    outer loop
      vertex  0.000000e+000 -3.557871e-001  2.474554e+000
      vertex  0.000000e+000 -1.637152e+000  1.889374e+000
      vertex  0.000000e+000 -1.038538e+000  2.274080e+000
    endloop
  endfacet
  facet normal -1.000000e+000  0.000000e+000  0.000000e+000
    outer loop
      vertex  0.000000e+000  1.038538e+000  2.274080e+000
      vertex  0.000000e+000  2.225209e-001  9.749279e-001
      vertex  0.000000e+000  3.557871e-001  2.474554e+000
    endloop
  endfacet
  facet normal -1.000000e+000  0.000000e+000  0.000000e+000
    outer loop
      vertex  0.000000e+000  3.557871e-001  2.474554e+000
      vertex  0.000000e+000  2.225209e-001  9.749279e-001
      vertex  0.000000e+000 -2.225209e-001  9.749279e-001
    endloop
  endfacet
  facet normal -1.000000e+000  0.000000e+000  0.000000e+000
    outer loop
      vertex  0.000000e+000  3.557871e-001  2.474554e+000
      vertex  0.000000e+000 -2.225209e-001  9.749279e-001
      vertex  0.000000e+000 -3.557871e-001  2.474554e+000
    endloop
  endfacet
  facet normal -1.000000e+000  0.000000e+000  0.000000e+000
    outer loop
      vertex  0.000000e+000  1.000000e+000  0.000000e+000
      vertex  0.000000e+000  9.009688e-001  4.338837e-001
      vertex  0.000000e+000  2.500000e+000  0.000000e+000
    endloop
  endfacet
  facet normal -1.000000e+000  0.000000e+000  0.000000e+000
    outer loop
      vertex  0.000000e+000  2.500000e+000  0.000000e+000
      vertex  0.000000e+000  9.009688e-001  4.338837e-001
      vertex  0.000000e+000  6.234898e-001  7.818315e-001
    endloop
  endfacet
  facet normal -1.000000e+000  0.000000e+000  0.000000e+000
    outer loop
      vertex  0.000000e+000  2.500000e+000  0.000000e+000
      vertex  0.000000e+000  6.234898e-001  7.818315e-001
      vertex  0.000000e+000  2.398732e+000  7.043314e-001
    endloop
  endfacet
  facet normal -1.000000e+000  0.000000e+000  0.000000e+000
    outer loop
      vertex  0.000000e+000  2.398732e+000  7.043314e-001
      vertex  0.000000e+000  6.234898e-001  7.818315e-001
      vertex  0.000000e+000  2.225209e-001  9.749279e-001
    endloop
  endfacet
  facet normal -1.000000e+000  0.000000e+000  0.000000e+000
    outer loop
      vertex  0.000000e+000  2.398732e+000  7.043314e-001
      vertex  0.000000e+000  2.225209e-001  9.749279e-001
      vertex  0.000000e+000  2.103134e+000  1.351602e+000
    endloop
  endfacet
  facet normal -1.000000e+000  -0.000000e+000  0.000000e+000
    outer loop
      vertex  0.000000e+000  2.103134e+000  1.351602e+000
      vertex  0.000000e+000  2.225209e-001  9.749279e-001
      vertex  0.000000e+000  1.038538e+000  2.274080e+000
    endloop
  endfacet
  facet normal -1.000000e+000  0.000000e+000  0.000000e+000
    outer loop
      vertex  0.000000e+000  2.103134e+000  1.351602e+000
      vertex  0.000000e+000  1.038538e+000  2.274080e+000
      vertex  0.000000e+000  1.637152e+000  1.889374e+000
    endloop
  endfacet
  facet normal -1.000000e+000  0.000000e+000  0.000000e+000
    outer loop
      vertex  0.000000e+000 -1.000000e+000  1.224647e-016
      vertex  0.000000e+000 -2.500000e+000  0.000000e+000
      vertex  0.000000e+000 -9.009688e-001  4.338837e-001
    endloop
  endfacet
  facet normal -1.000000e+000  -0.000000e+000  0.000000e+000
    outer loop
      vertex  0.000000e+000 -9.009688e-001  4.338837e-001
      vertex  0.000000e+000 -2.500000e+000  0.000000e+000
      vertex  0.000000e+000 -2.398732e+000  7.043314e-001
    endloop
  endfacet
  facet normal -1.000000e+000  0.000000e+000  0.000000e+000
    outer loop
      vertex  0.000000e+000 -9.009688e-001  4.338837e-001
      vertex  0.000000e+000 -2.398732e+000  7.043314e-001
      vertex  0.000000e+000 -6.234898e-001  7.818315e-001
    endloop
  endfacet
  facet normal -1.000000e+000  -0.000000e+000  0.000000e+000
    outer loop
      vertex  0.000000e+000 -6.234898e-001  7.818315e-001
      vertex  0.000000e+000 -2.398732e+000  7.043314e-001
      vertex  0.000000e+000 -2.103134e+000  1.351602e+000
    endloop
  endfacet
  facet normal -1.000000e+000  0.000000e+000  0.000000e+000
    outer loop
      vertex  0.000000e+000 -6.234898e-001  7.818315e-001
      vertex  0.000000e+000 -2.103134e+000  1.351602e+000
      vertex  0.000000e+000 -2.225209e-001  9.749279e-001
    endloop
  endfacet
  facet normal  0.000000e+000  4.338837e-001 -9.009688e-001
    outer loop
      vertex  0.000000e+000 -2.225209e-001  9.749279e-001
      vertex  4.000000e+000 -6.234898e-001  7.818315e-001
      vertex  0.000000e+000 -6.234898e-001  7.818315e-001
    endloop
  endfacet
  facet normal  0.000000e+000  7.818315e-001 -6.234897e-001
    outer loop
      vertex  0.000000e+000 -6.234898e-001  7.818315e-001
      vertex  4.000000e+000 -6.234898e-001  7.818315e-001
      vertex  4.000000e+000 -9.009688e-001  4.338837e-001
    endloop
  endfacet
  facet normal  0.000000e+000  7.818315e-001 -6.234897e-001
    outer loop
      vertex  0.000000e+000 -6.234898e-001  7.818315e-001
      vertex  4.000000e+000 -9.009688e-001  4.338837e-001
      vertex  0.000000e+000 -9.009688e-001  4.338837e-001
    endloop
  endfacet
  facet normal  0.000000e+000  9.749279e-001 -2.225210e-001
    outer loop
      vertex  0.000000e+000 -9.009688e-001  4.338837e-001
      vertex  4.000000e+000 -9.009688e-001  4.338837e-001
      vertex  4.000000e+000 -1.000000e+000  1.224647e-016
    endloop
  endfacet
  facet normal  0.000000e+000  9.749279e-001 -2.225210e-001
    outer loop
      vertex  0.000000e+000 -9.009688e-001  4.338837e-001
      vertex  4.000000e+000 -1.000000e+000  1.224647e-016
      vertex  0.000000e+000 -1.000000e+000  1.224647e-016
    endloop
  endfacet
  facet normal  0.000000e+000  4.338837e-001 -9.009688e-001
    outer loop
      vertex  4.000000e+000 -6.234898e-001  7.818315e-001
      vertex  0.000000e+000 -2.225209e-001  9.749279e-001
      vertex  4.000000e+000 -2.225209e-001  9.749279e-001
    endloop
  endfacet
  facet normal  0.000000e+000  0.000000e+000 -1.000000e+000
    outer loop
      vertex  4.000000e+000 -2.225209e-001  9.749279e-001
      vertex  0.000000e+000 -2.225209e-001  9.749279e-001
      vertex  0.000000e+000  2.225209e-001  9.749279e-001
    endloop
  endfacet
  facet normal  0.000000e+000  0.000000e+000 -1.000000e+000
    outer loop
      vertex  4.000000e+000 -2.225209e-001  9.749279e-001
      vertex  0.000000e+000  2.225209e-001  9.749279e-001
      vertex  4.000000e+000  2.225209e-001  9.749279e-001
    endloop
  endfacet
  facet normal  -0.000000e+000 -4.338837e-001 -9.009688e-001
    outer loop
      vertex  4.000000e+000  2.225209e-001  9.749279e-001
      vertex  0.000000e+000  2.225209e-001  9.749279e-001
      vertex  0.000000e+000  6.234898e-001  7.818315e-001
    endloop
  endfacet
  facet normal  0.000000e+000 -4.338837e-001 -9.009688e-001
    outer loop
      vertex  4.000000e+000  2.225209e-001  9.749279e-001
      vertex  0.000000e+000  6.234898e-001  7.818315e-001
      vertex  4.000000e+000  6.234898e-001  7.818315e-001
    endloop
  endfacet
  facet normal  -0.000000e+000 -7.818315e-001 -6.234897e-001
    outer loop
      vertex  4.000000e+000  6.234898e-001  7.818315e-001
      vertex  0.000000e+000  6.234898e-001  7.818315e-001
      vertex  0.000000e+000  9.009688e-001  4.338837e-001
    endloop
  endfacet
  facet normal  0.000000e+000 -7.818315e-001 -6.234897e-001
    outer loop
      vertex  4.000000e+000  6.234898e-001  7.818315e-001
      vertex  0.000000e+000  9.009688e-001  4.338837e-001
      vertex  4.000000e+000  9.009688e-001  4.338837e-001
    endloop
  endfacet
  facet normal  -0.000000e+000 -9.749279e-001 -2.225210e-001
    outer loop
      vertex  4.000000e+000  9.009688e-001  4.338837e-001
      vertex  0.000000e+000  9.009688e-001  4.338837e-001
      vertex  0.000000e+000  1.000000e+000  0.000000e+000
    endloop
  endfacet
  facet normal  0.000000e+000 -9.749279e-001 -2.225210e-001
    outer loop
      vertex  4.000000e+000  9.009688e-001  4.338837e-001
      vertex  0.000000e+000  1.000000e+000  0.000000e+000
      vertex  4.000000e+000  1.000000e+000  0.000000e+000
    endloop
  endfacet
  facet normal  0.000000e+000 -4.338837e-001  9.009688e-001
    outer loop
      vertex  0.000000e+000  2.225209e-001 -9.749279e-001
      vertex  4.000000e+000  6.234898e-001 -7.818315e-001
      vertex  0.000000e+000  6.234898e-001 -7.818315e-001
    endloop
  endfacet
  facet normal  0.000000e+000 -7.818315e-001  6.234897e-001
    outer loop
      vertex  0.000000e+000  6.234898e-001 -7.818315e-001
      vertex  4.000000e+000  6.234898e-001 -7.818315e-001
      vertex  4.000000e+000  9.009688e-001 -4.338837e-001
    endloop
  endfacet
  facet normal  0.000000e+000 -7.818315e-001  6.234897e-001
    outer loop
      vertex  0.000000e+000  6.234898e-001 -7.818315e-001
      vertex  4.000000e+000  9.009688e-001 -4.338837e-001
      vertex  0.000000e+000  9.009688e-001 -4.338837e-001
    endloop
  endfacet
  facet normal  0.000000e+000 -9.749279e-001  2.225210e-001
    outer loop
      vertex  0.000000e+000  9.009688e-001 -4.338837e-001
      vertex  4.000000e+000  9.009688e-001 -4.338837e-001
      vertex  4.000000e+000  1.000000e+000  0.000000e+000
    endloop
  endfacet
  facet normal  0.000000e+000 -9.749279e-001  2.225210e-001
    outer loop
      vertex  0.000000e+000  9.009688e-001 -4.338837e-001
      vertex  4.000000e+000  1.000000e+000  0.000000e+000
      vertex  0.000000e+000  1.000000e+000  0.000000e+000
    endloop
  endfacet
  facet normal  0.000000e+000 -4.338837e-001  9.009688e-001
    outer loop
      vertex  4.000000e+000  6.234898e-001 -7.818315e-001
      vertex  0.000000e+000  2.225209e-001 -9.749279e-001
      vertex  4.000000e+000  2.225209e-001 -9.749279e-001
    endloop
  endfacet
  facet normal  0.000000e+000  0.000000e+000  1.000000e+000
    outer loop
      vertex  4.000000e+000  2.225209e-001 -9.749279e-001
      vertex  0.000000e+000  2.225209e-001 -9.749279e-001
      vertex  0.000000e+000 -2.225209e-001 -9.749279e-001
    endloop
  endfacet
  facet normal  0.000000e+000  0.000000e+000  1.000000e+000
    outer loop
      vertex  4.000000e+000  2.225209e-001 -9.749279e-001
      vertex  0.000000e+000 -2.225209e-001 -9.749279e-001
      vertex  4.000000e+000 -2.225209e-001 -9.749279e-001
    endloop
  endfacet
  facet normal  0.000000e+000  4.338837e-001  9.009688e-001
    outer loop
      vertex  4.000000e+000 -2.225209e-001 -9.749279e-001
      vertex  0.000000e+000 -2.225209e-001 -9.749279e-001
      vertex  0.000000e+000 -6.234898e-001 -7.818315e-001
    endloop
  endfacet
  facet normal  -0.000000e+000  4.338837e-001  9.009688e-001
    outer loop
      vertex  4.000000e+000 -2.225209e-001 -9.749279e-001
      vertex  0.000000e+000 -6.234898e-001 -7.818315e-001
      vertex  4.000000e+000 -6.234898e-001 -7.818315e-001
    endloop
  endfacet
  facet normal  0.000000e+000  7.818315e-001  6.234897e-001
    outer loop
      vertex  4.000000e+000 -6.234898e-001 -7.818315e-001
      vertex  0.000000e+000 -6.234898e-001 -7.818315e-001
      vertex  0.000000e+000 -9.009688e-001 -4.338837e-001
    endloop
  endfacet
  facet normal  -0.000000e+000  7.818315e-001  6.234897e-001
    outer loop
      vertex  4.000000e+000 -6.234898e-001 -7.818315e-001
      vertex  0.000000e+000 -9.009688e-001 -4.338837e-001
      vertex  4.000000e+000 -9.009688e-001 -4.338837e-001
    endloop
  endfacet
  facet normal  0.000000e+000  9.749279e-001  2.225210e-001
    outer loop
      vertex  4.000000e+000 -9.009688e-001 -4.338837e-001
      vertex  0.000000e+000 -9.009688e-001 -4.338837e-001
      vertex  0.000000e+000 -1.000000e+000  1.224647e-016
    endloop
  endfacet
  facet normal  -0.000000e+000  9.749279e-001  2.225210e-001
    outer loop
      vertex  4.000000e+000 -9.009688e-001 -4.338837e-001
      vertex  0.000000e+000 -1.000000e+000  1.224647e-016
      vertex  4.000000e+000 -1.000000e+000  1.224647e-016
    endloop
  endfacet
  facet normal  0.000000e+000 -9.898214e-001  1.423149e-001
    outer loop
      vertex  0.000000e+000 -2.500000e+000  0.000000e+000
      vertex  4.000000e+000 -2.500000e+000  0.000000e+000
      vertex  0.000000e+000 -2.398732e+000  7.043314e-001
    endloop
  endfacet
  facet normal  0.000000e+000 -9.898214e-001  1.423149e-001
    outer loop
      vertex  0.000000e+000 -2.398732e+000  7.043314e-001
      vertex  4.000000e+000 -2.500000e+000  0.000000e+000
      vertex  4.000000e+000 -2.398732e+000  7.043314e-001
    endloop
  endfacet
  facet normal  0.000000e+000 -9.096320e-001  4.154149e-001
    outer loop
      vertex  0.000000e+000 -2.398732e+000  7.043314e-001
      vertex  4.000000e+000 -2.398732e+000  7.043314e-001
      vertex  0.000000e+000 -2.103134e+000  1.351602e+000
    endloop
  endfacet
  facet normal  0.000000e+000 -9.096320e-001  4.154149e-001
    outer loop
      vertex  0.000000e+000 -2.103134e+000  1.351602e+000
      vertex  4.000000e+000 -2.398732e+000  7.043314e-001
      vertex  4.000000e+000 -2.103134e+000  1.351602e+000
    endloop
  endfacet
  facet normal  0.000000e+000 -7.557495e-001  6.548609e-001
    outer loop
      vertex  0.000000e+000 -2.103134e+000  1.351602e+000
      vertex  4.000000e+000 -2.103134e+000  1.351602e+000
      vertex  0.000000e+000 -1.637152e+000  1.889374e+000
    endloop
  endfacet
  facet normal  0.000000e+000 -7.557495e-001  6.548609e-001
    outer loop
      vertex  0.000000e+000 -1.637152e+000  1.889374e+000
      vertex  4.000000e+000 -2.103134e+000  1.351602e+000
      vertex  4.000000e+000 -1.637152e+000  1.889374e+000
    endloop
  endfacet
  facet normal  0.000000e+000 -5.406409e-001  8.412535e-001
    outer loop
      vertex  0.000000e+000 -1.637152e+000  1.889374e+000
      vertex  4.000000e+000 -1.637152e+000  1.889374e+000
      vertex  0.000000e+000 -1.038538e+000  2.274080e+000
    endloop
  endfacet
  facet normal  0.000000e+000 -5.406409e-001  8.412535e-001
    outer loop
      vertex  0.000000e+000 -1.038538e+000  2.274080e+000
      vertex  4.000000e+000 -1.637152e+000  1.889374e+000
      vertex  4.000000e+000 -1.038538e+000  2.274080e+000
    endloop
  endfacet
  facet normal  0.000000e+000 -2.817325e-001  9.594930e-001
    outer loop
      vertex  0.000000e+000 -1.038538e+000  2.274080e+000
      vertex  4.000000e+000 -1.038538e+000  2.274080e+000
      vertex  0.000000e+000 -3.557871e-001  2.474554e+000
    endloop
  endfacet
  facet normal  0.000000e+000 -2.817325e-001  9.594930e-001
    outer loop
      vertex  0.000000e+000 -3.557871e-001  2.474554e+000
      vertex  4.000000e+000 -1.038538e+000  2.274080e+000
      vertex  4.000000e+000 -3.557871e-001  2.474554e+000
    endloop
  endfacet
  facet normal  0.000000e+000  0.000000e+000  1.000000e+000
    outer loop
      vertex  0.000000e+000 -3.557871e-001  2.474554e+000
      vertex  4.000000e+000 -3.557871e-001  2.474554e+000
      vertex  0.000000e+000  3.557871e-001  2.474554e+000
    endloop
  endfacet
  facet normal  -0.000000e+000  0.000000e+000  1.000000e+000
    outer loop
      vertex  0.000000e+000  3.557871e-001  2.474554e+000
      vertex  4.000000e+000 -3.557871e-001  2.474554e+000
      vertex  4.000000e+000  3.557871e-001  2.474554e+000
    endloop
  endfacet
  facet normal  0.000000e+000  2.817325e-001  9.594930e-001
    outer loop
      vertex  0.000000e+000  3.557871e-001  2.474554e+000
      vertex  4.000000e+000  3.557871e-001  2.474554e+000
      vertex  0.000000e+000  1.038538e+000  2.274080e+000
    endloop
  endfacet
  facet normal  -0.000000e+000  2.817325e-001  9.594930e-001
    outer loop
      vertex  0.000000e+000  1.038538e+000  2.274080e+000
      vertex  4.000000e+000  3.557871e-001  2.474554e+000
      vertex  4.000000e+000  1.038538e+000  2.274080e+000
    endloop
  endfacet
  facet normal  0.000000e+000  5.406409e-001  8.412535e-001
    outer loop
      vertex  0.000000e+000  1.038538e+000  2.274080e+000
      vertex  4.000000e+000  1.038538e+000  2.274080e+000
      vertex  0.000000e+000  1.637152e+000  1.889374e+000
    endloop
  endfacet
  facet normal  -0.000000e+000  5.406409e-001  8.412535e-001
    outer loop
      vertex  0.000000e+000  1.637152e+000  1.889374e+000
      vertex  4.000000e+000  1.038538e+000  2.274080e+000
      vertex  4.000000e+000  1.637152e+000  1.889374e+000
    endloop
  endfacet
  facet normal  0.000000e+000  7.557495e-001  6.548609e-001
    outer loop
      vertex  0.000000e+000  1.637152e+000  1.889374e+000
      vertex  4.000000e+000  1.637152e+000  1.889374e+000
      vertex  0.000000e+000  2.103134e+000  1.351602e+000
    endloop
  endfacet
  facet normal  -0.000000e+000  7.557495e-001  6.548609e-001
    outer loop
      vertex  0.000000e+000  2.103134e+000  1.351602e+000
      vertex  4.000000e+000  1.637152e+000  1.889374e+000
      vertex  4.000000e+000  2.103134e+000  1.351602e+000
    endloop
  endfacet
  facet normal  0.000000e+000  9.096320e-001  4.154149e-001
    outer loop
      vertex  0.000000e+000  2.103134e+000  1.351602e+000
      vertex  4.000000e+000  2.103134e+000  1.351602e+000
      vertex  0.000000e+000  2.398732e+000  7.043314e-001
    endloop
  endfacet
  facet normal  -0.000000e+000  9.096320e-001  4.154149e-001
    outer loop
      vertex  0.000000e+000  2.398732e+000  7.043314e-001
      vertex  4.000000e+000  2.103134e+000  1.351602e+000
      vertex  4.000000e+000  2.398732e+000  7.043314e-001
    endloop
  endfacet
  facet normal  0.000000e+000  9.898214e-001  1.423149e-001
    outer loop
      vertex  0.000000e+000  2.398732e+000  7.043314e-001
      vertex  4.000000e+000  2.398732e+000  7.043314e-001
      vertex  0.000000e+000  2.500000e+000  0.000000e+000
    endloop
  endfacet
  facet normal  -0.000000e+000  9.898214e-001  1.423149e-001
    outer loop
      vertex  0.000000e+000  2.500000e+000  0.000000e+000
      vertex  4.000000e+000  2.398732e+000  7.043314e-001
      vertex  4.000000e+000  2.500000e+000  0.000000e+000
    endloop
  endfacet
  facet normal  0.000000e+000  1.000000e+000  0.000000e+000
    outer loop
      vertex  0.000000e+000  2.500000e+000  0.000000e+000
      vertex  4.000000e+000  2.500000e+000  0.000000e+000
      vertex  0.000000e+000  2.500000e+000 -2.388820e+000
    endloop
  endfacet
  facet normal  0.000000e+000  1.000000e+000  0.000000e+000
    outer loop
      vertex  0.000000e+000  2.500000e+000 -2.388820e+000
      vertex  4.000000e+000  2.500000e+000  0.000000e+000
      vertex  4.000000e+000  2.500000e+000 -2.388820e+000
    endloop
  endfacet
  facet normal  0.000000e+000  0.000000e+000 -1.000000e+000
    outer loop
      vertex  4.000000e+000 -2.500000e+000 -2.388820e+000
      vertex  0.000000e+000 -2.500000e+000 -2.388820e+000
      vertex  4.000000e+000  2.500000e+000 -2.388820e+000
    endloop
  endfacet
  facet normal  -0.000000e+000  0.000000e+000 -1.000000e+000
    outer loop
      vertex  4.000000e+000  2.500000e+000 -2.388820e+000
      vertex  0.000000e+000 -2.500000e+000 -2.388820e+000
      vertex  0.000000e+000  2.500000e+000 -2.388820e+000
    endloop
  endfacet
  facet normal  0.000000e+000 -1.000000e+000  0.000000e+000
    outer loop
      vertex  0.000000e+000 -2.500000e+000  0.000000e+000
      vertex  0.000000e+000 -2.500000e+000 -2.388820e+000
      vertex  4.000000e+000 -2.500000e+000  0.000000e+000
    endloop
  endfacet
  facet normal  0.000000e+000 -1.000000e+000  -0.000000e+000
    outer loop
      vertex  4.000000e+000 -2.500000e+000  0.000000e+000
      vertex  0.000000e+000 -2.500000e+000 -2.388820e+000
      vertex  4.000000e+000 -2.500000e+000 -2.388820e+000
    endloop
  endfacet
endsolid CATIA STL
