solid CATIA STL
  facet normal -9.576709e-001  0.000000e+000  2.878650e-001
    outer loop
      vertex -3.268067e+001  3.200000e+000 -9.504744e+001
      vertex -2.931074e+001  1.836261e+000 -8.383636e+001
      vertex -3.268067e+001  7.200000e+000 -9.504744e+001
    endloop
  endfacet
  facet normal -9.576710e-001  0.000000e+000  2.878651e-001
    outer loop
      vertex -3.268067e+001  3.200000e+000 -9.504744e+001
      vertex -3.268067e+001 -3.200000e+000 -9.504744e+001
      vertex -2.931074e+001  1.836261e+000 -8.383636e+001
    endloop
  endfacet
  facet normal -9.576710e-001 -1.401992e-007  2.878649e-001
    outer loop
      vertex -6.582675e+000 -3.376504e+000 -8.224450e+000
      vertex -2.380689e+001  3.330895e+000 -6.552611e+001
      vertex -1.592466e+001 -3.376504e+000 -3.930343e+001
    endloop
  endfacet
  facet normal -9.576710e-001  0.000000e+000  2.878651e-001
    outer loop
      vertex -2.931074e+001  1.836261e+000 -8.383636e+001
      vertex -3.268067e+001 -3.200000e+000 -9.504744e+001
      vertex -2.931074e+001 -3.376504e+000 -8.383636e+001
    endloop
  endfacet
  facet normal -9.576710e-001  0.000000e+000  2.878651e-001
    outer loop
      vertex -2.931074e+001 -3.376504e+000 -8.383636e+001
      vertex -3.268067e+001 -3.200000e+000 -9.504744e+001
      vertex -3.268067e+001 -7.200000e+000 -9.504744e+001
    endloop
  endfacet
  facet normal -9.576710e-001  6.865697e-007  2.878649e-001
    outer loop
      vertex -2.931074e+001 -3.376504e+000 -8.383636e+001
      vertex -3.268067e+001 -7.200000e+000 -9.504744e+001
      vertex -1.592466e+001 -3.376504e+000 -3.930343e+001
    endloop
  endfacet
  facet normal -9.576710e-001 -3.239712e-007  2.878648e-001
    outer loop
      vertex -2.931074e+001  1.836261e+000 -8.383636e+001
      vertex -1.592466e+001 -3.376504e+000 -3.930343e+001
      vertex -3.268067e+001  7.200000e+000 -9.504744e+001
    endloop
  endfacet
  facet normal -9.576710e-001  3.026916e-007  2.878650e-001
    outer loop
      vertex -3.268067e+001  7.200000e+000 -9.504744e+001
      vertex -1.592466e+001 -3.376504e+000 -3.930343e+001
      vertex -2.380689e+001  3.330895e+000 -6.552611e+001
    endloop
  endfacet
  facet normal -9.576710e-001 -1.589445e-007  2.878649e-001
    outer loop
      vertex -3.268067e+001  7.200000e+000 -9.504744e+001
      vertex -2.380689e+001  3.330895e+000 -6.552611e+001
      vertex -4.110500e+000  7.200000e+000  7.216450e-015
    endloop
  endfacet
  facet normal -9.576710e-001 -6.591112e-008  2.878649e-001
    outer loop
      vertex -4.110500e+000  7.200000e+000  7.216450e-015
      vertex -2.380689e+001  3.330895e+000 -6.552611e+001
      vertex -6.582675e+000  3.330895e+000 -8.224450e+000
    endloop
  endfacet
  facet normal -9.576711e-001  0.000000e+000  2.878648e-001
    outer loop
      vertex -4.110500e+000  7.200000e+000  7.216450e-015
      vertex -6.582675e+000  3.330895e+000 -8.224450e+000
      vertex -4.110500e+000 -7.200000e+000  4.263256e-014
    endloop
  endfacet
  facet normal -9.576711e-001  0.000000e+000  2.878649e-001
    outer loop
      vertex -4.110500e+000 -7.200000e+000  4.263256e-014
      vertex -6.582675e+000  3.330895e+000 -8.224450e+000
      vertex -6.582675e+000 -3.376504e+000 -8.224450e+000
    endloop
  endfacet
  facet normal -9.576709e-001  1.206304e-007  2.878649e-001
    outer loop
      vertex -4.110500e+000 -7.200000e+000  4.263256e-014
      vertex -6.582675e+000 -3.376504e+000 -8.224450e+000
      vertex -3.268067e+001 -7.200000e+000 -9.504744e+001
    endloop
  endfacet
  facet normal -9.576710e-001  0.000000e+000  2.878649e-001
    outer loop
      vertex -3.268067e+001 -7.200000e+000 -9.504744e+001
      vertex -6.582675e+000 -3.376504e+000 -8.224450e+000
      vertex -1.592466e+001 -3.376504e+000 -3.930343e+001
    endloop
  endfacet
  facet normal  9.576710e-001  0.000000e+000 -2.878649e-001
    outer loop
      vertex -2.489231e+001  7.200000e+000 -9.648676e+001
      vertex  3.894178e+000  7.200000e+000 -7.196622e-001
      vertex  9.570819e-001  3.330895e+000 -1.049081e+001
    endloop
  endfacet
  facet normal  9.576710e-001  0.000000e+000 -2.878649e-001
    outer loop
      vertex -2.489231e+001  7.200000e+000 -9.648676e+001
      vertex  9.570819e-001  3.330895e+000 -1.049081e+001
      vertex -1.626714e+001  3.330895e+000 -6.779247e+001
    endloop
  endfacet
  facet normal  9.576711e-001  2.569714e-007 -2.878649e-001
    outer loop
      vertex -2.489231e+001  7.200000e+000 -9.648676e+001
      vertex -1.626714e+001  3.330895e+000 -6.779247e+001
      vertex -2.177099e+001  1.836261e+000 -8.610272e+001
    endloop
  endfacet
  facet normal  9.576710e-001  0.000000e+000 -2.878650e-001
    outer loop
      vertex -2.489231e+001  7.200000e+000 -9.648676e+001
      vertex -2.177099e+001  1.836261e+000 -8.610272e+001
      vertex -2.489231e+001  3.200000e+000 -9.648676e+001
    endloop
  endfacet
  facet normal  9.576710e-001  0.000000e+000 -2.878650e-001
    outer loop
      vertex -2.489231e+001 -7.200000e+000 -9.648676e+001
      vertex -2.489231e+001 -3.200000e+000 -9.648676e+001
      vertex -2.177099e+001 -3.376504e+000 -8.610272e+001
    endloop
  endfacet
  facet normal  9.576711e-001 -4.291060e-007 -2.878649e-001
    outer loop
      vertex -2.489231e+001 -7.200000e+000 -9.648676e+001
      vertex -2.177099e+001 -3.376504e+000 -8.610272e+001
      vertex -8.384902e+000 -3.376504e+000 -4.156979e+001
    endloop
  endfacet
  facet normal  9.576710e-001  4.918912e-007 -2.878649e-001
    outer loop
      vertex -2.489231e+001 -7.200000e+000 -9.648676e+001
      vertex -8.384902e+000 -3.376504e+000 -4.156979e+001
      vertex  9.570819e-001 -3.376504e+000 -1.049081e+001
    endloop
  endfacet
  facet normal  9.576710e-001  3.990796e-008 -2.878649e-001
    outer loop
      vertex -2.489231e+001 -7.200000e+000 -9.648676e+001
      vertex  9.570819e-001 -3.376504e+000 -1.049081e+001
      vertex  3.894178e+000 -7.200000e+000 -7.196622e-001
    endloop
  endfacet
  facet normal  9.576710e-001  8.297880e-008 -2.878649e-001
    outer loop
      vertex  4.110500e+000 -7.200000e+000  7.216450e-015
      vertex  3.894178e+000 -7.200000e+000 -7.196622e-001
      vertex  9.570819e-001 -3.376504e+000 -1.049081e+001
    endloop
  endfacet
  facet normal  9.576711e-001  0.000000e+000 -2.878649e-001
    outer loop
      vertex  4.110500e+000 -7.200000e+000  7.216450e-015
      vertex  9.570819e-001 -3.376504e+000 -1.049081e+001
      vertex  9.570819e-001  3.330895e+000 -1.049081e+001
    endloop
  endfacet
  facet normal  9.576710e-001  0.000000e+000 -2.878649e-001
    outer loop
      vertex  4.110500e+000 -7.200000e+000  7.216450e-015
      vertex  9.570819e-001  3.330895e+000 -1.049081e+001
      vertex  3.894178e+000  7.200000e+000 -7.196622e-001
    endloop
  endfacet
  facet normal  9.576710e-001  0.000000e+000 -2.878649e-001
    outer loop
      vertex  4.110500e+000 -7.200000e+000  7.216450e-015
      vertex  3.894178e+000  7.200000e+000 -7.196622e-001
      vertex  4.110500e+000  7.200000e+000  7.271961e-015
    endloop
  endfacet
  facet normal  9.576709e-001  0.000000e+000 -2.878650e-001
    outer loop
      vertex -2.177099e+001  1.836261e+000 -8.610272e+001
      vertex -2.177099e+001 -3.376504e+000 -8.610272e+001
      vertex -2.489231e+001  3.200000e+000 -9.648676e+001
    endloop
  endfacet
  facet normal  9.576710e-001  0.000000e+000 -2.878650e-001
    outer loop
      vertex -2.489231e+001  3.200000e+000 -9.648676e+001
      vertex -2.177099e+001 -3.376504e+000 -8.610272e+001
      vertex -2.489231e+001 -3.200000e+000 -9.648676e+001
    endloop
  endfacet
  facet normal  9.576710e-001 -3.607958e-007 -2.878649e-001
    outer loop
      vertex -8.384902e+000 -3.376504e+000 -4.156979e+001
      vertex -2.177099e+001  1.836261e+000 -8.610272e+001
      vertex  9.570819e-001 -3.376504e+000 -1.049081e+001
    endloop
  endfacet
  facet normal  9.576710e-001  5.607967e-007 -2.878649e-001
    outer loop
      vertex  9.570819e-001 -3.376504e+000 -1.049081e+001
      vertex -2.177099e+001  1.836261e+000 -8.610272e+001
      vertex -1.626714e+001  3.330895e+000 -6.779247e+001
    endloop
  endfacet
  facet normal -3.206858e-002 -9.937755e-001 -1.066861e-001
    outer loop
      vertex -1.592466e+001 -3.376504e+000 -3.930343e+001
      vertex -2.931074e+001  1.836261e+000 -8.383636e+001
      vertex -8.384902e+000 -3.376504e+000 -4.156979e+001
    endloop
  endfacet
  facet normal -3.206862e-002 -9.937755e-001 -1.066861e-001
    outer loop
      vertex -8.384902e+000 -3.376504e+000 -4.156979e+001
      vertex -2.931074e+001  1.836261e+000 -8.383636e+001
      vertex -2.177099e+001  1.836261e+000 -8.610272e+001
    endloop
  endfacet
  facet normal  2.878650e-001  -0.000000e+000  9.576710e-001
    outer loop
      vertex -2.931074e+001  1.836261e+000 -8.383636e+001
      vertex -2.931074e+001 -3.376504e+000 -8.383636e+001
      vertex -2.177099e+001  1.836261e+000 -8.610272e+001
    endloop
  endfacet
  facet normal  2.878650e-001  0.000000e+000  9.576710e-001
    outer loop
      vertex -2.177099e+001  1.836261e+000 -8.610272e+001
      vertex -2.931074e+001 -3.376504e+000 -8.383636e+001
      vertex -2.177099e+001 -3.376504e+000 -8.610272e+001
    endloop
  endfacet
  facet normal  0.000000e+000  9.999999e-001  0.000000e+000
    outer loop
      vertex -2.931074e+001 -3.376504e+000 -8.383636e+001
      vertex -1.592466e+001 -3.376504e+000 -3.930343e+001
      vertex -2.177099e+001 -3.376504e+000 -8.610272e+001
    endloop
  endfacet
  facet normal  0.000000e+000  9.999999e-001  0.000000e+000
    outer loop
      vertex -2.177099e+001 -3.376504e+000 -8.610272e+001
      vertex -1.592466e+001 -3.376504e+000 -3.930343e+001
      vertex -8.384902e+000 -3.376504e+000 -4.156979e+001
    endloop
  endfacet
  facet normal  0.000000e+000 -1.000000e+000  0.000000e+000
    outer loop
      vertex -6.582675e+000  3.330895e+000 -8.224450e+000
      vertex -2.380689e+001  3.330895e+000 -6.552611e+001
      vertex  9.570819e-001  3.330895e+000 -1.049081e+001
    endloop
  endfacet
  facet normal  0.000000e+000 -1.000000e+000  0.000000e+000
    outer loop
      vertex  9.570819e-001  3.330895e+000 -1.049081e+001
      vertex -2.380689e+001  3.330895e+000 -6.552611e+001
      vertex -1.626714e+001  3.330895e+000 -6.779247e+001
    endloop
  endfacet
  facet normal  3.206864e-002  9.937755e-001  1.066861e-001
    outer loop
      vertex -2.380689e+001  3.330895e+000 -6.552611e+001
      vertex -6.582675e+000 -3.376504e+000 -8.224450e+000
      vertex -1.626714e+001  3.330895e+000 -6.779247e+001
    endloop
  endfacet
  facet normal  3.206864e-002  9.937755e-001  1.066861e-001
    outer loop
      vertex -1.626714e+001  3.330895e+000 -6.779247e+001
      vertex -6.582675e+000 -3.376504e+000 -8.224450e+000
      vertex  9.570819e-001 -3.376504e+000 -1.049081e+001
    endloop
  endfacet
  facet normal -2.878649e-001  -0.000000e+000 -9.576710e-001
    outer loop
      vertex -6.582675e+000 -3.376504e+000 -8.224450e+000
      vertex -6.582675e+000  3.330895e+000 -8.224450e+000
      vertex  9.570819e-001 -3.376504e+000 -1.049081e+001
    endloop
  endfacet
  facet normal -2.878649e-001  0.000000e+000 -9.576710e-001
    outer loop
      vertex  9.570819e-001 -3.376504e+000 -1.049081e+001
      vertex -6.582675e+000  3.330895e+000 -8.224450e+000
      vertex  9.570819e-001  3.330895e+000 -1.049081e+001
    endloop
  endfacet
  facet normal -2.770301e-015 -3.854948e-018  9.999999e-001
    outer loop
      vertex  4.110500e+000  7.200000e+000  7.271961e-015
      vertex  1.500000e+000 -3.200000e+000  0.000000e+000
      vertex  4.110500e+000 -7.200000e+000  7.216450e-015
    endloop
  endfacet
  facet normal  2.405483e-015  3.373991e-015  1.000000e+000
    outer loop
      vertex  4.110500e+000 -7.200000e+000  7.216450e-015
      vertex  1.500000e+000 -3.200000e+000  0.000000e+000
      vertex -1.500000e+000 -3.200000e+000  7.216450e-015
    endloop
  endfacet
  facet normal  4.308006e-015  6.042517e-015  1.000000e+000
    outer loop
      vertex  4.110500e+000 -7.200000e+000  7.216450e-015
      vertex -1.500000e+000 -3.200000e+000  7.216450e-015
      vertex -4.110500e+000 -7.200000e+000  4.263256e-014
    endloop
  endfacet
  facet normal  1.706481e-015 -1.127570e-015  1.000000e+000
    outer loop
      vertex  1.500000e+000 -3.200000e+000  0.000000e+000
      vertex  4.110500e+000  7.200000e+000  7.271961e-015
      vertex  1.500000e+000  3.200000e+000  7.216450e-015
    endloop
  endfacet
  facet normal -6.752361e-018 -9.471030e-018  1.000000e+000
    outer loop
      vertex  1.500000e+000  3.200000e+000  7.216450e-015
      vertex  4.110500e+000  7.200000e+000  7.271961e-015
      vertex -4.110500e+000  7.200000e+000  7.216450e-015
    endloop
  endfacet
  facet normal  0.000000e+000  0.000000e+000  1.000000e+000
    outer loop
      vertex  1.500000e+000  3.200000e+000  7.216450e-015
      vertex -4.110500e+000  7.200000e+000  7.216450e-015
      vertex -1.500000e+000  3.200000e+000  7.216450e-015
    endloop
  endfacet
  facet normal  3.768554e-015  2.459452e-015  9.999999e-001
    outer loop
      vertex -1.500000e+000  3.200000e+000  7.216450e-015
      vertex -4.110500e+000  7.200000e+000  7.216450e-015
      vertex -4.110500e+000 -7.200000e+000  4.263256e-014
    endloop
  endfacet
  facet normal  1.356679e-014  0.000000e+000  1.000000e+000
    outer loop
      vertex -1.500000e+000  3.200000e+000  7.216450e-015
      vertex -4.110500e+000 -7.200000e+000  4.263256e-014
      vertex -1.500000e+000 -3.200000e+000  7.216450e-015
    endloop
  endfacet
  facet normal  0.000000e+000 -1.000000e+000  0.000000e+000
    outer loop
      vertex -3.028649e+001 -7.200000e+000 -9.576711e+001
      vertex -2.728649e+001 -7.200000e+000 -9.576711e+001
      vertex -3.268067e+001 -7.200000e+000 -9.504744e+001
    endloop
  endfacet
  facet normal  -0.000000e+000 -1.000000e+000  0.000000e+000
    outer loop
      vertex  3.894178e+000 -7.200000e+000 -7.196622e-001
      vertex  4.110500e+000 -7.200000e+000  7.216450e-015
      vertex -4.110500e+000 -7.200000e+000  4.263256e-014
    endloop
  endfacet
  facet normal  0.000000e+000 -9.999999e-001  -0.000000e+000
    outer loop
      vertex  3.894178e+000 -7.200000e+000 -7.196622e-001
      vertex -4.110500e+000 -7.200000e+000  4.263256e-014
      vertex -3.268067e+001 -7.200000e+000 -9.504744e+001
    endloop
  endfacet
  facet normal  0.000000e+000 -1.000000e+000  0.000000e+000
    outer loop
      vertex  3.894178e+000 -7.200000e+000 -7.196622e-001
      vertex -3.268067e+001 -7.200000e+000 -9.504744e+001
      vertex -2.728649e+001 -7.200000e+000 -9.576711e+001
    endloop
  endfacet
  facet normal  0.000000e+000 -1.000000e+000  0.000000e+000
    outer loop
      vertex  3.894178e+000 -7.200000e+000 -7.196622e-001
      vertex -2.728649e+001 -7.200000e+000 -9.576711e+001
      vertex -2.489231e+001 -7.200000e+000 -9.648676e+001
    endloop
  endfacet
  facet normal  0.000000e+000  1.000000e+000  0.000000e+000
    outer loop
      vertex -3.268067e+001  7.200000e+000 -9.504744e+001
      vertex -2.728649e+001  7.200000e+000 -9.576711e+001
      vertex -3.028649e+001  7.200000e+000 -9.576711e+001
    endloop
  endfacet
  facet normal  0.000000e+000  1.000000e+000  -0.000000e+000
    outer loop
      vertex  3.894178e+000  7.200000e+000 -7.196622e-001
      vertex -2.489231e+001  7.200000e+000 -9.648676e+001
      vertex -2.728649e+001  7.200000e+000 -9.576711e+001
    endloop
  endfacet
  facet normal  0.000000e+000  1.000000e+000  -0.000000e+000
    outer loop
      vertex  3.894178e+000  7.200000e+000 -7.196622e-001
      vertex -2.728649e+001  7.200000e+000 -9.576711e+001
      vertex -3.268067e+001  7.200000e+000 -9.504744e+001
    endloop
  endfacet
  facet normal  0.000000e+000  1.000000e+000  0.000000e+000
    outer loop
      vertex  3.894178e+000  7.200000e+000 -7.196622e-001
      vertex -3.268067e+001  7.200000e+000 -9.504744e+001
      vertex -4.110500e+000  7.200000e+000  7.216450e-015
    endloop
  endfacet
  facet normal  -0.000000e+000  1.000000e+000  0.000000e+000
    outer loop
      vertex  3.894178e+000  7.200000e+000 -7.196622e-001
      vertex -4.110500e+000  7.200000e+000  7.216450e-015
      vertex  4.110500e+000  7.200000e+000  7.271961e-015
    endloop
  endfacet
  facet normal  1.000000e+000  0.000000e+000  0.000000e+000
    outer loop
      vertex  1.500000e+000 -3.200000e+000  8.000000e+000
      vertex  1.500000e+000 -3.200000e+000  0.000000e+000
      vertex  1.500000e+000 -1.409539e+000  5.123427e+000
    endloop
  endfacet
  facet normal  1.000000e+000  0.000000e+000  -0.000000e+000
    outer loop
      vertex  1.500000e+000 -3.200000e+000  8.000000e+000
      vertex  1.500000e+000 -1.409539e+000  5.123427e+000
      vertex  1.500000e+000 -1.149067e+000  5.574578e+000
    endloop
  endfacet
  facet normal  1.000000e+000  0.000000e+000  -0.000000e+000
    outer loop
      vertex  1.500000e+000 -3.200000e+000  8.000000e+000
      vertex  1.500000e+000 -1.149067e+000  5.574578e+000
      vertex  1.500000e+000 -7.500000e-001  5.909435e+000
    endloop
  endfacet
  facet normal  9.999999e-001  0.000000e+000  -0.000000e+000
    outer loop
      vertex  1.500000e+000 -3.200000e+000  8.000000e+000
      vertex  1.500000e+000 -7.500000e-001  5.909435e+000
      vertex  1.500000e+000 -2.604723e-001  6.087608e+000
    endloop
  endfacet
  facet normal  1.000000e+000  0.000000e+000  -0.000000e+000
    outer loop
      vertex  1.500000e+000 -3.200000e+000  8.000000e+000
      vertex  1.500000e+000 -2.604723e-001  6.087608e+000
      vertex  1.500000e+000  2.604723e-001  6.087608e+000
    endloop
  endfacet
  facet normal  1.000000e+000  0.000000e+000  -0.000000e+000
    outer loop
      vertex  1.500000e+000 -3.200000e+000  8.000000e+000
      vertex  1.500000e+000  2.604723e-001  6.087608e+000
      vertex  1.500000e+000  3.200000e+000  8.000000e+000
    endloop
  endfacet
  facet normal  9.999999e-001  0.000000e+000  0.000000e+000
    outer loop
      vertex  1.500000e+000 -3.200000e+000  0.000000e+000
      vertex  1.500000e+000  3.200000e+000  7.216450e-015
      vertex  1.500000e+000  2.604723e-001  3.133185e+000
    endloop
  endfacet
  facet normal  1.000000e+000  0.000000e+000  0.000000e+000
    outer loop
      vertex  1.500000e+000 -3.200000e+000  0.000000e+000
      vertex  1.500000e+000  2.604723e-001  3.133185e+000
      vertex  1.500000e+000 -2.604723e-001  3.133185e+000
    endloop
  endfacet
  facet normal  1.000000e+000  0.000000e+000  0.000000e+000
    outer loop
      vertex  1.500000e+000 -3.200000e+000  0.000000e+000
      vertex  1.500000e+000 -2.604723e-001  3.133185e+000
      vertex  1.500000e+000 -7.500000e-001  3.311359e+000
    endloop
  endfacet
  facet normal  1.000000e+000  0.000000e+000  0.000000e+000
    outer loop
      vertex  1.500000e+000 -3.200000e+000  0.000000e+000
      vertex  1.500000e+000 -7.500000e-001  3.311359e+000
      vertex  1.500000e+000 -1.149067e+000  3.646215e+000
    endloop
  endfacet
  facet normal  1.000000e+000  0.000000e+000  0.000000e+000
    outer loop
      vertex  1.500000e+000 -3.200000e+000  0.000000e+000
      vertex  1.500000e+000 -1.149067e+000  3.646215e+000
      vertex  1.500000e+000 -1.409539e+000  4.097366e+000
    endloop
  endfacet
  facet normal  9.999999e-001  0.000000e+000  0.000000e+000
    outer loop
      vertex  1.500000e+000 -3.200000e+000  0.000000e+000
      vertex  1.500000e+000 -1.409539e+000  4.097366e+000
      vertex  1.500000e+000 -1.500000e+000  4.610397e+000
    endloop
  endfacet
  facet normal  9.999999e-001  0.000000e+000  -0.000000e+000
    outer loop
      vertex  1.500000e+000 -3.200000e+000  0.000000e+000
      vertex  1.500000e+000 -1.500000e+000  4.610397e+000
      vertex  1.500000e+000 -1.409539e+000  5.123427e+000
    endloop
  endfacet
  facet normal  1.000000e+000  0.000000e+000  0.000000e+000
    outer loop
      vertex  1.500000e+000  3.200000e+000  7.216450e-015
      vertex  1.500000e+000  1.409539e+000  5.123427e+000
      vertex  1.500000e+000  1.500000e+000  4.610397e+000
    endloop
  endfacet
  facet normal  9.999999e-001  0.000000e+000  0.000000e+000
    outer loop
      vertex  1.500000e+000  3.200000e+000  7.216450e-015
      vertex  1.500000e+000  1.500000e+000  4.610397e+000
      vertex  1.500000e+000  1.409539e+000  4.097366e+000
    endloop
  endfacet
  facet normal  1.000000e+000  0.000000e+000  0.000000e+000
    outer loop
      vertex  1.500000e+000  3.200000e+000  7.216450e-015
      vertex  1.500000e+000  1.409539e+000  4.097366e+000
      vertex  1.500000e+000  1.149067e+000  3.646215e+000
    endloop
  endfacet
  facet normal  1.000000e+000  0.000000e+000  0.000000e+000
    outer loop
      vertex  1.500000e+000  3.200000e+000  7.216450e-015
      vertex  1.500000e+000  1.149067e+000  3.646215e+000
      vertex  1.500000e+000  7.500000e-001  3.311359e+000
    endloop
  endfacet
  facet normal  1.000000e+000  0.000000e+000  0.000000e+000
    outer loop
      vertex  1.500000e+000  3.200000e+000  7.216450e-015
      vertex  1.500000e+000  7.500000e-001  3.311359e+000
      vertex  1.500000e+000  2.604723e-001  3.133185e+000
    endloop
  endfacet
  facet normal  9.999999e-001  -0.000000e+000  0.000000e+000
    outer loop
      vertex  1.500000e+000  3.200000e+000  8.000000e+000
      vertex  1.500000e+000  2.604723e-001  6.087608e+000
      vertex  1.500000e+000  7.500000e-001  5.909435e+000
    endloop
  endfacet
  facet normal  1.000000e+000  -0.000000e+000  0.000000e+000
    outer loop
      vertex  1.500000e+000  3.200000e+000  8.000000e+000
      vertex  1.500000e+000  7.500000e-001  5.909435e+000
      vertex  1.500000e+000  1.149067e+000  5.574578e+000
    endloop
  endfacet
  facet normal  1.000000e+000  -0.000000e+000  0.000000e+000
    outer loop
      vertex  1.500000e+000  3.200000e+000  8.000000e+000
      vertex  1.500000e+000  1.149067e+000  5.574578e+000
      vertex  1.500000e+000  1.409539e+000  5.123427e+000
    endloop
  endfacet
  facet normal  1.000000e+000  -0.000000e+000  0.000000e+000
    outer loop
      vertex  1.500000e+000  3.200000e+000  8.000000e+000
      vertex  1.500000e+000  1.409539e+000  5.123427e+000
      vertex  1.500000e+000  3.200000e+000  7.216450e-015
    endloop
  endfacet
  facet normal  0.000000e+000 -1.000000e+000  -0.000000e+000
    outer loop
      vertex  1.500000e+000 -3.200000e+000  0.000000e+000
      vertex  1.500000e+000 -3.200000e+000  8.000000e+000
      vertex -1.500000e+000 -3.200000e+000  7.216450e-015
    endloop
  endfacet
  facet normal  0.000000e+000 -1.000000e+000  0.000000e+000
    outer loop
      vertex -1.500000e+000 -3.200000e+000  7.216450e-015
      vertex  1.500000e+000 -3.200000e+000  8.000000e+000
      vertex -1.500000e+000 -3.200000e+000  8.000000e+000
    endloop
  endfacet
  facet normal  0.000000e+000  1.000000e+000  0.000000e+000
    outer loop
      vertex -1.500000e+000  3.200000e+000  7.216450e-015
      vertex -1.500000e+000  3.200000e+000  8.000000e+000
      vertex  1.500000e+000  3.200000e+000  7.216450e-015
    endloop
  endfacet
  facet normal  0.000000e+000  1.000000e+000  -0.000000e+000
    outer loop
      vertex  1.500000e+000  3.200000e+000  7.216450e-015
      vertex -1.500000e+000  3.200000e+000  8.000000e+000
      vertex  1.500000e+000  3.200000e+000  8.000000e+000
    endloop
  endfacet
  facet normal -1.000000e+000  0.000000e+000  0.000000e+000
    outer loop
      vertex -1.500000e+000  3.200000e+000  8.000000e+000
      vertex -1.500000e+000  3.200000e+000  7.216450e-015
      vertex -1.500000e+000  1.409539e+000  5.123427e+000
    endloop
  endfacet
  facet normal -1.000000e+000  0.000000e+000  0.000000e+000
    outer loop
      vertex -1.500000e+000  3.200000e+000  8.000000e+000
      vertex -1.500000e+000  1.409539e+000  5.123427e+000
      vertex -1.500000e+000  1.149067e+000  5.574578e+000
    endloop
  endfacet
  facet normal -1.000000e+000  0.000000e+000  0.000000e+000
    outer loop
      vertex -1.500000e+000  3.200000e+000  8.000000e+000
      vertex -1.500000e+000  1.149067e+000  5.574578e+000
      vertex -1.500000e+000  7.500000e-001  5.909435e+000
    endloop
  endfacet
  facet normal -9.999999e-001  0.000000e+000  0.000000e+000
    outer loop
      vertex -1.500000e+000  3.200000e+000  8.000000e+000
      vertex -1.500000e+000  7.500000e-001  5.909435e+000
      vertex -1.500000e+000  2.604723e-001  6.087608e+000
    endloop
  endfacet
  facet normal -1.000000e+000  0.000000e+000  0.000000e+000
    outer loop
      vertex -1.500000e+000  3.200000e+000  8.000000e+000
      vertex -1.500000e+000  2.604723e-001  6.087608e+000
      vertex -1.500000e+000 -2.604723e-001  6.087608e+000
    endloop
  endfacet
  facet normal -1.000000e+000  0.000000e+000  0.000000e+000
    outer loop
      vertex -1.500000e+000  3.200000e+000  8.000000e+000
      vertex -1.500000e+000 -2.604723e-001  6.087608e+000
      vertex -1.500000e+000 -3.200000e+000  8.000000e+000
    endloop
  endfacet
  facet normal -9.999999e-001  0.000000e+000  0.000000e+000
    outer loop
      vertex -1.500000e+000  3.200000e+000  7.216450e-015
      vertex -1.500000e+000 -3.200000e+000  7.216450e-015
      vertex -1.500000e+000 -2.604723e-001  3.133185e+000
    endloop
  endfacet
  facet normal -1.000000e+000  0.000000e+000  0.000000e+000
    outer loop
      vertex -1.500000e+000  3.200000e+000  7.216450e-015
      vertex -1.500000e+000 -2.604723e-001  3.133185e+000
      vertex -1.500000e+000  2.604723e-001  3.133185e+000
    endloop
  endfacet
  facet normal -1.000000e+000  0.000000e+000  0.000000e+000
    outer loop
      vertex -1.500000e+000  3.200000e+000  7.216450e-015
      vertex -1.500000e+000  2.604723e-001  3.133185e+000
      vertex -1.500000e+000  7.500000e-001  3.311359e+000
    endloop
  endfacet
  facet normal -1.000000e+000  0.000000e+000  0.000000e+000
    outer loop
      vertex -1.500000e+000  3.200000e+000  7.216450e-015
      vertex -1.500000e+000  7.500000e-001  3.311359e+000
      vertex -1.500000e+000  1.149067e+000  3.646215e+000
    endloop
  endfacet
  facet normal -1.000000e+000  0.000000e+000  0.000000e+000
    outer loop
      vertex -1.500000e+000  3.200000e+000  7.216450e-015
      vertex -1.500000e+000  1.149067e+000  3.646215e+000
      vertex -1.500000e+000  1.409539e+000  4.097366e+000
    endloop
  endfacet
  facet normal -9.999999e-001  0.000000e+000  0.000000e+000
    outer loop
      vertex -1.500000e+000  3.200000e+000  7.216450e-015
      vertex -1.500000e+000  1.409539e+000  4.097366e+000
      vertex -1.500000e+000  1.500000e+000  4.610397e+000
    endloop
  endfacet
  facet normal -9.999999e-001  0.000000e+000  0.000000e+000
    outer loop
      vertex -1.500000e+000  3.200000e+000  7.216450e-015
      vertex -1.500000e+000  1.500000e+000  4.610397e+000
      vertex -1.500000e+000  1.409539e+000  5.123427e+000
    endloop
  endfacet
  facet normal -1.000000e+000  0.000000e+000  0.000000e+000
    outer loop
      vertex -1.500000e+000 -3.200000e+000  7.216450e-015
      vertex -1.500000e+000 -1.409539e+000  5.123427e+000
      vertex -1.500000e+000 -1.500000e+000  4.610397e+000
    endloop
  endfacet
  facet normal -9.999999e-001  0.000000e+000  -0.000000e+000
    outer loop
      vertex -1.500000e+000 -3.200000e+000  7.216450e-015
      vertex -1.500000e+000 -1.500000e+000  4.610397e+000
      vertex -1.500000e+000 -1.409539e+000  4.097366e+000
    endloop
  endfacet
  facet normal -1.000000e+000  0.000000e+000  -0.000000e+000
    outer loop
      vertex -1.500000e+000 -3.200000e+000  7.216450e-015
      vertex -1.500000e+000 -1.409539e+000  4.097366e+000
      vertex -1.500000e+000 -1.149067e+000  3.646215e+000
    endloop
  endfacet
  facet normal -1.000000e+000  0.000000e+000  -0.000000e+000
    outer loop
      vertex -1.500000e+000 -3.200000e+000  7.216450e-015
      vertex -1.500000e+000 -1.149067e+000  3.646215e+000
      vertex -1.500000e+000 -7.500000e-001  3.311359e+000
    endloop
  endfacet
  facet normal -1.000000e+000  0.000000e+000  -0.000000e+000
    outer loop
      vertex -1.500000e+000 -3.200000e+000  7.216450e-015
      vertex -1.500000e+000 -7.500000e-001  3.311359e+000
      vertex -1.500000e+000 -2.604723e-001  3.133185e+000
    endloop
  endfacet
  facet normal -9.999999e-001  -0.000000e+000  0.000000e+000
    outer loop
      vertex -1.500000e+000 -3.200000e+000  8.000000e+000
      vertex -1.500000e+000 -2.604723e-001  6.087608e+000
      vertex -1.500000e+000 -7.500000e-001  5.909435e+000
    endloop
  endfacet
  facet normal -1.000000e+000  -0.000000e+000  0.000000e+000
    outer loop
      vertex -1.500000e+000 -3.200000e+000  8.000000e+000
      vertex -1.500000e+000 -7.500000e-001  5.909435e+000
      vertex -1.500000e+000 -1.149067e+000  5.574578e+000
    endloop
  endfacet
  facet normal -1.000000e+000  -0.000000e+000  0.000000e+000
    outer loop
      vertex -1.500000e+000 -3.200000e+000  8.000000e+000
      vertex -1.500000e+000 -1.149067e+000  5.574578e+000
      vertex -1.500000e+000 -1.409539e+000  5.123427e+000
    endloop
  endfacet
  facet normal -1.000000e+000  -0.000000e+000  0.000000e+000
    outer loop
      vertex -1.500000e+000 -3.200000e+000  8.000000e+000
      vertex -1.500000e+000 -1.409539e+000  5.123427e+000
      vertex -1.500000e+000 -3.200000e+000  7.216450e-015
    endloop
  endfacet
  facet normal -2.878660e-001  -0.000000e+000 -9.576707e-001
    outer loop
      vertex -3.268067e+001 -3.200000e+000 -9.504744e+001
      vertex -3.268067e+001  3.200000e+000 -9.504744e+001
      vertex -3.028649e+001 -3.200000e+000 -9.576711e+001
    endloop
  endfacet
  facet normal -2.878660e-001  0.000000e+000 -9.576707e-001
    outer loop
      vertex -3.028649e+001 -3.200000e+000 -9.576711e+001
      vertex -3.268067e+001  3.200000e+000 -9.504744e+001
      vertex -3.028649e+001  3.200000e+000 -9.576711e+001
    endloop
  endfacet
  facet normal -2.878660e-001  -0.000000e+000 -9.576707e-001
    outer loop
      vertex -3.268067e+001  3.200000e+000 -9.504744e+001
      vertex -3.268067e+001  7.200000e+000 -9.504744e+001
      vertex -3.028649e+001  3.200000e+000 -9.576711e+001
    endloop
  endfacet
  facet normal -2.878660e-001  0.000000e+000 -9.576707e-001
    outer loop
      vertex -3.028649e+001  3.200000e+000 -9.576711e+001
      vertex -3.268067e+001  7.200000e+000 -9.504744e+001
      vertex -3.028649e+001  7.200000e+000 -9.576711e+001
    endloop
  endfacet
  facet normal -2.878660e-001  -0.000000e+000 -9.576707e-001
    outer loop
      vertex -3.268067e+001 -7.200000e+000 -9.504744e+001
      vertex -3.268067e+001 -3.200000e+000 -9.504744e+001
      vertex -3.028649e+001 -7.200000e+000 -9.576711e+001
    endloop
  endfacet
  facet normal -2.878660e-001  0.000000e+000 -9.576707e-001
    outer loop
      vertex -3.028649e+001 -7.200000e+000 -9.576711e+001
      vertex -3.268067e+001 -3.200000e+000 -9.504744e+001
      vertex -3.028649e+001 -3.200000e+000 -9.576711e+001
    endloop
  endfacet
  facet normal  0.000000e+000  0.000000e+000 -1.000000e+000
    outer loop
      vertex -2.728649e+001 -7.200000e+000 -9.576711e+001
      vertex -3.028649e+001 -7.200000e+000 -9.576711e+001
      vertex -2.728649e+001 -3.200000e+000 -9.576711e+001
    endloop
  endfacet
  facet normal  -0.000000e+000  0.000000e+000 -1.000000e+000
    outer loop
      vertex -2.728649e+001 -3.200000e+000 -9.576711e+001
      vertex -3.028649e+001 -7.200000e+000 -9.576711e+001
      vertex -3.028649e+001 -3.200000e+000 -9.576711e+001
    endloop
  endfacet
  facet normal  0.000000e+000  0.000000e+000 -1.000000e+000
    outer loop
      vertex -2.728649e+001 -3.200000e+000 -9.576711e+001
      vertex -3.028649e+001 -3.200000e+000 -9.576711e+001
      vertex -2.728649e+001  3.200000e+000 -9.576711e+001
    endloop
  endfacet
  facet normal  -0.000000e+000  0.000000e+000 -1.000000e+000
    outer loop
      vertex -2.728649e+001  3.200000e+000 -9.576711e+001
      vertex -3.028649e+001 -3.200000e+000 -9.576711e+001
      vertex -3.028649e+001  3.200000e+000 -9.576711e+001
    endloop
  endfacet
  facet normal  0.000000e+000  0.000000e+000 -1.000000e+000
    outer loop
      vertex -2.728649e+001  3.200000e+000 -9.576711e+001
      vertex -3.028649e+001  3.200000e+000 -9.576711e+001
      vertex -2.728649e+001  7.200000e+000 -9.576711e+001
    endloop
  endfacet
  facet normal  -0.000000e+000  0.000000e+000 -1.000000e+000
    outer loop
      vertex -2.728649e+001  7.200000e+000 -9.576711e+001
      vertex -3.028649e+001  3.200000e+000 -9.576711e+001
      vertex -3.028649e+001  7.200000e+000 -9.576711e+001
    endloop
  endfacet
  facet normal -2.878632e-001  0.000000e+000 -9.576716e-001
    outer loop
      vertex -2.489231e+001  7.200000e+000 -9.648676e+001
      vertex -2.489231e+001  3.200000e+000 -9.648676e+001
      vertex -2.728649e+001  7.200000e+000 -9.576711e+001
    endloop
  endfacet
  facet normal -2.878632e-001  -0.000000e+000 -9.576716e-001
    outer loop
      vertex -2.728649e+001  7.200000e+000 -9.576711e+001
      vertex -2.489231e+001  3.200000e+000 -9.648676e+001
      vertex -2.728649e+001  3.200000e+000 -9.576711e+001
    endloop
  endfacet
  facet normal -2.878632e-001  0.000000e+000 -9.576716e-001
    outer loop
      vertex -2.489231e+001  3.200000e+000 -9.648676e+001
      vertex -2.489231e+001 -3.200000e+000 -9.648676e+001
      vertex -2.728649e+001  3.200000e+000 -9.576711e+001
    endloop
  endfacet
  facet normal -2.878632e-001  -0.000000e+000 -9.576716e-001
    outer loop
      vertex -2.728649e+001  3.200000e+000 -9.576711e+001
      vertex -2.489231e+001 -3.200000e+000 -9.648676e+001
      vertex -2.728649e+001 -3.200000e+000 -9.576711e+001
    endloop
  endfacet
  facet normal -2.878632e-001  0.000000e+000 -9.576716e-001
    outer loop
      vertex -2.489231e+001 -3.200000e+000 -9.648676e+001
      vertex -2.489231e+001 -7.200000e+000 -9.648676e+001
      vertex -2.728649e+001 -3.200000e+000 -9.576711e+001
    endloop
  endfacet
  facet normal -2.878632e-001  -0.000000e+000 -9.576716e-001
    outer loop
      vertex -2.728649e+001 -3.200000e+000 -9.576711e+001
      vertex -2.489231e+001 -7.200000e+000 -9.648676e+001
      vertex -2.728649e+001 -7.200000e+000 -9.576711e+001
    endloop
  endfacet
  facet normal  0.000000e+000  3.420202e-001 -9.396927e-001
    outer loop
      vertex -1.500000e+000 -2.604723e-001  6.087608e+000
      vertex  1.500000e+000 -7.500000e-001  5.909435e+000
      vertex -1.500000e+000 -7.500000e-001  5.909435e+000
    endloop
  endfacet
  facet normal  0.000000e+000  6.427873e-001 -7.660446e-001
    outer loop
      vertex -1.500000e+000 -7.500000e-001  5.909435e+000
      vertex  1.500000e+000 -7.500000e-001  5.909435e+000
      vertex  1.500000e+000 -1.149067e+000  5.574578e+000
    endloop
  endfacet
  facet normal  0.000000e+000  6.427873e-001 -7.660446e-001
    outer loop
      vertex -1.500000e+000 -7.500000e-001  5.909435e+000
      vertex  1.500000e+000 -1.149067e+000  5.574578e+000
      vertex -1.500000e+000 -1.149067e+000  5.574578e+000
    endloop
  endfacet
  facet normal  0.000000e+000  8.660254e-001 -4.999999e-001
    outer loop
      vertex -1.500000e+000 -1.149067e+000  5.574578e+000
      vertex  1.500000e+000 -1.149067e+000  5.574578e+000
      vertex  1.500000e+000 -1.409539e+000  5.123427e+000
    endloop
  endfacet
  facet normal  0.000000e+000  8.660254e-001 -4.999999e-001
    outer loop
      vertex -1.500000e+000 -1.149067e+000  5.574578e+000
      vertex  1.500000e+000 -1.409539e+000  5.123427e+000
      vertex -1.500000e+000 -1.409539e+000  5.123427e+000
    endloop
  endfacet
  facet normal  0.000000e+000  9.848078e-001 -1.736481e-001
    outer loop
      vertex -1.500000e+000 -1.409539e+000  5.123427e+000
      vertex  1.500000e+000 -1.409539e+000  5.123427e+000
      vertex  1.500000e+000 -1.500000e+000  4.610397e+000
    endloop
  endfacet
  facet normal  0.000000e+000  9.848078e-001 -1.736481e-001
    outer loop
      vertex -1.500000e+000 -1.409539e+000  5.123427e+000
      vertex  1.500000e+000 -1.500000e+000  4.610397e+000
      vertex -1.500000e+000 -1.500000e+000  4.610397e+000
    endloop
  endfacet
  facet normal  0.000000e+000  3.420202e-001 -9.396927e-001
    outer loop
      vertex  1.500000e+000 -7.500000e-001  5.909435e+000
      vertex -1.500000e+000 -2.604723e-001  6.087608e+000
      vertex  1.500000e+000 -2.604723e-001  6.087608e+000
    endloop
  endfacet
  facet normal  0.000000e+000  0.000000e+000 -1.000000e+000
    outer loop
      vertex  1.500000e+000 -2.604723e-001  6.087608e+000
      vertex -1.500000e+000 -2.604723e-001  6.087608e+000
      vertex -1.500000e+000  2.604723e-001  6.087608e+000
    endloop
  endfacet
  facet normal  0.000000e+000  0.000000e+000 -1.000000e+000
    outer loop
      vertex  1.500000e+000 -2.604723e-001  6.087608e+000
      vertex -1.500000e+000  2.604723e-001  6.087608e+000
      vertex  1.500000e+000  2.604723e-001  6.087608e+000
    endloop
  endfacet
  facet normal  -0.000000e+000 -3.420202e-001 -9.396927e-001
    outer loop
      vertex  1.500000e+000  2.604723e-001  6.087608e+000
      vertex -1.500000e+000  2.604723e-001  6.087608e+000
      vertex -1.500000e+000  7.500000e-001  5.909435e+000
    endloop
  endfacet
  facet normal  0.000000e+000 -3.420202e-001 -9.396927e-001
    outer loop
      vertex  1.500000e+000  2.604723e-001  6.087608e+000
      vertex -1.500000e+000  7.500000e-001  5.909435e+000
      vertex  1.500000e+000  7.500000e-001  5.909435e+000
    endloop
  endfacet
  facet normal  -0.000000e+000 -6.427873e-001 -7.660446e-001
    outer loop
      vertex  1.500000e+000  7.500000e-001  5.909435e+000
      vertex -1.500000e+000  7.500000e-001  5.909435e+000
      vertex -1.500000e+000  1.149067e+000  5.574578e+000
    endloop
  endfacet
  facet normal  0.000000e+000 -6.427873e-001 -7.660446e-001
    outer loop
      vertex  1.500000e+000  7.500000e-001  5.909435e+000
      vertex -1.500000e+000  1.149067e+000  5.574578e+000
      vertex  1.500000e+000  1.149067e+000  5.574578e+000
    endloop
  endfacet
  facet normal  -0.000000e+000 -8.660254e-001 -4.999999e-001
    outer loop
      vertex  1.500000e+000  1.149067e+000  5.574578e+000
      vertex -1.500000e+000  1.149067e+000  5.574578e+000
      vertex -1.500000e+000  1.409539e+000  5.123427e+000
    endloop
  endfacet
  facet normal  0.000000e+000 -8.660254e-001 -4.999999e-001
    outer loop
      vertex  1.500000e+000  1.149067e+000  5.574578e+000
      vertex -1.500000e+000  1.409539e+000  5.123427e+000
      vertex  1.500000e+000  1.409539e+000  5.123427e+000
    endloop
  endfacet
  facet normal  -0.000000e+000 -9.848078e-001 -1.736481e-001
    outer loop
      vertex  1.500000e+000  1.409539e+000  5.123427e+000
      vertex -1.500000e+000  1.409539e+000  5.123427e+000
      vertex -1.500000e+000  1.500000e+000  4.610397e+000
    endloop
  endfacet
  facet normal  0.000000e+000 -9.848078e-001 -1.736481e-001
    outer loop
      vertex  1.500000e+000  1.409539e+000  5.123427e+000
      vertex -1.500000e+000  1.500000e+000  4.610397e+000
      vertex  1.500000e+000  1.500000e+000  4.610397e+000
    endloop
  endfacet
  facet normal  0.000000e+000 -3.420202e-001  9.396927e-001
    outer loop
      vertex -1.500000e+000  2.604723e-001  3.133185e+000
      vertex  1.500000e+000  7.500000e-001  3.311359e+000
      vertex -1.500000e+000  7.500000e-001  3.311359e+000
    endloop
  endfacet
  facet normal  0.000000e+000 -6.427873e-001  7.660446e-001
    outer loop
      vertex -1.500000e+000  7.500000e-001  3.311359e+000
      vertex  1.500000e+000  7.500000e-001  3.311359e+000
      vertex  1.500000e+000  1.149067e+000  3.646215e+000
    endloop
  endfacet
  facet normal  0.000000e+000 -6.427873e-001  7.660446e-001
    outer loop
      vertex -1.500000e+000  7.500000e-001  3.311359e+000
      vertex  1.500000e+000  1.149067e+000  3.646215e+000
      vertex -1.500000e+000  1.149067e+000  3.646215e+000
    endloop
  endfacet
  facet normal  0.000000e+000 -8.660253e-001  5.000001e-001
    outer loop
      vertex -1.500000e+000  1.149067e+000  3.646215e+000
      vertex  1.500000e+000  1.149067e+000  3.646215e+000
      vertex  1.500000e+000  1.409539e+000  4.097366e+000
    endloop
  endfacet
  facet normal  0.000000e+000 -8.660253e-001  5.000001e-001
    outer loop
      vertex -1.500000e+000  1.149067e+000  3.646215e+000
      vertex  1.500000e+000  1.409539e+000  4.097366e+000
      vertex -1.500000e+000  1.409539e+000  4.097366e+000
    endloop
  endfacet
  facet normal  0.000000e+000 -9.848078e-001  1.736480e-001
    outer loop
      vertex -1.500000e+000  1.409539e+000  4.097366e+000
      vertex  1.500000e+000  1.409539e+000  4.097366e+000
      vertex  1.500000e+000  1.500000e+000  4.610397e+000
    endloop
  endfacet
  facet normal  0.000000e+000 -9.848078e-001  1.736480e-001
    outer loop
      vertex -1.500000e+000  1.409539e+000  4.097366e+000
      vertex  1.500000e+000  1.500000e+000  4.610397e+000
      vertex -1.500000e+000  1.500000e+000  4.610397e+000
    endloop
  endfacet
  facet normal  0.000000e+000 -3.420202e-001  9.396927e-001
    outer loop
      vertex  1.500000e+000  7.500000e-001  3.311359e+000
      vertex -1.500000e+000  2.604723e-001  3.133185e+000
      vertex  1.500000e+000  2.604723e-001  3.133185e+000
    endloop
  endfacet
  facet normal  0.000000e+000  0.000000e+000  1.000000e+000
    outer loop
      vertex  1.500000e+000  2.604723e-001  3.133185e+000
      vertex -1.500000e+000  2.604723e-001  3.133185e+000
      vertex -1.500000e+000 -2.604723e-001  3.133185e+000
    endloop
  endfacet
  facet normal  0.000000e+000  0.000000e+000  1.000000e+000
    outer loop
      vertex  1.500000e+000  2.604723e-001  3.133185e+000
      vertex -1.500000e+000 -2.604723e-001  3.133185e+000
      vertex  1.500000e+000 -2.604723e-001  3.133185e+000
    endloop
  endfacet
  facet normal  0.000000e+000  3.420202e-001  9.396927e-001
    outer loop
      vertex  1.500000e+000 -2.604723e-001  3.133185e+000
      vertex -1.500000e+000 -2.604723e-001  3.133185e+000
      vertex -1.500000e+000 -7.500000e-001  3.311359e+000
    endloop
  endfacet
  facet normal  -0.000000e+000  3.420202e-001  9.396927e-001
    outer loop
      vertex  1.500000e+000 -2.604723e-001  3.133185e+000
      vertex -1.500000e+000 -7.500000e-001  3.311359e+000
      vertex  1.500000e+000 -7.500000e-001  3.311359e+000
    endloop
  endfacet
  facet normal  0.000000e+000  6.427873e-001  7.660446e-001
    outer loop
      vertex  1.500000e+000 -7.500000e-001  3.311359e+000
      vertex -1.500000e+000 -7.500000e-001  3.311359e+000
      vertex -1.500000e+000 -1.149067e+000  3.646215e+000
    endloop
  endfacet
  facet normal  -0.000000e+000  6.427873e-001  7.660446e-001
    outer loop
      vertex  1.500000e+000 -7.500000e-001  3.311359e+000
      vertex -1.500000e+000 -1.149067e+000  3.646215e+000
      vertex  1.500000e+000 -1.149067e+000  3.646215e+000
    endloop
  endfacet
  facet normal  0.000000e+000  8.660253e-001  5.000001e-001
    outer loop
      vertex  1.500000e+000 -1.149067e+000  3.646215e+000
      vertex -1.500000e+000 -1.149067e+000  3.646215e+000
      vertex -1.500000e+000 -1.409539e+000  4.097366e+000
    endloop
  endfacet
  facet normal  -0.000000e+000  8.660253e-001  5.000001e-001
    outer loop
      vertex  1.500000e+000 -1.149067e+000  3.646215e+000
      vertex -1.500000e+000 -1.409539e+000  4.097366e+000
      vertex  1.500000e+000 -1.409539e+000  4.097366e+000
    endloop
  endfacet
  facet normal  0.000000e+000  9.848078e-001  1.736480e-001
    outer loop
      vertex  1.500000e+000 -1.409539e+000  4.097366e+000
      vertex -1.500000e+000 -1.409539e+000  4.097366e+000
      vertex -1.500000e+000 -1.500000e+000  4.610397e+000
    endloop
  endfacet
  facet normal  -0.000000e+000  9.848078e-001  1.736480e-001
    outer loop
      vertex  1.500000e+000 -1.409539e+000  4.097366e+000
      vertex -1.500000e+000 -1.500000e+000  4.610397e+000
      vertex  1.500000e+000 -1.500000e+000  4.610397e+000
    endloop
  endfacet
  facet normal  0.000000e+000  0.000000e+000  1.000000e+000
    outer loop
      vertex -1.500000e+000 -3.200000e+000  8.000000e+000
      vertex  1.500000e+000 -3.200000e+000  8.000000e+000
      vertex -1.500000e+000  3.200000e+000  8.000000e+000
    endloop
  endfacet
  facet normal  -0.000000e+000  0.000000e+000  1.000000e+000
    outer loop
      vertex -1.500000e+000  3.200000e+000  8.000000e+000
      vertex  1.500000e+000 -3.200000e+000  8.000000e+000
      vertex  1.500000e+000  3.200000e+000  8.000000e+000
    endloop
  endfacet
endsolid CATIA STL
