solid CATIA STL
  facet normal -9.999999e-001 -1.445711e-016  8.346796e-017
    outer loop
      vertex  4.440892e-016  1.986492e+001  7.949181e+000
      vertex  0.000000e+000  2.310093e+001  8.233665e+000
      vertex  0.000000e+000  2.284046e+001  7.782514e+000
    endloop
  endfacet
  facet normal -9.999999e-001 -1.477868e-016  2.605899e-017
    outer loop
      vertex  4.440892e-016  1.986492e+001  7.949181e+000
      vertex  0.000000e+000  2.284046e+001  7.782514e+000
      vertex  0.000000e+000  2.275000e+001  7.269484e+000
    endloop
  endfacet
  facet normal -1.000000e+000 -1.539260e-016  0.000000e+000
    outer loop
      vertex  4.440892e-016  1.986492e+001  7.949181e+000
      vertex  0.000000e+000  2.275000e+001  7.269484e+000
      vertex  4.440892e-016  1.986492e+001 -1.215835e+001
    endloop
  endfacet
  facet normal -1.000000e+000  -0.000000e+000  0.000000e+000
    outer loop
      vertex  0.000000e+000 -2.650000e+001  1.250000e+001
      vertex  0.000000e+000  2.650000e+001  1.250000e+001
      vertex  0.000000e+000  2.451047e+001  8.746696e+000
    endloop
  endfacet
  facet normal -1.000000e+000  0.000000e+000  0.000000e+000
    outer loop
      vertex  0.000000e+000 -2.650000e+001  1.250000e+001
      vertex  0.000000e+000  2.451047e+001  8.746696e+000
      vertex  0.000000e+000  2.398953e+001  8.746696e+000
    endloop
  endfacet
  facet normal -1.000000e+000  -0.000000e+000  0.000000e+000
    outer loop
      vertex  0.000000e+000 -2.650000e+001  1.250000e+001
      vertex  0.000000e+000  2.398953e+001  8.746696e+000
      vertex  0.000000e+000  2.350000e+001  8.568521e+000
    endloop
  endfacet
  facet normal -1.000000e+000  -0.000000e+000  0.000000e+000
    outer loop
      vertex  0.000000e+000 -2.650000e+001  1.250000e+001
      vertex  0.000000e+000  2.350000e+001  8.568521e+000
      vertex  0.000000e+000  2.310093e+001  8.233665e+000
    endloop
  endfacet
  facet normal -1.000000e+000 -6.786764e-017 -7.890374e-016
    outer loop
      vertex  0.000000e+000 -2.650000e+001  1.250000e+001
      vertex  0.000000e+000  2.310093e+001  8.233665e+000
      vertex  4.440892e-016  1.986492e+001  7.949181e+000
    endloop
  endfacet
  facet normal -1.000000e+000  -0.000000e+000 -9.758445e-017
    outer loop
      vertex  0.000000e+000 -2.650000e+001  1.250000e+001
      vertex  4.440892e-016  1.986492e+001  7.949181e+000
      vertex  4.440892e-016  0.000000e+000  7.949181e+000
    endloop
  endfacet
  facet normal -1.000000e+000  1.941435e-017  1.546776e-017
    outer loop
      vertex  0.000000e+000 -2.650000e+001  1.250000e+001
      vertex  4.440892e-016  0.000000e+000  7.949181e+000
      vertex  0.000000e+000 -2.310093e+001  8.233665e+000
    endloop
  endfacet
  facet normal -1.000000e+000  0.000000e+000  0.000000e+000
    outer loop
      vertex  0.000000e+000 -2.650000e+001  1.250000e+001
      vertex  0.000000e+000 -2.310093e+001  8.233665e+000
      vertex  0.000000e+000 -2.350000e+001  8.568521e+000
    endloop
  endfacet
  facet normal -1.000000e+000  0.000000e+000  0.000000e+000
    outer loop
      vertex  0.000000e+000 -2.650000e+001  1.250000e+001
      vertex  0.000000e+000 -2.350000e+001  8.568521e+000
      vertex  0.000000e+000 -2.398953e+001  8.746696e+000
    endloop
  endfacet
  facet normal -1.000000e+000  0.000000e+000  0.000000e+000
    outer loop
      vertex  0.000000e+000 -2.650000e+001  1.250000e+001
      vertex  0.000000e+000 -2.398953e+001  8.746696e+000
      vertex  0.000000e+000 -2.451047e+001  8.746696e+000
    endloop
  endfacet
  facet normal -1.000000e+000  -0.000000e+000  0.000000e+000
    outer loop
      vertex  0.000000e+000 -2.650000e+001  1.250000e+001
      vertex  0.000000e+000 -2.451047e+001  8.746696e+000
      vertex  0.000000e+000 -2.500000e+001  8.568521e+000
    endloop
  endfacet
  facet normal -1.000000e+000  -0.000000e+000  0.000000e+000
    outer loop
      vertex  0.000000e+000 -2.650000e+001  1.250000e+001
      vertex  0.000000e+000 -2.500000e+001  8.568521e+000
      vertex  0.000000e+000 -2.539907e+001  8.233665e+000
    endloop
  endfacet
  facet normal -9.999999e-001  -0.000000e+000  0.000000e+000
    outer loop
      vertex  0.000000e+000 -2.650000e+001  1.250000e+001
      vertex  0.000000e+000 -2.539907e+001  8.233665e+000
      vertex  0.000000e+000 -2.565954e+001  7.782514e+000
    endloop
  endfacet
  facet normal -1.000000e+000  -0.000000e+000  0.000000e+000
    outer loop
      vertex  0.000000e+000 -2.650000e+001  1.250000e+001
      vertex  0.000000e+000 -2.565954e+001  7.782514e+000
      vertex  0.000000e+000 -2.575000e+001  7.269484e+000
    endloop
  endfacet
  facet normal -1.000000e+000  -0.000000e+000  0.000000e+000
    outer loop
      vertex  0.000000e+000 -2.650000e+001  1.250000e+001
      vertex  0.000000e+000 -2.575000e+001  7.269484e+000
      vertex  0.000000e+000 -2.650000e+001 -1.250000e+001
    endloop
  endfacet
  facet normal -1.000000e+000  -0.000000e+000  -0.000000e+000
    outer loop
      vertex  0.000000e+000 -2.451047e+001  5.792272e+000
      vertex  0.000000e+000 -2.398953e+001  5.792272e+000
      vertex  0.000000e+000 -2.398953e+001 -5.792272e+000
    endloop
  endfacet
  facet normal -1.000000e+000  0.000000e+000  0.000000e+000
    outer loop
      vertex  0.000000e+000 -2.451047e+001  5.792272e+000
      vertex  0.000000e+000 -2.398953e+001 -5.792272e+000
      vertex  0.000000e+000 -2.451047e+001 -5.792272e+000
    endloop
  endfacet
  facet normal -1.000000e+000  -0.000000e+000  0.000000e+000
    outer loop
      vertex  0.000000e+000 -2.451047e+001  5.792272e+000
      vertex  0.000000e+000 -2.451047e+001 -5.792272e+000
      vertex  0.000000e+000 -2.500000e+001 -5.970446e+000
    endloop
  endfacet
  facet normal -9.999999e-001  -0.000000e+000  0.000000e+000
    outer loop
      vertex  0.000000e+000 -2.451047e+001  5.792272e+000
      vertex  0.000000e+000 -2.500000e+001 -5.970446e+000
      vertex  0.000000e+000 -2.539907e+001 -6.305302e+000
    endloop
  endfacet
  facet normal -1.000000e+000  -0.000000e+000  0.000000e+000
    outer loop
      vertex  0.000000e+000 -2.451047e+001  5.792272e+000
      vertex  0.000000e+000 -2.539907e+001 -6.305302e+000
      vertex  0.000000e+000 -2.565954e+001 -6.756454e+000
    endloop
  endfacet
  facet normal -1.000000e+000  -0.000000e+000  0.000000e+000
    outer loop
      vertex  0.000000e+000 -2.451047e+001  5.792272e+000
      vertex  0.000000e+000 -2.565954e+001 -6.756454e+000
      vertex  0.000000e+000 -2.575000e+001 -7.269484e+000
    endloop
  endfacet
  facet normal -9.999999e-001  -0.000000e+000  0.000000e+000
    outer loop
      vertex  0.000000e+000 -2.451047e+001  5.792272e+000
      vertex  0.000000e+000 -2.575000e+001 -7.269484e+000
      vertex  0.000000e+000 -2.650000e+001 -1.250000e+001
    endloop
  endfacet
  facet normal -1.000000e+000  0.000000e+000  -0.000000e+000
    outer loop
      vertex  0.000000e+000 -2.650000e+001 -1.250000e+001
      vertex  0.000000e+000 -2.575000e+001  7.269484e+000
      vertex  0.000000e+000 -2.565954e+001  6.756454e+000
    endloop
  endfacet
  facet normal -1.000000e+000  0.000000e+000  -0.000000e+000
    outer loop
      vertex  0.000000e+000 -2.650000e+001 -1.250000e+001
      vertex  0.000000e+000 -2.565954e+001  6.756454e+000
      vertex  0.000000e+000 -2.539907e+001  6.305302e+000
    endloop
  endfacet
  facet normal -1.000000e+000  0.000000e+000  -0.000000e+000
    outer loop
      vertex  0.000000e+000 -2.650000e+001 -1.250000e+001
      vertex  0.000000e+000 -2.539907e+001  6.305302e+000
      vertex  0.000000e+000 -2.500000e+001  5.970446e+000
    endloop
  endfacet
  facet normal -1.000000e+000  0.000000e+000  -0.000000e+000
    outer loop
      vertex  0.000000e+000 -2.650000e+001 -1.250000e+001
      vertex  0.000000e+000 -2.500000e+001  5.970446e+000
      vertex  0.000000e+000 -2.451047e+001  5.792272e+000
    endloop
  endfacet
  facet normal -1.000000e+000  -0.000000e+000  -0.000000e+000
    outer loop
      vertex  0.000000e+000  2.398953e+001  5.792272e+000
      vertex  0.000000e+000  2.451047e+001  5.792272e+000
      vertex  0.000000e+000  2.451047e+001 -5.792272e+000
    endloop
  endfacet
  facet normal -1.000000e+000  0.000000e+000  0.000000e+000
    outer loop
      vertex  0.000000e+000  2.398953e+001  5.792272e+000
      vertex  0.000000e+000  2.451047e+001 -5.792272e+000
      vertex  0.000000e+000  2.398953e+001 -5.792272e+000
    endloop
  endfacet
  facet normal -1.000000e+000  -0.000000e+000  0.000000e+000
    outer loop
      vertex  0.000000e+000  2.398953e+001  5.792272e+000
      vertex  0.000000e+000  2.398953e+001 -5.792272e+000
      vertex  0.000000e+000  2.350000e+001 -5.970446e+000
    endloop
  endfacet
  facet normal -9.999999e-001  -0.000000e+000  0.000000e+000
    outer loop
      vertex  0.000000e+000  2.398953e+001  5.792272e+000
      vertex  0.000000e+000  2.350000e+001 -5.970446e+000
      vertex  0.000000e+000  2.310093e+001 -6.305302e+000
    endloop
  endfacet
  facet normal -1.000000e+000  -0.000000e+000  0.000000e+000
    outer loop
      vertex  0.000000e+000  2.398953e+001  5.792272e+000
      vertex  0.000000e+000  2.310093e+001 -6.305302e+000
      vertex  0.000000e+000  2.284046e+001 -6.756454e+000
    endloop
  endfacet
  facet normal -9.999999e-001 -1.790032e-016  1.639104e-017
    outer loop
      vertex  0.000000e+000  2.398953e+001  5.792272e+000
      vertex  0.000000e+000  2.284046e+001 -6.756454e+000
      vertex  4.440892e-016  1.986492e+001 -1.215835e+001
    endloop
  endfacet
  facet normal -1.000000e+000  0.000000e+000  0.000000e+000
    outer loop
      vertex  0.000000e+000  2.451047e+001  5.792272e+000
      vertex  0.000000e+000  2.650000e+001 -1.250000e+001
      vertex  0.000000e+000  2.575000e+001 -7.269484e+000
    endloop
  endfacet
  facet normal -1.000000e+000  0.000000e+000  0.000000e+000
    outer loop
      vertex  0.000000e+000  2.451047e+001  5.792272e+000
      vertex  0.000000e+000  2.575000e+001 -7.269484e+000
      vertex  0.000000e+000  2.565954e+001 -6.756454e+000
    endloop
  endfacet
  facet normal -1.000000e+000  0.000000e+000  0.000000e+000
    outer loop
      vertex  0.000000e+000  2.451047e+001  5.792272e+000
      vertex  0.000000e+000  2.565954e+001 -6.756454e+000
      vertex  0.000000e+000  2.539907e+001 -6.305302e+000
    endloop
  endfacet
  facet normal -1.000000e+000  0.000000e+000  0.000000e+000
    outer loop
      vertex  0.000000e+000  2.451047e+001  5.792272e+000
      vertex  0.000000e+000  2.539907e+001 -6.305302e+000
      vertex  0.000000e+000  2.500000e+001 -5.970446e+000
    endloop
  endfacet
  facet normal -1.000000e+000  0.000000e+000  0.000000e+000
    outer loop
      vertex  0.000000e+000  2.451047e+001  5.792272e+000
      vertex  0.000000e+000  2.500000e+001 -5.970446e+000
      vertex  0.000000e+000  2.451047e+001 -5.792272e+000
    endloop
  endfacet
  facet normal -1.000000e+000 -7.037018e-017 -1.240826e-017
    outer loop
      vertex  4.440892e-016  1.986492e+001 -1.215835e+001
      vertex  0.000000e+000  2.275000e+001  7.269484e+000
      vertex  0.000000e+000  2.284046e+001  6.756454e+000
    endloop
  endfacet
  facet normal -1.000000e+000 -3.195814e-017 -1.845097e-017
    outer loop
      vertex  4.440892e-016  1.986492e+001 -1.215835e+001
      vertex  0.000000e+000  2.284046e+001  6.756454e+000
      vertex  0.000000e+000  2.310093e+001  6.305302e+000
    endloop
  endfacet
  facet normal -1.000000e+000 -1.759455e-017 -2.096839e-017
    outer loop
      vertex  4.440892e-016  1.986492e+001 -1.215835e+001
      vertex  0.000000e+000  2.310093e+001  6.305302e+000
      vertex  0.000000e+000  2.350000e+001  5.970446e+000
    endloop
  endfacet
  facet normal -1.000000e+000 -8.309490e-018 -2.283018e-017
    outer loop
      vertex  4.440892e-016  1.986492e+001 -1.215835e+001
      vertex  0.000000e+000  2.350000e+001  5.970446e+000
      vertex  0.000000e+000  2.398953e+001  5.792272e+000
    endloop
  endfacet
  facet normal -1.000000e+000  0.000000e+000  -0.000000e+000
    outer loop
      vertex  0.000000e+000 -2.650000e+001 -1.250000e+001
      vertex  0.000000e+000 -2.575000e+001 -7.269484e+000
      vertex  0.000000e+000 -2.565954e+001 -7.782514e+000
    endloop
  endfacet
  facet normal -9.999999e-001  0.000000e+000  -0.000000e+000
    outer loop
      vertex  0.000000e+000 -2.650000e+001 -1.250000e+001
      vertex  0.000000e+000 -2.565954e+001 -7.782514e+000
      vertex  0.000000e+000 -2.539907e+001 -8.233665e+000
    endloop
  endfacet
  facet normal -1.000000e+000  0.000000e+000  -0.000000e+000
    outer loop
      vertex  0.000000e+000 -2.650000e+001 -1.250000e+001
      vertex  0.000000e+000 -2.539907e+001 -8.233665e+000
      vertex  0.000000e+000 -2.500000e+001 -8.568521e+000
    endloop
  endfacet
  facet normal -1.000000e+000  0.000000e+000  -0.000000e+000
    outer loop
      vertex  0.000000e+000 -2.650000e+001 -1.250000e+001
      vertex  0.000000e+000 -2.500000e+001 -8.568521e+000
      vertex  0.000000e+000 -2.451047e+001 -8.746696e+000
    endloop
  endfacet
  facet normal -9.999999e-001  0.000000e+000  0.000000e+000
    outer loop
      vertex  0.000000e+000 -2.650000e+001 -1.250000e+001
      vertex  0.000000e+000 -2.451047e+001 -8.746696e+000
      vertex  0.000000e+000 -2.650000e+001 -1.490000e+001
    endloop
  endfacet
  facet normal -1.000000e+000  0.000000e+000  1.619786e-016
    outer loop
      vertex  4.440892e-016  0.000000e+000 -1.215835e+001
      vertex  4.440892e-016  1.986492e+001 -1.215835e+001
      vertex  0.000000e+000  2.650000e+001 -1.490000e+001
    endloop
  endfacet
  facet normal -1.000000e+000  0.000000e+000  1.619786e-016
    outer loop
      vertex  4.440892e-016  0.000000e+000 -1.215835e+001
      vertex  0.000000e+000  2.650000e+001 -1.490000e+001
      vertex  0.000000e+000 -2.650000e+001 -1.490000e+001
    endloop
  endfacet
  facet normal -9.999999e-001  1.733806e-017 -5.605860e-018
    outer loop
      vertex  4.440892e-016  0.000000e+000 -1.215835e+001
      vertex  0.000000e+000 -2.650000e+001 -1.490000e+001
      vertex  0.000000e+000 -2.451047e+001 -8.746696e+000
    endloop
  endfacet
  facet normal -9.999999e-001  0.000000e+000 -1.301684e-016
    outer loop
      vertex  4.440892e-016  0.000000e+000 -1.215835e+001
      vertex  0.000000e+000 -2.451047e+001 -8.746696e+000
      vertex  0.000000e+000 -2.398953e+001 -8.746696e+000
    endloop
  endfacet
  facet normal -1.000000e+000  1.331085e-017 -3.657123e-017
    outer loop
      vertex  4.440892e-016  0.000000e+000 -1.215835e+001
      vertex  0.000000e+000 -2.398953e+001 -8.746696e+000
      vertex  0.000000e+000 -2.350000e+001 -8.568521e+000
    endloop
  endfacet
  facet normal -1.000000e+000  1.598698e-017 -1.905253e-017
    outer loop
      vertex  4.440892e-016  0.000000e+000 -1.215835e+001
      vertex  0.000000e+000 -2.350000e+001 -8.568521e+000
      vertex  0.000000e+000 -2.310093e+001 -8.233665e+000
    endloop
  endfacet
  facet normal -9.999999e-001  1.750668e-017 -1.010746e-017
    outer loop
      vertex  4.440892e-016  0.000000e+000 -1.215835e+001
      vertex  0.000000e+000 -2.310093e+001 -8.233665e+000
      vertex  0.000000e+000 -2.284046e+001 -7.782514e+000
    endloop
  endfacet
  facet normal -1.000000e+000  1.880774e-017 -3.316337e-018
    outer loop
      vertex  4.440892e-016  0.000000e+000 -1.215835e+001
      vertex  0.000000e+000 -2.284046e+001 -7.782514e+000
      vertex  0.000000e+000 -2.275000e+001 -7.269484e+000
    endloop
  endfacet
  facet normal -1.000000e+000  2.028921e-017  3.577562e-018
    outer loop
      vertex  4.440892e-016  0.000000e+000 -1.215835e+001
      vertex  0.000000e+000 -2.275000e+001 -7.269484e+000
      vertex  0.000000e+000 -2.284046e+001 -6.756454e+000
    endloop
  endfacet
  facet normal -1.000000e+000  2.251781e-017  1.300061e-017
    outer loop
      vertex  4.440892e-016  0.000000e+000 -1.215835e+001
      vertex  0.000000e+000 -2.284046e+001 -6.756454e+000
      vertex  0.000000e+000 -2.310093e+001 -6.305302e+000
    endloop
  endfacet
  facet normal -1.000000e+000  2.753950e-017  3.282033e-017
    outer loop
      vertex  4.440892e-016  0.000000e+000 -1.215835e+001
      vertex  0.000000e+000 -2.310093e+001 -6.305302e+000
      vertex  0.000000e+000 -2.350000e+001 -5.970446e+000
    endloop
  endfacet
  facet normal -1.000000e+000  6.833346e-017  1.877450e-016
    outer loop
      vertex  4.440892e-016  0.000000e+000 -1.215835e+001
      vertex  0.000000e+000 -2.350000e+001 -5.970446e+000
      vertex  0.000000e+000 -2.398953e+001 -5.792272e+000
    endloop
  endfacet
  facet normal -1.000000e+000  1.851179e-017  0.000000e+000
    outer loop
      vertex  4.440892e-016  0.000000e+000 -1.215835e+001
      vertex  0.000000e+000 -2.398953e+001 -5.792272e+000
      vertex  0.000000e+000 -2.398953e+001  5.792272e+000
    endloop
  endfacet
  facet normal -1.000000e+000  6.057810e-018 -1.664373e-017
    outer loop
      vertex  4.440892e-016  0.000000e+000 -1.215835e+001
      vertex  0.000000e+000 -2.398953e+001  5.792272e+000
      vertex  0.000000e+000 -2.350000e+001  5.970446e+000
    endloop
  endfacet
  facet normal -1.000000e+000  9.845660e-018 -1.173361e-017
    outer loop
      vertex  4.440892e-016  0.000000e+000 -1.215835e+001
      vertex  0.000000e+000 -2.350000e+001  5.970446e+000
      vertex  0.000000e+000 -2.310093e+001  6.305302e+000
    endloop
  endfacet
  facet normal -9.999999e-001  1.315396e-017 -7.594410e-018
    outer loop
      vertex  4.440892e-016  0.000000e+000 -1.215835e+001
      vertex  0.000000e+000 -2.310093e+001  6.305302e+000
      vertex  0.000000e+000 -2.284046e+001  6.756454e+000
    endloop
  endfacet
  facet normal -9.999999e-001  1.696572e-017 -2.991537e-018
    outer loop
      vertex  4.440892e-016  0.000000e+000 -1.215835e+001
      vertex  0.000000e+000 -2.284046e+001  6.756454e+000
      vertex  0.000000e+000 -2.275000e+001  7.269484e+000
    endloop
  endfacet
  facet normal -1.000000e+000  2.298084e-017  4.052173e-018
    outer loop
      vertex  4.440892e-016  0.000000e+000 -1.215835e+001
      vertex  0.000000e+000 -2.275000e+001  7.269484e+000
      vertex  0.000000e+000 -2.284046e+001  7.782514e+000
    endloop
  endfacet
  facet normal -1.000000e+000  3.920406e-017  2.263441e-017
    outer loop
      vertex  4.440892e-016  0.000000e+000 -1.215835e+001
      vertex  0.000000e+000 -2.284046e+001  7.782514e+000
      vertex  0.000000e+000 -2.310093e+001  8.233665e+000
    endloop
  endfacet
  facet normal -1.000000e+000  1.922386e-017  0.000000e+000
    outer loop
      vertex  4.440892e-016  0.000000e+000 -1.215835e+001
      vertex  0.000000e+000 -2.310093e+001  8.233665e+000
      vertex  4.440892e-016  0.000000e+000  7.949181e+000
    endloop
  endfacet
  facet normal -1.000000e+000 -2.195161e-016  3.870690e-017
    outer loop
      vertex  4.440892e-016  1.986492e+001 -1.215835e+001
      vertex  0.000000e+000  2.284046e+001 -6.756454e+000
      vertex  0.000000e+000  2.275000e+001 -7.269484e+000
    endloop
  endfacet
  facet normal -1.000000e+000 -1.185146e-016 -2.089748e-017
    outer loop
      vertex  4.440892e-016  1.986492e+001 -1.215835e+001
      vertex  0.000000e+000  2.275000e+001 -7.269484e+000
      vertex  0.000000e+000  2.284046e+001 -7.782514e+000
    endloop
  endfacet
  facet normal -1.000000e+000 -8.071525e-017 -4.660084e-017
    outer loop
      vertex  4.440892e-016  1.986492e+001 -1.215835e+001
      vertex  0.000000e+000  2.284046e+001 -7.782514e+000
      vertex  0.000000e+000  2.310093e+001 -8.233665e+000
    endloop
  endfacet
  facet normal -1.000000e+000 -5.611958e-017 -6.688069e-017
    outer loop
      vertex  4.440892e-016  1.986492e+001 -1.215835e+001
      vertex  0.000000e+000  2.310093e+001 -8.233665e+000
      vertex  0.000000e+000  2.350000e+001 -8.568521e+000
    endloop
  endfacet
  facet normal -1.000000e+000 -3.290028e-017 -9.039271e-017
    outer loop
      vertex  4.440892e-016  1.986492e+001 -1.215835e+001
      vertex  0.000000e+000  2.350000e+001 -8.568521e+000
      vertex  0.000000e+000  2.398953e+001 -8.746696e+000
    endloop
  endfacet
  facet normal -9.999999e-001  0.000000e+000 -1.301684e-016
    outer loop
      vertex  4.440892e-016  1.986492e+001 -1.215835e+001
      vertex  0.000000e+000  2.398953e+001 -8.746696e+000
      vertex  0.000000e+000  2.451047e+001 -8.746696e+000
    endloop
  endfacet
  facet normal -9.999999e-001 -6.880858e-017 -3.647363e-017
    outer loop
      vertex  4.440892e-016  1.986492e+001 -1.215835e+001
      vertex  0.000000e+000  2.451047e+001 -8.746696e+000
      vertex  0.000000e+000  2.650000e+001 -1.250000e+001
    endloop
  endfacet
  facet normal -1.000000e+000 -6.693048e-017  -0.000000e+000
    outer loop
      vertex  4.440892e-016  1.986492e+001 -1.215835e+001
      vertex  0.000000e+000  2.650000e+001 -1.250000e+001
      vertex  0.000000e+000  2.650000e+001 -1.490000e+001
    endloop
  endfacet
  facet normal -1.000000e+000  0.000000e+000  0.000000e+000
    outer loop
      vertex  0.000000e+000  2.650000e+001 -1.250000e+001
      vertex  0.000000e+000  2.451047e+001 -8.746696e+000
      vertex  0.000000e+000  2.500000e+001 -8.568521e+000
    endloop
  endfacet
  facet normal -1.000000e+000  0.000000e+000  0.000000e+000
    outer loop
      vertex  0.000000e+000  2.650000e+001 -1.250000e+001
      vertex  0.000000e+000  2.500000e+001 -8.568521e+000
      vertex  0.000000e+000  2.539907e+001 -8.233665e+000
    endloop
  endfacet
  facet normal -9.999999e-001  0.000000e+000  0.000000e+000
    outer loop
      vertex  0.000000e+000  2.650000e+001 -1.250000e+001
      vertex  0.000000e+000  2.539907e+001 -8.233665e+000
      vertex  0.000000e+000  2.565954e+001 -7.782514e+000
    endloop
  endfacet
  facet normal -1.000000e+000  0.000000e+000  0.000000e+000
    outer loop
      vertex  0.000000e+000  2.650000e+001 -1.250000e+001
      vertex  0.000000e+000  2.565954e+001 -7.782514e+000
      vertex  0.000000e+000  2.575000e+001 -7.269484e+000
    endloop
  endfacet
  facet normal -1.000000e+000  0.000000e+000  0.000000e+000
    outer loop
      vertex  0.000000e+000  2.650000e+001 -1.250000e+001
      vertex  0.000000e+000  2.451047e+001  5.792272e+000
      vertex  0.000000e+000  2.500000e+001  5.970446e+000
    endloop
  endfacet
  facet normal -9.999999e-001  0.000000e+000  0.000000e+000
    outer loop
      vertex  0.000000e+000  2.650000e+001 -1.250000e+001
      vertex  0.000000e+000  2.500000e+001  5.970446e+000
      vertex  0.000000e+000  2.539907e+001  6.305302e+000
    endloop
  endfacet
  facet normal -1.000000e+000  0.000000e+000  0.000000e+000
    outer loop
      vertex  0.000000e+000  2.650000e+001 -1.250000e+001
      vertex  0.000000e+000  2.539907e+001  6.305302e+000
      vertex  0.000000e+000  2.565954e+001  6.756454e+000
    endloop
  endfacet
  facet normal -1.000000e+000  0.000000e+000  0.000000e+000
    outer loop
      vertex  0.000000e+000  2.650000e+001 -1.250000e+001
      vertex  0.000000e+000  2.565954e+001  6.756454e+000
      vertex  0.000000e+000  2.575000e+001  7.269484e+000
    endloop
  endfacet
  facet normal -1.000000e+000  0.000000e+000  0.000000e+000
    outer loop
      vertex  0.000000e+000  2.650000e+001  1.250000e+001
      vertex  0.000000e+000  2.650000e+001 -1.250000e+001
      vertex  0.000000e+000  2.575000e+001  7.269484e+000
    endloop
  endfacet
  facet normal -1.000000e+000  0.000000e+000  0.000000e+000
    outer loop
      vertex  0.000000e+000  2.650000e+001  1.250000e+001
      vertex  0.000000e+000  2.575000e+001  7.269484e+000
      vertex  0.000000e+000  2.565954e+001  7.782514e+000
    endloop
  endfacet
  facet normal -9.999999e-001  0.000000e+000  0.000000e+000
    outer loop
      vertex  0.000000e+000  2.650000e+001  1.250000e+001
      vertex  0.000000e+000  2.565954e+001  7.782514e+000
      vertex  0.000000e+000  2.539907e+001  8.233665e+000
    endloop
  endfacet
  facet normal -1.000000e+000  0.000000e+000  0.000000e+000
    outer loop
      vertex  0.000000e+000  2.650000e+001  1.250000e+001
      vertex  0.000000e+000  2.539907e+001  8.233665e+000
      vertex  0.000000e+000  2.500000e+001  8.568521e+000
    endloop
  endfacet
  facet normal -1.000000e+000  0.000000e+000  0.000000e+000
    outer loop
      vertex  0.000000e+000  2.650000e+001  1.250000e+001
      vertex  0.000000e+000  2.500000e+001  8.568521e+000
      vertex  0.000000e+000  2.451047e+001  8.746696e+000
    endloop
  endfacet
  facet normal  9.999999e-001  0.000000e+000  0.000000e+000
    outer loop
      vertex  3.000000e+000  1.986492e+001  7.949181e+000
      vertex  3.000000e+000  1.986492e+001 -1.215835e+001
      vertex  3.000000e+000  2.275000e+001  7.269484e+000
    endloop
  endfacet
  facet normal  9.999999e-001  0.000000e+000  -0.000000e+000
    outer loop
      vertex  3.000000e+000  1.986492e+001  7.949181e+000
      vertex  3.000000e+000  2.275000e+001  7.269484e+000
      vertex  3.000000e+000  2.284046e+001  7.782514e+000
    endloop
  endfacet
  facet normal  1.000000e+000  0.000000e+000  -0.000000e+000
    outer loop
      vertex  3.000000e+000  1.986492e+001  7.949181e+000
      vertex  3.000000e+000  2.284046e+001  7.782514e+000
      vertex  3.000000e+000  2.310093e+001  8.233665e+000
    endloop
  endfacet
  facet normal  1.000000e+000  0.000000e+000  0.000000e+000
    outer loop
      vertex  3.000000e+000 -2.650000e+001  1.250000e+001
      vertex  3.000000e+000 -2.650000e+001 -1.250000e+001
      vertex  3.000000e+000 -2.575000e+001  7.269484e+000
    endloop
  endfacet
  facet normal  1.000000e+000  0.000000e+000  -0.000000e+000
    outer loop
      vertex  3.000000e+000 -2.650000e+001  1.250000e+001
      vertex  3.000000e+000 -2.575000e+001  7.269484e+000
      vertex  3.000000e+000 -2.565954e+001  7.782514e+000
    endloop
  endfacet
  facet normal  9.999999e-001  0.000000e+000  -0.000000e+000
    outer loop
      vertex  3.000000e+000 -2.650000e+001  1.250000e+001
      vertex  3.000000e+000 -2.565954e+001  7.782514e+000
      vertex  3.000000e+000 -2.539907e+001  8.233665e+000
    endloop
  endfacet
  facet normal  1.000000e+000  0.000000e+000  -0.000000e+000
    outer loop
      vertex  3.000000e+000 -2.650000e+001  1.250000e+001
      vertex  3.000000e+000 -2.539907e+001  8.233665e+000
      vertex  3.000000e+000 -2.500000e+001  8.568521e+000
    endloop
  endfacet
  facet normal  1.000000e+000  0.000000e+000  -0.000000e+000
    outer loop
      vertex  3.000000e+000 -2.650000e+001  1.250000e+001
      vertex  3.000000e+000 -2.500000e+001  8.568521e+000
      vertex  3.000000e+000 -2.451047e+001  8.746696e+000
    endloop
  endfacet
  facet normal  1.000000e+000  0.000000e+000  -0.000000e+000
    outer loop
      vertex  3.000000e+000 -2.650000e+001  1.250000e+001
      vertex  3.000000e+000 -2.451047e+001  8.746696e+000
      vertex  3.000000e+000 -2.398953e+001  8.746696e+000
    endloop
  endfacet
  facet normal  1.000000e+000  -0.000000e+000  -0.000000e+000
    outer loop
      vertex  3.000000e+000 -2.650000e+001  1.250000e+001
      vertex  3.000000e+000 -2.398953e+001  8.746696e+000
      vertex  3.000000e+000 -2.350000e+001  8.568521e+000
    endloop
  endfacet
  facet normal  1.000000e+000  -0.000000e+000  -0.000000e+000
    outer loop
      vertex  3.000000e+000 -2.650000e+001  1.250000e+001
      vertex  3.000000e+000 -2.350000e+001  8.568521e+000
      vertex  3.000000e+000 -2.310093e+001  8.233665e+000
    endloop
  endfacet
  facet normal  1.000000e+000  -0.000000e+000  -0.000000e+000
    outer loop
      vertex  3.000000e+000 -2.650000e+001  1.250000e+001
      vertex  3.000000e+000 -2.310093e+001  8.233665e+000
      vertex  3.000000e+000  0.000000e+000  7.949181e+000
    endloop
  endfacet
  facet normal  1.000000e+000  0.000000e+000  -0.000000e+000
    outer loop
      vertex  3.000000e+000 -2.650000e+001  1.250000e+001
      vertex  3.000000e+000  0.000000e+000  7.949181e+000
      vertex  3.000000e+000  1.986492e+001  7.949181e+000
    endloop
  endfacet
  facet normal  1.000000e+000  0.000000e+000  -0.000000e+000
    outer loop
      vertex  3.000000e+000 -2.650000e+001  1.250000e+001
      vertex  3.000000e+000  1.986492e+001  7.949181e+000
      vertex  3.000000e+000  2.310093e+001  8.233665e+000
    endloop
  endfacet
  facet normal  1.000000e+000  0.000000e+000  -0.000000e+000
    outer loop
      vertex  3.000000e+000 -2.650000e+001  1.250000e+001
      vertex  3.000000e+000  2.310093e+001  8.233665e+000
      vertex  3.000000e+000  2.350000e+001  8.568521e+000
    endloop
  endfacet
  facet normal  1.000000e+000  0.000000e+000  -0.000000e+000
    outer loop
      vertex  3.000000e+000 -2.650000e+001  1.250000e+001
      vertex  3.000000e+000  2.350000e+001  8.568521e+000
      vertex  3.000000e+000  2.398953e+001  8.746696e+000
    endloop
  endfacet
  facet normal  1.000000e+000  0.000000e+000  -0.000000e+000
    outer loop
      vertex  3.000000e+000 -2.650000e+001  1.250000e+001
      vertex  3.000000e+000  2.398953e+001  8.746696e+000
      vertex  3.000000e+000  2.451047e+001  8.746696e+000
    endloop
  endfacet
  facet normal  1.000000e+000  0.000000e+000  -0.000000e+000
    outer loop
      vertex  3.000000e+000 -2.650000e+001  1.250000e+001
      vertex  3.000000e+000  2.451047e+001  8.746696e+000
      vertex  3.000000e+000  2.650000e+001  1.250000e+001
    endloop
  endfacet
  facet normal  1.000000e+000  0.000000e+000  0.000000e+000
    outer loop
      vertex  3.000000e+000 -2.451047e+001  5.792272e+000
      vertex  3.000000e+000 -2.650000e+001 -1.250000e+001
      vertex  3.000000e+000 -2.575000e+001 -7.269484e+000
    endloop
  endfacet
  facet normal  1.000000e+000  0.000000e+000  0.000000e+000
    outer loop
      vertex  3.000000e+000 -2.451047e+001  5.792272e+000
      vertex  3.000000e+000 -2.575000e+001 -7.269484e+000
      vertex  3.000000e+000 -2.565954e+001 -6.756454e+000
    endloop
  endfacet
  facet normal  1.000000e+000  0.000000e+000  0.000000e+000
    outer loop
      vertex  3.000000e+000 -2.451047e+001  5.792272e+000
      vertex  3.000000e+000 -2.565954e+001 -6.756454e+000
      vertex  3.000000e+000 -2.539907e+001 -6.305302e+000
    endloop
  endfacet
  facet normal  1.000000e+000  0.000000e+000  0.000000e+000
    outer loop
      vertex  3.000000e+000 -2.451047e+001  5.792272e+000
      vertex  3.000000e+000 -2.539907e+001 -6.305302e+000
      vertex  3.000000e+000 -2.500000e+001 -5.970446e+000
    endloop
  endfacet
  facet normal  1.000000e+000  0.000000e+000  0.000000e+000
    outer loop
      vertex  3.000000e+000 -2.451047e+001  5.792272e+000
      vertex  3.000000e+000 -2.500000e+001 -5.970446e+000
      vertex  3.000000e+000 -2.451047e+001 -5.792272e+000
    endloop
  endfacet
  facet normal  1.000000e+000  0.000000e+000  0.000000e+000
    outer loop
      vertex  3.000000e+000 -2.451047e+001  5.792272e+000
      vertex  3.000000e+000 -2.451047e+001 -5.792272e+000
      vertex  3.000000e+000 -2.398953e+001 -5.792272e+000
    endloop
  endfacet
  facet normal  1.000000e+000  0.000000e+000  -0.000000e+000
    outer loop
      vertex  3.000000e+000 -2.451047e+001  5.792272e+000
      vertex  3.000000e+000 -2.398953e+001 -5.792272e+000
      vertex  3.000000e+000 -2.398953e+001  5.792272e+000
    endloop
  endfacet
  facet normal  1.000000e+000  0.000000e+000  0.000000e+000
    outer loop
      vertex  3.000000e+000 -2.650000e+001 -1.250000e+001
      vertex  3.000000e+000 -2.451047e+001  5.792272e+000
      vertex  3.000000e+000 -2.500000e+001  5.970446e+000
    endloop
  endfacet
  facet normal  9.999999e-001  0.000000e+000  0.000000e+000
    outer loop
      vertex  3.000000e+000 -2.650000e+001 -1.250000e+001
      vertex  3.000000e+000 -2.500000e+001  5.970446e+000
      vertex  3.000000e+000 -2.539907e+001  6.305302e+000
    endloop
  endfacet
  facet normal  1.000000e+000  0.000000e+000  0.000000e+000
    outer loop
      vertex  3.000000e+000 -2.650000e+001 -1.250000e+001
      vertex  3.000000e+000 -2.539907e+001  6.305302e+000
      vertex  3.000000e+000 -2.565954e+001  6.756454e+000
    endloop
  endfacet
  facet normal  1.000000e+000  0.000000e+000  0.000000e+000
    outer loop
      vertex  3.000000e+000 -2.650000e+001 -1.250000e+001
      vertex  3.000000e+000 -2.565954e+001  6.756454e+000
      vertex  3.000000e+000 -2.575000e+001  7.269484e+000
    endloop
  endfacet
  facet normal  1.000000e+000  0.000000e+000  0.000000e+000
    outer loop
      vertex  3.000000e+000  2.398953e+001  5.792272e+000
      vertex  3.000000e+000  1.986492e+001 -1.215835e+001
      vertex  3.000000e+000  2.284046e+001 -6.756454e+000
    endloop
  endfacet
  facet normal  1.000000e+000  0.000000e+000  0.000000e+000
    outer loop
      vertex  3.000000e+000  2.398953e+001  5.792272e+000
      vertex  3.000000e+000  2.284046e+001 -6.756454e+000
      vertex  3.000000e+000  2.310093e+001 -6.305302e+000
    endloop
  endfacet
  facet normal  1.000000e+000  0.000000e+000  0.000000e+000
    outer loop
      vertex  3.000000e+000  2.398953e+001  5.792272e+000
      vertex  3.000000e+000  2.310093e+001 -6.305302e+000
      vertex  3.000000e+000  2.350000e+001 -5.970446e+000
    endloop
  endfacet
  facet normal  1.000000e+000  0.000000e+000  0.000000e+000
    outer loop
      vertex  3.000000e+000  2.398953e+001  5.792272e+000
      vertex  3.000000e+000  2.350000e+001 -5.970446e+000
      vertex  3.000000e+000  2.398953e+001 -5.792272e+000
    endloop
  endfacet
  facet normal  1.000000e+000  0.000000e+000  0.000000e+000
    outer loop
      vertex  3.000000e+000  2.398953e+001  5.792272e+000
      vertex  3.000000e+000  2.398953e+001 -5.792272e+000
      vertex  3.000000e+000  2.451047e+001 -5.792272e+000
    endloop
  endfacet
  facet normal  1.000000e+000  0.000000e+000  -0.000000e+000
    outer loop
      vertex  3.000000e+000  2.398953e+001  5.792272e+000
      vertex  3.000000e+000  2.451047e+001 -5.792272e+000
      vertex  3.000000e+000  2.451047e+001  5.792272e+000
    endloop
  endfacet
  facet normal  1.000000e+000  -0.000000e+000  0.000000e+000
    outer loop
      vertex  3.000000e+000  2.451047e+001  5.792272e+000
      vertex  3.000000e+000  2.451047e+001 -5.792272e+000
      vertex  3.000000e+000  2.500000e+001 -5.970446e+000
    endloop
  endfacet
  facet normal  9.999999e-001  -0.000000e+000  -0.000000e+000
    outer loop
      vertex  3.000000e+000  2.451047e+001  5.792272e+000
      vertex  3.000000e+000  2.500000e+001 -5.970446e+000
      vertex  3.000000e+000  2.539907e+001 -6.305302e+000
    endloop
  endfacet
  facet normal  1.000000e+000  -0.000000e+000  -0.000000e+000
    outer loop
      vertex  3.000000e+000  2.451047e+001  5.792272e+000
      vertex  3.000000e+000  2.539907e+001 -6.305302e+000
      vertex  3.000000e+000  2.565954e+001 -6.756454e+000
    endloop
  endfacet
  facet normal  1.000000e+000  -0.000000e+000  -0.000000e+000
    outer loop
      vertex  3.000000e+000  2.451047e+001  5.792272e+000
      vertex  3.000000e+000  2.565954e+001 -6.756454e+000
      vertex  3.000000e+000  2.575000e+001 -7.269484e+000
    endloop
  endfacet
  facet normal  9.999999e-001  -0.000000e+000  -0.000000e+000
    outer loop
      vertex  3.000000e+000  2.451047e+001  5.792272e+000
      vertex  3.000000e+000  2.575000e+001 -7.269484e+000
      vertex  3.000000e+000  2.650000e+001 -1.250000e+001
    endloop
  endfacet
  facet normal  1.000000e+000  0.000000e+000  0.000000e+000
    outer loop
      vertex  3.000000e+000  1.986492e+001 -1.215835e+001
      vertex  3.000000e+000  2.398953e+001  5.792272e+000
      vertex  3.000000e+000  2.350000e+001  5.970446e+000
    endloop
  endfacet
  facet normal  1.000000e+000  0.000000e+000  0.000000e+000
    outer loop
      vertex  3.000000e+000  1.986492e+001 -1.215835e+001
      vertex  3.000000e+000  2.350000e+001  5.970446e+000
      vertex  3.000000e+000  2.310093e+001  6.305302e+000
    endloop
  endfacet
  facet normal  1.000000e+000  0.000000e+000  0.000000e+000
    outer loop
      vertex  3.000000e+000  1.986492e+001 -1.215835e+001
      vertex  3.000000e+000  2.310093e+001  6.305302e+000
      vertex  3.000000e+000  2.284046e+001  6.756454e+000
    endloop
  endfacet
  facet normal  1.000000e+000  0.000000e+000  0.000000e+000
    outer loop
      vertex  3.000000e+000  1.986492e+001 -1.215835e+001
      vertex  3.000000e+000  2.284046e+001  6.756454e+000
      vertex  3.000000e+000  2.275000e+001  7.269484e+000
    endloop
  endfacet
  facet normal  1.000000e+000  0.000000e+000  0.000000e+000
    outer loop
      vertex  3.000000e+000 -2.650000e+001 -1.250000e+001
      vertex  3.000000e+000 -2.650000e+001 -1.490000e+001
      vertex  3.000000e+000 -2.451047e+001 -8.746696e+000
    endloop
  endfacet
  facet normal  1.000000e+000  0.000000e+000  0.000000e+000
    outer loop
      vertex  3.000000e+000 -2.650000e+001 -1.250000e+001
      vertex  3.000000e+000 -2.451047e+001 -8.746696e+000
      vertex  3.000000e+000 -2.500000e+001 -8.568521e+000
    endloop
  endfacet
  facet normal  1.000000e+000  0.000000e+000  0.000000e+000
    outer loop
      vertex  3.000000e+000 -2.650000e+001 -1.250000e+001
      vertex  3.000000e+000 -2.500000e+001 -8.568521e+000
      vertex  3.000000e+000 -2.539907e+001 -8.233665e+000
    endloop
  endfacet
  facet normal  9.999999e-001  0.000000e+000  0.000000e+000
    outer loop
      vertex  3.000000e+000 -2.650000e+001 -1.250000e+001
      vertex  3.000000e+000 -2.539907e+001 -8.233665e+000
      vertex  3.000000e+000 -2.565954e+001 -7.782514e+000
    endloop
  endfacet
  facet normal  1.000000e+000  0.000000e+000  0.000000e+000
    outer loop
      vertex  3.000000e+000 -2.650000e+001 -1.250000e+001
      vertex  3.000000e+000 -2.565954e+001 -7.782514e+000
      vertex  3.000000e+000 -2.575000e+001 -7.269484e+000
    endloop
  endfacet
  facet normal  1.000000e+000  0.000000e+000  0.000000e+000
    outer loop
      vertex  3.000000e+000  0.000000e+000 -1.215835e+001
      vertex  3.000000e+000  0.000000e+000  7.949181e+000
      vertex  3.000000e+000 -2.310093e+001  8.233665e+000
    endloop
  endfacet
  facet normal  1.000000e+000  0.000000e+000  0.000000e+000
    outer loop
      vertex  3.000000e+000  0.000000e+000 -1.215835e+001
      vertex  3.000000e+000 -2.310093e+001  8.233665e+000
      vertex  3.000000e+000 -2.284046e+001  7.782514e+000
    endloop
  endfacet
  facet normal  1.000000e+000  0.000000e+000  0.000000e+000
    outer loop
      vertex  3.000000e+000  0.000000e+000 -1.215835e+001
      vertex  3.000000e+000 -2.284046e+001  7.782514e+000
      vertex  3.000000e+000 -2.275000e+001  7.269484e+000
    endloop
  endfacet
  facet normal  9.999999e-001  0.000000e+000  0.000000e+000
    outer loop
      vertex  3.000000e+000  0.000000e+000 -1.215835e+001
      vertex  3.000000e+000 -2.275000e+001  7.269484e+000
      vertex  3.000000e+000 -2.284046e+001  6.756454e+000
    endloop
  endfacet
  facet normal  1.000000e+000  0.000000e+000  0.000000e+000
    outer loop
      vertex  3.000000e+000  0.000000e+000 -1.215835e+001
      vertex  3.000000e+000 -2.284046e+001  6.756454e+000
      vertex  3.000000e+000 -2.310093e+001  6.305302e+000
    endloop
  endfacet
  facet normal  1.000000e+000  0.000000e+000  0.000000e+000
    outer loop
      vertex  3.000000e+000  0.000000e+000 -1.215835e+001
      vertex  3.000000e+000 -2.310093e+001  6.305302e+000
      vertex  3.000000e+000 -2.350000e+001  5.970446e+000
    endloop
  endfacet
  facet normal  1.000000e+000  0.000000e+000  0.000000e+000
    outer loop
      vertex  3.000000e+000  0.000000e+000 -1.215835e+001
      vertex  3.000000e+000 -2.350000e+001  5.970446e+000
      vertex  3.000000e+000 -2.398953e+001  5.792272e+000
    endloop
  endfacet
  facet normal  1.000000e+000  0.000000e+000  0.000000e+000
    outer loop
      vertex  3.000000e+000  0.000000e+000 -1.215835e+001
      vertex  3.000000e+000 -2.398953e+001  5.792272e+000
      vertex  3.000000e+000 -2.398953e+001 -5.792272e+000
    endloop
  endfacet
  facet normal  1.000000e+000  0.000000e+000  0.000000e+000
    outer loop
      vertex  3.000000e+000  0.000000e+000 -1.215835e+001
      vertex  3.000000e+000 -2.398953e+001 -5.792272e+000
      vertex  3.000000e+000 -2.350000e+001 -5.970446e+000
    endloop
  endfacet
  facet normal  1.000000e+000  0.000000e+000  0.000000e+000
    outer loop
      vertex  3.000000e+000  0.000000e+000 -1.215835e+001
      vertex  3.000000e+000 -2.350000e+001 -5.970446e+000
      vertex  3.000000e+000 -2.310093e+001 -6.305302e+000
    endloop
  endfacet
  facet normal  1.000000e+000  0.000000e+000  0.000000e+000
    outer loop
      vertex  3.000000e+000  0.000000e+000 -1.215835e+001
      vertex  3.000000e+000 -2.310093e+001 -6.305302e+000
      vertex  3.000000e+000 -2.284046e+001 -6.756454e+000
    endloop
  endfacet
  facet normal  1.000000e+000  0.000000e+000  0.000000e+000
    outer loop
      vertex  3.000000e+000  0.000000e+000 -1.215835e+001
      vertex  3.000000e+000 -2.284046e+001 -6.756454e+000
      vertex  3.000000e+000 -2.275000e+001 -7.269484e+000
    endloop
  endfacet
  facet normal  1.000000e+000  0.000000e+000  0.000000e+000
    outer loop
      vertex  3.000000e+000  0.000000e+000 -1.215835e+001
      vertex  3.000000e+000 -2.275000e+001 -7.269484e+000
      vertex  3.000000e+000 -2.284046e+001 -7.782514e+000
    endloop
  endfacet
  facet normal  9.999999e-001  0.000000e+000  0.000000e+000
    outer loop
      vertex  3.000000e+000  0.000000e+000 -1.215835e+001
      vertex  3.000000e+000 -2.284046e+001 -7.782514e+000
      vertex  3.000000e+000 -2.310093e+001 -8.233665e+000
    endloop
  endfacet
  facet normal  1.000000e+000  0.000000e+000  0.000000e+000
    outer loop
      vertex  3.000000e+000  0.000000e+000 -1.215835e+001
      vertex  3.000000e+000 -2.310093e+001 -8.233665e+000
      vertex  3.000000e+000 -2.350000e+001 -8.568521e+000
    endloop
  endfacet
  facet normal  1.000000e+000  0.000000e+000  0.000000e+000
    outer loop
      vertex  3.000000e+000  0.000000e+000 -1.215835e+001
      vertex  3.000000e+000 -2.350000e+001 -8.568521e+000
      vertex  3.000000e+000 -2.398953e+001 -8.746696e+000
    endloop
  endfacet
  facet normal  9.999999e-001  0.000000e+000  0.000000e+000
    outer loop
      vertex  3.000000e+000  0.000000e+000 -1.215835e+001
      vertex  3.000000e+000 -2.398953e+001 -8.746696e+000
      vertex  3.000000e+000 -2.451047e+001 -8.746696e+000
    endloop
  endfacet
  facet normal  1.000000e+000  0.000000e+000  0.000000e+000
    outer loop
      vertex  3.000000e+000  0.000000e+000 -1.215835e+001
      vertex  3.000000e+000 -2.451047e+001 -8.746696e+000
      vertex  3.000000e+000 -2.650000e+001 -1.490000e+001
    endloop
  endfacet
  facet normal  1.000000e+000  0.000000e+000  0.000000e+000
    outer loop
      vertex  3.000000e+000  0.000000e+000 -1.215835e+001
      vertex  3.000000e+000 -2.650000e+001 -1.490000e+001
      vertex  3.000000e+000  2.650000e+001 -1.490000e+001
    endloop
  endfacet
  facet normal  1.000000e+000  0.000000e+000  0.000000e+000
    outer loop
      vertex  3.000000e+000  0.000000e+000 -1.215835e+001
      vertex  3.000000e+000  2.650000e+001 -1.490000e+001
      vertex  3.000000e+000  1.986492e+001 -1.215835e+001
    endloop
  endfacet
  facet normal  1.000000e+000  0.000000e+000  -0.000000e+000
    outer loop
      vertex  3.000000e+000  1.986492e+001 -1.215835e+001
      vertex  3.000000e+000  2.650000e+001 -1.490000e+001
      vertex  3.000000e+000  2.650000e+001 -1.250000e+001
    endloop
  endfacet
  facet normal  1.000000e+000  0.000000e+000  0.000000e+000
    outer loop
      vertex  3.000000e+000  1.986492e+001 -1.215835e+001
      vertex  3.000000e+000  2.650000e+001 -1.250000e+001
      vertex  3.000000e+000  2.451047e+001 -8.746696e+000
    endloop
  endfacet
  facet normal  9.999999e-001  0.000000e+000  0.000000e+000
    outer loop
      vertex  3.000000e+000  1.986492e+001 -1.215835e+001
      vertex  3.000000e+000  2.451047e+001 -8.746696e+000
      vertex  3.000000e+000  2.398953e+001 -8.746696e+000
    endloop
  endfacet
  facet normal  1.000000e+000  0.000000e+000  0.000000e+000
    outer loop
      vertex  3.000000e+000  1.986492e+001 -1.215835e+001
      vertex  3.000000e+000  2.398953e+001 -8.746696e+000
      vertex  3.000000e+000  2.350000e+001 -8.568521e+000
    endloop
  endfacet
  facet normal  1.000000e+000  0.000000e+000  0.000000e+000
    outer loop
      vertex  3.000000e+000  1.986492e+001 -1.215835e+001
      vertex  3.000000e+000  2.350000e+001 -8.568521e+000
      vertex  3.000000e+000  2.310093e+001 -8.233665e+000
    endloop
  endfacet
  facet normal  1.000000e+000  0.000000e+000  0.000000e+000
    outer loop
      vertex  3.000000e+000  1.986492e+001 -1.215835e+001
      vertex  3.000000e+000  2.310093e+001 -8.233665e+000
      vertex  3.000000e+000  2.284046e+001 -7.782514e+000
    endloop
  endfacet
  facet normal  1.000000e+000  0.000000e+000  0.000000e+000
    outer loop
      vertex  3.000000e+000  1.986492e+001 -1.215835e+001
      vertex  3.000000e+000  2.284046e+001 -7.782514e+000
      vertex  3.000000e+000  2.275000e+001 -7.269484e+000
    endloop
  endfacet
  facet normal  1.000000e+000  0.000000e+000  -0.000000e+000
    outer loop
      vertex  3.000000e+000  1.986492e+001 -1.215835e+001
      vertex  3.000000e+000  2.275000e+001 -7.269484e+000
      vertex  3.000000e+000  2.284046e+001 -6.756454e+000
    endloop
  endfacet
  facet normal  1.000000e+000  0.000000e+000  0.000000e+000
    outer loop
      vertex  3.000000e+000  2.650000e+001 -1.250000e+001
      vertex  3.000000e+000  2.575000e+001 -7.269484e+000
      vertex  3.000000e+000  2.565954e+001 -7.782514e+000
    endloop
  endfacet
  facet normal  9.999999e-001  0.000000e+000  0.000000e+000
    outer loop
      vertex  3.000000e+000  2.650000e+001 -1.250000e+001
      vertex  3.000000e+000  2.565954e+001 -7.782514e+000
      vertex  3.000000e+000  2.539907e+001 -8.233665e+000
    endloop
  endfacet
  facet normal  1.000000e+000  0.000000e+000  0.000000e+000
    outer loop
      vertex  3.000000e+000  2.650000e+001 -1.250000e+001
      vertex  3.000000e+000  2.539907e+001 -8.233665e+000
      vertex  3.000000e+000  2.500000e+001 -8.568521e+000
    endloop
  endfacet
  facet normal  1.000000e+000  0.000000e+000  0.000000e+000
    outer loop
      vertex  3.000000e+000  2.650000e+001 -1.250000e+001
      vertex  3.000000e+000  2.500000e+001 -8.568521e+000
      vertex  3.000000e+000  2.451047e+001 -8.746696e+000
    endloop
  endfacet
  facet normal  1.000000e+000  0.000000e+000  0.000000e+000
    outer loop
      vertex  3.000000e+000  2.650000e+001 -1.250000e+001
      vertex  3.000000e+000  2.575000e+001  7.269484e+000
      vertex  3.000000e+000  2.565954e+001  6.756454e+000
    endloop
  endfacet
  facet normal  1.000000e+000  0.000000e+000  0.000000e+000
    outer loop
      vertex  3.000000e+000  2.650000e+001 -1.250000e+001
      vertex  3.000000e+000  2.565954e+001  6.756454e+000
      vertex  3.000000e+000  2.539907e+001  6.305302e+000
    endloop
  endfacet
  facet normal  1.000000e+000  0.000000e+000  0.000000e+000
    outer loop
      vertex  3.000000e+000  2.650000e+001 -1.250000e+001
      vertex  3.000000e+000  2.539907e+001  6.305302e+000
      vertex  3.000000e+000  2.500000e+001  5.970446e+000
    endloop
  endfacet
  facet normal  1.000000e+000  0.000000e+000  0.000000e+000
    outer loop
      vertex  3.000000e+000  2.650000e+001 -1.250000e+001
      vertex  3.000000e+000  2.500000e+001  5.970446e+000
      vertex  3.000000e+000  2.451047e+001  5.792272e+000
    endloop
  endfacet
  facet normal  1.000000e+000  -0.000000e+000  0.000000e+000
    outer loop
      vertex  3.000000e+000  2.650000e+001  1.250000e+001
      vertex  3.000000e+000  2.451047e+001  8.746696e+000
      vertex  3.000000e+000  2.500000e+001  8.568521e+000
    endloop
  endfacet
  facet normal  1.000000e+000  -0.000000e+000  0.000000e+000
    outer loop
      vertex  3.000000e+000  2.650000e+001  1.250000e+001
      vertex  3.000000e+000  2.500000e+001  8.568521e+000
      vertex  3.000000e+000  2.539907e+001  8.233665e+000
    endloop
  endfacet
  facet normal  9.999999e-001  -0.000000e+000  0.000000e+000
    outer loop
      vertex  3.000000e+000  2.650000e+001  1.250000e+001
      vertex  3.000000e+000  2.539907e+001  8.233665e+000
      vertex  3.000000e+000  2.565954e+001  7.782514e+000
    endloop
  endfacet
  facet normal  1.000000e+000  -0.000000e+000  0.000000e+000
    outer loop
      vertex  3.000000e+000  2.650000e+001  1.250000e+001
      vertex  3.000000e+000  2.565954e+001  7.782514e+000
      vertex  3.000000e+000  2.575000e+001  7.269484e+000
    endloop
  endfacet
  facet normal  1.000000e+000  -0.000000e+000  0.000000e+000
    outer loop
      vertex  3.000000e+000  2.650000e+001  1.250000e+001
      vertex  3.000000e+000  2.575000e+001  7.269484e+000
      vertex  3.000000e+000  2.650000e+001 -1.250000e+001
    endloop
  endfacet
  facet normal  0.000000e+000  9.999999e-001  0.000000e+000
    outer loop
      vertex  4.440892e-016  0.000000e+000  7.949181e+000
      vertex  3.000000e+000  0.000000e+000  7.949181e+000
      vertex  4.440892e-016  0.000000e+000 -1.215835e+001
    endloop
  endfacet
  facet normal  0.000000e+000  9.999999e-001  0.000000e+000
    outer loop
      vertex  4.440892e-016  0.000000e+000 -1.215835e+001
      vertex  3.000000e+000  0.000000e+000  7.949181e+000
      vertex  3.000000e+000  0.000000e+000 -1.215835e+001
    endloop
  endfacet
  facet normal  0.000000e+000  0.000000e+000  1.000000e+000
    outer loop
      vertex  4.440892e-016  1.986492e+001 -1.215835e+001
      vertex  4.440892e-016  0.000000e+000 -1.215835e+001
      vertex  3.000000e+000  1.986492e+001 -1.215835e+001
    endloop
  endfacet
  facet normal  0.000000e+000  0.000000e+000  1.000000e+000
    outer loop
      vertex  3.000000e+000  1.986492e+001 -1.215835e+001
      vertex  4.440892e-016  0.000000e+000 -1.215835e+001
      vertex  3.000000e+000  0.000000e+000 -1.215835e+001
    endloop
  endfacet
  facet normal  0.000000e+000 -9.999999e-001  0.000000e+000
    outer loop
      vertex  4.440892e-016  1.986492e+001 -1.215835e+001
      vertex  3.000000e+000  1.986492e+001 -1.215835e+001
      vertex  4.440892e-016  1.986492e+001  7.949181e+000
    endloop
  endfacet
  facet normal  0.000000e+000 -9.999999e-001  0.000000e+000
    outer loop
      vertex  4.440892e-016  1.986492e+001  7.949181e+000
      vertex  3.000000e+000  1.986492e+001 -1.215835e+001
      vertex  3.000000e+000  1.986492e+001  7.949181e+000
    endloop
  endfacet
  facet normal  0.000000e+000  0.000000e+000 -1.000000e+000
    outer loop
      vertex  4.440892e-016  0.000000e+000  7.949181e+000
      vertex  4.440892e-016  1.986492e+001  7.949181e+000
      vertex  3.000000e+000  0.000000e+000  7.949181e+000
    endloop
  endfacet
  facet normal  0.000000e+000  0.000000e+000 -1.000000e+000
    outer loop
      vertex  3.000000e+000  0.000000e+000  7.949181e+000
      vertex  4.440892e-016  1.986492e+001  7.949181e+000
      vertex  3.000000e+000  1.986492e+001  7.949181e+000
    endloop
  endfacet
  facet normal  -0.000000e+000  3.420196e-001  9.396929e-001
    outer loop
      vertex  3.000000e+000  2.398953e+001  5.792272e+000
      vertex  0.000000e+000  2.350000e+001  5.970446e+000
      vertex  3.000000e+000  2.350000e+001  5.970446e+000
    endloop
  endfacet
  facet normal  0.000000e+000  6.427872e-001  7.660449e-001
    outer loop
      vertex  3.000000e+000  2.350000e+001  5.970446e+000
      vertex  0.000000e+000  2.350000e+001  5.970446e+000
      vertex  0.000000e+000  2.310093e+001  6.305302e+000
    endloop
  endfacet
  facet normal  -0.000000e+000  6.427872e-001  7.660449e-001
    outer loop
      vertex  3.000000e+000  2.350000e+001  5.970446e+000
      vertex  0.000000e+000  2.310093e+001  6.305302e+000
      vertex  3.000000e+000  2.310093e+001  6.305302e+000
    endloop
  endfacet
  facet normal  0.000000e+000  8.660263e-001  4.999985e-001
    outer loop
      vertex  3.000000e+000  2.310093e+001  6.305302e+000
      vertex  0.000000e+000  2.310093e+001  6.305302e+000
      vertex  0.000000e+000  2.284046e+001  6.756454e+000
    endloop
  endfacet
  facet normal  -0.000000e+000  8.660263e-001  4.999985e-001
    outer loop
      vertex  3.000000e+000  2.310093e+001  6.305302e+000
      vertex  0.000000e+000  2.284046e+001  6.756454e+000
      vertex  3.000000e+000  2.284046e+001  6.756454e+000
    endloop
  endfacet
  facet normal  0.000000e+000  9.848075e-001  1.736495e-001
    outer loop
      vertex  3.000000e+000  2.284046e+001  6.756454e+000
      vertex  0.000000e+000  2.284046e+001  6.756454e+000
      vertex  0.000000e+000  2.275000e+001  7.269484e+000
    endloop
  endfacet
  facet normal  -0.000000e+000  9.848075e-001  1.736495e-001
    outer loop
      vertex  3.000000e+000  2.284046e+001  6.756454e+000
      vertex  0.000000e+000  2.275000e+001  7.269484e+000
      vertex  3.000000e+000  2.275000e+001  7.269484e+000
    endloop
  endfacet
  facet normal  0.000000e+000  3.420196e-001  9.396929e-001
    outer loop
      vertex  0.000000e+000  2.350000e+001  5.970446e+000
      vertex  3.000000e+000  2.398953e+001  5.792272e+000
      vertex  0.000000e+000  2.398953e+001  5.792272e+000
    endloop
  endfacet
  facet normal  0.000000e+000  0.000000e+000  1.000000e+000
    outer loop
      vertex  0.000000e+000  2.398953e+001  5.792272e+000
      vertex  3.000000e+000  2.398953e+001  5.792272e+000
      vertex  3.000000e+000  2.451047e+001  5.792272e+000
    endloop
  endfacet
  facet normal  0.000000e+000  0.000000e+000  1.000000e+000
    outer loop
      vertex  0.000000e+000  2.398953e+001  5.792272e+000
      vertex  3.000000e+000  2.451047e+001  5.792272e+000
      vertex  0.000000e+000  2.451047e+001  5.792272e+000
    endloop
  endfacet
  facet normal  0.000000e+000 -3.420196e-001  9.396929e-001
    outer loop
      vertex  0.000000e+000  2.451047e+001  5.792272e+000
      vertex  3.000000e+000  2.451047e+001  5.792272e+000
      vertex  3.000000e+000  2.500000e+001  5.970446e+000
    endloop
  endfacet
  facet normal  0.000000e+000 -3.420196e-001  9.396929e-001
    outer loop
      vertex  0.000000e+000  2.451047e+001  5.792272e+000
      vertex  3.000000e+000  2.500000e+001  5.970446e+000
      vertex  0.000000e+000  2.500000e+001  5.970446e+000
    endloop
  endfacet
  facet normal  0.000000e+000 -6.427872e-001  7.660449e-001
    outer loop
      vertex  0.000000e+000  2.500000e+001  5.970446e+000
      vertex  3.000000e+000  2.500000e+001  5.970446e+000
      vertex  3.000000e+000  2.539907e+001  6.305302e+000
    endloop
  endfacet
  facet normal  0.000000e+000 -6.427872e-001  7.660449e-001
    outer loop
      vertex  0.000000e+000  2.500000e+001  5.970446e+000
      vertex  3.000000e+000  2.539907e+001  6.305302e+000
      vertex  0.000000e+000  2.539907e+001  6.305302e+000
    endloop
  endfacet
  facet normal  0.000000e+000 -8.660263e-001  4.999985e-001
    outer loop
      vertex  0.000000e+000  2.539907e+001  6.305302e+000
      vertex  3.000000e+000  2.539907e+001  6.305302e+000
      vertex  3.000000e+000  2.565954e+001  6.756454e+000
    endloop
  endfacet
  facet normal  0.000000e+000 -8.660263e-001  4.999985e-001
    outer loop
      vertex  0.000000e+000  2.539907e+001  6.305302e+000
      vertex  3.000000e+000  2.565954e+001  6.756454e+000
      vertex  0.000000e+000  2.565954e+001  6.756454e+000
    endloop
  endfacet
  facet normal  0.000000e+000 -9.848075e-001  1.736495e-001
    outer loop
      vertex  0.000000e+000  2.565954e+001  6.756454e+000
      vertex  3.000000e+000  2.565954e+001  6.756454e+000
      vertex  3.000000e+000  2.575000e+001  7.269484e+000
    endloop
  endfacet
  facet normal  0.000000e+000 -9.848075e-001  1.736495e-001
    outer loop
      vertex  0.000000e+000  2.565954e+001  6.756454e+000
      vertex  3.000000e+000  2.575000e+001  7.269484e+000
      vertex  0.000000e+000  2.575000e+001  7.269484e+000
    endloop
  endfacet
  facet normal  0.000000e+000 -3.420204e-001 -9.396924e-001
    outer loop
      vertex  3.000000e+000  2.451047e+001  8.746696e+000
      vertex  0.000000e+000  2.500000e+001  8.568521e+000
      vertex  3.000000e+000  2.500000e+001  8.568521e+000
    endloop
  endfacet
  facet normal  -0.000000e+000 -6.427877e-001 -7.660444e-001
    outer loop
      vertex  3.000000e+000  2.500000e+001  8.568521e+000
      vertex  0.000000e+000  2.500000e+001  8.568521e+000
      vertex  0.000000e+000  2.539907e+001  8.233665e+000
    endloop
  endfacet
  facet normal  0.000000e+000 -6.427877e-001 -7.660444e-001
    outer loop
      vertex  3.000000e+000  2.500000e+001  8.568521e+000
      vertex  0.000000e+000  2.539907e+001  8.233665e+000
      vertex  3.000000e+000  2.539907e+001  8.233665e+000
    endloop
  endfacet
  facet normal  -0.000000e+000 -8.660260e-001 -4.999989e-001
    outer loop
      vertex  3.000000e+000  2.539907e+001  8.233665e+000
      vertex  0.000000e+000  2.539907e+001  8.233665e+000
      vertex  0.000000e+000  2.565954e+001  7.782514e+000
    endloop
  endfacet
  facet normal  0.000000e+000 -8.660260e-001 -4.999989e-001
    outer loop
      vertex  3.000000e+000  2.539907e+001  8.233665e+000
      vertex  0.000000e+000  2.565954e+001  7.782514e+000
      vertex  3.000000e+000  2.565954e+001  7.782514e+000
    endloop
  endfacet
  facet normal  -0.000000e+000 -9.848075e-001 -1.736495e-001
    outer loop
      vertex  3.000000e+000  2.565954e+001  7.782514e+000
      vertex  0.000000e+000  2.565954e+001  7.782514e+000
      vertex  0.000000e+000  2.575000e+001  7.269484e+000
    endloop
  endfacet
  facet normal  0.000000e+000 -9.848075e-001 -1.736495e-001
    outer loop
      vertex  3.000000e+000  2.565954e+001  7.782514e+000
      vertex  0.000000e+000  2.575000e+001  7.269484e+000
      vertex  3.000000e+000  2.575000e+001  7.269484e+000
    endloop
  endfacet
  facet normal  -0.000000e+000 -3.420204e-001 -9.396924e-001
    outer loop
      vertex  0.000000e+000  2.500000e+001  8.568521e+000
      vertex  3.000000e+000  2.451047e+001  8.746696e+000
      vertex  0.000000e+000  2.451047e+001  8.746696e+000
    endloop
  endfacet
  facet normal  0.000000e+000  0.000000e+000 -1.000000e+000
    outer loop
      vertex  0.000000e+000  2.451047e+001  8.746696e+000
      vertex  3.000000e+000  2.451047e+001  8.746696e+000
      vertex  3.000000e+000  2.398953e+001  8.746696e+000
    endloop
  endfacet
  facet normal  0.000000e+000  0.000000e+000 -1.000000e+000
    outer loop
      vertex  0.000000e+000  2.451047e+001  8.746696e+000
      vertex  3.000000e+000  2.398953e+001  8.746696e+000
      vertex  0.000000e+000  2.398953e+001  8.746696e+000
    endloop
  endfacet
  facet normal  0.000000e+000  3.420204e-001 -9.396924e-001
    outer loop
      vertex  0.000000e+000  2.398953e+001  8.746696e+000
      vertex  3.000000e+000  2.398953e+001  8.746696e+000
      vertex  3.000000e+000  2.350000e+001  8.568521e+000
    endloop
  endfacet
  facet normal  0.000000e+000  3.420204e-001 -9.396924e-001
    outer loop
      vertex  0.000000e+000  2.398953e+001  8.746696e+000
      vertex  3.000000e+000  2.350000e+001  8.568521e+000
      vertex  0.000000e+000  2.350000e+001  8.568521e+000
    endloop
  endfacet
  facet normal  0.000000e+000  6.427877e-001 -7.660444e-001
    outer loop
      vertex  0.000000e+000  2.350000e+001  8.568521e+000
      vertex  3.000000e+000  2.350000e+001  8.568521e+000
      vertex  3.000000e+000  2.310093e+001  8.233665e+000
    endloop
  endfacet
  facet normal  0.000000e+000  6.427877e-001 -7.660444e-001
    outer loop
      vertex  0.000000e+000  2.350000e+001  8.568521e+000
      vertex  3.000000e+000  2.310093e+001  8.233665e+000
      vertex  0.000000e+000  2.310093e+001  8.233665e+000
    endloop
  endfacet
  facet normal  0.000000e+000  8.660260e-001 -4.999989e-001
    outer loop
      vertex  0.000000e+000  2.310093e+001  8.233665e+000
      vertex  3.000000e+000  2.310093e+001  8.233665e+000
      vertex  3.000000e+000  2.284046e+001  7.782514e+000
    endloop
  endfacet
  facet normal  0.000000e+000  8.660260e-001 -4.999989e-001
    outer loop
      vertex  0.000000e+000  2.310093e+001  8.233665e+000
      vertex  3.000000e+000  2.284046e+001  7.782514e+000
      vertex  0.000000e+000  2.284046e+001  7.782514e+000
    endloop
  endfacet
  facet normal  0.000000e+000  9.848075e-001 -1.736495e-001
    outer loop
      vertex  0.000000e+000  2.284046e+001  7.782514e+000
      vertex  3.000000e+000  2.284046e+001  7.782514e+000
      vertex  3.000000e+000  2.275000e+001  7.269484e+000
    endloop
  endfacet
  facet normal  0.000000e+000  9.848075e-001 -1.736495e-001
    outer loop
      vertex  0.000000e+000  2.284046e+001  7.782514e+000
      vertex  3.000000e+000  2.275000e+001  7.269484e+000
      vertex  0.000000e+000  2.275000e+001  7.269484e+000
    endloop
  endfacet
  facet normal  -0.000000e+000  3.420204e-001  9.396924e-001
    outer loop
      vertex  3.000000e+000  2.398953e+001 -8.746696e+000
      vertex  0.000000e+000  2.350000e+001 -8.568521e+000
      vertex  3.000000e+000  2.350000e+001 -8.568521e+000
    endloop
  endfacet
  facet normal  0.000000e+000  6.427877e-001  7.660444e-001
    outer loop
      vertex  3.000000e+000  2.350000e+001 -8.568521e+000
      vertex  0.000000e+000  2.350000e+001 -8.568521e+000
      vertex  0.000000e+000  2.310093e+001 -8.233665e+000
    endloop
  endfacet
  facet normal  -0.000000e+000  6.427877e-001  7.660444e-001
    outer loop
      vertex  3.000000e+000  2.350000e+001 -8.568521e+000
      vertex  0.000000e+000  2.310093e+001 -8.233665e+000
      vertex  3.000000e+000  2.310093e+001 -8.233665e+000
    endloop
  endfacet
  facet normal  0.000000e+000  8.660260e-001  4.999989e-001
    outer loop
      vertex  3.000000e+000  2.310093e+001 -8.233665e+000
      vertex  0.000000e+000  2.310093e+001 -8.233665e+000
      vertex  0.000000e+000  2.284046e+001 -7.782514e+000
    endloop
  endfacet
  facet normal  -0.000000e+000  8.660260e-001  4.999989e-001
    outer loop
      vertex  3.000000e+000  2.310093e+001 -8.233665e+000
      vertex  0.000000e+000  2.284046e+001 -7.782514e+000
      vertex  3.000000e+000  2.284046e+001 -7.782514e+000
    endloop
  endfacet
  facet normal  0.000000e+000  9.848075e-001  1.736495e-001
    outer loop
      vertex  3.000000e+000  2.284046e+001 -7.782514e+000
      vertex  0.000000e+000  2.284046e+001 -7.782514e+000
      vertex  0.000000e+000  2.275000e+001 -7.269484e+000
    endloop
  endfacet
  facet normal  -0.000000e+000  9.848075e-001  1.736495e-001
    outer loop
      vertex  3.000000e+000  2.284046e+001 -7.782514e+000
      vertex  0.000000e+000  2.275000e+001 -7.269484e+000
      vertex  3.000000e+000  2.275000e+001 -7.269484e+000
    endloop
  endfacet
  facet normal  0.000000e+000  3.420204e-001  9.396924e-001
    outer loop
      vertex  0.000000e+000  2.350000e+001 -8.568521e+000
      vertex  3.000000e+000  2.398953e+001 -8.746696e+000
      vertex  0.000000e+000  2.398953e+001 -8.746696e+000
    endloop
  endfacet
  facet normal  0.000000e+000  0.000000e+000  1.000000e+000
    outer loop
      vertex  0.000000e+000  2.398953e+001 -8.746696e+000
      vertex  3.000000e+000  2.398953e+001 -8.746696e+000
      vertex  3.000000e+000  2.451047e+001 -8.746696e+000
    endloop
  endfacet
  facet normal  0.000000e+000  0.000000e+000  1.000000e+000
    outer loop
      vertex  0.000000e+000  2.398953e+001 -8.746696e+000
      vertex  3.000000e+000  2.451047e+001 -8.746696e+000
      vertex  0.000000e+000  2.451047e+001 -8.746696e+000
    endloop
  endfacet
  facet normal  0.000000e+000 -3.420204e-001  9.396924e-001
    outer loop
      vertex  0.000000e+000  2.451047e+001 -8.746696e+000
      vertex  3.000000e+000  2.451047e+001 -8.746696e+000
      vertex  3.000000e+000  2.500000e+001 -8.568521e+000
    endloop
  endfacet
  facet normal  0.000000e+000 -3.420204e-001  9.396924e-001
    outer loop
      vertex  0.000000e+000  2.451047e+001 -8.746696e+000
      vertex  3.000000e+000  2.500000e+001 -8.568521e+000
      vertex  0.000000e+000  2.500000e+001 -8.568521e+000
    endloop
  endfacet
  facet normal  0.000000e+000 -6.427877e-001  7.660444e-001
    outer loop
      vertex  0.000000e+000  2.500000e+001 -8.568521e+000
      vertex  3.000000e+000  2.500000e+001 -8.568521e+000
      vertex  3.000000e+000  2.539907e+001 -8.233665e+000
    endloop
  endfacet
  facet normal  0.000000e+000 -6.427877e-001  7.660444e-001
    outer loop
      vertex  0.000000e+000  2.500000e+001 -8.568521e+000
      vertex  3.000000e+000  2.539907e+001 -8.233665e+000
      vertex  0.000000e+000  2.539907e+001 -8.233665e+000
    endloop
  endfacet
  facet normal  0.000000e+000 -8.660260e-001  4.999989e-001
    outer loop
      vertex  0.000000e+000  2.539907e+001 -8.233665e+000
      vertex  3.000000e+000  2.539907e+001 -8.233665e+000
      vertex  3.000000e+000  2.565954e+001 -7.782514e+000
    endloop
  endfacet
  facet normal  0.000000e+000 -8.660260e-001  4.999989e-001
    outer loop
      vertex  0.000000e+000  2.539907e+001 -8.233665e+000
      vertex  3.000000e+000  2.565954e+001 -7.782514e+000
      vertex  0.000000e+000  2.565954e+001 -7.782514e+000
    endloop
  endfacet
  facet normal  0.000000e+000 -9.848075e-001  1.736495e-001
    outer loop
      vertex  0.000000e+000  2.565954e+001 -7.782514e+000
      vertex  3.000000e+000  2.565954e+001 -7.782514e+000
      vertex  3.000000e+000  2.575000e+001 -7.269484e+000
    endloop
  endfacet
  facet normal  0.000000e+000 -9.848075e-001  1.736495e-001
    outer loop
      vertex  0.000000e+000  2.565954e+001 -7.782514e+000
      vertex  3.000000e+000  2.575000e+001 -7.269484e+000
      vertex  0.000000e+000  2.575000e+001 -7.269484e+000
    endloop
  endfacet
  facet normal  0.000000e+000 -3.420196e-001 -9.396929e-001
    outer loop
      vertex  3.000000e+000  2.451047e+001 -5.792272e+000
      vertex  0.000000e+000  2.500000e+001 -5.970446e+000
      vertex  3.000000e+000  2.500000e+001 -5.970446e+000
    endloop
  endfacet
  facet normal  -0.000000e+000 -6.427872e-001 -7.660449e-001
    outer loop
      vertex  3.000000e+000  2.500000e+001 -5.970446e+000
      vertex  0.000000e+000  2.500000e+001 -5.970446e+000
      vertex  0.000000e+000  2.539907e+001 -6.305302e+000
    endloop
  endfacet
  facet normal  0.000000e+000 -6.427872e-001 -7.660449e-001
    outer loop
      vertex  3.000000e+000  2.500000e+001 -5.970446e+000
      vertex  0.000000e+000  2.539907e+001 -6.305302e+000
      vertex  3.000000e+000  2.539907e+001 -6.305302e+000
    endloop
  endfacet
  facet normal  -0.000000e+000 -8.660263e-001 -4.999985e-001
    outer loop
      vertex  3.000000e+000  2.539907e+001 -6.305302e+000
      vertex  0.000000e+000  2.539907e+001 -6.305302e+000
      vertex  0.000000e+000  2.565954e+001 -6.756454e+000
    endloop
  endfacet
  facet normal  0.000000e+000 -8.660263e-001 -4.999985e-001
    outer loop
      vertex  3.000000e+000  2.539907e+001 -6.305302e+000
      vertex  0.000000e+000  2.565954e+001 -6.756454e+000
      vertex  3.000000e+000  2.565954e+001 -6.756454e+000
    endloop
  endfacet
  facet normal  -0.000000e+000 -9.848075e-001 -1.736495e-001
    outer loop
      vertex  3.000000e+000  2.565954e+001 -6.756454e+000
      vertex  0.000000e+000  2.565954e+001 -6.756454e+000
      vertex  0.000000e+000  2.575000e+001 -7.269484e+000
    endloop
  endfacet
  facet normal  0.000000e+000 -9.848075e-001 -1.736495e-001
    outer loop
      vertex  3.000000e+000  2.565954e+001 -6.756454e+000
      vertex  0.000000e+000  2.575000e+001 -7.269484e+000
      vertex  3.000000e+000  2.575000e+001 -7.269484e+000
    endloop
  endfacet
  facet normal  -0.000000e+000 -3.420196e-001 -9.396929e-001
    outer loop
      vertex  0.000000e+000  2.500000e+001 -5.970446e+000
      vertex  3.000000e+000  2.451047e+001 -5.792272e+000
      vertex  0.000000e+000  2.451047e+001 -5.792272e+000
    endloop
  endfacet
  facet normal  0.000000e+000  0.000000e+000 -1.000000e+000
    outer loop
      vertex  0.000000e+000  2.451047e+001 -5.792272e+000
      vertex  3.000000e+000  2.451047e+001 -5.792272e+000
      vertex  3.000000e+000  2.398953e+001 -5.792272e+000
    endloop
  endfacet
  facet normal  0.000000e+000  0.000000e+000 -1.000000e+000
    outer loop
      vertex  0.000000e+000  2.451047e+001 -5.792272e+000
      vertex  3.000000e+000  2.398953e+001 -5.792272e+000
      vertex  0.000000e+000  2.398953e+001 -5.792272e+000
    endloop
  endfacet
  facet normal  0.000000e+000  3.420196e-001 -9.396929e-001
    outer loop
      vertex  0.000000e+000  2.398953e+001 -5.792272e+000
      vertex  3.000000e+000  2.398953e+001 -5.792272e+000
      vertex  3.000000e+000  2.350000e+001 -5.970446e+000
    endloop
  endfacet
  facet normal  0.000000e+000  3.420196e-001 -9.396929e-001
    outer loop
      vertex  0.000000e+000  2.398953e+001 -5.792272e+000
      vertex  3.000000e+000  2.350000e+001 -5.970446e+000
      vertex  0.000000e+000  2.350000e+001 -5.970446e+000
    endloop
  endfacet
  facet normal  0.000000e+000  6.427872e-001 -7.660449e-001
    outer loop
      vertex  0.000000e+000  2.350000e+001 -5.970446e+000
      vertex  3.000000e+000  2.350000e+001 -5.970446e+000
      vertex  3.000000e+000  2.310093e+001 -6.305302e+000
    endloop
  endfacet
  facet normal  0.000000e+000  6.427872e-001 -7.660449e-001
    outer loop
      vertex  0.000000e+000  2.350000e+001 -5.970446e+000
      vertex  3.000000e+000  2.310093e+001 -6.305302e+000
      vertex  0.000000e+000  2.310093e+001 -6.305302e+000
    endloop
  endfacet
  facet normal  0.000000e+000  8.660263e-001 -4.999985e-001
    outer loop
      vertex  0.000000e+000  2.310093e+001 -6.305302e+000
      vertex  3.000000e+000  2.310093e+001 -6.305302e+000
      vertex  3.000000e+000  2.284046e+001 -6.756454e+000
    endloop
  endfacet
  facet normal  0.000000e+000  8.660263e-001 -4.999985e-001
    outer loop
      vertex  0.000000e+000  2.310093e+001 -6.305302e+000
      vertex  3.000000e+000  2.284046e+001 -6.756454e+000
      vertex  0.000000e+000  2.284046e+001 -6.756454e+000
    endloop
  endfacet
  facet normal  0.000000e+000  9.848075e-001 -1.736495e-001
    outer loop
      vertex  0.000000e+000  2.284046e+001 -6.756454e+000
      vertex  3.000000e+000  2.284046e+001 -6.756454e+000
      vertex  3.000000e+000  2.275000e+001 -7.269484e+000
    endloop
  endfacet
  facet normal  0.000000e+000  9.848075e-001 -1.736495e-001
    outer loop
      vertex  0.000000e+000  2.284046e+001 -6.756454e+000
      vertex  3.000000e+000  2.275000e+001 -7.269484e+000
      vertex  0.000000e+000  2.275000e+001 -7.269484e+000
    endloop
  endfacet
  facet normal  0.000000e+000 -3.420204e-001 -9.396924e-001
    outer loop
      vertex  3.000000e+000 -2.398953e+001  8.746696e+000
      vertex  0.000000e+000 -2.350000e+001  8.568521e+000
      vertex  3.000000e+000 -2.350000e+001  8.568521e+000
    endloop
  endfacet
  facet normal  -0.000000e+000 -6.427877e-001 -7.660444e-001
    outer loop
      vertex  3.000000e+000 -2.350000e+001  8.568521e+000
      vertex  0.000000e+000 -2.350000e+001  8.568521e+000
      vertex  0.000000e+000 -2.310093e+001  8.233665e+000
    endloop
  endfacet
  facet normal  0.000000e+000 -6.427877e-001 -7.660444e-001
    outer loop
      vertex  3.000000e+000 -2.350000e+001  8.568521e+000
      vertex  0.000000e+000 -2.310093e+001  8.233665e+000
      vertex  3.000000e+000 -2.310093e+001  8.233665e+000
    endloop
  endfacet
  facet normal  -0.000000e+000 -8.660260e-001 -4.999989e-001
    outer loop
      vertex  3.000000e+000 -2.310093e+001  8.233665e+000
      vertex  0.000000e+000 -2.310093e+001  8.233665e+000
      vertex  0.000000e+000 -2.284046e+001  7.782514e+000
    endloop
  endfacet
  facet normal  0.000000e+000 -8.660260e-001 -4.999989e-001
    outer loop
      vertex  3.000000e+000 -2.310093e+001  8.233665e+000
      vertex  0.000000e+000 -2.284046e+001  7.782514e+000
      vertex  3.000000e+000 -2.284046e+001  7.782514e+000
    endloop
  endfacet
  facet normal  -0.000000e+000 -9.848075e-001 -1.736495e-001
    outer loop
      vertex  3.000000e+000 -2.284046e+001  7.782514e+000
      vertex  0.000000e+000 -2.284046e+001  7.782514e+000
      vertex  0.000000e+000 -2.275000e+001  7.269484e+000
    endloop
  endfacet
  facet normal  0.000000e+000 -9.848075e-001 -1.736495e-001
    outer loop
      vertex  3.000000e+000 -2.284046e+001  7.782514e+000
      vertex  0.000000e+000 -2.275000e+001  7.269484e+000
      vertex  3.000000e+000 -2.275000e+001  7.269484e+000
    endloop
  endfacet
  facet normal  -0.000000e+000 -3.420204e-001 -9.396924e-001
    outer loop
      vertex  0.000000e+000 -2.350000e+001  8.568521e+000
      vertex  3.000000e+000 -2.398953e+001  8.746696e+000
      vertex  0.000000e+000 -2.398953e+001  8.746696e+000
    endloop
  endfacet
  facet normal  0.000000e+000  0.000000e+000 -1.000000e+000
    outer loop
      vertex  0.000000e+000 -2.398953e+001  8.746696e+000
      vertex  3.000000e+000 -2.398953e+001  8.746696e+000
      vertex  3.000000e+000 -2.451047e+001  8.746696e+000
    endloop
  endfacet
  facet normal  0.000000e+000  0.000000e+000 -1.000000e+000
    outer loop
      vertex  0.000000e+000 -2.398953e+001  8.746696e+000
      vertex  3.000000e+000 -2.451047e+001  8.746696e+000
      vertex  0.000000e+000 -2.451047e+001  8.746696e+000
    endloop
  endfacet
  facet normal  0.000000e+000  3.420204e-001 -9.396924e-001
    outer loop
      vertex  0.000000e+000 -2.451047e+001  8.746696e+000
      vertex  3.000000e+000 -2.451047e+001  8.746696e+000
      vertex  3.000000e+000 -2.500000e+001  8.568521e+000
    endloop
  endfacet
  facet normal  0.000000e+000  3.420204e-001 -9.396924e-001
    outer loop
      vertex  0.000000e+000 -2.451047e+001  8.746696e+000
      vertex  3.000000e+000 -2.500000e+001  8.568521e+000
      vertex  0.000000e+000 -2.500000e+001  8.568521e+000
    endloop
  endfacet
  facet normal  0.000000e+000  6.427877e-001 -7.660444e-001
    outer loop
      vertex  0.000000e+000 -2.500000e+001  8.568521e+000
      vertex  3.000000e+000 -2.500000e+001  8.568521e+000
      vertex  3.000000e+000 -2.539907e+001  8.233665e+000
    endloop
  endfacet
  facet normal  0.000000e+000  6.427877e-001 -7.660444e-001
    outer loop
      vertex  0.000000e+000 -2.500000e+001  8.568521e+000
      vertex  3.000000e+000 -2.539907e+001  8.233665e+000
      vertex  0.000000e+000 -2.539907e+001  8.233665e+000
    endloop
  endfacet
  facet normal  0.000000e+000  8.660260e-001 -4.999989e-001
    outer loop
      vertex  0.000000e+000 -2.539907e+001  8.233665e+000
      vertex  3.000000e+000 -2.539907e+001  8.233665e+000
      vertex  3.000000e+000 -2.565954e+001  7.782514e+000
    endloop
  endfacet
  facet normal  0.000000e+000  8.660260e-001 -4.999989e-001
    outer loop
      vertex  0.000000e+000 -2.539907e+001  8.233665e+000
      vertex  3.000000e+000 -2.565954e+001  7.782514e+000
      vertex  0.000000e+000 -2.565954e+001  7.782514e+000
    endloop
  endfacet
  facet normal  0.000000e+000  9.848075e-001 -1.736495e-001
    outer loop
      vertex  0.000000e+000 -2.565954e+001  7.782514e+000
      vertex  3.000000e+000 -2.565954e+001  7.782514e+000
      vertex  3.000000e+000 -2.575000e+001  7.269484e+000
    endloop
  endfacet
  facet normal  0.000000e+000  9.848075e-001 -1.736495e-001
    outer loop
      vertex  0.000000e+000 -2.565954e+001  7.782514e+000
      vertex  3.000000e+000 -2.575000e+001  7.269484e+000
      vertex  0.000000e+000 -2.575000e+001  7.269484e+000
    endloop
  endfacet
  facet normal  -0.000000e+000  3.420196e-001  9.396929e-001
    outer loop
      vertex  3.000000e+000 -2.451047e+001  5.792272e+000
      vertex  0.000000e+000 -2.500000e+001  5.970446e+000
      vertex  3.000000e+000 -2.500000e+001  5.970446e+000
    endloop
  endfacet
  facet normal  0.000000e+000  6.427872e-001  7.660449e-001
    outer loop
      vertex  3.000000e+000 -2.500000e+001  5.970446e+000
      vertex  0.000000e+000 -2.500000e+001  5.970446e+000
      vertex  0.000000e+000 -2.539907e+001  6.305302e+000
    endloop
  endfacet
  facet normal  -0.000000e+000  6.427872e-001  7.660449e-001
    outer loop
      vertex  3.000000e+000 -2.500000e+001  5.970446e+000
      vertex  0.000000e+000 -2.539907e+001  6.305302e+000
      vertex  3.000000e+000 -2.539907e+001  6.305302e+000
    endloop
  endfacet
  facet normal  0.000000e+000  8.660263e-001  4.999985e-001
    outer loop
      vertex  3.000000e+000 -2.539907e+001  6.305302e+000
      vertex  0.000000e+000 -2.539907e+001  6.305302e+000
      vertex  0.000000e+000 -2.565954e+001  6.756454e+000
    endloop
  endfacet
  facet normal  -0.000000e+000  8.660263e-001  4.999985e-001
    outer loop
      vertex  3.000000e+000 -2.539907e+001  6.305302e+000
      vertex  0.000000e+000 -2.565954e+001  6.756454e+000
      vertex  3.000000e+000 -2.565954e+001  6.756454e+000
    endloop
  endfacet
  facet normal  0.000000e+000  9.848075e-001  1.736495e-001
    outer loop
      vertex  3.000000e+000 -2.565954e+001  6.756454e+000
      vertex  0.000000e+000 -2.565954e+001  6.756454e+000
      vertex  0.000000e+000 -2.575000e+001  7.269484e+000
    endloop
  endfacet
  facet normal  -0.000000e+000  9.848075e-001  1.736495e-001
    outer loop
      vertex  3.000000e+000 -2.565954e+001  6.756454e+000
      vertex  0.000000e+000 -2.575000e+001  7.269484e+000
      vertex  3.000000e+000 -2.575000e+001  7.269484e+000
    endloop
  endfacet
  facet normal  0.000000e+000  3.420196e-001  9.396929e-001
    outer loop
      vertex  0.000000e+000 -2.500000e+001  5.970446e+000
      vertex  3.000000e+000 -2.451047e+001  5.792272e+000
      vertex  0.000000e+000 -2.451047e+001  5.792272e+000
    endloop
  endfacet
  facet normal  0.000000e+000  0.000000e+000  1.000000e+000
    outer loop
      vertex  0.000000e+000 -2.451047e+001  5.792272e+000
      vertex  3.000000e+000 -2.451047e+001  5.792272e+000
      vertex  3.000000e+000 -2.398953e+001  5.792272e+000
    endloop
  endfacet
  facet normal  0.000000e+000  0.000000e+000  1.000000e+000
    outer loop
      vertex  0.000000e+000 -2.451047e+001  5.792272e+000
      vertex  3.000000e+000 -2.398953e+001  5.792272e+000
      vertex  0.000000e+000 -2.398953e+001  5.792272e+000
    endloop
  endfacet
  facet normal  0.000000e+000 -3.420196e-001  9.396929e-001
    outer loop
      vertex  0.000000e+000 -2.398953e+001  5.792272e+000
      vertex  3.000000e+000 -2.398953e+001  5.792272e+000
      vertex  3.000000e+000 -2.350000e+001  5.970446e+000
    endloop
  endfacet
  facet normal  0.000000e+000 -3.420196e-001  9.396929e-001
    outer loop
      vertex  0.000000e+000 -2.398953e+001  5.792272e+000
      vertex  3.000000e+000 -2.350000e+001  5.970446e+000
      vertex  0.000000e+000 -2.350000e+001  5.970446e+000
    endloop
  endfacet
  facet normal  0.000000e+000 -6.427872e-001  7.660449e-001
    outer loop
      vertex  0.000000e+000 -2.350000e+001  5.970446e+000
      vertex  3.000000e+000 -2.350000e+001  5.970446e+000
      vertex  3.000000e+000 -2.310093e+001  6.305302e+000
    endloop
  endfacet
  facet normal  0.000000e+000 -6.427872e-001  7.660449e-001
    outer loop
      vertex  0.000000e+000 -2.350000e+001  5.970446e+000
      vertex  3.000000e+000 -2.310093e+001  6.305302e+000
      vertex  0.000000e+000 -2.310093e+001  6.305302e+000
    endloop
  endfacet
  facet normal  0.000000e+000 -8.660263e-001  4.999985e-001
    outer loop
      vertex  0.000000e+000 -2.310093e+001  6.305302e+000
      vertex  3.000000e+000 -2.310093e+001  6.305302e+000
      vertex  3.000000e+000 -2.284046e+001  6.756454e+000
    endloop
  endfacet
  facet normal  0.000000e+000 -8.660263e-001  4.999985e-001
    outer loop
      vertex  0.000000e+000 -2.310093e+001  6.305302e+000
      vertex  3.000000e+000 -2.284046e+001  6.756454e+000
      vertex  0.000000e+000 -2.284046e+001  6.756454e+000
    endloop
  endfacet
  facet normal  0.000000e+000 -9.848075e-001  1.736495e-001
    outer loop
      vertex  0.000000e+000 -2.284046e+001  6.756454e+000
      vertex  3.000000e+000 -2.284046e+001  6.756454e+000
      vertex  3.000000e+000 -2.275000e+001  7.269484e+000
    endloop
  endfacet
  facet normal  0.000000e+000 -9.848075e-001  1.736495e-001
    outer loop
      vertex  0.000000e+000 -2.284046e+001  6.756454e+000
      vertex  3.000000e+000 -2.275000e+001  7.269484e+000
      vertex  0.000000e+000 -2.275000e+001  7.269484e+000
    endloop
  endfacet
  facet normal  0.000000e+000 -3.420196e-001 -9.396929e-001
    outer loop
      vertex  3.000000e+000 -2.398953e+001 -5.792272e+000
      vertex  0.000000e+000 -2.350000e+001 -5.970446e+000
      vertex  3.000000e+000 -2.350000e+001 -5.970446e+000
    endloop
  endfacet
  facet normal  -0.000000e+000 -6.427872e-001 -7.660449e-001
    outer loop
      vertex  3.000000e+000 -2.350000e+001 -5.970446e+000
      vertex  0.000000e+000 -2.350000e+001 -5.970446e+000
      vertex  0.000000e+000 -2.310093e+001 -6.305302e+000
    endloop
  endfacet
  facet normal  0.000000e+000 -6.427872e-001 -7.660449e-001
    outer loop
      vertex  3.000000e+000 -2.350000e+001 -5.970446e+000
      vertex  0.000000e+000 -2.310093e+001 -6.305302e+000
      vertex  3.000000e+000 -2.310093e+001 -6.305302e+000
    endloop
  endfacet
  facet normal  -0.000000e+000 -8.660263e-001 -4.999985e-001
    outer loop
      vertex  3.000000e+000 -2.310093e+001 -6.305302e+000
      vertex  0.000000e+000 -2.310093e+001 -6.305302e+000
      vertex  0.000000e+000 -2.284046e+001 -6.756454e+000
    endloop
  endfacet
  facet normal  0.000000e+000 -8.660263e-001 -4.999985e-001
    outer loop
      vertex  3.000000e+000 -2.310093e+001 -6.305302e+000
      vertex  0.000000e+000 -2.284046e+001 -6.756454e+000
      vertex  3.000000e+000 -2.284046e+001 -6.756454e+000
    endloop
  endfacet
  facet normal  -0.000000e+000 -9.848075e-001 -1.736495e-001
    outer loop
      vertex  3.000000e+000 -2.284046e+001 -6.756454e+000
      vertex  0.000000e+000 -2.284046e+001 -6.756454e+000
      vertex  0.000000e+000 -2.275000e+001 -7.269484e+000
    endloop
  endfacet
  facet normal  0.000000e+000 -9.848075e-001 -1.736495e-001
    outer loop
      vertex  3.000000e+000 -2.284046e+001 -6.756454e+000
      vertex  0.000000e+000 -2.275000e+001 -7.269484e+000
      vertex  3.000000e+000 -2.275000e+001 -7.269484e+000
    endloop
  endfacet
  facet normal  -0.000000e+000 -3.420196e-001 -9.396929e-001
    outer loop
      vertex  0.000000e+000 -2.350000e+001 -5.970446e+000
      vertex  3.000000e+000 -2.398953e+001 -5.792272e+000
      vertex  0.000000e+000 -2.398953e+001 -5.792272e+000
    endloop
  endfacet
  facet normal  0.000000e+000  0.000000e+000 -1.000000e+000
    outer loop
      vertex  0.000000e+000 -2.398953e+001 -5.792272e+000
      vertex  3.000000e+000 -2.398953e+001 -5.792272e+000
      vertex  3.000000e+000 -2.451047e+001 -5.792272e+000
    endloop
  endfacet
  facet normal  0.000000e+000  0.000000e+000 -1.000000e+000
    outer loop
      vertex  0.000000e+000 -2.398953e+001 -5.792272e+000
      vertex  3.000000e+000 -2.451047e+001 -5.792272e+000
      vertex  0.000000e+000 -2.451047e+001 -5.792272e+000
    endloop
  endfacet
  facet normal  0.000000e+000  3.420196e-001 -9.396929e-001
    outer loop
      vertex  0.000000e+000 -2.451047e+001 -5.792272e+000
      vertex  3.000000e+000 -2.451047e+001 -5.792272e+000
      vertex  3.000000e+000 -2.500000e+001 -5.970446e+000
    endloop
  endfacet
  facet normal  0.000000e+000  3.420196e-001 -9.396929e-001
    outer loop
      vertex  0.000000e+000 -2.451047e+001 -5.792272e+000
      vertex  3.000000e+000 -2.500000e+001 -5.970446e+000
      vertex  0.000000e+000 -2.500000e+001 -5.970446e+000
    endloop
  endfacet
  facet normal  0.000000e+000  6.427872e-001 -7.660449e-001
    outer loop
      vertex  0.000000e+000 -2.500000e+001 -5.970446e+000
      vertex  3.000000e+000 -2.500000e+001 -5.970446e+000
      vertex  3.000000e+000 -2.539907e+001 -6.305302e+000
    endloop
  endfacet
  facet normal  0.000000e+000  6.427872e-001 -7.660449e-001
    outer loop
      vertex  0.000000e+000 -2.500000e+001 -5.970446e+000
      vertex  3.000000e+000 -2.539907e+001 -6.305302e+000
      vertex  0.000000e+000 -2.539907e+001 -6.305302e+000
    endloop
  endfacet
  facet normal  0.000000e+000  8.660263e-001 -4.999985e-001
    outer loop
      vertex  0.000000e+000 -2.539907e+001 -6.305302e+000
      vertex  3.000000e+000 -2.539907e+001 -6.305302e+000
      vertex  3.000000e+000 -2.565954e+001 -6.756454e+000
    endloop
  endfacet
  facet normal  0.000000e+000  8.660263e-001 -4.999985e-001
    outer loop
      vertex  0.000000e+000 -2.539907e+001 -6.305302e+000
      vertex  3.000000e+000 -2.565954e+001 -6.756454e+000
      vertex  0.000000e+000 -2.565954e+001 -6.756454e+000
    endloop
  endfacet
  facet normal  0.000000e+000  9.848075e-001 -1.736495e-001
    outer loop
      vertex  0.000000e+000 -2.565954e+001 -6.756454e+000
      vertex  3.000000e+000 -2.565954e+001 -6.756454e+000
      vertex  3.000000e+000 -2.575000e+001 -7.269484e+000
    endloop
  endfacet
  facet normal  0.000000e+000  9.848075e-001 -1.736495e-001
    outer loop
      vertex  0.000000e+000 -2.565954e+001 -6.756454e+000
      vertex  3.000000e+000 -2.575000e+001 -7.269484e+000
      vertex  0.000000e+000 -2.575000e+001 -7.269484e+000
    endloop
  endfacet
  facet normal  -0.000000e+000  3.420204e-001  9.396924e-001
    outer loop
      vertex  3.000000e+000 -2.451047e+001 -8.746696e+000
      vertex  0.000000e+000 -2.500000e+001 -8.568521e+000
      vertex  3.000000e+000 -2.500000e+001 -8.568521e+000
    endloop
  endfacet
  facet normal  0.000000e+000  6.427877e-001  7.660444e-001
    outer loop
      vertex  3.000000e+000 -2.500000e+001 -8.568521e+000
      vertex  0.000000e+000 -2.500000e+001 -8.568521e+000
      vertex  0.000000e+000 -2.539907e+001 -8.233665e+000
    endloop
  endfacet
  facet normal  -0.000000e+000  6.427877e-001  7.660444e-001
    outer loop
      vertex  3.000000e+000 -2.500000e+001 -8.568521e+000
      vertex  0.000000e+000 -2.539907e+001 -8.233665e+000
      vertex  3.000000e+000 -2.539907e+001 -8.233665e+000
    endloop
  endfacet
  facet normal  0.000000e+000  8.660260e-001  4.999989e-001
    outer loop
      vertex  3.000000e+000 -2.539907e+001 -8.233665e+000
      vertex  0.000000e+000 -2.539907e+001 -8.233665e+000
      vertex  0.000000e+000 -2.565954e+001 -7.782514e+000
    endloop
  endfacet
  facet normal  -0.000000e+000  8.660260e-001  4.999989e-001
    outer loop
      vertex  3.000000e+000 -2.539907e+001 -8.233665e+000
      vertex  0.000000e+000 -2.565954e+001 -7.782514e+000
      vertex  3.000000e+000 -2.565954e+001 -7.782514e+000
    endloop
  endfacet
  facet normal  0.000000e+000  9.848075e-001  1.736495e-001
    outer loop
      vertex  3.000000e+000 -2.565954e+001 -7.782514e+000
      vertex  0.000000e+000 -2.565954e+001 -7.782514e+000
      vertex  0.000000e+000 -2.575000e+001 -7.269484e+000
    endloop
  endfacet
  facet normal  -0.000000e+000  9.848075e-001  1.736495e-001
    outer loop
      vertex  3.000000e+000 -2.565954e+001 -7.782514e+000
      vertex  0.000000e+000 -2.575000e+001 -7.269484e+000
      vertex  3.000000e+000 -2.575000e+001 -7.269484e+000
    endloop
  endfacet
  facet normal  0.000000e+000  3.420204e-001  9.396924e-001
    outer loop
      vertex  0.000000e+000 -2.500000e+001 -8.568521e+000
      vertex  3.000000e+000 -2.451047e+001 -8.746696e+000
      vertex  0.000000e+000 -2.451047e+001 -8.746696e+000
    endloop
  endfacet
  facet normal  0.000000e+000  0.000000e+000  1.000000e+000
    outer loop
      vertex  0.000000e+000 -2.451047e+001 -8.746696e+000
      vertex  3.000000e+000 -2.451047e+001 -8.746696e+000
      vertex  3.000000e+000 -2.398953e+001 -8.746696e+000
    endloop
  endfacet
  facet normal  0.000000e+000  0.000000e+000  1.000000e+000
    outer loop
      vertex  0.000000e+000 -2.451047e+001 -8.746696e+000
      vertex  3.000000e+000 -2.398953e+001 -8.746696e+000
      vertex  0.000000e+000 -2.398953e+001 -8.746696e+000
    endloop
  endfacet
  facet normal  0.000000e+000 -3.420204e-001  9.396924e-001
    outer loop
      vertex  0.000000e+000 -2.398953e+001 -8.746696e+000
      vertex  3.000000e+000 -2.398953e+001 -8.746696e+000
      vertex  3.000000e+000 -2.350000e+001 -8.568521e+000
    endloop
  endfacet
  facet normal  0.000000e+000 -3.420204e-001  9.396924e-001
    outer loop
      vertex  0.000000e+000 -2.398953e+001 -8.746696e+000
      vertex  3.000000e+000 -2.350000e+001 -8.568521e+000
      vertex  0.000000e+000 -2.350000e+001 -8.568521e+000
    endloop
  endfacet
  facet normal  0.000000e+000 -6.427877e-001  7.660444e-001
    outer loop
      vertex  0.000000e+000 -2.350000e+001 -8.568521e+000
      vertex  3.000000e+000 -2.350000e+001 -8.568521e+000
      vertex  3.000000e+000 -2.310093e+001 -8.233665e+000
    endloop
  endfacet
  facet normal  0.000000e+000 -6.427877e-001  7.660444e-001
    outer loop
      vertex  0.000000e+000 -2.350000e+001 -8.568521e+000
      vertex  3.000000e+000 -2.310093e+001 -8.233665e+000
      vertex  0.000000e+000 -2.310093e+001 -8.233665e+000
    endloop
  endfacet
  facet normal  0.000000e+000 -8.660260e-001  4.999989e-001
    outer loop
      vertex  0.000000e+000 -2.310093e+001 -8.233665e+000
      vertex  3.000000e+000 -2.310093e+001 -8.233665e+000
      vertex  3.000000e+000 -2.284046e+001 -7.782514e+000
    endloop
  endfacet
  facet normal  0.000000e+000 -8.660260e-001  4.999989e-001
    outer loop
      vertex  0.000000e+000 -2.310093e+001 -8.233665e+000
      vertex  3.000000e+000 -2.284046e+001 -7.782514e+000
      vertex  0.000000e+000 -2.284046e+001 -7.782514e+000
    endloop
  endfacet
  facet normal  0.000000e+000 -9.848075e-001  1.736495e-001
    outer loop
      vertex  0.000000e+000 -2.284046e+001 -7.782514e+000
      vertex  3.000000e+000 -2.284046e+001 -7.782514e+000
      vertex  3.000000e+000 -2.275000e+001 -7.269484e+000
    endloop
  endfacet
  facet normal  0.000000e+000 -9.848075e-001  1.736495e-001
    outer loop
      vertex  0.000000e+000 -2.284046e+001 -7.782514e+000
      vertex  3.000000e+000 -2.275000e+001 -7.269484e+000
      vertex  0.000000e+000 -2.275000e+001 -7.269484e+000
    endloop
  endfacet
  facet normal  0.000000e+000  0.000000e+000  9.999999e-001
    outer loop
      vertex  3.000000e+000 -2.650000e+001  1.250000e+001
      vertex  3.000000e+000  2.650000e+001  1.250000e+001
      vertex  0.000000e+000 -2.650000e+001  1.250000e+001
    endloop
  endfacet
  facet normal  0.000000e+000  0.000000e+000  9.999999e-001
    outer loop
      vertex  0.000000e+000 -2.650000e+001  1.250000e+001
      vertex  3.000000e+000  2.650000e+001  1.250000e+001
      vertex  0.000000e+000  2.650000e+001  1.250000e+001
    endloop
  endfacet
  facet normal  0.000000e+000  1.000000e+000  0.000000e+000
    outer loop
      vertex  3.000000e+000  2.650000e+001 -1.250000e+001
      vertex  0.000000e+000  2.650000e+001 -1.250000e+001
      vertex  3.000000e+000  2.650000e+001  1.250000e+001
    endloop
  endfacet
  facet normal  0.000000e+000  1.000000e+000  0.000000e+000
    outer loop
      vertex  3.000000e+000  2.650000e+001  1.250000e+001
      vertex  0.000000e+000  2.650000e+001 -1.250000e+001
      vertex  0.000000e+000  2.650000e+001  1.250000e+001
    endloop
  endfacet
  facet normal  0.000000e+000  1.000000e+000  0.000000e+000
    outer loop
      vertex  3.000000e+000  2.650000e+001 -1.490000e+001
      vertex  0.000000e+000  2.650000e+001 -1.490000e+001
      vertex  3.000000e+000  2.650000e+001 -1.250000e+001
    endloop
  endfacet
  facet normal  0.000000e+000  1.000000e+000  0.000000e+000
    outer loop
      vertex  3.000000e+000  2.650000e+001 -1.250000e+001
      vertex  0.000000e+000  2.650000e+001 -1.490000e+001
      vertex  0.000000e+000  2.650000e+001 -1.250000e+001
    endloop
  endfacet
  facet normal  0.000000e+000  0.000000e+000 -9.999999e-001
    outer loop
      vertex  3.000000e+000  2.650000e+001 -1.490000e+001
      vertex  3.000000e+000 -2.650000e+001 -1.490000e+001
      vertex  0.000000e+000  2.650000e+001 -1.490000e+001
    endloop
  endfacet
  facet normal  0.000000e+000  0.000000e+000 -9.999999e-001
    outer loop
      vertex  0.000000e+000  2.650000e+001 -1.490000e+001
      vertex  3.000000e+000 -2.650000e+001 -1.490000e+001
      vertex  0.000000e+000 -2.650000e+001 -1.490000e+001
    endloop
  endfacet
  facet normal  0.000000e+000 -1.000000e+000  0.000000e+000
    outer loop
      vertex  3.000000e+000 -2.650000e+001 -1.250000e+001
      vertex  0.000000e+000 -2.650000e+001 -1.250000e+001
      vertex  3.000000e+000 -2.650000e+001 -1.490000e+001
    endloop
  endfacet
  facet normal  0.000000e+000 -1.000000e+000  0.000000e+000
    outer loop
      vertex  3.000000e+000 -2.650000e+001 -1.490000e+001
      vertex  0.000000e+000 -2.650000e+001 -1.250000e+001
      vertex  0.000000e+000 -2.650000e+001 -1.490000e+001
    endloop
  endfacet
  facet normal  0.000000e+000 -1.000000e+000  0.000000e+000
    outer loop
      vertex  3.000000e+000 -2.650000e+001  1.250000e+001
      vertex  0.000000e+000 -2.650000e+001  1.250000e+001
      vertex  3.000000e+000 -2.650000e+001 -1.250000e+001
    endloop
  endfacet
  facet normal  0.000000e+000 -1.000000e+000  0.000000e+000
    outer loop
      vertex  3.000000e+000 -2.650000e+001 -1.250000e+001
      vertex  0.000000e+000 -2.650000e+001  1.250000e+001
      vertex  0.000000e+000 -2.650000e+001 -1.250000e+001
    endloop
  endfacet
endsolid CATIA STL
