solid CATIA STL
  facet normal -1.000000e+000  0.000000e+000  -0.000000e+000
    outer loop
      vertex  0.000000e+000  1.149067e+000 -9.641814e-001
      vertex  0.000000e+000  1.409539e+000 -5.130302e-001
      vertex  0.000000e+000  6.893654e+000 -1.215537e+000
    endloop
  endfacet
  facet normal -1.000000e+000  0.000000e+000  0.000000e+000
    outer loop
      vertex  0.000000e+000  7.000000e+000  0.000000e+000
      vertex  0.000000e+000  6.893654e+000 -1.215537e+000
      vertex  0.000000e+000  1.409539e+000 -5.130302e-001
    endloop
  endfacet
  facet normal -1.000000e+000  0.000000e+000  0.000000e+000
    outer loop
      vertex  0.000000e+000  7.000000e+000  0.000000e+000
      vertex  0.000000e+000  1.409539e+000 -5.130302e-001
      vertex  0.000000e+000  1.500000e+000  0.000000e+000
    endloop
  endfacet
  facet normal -1.000000e+000  0.000000e+000  0.000000e+000
    outer loop
      vertex  0.000000e+000  7.000000e+000  0.000000e+000
      vertex  0.000000e+000  1.500000e+000  0.000000e+000
      vertex  0.000000e+000  1.409539e+000  5.130302e-001
    endloop
  endfacet
  facet normal -1.000000e+000  0.000000e+000  0.000000e+000
    outer loop
      vertex  0.000000e+000  7.000000e+000  0.000000e+000
      vertex  0.000000e+000  1.409539e+000  5.130302e-001
      vertex  0.000000e+000  1.149067e+000  9.641814e-001
    endloop
  endfacet
  facet normal -9.999999e-001  0.000000e+000  0.000000e+000
    outer loop
      vertex  0.000000e+000  7.000000e+000  0.000000e+000
      vertex  0.000000e+000  1.149067e+000  9.641814e-001
      vertex  0.000000e+000  7.500000e-001  1.299038e+000
    endloop
  endfacet
  facet normal -1.000000e+000  0.000000e+000  0.000000e+000
    outer loop
      vertex  0.000000e+000  7.000000e+000  0.000000e+000
      vertex  0.000000e+000  7.500000e-001  1.299038e+000
      vertex  0.000000e+000  6.893654e+000  1.215537e+000
    endloop
  endfacet
  facet normal -9.999999e-001  0.000000e+000  -0.000000e+000
    outer loop
      vertex  0.000000e+000 -7.000000e+000  8.572528e-016
      vertex  0.000000e+000 -6.893654e+000  1.215537e+000
      vertex  0.000000e+000 -7.500000e-001  1.299038e+000
    endloop
  endfacet
  facet normal -1.000000e+000  0.000000e+000  0.000000e+000
    outer loop
      vertex  0.000000e+000 -7.000000e+000  8.572528e-016
      vertex  0.000000e+000 -7.500000e-001  1.299038e+000
      vertex  0.000000e+000 -1.149067e+000  9.641814e-001
    endloop
  endfacet
  facet normal -1.000000e+000  0.000000e+000  0.000000e+000
    outer loop
      vertex  0.000000e+000 -7.000000e+000  8.572528e-016
      vertex  0.000000e+000 -1.149067e+000  9.641814e-001
      vertex  0.000000e+000 -1.409539e+000  5.130302e-001
    endloop
  endfacet
  facet normal -1.000000e+000  0.000000e+000  0.000000e+000
    outer loop
      vertex  0.000000e+000 -7.000000e+000  8.572528e-016
      vertex  0.000000e+000 -1.409539e+000  5.130302e-001
      vertex  0.000000e+000 -1.500000e+000  1.836970e-016
    endloop
  endfacet
  facet normal -1.000000e+000  0.000000e+000  -0.000000e+000
    outer loop
      vertex  0.000000e+000 -6.577848e+000  2.394141e+000
      vertex  0.000000e+000 -6.062178e+000  3.500000e+000
      vertex  0.000000e+000 -5.362311e+000  4.499513e+000
    endloop
  endfacet
  facet normal -1.000000e+000  0.000000e+000  -0.000000e+000
    outer loop
      vertex  0.000000e+000 -6.577848e+000  2.394141e+000
      vertex  0.000000e+000 -5.362311e+000  4.499513e+000
      vertex  0.000000e+000 -4.499513e+000  5.362311e+000
    endloop
  endfacet
  facet normal -1.000000e+000  0.000000e+000  -0.000000e+000
    outer loop
      vertex  0.000000e+000 -6.577848e+000  2.394141e+000
      vertex  0.000000e+000 -4.499513e+000  5.362311e+000
      vertex  0.000000e+000 -3.500000e+000  6.062178e+000
    endloop
  endfacet
  facet normal -1.000000e+000  0.000000e+000  -0.000000e+000
    outer loop
      vertex  0.000000e+000 -6.577848e+000  2.394141e+000
      vertex  0.000000e+000 -3.500000e+000  6.062178e+000
      vertex  0.000000e+000 -2.394141e+000  6.577848e+000
    endloop
  endfacet
  facet normal -1.000000e+000  0.000000e+000  -0.000000e+000
    outer loop
      vertex  0.000000e+000 -6.577848e+000  2.394141e+000
      vertex  0.000000e+000 -2.394141e+000  6.577848e+000
      vertex  0.000000e+000 -1.215537e+000  6.893654e+000
    endloop
  endfacet
  facet normal -9.999999e-001  0.000000e+000  -0.000000e+000
    outer loop
      vertex  0.000000e+000  2.604723e-001  1.477212e+000
      vertex  0.000000e+000  1.215537e+000  6.893654e+000
      vertex  0.000000e+000  2.394141e+000  6.577848e+000
    endloop
  endfacet
  facet normal -1.000000e+000  0.000000e+000  -0.000000e+000
    outer loop
      vertex  0.000000e+000  2.604723e-001  1.477212e+000
      vertex  0.000000e+000  2.394141e+000  6.577848e+000
      vertex  0.000000e+000  3.500000e+000  6.062178e+000
    endloop
  endfacet
  facet normal -1.000000e+000  0.000000e+000  -0.000000e+000
    outer loop
      vertex  0.000000e+000  2.604723e-001  1.477212e+000
      vertex  0.000000e+000  3.500000e+000  6.062178e+000
      vertex  0.000000e+000  4.499513e+000  5.362311e+000
    endloop
  endfacet
  facet normal -1.000000e+000  0.000000e+000  -0.000000e+000
    outer loop
      vertex  0.000000e+000  2.604723e-001  1.477212e+000
      vertex  0.000000e+000  4.499513e+000  5.362311e+000
      vertex  0.000000e+000  5.362311e+000  4.499513e+000
    endloop
  endfacet
  facet normal -1.000000e+000  0.000000e+000  -0.000000e+000
    outer loop
      vertex  0.000000e+000  2.604723e-001  1.477212e+000
      vertex  0.000000e+000  5.362311e+000  4.499513e+000
      vertex  0.000000e+000  6.062178e+000  3.500000e+000
    endloop
  endfacet
  facet normal -1.000000e+000  0.000000e+000  -0.000000e+000
    outer loop
      vertex  0.000000e+000  2.604723e-001  1.477212e+000
      vertex  0.000000e+000  6.062178e+000  3.500000e+000
      vertex  0.000000e+000  6.577848e+000  2.394141e+000
    endloop
  endfacet
  facet normal -1.000000e+000  0.000000e+000  -0.000000e+000
    outer loop
      vertex  0.000000e+000  2.604723e-001  1.477212e+000
      vertex  0.000000e+000  6.577848e+000  2.394141e+000
      vertex  0.000000e+000  6.893654e+000  1.215537e+000
    endloop
  endfacet
  facet normal -1.000000e+000  0.000000e+000  0.000000e+000
    outer loop
      vertex  0.000000e+000  2.604723e-001  1.477212e+000
      vertex  0.000000e+000  6.893654e+000  1.215537e+000
      vertex  0.000000e+000  7.500000e-001  1.299038e+000
    endloop
  endfacet
  facet normal -1.000000e+000  0.000000e+000  0.000000e+000
    outer loop
      vertex  0.000000e+000 -6.893654e+000 -1.215537e+000
      vertex  0.000000e+000 -7.000000e+000  8.572528e-016
      vertex  0.000000e+000 -1.500000e+000  1.836970e-016
    endloop
  endfacet
  facet normal -1.000000e+000  0.000000e+000  -0.000000e+000
    outer loop
      vertex  0.000000e+000 -6.893654e+000 -1.215537e+000
      vertex  0.000000e+000 -1.500000e+000  1.836970e-016
      vertex  0.000000e+000 -1.409539e+000 -5.130302e-001
    endloop
  endfacet
  facet normal -1.000000e+000  0.000000e+000  -0.000000e+000
    outer loop
      vertex  0.000000e+000 -6.893654e+000 -1.215537e+000
      vertex  0.000000e+000 -1.409539e+000 -5.130302e-001
      vertex  0.000000e+000 -1.149067e+000 -9.641814e-001
    endloop
  endfacet
  facet normal -1.000000e+000  0.000000e+000  -0.000000e+000
    outer loop
      vertex  0.000000e+000 -6.893654e+000 -1.215537e+000
      vertex  0.000000e+000 -1.149067e+000 -9.641814e-001
      vertex  0.000000e+000 -7.500000e-001 -1.299038e+000
    endloop
  endfacet
  facet normal -1.000000e+000  0.000000e+000  0.000000e+000
    outer loop
      vertex  0.000000e+000 -1.285879e-015 -7.000000e+000
      vertex  0.000000e+000 -1.215537e+000 -6.893654e+000
      vertex  0.000000e+000 -2.394141e+000 -6.577848e+000
    endloop
  endfacet
  facet normal -1.000000e+000  0.000000e+000  0.000000e+000
    outer loop
      vertex  0.000000e+000 -1.285879e-015 -7.000000e+000
      vertex  0.000000e+000 -2.394141e+000 -6.577848e+000
      vertex  0.000000e+000 -3.500000e+000 -6.062178e+000
    endloop
  endfacet
  facet normal -1.000000e+000  0.000000e+000  0.000000e+000
    outer loop
      vertex  0.000000e+000 -1.285879e-015 -7.000000e+000
      vertex  0.000000e+000 -3.500000e+000 -6.062178e+000
      vertex  0.000000e+000 -4.499513e+000 -5.362311e+000
    endloop
  endfacet
  facet normal -1.000000e+000  0.000000e+000  0.000000e+000
    outer loop
      vertex  0.000000e+000 -1.285879e-015 -7.000000e+000
      vertex  0.000000e+000 -4.499513e+000 -5.362311e+000
      vertex  0.000000e+000 -5.362311e+000 -4.499513e+000
    endloop
  endfacet
  facet normal -1.000000e+000  0.000000e+000  0.000000e+000
    outer loop
      vertex  0.000000e+000 -1.285879e-015 -7.000000e+000
      vertex  0.000000e+000 -5.362311e+000 -4.499513e+000
      vertex  0.000000e+000 -6.062178e+000 -3.500000e+000
    endloop
  endfacet
  facet normal -1.000000e+000  0.000000e+000  0.000000e+000
    outer loop
      vertex  0.000000e+000 -1.285879e-015 -7.000000e+000
      vertex  0.000000e+000 -6.062178e+000 -3.500000e+000
      vertex  0.000000e+000 -6.577848e+000 -2.394141e+000
    endloop
  endfacet
  facet normal -1.000000e+000  0.000000e+000  0.000000e+000
    outer loop
      vertex  0.000000e+000 -1.285879e-015 -7.000000e+000
      vertex  0.000000e+000 -6.577848e+000 -2.394141e+000
      vertex  0.000000e+000 -2.604723e-001 -1.477212e+000
    endloop
  endfacet
  facet normal -9.999999e-001  0.000000e+000  0.000000e+000
    outer loop
      vertex  0.000000e+000 -1.285879e-015 -7.000000e+000
      vertex  0.000000e+000 -2.604723e-001 -1.477212e+000
      vertex  0.000000e+000  2.604723e-001 -1.477212e+000
    endloop
  endfacet
  facet normal -1.000000e+000  0.000000e+000  -0.000000e+000
    outer loop
      vertex  0.000000e+000 -1.285879e-015 -7.000000e+000
      vertex  0.000000e+000  2.604723e-001 -1.477212e+000
      vertex  0.000000e+000  6.577848e+000 -2.394141e+000
    endloop
  endfacet
  facet normal -1.000000e+000  0.000000e+000  0.000000e+000
    outer loop
      vertex  0.000000e+000 -1.285879e-015 -7.000000e+000
      vertex  0.000000e+000  6.577848e+000 -2.394141e+000
      vertex  0.000000e+000  6.062178e+000 -3.500000e+000
    endloop
  endfacet
  facet normal -1.000000e+000  0.000000e+000  0.000000e+000
    outer loop
      vertex  0.000000e+000 -1.285879e-015 -7.000000e+000
      vertex  0.000000e+000  6.062178e+000 -3.500000e+000
      vertex  0.000000e+000  5.362311e+000 -4.499513e+000
    endloop
  endfacet
  facet normal -1.000000e+000  0.000000e+000  0.000000e+000
    outer loop
      vertex  0.000000e+000 -1.285879e-015 -7.000000e+000
      vertex  0.000000e+000  5.362311e+000 -4.499513e+000
      vertex  0.000000e+000  4.499513e+000 -5.362311e+000
    endloop
  endfacet
  facet normal -1.000000e+000  0.000000e+000  0.000000e+000
    outer loop
      vertex  0.000000e+000 -1.285879e-015 -7.000000e+000
      vertex  0.000000e+000  4.499513e+000 -5.362311e+000
      vertex  0.000000e+000  3.500000e+000 -6.062178e+000
    endloop
  endfacet
  facet normal -1.000000e+000  0.000000e+000  0.000000e+000
    outer loop
      vertex  0.000000e+000 -1.285879e-015 -7.000000e+000
      vertex  0.000000e+000  3.500000e+000 -6.062178e+000
      vertex  0.000000e+000  2.394141e+000 -6.577848e+000
    endloop
  endfacet
  facet normal -1.000000e+000  0.000000e+000  0.000000e+000
    outer loop
      vertex  0.000000e+000 -1.285879e-015 -7.000000e+000
      vertex  0.000000e+000  2.394141e+000 -6.577848e+000
      vertex  0.000000e+000  1.215537e+000 -6.893654e+000
    endloop
  endfacet
  facet normal -1.000000e+000  -0.000000e+000  0.000000e+000
    outer loop
      vertex  0.000000e+000 -6.893654e+000 -1.215537e+000
      vertex  0.000000e+000 -7.500000e-001 -1.299038e+000
      vertex  0.000000e+000 -6.577848e+000 -2.394141e+000
    endloop
  endfacet
  facet normal -1.000000e+000  0.000000e+000  0.000000e+000
    outer loop
      vertex  0.000000e+000 -6.577848e+000 -2.394141e+000
      vertex  0.000000e+000 -7.500000e-001 -1.299038e+000
      vertex  0.000000e+000 -2.604723e-001 -1.477212e+000
    endloop
  endfacet
  facet normal -1.000000e+000  0.000000e+000  0.000000e+000
    outer loop
      vertex  0.000000e+000  2.604723e-001  1.477212e+000
      vertex  0.000000e+000 -2.604723e-001  1.477212e+000
      vertex  0.000000e+000  1.215537e+000  6.893654e+000
    endloop
  endfacet
  facet normal -1.000000e+000  -0.000000e+000  0.000000e+000
    outer loop
      vertex  0.000000e+000  1.215537e+000  6.893654e+000
      vertex  0.000000e+000 -2.604723e-001  1.477212e+000
      vertex  0.000000e+000  4.286264e-016  7.000000e+000
    endloop
  endfacet
  facet normal -1.000000e+000  0.000000e+000  0.000000e+000
    outer loop
      vertex  0.000000e+000 -2.604723e-001  1.477212e+000
      vertex  0.000000e+000 -6.577848e+000  2.394141e+000
      vertex  0.000000e+000  4.286264e-016  7.000000e+000
    endloop
  endfacet
  facet normal -1.000000e+000  0.000000e+000  0.000000e+000
    outer loop
      vertex  0.000000e+000  4.286264e-016  7.000000e+000
      vertex  0.000000e+000 -6.577848e+000  2.394141e+000
      vertex  0.000000e+000 -1.215537e+000  6.893654e+000
    endloop
  endfacet
  facet normal -1.000000e+000  0.000000e+000  0.000000e+000
    outer loop
      vertex  0.000000e+000 -7.500000e-001  1.299038e+000
      vertex  0.000000e+000 -6.893654e+000  1.215537e+000
      vertex  0.000000e+000 -2.604723e-001  1.477212e+000
    endloop
  endfacet
  facet normal -1.000000e+000  -0.000000e+000  0.000000e+000
    outer loop
      vertex  0.000000e+000 -2.604723e-001  1.477212e+000
      vertex  0.000000e+000 -6.893654e+000  1.215537e+000
      vertex  0.000000e+000 -6.577848e+000  2.394141e+000
    endloop
  endfacet
  facet normal -1.000000e+000  -0.000000e+000  0.000000e+000
    outer loop
      vertex  0.000000e+000  1.149067e+000 -9.641814e-001
      vertex  0.000000e+000  6.893654e+000 -1.215537e+000
      vertex  0.000000e+000  7.500000e-001 -1.299038e+000
    endloop
  endfacet
  facet normal -1.000000e+000  0.000000e+000  0.000000e+000
    outer loop
      vertex  0.000000e+000  7.500000e-001 -1.299038e+000
      vertex  0.000000e+000  6.893654e+000 -1.215537e+000
      vertex  0.000000e+000  6.577848e+000 -2.394141e+000
    endloop
  endfacet
  facet normal -1.000000e+000  0.000000e+000  0.000000e+000
    outer loop
      vertex  0.000000e+000  7.500000e-001 -1.299038e+000
      vertex  0.000000e+000  6.577848e+000 -2.394141e+000
      vertex  0.000000e+000  2.604723e-001 -1.477212e+000
    endloop
  endfacet
  facet normal  1.000000e+000  0.000000e+000  0.000000e+000
    outer loop
      vertex  3.000000e+000  6.893654e+000 -1.215537e+000
      vertex  3.000000e+000  1.409539e+000 -5.130302e-001
      vertex  3.000000e+000  1.149067e+000 -9.641814e-001
    endloop
  endfacet
  facet normal  9.999999e-001  0.000000e+000  0.000000e+000
    outer loop
      vertex  3.000000e+000  7.000000e+000  0.000000e+000
      vertex  3.000000e+000  6.893654e+000  1.215537e+000
      vertex  3.000000e+000  7.500000e-001  1.299038e+000
    endloop
  endfacet
  facet normal  1.000000e+000  0.000000e+000  0.000000e+000
    outer loop
      vertex  3.000000e+000  7.000000e+000  0.000000e+000
      vertex  3.000000e+000  7.500000e-001  1.299038e+000
      vertex  3.000000e+000  1.149067e+000  9.641814e-001
    endloop
  endfacet
  facet normal  1.000000e+000  0.000000e+000  0.000000e+000
    outer loop
      vertex  3.000000e+000  7.000000e+000  0.000000e+000
      vertex  3.000000e+000  1.149067e+000  9.641814e-001
      vertex  3.000000e+000  1.409539e+000  5.130302e-001
    endloop
  endfacet
  facet normal  1.000000e+000  0.000000e+000  0.000000e+000
    outer loop
      vertex  3.000000e+000  7.000000e+000  0.000000e+000
      vertex  3.000000e+000  1.409539e+000  5.130302e-001
      vertex  3.000000e+000  1.500000e+000  0.000000e+000
    endloop
  endfacet
  facet normal  1.000000e+000  -0.000000e+000  0.000000e+000
    outer loop
      vertex  3.000000e+000  7.000000e+000  0.000000e+000
      vertex  3.000000e+000  1.500000e+000  0.000000e+000
      vertex  3.000000e+000  1.409539e+000 -5.130302e-001
    endloop
  endfacet
  facet normal  1.000000e+000  -0.000000e+000  0.000000e+000
    outer loop
      vertex  3.000000e+000  7.000000e+000  0.000000e+000
      vertex  3.000000e+000  1.409539e+000 -5.130302e-001
      vertex  3.000000e+000  6.893654e+000 -1.215537e+000
    endloop
  endfacet
  facet normal  1.000000e+000  0.000000e+000  -0.000000e+000
    outer loop
      vertex  3.000000e+000 -7.000000e+000  8.572528e-016
      vertex  3.000000e+000 -1.500000e+000  1.836970e-016
      vertex  3.000000e+000 -1.409539e+000  5.130302e-001
    endloop
  endfacet
  facet normal  1.000000e+000  0.000000e+000  -0.000000e+000
    outer loop
      vertex  3.000000e+000 -7.000000e+000  8.572528e-016
      vertex  3.000000e+000 -1.409539e+000  5.130302e-001
      vertex  3.000000e+000 -1.149067e+000  9.641814e-001
    endloop
  endfacet
  facet normal  9.999999e-001  0.000000e+000  -0.000000e+000
    outer loop
      vertex  3.000000e+000 -7.000000e+000  8.572528e-016
      vertex  3.000000e+000 -1.149067e+000  9.641814e-001
      vertex  3.000000e+000 -7.500000e-001  1.299038e+000
    endloop
  endfacet
  facet normal  1.000000e+000  0.000000e+000  0.000000e+000
    outer loop
      vertex  3.000000e+000 -7.000000e+000  8.572528e-016
      vertex  3.000000e+000 -7.500000e-001  1.299038e+000
      vertex  3.000000e+000 -6.893654e+000  1.215537e+000
    endloop
  endfacet
  facet normal  9.999999e-001  0.000000e+000  0.000000e+000
    outer loop
      vertex  3.000000e+000 -6.577848e+000  2.394141e+000
      vertex  3.000000e+000 -1.215537e+000  6.893654e+000
      vertex  3.000000e+000 -2.394141e+000  6.577848e+000
    endloop
  endfacet
  facet normal  1.000000e+000  0.000000e+000  0.000000e+000
    outer loop
      vertex  3.000000e+000 -6.577848e+000  2.394141e+000
      vertex  3.000000e+000 -2.394141e+000  6.577848e+000
      vertex  3.000000e+000 -3.500000e+000  6.062178e+000
    endloop
  endfacet
  facet normal  1.000000e+000  0.000000e+000  0.000000e+000
    outer loop
      vertex  3.000000e+000 -6.577848e+000  2.394141e+000
      vertex  3.000000e+000 -3.500000e+000  6.062178e+000
      vertex  3.000000e+000 -4.499513e+000  5.362311e+000
    endloop
  endfacet
  facet normal  1.000000e+000  0.000000e+000  0.000000e+000
    outer loop
      vertex  3.000000e+000 -6.577848e+000  2.394141e+000
      vertex  3.000000e+000 -4.499513e+000  5.362311e+000
      vertex  3.000000e+000 -5.362311e+000  4.499513e+000
    endloop
  endfacet
  facet normal  1.000000e+000  0.000000e+000  0.000000e+000
    outer loop
      vertex  3.000000e+000 -6.577848e+000  2.394141e+000
      vertex  3.000000e+000 -5.362311e+000  4.499513e+000
      vertex  3.000000e+000 -6.062178e+000  3.500000e+000
    endloop
  endfacet
  facet normal  1.000000e+000  -0.000000e+000  -0.000000e+000
    outer loop
      vertex  3.000000e+000  2.604723e-001  1.477212e+000
      vertex  3.000000e+000  7.500000e-001  1.299038e+000
      vertex  3.000000e+000  6.893654e+000  1.215537e+000
    endloop
  endfacet
  facet normal  1.000000e+000  0.000000e+000  0.000000e+000
    outer loop
      vertex  3.000000e+000  2.604723e-001  1.477212e+000
      vertex  3.000000e+000  6.893654e+000  1.215537e+000
      vertex  3.000000e+000  6.577848e+000  2.394141e+000
    endloop
  endfacet
  facet normal  9.999999e-001  0.000000e+000  0.000000e+000
    outer loop
      vertex  3.000000e+000  2.604723e-001  1.477212e+000
      vertex  3.000000e+000  6.577848e+000  2.394141e+000
      vertex  3.000000e+000  6.062178e+000  3.500000e+000
    endloop
  endfacet
  facet normal  9.999999e-001  0.000000e+000  0.000000e+000
    outer loop
      vertex  3.000000e+000  2.604723e-001  1.477212e+000
      vertex  3.000000e+000  6.062178e+000  3.500000e+000
      vertex  3.000000e+000  5.362311e+000  4.499513e+000
    endloop
  endfacet
  facet normal  1.000000e+000  0.000000e+000  0.000000e+000
    outer loop
      vertex  3.000000e+000  2.604723e-001  1.477212e+000
      vertex  3.000000e+000  5.362311e+000  4.499513e+000
      vertex  3.000000e+000  4.499513e+000  5.362311e+000
    endloop
  endfacet
  facet normal  1.000000e+000  0.000000e+000  0.000000e+000
    outer loop
      vertex  3.000000e+000  2.604723e-001  1.477212e+000
      vertex  3.000000e+000  4.499513e+000  5.362311e+000
      vertex  3.000000e+000  3.500000e+000  6.062178e+000
    endloop
  endfacet
  facet normal  1.000000e+000  0.000000e+000  0.000000e+000
    outer loop
      vertex  3.000000e+000  2.604723e-001  1.477212e+000
      vertex  3.000000e+000  3.500000e+000  6.062178e+000
      vertex  3.000000e+000  2.394141e+000  6.577848e+000
    endloop
  endfacet
  facet normal  9.999999e-001  0.000000e+000  0.000000e+000
    outer loop
      vertex  3.000000e+000  2.604723e-001  1.477212e+000
      vertex  3.000000e+000  2.394141e+000  6.577848e+000
      vertex  3.000000e+000  1.215537e+000  6.893654e+000
    endloop
  endfacet
  facet normal  1.000000e+000  0.000000e+000  0.000000e+000
    outer loop
      vertex  3.000000e+000 -6.893654e+000 -1.215537e+000
      vertex  3.000000e+000 -7.500000e-001 -1.299038e+000
      vertex  3.000000e+000 -1.149067e+000 -9.641814e-001
    endloop
  endfacet
  facet normal  1.000000e+000  0.000000e+000  0.000000e+000
    outer loop
      vertex  3.000000e+000 -6.893654e+000 -1.215537e+000
      vertex  3.000000e+000 -1.149067e+000 -9.641814e-001
      vertex  3.000000e+000 -1.409539e+000 -5.130302e-001
    endloop
  endfacet
  facet normal  9.999999e-001  0.000000e+000  0.000000e+000
    outer loop
      vertex  3.000000e+000 -6.893654e+000 -1.215537e+000
      vertex  3.000000e+000 -1.409539e+000 -5.130302e-001
      vertex  3.000000e+000 -1.500000e+000  1.836970e-016
    endloop
  endfacet
  facet normal  1.000000e+000  0.000000e+000  0.000000e+000
    outer loop
      vertex  3.000000e+000 -6.893654e+000 -1.215537e+000
      vertex  3.000000e+000 -1.500000e+000  1.836970e-016
      vertex  3.000000e+000 -7.000000e+000  8.572528e-016
    endloop
  endfacet
  facet normal  1.000000e+000  0.000000e+000  -0.000000e+000
    outer loop
      vertex  3.000000e+000 -1.285879e-015 -7.000000e+000
      vertex  3.000000e+000  1.215537e+000 -6.893654e+000
      vertex  3.000000e+000  2.394141e+000 -6.577848e+000
    endloop
  endfacet
  facet normal  1.000000e+000  0.000000e+000  -0.000000e+000
    outer loop
      vertex  3.000000e+000 -1.285879e-015 -7.000000e+000
      vertex  3.000000e+000  2.394141e+000 -6.577848e+000
      vertex  3.000000e+000  3.500000e+000 -6.062178e+000
    endloop
  endfacet
  facet normal  1.000000e+000  0.000000e+000  -0.000000e+000
    outer loop
      vertex  3.000000e+000 -1.285879e-015 -7.000000e+000
      vertex  3.000000e+000  3.500000e+000 -6.062178e+000
      vertex  3.000000e+000  4.499513e+000 -5.362311e+000
    endloop
  endfacet
  facet normal  1.000000e+000  0.000000e+000  -0.000000e+000
    outer loop
      vertex  3.000000e+000 -1.285879e-015 -7.000000e+000
      vertex  3.000000e+000  4.499513e+000 -5.362311e+000
      vertex  3.000000e+000  5.362311e+000 -4.499513e+000
    endloop
  endfacet
  facet normal  1.000000e+000  0.000000e+000  -0.000000e+000
    outer loop
      vertex  3.000000e+000 -1.285879e-015 -7.000000e+000
      vertex  3.000000e+000  5.362311e+000 -4.499513e+000
      vertex  3.000000e+000  6.062178e+000 -3.500000e+000
    endloop
  endfacet
  facet normal  1.000000e+000  0.000000e+000  -0.000000e+000
    outer loop
      vertex  3.000000e+000 -1.285879e-015 -7.000000e+000
      vertex  3.000000e+000  6.062178e+000 -3.500000e+000
      vertex  3.000000e+000  6.577848e+000 -2.394141e+000
    endloop
  endfacet
  facet normal  1.000000e+000  0.000000e+000  0.000000e+000
    outer loop
      vertex  3.000000e+000 -1.285879e-015 -7.000000e+000
      vertex  3.000000e+000  6.577848e+000 -2.394141e+000
      vertex  3.000000e+000  2.604723e-001 -1.477212e+000
    endloop
  endfacet
  facet normal  9.999999e-001  0.000000e+000  0.000000e+000
    outer loop
      vertex  3.000000e+000 -1.285879e-015 -7.000000e+000
      vertex  3.000000e+000  2.604723e-001 -1.477212e+000
      vertex  3.000000e+000 -2.604723e-001 -1.477212e+000
    endloop
  endfacet
  facet normal  1.000000e+000  0.000000e+000  0.000000e+000
    outer loop
      vertex  3.000000e+000 -1.285879e-015 -7.000000e+000
      vertex  3.000000e+000 -2.604723e-001 -1.477212e+000
      vertex  3.000000e+000 -6.577848e+000 -2.394141e+000
    endloop
  endfacet
  facet normal  1.000000e+000  0.000000e+000  0.000000e+000
    outer loop
      vertex  3.000000e+000 -1.285879e-015 -7.000000e+000
      vertex  3.000000e+000 -6.577848e+000 -2.394141e+000
      vertex  3.000000e+000 -6.062178e+000 -3.500000e+000
    endloop
  endfacet
  facet normal  1.000000e+000  0.000000e+000  0.000000e+000
    outer loop
      vertex  3.000000e+000 -1.285879e-015 -7.000000e+000
      vertex  3.000000e+000 -6.062178e+000 -3.500000e+000
      vertex  3.000000e+000 -5.362311e+000 -4.499513e+000
    endloop
  endfacet
  facet normal  1.000000e+000  0.000000e+000  0.000000e+000
    outer loop
      vertex  3.000000e+000 -1.285879e-015 -7.000000e+000
      vertex  3.000000e+000 -5.362311e+000 -4.499513e+000
      vertex  3.000000e+000 -4.499513e+000 -5.362311e+000
    endloop
  endfacet
  facet normal  1.000000e+000  0.000000e+000  0.000000e+000
    outer loop
      vertex  3.000000e+000 -1.285879e-015 -7.000000e+000
      vertex  3.000000e+000 -4.499513e+000 -5.362311e+000
      vertex  3.000000e+000 -3.500000e+000 -6.062178e+000
    endloop
  endfacet
  facet normal  1.000000e+000  0.000000e+000  0.000000e+000
    outer loop
      vertex  3.000000e+000 -1.285879e-015 -7.000000e+000
      vertex  3.000000e+000 -3.500000e+000 -6.062178e+000
      vertex  3.000000e+000 -2.394141e+000 -6.577848e+000
    endloop
  endfacet
  facet normal  1.000000e+000  0.000000e+000  0.000000e+000
    outer loop
      vertex  3.000000e+000 -1.285879e-015 -7.000000e+000
      vertex  3.000000e+000 -2.394141e+000 -6.577848e+000
      vertex  3.000000e+000 -1.215537e+000 -6.893654e+000
    endloop
  endfacet
  facet normal  1.000000e+000  0.000000e+000  -0.000000e+000
    outer loop
      vertex  3.000000e+000 -6.893654e+000 -1.215537e+000
      vertex  3.000000e+000 -6.577848e+000 -2.394141e+000
      vertex  3.000000e+000 -7.500000e-001 -1.299038e+000
    endloop
  endfacet
  facet normal  1.000000e+000  0.000000e+000  0.000000e+000
    outer loop
      vertex  3.000000e+000 -7.500000e-001 -1.299038e+000
      vertex  3.000000e+000 -6.577848e+000 -2.394141e+000
      vertex  3.000000e+000 -2.604723e-001 -1.477212e+000
    endloop
  endfacet
  facet normal  1.000000e+000  0.000000e+000  0.000000e+000
    outer loop
      vertex  3.000000e+000  2.604723e-001  1.477212e+000
      vertex  3.000000e+000  1.215537e+000  6.893654e+000
      vertex  3.000000e+000 -2.604723e-001  1.477212e+000
    endloop
  endfacet
  facet normal  1.000000e+000  0.000000e+000  0.000000e+000
    outer loop
      vertex  3.000000e+000 -2.604723e-001  1.477212e+000
      vertex  3.000000e+000  1.215537e+000  6.893654e+000
      vertex  3.000000e+000  4.286264e-016  7.000000e+000
    endloop
  endfacet
  facet normal  1.000000e+000  0.000000e+000  0.000000e+000
    outer loop
      vertex  3.000000e+000 -2.604723e-001  1.477212e+000
      vertex  3.000000e+000  4.286264e-016  7.000000e+000
      vertex  3.000000e+000 -6.577848e+000  2.394141e+000
    endloop
  endfacet
  facet normal  1.000000e+000  0.000000e+000  0.000000e+000
    outer loop
      vertex  3.000000e+000 -6.577848e+000  2.394141e+000
      vertex  3.000000e+000  4.286264e-016  7.000000e+000
      vertex  3.000000e+000 -1.215537e+000  6.893654e+000
    endloop
  endfacet
  facet normal  1.000000e+000  0.000000e+000  0.000000e+000
    outer loop
      vertex  3.000000e+000 -7.500000e-001  1.299038e+000
      vertex  3.000000e+000 -2.604723e-001  1.477212e+000
      vertex  3.000000e+000 -6.893654e+000  1.215537e+000
    endloop
  endfacet
  facet normal  1.000000e+000  0.000000e+000  0.000000e+000
    outer loop
      vertex  3.000000e+000 -6.893654e+000  1.215537e+000
      vertex  3.000000e+000 -2.604723e-001  1.477212e+000
      vertex  3.000000e+000 -6.577848e+000  2.394141e+000
    endloop
  endfacet
  facet normal  1.000000e+000  0.000000e+000  0.000000e+000
    outer loop
      vertex  3.000000e+000  2.604723e-001 -1.477212e+000
      vertex  3.000000e+000  6.577848e+000 -2.394141e+000
      vertex  3.000000e+000  7.500000e-001 -1.299038e+000
    endloop
  endfacet
  facet normal  1.000000e+000  -0.000000e+000  0.000000e+000
    outer loop
      vertex  3.000000e+000  7.500000e-001 -1.299038e+000
      vertex  3.000000e+000  6.577848e+000 -2.394141e+000
      vertex  3.000000e+000  6.893654e+000 -1.215537e+000
    endloop
  endfacet
  facet normal  1.000000e+000  0.000000e+000  0.000000e+000
    outer loop
      vertex  3.000000e+000  7.500000e-001 -1.299038e+000
      vertex  3.000000e+000  6.893654e+000 -1.215537e+000
      vertex  3.000000e+000  1.149067e+000 -9.641814e-001
    endloop
  endfacet
  facet normal  0.000000e+000 -3.420202e-001  9.396927e-001
    outer loop
      vertex  0.000000e+000  2.604723e-001 -1.477212e+000
      vertex  3.000000e+000  7.500000e-001 -1.299038e+000
      vertex  0.000000e+000  7.500000e-001 -1.299038e+000
    endloop
  endfacet
  facet normal  0.000000e+000 -6.427875e-001  7.660446e-001
    outer loop
      vertex  0.000000e+000  7.500000e-001 -1.299038e+000
      vertex  3.000000e+000  7.500000e-001 -1.299038e+000
      vertex  3.000000e+000  1.149067e+000 -9.641814e-001
    endloop
  endfacet
  facet normal  0.000000e+000 -6.427875e-001  7.660446e-001
    outer loop
      vertex  0.000000e+000  7.500000e-001 -1.299038e+000
      vertex  3.000000e+000  1.149067e+000 -9.641814e-001
      vertex  0.000000e+000  1.149067e+000 -9.641814e-001
    endloop
  endfacet
  facet normal  0.000000e+000 -8.660254e-001  5.000001e-001
    outer loop
      vertex  0.000000e+000  1.149067e+000 -9.641814e-001
      vertex  3.000000e+000  1.149067e+000 -9.641814e-001
      vertex  3.000000e+000  1.409539e+000 -5.130302e-001
    endloop
  endfacet
  facet normal  0.000000e+000 -8.660254e-001  5.000001e-001
    outer loop
      vertex  0.000000e+000  1.149067e+000 -9.641814e-001
      vertex  3.000000e+000  1.409539e+000 -5.130302e-001
      vertex  0.000000e+000  1.409539e+000 -5.130302e-001
    endloop
  endfacet
  facet normal  0.000000e+000 -9.848078e-001  1.736481e-001
    outer loop
      vertex  0.000000e+000  1.409539e+000 -5.130302e-001
      vertex  3.000000e+000  1.409539e+000 -5.130302e-001
      vertex  3.000000e+000  1.500000e+000  0.000000e+000
    endloop
  endfacet
  facet normal  0.000000e+000 -9.848078e-001  1.736481e-001
    outer loop
      vertex  0.000000e+000  1.409539e+000 -5.130302e-001
      vertex  3.000000e+000  1.500000e+000  0.000000e+000
      vertex  0.000000e+000  1.500000e+000  0.000000e+000
    endloop
  endfacet
  facet normal  0.000000e+000 -3.420202e-001  9.396927e-001
    outer loop
      vertex  3.000000e+000  7.500000e-001 -1.299038e+000
      vertex  0.000000e+000  2.604723e-001 -1.477212e+000
      vertex  3.000000e+000  2.604723e-001 -1.477212e+000
    endloop
  endfacet
  facet normal  0.000000e+000  0.000000e+000  1.000000e+000
    outer loop
      vertex  3.000000e+000  2.604723e-001 -1.477212e+000
      vertex  0.000000e+000  2.604723e-001 -1.477212e+000
      vertex  0.000000e+000 -2.604723e-001 -1.477212e+000
    endloop
  endfacet
  facet normal  0.000000e+000  0.000000e+000  1.000000e+000
    outer loop
      vertex  3.000000e+000  2.604723e-001 -1.477212e+000
      vertex  0.000000e+000 -2.604723e-001 -1.477212e+000
      vertex  3.000000e+000 -2.604723e-001 -1.477212e+000
    endloop
  endfacet
  facet normal  0.000000e+000  3.420202e-001  9.396927e-001
    outer loop
      vertex  3.000000e+000 -2.604723e-001 -1.477212e+000
      vertex  0.000000e+000 -2.604723e-001 -1.477212e+000
      vertex  0.000000e+000 -7.500000e-001 -1.299038e+000
    endloop
  endfacet
  facet normal  -0.000000e+000  3.420202e-001  9.396927e-001
    outer loop
      vertex  3.000000e+000 -2.604723e-001 -1.477212e+000
      vertex  0.000000e+000 -7.500000e-001 -1.299038e+000
      vertex  3.000000e+000 -7.500000e-001 -1.299038e+000
    endloop
  endfacet
  facet normal  0.000000e+000  6.427875e-001  7.660446e-001
    outer loop
      vertex  3.000000e+000 -7.500000e-001 -1.299038e+000
      vertex  0.000000e+000 -7.500000e-001 -1.299038e+000
      vertex  0.000000e+000 -1.149067e+000 -9.641814e-001
    endloop
  endfacet
  facet normal  -0.000000e+000  6.427875e-001  7.660446e-001
    outer loop
      vertex  3.000000e+000 -7.500000e-001 -1.299038e+000
      vertex  0.000000e+000 -1.149067e+000 -9.641814e-001
      vertex  3.000000e+000 -1.149067e+000 -9.641814e-001
    endloop
  endfacet
  facet normal  0.000000e+000  8.660254e-001  5.000001e-001
    outer loop
      vertex  3.000000e+000 -1.149067e+000 -9.641814e-001
      vertex  0.000000e+000 -1.149067e+000 -9.641814e-001
      vertex  0.000000e+000 -1.409539e+000 -5.130302e-001
    endloop
  endfacet
  facet normal  -0.000000e+000  8.660254e-001  5.000001e-001
    outer loop
      vertex  3.000000e+000 -1.149067e+000 -9.641814e-001
      vertex  0.000000e+000 -1.409539e+000 -5.130302e-001
      vertex  3.000000e+000 -1.409539e+000 -5.130302e-001
    endloop
  endfacet
  facet normal  0.000000e+000  9.848078e-001  1.736481e-001
    outer loop
      vertex  3.000000e+000 -1.409539e+000 -5.130302e-001
      vertex  0.000000e+000 -1.409539e+000 -5.130302e-001
      vertex  0.000000e+000 -1.500000e+000  1.836970e-016
    endloop
  endfacet
  facet normal  -0.000000e+000  9.848078e-001  1.736481e-001
    outer loop
      vertex  3.000000e+000 -1.409539e+000 -5.130302e-001
      vertex  0.000000e+000 -1.500000e+000  1.836970e-016
      vertex  3.000000e+000 -1.500000e+000  1.836970e-016
    endloop
  endfacet
  facet normal  0.000000e+000  3.420202e-001 -9.396927e-001
    outer loop
      vertex  0.000000e+000 -2.604723e-001  1.477212e+000
      vertex  3.000000e+000 -7.500000e-001  1.299038e+000
      vertex  0.000000e+000 -7.500000e-001  1.299038e+000
    endloop
  endfacet
  facet normal  0.000000e+000  6.427875e-001 -7.660446e-001
    outer loop
      vertex  0.000000e+000 -7.500000e-001  1.299038e+000
      vertex  3.000000e+000 -7.500000e-001  1.299038e+000
      vertex  3.000000e+000 -1.149067e+000  9.641814e-001
    endloop
  endfacet
  facet normal  0.000000e+000  6.427875e-001 -7.660446e-001
    outer loop
      vertex  0.000000e+000 -7.500000e-001  1.299038e+000
      vertex  3.000000e+000 -1.149067e+000  9.641814e-001
      vertex  0.000000e+000 -1.149067e+000  9.641814e-001
    endloop
  endfacet
  facet normal  0.000000e+000  8.660254e-001 -5.000001e-001
    outer loop
      vertex  0.000000e+000 -1.149067e+000  9.641814e-001
      vertex  3.000000e+000 -1.149067e+000  9.641814e-001
      vertex  3.000000e+000 -1.409539e+000  5.130302e-001
    endloop
  endfacet
  facet normal  0.000000e+000  8.660254e-001 -5.000001e-001
    outer loop
      vertex  0.000000e+000 -1.149067e+000  9.641814e-001
      vertex  3.000000e+000 -1.409539e+000  5.130302e-001
      vertex  0.000000e+000 -1.409539e+000  5.130302e-001
    endloop
  endfacet
  facet normal  0.000000e+000  9.848078e-001 -1.736481e-001
    outer loop
      vertex  0.000000e+000 -1.409539e+000  5.130302e-001
      vertex  3.000000e+000 -1.409539e+000  5.130302e-001
      vertex  3.000000e+000 -1.500000e+000  1.836970e-016
    endloop
  endfacet
  facet normal  0.000000e+000  9.848078e-001 -1.736481e-001
    outer loop
      vertex  0.000000e+000 -1.409539e+000  5.130302e-001
      vertex  3.000000e+000 -1.500000e+000  1.836970e-016
      vertex  0.000000e+000 -1.500000e+000  1.836970e-016
    endloop
  endfacet
  facet normal  0.000000e+000  3.420202e-001 -9.396927e-001
    outer loop
      vertex  3.000000e+000 -7.500000e-001  1.299038e+000
      vertex  0.000000e+000 -2.604723e-001  1.477212e+000
      vertex  3.000000e+000 -2.604723e-001  1.477212e+000
    endloop
  endfacet
  facet normal  0.000000e+000  0.000000e+000 -1.000000e+000
    outer loop
      vertex  3.000000e+000 -2.604723e-001  1.477212e+000
      vertex  0.000000e+000 -2.604723e-001  1.477212e+000
      vertex  0.000000e+000  2.604723e-001  1.477212e+000
    endloop
  endfacet
  facet normal  0.000000e+000  0.000000e+000 -1.000000e+000
    outer loop
      vertex  3.000000e+000 -2.604723e-001  1.477212e+000
      vertex  0.000000e+000  2.604723e-001  1.477212e+000
      vertex  3.000000e+000  2.604723e-001  1.477212e+000
    endloop
  endfacet
  facet normal  -0.000000e+000 -3.420202e-001 -9.396927e-001
    outer loop
      vertex  3.000000e+000  2.604723e-001  1.477212e+000
      vertex  0.000000e+000  2.604723e-001  1.477212e+000
      vertex  0.000000e+000  7.500000e-001  1.299038e+000
    endloop
  endfacet
  facet normal  0.000000e+000 -3.420202e-001 -9.396927e-001
    outer loop
      vertex  3.000000e+000  2.604723e-001  1.477212e+000
      vertex  0.000000e+000  7.500000e-001  1.299038e+000
      vertex  3.000000e+000  7.500000e-001  1.299038e+000
    endloop
  endfacet
  facet normal  -0.000000e+000 -6.427875e-001 -7.660446e-001
    outer loop
      vertex  3.000000e+000  7.500000e-001  1.299038e+000
      vertex  0.000000e+000  7.500000e-001  1.299038e+000
      vertex  0.000000e+000  1.149067e+000  9.641814e-001
    endloop
  endfacet
  facet normal  0.000000e+000 -6.427875e-001 -7.660446e-001
    outer loop
      vertex  3.000000e+000  7.500000e-001  1.299038e+000
      vertex  0.000000e+000  1.149067e+000  9.641814e-001
      vertex  3.000000e+000  1.149067e+000  9.641814e-001
    endloop
  endfacet
  facet normal  -0.000000e+000 -8.660254e-001 -5.000001e-001
    outer loop
      vertex  3.000000e+000  1.149067e+000  9.641814e-001
      vertex  0.000000e+000  1.149067e+000  9.641814e-001
      vertex  0.000000e+000  1.409539e+000  5.130302e-001
    endloop
  endfacet
  facet normal  0.000000e+000 -8.660254e-001 -5.000001e-001
    outer loop
      vertex  3.000000e+000  1.149067e+000  9.641814e-001
      vertex  0.000000e+000  1.409539e+000  5.130302e-001
      vertex  3.000000e+000  1.409539e+000  5.130302e-001
    endloop
  endfacet
  facet normal  -0.000000e+000 -9.848078e-001 -1.736481e-001
    outer loop
      vertex  3.000000e+000  1.409539e+000  5.130302e-001
      vertex  0.000000e+000  1.409539e+000  5.130302e-001
      vertex  0.000000e+000  1.500000e+000  0.000000e+000
    endloop
  endfacet
  facet normal  0.000000e+000 -9.848078e-001 -1.736481e-001
    outer loop
      vertex  3.000000e+000  1.409539e+000  5.130302e-001
      vertex  0.000000e+000  1.500000e+000  0.000000e+000
      vertex  3.000000e+000  1.500000e+000  0.000000e+000
    endloop
  endfacet
  facet normal  0.000000e+000  9.961947e-001 -8.715568e-002
    outer loop
      vertex  0.000000e+000  7.000000e+000  0.000000e+000
      vertex  3.000000e+000  7.000000e+000  0.000000e+000
      vertex  0.000000e+000  6.893654e+000 -1.215537e+000
    endloop
  endfacet
  facet normal  0.000000e+000  9.961947e-001 -8.715568e-002
    outer loop
      vertex  0.000000e+000  6.893654e+000 -1.215537e+000
      vertex  3.000000e+000  7.000000e+000  0.000000e+000
      vertex  3.000000e+000  6.893654e+000 -1.215537e+000
    endloop
  endfacet
  facet normal  0.000000e+000  9.659259e-001 -2.588190e-001
    outer loop
      vertex  0.000000e+000  6.893654e+000 -1.215537e+000
      vertex  3.000000e+000  6.893654e+000 -1.215537e+000
      vertex  0.000000e+000  6.577848e+000 -2.394141e+000
    endloop
  endfacet
  facet normal  0.000000e+000  9.659259e-001 -2.588190e-001
    outer loop
      vertex  0.000000e+000  6.577848e+000 -2.394141e+000
      vertex  3.000000e+000  6.893654e+000 -1.215537e+000
      vertex  3.000000e+000  6.577848e+000 -2.394141e+000
    endloop
  endfacet
  facet normal  0.000000e+000  9.063077e-001 -4.226184e-001
    outer loop
      vertex  0.000000e+000  6.577848e+000 -2.394141e+000
      vertex  3.000000e+000  6.577848e+000 -2.394141e+000
      vertex  0.000000e+000  6.062178e+000 -3.500000e+000
    endloop
  endfacet
  facet normal  0.000000e+000  9.063077e-001 -4.226184e-001
    outer loop
      vertex  0.000000e+000  6.062178e+000 -3.500000e+000
      vertex  3.000000e+000  6.577848e+000 -2.394141e+000
      vertex  3.000000e+000  6.062178e+000 -3.500000e+000
    endloop
  endfacet
  facet normal  0.000000e+000  8.191520e-001 -5.735765e-001
    outer loop
      vertex  0.000000e+000  6.062178e+000 -3.500000e+000
      vertex  3.000000e+000  6.062178e+000 -3.500000e+000
      vertex  0.000000e+000  5.362311e+000 -4.499513e+000
    endloop
  endfacet
  facet normal  0.000000e+000  8.191520e-001 -5.735765e-001
    outer loop
      vertex  0.000000e+000  5.362311e+000 -4.499513e+000
      vertex  3.000000e+000  6.062178e+000 -3.500000e+000
      vertex  3.000000e+000  5.362311e+000 -4.499513e+000
    endloop
  endfacet
  facet normal  0.000000e+000  7.071068e-001 -7.071068e-001
    outer loop
      vertex  0.000000e+000  5.362311e+000 -4.499513e+000
      vertex  3.000000e+000  5.362311e+000 -4.499513e+000
      vertex  0.000000e+000  4.499513e+000 -5.362311e+000
    endloop
  endfacet
  facet normal  0.000000e+000  7.071068e-001 -7.071068e-001
    outer loop
      vertex  0.000000e+000  4.499513e+000 -5.362311e+000
      vertex  3.000000e+000  5.362311e+000 -4.499513e+000
      vertex  3.000000e+000  4.499513e+000 -5.362311e+000
    endloop
  endfacet
  facet normal  0.000000e+000  5.735765e-001 -8.191520e-001
    outer loop
      vertex  0.000000e+000  4.499513e+000 -5.362311e+000
      vertex  3.000000e+000  4.499513e+000 -5.362311e+000
      vertex  0.000000e+000  3.500000e+000 -6.062178e+000
    endloop
  endfacet
  facet normal  0.000000e+000  5.735765e-001 -8.191520e-001
    outer loop
      vertex  0.000000e+000  3.500000e+000 -6.062178e+000
      vertex  3.000000e+000  4.499513e+000 -5.362311e+000
      vertex  3.000000e+000  3.500000e+000 -6.062178e+000
    endloop
  endfacet
  facet normal  0.000000e+000  4.226184e-001 -9.063077e-001
    outer loop
      vertex  0.000000e+000  3.500000e+000 -6.062178e+000
      vertex  3.000000e+000  3.500000e+000 -6.062178e+000
      vertex  0.000000e+000  2.394141e+000 -6.577848e+000
    endloop
  endfacet
  facet normal  0.000000e+000  4.226184e-001 -9.063077e-001
    outer loop
      vertex  0.000000e+000  2.394141e+000 -6.577848e+000
      vertex  3.000000e+000  3.500000e+000 -6.062178e+000
      vertex  3.000000e+000  2.394141e+000 -6.577848e+000
    endloop
  endfacet
  facet normal  0.000000e+000  2.588190e-001 -9.659259e-001
    outer loop
      vertex  0.000000e+000  2.394141e+000 -6.577848e+000
      vertex  3.000000e+000  2.394141e+000 -6.577848e+000
      vertex  0.000000e+000  1.215537e+000 -6.893654e+000
    endloop
  endfacet
  facet normal  0.000000e+000  2.588190e-001 -9.659259e-001
    outer loop
      vertex  0.000000e+000  1.215537e+000 -6.893654e+000
      vertex  3.000000e+000  2.394141e+000 -6.577848e+000
      vertex  3.000000e+000  1.215537e+000 -6.893654e+000
    endloop
  endfacet
  facet normal  0.000000e+000  8.715568e-002 -9.961947e-001
    outer loop
      vertex  0.000000e+000  1.215537e+000 -6.893654e+000
      vertex  3.000000e+000  1.215537e+000 -6.893654e+000
      vertex  0.000000e+000 -1.285879e-015 -7.000000e+000
    endloop
  endfacet
  facet normal  0.000000e+000  8.715568e-002 -9.961947e-001
    outer loop
      vertex  0.000000e+000 -1.285879e-015 -7.000000e+000
      vertex  3.000000e+000  1.215537e+000 -6.893654e+000
      vertex  3.000000e+000 -1.285879e-015 -7.000000e+000
    endloop
  endfacet
  facet normal  -0.000000e+000 -8.715568e-002 -9.961947e-001
    outer loop
      vertex  0.000000e+000 -1.285879e-015 -7.000000e+000
      vertex  3.000000e+000 -1.285879e-015 -7.000000e+000
      vertex  0.000000e+000 -1.215537e+000 -6.893654e+000
    endloop
  endfacet
  facet normal  0.000000e+000 -8.715568e-002 -9.961947e-001
    outer loop
      vertex  0.000000e+000 -1.215537e+000 -6.893654e+000
      vertex  3.000000e+000 -1.285879e-015 -7.000000e+000
      vertex  3.000000e+000 -1.215537e+000 -6.893654e+000
    endloop
  endfacet
  facet normal  -0.000000e+000 -2.588190e-001 -9.659259e-001
    outer loop
      vertex  0.000000e+000 -1.215537e+000 -6.893654e+000
      vertex  3.000000e+000 -1.215537e+000 -6.893654e+000
      vertex  0.000000e+000 -2.394141e+000 -6.577848e+000
    endloop
  endfacet
  facet normal  0.000000e+000 -2.588190e-001 -9.659259e-001
    outer loop
      vertex  0.000000e+000 -2.394141e+000 -6.577848e+000
      vertex  3.000000e+000 -1.215537e+000 -6.893654e+000
      vertex  3.000000e+000 -2.394141e+000 -6.577848e+000
    endloop
  endfacet
  facet normal  -0.000000e+000 -4.226184e-001 -9.063077e-001
    outer loop
      vertex  0.000000e+000 -2.394141e+000 -6.577848e+000
      vertex  3.000000e+000 -2.394141e+000 -6.577848e+000
      vertex  0.000000e+000 -3.500000e+000 -6.062178e+000
    endloop
  endfacet
  facet normal  0.000000e+000 -4.226184e-001 -9.063077e-001
    outer loop
      vertex  0.000000e+000 -3.500000e+000 -6.062178e+000
      vertex  3.000000e+000 -2.394141e+000 -6.577848e+000
      vertex  3.000000e+000 -3.500000e+000 -6.062178e+000
    endloop
  endfacet
  facet normal  -0.000000e+000 -5.735765e-001 -8.191520e-001
    outer loop
      vertex  0.000000e+000 -3.500000e+000 -6.062178e+000
      vertex  3.000000e+000 -3.500000e+000 -6.062178e+000
      vertex  0.000000e+000 -4.499513e+000 -5.362311e+000
    endloop
  endfacet
  facet normal  0.000000e+000 -5.735765e-001 -8.191520e-001
    outer loop
      vertex  0.000000e+000 -4.499513e+000 -5.362311e+000
      vertex  3.000000e+000 -3.500000e+000 -6.062178e+000
      vertex  3.000000e+000 -4.499513e+000 -5.362311e+000
    endloop
  endfacet
  facet normal  -0.000000e+000 -7.071068e-001 -7.071068e-001
    outer loop
      vertex  0.000000e+000 -4.499513e+000 -5.362311e+000
      vertex  3.000000e+000 -4.499513e+000 -5.362311e+000
      vertex  0.000000e+000 -5.362311e+000 -4.499513e+000
    endloop
  endfacet
  facet normal  0.000000e+000 -7.071068e-001 -7.071068e-001
    outer loop
      vertex  0.000000e+000 -5.362311e+000 -4.499513e+000
      vertex  3.000000e+000 -4.499513e+000 -5.362311e+000
      vertex  3.000000e+000 -5.362311e+000 -4.499513e+000
    endloop
  endfacet
  facet normal  -0.000000e+000 -8.191520e-001 -5.735765e-001
    outer loop
      vertex  0.000000e+000 -5.362311e+000 -4.499513e+000
      vertex  3.000000e+000 -5.362311e+000 -4.499513e+000
      vertex  0.000000e+000 -6.062178e+000 -3.500000e+000
    endloop
  endfacet
  facet normal  0.000000e+000 -8.191520e-001 -5.735765e-001
    outer loop
      vertex  0.000000e+000 -6.062178e+000 -3.500000e+000
      vertex  3.000000e+000 -5.362311e+000 -4.499513e+000
      vertex  3.000000e+000 -6.062178e+000 -3.500000e+000
    endloop
  endfacet
  facet normal  -0.000000e+000 -9.063077e-001 -4.226184e-001
    outer loop
      vertex  0.000000e+000 -6.062178e+000 -3.500000e+000
      vertex  3.000000e+000 -6.062178e+000 -3.500000e+000
      vertex  0.000000e+000 -6.577848e+000 -2.394141e+000
    endloop
  endfacet
  facet normal  0.000000e+000 -9.063077e-001 -4.226184e-001
    outer loop
      vertex  0.000000e+000 -6.577848e+000 -2.394141e+000
      vertex  3.000000e+000 -6.062178e+000 -3.500000e+000
      vertex  3.000000e+000 -6.577848e+000 -2.394141e+000
    endloop
  endfacet
  facet normal  -0.000000e+000 -9.659259e-001 -2.588190e-001
    outer loop
      vertex  0.000000e+000 -6.577848e+000 -2.394141e+000
      vertex  3.000000e+000 -6.577848e+000 -2.394141e+000
      vertex  0.000000e+000 -6.893654e+000 -1.215537e+000
    endloop
  endfacet
  facet normal  0.000000e+000 -9.659259e-001 -2.588190e-001
    outer loop
      vertex  0.000000e+000 -6.893654e+000 -1.215537e+000
      vertex  3.000000e+000 -6.577848e+000 -2.394141e+000
      vertex  3.000000e+000 -6.893654e+000 -1.215537e+000
    endloop
  endfacet
  facet normal  -0.000000e+000 -9.961947e-001 -8.715568e-002
    outer loop
      vertex  0.000000e+000 -6.893654e+000 -1.215537e+000
      vertex  3.000000e+000 -6.893654e+000 -1.215537e+000
      vertex  0.000000e+000 -7.000000e+000  8.572528e-016
    endloop
  endfacet
  facet normal  0.000000e+000 -9.961947e-001 -8.715568e-002
    outer loop
      vertex  0.000000e+000 -7.000000e+000  8.572528e-016
      vertex  3.000000e+000 -6.893654e+000 -1.215537e+000
      vertex  3.000000e+000 -7.000000e+000  8.572528e-016
    endloop
  endfacet
  facet normal  0.000000e+000 -9.961947e-001  8.715568e-002
    outer loop
      vertex  0.000000e+000 -7.000000e+000  8.572528e-016
      vertex  3.000000e+000 -7.000000e+000  8.572528e-016
      vertex  0.000000e+000 -6.893654e+000  1.215537e+000
    endloop
  endfacet
  facet normal  0.000000e+000 -9.961947e-001  8.715568e-002
    outer loop
      vertex  0.000000e+000 -6.893654e+000  1.215537e+000
      vertex  3.000000e+000 -7.000000e+000  8.572528e-016
      vertex  3.000000e+000 -6.893654e+000  1.215537e+000
    endloop
  endfacet
  facet normal  0.000000e+000 -9.659259e-001  2.588190e-001
    outer loop
      vertex  0.000000e+000 -6.893654e+000  1.215537e+000
      vertex  3.000000e+000 -6.893654e+000  1.215537e+000
      vertex  0.000000e+000 -6.577848e+000  2.394141e+000
    endloop
  endfacet
  facet normal  0.000000e+000 -9.659259e-001  2.588190e-001
    outer loop
      vertex  0.000000e+000 -6.577848e+000  2.394141e+000
      vertex  3.000000e+000 -6.893654e+000  1.215537e+000
      vertex  3.000000e+000 -6.577848e+000  2.394141e+000
    endloop
  endfacet
  facet normal  0.000000e+000 -9.063077e-001  4.226184e-001
    outer loop
      vertex  0.000000e+000 -6.577848e+000  2.394141e+000
      vertex  3.000000e+000 -6.577848e+000  2.394141e+000
      vertex  0.000000e+000 -6.062178e+000  3.500000e+000
    endloop
  endfacet
  facet normal  0.000000e+000 -9.063077e-001  4.226184e-001
    outer loop
      vertex  0.000000e+000 -6.062178e+000  3.500000e+000
      vertex  3.000000e+000 -6.577848e+000  2.394141e+000
      vertex  3.000000e+000 -6.062178e+000  3.500000e+000
    endloop
  endfacet
  facet normal  0.000000e+000 -8.191520e-001  5.735765e-001
    outer loop
      vertex  0.000000e+000 -6.062178e+000  3.500000e+000
      vertex  3.000000e+000 -6.062178e+000  3.500000e+000
      vertex  0.000000e+000 -5.362311e+000  4.499513e+000
    endloop
  endfacet
  facet normal  0.000000e+000 -8.191520e-001  5.735765e-001
    outer loop
      vertex  0.000000e+000 -5.362311e+000  4.499513e+000
      vertex  3.000000e+000 -6.062178e+000  3.500000e+000
      vertex  3.000000e+000 -5.362311e+000  4.499513e+000
    endloop
  endfacet
  facet normal  0.000000e+000 -7.071068e-001  7.071068e-001
    outer loop
      vertex  0.000000e+000 -5.362311e+000  4.499513e+000
      vertex  3.000000e+000 -5.362311e+000  4.499513e+000
      vertex  0.000000e+000 -4.499513e+000  5.362311e+000
    endloop
  endfacet
  facet normal  0.000000e+000 -7.071068e-001  7.071068e-001
    outer loop
      vertex  0.000000e+000 -4.499513e+000  5.362311e+000
      vertex  3.000000e+000 -5.362311e+000  4.499513e+000
      vertex  3.000000e+000 -4.499513e+000  5.362311e+000
    endloop
  endfacet
  facet normal  0.000000e+000 -5.735765e-001  8.191520e-001
    outer loop
      vertex  0.000000e+000 -4.499513e+000  5.362311e+000
      vertex  3.000000e+000 -4.499513e+000  5.362311e+000
      vertex  0.000000e+000 -3.500000e+000  6.062178e+000
    endloop
  endfacet
  facet normal  0.000000e+000 -5.735765e-001  8.191520e-001
    outer loop
      vertex  0.000000e+000 -3.500000e+000  6.062178e+000
      vertex  3.000000e+000 -4.499513e+000  5.362311e+000
      vertex  3.000000e+000 -3.500000e+000  6.062178e+000
    endloop
  endfacet
  facet normal  0.000000e+000 -4.226184e-001  9.063077e-001
    outer loop
      vertex  0.000000e+000 -3.500000e+000  6.062178e+000
      vertex  3.000000e+000 -3.500000e+000  6.062178e+000
      vertex  0.000000e+000 -2.394141e+000  6.577848e+000
    endloop
  endfacet
  facet normal  0.000000e+000 -4.226184e-001  9.063077e-001
    outer loop
      vertex  0.000000e+000 -2.394141e+000  6.577848e+000
      vertex  3.000000e+000 -3.500000e+000  6.062178e+000
      vertex  3.000000e+000 -2.394141e+000  6.577848e+000
    endloop
  endfacet
  facet normal  0.000000e+000 -2.588190e-001  9.659259e-001
    outer loop
      vertex  0.000000e+000 -2.394141e+000  6.577848e+000
      vertex  3.000000e+000 -2.394141e+000  6.577848e+000
      vertex  0.000000e+000 -1.215537e+000  6.893654e+000
    endloop
  endfacet
  facet normal  0.000000e+000 -2.588190e-001  9.659259e-001
    outer loop
      vertex  0.000000e+000 -1.215537e+000  6.893654e+000
      vertex  3.000000e+000 -2.394141e+000  6.577848e+000
      vertex  3.000000e+000 -1.215537e+000  6.893654e+000
    endloop
  endfacet
  facet normal  0.000000e+000 -8.715568e-002  9.961947e-001
    outer loop
      vertex  0.000000e+000 -1.215537e+000  6.893654e+000
      vertex  3.000000e+000 -1.215537e+000  6.893654e+000
      vertex  0.000000e+000  4.286264e-016  7.000000e+000
    endloop
  endfacet
  facet normal  0.000000e+000 -8.715568e-002  9.961947e-001
    outer loop
      vertex  0.000000e+000  4.286264e-016  7.000000e+000
      vertex  3.000000e+000 -1.215537e+000  6.893654e+000
      vertex  3.000000e+000  4.286264e-016  7.000000e+000
    endloop
  endfacet
  facet normal  0.000000e+000  8.715568e-002  9.961947e-001
    outer loop
      vertex  0.000000e+000  4.286264e-016  7.000000e+000
      vertex  3.000000e+000  4.286264e-016  7.000000e+000
      vertex  0.000000e+000  1.215537e+000  6.893654e+000
    endloop
  endfacet
  facet normal  -0.000000e+000  8.715568e-002  9.961947e-001
    outer loop
      vertex  0.000000e+000  1.215537e+000  6.893654e+000
      vertex  3.000000e+000  4.286264e-016  7.000000e+000
      vertex  3.000000e+000  1.215537e+000  6.893654e+000
    endloop
  endfacet
  facet normal  0.000000e+000  2.588190e-001  9.659259e-001
    outer loop
      vertex  0.000000e+000  1.215537e+000  6.893654e+000
      vertex  3.000000e+000  1.215537e+000  6.893654e+000
      vertex  0.000000e+000  2.394141e+000  6.577848e+000
    endloop
  endfacet
  facet normal  -0.000000e+000  2.588190e-001  9.659259e-001
    outer loop
      vertex  0.000000e+000  2.394141e+000  6.577848e+000
      vertex  3.000000e+000  1.215537e+000  6.893654e+000
      vertex  3.000000e+000  2.394141e+000  6.577848e+000
    endloop
  endfacet
  facet normal  0.000000e+000  4.226184e-001  9.063077e-001
    outer loop
      vertex  0.000000e+000  2.394141e+000  6.577848e+000
      vertex  3.000000e+000  2.394141e+000  6.577848e+000
      vertex  0.000000e+000  3.500000e+000  6.062178e+000
    endloop
  endfacet
  facet normal  -0.000000e+000  4.226184e-001  9.063077e-001
    outer loop
      vertex  0.000000e+000  3.500000e+000  6.062178e+000
      vertex  3.000000e+000  2.394141e+000  6.577848e+000
      vertex  3.000000e+000  3.500000e+000  6.062178e+000
    endloop
  endfacet
  facet normal  0.000000e+000  5.735765e-001  8.191520e-001
    outer loop
      vertex  0.000000e+000  3.500000e+000  6.062178e+000
      vertex  3.000000e+000  3.500000e+000  6.062178e+000
      vertex  0.000000e+000  4.499513e+000  5.362311e+000
    endloop
  endfacet
  facet normal  -0.000000e+000  5.735765e-001  8.191520e-001
    outer loop
      vertex  0.000000e+000  4.499513e+000  5.362311e+000
      vertex  3.000000e+000  3.500000e+000  6.062178e+000
      vertex  3.000000e+000  4.499513e+000  5.362311e+000
    endloop
  endfacet
  facet normal  0.000000e+000  7.071068e-001  7.071068e-001
    outer loop
      vertex  0.000000e+000  4.499513e+000  5.362311e+000
      vertex  3.000000e+000  4.499513e+000  5.362311e+000
      vertex  0.000000e+000  5.362311e+000  4.499513e+000
    endloop
  endfacet
  facet normal  -0.000000e+000  7.071068e-001  7.071068e-001
    outer loop
      vertex  0.000000e+000  5.362311e+000  4.499513e+000
      vertex  3.000000e+000  4.499513e+000  5.362311e+000
      vertex  3.000000e+000  5.362311e+000  4.499513e+000
    endloop
  endfacet
  facet normal  0.000000e+000  8.191520e-001  5.735765e-001
    outer loop
      vertex  0.000000e+000  5.362311e+000  4.499513e+000
      vertex  3.000000e+000  5.362311e+000  4.499513e+000
      vertex  0.000000e+000  6.062178e+000  3.500000e+000
    endloop
  endfacet
  facet normal  -0.000000e+000  8.191520e-001  5.735765e-001
    outer loop
      vertex  0.000000e+000  6.062178e+000  3.500000e+000
      vertex  3.000000e+000  5.362311e+000  4.499513e+000
      vertex  3.000000e+000  6.062178e+000  3.500000e+000
    endloop
  endfacet
  facet normal  0.000000e+000  9.063077e-001  4.226184e-001
    outer loop
      vertex  0.000000e+000  6.062178e+000  3.500000e+000
      vertex  3.000000e+000  6.062178e+000  3.500000e+000
      vertex  0.000000e+000  6.577848e+000  2.394141e+000
    endloop
  endfacet
  facet normal  -0.000000e+000  9.063077e-001  4.226184e-001
    outer loop
      vertex  0.000000e+000  6.577848e+000  2.394141e+000
      vertex  3.000000e+000  6.062178e+000  3.500000e+000
      vertex  3.000000e+000  6.577848e+000  2.394141e+000
    endloop
  endfacet
  facet normal  0.000000e+000  9.659259e-001  2.588190e-001
    outer loop
      vertex  0.000000e+000  6.577848e+000  2.394141e+000
      vertex  3.000000e+000  6.577848e+000  2.394141e+000
      vertex  0.000000e+000  6.893654e+000  1.215537e+000
    endloop
  endfacet
  facet normal  -0.000000e+000  9.659259e-001  2.588190e-001
    outer loop
      vertex  0.000000e+000  6.893654e+000  1.215537e+000
      vertex  3.000000e+000  6.577848e+000  2.394141e+000
      vertex  3.000000e+000  6.893654e+000  1.215537e+000
    endloop
  endfacet
  facet normal  0.000000e+000  9.961947e-001  8.715568e-002
    outer loop
      vertex  0.000000e+000  6.893654e+000  1.215537e+000
      vertex  3.000000e+000  6.893654e+000  1.215537e+000
      vertex  0.000000e+000  7.000000e+000  0.000000e+000
    endloop
  endfacet
  facet normal  -0.000000e+000  9.961947e-001  8.715568e-002
    outer loop
      vertex  0.000000e+000  7.000000e+000  0.000000e+000
      vertex  3.000000e+000  6.893654e+000  1.215537e+000
      vertex  3.000000e+000  7.000000e+000  0.000000e+000
    endloop
  endfacet
endsolid CATIA STL
