solid CATIA STL
  facet normal  0.000000e+000 -1.000000e+000  0.000000e+000
    outer loop
      vertex -4.000000e+001 -1.250000e+001  0.000000e+000
      vertex  4.000000e+001 -1.250000e+001  0.000000e+000
      vertex  4.000000e+001 -1.250000e+001  4.000000e+000
    endloop
  endfacet
  facet normal  -0.000000e+000 -1.000000e+000  0.000000e+000
    outer loop
      vertex -4.000000e+001 -1.250000e+001  0.000000e+000
      vertex  4.000000e+001 -1.250000e+001  4.000000e+000
      vertex  3.000000e+001 -1.250000e+001  4.000000e+000
    endloop
  endfacet
  facet normal  -0.000000e+000 -1.000000e+000  0.000000e+000
    outer loop
      vertex -4.000000e+001 -1.250000e+001  0.000000e+000
      vertex  3.000000e+001 -1.250000e+001  4.000000e+000
      vertex  1.000000e+001 -1.250000e+001  4.000000e+000
    endloop
  endfacet
  facet normal  -0.000000e+000 -1.000000e+000  0.000000e+000
    outer loop
      vertex -4.000000e+001 -1.250000e+001  0.000000e+000
      vertex  1.000000e+001 -1.250000e+001  4.000000e+000
      vertex -1.000000e+001 -1.250000e+001  4.000000e+000
    endloop
  endfacet
  facet normal  -0.000000e+000 -1.000000e+000  0.000000e+000
    outer loop
      vertex -4.000000e+001 -1.250000e+001  0.000000e+000
      vertex -1.000000e+001 -1.250000e+001  4.000000e+000
      vertex -3.000000e+001 -1.250000e+001  4.000000e+000
    endloop
  endfacet
  facet normal  -0.000000e+000 -1.000000e+000  0.000000e+000
    outer loop
      vertex -4.000000e+001 -1.250000e+001  0.000000e+000
      vertex -3.000000e+001 -1.250000e+001  4.000000e+000
      vertex -4.000000e+001 -1.250000e+001  4.000000e+000
    endloop
  endfacet
  facet normal  0.000000e+000 -1.000000e+000  0.000000e+000
    outer loop
      vertex  1.000000e+001 -1.250000e+001  2.058312e+001
      vertex  1.000000e+001 -1.250000e+001  4.000000e+000
      vertex  3.000000e+001 -1.250000e+001  2.058312e+001
    endloop
  endfacet
  facet normal  0.000000e+000 -1.000000e+000  -0.000000e+000
    outer loop
      vertex  3.000000e+001 -1.250000e+001  2.058312e+001
      vertex  1.000000e+001 -1.250000e+001  4.000000e+000
      vertex  3.000000e+001 -1.250000e+001  4.000000e+000
    endloop
  endfacet
  facet normal  0.000000e+000 -1.000000e+000  0.000000e+000
    outer loop
      vertex -3.000000e+001 -1.250000e+001  2.058312e+001
      vertex -3.000000e+001 -1.250000e+001  4.000000e+000
      vertex -1.000000e+001 -1.250000e+001  2.058312e+001
    endloop
  endfacet
  facet normal  0.000000e+000 -1.000000e+000  -0.000000e+000
    outer loop
      vertex -1.000000e+001 -1.250000e+001  2.058312e+001
      vertex -3.000000e+001 -1.250000e+001  4.000000e+000
      vertex -1.000000e+001 -1.250000e+001  4.000000e+000
    endloop
  endfacet
  facet normal  1.000000e+000  0.000000e+000  0.000000e+000
    outer loop
      vertex -1.000000e+001 -1.250000e+001  4.000000e+000
      vertex -1.000000e+001  1.250000e+001  4.000000e+000
      vertex -1.000000e+001 -1.250000e+001  2.058312e+001
    endloop
  endfacet
  facet normal -1.000000e+000  0.000000e+000  0.000000e+000
    outer loop
      vertex -3.000000e+001 -1.250000e+001  2.058312e+001
      vertex -3.000000e+001  1.250000e+001  4.000000e+000
      vertex -3.000000e+001 -1.250000e+001  4.000000e+000
    endloop
  endfacet
  facet normal  0.000000e+000  5.527708e-001  8.333334e-001
    outer loop
      vertex -3.000000e+001 -1.250000e+001  2.058312e+001
      vertex -1.000000e+001 -1.250000e+001  2.058312e+001
      vertex -3.000000e+001  1.250000e+001  4.000000e+000
    endloop
  endfacet
  facet normal  -0.000000e+000  5.527708e-001  8.333334e-001
    outer loop
      vertex -3.000000e+001  1.250000e+001  4.000000e+000
      vertex -1.000000e+001 -1.250000e+001  2.058312e+001
      vertex -1.000000e+001  1.250000e+001  4.000000e+000
    endloop
  endfacet
  facet normal  0.000000e+000  0.000000e+000  1.000000e+000
    outer loop
      vertex -1.000000e+001 -1.250000e+001  4.000000e+000
      vertex  1.000000e+001 -1.250000e+001  4.000000e+000
      vertex -1.000000e+001  1.250000e+001  4.000000e+000
    endloop
  endfacet
  facet normal  -0.000000e+000  0.000000e+000  1.000000e+000
    outer loop
      vertex -1.000000e+001  1.250000e+001  4.000000e+000
      vertex  1.000000e+001 -1.250000e+001  4.000000e+000
      vertex  1.000000e+001  1.250000e+001  4.000000e+000
    endloop
  endfacet
  facet normal  0.000000e+000  0.000000e+000  1.000000e+000
    outer loop
      vertex -3.425000e+001 -6.200962e+000  4.000000e+000
      vertex -3.385093e+001 -6.535819e+000  4.000000e+000
      vertex -3.473953e+001  6.022789e+000  4.000000e+000
    endloop
  endfacet
  facet normal  0.000000e+000  0.000000e+000  1.000000e+000
    outer loop
      vertex -3.526047e+001 -6.022789e+000  4.000000e+000
      vertex -3.526047e+001  6.022789e+000  4.000000e+000
      vertex -3.575000e+001 -6.200962e+000  4.000000e+000
    endloop
  endfacet
  facet normal  0.000000e+000  -0.000000e+000  1.000000e+000
    outer loop
      vertex -3.614907e+001 -6.535819e+000  4.000000e+000
      vertex -3.575000e+001 -6.200962e+000  4.000000e+000
      vertex -3.526047e+001  6.022789e+000  4.000000e+000
    endloop
  endfacet
  facet normal  0.000000e+000  0.000000e+000  1.000000e+000
    outer loop
      vertex -4.000000e+001  1.250000e+001  4.000000e+000
      vertex -4.000000e+001 -1.250000e+001  4.000000e+000
      vertex -3.650000e+001  7.500000e+000  4.000000e+000
    endloop
  endfacet
  facet normal  0.000000e+000  -0.000000e+000  1.000000e+000
    outer loop
      vertex -4.000000e+001  1.250000e+001  4.000000e+000
      vertex -3.650000e+001  7.500000e+000  4.000000e+000
      vertex -3.640954e+001  8.013030e+000  4.000000e+000
    endloop
  endfacet
  facet normal  0.000000e+000  -0.000000e+000  1.000000e+000
    outer loop
      vertex -4.000000e+001  1.250000e+001  4.000000e+000
      vertex -3.640954e+001  8.013030e+000  4.000000e+000
      vertex -3.614907e+001  8.464181e+000  4.000000e+000
    endloop
  endfacet
  facet normal  0.000000e+000  -0.000000e+000  9.999999e-001
    outer loop
      vertex -4.000000e+001  1.250000e+001  4.000000e+000
      vertex -3.614907e+001  8.464181e+000  4.000000e+000
      vertex -3.575000e+001  8.799038e+000  4.000000e+000
    endloop
  endfacet
  facet normal  0.000000e+000  -0.000000e+000  1.000000e+000
    outer loop
      vertex -4.000000e+001  1.250000e+001  4.000000e+000
      vertex -3.575000e+001  8.799038e+000  4.000000e+000
      vertex -3.526047e+001  8.977212e+000  4.000000e+000
    endloop
  endfacet
  facet normal  0.000000e+000  -0.000000e+000  1.000000e+000
    outer loop
      vertex -4.000000e+001  1.250000e+001  4.000000e+000
      vertex -3.526047e+001  8.977212e+000  4.000000e+000
      vertex -3.473953e+001  8.977212e+000  4.000000e+000
    endloop
  endfacet
  facet normal  0.000000e+000  -0.000000e+000  1.000000e+000
    outer loop
      vertex -4.000000e+001  1.250000e+001  4.000000e+000
      vertex -3.473953e+001  8.977212e+000  4.000000e+000
      vertex -3.000000e+001  1.250000e+001  4.000000e+000
    endloop
  endfacet
  facet normal  0.000000e+000  0.000000e+000  1.000000e+000
    outer loop
      vertex -4.000000e+001 -1.250000e+001  4.000000e+000
      vertex -3.000000e+001 -1.250000e+001  4.000000e+000
      vertex -3.473953e+001 -8.977212e+000  4.000000e+000
    endloop
  endfacet
  facet normal  0.000000e+000  0.000000e+000  1.000000e+000
    outer loop
      vertex -4.000000e+001 -1.250000e+001  4.000000e+000
      vertex -3.473953e+001 -8.977212e+000  4.000000e+000
      vertex -3.526047e+001 -8.977212e+000  4.000000e+000
    endloop
  endfacet
  facet normal  0.000000e+000  0.000000e+000  1.000000e+000
    outer loop
      vertex -4.000000e+001 -1.250000e+001  4.000000e+000
      vertex -3.526047e+001 -8.977212e+000  4.000000e+000
      vertex -3.575000e+001 -8.799038e+000  4.000000e+000
    endloop
  endfacet
  facet normal  0.000000e+000  0.000000e+000  9.999999e-001
    outer loop
      vertex -4.000000e+001 -1.250000e+001  4.000000e+000
      vertex -3.575000e+001 -8.799038e+000  4.000000e+000
      vertex -3.614907e+001 -8.464181e+000  4.000000e+000
    endloop
  endfacet
  facet normal  0.000000e+000  0.000000e+000  1.000000e+000
    outer loop
      vertex -4.000000e+001 -1.250000e+001  4.000000e+000
      vertex -3.614907e+001 -8.464181e+000  4.000000e+000
      vertex -3.640954e+001 -8.013030e+000  4.000000e+000
    endloop
  endfacet
  facet normal  0.000000e+000  0.000000e+000  1.000000e+000
    outer loop
      vertex -4.000000e+001 -1.250000e+001  4.000000e+000
      vertex -3.640954e+001 -8.013030e+000  4.000000e+000
      vertex -3.650000e+001 -7.500000e+000  4.000000e+000
    endloop
  endfacet
  facet normal  0.000000e+000  -0.000000e+000  1.000000e+000
    outer loop
      vertex -4.000000e+001 -1.250000e+001  4.000000e+000
      vertex -3.650000e+001 -7.500000e+000  4.000000e+000
      vertex -3.640954e+001 -6.986970e+000  4.000000e+000
    endloop
  endfacet
  facet normal  0.000000e+000  -0.000000e+000  1.000000e+000
    outer loop
      vertex -4.000000e+001 -1.250000e+001  4.000000e+000
      vertex -3.640954e+001 -6.986970e+000  4.000000e+000
      vertex -3.614907e+001 -6.535819e+000  4.000000e+000
    endloop
  endfacet
  facet normal  0.000000e+000  -0.000000e+000  1.000000e+000
    outer loop
      vertex -4.000000e+001 -1.250000e+001  4.000000e+000
      vertex -3.614907e+001 -6.535819e+000  4.000000e+000
      vertex -3.526047e+001  6.022789e+000  4.000000e+000
    endloop
  endfacet
  facet normal  0.000000e+000  0.000000e+000  1.000000e+000
    outer loop
      vertex -4.000000e+001 -1.250000e+001  4.000000e+000
      vertex -3.526047e+001  6.022789e+000  4.000000e+000
      vertex -3.575000e+001  6.200962e+000  4.000000e+000
    endloop
  endfacet
  facet normal  0.000000e+000  0.000000e+000  1.000000e+000
    outer loop
      vertex -4.000000e+001 -1.250000e+001  4.000000e+000
      vertex -3.575000e+001  6.200962e+000  4.000000e+000
      vertex -3.614907e+001  6.535819e+000  4.000000e+000
    endloop
  endfacet
  facet normal  0.000000e+000  0.000000e+000  1.000000e+000
    outer loop
      vertex -4.000000e+001 -1.250000e+001  4.000000e+000
      vertex -3.614907e+001  6.535819e+000  4.000000e+000
      vertex -3.640954e+001  6.986970e+000  4.000000e+000
    endloop
  endfacet
  facet normal  0.000000e+000  0.000000e+000  1.000000e+000
    outer loop
      vertex -4.000000e+001 -1.250000e+001  4.000000e+000
      vertex -3.640954e+001  6.986970e+000  4.000000e+000
      vertex -3.650000e+001  7.500000e+000  4.000000e+000
    endloop
  endfacet
  facet normal  0.000000e+000  0.000000e+000  1.000000e+000
    outer loop
      vertex -3.000000e+001 -1.250000e+001  4.000000e+000
      vertex -3.350000e+001  7.500000e+000  4.000000e+000
      vertex -3.359046e+001  6.986970e+000  4.000000e+000
    endloop
  endfacet
  facet normal  0.000000e+000  0.000000e+000  1.000000e+000
    outer loop
      vertex -3.000000e+001 -1.250000e+001  4.000000e+000
      vertex -3.359046e+001  6.986970e+000  4.000000e+000
      vertex -3.385093e+001  6.535819e+000  4.000000e+000
    endloop
  endfacet
  facet normal  0.000000e+000  0.000000e+000  1.000000e+000
    outer loop
      vertex -3.000000e+001 -1.250000e+001  4.000000e+000
      vertex -3.385093e+001  6.535819e+000  4.000000e+000
      vertex -3.425000e+001  6.200962e+000  4.000000e+000
    endloop
  endfacet
  facet normal  0.000000e+000  0.000000e+000  1.000000e+000
    outer loop
      vertex -3.000000e+001 -1.250000e+001  4.000000e+000
      vertex -3.425000e+001  6.200962e+000  4.000000e+000
      vertex -3.473953e+001  6.022789e+000  4.000000e+000
    endloop
  endfacet
  facet normal  0.000000e+000  0.000000e+000  1.000000e+000
    outer loop
      vertex -3.000000e+001 -1.250000e+001  4.000000e+000
      vertex -3.473953e+001  6.022789e+000  4.000000e+000
      vertex -3.385093e+001 -6.535819e+000  4.000000e+000
    endloop
  endfacet
  facet normal  0.000000e+000  0.000000e+000  1.000000e+000
    outer loop
      vertex -3.000000e+001 -1.250000e+001  4.000000e+000
      vertex -3.385093e+001 -6.535819e+000  4.000000e+000
      vertex -3.359046e+001 -6.986970e+000  4.000000e+000
    endloop
  endfacet
  facet normal  0.000000e+000  0.000000e+000  1.000000e+000
    outer loop
      vertex -3.000000e+001 -1.250000e+001  4.000000e+000
      vertex -3.359046e+001 -6.986970e+000  4.000000e+000
      vertex -3.350000e+001 -7.500000e+000  4.000000e+000
    endloop
  endfacet
  facet normal  0.000000e+000  0.000000e+000  1.000000e+000
    outer loop
      vertex -3.000000e+001 -1.250000e+001  4.000000e+000
      vertex -3.350000e+001 -7.500000e+000  4.000000e+000
      vertex -3.359046e+001 -8.013030e+000  4.000000e+000
    endloop
  endfacet
  facet normal  0.000000e+000  0.000000e+000  1.000000e+000
    outer loop
      vertex -3.000000e+001 -1.250000e+001  4.000000e+000
      vertex -3.359046e+001 -8.013030e+000  4.000000e+000
      vertex -3.385093e+001 -8.464181e+000  4.000000e+000
    endloop
  endfacet
  facet normal  0.000000e+000  0.000000e+000  9.999999e-001
    outer loop
      vertex -3.000000e+001 -1.250000e+001  4.000000e+000
      vertex -3.385093e+001 -8.464181e+000  4.000000e+000
      vertex -3.425000e+001 -8.799038e+000  4.000000e+000
    endloop
  endfacet
  facet normal  0.000000e+000  0.000000e+000  1.000000e+000
    outer loop
      vertex -3.000000e+001 -1.250000e+001  4.000000e+000
      vertex -3.425000e+001 -8.799038e+000  4.000000e+000
      vertex -3.473953e+001 -8.977212e+000  4.000000e+000
    endloop
  endfacet
  facet normal  -0.000000e+000  0.000000e+000  1.000000e+000
    outer loop
      vertex -3.000000e+001  1.250000e+001  4.000000e+000
      vertex -3.473953e+001  8.977212e+000  4.000000e+000
      vertex -3.425000e+001  8.799038e+000  4.000000e+000
    endloop
  endfacet
  facet normal  -0.000000e+000  0.000000e+000  9.999999e-001
    outer loop
      vertex -3.000000e+001  1.250000e+001  4.000000e+000
      vertex -3.425000e+001  8.799038e+000  4.000000e+000
      vertex -3.385093e+001  8.464181e+000  4.000000e+000
    endloop
  endfacet
  facet normal  -0.000000e+000  0.000000e+000  1.000000e+000
    outer loop
      vertex -3.000000e+001  1.250000e+001  4.000000e+000
      vertex -3.385093e+001  8.464181e+000  4.000000e+000
      vertex -3.359046e+001  8.013030e+000  4.000000e+000
    endloop
  endfacet
  facet normal  -0.000000e+000  0.000000e+000  1.000000e+000
    outer loop
      vertex -3.000000e+001  1.250000e+001  4.000000e+000
      vertex -3.359046e+001  8.013030e+000  4.000000e+000
      vertex -3.350000e+001  7.500000e+000  4.000000e+000
    endloop
  endfacet
  facet normal  -0.000000e+000  0.000000e+000  1.000000e+000
    outer loop
      vertex -3.000000e+001  1.250000e+001  4.000000e+000
      vertex -3.350000e+001  7.500000e+000  4.000000e+000
      vertex -3.000000e+001 -1.250000e+001  4.000000e+000
    endloop
  endfacet
  facet normal  0.000000e+000  0.000000e+000  1.000000e+000
    outer loop
      vertex -3.526047e+001  6.022789e+000  4.000000e+000
      vertex -3.526047e+001 -6.022789e+000  4.000000e+000
      vertex -3.473953e+001  6.022789e+000  4.000000e+000
    endloop
  endfacet
  facet normal  0.000000e+000  0.000000e+000  1.000000e+000
    outer loop
      vertex -3.473953e+001  6.022789e+000  4.000000e+000
      vertex -3.526047e+001 -6.022789e+000  4.000000e+000
      vertex -3.473953e+001 -6.022789e+000  4.000000e+000
    endloop
  endfacet
  facet normal  -0.000000e+000  0.000000e+000  1.000000e+000
    outer loop
      vertex -3.473953e+001  6.022789e+000  4.000000e+000
      vertex -3.473953e+001 -6.022789e+000  4.000000e+000
      vertex -3.425000e+001 -6.200962e+000  4.000000e+000
    endloop
  endfacet
  facet normal  -0.000000e+000  1.000000e+000  0.000000e+000
    outer loop
      vertex -4.000000e+001  1.250000e+001  0.000000e+000
      vertex -4.000000e+001  1.250000e+001  4.000000e+000
      vertex -3.000000e+001  1.250000e+001  4.000000e+000
    endloop
  endfacet
  facet normal  -0.000000e+000  1.000000e+000  0.000000e+000
    outer loop
      vertex -4.000000e+001  1.250000e+001  0.000000e+000
      vertex -3.000000e+001  1.250000e+001  4.000000e+000
      vertex -1.000000e+001  1.250000e+001  4.000000e+000
    endloop
  endfacet
  facet normal  -0.000000e+000  1.000000e+000  0.000000e+000
    outer loop
      vertex -4.000000e+001  1.250000e+001  0.000000e+000
      vertex -1.000000e+001  1.250000e+001  4.000000e+000
      vertex  1.000000e+001  1.250000e+001  4.000000e+000
    endloop
  endfacet
  facet normal  -0.000000e+000  1.000000e+000  0.000000e+000
    outer loop
      vertex -4.000000e+001  1.250000e+001  0.000000e+000
      vertex  1.000000e+001  1.250000e+001  4.000000e+000
      vertex  3.000000e+001  1.250000e+001  4.000000e+000
    endloop
  endfacet
  facet normal  -0.000000e+000  1.000000e+000  0.000000e+000
    outer loop
      vertex -4.000000e+001  1.250000e+001  0.000000e+000
      vertex  3.000000e+001  1.250000e+001  4.000000e+000
      vertex  4.000000e+001  1.250000e+001  4.000000e+000
    endloop
  endfacet
  facet normal  0.000000e+000  1.000000e+000  0.000000e+000
    outer loop
      vertex -4.000000e+001  1.250000e+001  0.000000e+000
      vertex  4.000000e+001  1.250000e+001  4.000000e+000
      vertex  4.000000e+001  1.250000e+001  0.000000e+000
    endloop
  endfacet
  facet normal -1.000000e+000  0.000000e+000  0.000000e+000
    outer loop
      vertex  1.000000e+001 -1.250000e+001  2.058312e+001
      vertex  1.000000e+001  1.250000e+001  4.000000e+000
      vertex  1.000000e+001 -1.250000e+001  4.000000e+000
    endloop
  endfacet
  facet normal  1.000000e+000  0.000000e+000  0.000000e+000
    outer loop
      vertex  3.000000e+001 -1.250000e+001  4.000000e+000
      vertex  3.000000e+001  1.250000e+001  4.000000e+000
      vertex  3.000000e+001 -1.250000e+001  2.058312e+001
    endloop
  endfacet
  facet normal  0.000000e+000  5.527708e-001  8.333334e-001
    outer loop
      vertex  3.000000e+001 -1.250000e+001  2.058312e+001
      vertex  3.000000e+001  1.250000e+001  4.000000e+000
      vertex  1.000000e+001 -1.250000e+001  2.058312e+001
    endloop
  endfacet
  facet normal  0.000000e+000  5.527708e-001  8.333334e-001
    outer loop
      vertex  1.000000e+001 -1.250000e+001  2.058312e+001
      vertex  3.000000e+001  1.250000e+001  4.000000e+000
      vertex  1.000000e+001  1.250000e+001  4.000000e+000
    endloop
  endfacet
  facet normal  0.000000e+000  0.000000e+000  1.000000e+000
    outer loop
      vertex  3.575000e+001 -6.200962e+000  4.000000e+000
      vertex  3.614907e+001 -6.535819e+000  4.000000e+000
      vertex  3.526047e+001  6.022789e+000  4.000000e+000
    endloop
  endfacet
  facet normal  0.000000e+000  0.000000e+000  1.000000e+000
    outer loop
      vertex  3.473953e+001 -6.022789e+000  4.000000e+000
      vertex  3.473953e+001  6.022789e+000  4.000000e+000
      vertex  3.425000e+001 -6.200962e+000  4.000000e+000
    endloop
  endfacet
  facet normal  0.000000e+000  -0.000000e+000  1.000000e+000
    outer loop
      vertex  3.385093e+001 -6.535819e+000  4.000000e+000
      vertex  3.425000e+001 -6.200962e+000  4.000000e+000
      vertex  3.473953e+001  6.022789e+000  4.000000e+000
    endloop
  endfacet
  facet normal  0.000000e+000  0.000000e+000  1.000000e+000
    outer loop
      vertex  3.000000e+001 -1.250000e+001  4.000000e+000
      vertex  4.000000e+001 -1.250000e+001  4.000000e+000
      vertex  3.526047e+001 -8.977212e+000  4.000000e+000
    endloop
  endfacet
  facet normal  0.000000e+000  0.000000e+000  1.000000e+000
    outer loop
      vertex  3.000000e+001 -1.250000e+001  4.000000e+000
      vertex  3.526047e+001 -8.977212e+000  4.000000e+000
      vertex  3.473953e+001 -8.977212e+000  4.000000e+000
    endloop
  endfacet
  facet normal  0.000000e+000  0.000000e+000  1.000000e+000
    outer loop
      vertex  3.000000e+001 -1.250000e+001  4.000000e+000
      vertex  3.473953e+001 -8.977212e+000  4.000000e+000
      vertex  3.425000e+001 -8.799038e+000  4.000000e+000
    endloop
  endfacet
  facet normal  0.000000e+000  0.000000e+000  9.999999e-001
    outer loop
      vertex  3.000000e+001 -1.250000e+001  4.000000e+000
      vertex  3.425000e+001 -8.799038e+000  4.000000e+000
      vertex  3.385093e+001 -8.464181e+000  4.000000e+000
    endloop
  endfacet
  facet normal  0.000000e+000  0.000000e+000  1.000000e+000
    outer loop
      vertex  3.000000e+001 -1.250000e+001  4.000000e+000
      vertex  3.385093e+001 -8.464181e+000  4.000000e+000
      vertex  3.359046e+001 -8.013030e+000  4.000000e+000
    endloop
  endfacet
  facet normal  0.000000e+000  0.000000e+000  1.000000e+000
    outer loop
      vertex  3.000000e+001 -1.250000e+001  4.000000e+000
      vertex  3.359046e+001 -8.013030e+000  4.000000e+000
      vertex  3.350000e+001 -7.500000e+000  4.000000e+000
    endloop
  endfacet
  facet normal  0.000000e+000  -0.000000e+000  1.000000e+000
    outer loop
      vertex  3.000000e+001 -1.250000e+001  4.000000e+000
      vertex  3.350000e+001 -7.500000e+000  4.000000e+000
      vertex  3.359046e+001 -6.986970e+000  4.000000e+000
    endloop
  endfacet
  facet normal  0.000000e+000  -0.000000e+000  1.000000e+000
    outer loop
      vertex  3.000000e+001 -1.250000e+001  4.000000e+000
      vertex  3.359046e+001 -6.986970e+000  4.000000e+000
      vertex  3.385093e+001 -6.535819e+000  4.000000e+000
    endloop
  endfacet
  facet normal  0.000000e+000  -0.000000e+000  1.000000e+000
    outer loop
      vertex  3.000000e+001 -1.250000e+001  4.000000e+000
      vertex  3.385093e+001 -6.535819e+000  4.000000e+000
      vertex  3.473953e+001  6.022789e+000  4.000000e+000
    endloop
  endfacet
  facet normal  0.000000e+000  0.000000e+000  1.000000e+000
    outer loop
      vertex  3.000000e+001 -1.250000e+001  4.000000e+000
      vertex  3.473953e+001  6.022789e+000  4.000000e+000
      vertex  3.425000e+001  6.200962e+000  4.000000e+000
    endloop
  endfacet
  facet normal  0.000000e+000  0.000000e+000  1.000000e+000
    outer loop
      vertex  3.000000e+001 -1.250000e+001  4.000000e+000
      vertex  3.425000e+001  6.200962e+000  4.000000e+000
      vertex  3.385093e+001  6.535819e+000  4.000000e+000
    endloop
  endfacet
  facet normal  0.000000e+000  0.000000e+000  1.000000e+000
    outer loop
      vertex  3.000000e+001 -1.250000e+001  4.000000e+000
      vertex  3.385093e+001  6.535819e+000  4.000000e+000
      vertex  3.359046e+001  6.986970e+000  4.000000e+000
    endloop
  endfacet
  facet normal  0.000000e+000  0.000000e+000  1.000000e+000
    outer loop
      vertex  3.000000e+001 -1.250000e+001  4.000000e+000
      vertex  3.359046e+001  6.986970e+000  4.000000e+000
      vertex  3.350000e+001  7.500000e+000  4.000000e+000
    endloop
  endfacet
  facet normal  0.000000e+000  0.000000e+000  1.000000e+000
    outer loop
      vertex  3.000000e+001  1.250000e+001  4.000000e+000
      vertex  3.000000e+001 -1.250000e+001  4.000000e+000
      vertex  3.350000e+001  7.500000e+000  4.000000e+000
    endloop
  endfacet
  facet normal  0.000000e+000  -0.000000e+000  1.000000e+000
    outer loop
      vertex  3.000000e+001  1.250000e+001  4.000000e+000
      vertex  3.350000e+001  7.500000e+000  4.000000e+000
      vertex  3.359046e+001  8.013030e+000  4.000000e+000
    endloop
  endfacet
  facet normal  0.000000e+000  -0.000000e+000  1.000000e+000
    outer loop
      vertex  3.000000e+001  1.250000e+001  4.000000e+000
      vertex  3.359046e+001  8.013030e+000  4.000000e+000
      vertex  3.385093e+001  8.464181e+000  4.000000e+000
    endloop
  endfacet
  facet normal  0.000000e+000  -0.000000e+000  9.999999e-001
    outer loop
      vertex  3.000000e+001  1.250000e+001  4.000000e+000
      vertex  3.385093e+001  8.464181e+000  4.000000e+000
      vertex  3.425000e+001  8.799038e+000  4.000000e+000
    endloop
  endfacet
  facet normal  0.000000e+000  -0.000000e+000  1.000000e+000
    outer loop
      vertex  3.000000e+001  1.250000e+001  4.000000e+000
      vertex  3.425000e+001  8.799038e+000  4.000000e+000
      vertex  3.473953e+001  8.977212e+000  4.000000e+000
    endloop
  endfacet
  facet normal  0.000000e+000  -0.000000e+000  1.000000e+000
    outer loop
      vertex  3.000000e+001  1.250000e+001  4.000000e+000
      vertex  3.473953e+001  8.977212e+000  4.000000e+000
      vertex  3.526047e+001  8.977212e+000  4.000000e+000
    endloop
  endfacet
  facet normal  0.000000e+000  -0.000000e+000  1.000000e+000
    outer loop
      vertex  3.000000e+001  1.250000e+001  4.000000e+000
      vertex  3.526047e+001  8.977212e+000  4.000000e+000
      vertex  4.000000e+001  1.250000e+001  4.000000e+000
    endloop
  endfacet
  facet normal  0.000000e+000  0.000000e+000  1.000000e+000
    outer loop
      vertex  4.000000e+001 -1.250000e+001  4.000000e+000
      vertex  3.650000e+001  7.500000e+000  4.000000e+000
      vertex  3.640954e+001  6.986970e+000  4.000000e+000
    endloop
  endfacet
  facet normal  0.000000e+000  0.000000e+000  1.000000e+000
    outer loop
      vertex  4.000000e+001 -1.250000e+001  4.000000e+000
      vertex  3.640954e+001  6.986970e+000  4.000000e+000
      vertex  3.614907e+001  6.535819e+000  4.000000e+000
    endloop
  endfacet
  facet normal  0.000000e+000  0.000000e+000  1.000000e+000
    outer loop
      vertex  4.000000e+001 -1.250000e+001  4.000000e+000
      vertex  3.614907e+001  6.535819e+000  4.000000e+000
      vertex  3.575000e+001  6.200962e+000  4.000000e+000
    endloop
  endfacet
  facet normal  0.000000e+000  0.000000e+000  1.000000e+000
    outer loop
      vertex  4.000000e+001 -1.250000e+001  4.000000e+000
      vertex  3.575000e+001  6.200962e+000  4.000000e+000
      vertex  3.526047e+001  6.022789e+000  4.000000e+000
    endloop
  endfacet
  facet normal  0.000000e+000  0.000000e+000  1.000000e+000
    outer loop
      vertex  4.000000e+001 -1.250000e+001  4.000000e+000
      vertex  3.526047e+001  6.022789e+000  4.000000e+000
      vertex  3.614907e+001 -6.535819e+000  4.000000e+000
    endloop
  endfacet
  facet normal  0.000000e+000  0.000000e+000  1.000000e+000
    outer loop
      vertex  4.000000e+001 -1.250000e+001  4.000000e+000
      vertex  3.614907e+001 -6.535819e+000  4.000000e+000
      vertex  3.640954e+001 -6.986970e+000  4.000000e+000
    endloop
  endfacet
  facet normal  0.000000e+000  0.000000e+000  1.000000e+000
    outer loop
      vertex  4.000000e+001 -1.250000e+001  4.000000e+000
      vertex  3.640954e+001 -6.986970e+000  4.000000e+000
      vertex  3.650000e+001 -7.500000e+000  4.000000e+000
    endloop
  endfacet
  facet normal  0.000000e+000  0.000000e+000  1.000000e+000
    outer loop
      vertex  4.000000e+001 -1.250000e+001  4.000000e+000
      vertex  3.650000e+001 -7.500000e+000  4.000000e+000
      vertex  3.640954e+001 -8.013030e+000  4.000000e+000
    endloop
  endfacet
  facet normal  0.000000e+000  0.000000e+000  1.000000e+000
    outer loop
      vertex  4.000000e+001 -1.250000e+001  4.000000e+000
      vertex  3.640954e+001 -8.013030e+000  4.000000e+000
      vertex  3.614907e+001 -8.464181e+000  4.000000e+000
    endloop
  endfacet
  facet normal  0.000000e+000  0.000000e+000  9.999999e-001
    outer loop
      vertex  4.000000e+001 -1.250000e+001  4.000000e+000
      vertex  3.614907e+001 -8.464181e+000  4.000000e+000
      vertex  3.575000e+001 -8.799038e+000  4.000000e+000
    endloop
  endfacet
  facet normal  0.000000e+000  0.000000e+000  1.000000e+000
    outer loop
      vertex  4.000000e+001 -1.250000e+001  4.000000e+000
      vertex  3.575000e+001 -8.799038e+000  4.000000e+000
      vertex  3.526047e+001 -8.977212e+000  4.000000e+000
    endloop
  endfacet
  facet normal  -0.000000e+000  0.000000e+000  1.000000e+000
    outer loop
      vertex  4.000000e+001  1.250000e+001  4.000000e+000
      vertex  3.526047e+001  8.977212e+000  4.000000e+000
      vertex  3.575000e+001  8.799038e+000  4.000000e+000
    endloop
  endfacet
  facet normal  -0.000000e+000  0.000000e+000  9.999999e-001
    outer loop
      vertex  4.000000e+001  1.250000e+001  4.000000e+000
      vertex  3.575000e+001  8.799038e+000  4.000000e+000
      vertex  3.614907e+001  8.464181e+000  4.000000e+000
    endloop
  endfacet
  facet normal  -0.000000e+000  0.000000e+000  1.000000e+000
    outer loop
      vertex  4.000000e+001  1.250000e+001  4.000000e+000
      vertex  3.614907e+001  8.464181e+000  4.000000e+000
      vertex  3.640954e+001  8.013030e+000  4.000000e+000
    endloop
  endfacet
  facet normal  -0.000000e+000  0.000000e+000  1.000000e+000
    outer loop
      vertex  4.000000e+001  1.250000e+001  4.000000e+000
      vertex  3.640954e+001  8.013030e+000  4.000000e+000
      vertex  3.650000e+001  7.500000e+000  4.000000e+000
    endloop
  endfacet
  facet normal  -0.000000e+000  0.000000e+000  1.000000e+000
    outer loop
      vertex  4.000000e+001  1.250000e+001  4.000000e+000
      vertex  3.650000e+001  7.500000e+000  4.000000e+000
      vertex  4.000000e+001 -1.250000e+001  4.000000e+000
    endloop
  endfacet
  facet normal  0.000000e+000  0.000000e+000  1.000000e+000
    outer loop
      vertex  3.473953e+001  6.022789e+000  4.000000e+000
      vertex  3.473953e+001 -6.022789e+000  4.000000e+000
      vertex  3.526047e+001  6.022789e+000  4.000000e+000
    endloop
  endfacet
  facet normal  0.000000e+000  0.000000e+000  1.000000e+000
    outer loop
      vertex  3.526047e+001  6.022789e+000  4.000000e+000
      vertex  3.473953e+001 -6.022789e+000  4.000000e+000
      vertex  3.526047e+001 -6.022789e+000  4.000000e+000
    endloop
  endfacet
  facet normal  -0.000000e+000  0.000000e+000  1.000000e+000
    outer loop
      vertex  3.526047e+001  6.022789e+000  4.000000e+000
      vertex  3.526047e+001 -6.022789e+000  4.000000e+000
      vertex  3.575000e+001 -6.200962e+000  4.000000e+000
    endloop
  endfacet
  facet normal  0.000000e+000  0.000000e+000 -1.000000e+000
    outer loop
      vertex  3.526047e+001  6.022789e+000  0.000000e+000
      vertex  3.614907e+001 -6.535819e+000  0.000000e+000
      vertex  3.575000e+001 -6.200962e+000  0.000000e+000
    endloop
  endfacet
  facet normal  0.000000e+000  -0.000000e+000 -1.000000e+000
    outer loop
      vertex -3.575000e+001 -6.200962e+000  0.000000e+000
      vertex -3.526047e+001  6.022789e+000  0.000000e+000
      vertex -3.526047e+001 -6.022789e+000  0.000000e+000
    endloop
  endfacet
  facet normal  -0.000000e+000  0.000000e+000 -1.000000e+000
    outer loop
      vertex -3.526047e+001  6.022789e+000  0.000000e+000
      vertex -3.575000e+001 -6.200962e+000  0.000000e+000
      vertex -3.614907e+001 -6.535819e+000  0.000000e+000
    endloop
  endfacet
  facet normal  -0.000000e+000  0.000000e+000 -1.000000e+000
    outer loop
      vertex -4.000000e+001  1.250000e+001  0.000000e+000
      vertex  4.000000e+001  1.250000e+001  0.000000e+000
      vertex  3.526047e+001  8.977212e+000  0.000000e+000
    endloop
  endfacet
  facet normal  0.000000e+000  0.000000e+000 -1.000000e+000
    outer loop
      vertex -4.000000e+001  1.250000e+001  0.000000e+000
      vertex  3.526047e+001  8.977212e+000  0.000000e+000
      vertex  3.473953e+001  8.977212e+000  0.000000e+000
    endloop
  endfacet
  facet normal  0.000000e+000  0.000000e+000 -9.999999e-001
    outer loop
      vertex -4.000000e+001  1.250000e+001  0.000000e+000
      vertex  3.473953e+001  8.977212e+000  0.000000e+000
      vertex -3.473953e+001  8.977212e+000  0.000000e+000
    endloop
  endfacet
  facet normal  0.000000e+000  0.000000e+000 -1.000000e+000
    outer loop
      vertex -4.000000e+001  1.250000e+001  0.000000e+000
      vertex -3.473953e+001  8.977212e+000  0.000000e+000
      vertex -3.526047e+001  8.977212e+000  0.000000e+000
    endloop
  endfacet
  facet normal  -0.000000e+000  0.000000e+000 -1.000000e+000
    outer loop
      vertex -4.000000e+001  1.250000e+001  0.000000e+000
      vertex -3.526047e+001  8.977212e+000  0.000000e+000
      vertex -3.575000e+001  8.799038e+000  0.000000e+000
    endloop
  endfacet
  facet normal  -0.000000e+000  0.000000e+000 -9.999999e-001
    outer loop
      vertex -4.000000e+001  1.250000e+001  0.000000e+000
      vertex -3.575000e+001  8.799038e+000  0.000000e+000
      vertex -3.614907e+001  8.464181e+000  0.000000e+000
    endloop
  endfacet
  facet normal  -0.000000e+000  0.000000e+000 -1.000000e+000
    outer loop
      vertex -4.000000e+001  1.250000e+001  0.000000e+000
      vertex -3.614907e+001  8.464181e+000  0.000000e+000
      vertex -3.640954e+001  8.013030e+000  0.000000e+000
    endloop
  endfacet
  facet normal  -0.000000e+000  0.000000e+000 -1.000000e+000
    outer loop
      vertex -4.000000e+001  1.250000e+001  0.000000e+000
      vertex -3.640954e+001  8.013030e+000  0.000000e+000
      vertex -3.650000e+001  7.500000e+000  0.000000e+000
    endloop
  endfacet
  facet normal  -0.000000e+000  0.000000e+000 -1.000000e+000
    outer loop
      vertex -4.000000e+001  1.250000e+001  0.000000e+000
      vertex -3.650000e+001  7.500000e+000  0.000000e+000
      vertex -4.000000e+001 -1.250000e+001  0.000000e+000
    endloop
  endfacet
  facet normal  0.000000e+000  -0.000000e+000 -1.000000e+000
    outer loop
      vertex -4.000000e+001 -1.250000e+001  0.000000e+000
      vertex -3.650000e+001  7.500000e+000  0.000000e+000
      vertex -3.640954e+001  6.986970e+000  0.000000e+000
    endloop
  endfacet
  facet normal  0.000000e+000  -0.000000e+000 -1.000000e+000
    outer loop
      vertex -4.000000e+001 -1.250000e+001  0.000000e+000
      vertex -3.640954e+001  6.986970e+000  0.000000e+000
      vertex -3.614907e+001  6.535819e+000  0.000000e+000
    endloop
  endfacet
  facet normal  0.000000e+000  -0.000000e+000 -1.000000e+000
    outer loop
      vertex -4.000000e+001 -1.250000e+001  0.000000e+000
      vertex -3.614907e+001  6.535819e+000  0.000000e+000
      vertex -3.575000e+001  6.200962e+000  0.000000e+000
    endloop
  endfacet
  facet normal  0.000000e+000  -0.000000e+000 -1.000000e+000
    outer loop
      vertex -4.000000e+001 -1.250000e+001  0.000000e+000
      vertex -3.575000e+001  6.200962e+000  0.000000e+000
      vertex -3.526047e+001  6.022789e+000  0.000000e+000
    endloop
  endfacet
  facet normal  0.000000e+000  0.000000e+000 -1.000000e+000
    outer loop
      vertex -4.000000e+001 -1.250000e+001  0.000000e+000
      vertex -3.526047e+001  6.022789e+000  0.000000e+000
      vertex -3.614907e+001 -6.535819e+000  0.000000e+000
    endloop
  endfacet
  facet normal  0.000000e+000  0.000000e+000 -1.000000e+000
    outer loop
      vertex -4.000000e+001 -1.250000e+001  0.000000e+000
      vertex -3.614907e+001 -6.535819e+000  0.000000e+000
      vertex -3.640954e+001 -6.986970e+000  0.000000e+000
    endloop
  endfacet
  facet normal  0.000000e+000  0.000000e+000 -1.000000e+000
    outer loop
      vertex -4.000000e+001 -1.250000e+001  0.000000e+000
      vertex -3.640954e+001 -6.986970e+000  0.000000e+000
      vertex -3.650000e+001 -7.500000e+000  0.000000e+000
    endloop
  endfacet
  facet normal  0.000000e+000  -0.000000e+000 -1.000000e+000
    outer loop
      vertex -4.000000e+001 -1.250000e+001  0.000000e+000
      vertex -3.650000e+001 -7.500000e+000  0.000000e+000
      vertex -3.640954e+001 -8.013030e+000  0.000000e+000
    endloop
  endfacet
  facet normal  0.000000e+000  -0.000000e+000 -1.000000e+000
    outer loop
      vertex -4.000000e+001 -1.250000e+001  0.000000e+000
      vertex -3.640954e+001 -8.013030e+000  0.000000e+000
      vertex -3.614907e+001 -8.464181e+000  0.000000e+000
    endloop
  endfacet
  facet normal  0.000000e+000  -0.000000e+000 -9.999999e-001
    outer loop
      vertex -4.000000e+001 -1.250000e+001  0.000000e+000
      vertex -3.614907e+001 -8.464181e+000  0.000000e+000
      vertex -3.575000e+001 -8.799038e+000  0.000000e+000
    endloop
  endfacet
  facet normal  0.000000e+000  -0.000000e+000 -1.000000e+000
    outer loop
      vertex -4.000000e+001 -1.250000e+001  0.000000e+000
      vertex -3.575000e+001 -8.799038e+000  0.000000e+000
      vertex -3.526047e+001 -8.977212e+000  0.000000e+000
    endloop
  endfacet
  facet normal  0.000000e+000  -0.000000e+000 -1.000000e+000
    outer loop
      vertex -4.000000e+001 -1.250000e+001  0.000000e+000
      vertex -3.526047e+001 -8.977212e+000  0.000000e+000
      vertex -3.473953e+001 -8.977212e+000  0.000000e+000
    endloop
  endfacet
  facet normal  0.000000e+000  -0.000000e+000 -9.999999e-001
    outer loop
      vertex -4.000000e+001 -1.250000e+001  0.000000e+000
      vertex -3.473953e+001 -8.977212e+000  0.000000e+000
      vertex  3.473953e+001 -8.977212e+000  0.000000e+000
    endloop
  endfacet
  facet normal  0.000000e+000  -0.000000e+000 -1.000000e+000
    outer loop
      vertex -4.000000e+001 -1.250000e+001  0.000000e+000
      vertex  3.473953e+001 -8.977212e+000  0.000000e+000
      vertex  3.526047e+001 -8.977212e+000  0.000000e+000
    endloop
  endfacet
  facet normal  0.000000e+000  -0.000000e+000 -1.000000e+000
    outer loop
      vertex -4.000000e+001 -1.250000e+001  0.000000e+000
      vertex  3.526047e+001 -8.977212e+000  0.000000e+000
      vertex  4.000000e+001 -1.250000e+001  0.000000e+000
    endloop
  endfacet
  facet normal  0.000000e+000  0.000000e+000 -1.000000e+000
    outer loop
      vertex  4.000000e+001 -1.250000e+001  0.000000e+000
      vertex  3.526047e+001 -8.977212e+000  0.000000e+000
      vertex  3.575000e+001 -8.799038e+000  0.000000e+000
    endloop
  endfacet
  facet normal  0.000000e+000  0.000000e+000 -9.999999e-001
    outer loop
      vertex  4.000000e+001 -1.250000e+001  0.000000e+000
      vertex  3.575000e+001 -8.799038e+000  0.000000e+000
      vertex  3.614907e+001 -8.464181e+000  0.000000e+000
    endloop
  endfacet
  facet normal  0.000000e+000  0.000000e+000 -1.000000e+000
    outer loop
      vertex  4.000000e+001 -1.250000e+001  0.000000e+000
      vertex  3.614907e+001 -8.464181e+000  0.000000e+000
      vertex  3.640954e+001 -8.013030e+000  0.000000e+000
    endloop
  endfacet
  facet normal  0.000000e+000  0.000000e+000 -1.000000e+000
    outer loop
      vertex  4.000000e+001 -1.250000e+001  0.000000e+000
      vertex  3.640954e+001 -8.013030e+000  0.000000e+000
      vertex  3.650000e+001 -7.500000e+000  0.000000e+000
    endloop
  endfacet
  facet normal  0.000000e+000  0.000000e+000 -1.000000e+000
    outer loop
      vertex  4.000000e+001 -1.250000e+001  0.000000e+000
      vertex  3.650000e+001 -7.500000e+000  0.000000e+000
      vertex  3.640954e+001 -6.986970e+000  0.000000e+000
    endloop
  endfacet
  facet normal  0.000000e+000  0.000000e+000 -1.000000e+000
    outer loop
      vertex  4.000000e+001 -1.250000e+001  0.000000e+000
      vertex  3.640954e+001 -6.986970e+000  0.000000e+000
      vertex  3.614907e+001 -6.535819e+000  0.000000e+000
    endloop
  endfacet
  facet normal  0.000000e+000  0.000000e+000 -1.000000e+000
    outer loop
      vertex  4.000000e+001 -1.250000e+001  0.000000e+000
      vertex  3.614907e+001 -6.535819e+000  0.000000e+000
      vertex  3.526047e+001  6.022789e+000  0.000000e+000
    endloop
  endfacet
  facet normal  0.000000e+000  0.000000e+000 -1.000000e+000
    outer loop
      vertex  4.000000e+001 -1.250000e+001  0.000000e+000
      vertex  3.526047e+001  6.022789e+000  0.000000e+000
      vertex  3.575000e+001  6.200962e+000  0.000000e+000
    endloop
  endfacet
  facet normal  0.000000e+000  0.000000e+000 -1.000000e+000
    outer loop
      vertex  4.000000e+001 -1.250000e+001  0.000000e+000
      vertex  3.575000e+001  6.200962e+000  0.000000e+000
      vertex  3.614907e+001  6.535819e+000  0.000000e+000
    endloop
  endfacet
  facet normal  0.000000e+000  0.000000e+000 -1.000000e+000
    outer loop
      vertex  4.000000e+001 -1.250000e+001  0.000000e+000
      vertex  3.614907e+001  6.535819e+000  0.000000e+000
      vertex  3.640954e+001  6.986970e+000  0.000000e+000
    endloop
  endfacet
  facet normal  0.000000e+000  0.000000e+000 -1.000000e+000
    outer loop
      vertex  4.000000e+001 -1.250000e+001  0.000000e+000
      vertex  3.640954e+001  6.986970e+000  0.000000e+000
      vertex  3.650000e+001  7.500000e+000  0.000000e+000
    endloop
  endfacet
  facet normal  0.000000e+000  0.000000e+000 -1.000000e+000
    outer loop
      vertex  4.000000e+001  1.250000e+001  0.000000e+000
      vertex  4.000000e+001 -1.250000e+001  0.000000e+000
      vertex  3.650000e+001  7.500000e+000  0.000000e+000
    endloop
  endfacet
  facet normal  0.000000e+000  0.000000e+000 -1.000000e+000
    outer loop
      vertex  4.000000e+001  1.250000e+001  0.000000e+000
      vertex  3.650000e+001  7.500000e+000  0.000000e+000
      vertex  3.640954e+001  8.013030e+000  0.000000e+000
    endloop
  endfacet
  facet normal  0.000000e+000  0.000000e+000 -1.000000e+000
    outer loop
      vertex  4.000000e+001  1.250000e+001  0.000000e+000
      vertex  3.640954e+001  8.013030e+000  0.000000e+000
      vertex  3.614907e+001  8.464181e+000  0.000000e+000
    endloop
  endfacet
  facet normal  0.000000e+000  0.000000e+000 -9.999999e-001
    outer loop
      vertex  4.000000e+001  1.250000e+001  0.000000e+000
      vertex  3.614907e+001  8.464181e+000  0.000000e+000
      vertex  3.575000e+001  8.799038e+000  0.000000e+000
    endloop
  endfacet
  facet normal  0.000000e+000  0.000000e+000 -1.000000e+000
    outer loop
      vertex  4.000000e+001  1.250000e+001  0.000000e+000
      vertex  3.575000e+001  8.799038e+000  0.000000e+000
      vertex  3.526047e+001  8.977212e+000  0.000000e+000
    endloop
  endfacet
  facet normal  0.000000e+000  0.000000e+000 -1.000000e+000
    outer loop
      vertex  3.575000e+001 -6.200962e+000  0.000000e+000
      vertex  3.526047e+001 -6.022789e+000  0.000000e+000
      vertex  3.526047e+001  6.022789e+000  0.000000e+000
    endloop
  endfacet
  facet normal  0.000000e+000  -0.000000e+000 -1.000000e+000
    outer loop
      vertex  3.526047e+001  6.022789e+000  0.000000e+000
      vertex  3.526047e+001 -6.022789e+000  0.000000e+000
      vertex  3.473953e+001 -6.022789e+000  0.000000e+000
    endloop
  endfacet
  facet normal  0.000000e+000  0.000000e+000 -1.000000e+000
    outer loop
      vertex  3.526047e+001  6.022789e+000  0.000000e+000
      vertex  3.473953e+001 -6.022789e+000  0.000000e+000
      vertex  3.473953e+001  6.022789e+000  0.000000e+000
    endloop
  endfacet
  facet normal  0.000000e+000  0.000000e+000 -9.999999e-001
    outer loop
      vertex  3.473953e+001  6.022789e+000  0.000000e+000
      vertex -3.473953e+001 -6.022789e+000  0.000000e+000
      vertex -3.473953e+001  6.022789e+000  0.000000e+000
    endloop
  endfacet
  facet normal  0.000000e+000  -0.000000e+000 -1.000000e+000
    outer loop
      vertex -3.473953e+001  6.022789e+000  0.000000e+000
      vertex -3.473953e+001 -6.022789e+000  0.000000e+000
      vertex -3.526047e+001 -6.022789e+000  0.000000e+000
    endloop
  endfacet
  facet normal  0.000000e+000  0.000000e+000 -1.000000e+000
    outer loop
      vertex -3.473953e+001  6.022789e+000  0.000000e+000
      vertex -3.526047e+001 -6.022789e+000  0.000000e+000
      vertex -3.526047e+001  6.022789e+000  0.000000e+000
    endloop
  endfacet
  facet normal  0.000000e+000  0.000000e+000 -1.000000e+000
    outer loop
      vertex  3.350000e+001  7.500000e+000  0.000000e+000
      vertex -3.359046e+001  8.013030e+000  0.000000e+000
      vertex  3.359046e+001  8.013030e+000  0.000000e+000
    endloop
  endfacet
  facet normal  0.000000e+000  0.000000e+000 -9.999999e-001
    outer loop
      vertex  3.359046e+001  8.013030e+000  0.000000e+000
      vertex -3.359046e+001  8.013030e+000  0.000000e+000
      vertex -3.385093e+001  8.464181e+000  0.000000e+000
    endloop
  endfacet
  facet normal  0.000000e+000  0.000000e+000 -1.000000e+000
    outer loop
      vertex  3.359046e+001  8.013030e+000  0.000000e+000
      vertex -3.385093e+001  8.464181e+000  0.000000e+000
      vertex  3.385093e+001  8.464181e+000  0.000000e+000
    endloop
  endfacet
  facet normal  0.000000e+000  0.000000e+000 -1.000000e+000
    outer loop
      vertex  3.385093e+001  8.464181e+000  0.000000e+000
      vertex -3.385093e+001  8.464181e+000  0.000000e+000
      vertex -3.425000e+001  8.799038e+000  0.000000e+000
    endloop
  endfacet
  facet normal  0.000000e+000  0.000000e+000 -1.000000e+000
    outer loop
      vertex  3.385093e+001  8.464181e+000  0.000000e+000
      vertex -3.425000e+001  8.799038e+000  0.000000e+000
      vertex  3.425000e+001  8.799038e+000  0.000000e+000
    endloop
  endfacet
  facet normal  0.000000e+000  0.000000e+000 -9.999999e-001
    outer loop
      vertex  3.425000e+001  8.799038e+000  0.000000e+000
      vertex -3.425000e+001  8.799038e+000  0.000000e+000
      vertex -3.473953e+001  8.977212e+000  0.000000e+000
    endloop
  endfacet
  facet normal  0.000000e+000  0.000000e+000 -9.999999e-001
    outer loop
      vertex  3.425000e+001  8.799038e+000  0.000000e+000
      vertex -3.473953e+001  8.977212e+000  0.000000e+000
      vertex  3.473953e+001  8.977212e+000  0.000000e+000
    endloop
  endfacet
  facet normal  0.000000e+000  0.000000e+000 -1.000000e+000
    outer loop
      vertex -3.359046e+001  8.013030e+000  0.000000e+000
      vertex  3.350000e+001  7.500000e+000  0.000000e+000
      vertex -3.350000e+001  7.500000e+000  0.000000e+000
    endloop
  endfacet
  facet normal  0.000000e+000  0.000000e+000 -1.000000e+000
    outer loop
      vertex -3.350000e+001  7.500000e+000  0.000000e+000
      vertex  3.350000e+001  7.500000e+000  0.000000e+000
      vertex  3.359046e+001  6.986970e+000  0.000000e+000
    endloop
  endfacet
  facet normal  0.000000e+000  0.000000e+000 -1.000000e+000
    outer loop
      vertex -3.350000e+001  7.500000e+000  0.000000e+000
      vertex  3.359046e+001  6.986970e+000  0.000000e+000
      vertex -3.359046e+001  6.986970e+000  0.000000e+000
    endloop
  endfacet
  facet normal  0.000000e+000  0.000000e+000 -1.000000e+000
    outer loop
      vertex -3.359046e+001  6.986970e+000  0.000000e+000
      vertex  3.359046e+001  6.986970e+000  0.000000e+000
      vertex  3.385093e+001  6.535819e+000  0.000000e+000
    endloop
  endfacet
  facet normal  0.000000e+000  0.000000e+000 -1.000000e+000
    outer loop
      vertex -3.359046e+001  6.986970e+000  0.000000e+000
      vertex  3.385093e+001  6.535819e+000  0.000000e+000
      vertex -3.385093e+001  6.535819e+000  0.000000e+000
    endloop
  endfacet
  facet normal  0.000000e+000  0.000000e+000 -1.000000e+000
    outer loop
      vertex -3.385093e+001  6.535819e+000  0.000000e+000
      vertex  3.385093e+001  6.535819e+000  0.000000e+000
      vertex  3.425000e+001  6.200962e+000  0.000000e+000
    endloop
  endfacet
  facet normal  0.000000e+000  0.000000e+000 -1.000000e+000
    outer loop
      vertex -3.385093e+001  6.535819e+000  0.000000e+000
      vertex  3.425000e+001  6.200962e+000  0.000000e+000
      vertex -3.425000e+001  6.200962e+000  0.000000e+000
    endloop
  endfacet
  facet normal  0.000000e+000  0.000000e+000 -1.000000e+000
    outer loop
      vertex -3.425000e+001  6.200962e+000  0.000000e+000
      vertex  3.425000e+001  6.200962e+000  0.000000e+000
      vertex  3.473953e+001  6.022789e+000  0.000000e+000
    endloop
  endfacet
  facet normal  0.000000e+000  0.000000e+000 -1.000000e+000
    outer loop
      vertex -3.425000e+001  6.200962e+000  0.000000e+000
      vertex  3.473953e+001  6.022789e+000  0.000000e+000
      vertex -3.473953e+001  6.022789e+000  0.000000e+000
    endloop
  endfacet
  facet normal  0.000000e+000  0.000000e+000 -9.999999e-001
    outer loop
      vertex  3.473953e+001  6.022789e+000  0.000000e+000
      vertex  3.473953e+001 -6.022789e+000  0.000000e+000
      vertex -3.473953e+001 -6.022789e+000  0.000000e+000
    endloop
  endfacet
  facet normal  0.000000e+000  0.000000e+000 -1.000000e+000
    outer loop
      vertex -3.473953e+001 -6.022789e+000  0.000000e+000
      vertex  3.473953e+001 -6.022789e+000  0.000000e+000
      vertex  3.425000e+001 -6.200962e+000  0.000000e+000
    endloop
  endfacet
  facet normal  0.000000e+000  0.000000e+000 -1.000000e+000
    outer loop
      vertex -3.473953e+001 -6.022789e+000  0.000000e+000
      vertex  3.425000e+001 -6.200962e+000  0.000000e+000
      vertex -3.425000e+001 -6.200962e+000  0.000000e+000
    endloop
  endfacet
  facet normal  0.000000e+000  0.000000e+000 -1.000000e+000
    outer loop
      vertex -3.425000e+001 -6.200962e+000  0.000000e+000
      vertex  3.425000e+001 -6.200962e+000  0.000000e+000
      vertex  3.385093e+001 -6.535819e+000  0.000000e+000
    endloop
  endfacet
  facet normal  0.000000e+000  0.000000e+000 -1.000000e+000
    outer loop
      vertex -3.425000e+001 -6.200962e+000  0.000000e+000
      vertex  3.385093e+001 -6.535819e+000  0.000000e+000
      vertex -3.385093e+001 -6.535819e+000  0.000000e+000
    endloop
  endfacet
  facet normal  0.000000e+000  0.000000e+000 -1.000000e+000
    outer loop
      vertex -3.385093e+001 -6.535819e+000  0.000000e+000
      vertex  3.385093e+001 -6.535819e+000  0.000000e+000
      vertex  3.359046e+001 -6.986970e+000  0.000000e+000
    endloop
  endfacet
  facet normal  0.000000e+000  0.000000e+000 -1.000000e+000
    outer loop
      vertex -3.385093e+001 -6.535819e+000  0.000000e+000
      vertex  3.359046e+001 -6.986970e+000  0.000000e+000
      vertex -3.359046e+001 -6.986970e+000  0.000000e+000
    endloop
  endfacet
  facet normal  0.000000e+000  0.000000e+000 -1.000000e+000
    outer loop
      vertex -3.359046e+001 -6.986970e+000  0.000000e+000
      vertex  3.359046e+001 -6.986970e+000  0.000000e+000
      vertex  3.350000e+001 -7.500000e+000  0.000000e+000
    endloop
  endfacet
  facet normal  0.000000e+000  0.000000e+000 -1.000000e+000
    outer loop
      vertex -3.359046e+001 -6.986970e+000  0.000000e+000
      vertex  3.350000e+001 -7.500000e+000  0.000000e+000
      vertex -3.350000e+001 -7.500000e+000  0.000000e+000
    endloop
  endfacet
  facet normal  0.000000e+000  0.000000e+000 -1.000000e+000
    outer loop
      vertex -3.350000e+001 -7.500000e+000  0.000000e+000
      vertex  3.350000e+001 -7.500000e+000  0.000000e+000
      vertex  3.359046e+001 -8.013030e+000  0.000000e+000
    endloop
  endfacet
  facet normal  0.000000e+000  0.000000e+000 -1.000000e+000
    outer loop
      vertex -3.350000e+001 -7.500000e+000  0.000000e+000
      vertex  3.359046e+001 -8.013030e+000  0.000000e+000
      vertex -3.359046e+001 -8.013030e+000  0.000000e+000
    endloop
  endfacet
  facet normal  0.000000e+000  0.000000e+000 -9.999999e-001
    outer loop
      vertex -3.359046e+001 -8.013030e+000  0.000000e+000
      vertex  3.359046e+001 -8.013030e+000  0.000000e+000
      vertex  3.385093e+001 -8.464181e+000  0.000000e+000
    endloop
  endfacet
  facet normal  0.000000e+000  0.000000e+000 -1.000000e+000
    outer loop
      vertex -3.359046e+001 -8.013030e+000  0.000000e+000
      vertex  3.385093e+001 -8.464181e+000  0.000000e+000
      vertex -3.385093e+001 -8.464181e+000  0.000000e+000
    endloop
  endfacet
  facet normal  0.000000e+000  0.000000e+000 -1.000000e+000
    outer loop
      vertex -3.385093e+001 -8.464181e+000  0.000000e+000
      vertex  3.385093e+001 -8.464181e+000  0.000000e+000
      vertex  3.425000e+001 -8.799038e+000  0.000000e+000
    endloop
  endfacet
  facet normal  0.000000e+000  0.000000e+000 -1.000000e+000
    outer loop
      vertex -3.385093e+001 -8.464181e+000  0.000000e+000
      vertex  3.425000e+001 -8.799038e+000  0.000000e+000
      vertex -3.425000e+001 -8.799038e+000  0.000000e+000
    endloop
  endfacet
  facet normal  0.000000e+000  0.000000e+000 -9.999999e-001
    outer loop
      vertex -3.425000e+001 -8.799038e+000  0.000000e+000
      vertex  3.425000e+001 -8.799038e+000  0.000000e+000
      vertex  3.473953e+001 -8.977212e+000  0.000000e+000
    endloop
  endfacet
  facet normal  0.000000e+000  0.000000e+000 -9.999999e-001
    outer loop
      vertex -3.425000e+001 -8.799038e+000  0.000000e+000
      vertex  3.473953e+001 -8.977212e+000  0.000000e+000
      vertex -3.473953e+001 -8.977212e+000  0.000000e+000
    endloop
  endfacet
  facet normal -3.420204e-001  9.396926e-001  0.000000e+000
    outer loop
      vertex  3.526047e+001 -8.977212e+000  0.000000e+000
      vertex  3.575000e+001 -8.799038e+000  4.000000e+000
      vertex  3.575000e+001 -8.799038e+000  0.000000e+000
    endloop
  endfacet
  facet normal -6.427876e-001  7.660443e-001  0.000000e+000
    outer loop
      vertex  3.575000e+001 -8.799038e+000  0.000000e+000
      vertex  3.575000e+001 -8.799038e+000  4.000000e+000
      vertex  3.614907e+001 -8.464181e+000  4.000000e+000
    endloop
  endfacet
  facet normal -6.427876e-001  7.660443e-001  0.000000e+000
    outer loop
      vertex  3.575000e+001 -8.799038e+000  0.000000e+000
      vertex  3.614907e+001 -8.464181e+000  4.000000e+000
      vertex  3.614907e+001 -8.464181e+000  0.000000e+000
    endloop
  endfacet
  facet normal -8.660260e-001  4.999989e-001  0.000000e+000
    outer loop
      vertex  3.614907e+001 -8.464181e+000  0.000000e+000
      vertex  3.614907e+001 -8.464181e+000  4.000000e+000
      vertex  3.640954e+001 -8.013030e+000  4.000000e+000
    endloop
  endfacet
  facet normal -8.660260e-001  4.999989e-001  0.000000e+000
    outer loop
      vertex  3.614907e+001 -8.464181e+000  0.000000e+000
      vertex  3.640954e+001 -8.013030e+000  4.000000e+000
      vertex  3.640954e+001 -8.013030e+000  0.000000e+000
    endloop
  endfacet
  facet normal -9.848076e-001  1.736495e-001  0.000000e+000
    outer loop
      vertex  3.640954e+001 -8.013030e+000  0.000000e+000
      vertex  3.640954e+001 -8.013030e+000  4.000000e+000
      vertex  3.650000e+001 -7.500000e+000  4.000000e+000
    endloop
  endfacet
  facet normal -9.848076e-001  1.736495e-001  0.000000e+000
    outer loop
      vertex  3.640954e+001 -8.013030e+000  0.000000e+000
      vertex  3.650000e+001 -7.500000e+000  4.000000e+000
      vertex  3.650000e+001 -7.500000e+000  0.000000e+000
    endloop
  endfacet
  facet normal -3.420204e-001  9.396926e-001  0.000000e+000
    outer loop
      vertex  3.575000e+001 -8.799038e+000  4.000000e+000
      vertex  3.526047e+001 -8.977212e+000  0.000000e+000
      vertex  3.526047e+001 -8.977212e+000  4.000000e+000
    endloop
  endfacet
  facet normal  0.000000e+000  1.000000e+000  0.000000e+000
    outer loop
      vertex  3.526047e+001 -8.977212e+000  4.000000e+000
      vertex  3.526047e+001 -8.977212e+000  0.000000e+000
      vertex  3.473953e+001 -8.977212e+000  0.000000e+000
    endloop
  endfacet
  facet normal  0.000000e+000  1.000000e+000  0.000000e+000
    outer loop
      vertex  3.526047e+001 -8.977212e+000  4.000000e+000
      vertex  3.473953e+001 -8.977212e+000  0.000000e+000
      vertex  3.473953e+001 -8.977212e+000  4.000000e+000
    endloop
  endfacet
  facet normal  3.420204e-001  9.396926e-001  0.000000e+000
    outer loop
      vertex  3.473953e+001 -8.977212e+000  4.000000e+000
      vertex  3.473953e+001 -8.977212e+000  0.000000e+000
      vertex  3.425000e+001 -8.799038e+000  0.000000e+000
    endloop
  endfacet
  facet normal  3.420204e-001  9.396926e-001  -0.000000e+000
    outer loop
      vertex  3.473953e+001 -8.977212e+000  4.000000e+000
      vertex  3.425000e+001 -8.799038e+000  0.000000e+000
      vertex  3.425000e+001 -8.799038e+000  4.000000e+000
    endloop
  endfacet
  facet normal  6.427876e-001  7.660443e-001  0.000000e+000
    outer loop
      vertex  3.425000e+001 -8.799038e+000  4.000000e+000
      vertex  3.425000e+001 -8.799038e+000  0.000000e+000
      vertex  3.385093e+001 -8.464181e+000  0.000000e+000
    endloop
  endfacet
  facet normal  6.427876e-001  7.660443e-001  -0.000000e+000
    outer loop
      vertex  3.425000e+001 -8.799038e+000  4.000000e+000
      vertex  3.385093e+001 -8.464181e+000  0.000000e+000
      vertex  3.385093e+001 -8.464181e+000  4.000000e+000
    endloop
  endfacet
  facet normal  8.660260e-001  4.999989e-001  0.000000e+000
    outer loop
      vertex  3.385093e+001 -8.464181e+000  4.000000e+000
      vertex  3.385093e+001 -8.464181e+000  0.000000e+000
      vertex  3.359046e+001 -8.013030e+000  0.000000e+000
    endloop
  endfacet
  facet normal  8.660260e-001  4.999989e-001  -0.000000e+000
    outer loop
      vertex  3.385093e+001 -8.464181e+000  4.000000e+000
      vertex  3.359046e+001 -8.013030e+000  0.000000e+000
      vertex  3.359046e+001 -8.013030e+000  4.000000e+000
    endloop
  endfacet
  facet normal  9.848076e-001  1.736495e-001  0.000000e+000
    outer loop
      vertex  3.359046e+001 -8.013030e+000  4.000000e+000
      vertex  3.359046e+001 -8.013030e+000  0.000000e+000
      vertex  3.350000e+001 -7.500000e+000  0.000000e+000
    endloop
  endfacet
  facet normal  9.848076e-001  1.736495e-001  -0.000000e+000
    outer loop
      vertex  3.359046e+001 -8.013030e+000  4.000000e+000
      vertex  3.350000e+001 -7.500000e+000  0.000000e+000
      vertex  3.350000e+001 -7.500000e+000  4.000000e+000
    endloop
  endfacet
  facet normal  3.420196e-001 -9.396928e-001  0.000000e+000
    outer loop
      vertex  3.473953e+001 -6.022789e+000  0.000000e+000
      vertex  3.425000e+001 -6.200962e+000  4.000000e+000
      vertex  3.425000e+001 -6.200962e+000  0.000000e+000
    endloop
  endfacet
  facet normal  6.427872e-001 -7.660449e-001  0.000000e+000
    outer loop
      vertex  3.425000e+001 -6.200962e+000  0.000000e+000
      vertex  3.425000e+001 -6.200962e+000  4.000000e+000
      vertex  3.385093e+001 -6.535819e+000  4.000000e+000
    endloop
  endfacet
  facet normal  6.427872e-001 -7.660449e-001  0.000000e+000
    outer loop
      vertex  3.425000e+001 -6.200962e+000  0.000000e+000
      vertex  3.385093e+001 -6.535819e+000  4.000000e+000
      vertex  3.385093e+001 -6.535819e+000  0.000000e+000
    endloop
  endfacet
  facet normal  8.660262e-001 -4.999985e-001  0.000000e+000
    outer loop
      vertex  3.385093e+001 -6.535819e+000  0.000000e+000
      vertex  3.385093e+001 -6.535819e+000  4.000000e+000
      vertex  3.359046e+001 -6.986970e+000  4.000000e+000
    endloop
  endfacet
  facet normal  8.660262e-001 -4.999985e-001  0.000000e+000
    outer loop
      vertex  3.385093e+001 -6.535819e+000  0.000000e+000
      vertex  3.359046e+001 -6.986970e+000  4.000000e+000
      vertex  3.359046e+001 -6.986970e+000  0.000000e+000
    endloop
  endfacet
  facet normal  9.848076e-001 -1.736495e-001  0.000000e+000
    outer loop
      vertex  3.359046e+001 -6.986970e+000  0.000000e+000
      vertex  3.359046e+001 -6.986970e+000  4.000000e+000
      vertex  3.350000e+001 -7.500000e+000  4.000000e+000
    endloop
  endfacet
  facet normal  9.848076e-001 -1.736495e-001  0.000000e+000
    outer loop
      vertex  3.359046e+001 -6.986970e+000  0.000000e+000
      vertex  3.350000e+001 -7.500000e+000  4.000000e+000
      vertex  3.350000e+001 -7.500000e+000  0.000000e+000
    endloop
  endfacet
  facet normal  3.420196e-001 -9.396928e-001  0.000000e+000
    outer loop
      vertex  3.425000e+001 -6.200962e+000  4.000000e+000
      vertex  3.473953e+001 -6.022789e+000  0.000000e+000
      vertex  3.473953e+001 -6.022789e+000  4.000000e+000
    endloop
  endfacet
  facet normal  0.000000e+000 -1.000000e+000  0.000000e+000
    outer loop
      vertex  3.473953e+001 -6.022789e+000  4.000000e+000
      vertex  3.473953e+001 -6.022789e+000  0.000000e+000
      vertex  3.526047e+001 -6.022789e+000  0.000000e+000
    endloop
  endfacet
  facet normal  0.000000e+000 -1.000000e+000  0.000000e+000
    outer loop
      vertex  3.473953e+001 -6.022789e+000  4.000000e+000
      vertex  3.526047e+001 -6.022789e+000  0.000000e+000
      vertex  3.526047e+001 -6.022789e+000  4.000000e+000
    endloop
  endfacet
  facet normal -3.420196e-001 -9.396928e-001  -0.000000e+000
    outer loop
      vertex  3.526047e+001 -6.022789e+000  4.000000e+000
      vertex  3.526047e+001 -6.022789e+000  0.000000e+000
      vertex  3.575000e+001 -6.200962e+000  0.000000e+000
    endloop
  endfacet
  facet normal -3.420196e-001 -9.396928e-001  0.000000e+000
    outer loop
      vertex  3.526047e+001 -6.022789e+000  4.000000e+000
      vertex  3.575000e+001 -6.200962e+000  0.000000e+000
      vertex  3.575000e+001 -6.200962e+000  4.000000e+000
    endloop
  endfacet
  facet normal -6.427872e-001 -7.660449e-001  -0.000000e+000
    outer loop
      vertex  3.575000e+001 -6.200962e+000  4.000000e+000
      vertex  3.575000e+001 -6.200962e+000  0.000000e+000
      vertex  3.614907e+001 -6.535819e+000  0.000000e+000
    endloop
  endfacet
  facet normal -6.427872e-001 -7.660449e-001  0.000000e+000
    outer loop
      vertex  3.575000e+001 -6.200962e+000  4.000000e+000
      vertex  3.614907e+001 -6.535819e+000  0.000000e+000
      vertex  3.614907e+001 -6.535819e+000  4.000000e+000
    endloop
  endfacet
  facet normal -8.660262e-001 -4.999985e-001  -0.000000e+000
    outer loop
      vertex  3.614907e+001 -6.535819e+000  4.000000e+000
      vertex  3.614907e+001 -6.535819e+000  0.000000e+000
      vertex  3.640954e+001 -6.986970e+000  0.000000e+000
    endloop
  endfacet
  facet normal -8.660262e-001 -4.999985e-001  0.000000e+000
    outer loop
      vertex  3.614907e+001 -6.535819e+000  4.000000e+000
      vertex  3.640954e+001 -6.986970e+000  0.000000e+000
      vertex  3.640954e+001 -6.986970e+000  4.000000e+000
    endloop
  endfacet
  facet normal -9.848076e-001 -1.736495e-001  -0.000000e+000
    outer loop
      vertex  3.640954e+001 -6.986970e+000  4.000000e+000
      vertex  3.640954e+001 -6.986970e+000  0.000000e+000
      vertex  3.650000e+001 -7.500000e+000  0.000000e+000
    endloop
  endfacet
  facet normal -9.848076e-001 -1.736495e-001  0.000000e+000
    outer loop
      vertex  3.640954e+001 -6.986970e+000  4.000000e+000
      vertex  3.650000e+001 -7.500000e+000  0.000000e+000
      vertex  3.650000e+001 -7.500000e+000  4.000000e+000
    endloop
  endfacet
  facet normal  3.420196e-001 -9.396928e-001  0.000000e+000
    outer loop
      vertex -3.526047e+001 -6.022789e+000  0.000000e+000
      vertex -3.575000e+001 -6.200962e+000  4.000000e+000
      vertex -3.575000e+001 -6.200962e+000  0.000000e+000
    endloop
  endfacet
  facet normal  6.427872e-001 -7.660449e-001  0.000000e+000
    outer loop
      vertex -3.575000e+001 -6.200962e+000  0.000000e+000
      vertex -3.575000e+001 -6.200962e+000  4.000000e+000
      vertex -3.614907e+001 -6.535819e+000  4.000000e+000
    endloop
  endfacet
  facet normal  6.427872e-001 -7.660449e-001  0.000000e+000
    outer loop
      vertex -3.575000e+001 -6.200962e+000  0.000000e+000
      vertex -3.614907e+001 -6.535819e+000  4.000000e+000
      vertex -3.614907e+001 -6.535819e+000  0.000000e+000
    endloop
  endfacet
  facet normal  8.660262e-001 -4.999985e-001  0.000000e+000
    outer loop
      vertex -3.614907e+001 -6.535819e+000  0.000000e+000
      vertex -3.614907e+001 -6.535819e+000  4.000000e+000
      vertex -3.640954e+001 -6.986970e+000  4.000000e+000
    endloop
  endfacet
  facet normal  8.660262e-001 -4.999985e-001  0.000000e+000
    outer loop
      vertex -3.614907e+001 -6.535819e+000  0.000000e+000
      vertex -3.640954e+001 -6.986970e+000  4.000000e+000
      vertex -3.640954e+001 -6.986970e+000  0.000000e+000
    endloop
  endfacet
  facet normal  9.848076e-001 -1.736495e-001  0.000000e+000
    outer loop
      vertex -3.640954e+001 -6.986970e+000  0.000000e+000
      vertex -3.640954e+001 -6.986970e+000  4.000000e+000
      vertex -3.650000e+001 -7.500000e+000  4.000000e+000
    endloop
  endfacet
  facet normal  9.848076e-001 -1.736495e-001  0.000000e+000
    outer loop
      vertex -3.640954e+001 -6.986970e+000  0.000000e+000
      vertex -3.650000e+001 -7.500000e+000  4.000000e+000
      vertex -3.650000e+001 -7.500000e+000  0.000000e+000
    endloop
  endfacet
  facet normal  3.420196e-001 -9.396928e-001  0.000000e+000
    outer loop
      vertex -3.575000e+001 -6.200962e+000  4.000000e+000
      vertex -3.526047e+001 -6.022789e+000  0.000000e+000
      vertex -3.526047e+001 -6.022789e+000  4.000000e+000
    endloop
  endfacet
  facet normal  0.000000e+000 -1.000000e+000  0.000000e+000
    outer loop
      vertex -3.526047e+001 -6.022789e+000  4.000000e+000
      vertex -3.526047e+001 -6.022789e+000  0.000000e+000
      vertex -3.473953e+001 -6.022789e+000  0.000000e+000
    endloop
  endfacet
  facet normal  0.000000e+000 -1.000000e+000  0.000000e+000
    outer loop
      vertex -3.526047e+001 -6.022789e+000  4.000000e+000
      vertex -3.473953e+001 -6.022789e+000  0.000000e+000
      vertex -3.473953e+001 -6.022789e+000  4.000000e+000
    endloop
  endfacet
  facet normal -3.420196e-001 -9.396928e-001  -0.000000e+000
    outer loop
      vertex -3.473953e+001 -6.022789e+000  4.000000e+000
      vertex -3.473953e+001 -6.022789e+000  0.000000e+000
      vertex -3.425000e+001 -6.200962e+000  0.000000e+000
    endloop
  endfacet
  facet normal -3.420196e-001 -9.396928e-001  0.000000e+000
    outer loop
      vertex -3.473953e+001 -6.022789e+000  4.000000e+000
      vertex -3.425000e+001 -6.200962e+000  0.000000e+000
      vertex -3.425000e+001 -6.200962e+000  4.000000e+000
    endloop
  endfacet
  facet normal -6.427872e-001 -7.660449e-001  -0.000000e+000
    outer loop
      vertex -3.425000e+001 -6.200962e+000  4.000000e+000
      vertex -3.425000e+001 -6.200962e+000  0.000000e+000
      vertex -3.385093e+001 -6.535819e+000  0.000000e+000
    endloop
  endfacet
  facet normal -6.427872e-001 -7.660449e-001  0.000000e+000
    outer loop
      vertex -3.425000e+001 -6.200962e+000  4.000000e+000
      vertex -3.385093e+001 -6.535819e+000  0.000000e+000
      vertex -3.385093e+001 -6.535819e+000  4.000000e+000
    endloop
  endfacet
  facet normal -8.660262e-001 -4.999985e-001  -0.000000e+000
    outer loop
      vertex -3.385093e+001 -6.535819e+000  4.000000e+000
      vertex -3.385093e+001 -6.535819e+000  0.000000e+000
      vertex -3.359046e+001 -6.986970e+000  0.000000e+000
    endloop
  endfacet
  facet normal -8.660262e-001 -4.999985e-001  0.000000e+000
    outer loop
      vertex -3.385093e+001 -6.535819e+000  4.000000e+000
      vertex -3.359046e+001 -6.986970e+000  0.000000e+000
      vertex -3.359046e+001 -6.986970e+000  4.000000e+000
    endloop
  endfacet
  facet normal -9.848076e-001 -1.736495e-001  -0.000000e+000
    outer loop
      vertex -3.359046e+001 -6.986970e+000  4.000000e+000
      vertex -3.359046e+001 -6.986970e+000  0.000000e+000
      vertex -3.350000e+001 -7.500000e+000  0.000000e+000
    endloop
  endfacet
  facet normal -9.848076e-001 -1.736495e-001  0.000000e+000
    outer loop
      vertex -3.359046e+001 -6.986970e+000  4.000000e+000
      vertex -3.350000e+001 -7.500000e+000  0.000000e+000
      vertex -3.350000e+001 -7.500000e+000  4.000000e+000
    endloop
  endfacet
  facet normal -3.420204e-001  9.396926e-001  0.000000e+000
    outer loop
      vertex -3.473953e+001 -8.977212e+000  0.000000e+000
      vertex -3.425000e+001 -8.799038e+000  4.000000e+000
      vertex -3.425000e+001 -8.799038e+000  0.000000e+000
    endloop
  endfacet
  facet normal -6.427876e-001  7.660443e-001  0.000000e+000
    outer loop
      vertex -3.425000e+001 -8.799038e+000  0.000000e+000
      vertex -3.425000e+001 -8.799038e+000  4.000000e+000
      vertex -3.385093e+001 -8.464181e+000  4.000000e+000
    endloop
  endfacet
  facet normal -6.427876e-001  7.660443e-001  0.000000e+000
    outer loop
      vertex -3.425000e+001 -8.799038e+000  0.000000e+000
      vertex -3.385093e+001 -8.464181e+000  4.000000e+000
      vertex -3.385093e+001 -8.464181e+000  0.000000e+000
    endloop
  endfacet
  facet normal -8.660260e-001  4.999989e-001  0.000000e+000
    outer loop
      vertex -3.385093e+001 -8.464181e+000  0.000000e+000
      vertex -3.385093e+001 -8.464181e+000  4.000000e+000
      vertex -3.359046e+001 -8.013030e+000  4.000000e+000
    endloop
  endfacet
  facet normal -8.660260e-001  4.999989e-001  0.000000e+000
    outer loop
      vertex -3.385093e+001 -8.464181e+000  0.000000e+000
      vertex -3.359046e+001 -8.013030e+000  4.000000e+000
      vertex -3.359046e+001 -8.013030e+000  0.000000e+000
    endloop
  endfacet
  facet normal -9.848076e-001  1.736495e-001  0.000000e+000
    outer loop
      vertex -3.359046e+001 -8.013030e+000  0.000000e+000
      vertex -3.359046e+001 -8.013030e+000  4.000000e+000
      vertex -3.350000e+001 -7.500000e+000  4.000000e+000
    endloop
  endfacet
  facet normal -9.848076e-001  1.736495e-001  0.000000e+000
    outer loop
      vertex -3.359046e+001 -8.013030e+000  0.000000e+000
      vertex -3.350000e+001 -7.500000e+000  4.000000e+000
      vertex -3.350000e+001 -7.500000e+000  0.000000e+000
    endloop
  endfacet
  facet normal -3.420204e-001  9.396926e-001  0.000000e+000
    outer loop
      vertex -3.425000e+001 -8.799038e+000  4.000000e+000
      vertex -3.473953e+001 -8.977212e+000  0.000000e+000
      vertex -3.473953e+001 -8.977212e+000  4.000000e+000
    endloop
  endfacet
  facet normal  0.000000e+000  1.000000e+000  0.000000e+000
    outer loop
      vertex -3.473953e+001 -8.977212e+000  4.000000e+000
      vertex -3.473953e+001 -8.977212e+000  0.000000e+000
      vertex -3.526047e+001 -8.977212e+000  0.000000e+000
    endloop
  endfacet
  facet normal  0.000000e+000  1.000000e+000  0.000000e+000
    outer loop
      vertex -3.473953e+001 -8.977212e+000  4.000000e+000
      vertex -3.526047e+001 -8.977212e+000  0.000000e+000
      vertex -3.526047e+001 -8.977212e+000  4.000000e+000
    endloop
  endfacet
  facet normal  3.420204e-001  9.396926e-001  0.000000e+000
    outer loop
      vertex -3.526047e+001 -8.977212e+000  4.000000e+000
      vertex -3.526047e+001 -8.977212e+000  0.000000e+000
      vertex -3.575000e+001 -8.799038e+000  0.000000e+000
    endloop
  endfacet
  facet normal  3.420204e-001  9.396926e-001  -0.000000e+000
    outer loop
      vertex -3.526047e+001 -8.977212e+000  4.000000e+000
      vertex -3.575000e+001 -8.799038e+000  0.000000e+000
      vertex -3.575000e+001 -8.799038e+000  4.000000e+000
    endloop
  endfacet
  facet normal  6.427876e-001  7.660443e-001  0.000000e+000
    outer loop
      vertex -3.575000e+001 -8.799038e+000  4.000000e+000
      vertex -3.575000e+001 -8.799038e+000  0.000000e+000
      vertex -3.614907e+001 -8.464181e+000  0.000000e+000
    endloop
  endfacet
  facet normal  6.427876e-001  7.660443e-001  -0.000000e+000
    outer loop
      vertex -3.575000e+001 -8.799038e+000  4.000000e+000
      vertex -3.614907e+001 -8.464181e+000  0.000000e+000
      vertex -3.614907e+001 -8.464181e+000  4.000000e+000
    endloop
  endfacet
  facet normal  8.660260e-001  4.999989e-001  0.000000e+000
    outer loop
      vertex -3.614907e+001 -8.464181e+000  4.000000e+000
      vertex -3.614907e+001 -8.464181e+000  0.000000e+000
      vertex -3.640954e+001 -8.013030e+000  0.000000e+000
    endloop
  endfacet
  facet normal  8.660260e-001  4.999989e-001  -0.000000e+000
    outer loop
      vertex -3.614907e+001 -8.464181e+000  4.000000e+000
      vertex -3.640954e+001 -8.013030e+000  0.000000e+000
      vertex -3.640954e+001 -8.013030e+000  4.000000e+000
    endloop
  endfacet
  facet normal  9.848076e-001  1.736495e-001  0.000000e+000
    outer loop
      vertex -3.640954e+001 -8.013030e+000  4.000000e+000
      vertex -3.640954e+001 -8.013030e+000  0.000000e+000
      vertex -3.650000e+001 -7.500000e+000  0.000000e+000
    endloop
  endfacet
  facet normal  9.848076e-001  1.736495e-001  -0.000000e+000
    outer loop
      vertex -3.640954e+001 -8.013030e+000  4.000000e+000
      vertex -3.650000e+001 -7.500000e+000  0.000000e+000
      vertex -3.650000e+001 -7.500000e+000  4.000000e+000
    endloop
  endfacet
  facet normal -3.420196e-001  9.396928e-001  0.000000e+000
    outer loop
      vertex  3.526047e+001  6.022789e+000  0.000000e+000
      vertex  3.575000e+001  6.200962e+000  4.000000e+000
      vertex  3.575000e+001  6.200962e+000  0.000000e+000
    endloop
  endfacet
  facet normal -6.427872e-001  7.660449e-001  0.000000e+000
    outer loop
      vertex  3.575000e+001  6.200962e+000  0.000000e+000
      vertex  3.575000e+001  6.200962e+000  4.000000e+000
      vertex  3.614907e+001  6.535819e+000  4.000000e+000
    endloop
  endfacet
  facet normal -6.427872e-001  7.660449e-001  0.000000e+000
    outer loop
      vertex  3.575000e+001  6.200962e+000  0.000000e+000
      vertex  3.614907e+001  6.535819e+000  4.000000e+000
      vertex  3.614907e+001  6.535819e+000  0.000000e+000
    endloop
  endfacet
  facet normal -8.660262e-001  4.999985e-001  0.000000e+000
    outer loop
      vertex  3.614907e+001  6.535819e+000  0.000000e+000
      vertex  3.614907e+001  6.535819e+000  4.000000e+000
      vertex  3.640954e+001  6.986970e+000  4.000000e+000
    endloop
  endfacet
  facet normal -8.660262e-001  4.999985e-001  0.000000e+000
    outer loop
      vertex  3.614907e+001  6.535819e+000  0.000000e+000
      vertex  3.640954e+001  6.986970e+000  4.000000e+000
      vertex  3.640954e+001  6.986970e+000  0.000000e+000
    endloop
  endfacet
  facet normal -9.848076e-001  1.736495e-001  0.000000e+000
    outer loop
      vertex  3.640954e+001  6.986970e+000  0.000000e+000
      vertex  3.640954e+001  6.986970e+000  4.000000e+000
      vertex  3.650000e+001  7.500000e+000  4.000000e+000
    endloop
  endfacet
  facet normal -9.848076e-001  1.736495e-001  0.000000e+000
    outer loop
      vertex  3.640954e+001  6.986970e+000  0.000000e+000
      vertex  3.650000e+001  7.500000e+000  4.000000e+000
      vertex  3.650000e+001  7.500000e+000  0.000000e+000
    endloop
  endfacet
  facet normal -3.420196e-001  9.396928e-001  0.000000e+000
    outer loop
      vertex  3.575000e+001  6.200962e+000  4.000000e+000
      vertex  3.526047e+001  6.022789e+000  0.000000e+000
      vertex  3.526047e+001  6.022789e+000  4.000000e+000
    endloop
  endfacet
  facet normal  0.000000e+000  1.000000e+000  0.000000e+000
    outer loop
      vertex  3.526047e+001  6.022789e+000  4.000000e+000
      vertex  3.526047e+001  6.022789e+000  0.000000e+000
      vertex  3.473953e+001  6.022789e+000  0.000000e+000
    endloop
  endfacet
  facet normal  0.000000e+000  1.000000e+000  0.000000e+000
    outer loop
      vertex  3.526047e+001  6.022789e+000  4.000000e+000
      vertex  3.473953e+001  6.022789e+000  0.000000e+000
      vertex  3.473953e+001  6.022789e+000  4.000000e+000
    endloop
  endfacet
  facet normal  3.420196e-001  9.396928e-001  0.000000e+000
    outer loop
      vertex  3.473953e+001  6.022789e+000  4.000000e+000
      vertex  3.473953e+001  6.022789e+000  0.000000e+000
      vertex  3.425000e+001  6.200962e+000  0.000000e+000
    endloop
  endfacet
  facet normal  3.420196e-001  9.396928e-001  -0.000000e+000
    outer loop
      vertex  3.473953e+001  6.022789e+000  4.000000e+000
      vertex  3.425000e+001  6.200962e+000  0.000000e+000
      vertex  3.425000e+001  6.200962e+000  4.000000e+000
    endloop
  endfacet
  facet normal  6.427872e-001  7.660449e-001  0.000000e+000
    outer loop
      vertex  3.425000e+001  6.200962e+000  4.000000e+000
      vertex  3.425000e+001  6.200962e+000  0.000000e+000
      vertex  3.385093e+001  6.535819e+000  0.000000e+000
    endloop
  endfacet
  facet normal  6.427872e-001  7.660449e-001  -0.000000e+000
    outer loop
      vertex  3.425000e+001  6.200962e+000  4.000000e+000
      vertex  3.385093e+001  6.535819e+000  0.000000e+000
      vertex  3.385093e+001  6.535819e+000  4.000000e+000
    endloop
  endfacet
  facet normal  8.660262e-001  4.999985e-001  0.000000e+000
    outer loop
      vertex  3.385093e+001  6.535819e+000  4.000000e+000
      vertex  3.385093e+001  6.535819e+000  0.000000e+000
      vertex  3.359046e+001  6.986970e+000  0.000000e+000
    endloop
  endfacet
  facet normal  8.660262e-001  4.999985e-001  -0.000000e+000
    outer loop
      vertex  3.385093e+001  6.535819e+000  4.000000e+000
      vertex  3.359046e+001  6.986970e+000  0.000000e+000
      vertex  3.359046e+001  6.986970e+000  4.000000e+000
    endloop
  endfacet
  facet normal  9.848076e-001  1.736495e-001  0.000000e+000
    outer loop
      vertex  3.359046e+001  6.986970e+000  4.000000e+000
      vertex  3.359046e+001  6.986970e+000  0.000000e+000
      vertex  3.350000e+001  7.500000e+000  0.000000e+000
    endloop
  endfacet
  facet normal  9.848076e-001  1.736495e-001  -0.000000e+000
    outer loop
      vertex  3.359046e+001  6.986970e+000  4.000000e+000
      vertex  3.350000e+001  7.500000e+000  0.000000e+000
      vertex  3.350000e+001  7.500000e+000  4.000000e+000
    endloop
  endfacet
  facet normal  3.420204e-001 -9.396926e-001  0.000000e+000
    outer loop
      vertex  3.473953e+001  8.977212e+000  0.000000e+000
      vertex  3.425000e+001  8.799038e+000  4.000000e+000
      vertex  3.425000e+001  8.799038e+000  0.000000e+000
    endloop
  endfacet
  facet normal  6.427876e-001 -7.660443e-001  0.000000e+000
    outer loop
      vertex  3.425000e+001  8.799038e+000  0.000000e+000
      vertex  3.425000e+001  8.799038e+000  4.000000e+000
      vertex  3.385093e+001  8.464181e+000  4.000000e+000
    endloop
  endfacet
  facet normal  6.427876e-001 -7.660443e-001  0.000000e+000
    outer loop
      vertex  3.425000e+001  8.799038e+000  0.000000e+000
      vertex  3.385093e+001  8.464181e+000  4.000000e+000
      vertex  3.385093e+001  8.464181e+000  0.000000e+000
    endloop
  endfacet
  facet normal  8.660260e-001 -4.999989e-001  0.000000e+000
    outer loop
      vertex  3.385093e+001  8.464181e+000  0.000000e+000
      vertex  3.385093e+001  8.464181e+000  4.000000e+000
      vertex  3.359046e+001  8.013030e+000  4.000000e+000
    endloop
  endfacet
  facet normal  8.660260e-001 -4.999989e-001  0.000000e+000
    outer loop
      vertex  3.385093e+001  8.464181e+000  0.000000e+000
      vertex  3.359046e+001  8.013030e+000  4.000000e+000
      vertex  3.359046e+001  8.013030e+000  0.000000e+000
    endloop
  endfacet
  facet normal  9.848076e-001 -1.736495e-001  0.000000e+000
    outer loop
      vertex  3.359046e+001  8.013030e+000  0.000000e+000
      vertex  3.359046e+001  8.013030e+000  4.000000e+000
      vertex  3.350000e+001  7.500000e+000  4.000000e+000
    endloop
  endfacet
  facet normal  9.848076e-001 -1.736495e-001  0.000000e+000
    outer loop
      vertex  3.359046e+001  8.013030e+000  0.000000e+000
      vertex  3.350000e+001  7.500000e+000  4.000000e+000
      vertex  3.350000e+001  7.500000e+000  0.000000e+000
    endloop
  endfacet
  facet normal  3.420204e-001 -9.396926e-001  0.000000e+000
    outer loop
      vertex  3.425000e+001  8.799038e+000  4.000000e+000
      vertex  3.473953e+001  8.977212e+000  0.000000e+000
      vertex  3.473953e+001  8.977212e+000  4.000000e+000
    endloop
  endfacet
  facet normal  0.000000e+000 -1.000000e+000  0.000000e+000
    outer loop
      vertex  3.473953e+001  8.977212e+000  4.000000e+000
      vertex  3.473953e+001  8.977212e+000  0.000000e+000
      vertex  3.526047e+001  8.977212e+000  0.000000e+000
    endloop
  endfacet
  facet normal  0.000000e+000 -1.000000e+000  0.000000e+000
    outer loop
      vertex  3.473953e+001  8.977212e+000  4.000000e+000
      vertex  3.526047e+001  8.977212e+000  0.000000e+000
      vertex  3.526047e+001  8.977212e+000  4.000000e+000
    endloop
  endfacet
  facet normal -3.420204e-001 -9.396926e-001  -0.000000e+000
    outer loop
      vertex  3.526047e+001  8.977212e+000  4.000000e+000
      vertex  3.526047e+001  8.977212e+000  0.000000e+000
      vertex  3.575000e+001  8.799038e+000  0.000000e+000
    endloop
  endfacet
  facet normal -3.420204e-001 -9.396926e-001  0.000000e+000
    outer loop
      vertex  3.526047e+001  8.977212e+000  4.000000e+000
      vertex  3.575000e+001  8.799038e+000  0.000000e+000
      vertex  3.575000e+001  8.799038e+000  4.000000e+000
    endloop
  endfacet
  facet normal -6.427876e-001 -7.660443e-001  -0.000000e+000
    outer loop
      vertex  3.575000e+001  8.799038e+000  4.000000e+000
      vertex  3.575000e+001  8.799038e+000  0.000000e+000
      vertex  3.614907e+001  8.464181e+000  0.000000e+000
    endloop
  endfacet
  facet normal -6.427876e-001 -7.660443e-001  0.000000e+000
    outer loop
      vertex  3.575000e+001  8.799038e+000  4.000000e+000
      vertex  3.614907e+001  8.464181e+000  0.000000e+000
      vertex  3.614907e+001  8.464181e+000  4.000000e+000
    endloop
  endfacet
  facet normal -8.660260e-001 -4.999989e-001  -0.000000e+000
    outer loop
      vertex  3.614907e+001  8.464181e+000  4.000000e+000
      vertex  3.614907e+001  8.464181e+000  0.000000e+000
      vertex  3.640954e+001  8.013030e+000  0.000000e+000
    endloop
  endfacet
  facet normal -8.660260e-001 -4.999989e-001  0.000000e+000
    outer loop
      vertex  3.614907e+001  8.464181e+000  4.000000e+000
      vertex  3.640954e+001  8.013030e+000  0.000000e+000
      vertex  3.640954e+001  8.013030e+000  4.000000e+000
    endloop
  endfacet
  facet normal -9.848076e-001 -1.736495e-001  -0.000000e+000
    outer loop
      vertex  3.640954e+001  8.013030e+000  4.000000e+000
      vertex  3.640954e+001  8.013030e+000  0.000000e+000
      vertex  3.650000e+001  7.500000e+000  0.000000e+000
    endloop
  endfacet
  facet normal -9.848076e-001 -1.736495e-001  0.000000e+000
    outer loop
      vertex  3.640954e+001  8.013030e+000  4.000000e+000
      vertex  3.650000e+001  7.500000e+000  0.000000e+000
      vertex  3.650000e+001  7.500000e+000  4.000000e+000
    endloop
  endfacet
  facet normal  3.420204e-001 -9.396926e-001  0.000000e+000
    outer loop
      vertex -3.526047e+001  8.977212e+000  0.000000e+000
      vertex -3.575000e+001  8.799038e+000  4.000000e+000
      vertex -3.575000e+001  8.799038e+000  0.000000e+000
    endloop
  endfacet
  facet normal  6.427876e-001 -7.660443e-001  0.000000e+000
    outer loop
      vertex -3.575000e+001  8.799038e+000  0.000000e+000
      vertex -3.575000e+001  8.799038e+000  4.000000e+000
      vertex -3.614907e+001  8.464181e+000  4.000000e+000
    endloop
  endfacet
  facet normal  6.427876e-001 -7.660443e-001  0.000000e+000
    outer loop
      vertex -3.575000e+001  8.799038e+000  0.000000e+000
      vertex -3.614907e+001  8.464181e+000  4.000000e+000
      vertex -3.614907e+001  8.464181e+000  0.000000e+000
    endloop
  endfacet
  facet normal  8.660260e-001 -4.999989e-001  0.000000e+000
    outer loop
      vertex -3.614907e+001  8.464181e+000  0.000000e+000
      vertex -3.614907e+001  8.464181e+000  4.000000e+000
      vertex -3.640954e+001  8.013030e+000  4.000000e+000
    endloop
  endfacet
  facet normal  8.660260e-001 -4.999989e-001  0.000000e+000
    outer loop
      vertex -3.614907e+001  8.464181e+000  0.000000e+000
      vertex -3.640954e+001  8.013030e+000  4.000000e+000
      vertex -3.640954e+001  8.013030e+000  0.000000e+000
    endloop
  endfacet
  facet normal  9.848076e-001 -1.736495e-001  0.000000e+000
    outer loop
      vertex -3.640954e+001  8.013030e+000  0.000000e+000
      vertex -3.640954e+001  8.013030e+000  4.000000e+000
      vertex -3.650000e+001  7.500000e+000  4.000000e+000
    endloop
  endfacet
  facet normal  9.848076e-001 -1.736495e-001  0.000000e+000
    outer loop
      vertex -3.640954e+001  8.013030e+000  0.000000e+000
      vertex -3.650000e+001  7.500000e+000  4.000000e+000
      vertex -3.650000e+001  7.500000e+000  0.000000e+000
    endloop
  endfacet
  facet normal  3.420204e-001 -9.396926e-001  0.000000e+000
    outer loop
      vertex -3.575000e+001  8.799038e+000  4.000000e+000
      vertex -3.526047e+001  8.977212e+000  0.000000e+000
      vertex -3.526047e+001  8.977212e+000  4.000000e+000
    endloop
  endfacet
  facet normal  0.000000e+000 -1.000000e+000  0.000000e+000
    outer loop
      vertex -3.526047e+001  8.977212e+000  4.000000e+000
      vertex -3.526047e+001  8.977212e+000  0.000000e+000
      vertex -3.473953e+001  8.977212e+000  0.000000e+000
    endloop
  endfacet
  facet normal  0.000000e+000 -1.000000e+000  0.000000e+000
    outer loop
      vertex -3.526047e+001  8.977212e+000  4.000000e+000
      vertex -3.473953e+001  8.977212e+000  0.000000e+000
      vertex -3.473953e+001  8.977212e+000  4.000000e+000
    endloop
  endfacet
  facet normal -3.420204e-001 -9.396926e-001  -0.000000e+000
    outer loop
      vertex -3.473953e+001  8.977212e+000  4.000000e+000
      vertex -3.473953e+001  8.977212e+000  0.000000e+000
      vertex -3.425000e+001  8.799038e+000  0.000000e+000
    endloop
  endfacet
  facet normal -3.420204e-001 -9.396926e-001  0.000000e+000
    outer loop
      vertex -3.473953e+001  8.977212e+000  4.000000e+000
      vertex -3.425000e+001  8.799038e+000  0.000000e+000
      vertex -3.425000e+001  8.799038e+000  4.000000e+000
    endloop
  endfacet
  facet normal -6.427876e-001 -7.660443e-001  -0.000000e+000
    outer loop
      vertex -3.425000e+001  8.799038e+000  4.000000e+000
      vertex -3.425000e+001  8.799038e+000  0.000000e+000
      vertex -3.385093e+001  8.464181e+000  0.000000e+000
    endloop
  endfacet
  facet normal -6.427876e-001 -7.660443e-001  0.000000e+000
    outer loop
      vertex -3.425000e+001  8.799038e+000  4.000000e+000
      vertex -3.385093e+001  8.464181e+000  0.000000e+000
      vertex -3.385093e+001  8.464181e+000  4.000000e+000
    endloop
  endfacet
  facet normal -8.660260e-001 -4.999989e-001  -0.000000e+000
    outer loop
      vertex -3.385093e+001  8.464181e+000  4.000000e+000
      vertex -3.385093e+001  8.464181e+000  0.000000e+000
      vertex -3.359046e+001  8.013030e+000  0.000000e+000
    endloop
  endfacet
  facet normal -8.660260e-001 -4.999989e-001  0.000000e+000
    outer loop
      vertex -3.385093e+001  8.464181e+000  4.000000e+000
      vertex -3.359046e+001  8.013030e+000  0.000000e+000
      vertex -3.359046e+001  8.013030e+000  4.000000e+000
    endloop
  endfacet
  facet normal -9.848076e-001 -1.736495e-001  -0.000000e+000
    outer loop
      vertex -3.359046e+001  8.013030e+000  4.000000e+000
      vertex -3.359046e+001  8.013030e+000  0.000000e+000
      vertex -3.350000e+001  7.500000e+000  0.000000e+000
    endloop
  endfacet
  facet normal -9.848076e-001 -1.736495e-001  0.000000e+000
    outer loop
      vertex -3.359046e+001  8.013030e+000  4.000000e+000
      vertex -3.350000e+001  7.500000e+000  0.000000e+000
      vertex -3.350000e+001  7.500000e+000  4.000000e+000
    endloop
  endfacet
  facet normal -3.420196e-001  9.396928e-001  0.000000e+000
    outer loop
      vertex -3.473953e+001  6.022789e+000  0.000000e+000
      vertex -3.425000e+001  6.200962e+000  4.000000e+000
      vertex -3.425000e+001  6.200962e+000  0.000000e+000
    endloop
  endfacet
  facet normal -6.427872e-001  7.660449e-001  0.000000e+000
    outer loop
      vertex -3.425000e+001  6.200962e+000  0.000000e+000
      vertex -3.425000e+001  6.200962e+000  4.000000e+000
      vertex -3.385093e+001  6.535819e+000  4.000000e+000
    endloop
  endfacet
  facet normal -6.427872e-001  7.660449e-001  0.000000e+000
    outer loop
      vertex -3.425000e+001  6.200962e+000  0.000000e+000
      vertex -3.385093e+001  6.535819e+000  4.000000e+000
      vertex -3.385093e+001  6.535819e+000  0.000000e+000
    endloop
  endfacet
  facet normal -8.660262e-001  4.999985e-001  0.000000e+000
    outer loop
      vertex -3.385093e+001  6.535819e+000  0.000000e+000
      vertex -3.385093e+001  6.535819e+000  4.000000e+000
      vertex -3.359046e+001  6.986970e+000  4.000000e+000
    endloop
  endfacet
  facet normal -8.660262e-001  4.999985e-001  0.000000e+000
    outer loop
      vertex -3.385093e+001  6.535819e+000  0.000000e+000
      vertex -3.359046e+001  6.986970e+000  4.000000e+000
      vertex -3.359046e+001  6.986970e+000  0.000000e+000
    endloop
  endfacet
  facet normal -9.848076e-001  1.736495e-001  0.000000e+000
    outer loop
      vertex -3.359046e+001  6.986970e+000  0.000000e+000
      vertex -3.359046e+001  6.986970e+000  4.000000e+000
      vertex -3.350000e+001  7.500000e+000  4.000000e+000
    endloop
  endfacet
  facet normal -9.848076e-001  1.736495e-001  0.000000e+000
    outer loop
      vertex -3.359046e+001  6.986970e+000  0.000000e+000
      vertex -3.350000e+001  7.500000e+000  4.000000e+000
      vertex -3.350000e+001  7.500000e+000  0.000000e+000
    endloop
  endfacet
  facet normal -3.420196e-001  9.396928e-001  0.000000e+000
    outer loop
      vertex -3.425000e+001  6.200962e+000  4.000000e+000
      vertex -3.473953e+001  6.022789e+000  0.000000e+000
      vertex -3.473953e+001  6.022789e+000  4.000000e+000
    endloop
  endfacet
  facet normal  0.000000e+000  1.000000e+000  0.000000e+000
    outer loop
      vertex -3.473953e+001  6.022789e+000  4.000000e+000
      vertex -3.473953e+001  6.022789e+000  0.000000e+000
      vertex -3.526047e+001  6.022789e+000  0.000000e+000
    endloop
  endfacet
  facet normal  0.000000e+000  1.000000e+000  0.000000e+000
    outer loop
      vertex -3.473953e+001  6.022789e+000  4.000000e+000
      vertex -3.526047e+001  6.022789e+000  0.000000e+000
      vertex -3.526047e+001  6.022789e+000  4.000000e+000
    endloop
  endfacet
  facet normal  3.420196e-001  9.396928e-001  0.000000e+000
    outer loop
      vertex -3.526047e+001  6.022789e+000  4.000000e+000
      vertex -3.526047e+001  6.022789e+000  0.000000e+000
      vertex -3.575000e+001  6.200962e+000  0.000000e+000
    endloop
  endfacet
  facet normal  3.420196e-001  9.396928e-001  -0.000000e+000
    outer loop
      vertex -3.526047e+001  6.022789e+000  4.000000e+000
      vertex -3.575000e+001  6.200962e+000  0.000000e+000
      vertex -3.575000e+001  6.200962e+000  4.000000e+000
    endloop
  endfacet
  facet normal  6.427872e-001  7.660449e-001  0.000000e+000
    outer loop
      vertex -3.575000e+001  6.200962e+000  4.000000e+000
      vertex -3.575000e+001  6.200962e+000  0.000000e+000
      vertex -3.614907e+001  6.535819e+000  0.000000e+000
    endloop
  endfacet
  facet normal  6.427872e-001  7.660449e-001  -0.000000e+000
    outer loop
      vertex -3.575000e+001  6.200962e+000  4.000000e+000
      vertex -3.614907e+001  6.535819e+000  0.000000e+000
      vertex -3.614907e+001  6.535819e+000  4.000000e+000
    endloop
  endfacet
  facet normal  8.660262e-001  4.999985e-001  0.000000e+000
    outer loop
      vertex -3.614907e+001  6.535819e+000  4.000000e+000
      vertex -3.614907e+001  6.535819e+000  0.000000e+000
      vertex -3.640954e+001  6.986970e+000  0.000000e+000
    endloop
  endfacet
  facet normal  8.660262e-001  4.999985e-001  -0.000000e+000
    outer loop
      vertex -3.614907e+001  6.535819e+000  4.000000e+000
      vertex -3.640954e+001  6.986970e+000  0.000000e+000
      vertex -3.640954e+001  6.986970e+000  4.000000e+000
    endloop
  endfacet
  facet normal  9.848076e-001  1.736495e-001  0.000000e+000
    outer loop
      vertex -3.640954e+001  6.986970e+000  4.000000e+000
      vertex -3.640954e+001  6.986970e+000  0.000000e+000
      vertex -3.650000e+001  7.500000e+000  0.000000e+000
    endloop
  endfacet
  facet normal  9.848076e-001  1.736495e-001  -0.000000e+000
    outer loop
      vertex -3.640954e+001  6.986970e+000  4.000000e+000
      vertex -3.650000e+001  7.500000e+000  0.000000e+000
      vertex -3.650000e+001  7.500000e+000  4.000000e+000
    endloop
  endfacet
  facet normal  1.000000e+000  0.000000e+000  0.000000e+000
    outer loop
      vertex  4.000000e+001 -1.250000e+001  4.000000e+000
      vertex  4.000000e+001 -1.250000e+001  0.000000e+000
      vertex  4.000000e+001  1.250000e+001  4.000000e+000
    endloop
  endfacet
  facet normal  1.000000e+000  0.000000e+000  0.000000e+000
    outer loop
      vertex  4.000000e+001  1.250000e+001  4.000000e+000
      vertex  4.000000e+001 -1.250000e+001  0.000000e+000
      vertex  4.000000e+001  1.250000e+001  0.000000e+000
    endloop
  endfacet
  facet normal -1.000000e+000  0.000000e+000  0.000000e+000
    outer loop
      vertex -4.000000e+001  1.250000e+001  4.000000e+000
      vertex -4.000000e+001  1.250000e+001  0.000000e+000
      vertex -4.000000e+001 -1.250000e+001  4.000000e+000
    endloop
  endfacet
  facet normal -1.000000e+000  0.000000e+000  0.000000e+000
    outer loop
      vertex -4.000000e+001 -1.250000e+001  4.000000e+000
      vertex -4.000000e+001  1.250000e+001  0.000000e+000
      vertex -4.000000e+001 -1.250000e+001  0.000000e+000
    endloop
  endfacet
endsolid CATIA STL
