solid CATIA STL
  facet normal  0.000000e+000  0.000000e+000  1.000000e+000
    outer loop
      vertex  1.619285e+001 -1.088803e+002  4.001000e+000
      vertex  1.321031e+001 -1.034846e+002  4.001000e+000
      vertex  1.331585e+001 -1.040831e+002  4.001000e+000
    endloop
  endfacet
  facet normal  0.000000e+000  0.000000e+000  9.999999e-001
    outer loop
      vertex -1.244095e+001 -1.024826e+002  4.001000e+000
      vertex  6.776870e+000 -8.548213e+001  4.001000e+000
      vertex  6.472986e+000 -8.495579e+001  4.001000e+000
    endloop
  endfacet
  facet normal  0.000000e+000  0.000000e+000  1.000000e+000
    outer loop
      vertex -1.244095e+001 -1.024826e+002  4.001000e+000
      vertex  6.472986e+000 -8.495579e+001  4.001000e+000
      vertex -8.016457e+000 -8.614375e+001  4.001000e+000
    endloop
  endfacet
  facet normal  0.000000e+000  0.000000e+000  1.000000e+000
    outer loop
      vertex -1.244095e+001 -1.024826e+002  4.001000e+000
      vertex -8.016457e+000 -8.614375e+001  4.001000e+000
      vertex -8.624226e+000 -8.614375e+001  4.001000e+000
    endloop
  endfacet
  facet normal  0.000000e+000  0.000000e+000  1.000000e+000
    outer loop
      vertex -1.244095e+001 -1.024826e+002  4.001000e+000
      vertex -8.624226e+000 -8.614375e+001  4.001000e+000
      vertex -1.936800e+001 -8.539384e+001  4.001000e+000
    endloop
  endfacet
  facet normal  0.000000e+000  0.000000e+000  1.000000e+000
    outer loop
      vertex  1.381452e+001 -1.100617e+002  4.001000e+000
      vertex  1.619285e+001 -1.088803e+002  4.001000e+000
      vertex  1.331585e+001 -1.040831e+002  4.001000e+000
    endloop
  endfacet
  facet normal  0.000000e+000  0.000000e+000  9.999999e-001
    outer loop
      vertex  1.381452e+001 -1.100617e+002  4.001000e+000
      vertex  1.331585e+001 -1.040831e+002  4.001000e+000
      vertex  1.321031e+001 -1.046816e+002  4.001000e+000
    endloop
  endfacet
  facet normal  0.000000e+000  0.000000e+000  1.000000e+000
    outer loop
      vertex  1.381452e+001 -1.100617e+002  4.001000e+000
      vertex  1.321031e+001 -1.046816e+002  4.001000e+000
      vertex  1.290643e+001 -1.052080e+002  4.001000e+000
    endloop
  endfacet
  facet normal  0.000000e+000  0.000000e+000  1.000000e+000
    outer loop
      vertex  1.381452e+001 -1.100617e+002  4.001000e+000
      vertex  1.290643e+001 -1.052080e+002  4.001000e+000
      vertex  1.244085e+001 -1.055986e+002  4.001000e+000
    endloop
  endfacet
  facet normal  0.000000e+000  0.000000e+000  1.000000e+000
    outer loop
      vertex  1.381452e+001 -1.100617e+002  4.001000e+000
      vertex  1.244085e+001 -1.055986e+002  4.001000e+000
      vertex  1.186974e+001 -1.058065e+002  4.001000e+000
    endloop
  endfacet
  facet normal  0.000000e+000  0.000000e+000  1.000000e+000
    outer loop
      vertex  1.381452e+001 -1.100617e+002  4.001000e+000
      vertex  1.186974e+001 -1.058065e+002  4.001000e+000
      vertex  1.126197e+001 -1.058065e+002  4.001000e+000
    endloop
  endfacet
  facet normal  0.000000e+000  0.000000e+000  1.000000e+000
    outer loop
      vertex  1.381452e+001 -1.100617e+002  4.001000e+000
      vertex  1.126197e+001 -1.058065e+002  4.001000e+000
      vertex  0.000000e+000 -1.100617e+002  4.001000e+000
    endloop
  endfacet
  facet normal  0.000000e+000  -0.000000e+000  9.999999e-001
    outer loop
      vertex -1.619285e+001 -1.088803e+002  4.001000e+000
      vertex -1.381452e+001 -1.100617e+002  4.001000e+000
      vertex -1.290653e+001 -1.051230e+002  4.001000e+000
    endloop
  endfacet
  facet normal  0.000000e+000  0.000000e+000  9.999999e-001
    outer loop
      vertex -1.619285e+001 -1.088803e+002  4.001000e+000
      vertex -1.290653e+001 -1.051230e+002  4.001000e+000
      vertex -1.321041e+001 -1.045967e+002  4.001000e+000
    endloop
  endfacet
  facet normal  0.000000e+000  0.000000e+000  1.000000e+000
    outer loop
      vertex -1.619285e+001 -1.088803e+002  4.001000e+000
      vertex -1.321041e+001 -1.045967e+002  4.001000e+000
      vertex -1.936800e+001 -8.539384e+001  4.001000e+000
    endloop
  endfacet
  facet normal  0.000000e+000  0.000000e+000  1.000000e+000
    outer loop
      vertex  1.936800e+001 -8.539384e+001  4.001000e+000
      vertex  1.936800e+001 -5.006166e+001  4.001000e+000
      vertex  9.458026e+000 -8.323237e+001  4.001000e+000
    endloop
  endfacet
  facet normal  0.000000e+000  0.000000e+000  1.000000e+000
    outer loop
      vertex  1.936800e+001 -8.539384e+001  4.001000e+000
      vertex  9.458026e+000 -8.323237e+001  4.001000e+000
      vertex  9.761910e+000 -8.375871e+001  4.001000e+000
    endloop
  endfacet
  facet normal  0.000000e+000  0.000000e+000  9.999999e-001
    outer loop
      vertex  1.936800e+001 -8.539384e+001  4.001000e+000
      vertex  9.761910e+000 -8.375871e+001  4.001000e+000
      vertex  9.867448e+000 -8.435725e+001  4.001000e+000
    endloop
  endfacet
  facet normal  0.000000e+000  0.000000e+000  1.000000e+000
    outer loop
      vertex  1.936800e+001 -8.539384e+001  4.001000e+000
      vertex  9.867448e+000 -8.435725e+001  4.001000e+000
      vertex  9.761910e+000 -8.495579e+001  4.001000e+000
    endloop
  endfacet
  facet normal  0.000000e+000  0.000000e+000  1.000000e+000
    outer loop
      vertex  1.936800e+001 -8.539384e+001  4.001000e+000
      vertex  9.761910e+000 -8.495579e+001  4.001000e+000
      vertex  9.458026e+000 -8.548213e+001  4.001000e+000
    endloop
  endfacet
  facet normal  -0.000000e+000  0.000000e+000  1.000000e+000
    outer loop
      vertex  1.936800e+001 -8.539384e+001  4.001000e+000
      vertex  9.458026e+000 -8.548213e+001  4.001000e+000
      vertex  8.992448e+000 -8.587280e+001  4.001000e+000
    endloop
  endfacet
  facet normal  -0.000000e+000  0.000000e+000  9.999999e-001
    outer loop
      vertex  1.936800e+001 -8.539384e+001  4.001000e+000
      vertex  8.992448e+000 -8.587280e+001  4.001000e+000
      vertex  8.421332e+000 -8.608067e+001  4.001000e+000
    endloop
  endfacet
  facet normal  0.000000e+000  0.000000e+000  1.000000e+000
    outer loop
      vertex  0.000000e+000 -1.100617e+002  4.001000e+000
      vertex  1.126197e+001 -1.058065e+002  4.001000e+000
      vertex  1.069085e+001 -1.055986e+002  4.001000e+000
    endloop
  endfacet
  facet normal  0.000000e+000  0.000000e+000  1.000000e+000
    outer loop
      vertex  0.000000e+000 -1.100617e+002  4.001000e+000
      vertex  1.069085e+001 -1.055986e+002  4.001000e+000
      vertex  1.022527e+001 -1.052080e+002  4.001000e+000
    endloop
  endfacet
  facet normal  0.000000e+000  0.000000e+000  1.000000e+000
    outer loop
      vertex  0.000000e+000 -1.100617e+002  4.001000e+000
      vertex  1.022527e+001 -1.052080e+002  4.001000e+000
      vertex  9.921390e+000 -1.046816e+002  4.001000e+000
    endloop
  endfacet
  facet normal  0.000000e+000  0.000000e+000  1.000000e+000
    outer loop
      vertex  0.000000e+000 -1.100617e+002  4.001000e+000
      vertex  9.921390e+000 -1.046816e+002  4.001000e+000
      vertex  9.815852e+000 -1.040831e+002  4.001000e+000
    endloop
  endfacet
  facet normal  0.000000e+000  0.000000e+000  1.000000e+000
    outer loop
      vertex  0.000000e+000 -1.100617e+002  4.001000e+000
      vertex  9.815852e+000 -1.040831e+002  4.001000e+000
      vertex -9.921486e+000 -1.033996e+002  4.001000e+000
    endloop
  endfacet
  facet normal  0.000000e+000  0.000000e+000  9.999999e-001
    outer loop
      vertex  0.000000e+000 -1.100617e+002  4.001000e+000
      vertex -9.921486e+000 -1.033996e+002  4.001000e+000
      vertex -9.815948e+000 -1.039981e+002  4.001000e+000
    endloop
  endfacet
  facet normal  0.000000e+000  0.000000e+000  1.000000e+000
    outer loop
      vertex  0.000000e+000 -1.100617e+002  4.001000e+000
      vertex -9.815948e+000 -1.039981e+002  4.001000e+000
      vertex -9.921486e+000 -1.045967e+002  4.001000e+000
    endloop
  endfacet
  facet normal  0.000000e+000  0.000000e+000  9.999999e-001
    outer loop
      vertex  0.000000e+000 -1.100617e+002  4.001000e+000
      vertex -9.921486e+000 -1.045967e+002  4.001000e+000
      vertex -1.022537e+001 -1.051230e+002  4.001000e+000
    endloop
  endfacet
  facet normal  0.000000e+000  0.000000e+000  1.000000e+000
    outer loop
      vertex  0.000000e+000 -1.100617e+002  4.001000e+000
      vertex -1.022537e+001 -1.051230e+002  4.001000e+000
      vertex -1.381452e+001 -1.100617e+002  4.001000e+000
    endloop
  endfacet
  facet normal  -0.000000e+000  0.000000e+000  1.000000e+000
    outer loop
      vertex  1.936800e+001 -8.539384e+001  4.001000e+000
      vertex -1.022537e+001 -1.028733e+002  4.001000e+000
      vertex -9.921486e+000 -1.033996e+002  4.001000e+000
    endloop
  endfacet
  facet normal  0.000000e+000  0.000000e+000  1.000000e+000
    outer loop
      vertex  1.936800e+001 -8.539384e+001  4.001000e+000
      vertex -9.921486e+000 -1.033996e+002  4.001000e+000
      vertex  1.069085e+001 -1.025675e+002  4.001000e+000
    endloop
  endfacet
  facet normal  0.000000e+000  0.000000e+000  1.000000e+000
    outer loop
      vertex  1.936800e+001 -8.539384e+001  4.001000e+000
      vertex  1.069085e+001 -1.025675e+002  4.001000e+000
      vertex  1.126197e+001 -1.023597e+002  4.001000e+000
    endloop
  endfacet
  facet normal  0.000000e+000  0.000000e+000  1.000000e+000
    outer loop
      vertex  1.936800e+001 -8.539384e+001  4.001000e+000
      vertex  1.126197e+001 -1.023597e+002  4.001000e+000
      vertex  1.186974e+001 -1.023597e+002  4.001000e+000
    endloop
  endfacet
  facet normal  -0.000000e+000  0.000000e+000  1.000000e+000
    outer loop
      vertex  1.936800e+001 -8.539384e+001  4.001000e+000
      vertex  1.186974e+001 -1.023597e+002  4.001000e+000
      vertex  1.244085e+001 -1.025675e+002  4.001000e+000
    endloop
  endfacet
  facet normal  -0.000000e+000  0.000000e+000  1.000000e+000
    outer loop
      vertex  1.936800e+001 -8.539384e+001  4.001000e+000
      vertex  1.244085e+001 -1.025675e+002  4.001000e+000
      vertex  1.290643e+001 -1.029582e+002  4.001000e+000
    endloop
  endfacet
  facet normal  -0.000000e+000  0.000000e+000  1.000000e+000
    outer loop
      vertex  1.936800e+001 -8.539384e+001  4.001000e+000
      vertex  1.290643e+001 -1.029582e+002  4.001000e+000
      vertex  1.321031e+001 -1.034846e+002  4.001000e+000
    endloop
  endfacet
  facet normal  -0.000000e+000  0.000000e+000  1.000000e+000
    outer loop
      vertex  1.936800e+001 -8.539384e+001  4.001000e+000
      vertex  1.321031e+001 -1.034846e+002  4.001000e+000
      vertex  1.619285e+001 -1.088803e+002  4.001000e+000
    endloop
  endfacet
  facet normal  0.000000e+000  0.000000e+000  1.000000e+000
    outer loop
      vertex  6.472986e+000 -8.495579e+001  4.001000e+000
      vertex -6.675879e+000 -8.382180e+001  4.001000e+000
      vertex -6.570342e+000 -8.442033e+001  4.001000e+000
    endloop
  endfacet
  facet normal  0.000000e+000  0.000000e+000  1.000000e+000
    outer loop
      vertex  6.472986e+000 -8.495579e+001  4.001000e+000
      vertex -6.570342e+000 -8.442033e+001  4.001000e+000
      vertex -6.675879e+000 -8.501887e+001  4.001000e+000
    endloop
  endfacet
  facet normal  -0.000000e+000  0.000000e+000  1.000000e+000
    outer loop
      vertex  6.472986e+000 -8.495579e+001  4.001000e+000
      vertex -6.675879e+000 -8.501887e+001  4.001000e+000
      vertex -6.979764e+000 -8.554521e+001  4.001000e+000
    endloop
  endfacet
  facet normal  -0.000000e+000  0.000000e+000  1.000000e+000
    outer loop
      vertex  6.472986e+000 -8.495579e+001  4.001000e+000
      vertex -6.979764e+000 -8.554521e+001  4.001000e+000
      vertex -7.445342e+000 -8.593588e+001  4.001000e+000
    endloop
  endfacet
  facet normal  -0.000000e+000  0.000000e+000  1.000000e+000
    outer loop
      vertex  6.472986e+000 -8.495579e+001  4.001000e+000
      vertex -7.445342e+000 -8.593588e+001  4.001000e+000
      vertex -8.016457e+000 -8.614375e+001  4.001000e+000
    endloop
  endfacet
  facet normal  0.000000e+000  0.000000e+000  1.000000e+000
    outer loop
      vertex  6.776870e+000 -8.548213e+001  4.001000e+000
      vertex -1.244095e+001 -1.024826e+002  4.001000e+000
      vertex -1.186983e+001 -1.022747e+002  4.001000e+000
    endloop
  endfacet
  facet normal  0.000000e+000  0.000000e+000  1.000000e+000
    outer loop
      vertex  6.776870e+000 -8.548213e+001  4.001000e+000
      vertex -1.186983e+001 -1.022747e+002  4.001000e+000
      vertex -1.126206e+001 -1.022747e+002  4.001000e+000
    endloop
  endfacet
  facet normal  -0.000000e+000  0.000000e+000  9.999999e-001
    outer loop
      vertex  6.776870e+000 -8.548213e+001  4.001000e+000
      vertex -1.126206e+001 -1.022747e+002  4.001000e+000
      vertex -1.069095e+001 -1.024826e+002  4.001000e+000
    endloop
  endfacet
  facet normal  -0.000000e+000  0.000000e+000  1.000000e+000
    outer loop
      vertex  6.776870e+000 -8.548213e+001  4.001000e+000
      vertex -1.069095e+001 -1.024826e+002  4.001000e+000
      vertex -1.022537e+001 -1.028733e+002  4.001000e+000
    endloop
  endfacet
  facet normal  0.000000e+000  0.000000e+000  1.000000e+000
    outer loop
      vertex -1.022537e+001 -1.028733e+002  4.001000e+000
      vertex  1.936800e+001 -8.539384e+001  4.001000e+000
      vertex  8.421332e+000 -8.608067e+001  4.001000e+000
    endloop
  endfacet
  facet normal  0.000000e+000  0.000000e+000  1.000000e+000
    outer loop
      vertex -1.022537e+001 -1.028733e+002  4.001000e+000
      vertex  8.421332e+000 -8.608067e+001  4.001000e+000
      vertex  7.813564e+000 -8.608067e+001  4.001000e+000
    endloop
  endfacet
  facet normal  0.000000e+000  0.000000e+000  9.999999e-001
    outer loop
      vertex -1.022537e+001 -1.028733e+002  4.001000e+000
      vertex  7.813564e+000 -8.608067e+001  4.001000e+000
      vertex  7.242448e+000 -8.587280e+001  4.001000e+000
    endloop
  endfacet
  facet normal  0.000000e+000  0.000000e+000  9.999999e-001
    outer loop
      vertex -1.022537e+001 -1.028733e+002  4.001000e+000
      vertex  7.242448e+000 -8.587280e+001  4.001000e+000
      vertex  6.776870e+000 -8.548213e+001  4.001000e+000
    endloop
  endfacet
  facet normal  0.000000e+000  -0.000000e+000  1.000000e+000
    outer loop
      vertex -9.921486e+000 -1.033996e+002  4.001000e+000
      vertex  9.815852e+000 -1.040831e+002  4.001000e+000
      vertex  9.921390e+000 -1.034846e+002  4.001000e+000
    endloop
  endfacet
  facet normal  0.000000e+000  -0.000000e+000  1.000000e+000
    outer loop
      vertex -9.921486e+000 -1.033996e+002  4.001000e+000
      vertex  9.921390e+000 -1.034846e+002  4.001000e+000
      vertex  1.022527e+001 -1.029582e+002  4.001000e+000
    endloop
  endfacet
  facet normal  0.000000e+000  -0.000000e+000  1.000000e+000
    outer loop
      vertex -9.921486e+000 -1.033996e+002  4.001000e+000
      vertex  1.022527e+001 -1.029582e+002  4.001000e+000
      vertex  1.069085e+001 -1.025675e+002  4.001000e+000
    endloop
  endfacet
  facet normal  0.000000e+000  0.000000e+000  1.000000e+000
    outer loop
      vertex -1.936800e+001 -8.539384e+001  4.001000e+000
      vertex -1.321041e+001 -1.045967e+002  4.001000e+000
      vertex -1.331595e+001 -1.039981e+002  4.001000e+000
    endloop
  endfacet
  facet normal  0.000000e+000  -0.000000e+000  1.000000e+000
    outer loop
      vertex -1.936800e+001 -8.539384e+001  4.001000e+000
      vertex -1.331595e+001 -1.039981e+002  4.001000e+000
      vertex -1.321041e+001 -1.033996e+002  4.001000e+000
    endloop
  endfacet
  facet normal  0.000000e+000  -0.000000e+000  1.000000e+000
    outer loop
      vertex -1.936800e+001 -8.539384e+001  4.001000e+000
      vertex -1.321041e+001 -1.033996e+002  4.001000e+000
      vertex -1.290653e+001 -1.028733e+002  4.001000e+000
    endloop
  endfacet
  facet normal  0.000000e+000  -0.000000e+000  1.000000e+000
    outer loop
      vertex -1.936800e+001 -8.539384e+001  4.001000e+000
      vertex -1.290653e+001 -1.028733e+002  4.001000e+000
      vertex -1.244095e+001 -1.024826e+002  4.001000e+000
    endloop
  endfacet
  facet normal  0.000000e+000  0.000000e+000  1.000000e+000
    outer loop
      vertex -1.936800e+001 -8.539384e+001  4.001000e+000
      vertex -8.624226e+000 -8.614375e+001  4.001000e+000
      vertex -9.195341e+000 -8.593588e+001  4.001000e+000
    endloop
  endfacet
  facet normal  0.000000e+000  0.000000e+000  1.000000e+000
    outer loop
      vertex -1.936800e+001 -8.539384e+001  4.001000e+000
      vertex -9.195341e+000 -8.593588e+001  4.001000e+000
      vertex -9.660919e+000 -8.554521e+001  4.001000e+000
    endloop
  endfacet
  facet normal  0.000000e+000  0.000000e+000  9.999999e-001
    outer loop
      vertex -1.936800e+001 -8.539384e+001  4.001000e+000
      vertex -9.660919e+000 -8.554521e+001  4.001000e+000
      vertex -9.964804e+000 -8.501887e+001  4.001000e+000
    endloop
  endfacet
  facet normal  0.000000e+000  0.000000e+000  1.000000e+000
    outer loop
      vertex -1.936800e+001 -8.539384e+001  4.001000e+000
      vertex -9.964804e+000 -8.501887e+001  4.001000e+000
      vertex -1.007034e+001 -8.442033e+001  4.001000e+000
    endloop
  endfacet
  facet normal  0.000000e+000  -0.000000e+000  1.000000e+000
    outer loop
      vertex -1.936800e+001 -8.539384e+001  4.001000e+000
      vertex -1.007034e+001 -8.442033e+001  4.001000e+000
      vertex -9.964804e+000 -8.382180e+001  4.001000e+000
    endloop
  endfacet
  facet normal  0.000000e+000  -0.000000e+000  1.000000e+000
    outer loop
      vertex -1.936800e+001 -8.539384e+001  4.001000e+000
      vertex -9.964804e+000 -8.382180e+001  4.001000e+000
      vertex -9.660919e+000 -8.329546e+001  4.001000e+000
    endloop
  endfacet
  facet normal  0.000000e+000  -0.000000e+000  1.000000e+000
    outer loop
      vertex -1.936800e+001 -8.539384e+001  4.001000e+000
      vertex -9.660919e+000 -8.329546e+001  4.001000e+000
      vertex -9.195341e+000 -8.290479e+001  4.001000e+000
    endloop
  endfacet
  facet normal  0.000000e+000  -0.000000e+000  1.000000e+000
    outer loop
      vertex -1.936800e+001 -8.539384e+001  4.001000e+000
      vertex -9.195341e+000 -8.290479e+001  4.001000e+000
      vertex -8.624226e+000 -8.269692e+001  4.001000e+000
    endloop
  endfacet
  facet normal  0.000000e+000  0.000000e+000  1.000000e+000
    outer loop
      vertex -6.675879e+000 -8.382180e+001  4.001000e+000
      vertex  6.472986e+000 -8.495579e+001  4.001000e+000
      vertex  6.367448e+000 -8.435725e+001  4.001000e+000
    endloop
  endfacet
  facet normal  0.000000e+000  -0.000000e+000  9.999999e-001
    outer loop
      vertex -6.675879e+000 -8.382180e+001  4.001000e+000
      vertex  6.367448e+000 -8.435725e+001  4.001000e+000
      vertex  6.472986e+000 -8.375871e+001  4.001000e+000
    endloop
  endfacet
  facet normal  0.000000e+000  -0.000000e+000  1.000000e+000
    outer loop
      vertex -6.675879e+000 -8.382180e+001  4.001000e+000
      vertex  6.472986e+000 -8.375871e+001  4.001000e+000
      vertex  6.776870e+000 -8.323237e+001  4.001000e+000
    endloop
  endfacet
  facet normal  0.000000e+000  -0.000000e+000  1.000000e+000
    outer loop
      vertex -6.675879e+000 -8.382180e+001  4.001000e+000
      vertex  6.776870e+000 -8.323237e+001  4.001000e+000
      vertex  7.242448e+000 -8.284171e+001  4.001000e+000
    endloop
  endfacet
  facet normal  -0.000000e+000  0.000000e+000  1.000000e+000
    outer loop
      vertex  1.936800e+001 -5.006166e+001  4.001000e+000
      vertex -1.936800e+001 -5.006166e+001  4.001000e+000
      vertex -6.979764e+000 -8.329546e+001  4.001000e+000
    endloop
  endfacet
  facet normal  -0.000000e+000  0.000000e+000  1.000000e+000
    outer loop
      vertex  1.936800e+001 -5.006166e+001  4.001000e+000
      vertex -6.979764e+000 -8.329546e+001  4.001000e+000
      vertex -6.675879e+000 -8.382180e+001  4.001000e+000
    endloop
  endfacet
  facet normal  0.000000e+000  0.000000e+000  9.999999e-001
    outer loop
      vertex  1.936800e+001 -5.006166e+001  4.001000e+000
      vertex -6.675879e+000 -8.382180e+001  4.001000e+000
      vertex  7.242448e+000 -8.284171e+001  4.001000e+000
    endloop
  endfacet
  facet normal  0.000000e+000  0.000000e+000  1.000000e+000
    outer loop
      vertex  1.936800e+001 -5.006166e+001  4.001000e+000
      vertex  7.242448e+000 -8.284171e+001  4.001000e+000
      vertex  7.813564e+000 -8.263383e+001  4.001000e+000
    endloop
  endfacet
  facet normal  0.000000e+000  0.000000e+000  1.000000e+000
    outer loop
      vertex  1.936800e+001 -5.006166e+001  4.001000e+000
      vertex  7.813564e+000 -8.263383e+001  4.001000e+000
      vertex  8.421332e+000 -8.263383e+001  4.001000e+000
    endloop
  endfacet
  facet normal  -0.000000e+000  0.000000e+000  1.000000e+000
    outer loop
      vertex  1.936800e+001 -5.006166e+001  4.001000e+000
      vertex  8.421332e+000 -8.263383e+001  4.001000e+000
      vertex  8.992448e+000 -8.284171e+001  4.001000e+000
    endloop
  endfacet
  facet normal  -0.000000e+000  0.000000e+000  9.999999e-001
    outer loop
      vertex  1.936800e+001 -5.006166e+001  4.001000e+000
      vertex  8.992448e+000 -8.284171e+001  4.001000e+000
      vertex  9.458026e+000 -8.323237e+001  4.001000e+000
    endloop
  endfacet
  facet normal  0.000000e+000  0.000000e+000  1.000000e+000
    outer loop
      vertex -1.936800e+001 -5.006166e+001  4.001000e+000
      vertex -1.936800e+001 -8.539384e+001  4.001000e+000
      vertex -8.624226e+000 -8.269692e+001  4.001000e+000
    endloop
  endfacet
  facet normal  0.000000e+000  -0.000000e+000  1.000000e+000
    outer loop
      vertex -1.936800e+001 -5.006166e+001  4.001000e+000
      vertex -8.624226e+000 -8.269692e+001  4.001000e+000
      vertex -8.016457e+000 -8.269692e+001  4.001000e+000
    endloop
  endfacet
  facet normal  -0.000000e+000  -0.000000e+000  1.000000e+000
    outer loop
      vertex -1.936800e+001 -5.006166e+001  4.001000e+000
      vertex -8.016457e+000 -8.269692e+001  4.001000e+000
      vertex -7.445342e+000 -8.290479e+001  4.001000e+000
    endloop
  endfacet
  facet normal  -0.000000e+000  -0.000000e+000  1.000000e+000
    outer loop
      vertex -1.936800e+001 -5.006166e+001  4.001000e+000
      vertex -7.445342e+000 -8.290479e+001  4.001000e+000
      vertex -6.979764e+000 -8.329546e+001  4.001000e+000
    endloop
  endfacet
  facet normal  0.000000e+000  0.000000e+000  1.000000e+000
    outer loop
      vertex -1.381452e+001 -1.100617e+002  4.001000e+000
      vertex -1.022537e+001 -1.051230e+002  4.001000e+000
      vertex -1.069095e+001 -1.055137e+002  4.001000e+000
    endloop
  endfacet
  facet normal  0.000000e+000  0.000000e+000  9.999999e-001
    outer loop
      vertex -1.381452e+001 -1.100617e+002  4.001000e+000
      vertex -1.069095e+001 -1.055137e+002  4.001000e+000
      vertex -1.126206e+001 -1.057215e+002  4.001000e+000
    endloop
  endfacet
  facet normal  0.000000e+000  0.000000e+000  1.000000e+000
    outer loop
      vertex -1.381452e+001 -1.100617e+002  4.001000e+000
      vertex -1.126206e+001 -1.057215e+002  4.001000e+000
      vertex -1.186983e+001 -1.057215e+002  4.001000e+000
    endloop
  endfacet
  facet normal  0.000000e+000  0.000000e+000  1.000000e+000
    outer loop
      vertex -1.381452e+001 -1.100617e+002  4.001000e+000
      vertex -1.186983e+001 -1.057215e+002  4.001000e+000
      vertex -1.244095e+001 -1.055137e+002  4.001000e+000
    endloop
  endfacet
  facet normal  0.000000e+000  0.000000e+000  1.000000e+000
    outer loop
      vertex -1.381452e+001 -1.100617e+002  4.001000e+000
      vertex -1.244095e+001 -1.055137e+002  4.001000e+000
      vertex -1.290653e+001 -1.051230e+002  4.001000e+000
    endloop
  endfacet
  facet normal  1.000000e+000  0.000000e+000  0.000000e+000
    outer loop
      vertex  1.936800e+001 -8.539384e+001  4.001000e+000
      vertex  1.936800e+001 -8.539384e+001  0.000000e+000
      vertex  1.936800e+001 -5.006166e+001  4.001000e+000
    endloop
  endfacet
  facet normal  1.000000e+000  0.000000e+000  0.000000e+000
    outer loop
      vertex  1.936800e+001 -5.006166e+001  4.001000e+000
      vertex  1.936800e+001 -8.539384e+001  0.000000e+000
      vertex  1.936800e+001 -5.006166e+001  0.000000e+000
    endloop
  endfacet
  facet normal  0.000000e+000  1.000000e+000  -0.000000e+000
    outer loop
      vertex  1.936800e+001 -5.006166e+001  4.001000e+000
      vertex  1.936800e+001 -5.006166e+001  0.000000e+000
      vertex -1.936800e+001 -5.006166e+001  4.001000e+000
    endloop
  endfacet
  facet normal  0.000000e+000  1.000000e+000  0.000000e+000
    outer loop
      vertex -1.936800e+001 -5.006166e+001  4.001000e+000
      vertex  1.936800e+001 -5.006166e+001  0.000000e+000
      vertex -1.936800e+001 -5.006166e+001  0.000000e+000
    endloop
  endfacet
  facet normal -1.000000e+000  0.000000e+000  0.000000e+000
    outer loop
      vertex -1.936800e+001 -5.006166e+001  4.001000e+000
      vertex -1.936800e+001 -5.006166e+001  0.000000e+000
      vertex -1.936800e+001 -8.539384e+001  4.001000e+000
    endloop
  endfacet
  facet normal -1.000000e+000  0.000000e+000  0.000000e+000
    outer loop
      vertex -1.936800e+001 -8.539384e+001  4.001000e+000
      vertex -1.936800e+001 -5.006166e+001  0.000000e+000
      vertex -1.936800e+001 -8.539384e+001  0.000000e+000
    endloop
  endfacet
  facet normal -9.909851e-001 -1.339720e-001  0.000000e+000
    outer loop
      vertex -1.936800e+001 -8.539384e+001  4.001000e+000
      vertex -1.936800e+001 -8.539384e+001  0.000000e+000
      vertex -1.619285e+001 -1.088803e+002  4.001000e+000
    endloop
  endfacet
  facet normal -9.909851e-001 -1.339720e-001  -0.000000e+000
    outer loop
      vertex -1.619285e+001 -1.088803e+002  4.001000e+000
      vertex -1.936800e+001 -8.539384e+001  0.000000e+000
      vertex -1.619285e+001 -1.088803e+002  0.000000e+000
    endloop
  endfacet
  facet normal -4.448694e-001 -8.955954e-001  0.000000e+000
    outer loop
      vertex -1.619285e+001 -1.088803e+002  0.000000e+000
      vertex -1.381452e+001 -1.100617e+002  0.000000e+000
      vertex -1.619285e+001 -1.088803e+002  4.001000e+000
    endloop
  endfacet
  facet normal -4.448694e-001 -8.955954e-001  0.000000e+000
    outer loop
      vertex -1.619285e+001 -1.088803e+002  4.001000e+000
      vertex -1.381452e+001 -1.100617e+002  0.000000e+000
      vertex -1.381452e+001 -1.100617e+002  4.001000e+000
    endloop
  endfacet
  facet normal  0.000000e+000 -1.000000e+000  0.000000e+000
    outer loop
      vertex -1.381452e+001 -1.100617e+002  4.001000e+000
      vertex -1.381452e+001 -1.100617e+002  0.000000e+000
      vertex  0.000000e+000 -1.100617e+002  4.001000e+000
    endloop
  endfacet
  facet normal  0.000000e+000 -1.000000e+000  -0.000000e+000
    outer loop
      vertex  0.000000e+000 -1.100617e+002  4.001000e+000
      vertex -1.381452e+001 -1.100617e+002  0.000000e+000
      vertex  0.000000e+000 -1.100617e+002  0.000000e+000
    endloop
  endfacet
  facet normal  0.000000e+000 -1.000000e+000  0.000000e+000
    outer loop
      vertex  0.000000e+000 -1.100617e+002  4.001000e+000
      vertex  0.000000e+000 -1.100617e+002  0.000000e+000
      vertex  1.381452e+001 -1.100617e+002  4.001000e+000
    endloop
  endfacet
  facet normal  0.000000e+000 -1.000000e+000  -0.000000e+000
    outer loop
      vertex  1.381452e+001 -1.100617e+002  4.001000e+000
      vertex  0.000000e+000 -1.100617e+002  0.000000e+000
      vertex  1.381452e+001 -1.100617e+002  0.000000e+000
    endloop
  endfacet
  facet normal  4.448694e-001 -8.955954e-001  0.000000e+000
    outer loop
      vertex  1.619285e+001 -1.088803e+002  0.000000e+000
      vertex  1.619285e+001 -1.088803e+002  4.001000e+000
      vertex  1.381452e+001 -1.100617e+002  0.000000e+000
    endloop
  endfacet
  facet normal  4.448694e-001 -8.955954e-001  0.000000e+000
    outer loop
      vertex  1.381452e+001 -1.100617e+002  0.000000e+000
      vertex  1.619285e+001 -1.088803e+002  4.001000e+000
      vertex  1.381452e+001 -1.100617e+002  4.001000e+000
    endloop
  endfacet
  facet normal  9.909851e-001 -1.339720e-001  0.000000e+000
    outer loop
      vertex  1.936800e+001 -8.539384e+001  4.001000e+000
      vertex  1.619285e+001 -1.088803e+002  4.001000e+000
      vertex  1.936800e+001 -8.539384e+001  0.000000e+000
    endloop
  endfacet
  facet normal  9.909851e-001 -1.339720e-001  0.000000e+000
    outer loop
      vertex  1.936800e+001 -8.539384e+001  0.000000e+000
      vertex  1.619285e+001 -1.088803e+002  4.001000e+000
      vertex  1.619285e+001 -1.088803e+002  0.000000e+000
    endloop
  endfacet
  facet normal  6.427848e-001  7.660467e-001  0.000000e+000
    outer loop
      vertex  6.776870e+000 -8.548213e+001  0.000000e+000
      vertex  7.242448e+000 -8.587280e+001  4.001000e+000
      vertex  7.242448e+000 -8.587280e+001  0.000000e+000
    endloop
  endfacet
  facet normal  3.420220e-001  9.396919e-001  -0.000000e+000
    outer loop
      vertex  7.242448e+000 -8.587280e+001  0.000000e+000
      vertex  7.242448e+000 -8.587280e+001  4.001000e+000
      vertex  7.813564e+000 -8.608067e+001  4.001000e+000
    endloop
  endfacet
  facet normal  3.420220e-001  9.396919e-001  0.000000e+000
    outer loop
      vertex  7.242448e+000 -8.587280e+001  0.000000e+000
      vertex  7.813564e+000 -8.608067e+001  4.001000e+000
      vertex  7.813564e+000 -8.608067e+001  0.000000e+000
    endloop
  endfacet
  facet normal  0.000000e+000  1.000000e+000  0.000000e+000
    outer loop
      vertex  7.813564e+000 -8.608067e+001  0.000000e+000
      vertex  7.813564e+000 -8.608067e+001  4.001000e+000
      vertex  8.421332e+000 -8.608067e+001  4.001000e+000
    endloop
  endfacet
  facet normal  0.000000e+000  1.000000e+000  0.000000e+000
    outer loop
      vertex  7.813564e+000 -8.608067e+001  0.000000e+000
      vertex  8.421332e+000 -8.608067e+001  4.001000e+000
      vertex  8.421332e+000 -8.608067e+001  0.000000e+000
    endloop
  endfacet
  facet normal -3.420222e-001  9.396919e-001  0.000000e+000
    outer loop
      vertex  8.421332e+000 -8.608067e+001  0.000000e+000
      vertex  8.421332e+000 -8.608067e+001  4.001000e+000
      vertex  8.992448e+000 -8.587280e+001  4.001000e+000
    endloop
  endfacet
  facet normal -3.420222e-001  9.396919e-001  0.000000e+000
    outer loop
      vertex  8.421332e+000 -8.608067e+001  0.000000e+000
      vertex  8.992448e+000 -8.587280e+001  4.001000e+000
      vertex  8.992448e+000 -8.587280e+001  0.000000e+000
    endloop
  endfacet
  facet normal  6.427848e-001  7.660467e-001  -0.000000e+000
    outer loop
      vertex  7.242448e+000 -8.587280e+001  4.001000e+000
      vertex  6.776870e+000 -8.548213e+001  0.000000e+000
      vertex  6.776870e+000 -8.548213e+001  4.001000e+000
    endloop
  endfacet
  facet normal  8.660257e-001  4.999993e-001  0.000000e+000
    outer loop
      vertex  6.776870e+000 -8.548213e+001  4.001000e+000
      vertex  6.776870e+000 -8.548213e+001  0.000000e+000
      vertex  6.472986e+000 -8.495579e+001  0.000000e+000
    endloop
  endfacet
  facet normal  8.660257e-001  4.999993e-001  -0.000000e+000
    outer loop
      vertex  6.776870e+000 -8.548213e+001  4.001000e+000
      vertex  6.472986e+000 -8.495579e+001  0.000000e+000
      vertex  6.472986e+000 -8.495579e+001  4.001000e+000
    endloop
  endfacet
  facet normal  9.848081e-001  1.736465e-001  0.000000e+000
    outer loop
      vertex  6.472986e+000 -8.495579e+001  4.001000e+000
      vertex  6.472986e+000 -8.495579e+001  0.000000e+000
      vertex  6.367448e+000 -8.435725e+001  0.000000e+000
    endloop
  endfacet
  facet normal  9.848081e-001  1.736465e-001  -0.000000e+000
    outer loop
      vertex  6.472986e+000 -8.495579e+001  4.001000e+000
      vertex  6.367448e+000 -8.435725e+001  0.000000e+000
      vertex  6.367448e+000 -8.435725e+001  4.001000e+000
    endloop
  endfacet
  facet normal  9.848077e-001 -1.736486e-001  0.000000e+000
    outer loop
      vertex  6.367448e+000 -8.435725e+001  4.001000e+000
      vertex  6.367448e+000 -8.435725e+001  0.000000e+000
      vertex  6.472986e+000 -8.375871e+001  0.000000e+000
    endloop
  endfacet
  facet normal  9.848077e-001 -1.736486e-001  0.000000e+000
    outer loop
      vertex  6.367448e+000 -8.435725e+001  4.001000e+000
      vertex  6.472986e+000 -8.375871e+001  0.000000e+000
      vertex  6.472986e+000 -8.375871e+001  4.001000e+000
    endloop
  endfacet
  facet normal  8.660257e-001 -4.999993e-001  0.000000e+000
    outer loop
      vertex  6.472986e+000 -8.375871e+001  4.001000e+000
      vertex  6.472986e+000 -8.375871e+001  0.000000e+000
      vertex  6.776870e+000 -8.323237e+001  0.000000e+000
    endloop
  endfacet
  facet normal  8.660257e-001 -4.999993e-001  0.000000e+000
    outer loop
      vertex  6.472986e+000 -8.375871e+001  4.001000e+000
      vertex  6.776870e+000 -8.323237e+001  0.000000e+000
      vertex  6.776870e+000 -8.323237e+001  4.001000e+000
    endloop
  endfacet
  facet normal  6.427848e-001 -7.660467e-001  0.000000e+000
    outer loop
      vertex  6.776870e+000 -8.323237e+001  4.001000e+000
      vertex  6.776870e+000 -8.323237e+001  0.000000e+000
      vertex  7.242448e+000 -8.284171e+001  0.000000e+000
    endloop
  endfacet
  facet normal  6.427848e-001 -7.660467e-001  0.000000e+000
    outer loop
      vertex  6.776870e+000 -8.323237e+001  4.001000e+000
      vertex  7.242448e+000 -8.284171e+001  0.000000e+000
      vertex  7.242448e+000 -8.284171e+001  4.001000e+000
    endloop
  endfacet
  facet normal -6.427845e-001 -7.660471e-001  -0.000000e+000
    outer loop
      vertex  9.458026e+000 -8.323237e+001  0.000000e+000
      vertex  8.992448e+000 -8.284171e+001  4.001000e+000
      vertex  8.992448e+000 -8.284171e+001  0.000000e+000
    endloop
  endfacet
  facet normal -3.420222e-001 -9.396919e-001  0.000000e+000
    outer loop
      vertex  8.992448e+000 -8.284171e+001  0.000000e+000
      vertex  8.992448e+000 -8.284171e+001  4.001000e+000
      vertex  8.421332e+000 -8.263383e+001  4.001000e+000
    endloop
  endfacet
  facet normal -3.420222e-001 -9.396919e-001  -0.000000e+000
    outer loop
      vertex  8.992448e+000 -8.284171e+001  0.000000e+000
      vertex  8.421332e+000 -8.263383e+001  4.001000e+000
      vertex  8.421332e+000 -8.263383e+001  0.000000e+000
    endloop
  endfacet
  facet normal  0.000000e+000 -1.000000e+000  0.000000e+000
    outer loop
      vertex  8.421332e+000 -8.263383e+001  0.000000e+000
      vertex  8.421332e+000 -8.263383e+001  4.001000e+000
      vertex  7.813564e+000 -8.263383e+001  4.001000e+000
    endloop
  endfacet
  facet normal  0.000000e+000 -1.000000e+000  0.000000e+000
    outer loop
      vertex  8.421332e+000 -8.263383e+001  0.000000e+000
      vertex  7.813564e+000 -8.263383e+001  4.001000e+000
      vertex  7.813564e+000 -8.263383e+001  0.000000e+000
    endloop
  endfacet
  facet normal  3.420220e-001 -9.396919e-001  0.000000e+000
    outer loop
      vertex  7.813564e+000 -8.263383e+001  0.000000e+000
      vertex  7.813564e+000 -8.263383e+001  4.001000e+000
      vertex  7.242448e+000 -8.284171e+001  4.001000e+000
    endloop
  endfacet
  facet normal  3.420220e-001 -9.396919e-001  0.000000e+000
    outer loop
      vertex  7.813564e+000 -8.263383e+001  0.000000e+000
      vertex  7.242448e+000 -8.284171e+001  4.001000e+000
      vertex  7.242448e+000 -8.284171e+001  0.000000e+000
    endloop
  endfacet
  facet normal -6.427845e-001 -7.660471e-001  0.000000e+000
    outer loop
      vertex  8.992448e+000 -8.284171e+001  4.001000e+000
      vertex  9.458026e+000 -8.323237e+001  0.000000e+000
      vertex  9.458026e+000 -8.323237e+001  4.001000e+000
    endloop
  endfacet
  facet normal -8.660257e-001 -4.999993e-001  -0.000000e+000
    outer loop
      vertex  9.458026e+000 -8.323237e+001  4.001000e+000
      vertex  9.458026e+000 -8.323237e+001  0.000000e+000
      vertex  9.761910e+000 -8.375871e+001  0.000000e+000
    endloop
  endfacet
  facet normal -8.660257e-001 -4.999993e-001  0.000000e+000
    outer loop
      vertex  9.458026e+000 -8.323237e+001  4.001000e+000
      vertex  9.761910e+000 -8.375871e+001  0.000000e+000
      vertex  9.761910e+000 -8.375871e+001  4.001000e+000
    endloop
  endfacet
  facet normal -9.848078e-001 -1.736478e-001  -0.000000e+000
    outer loop
      vertex  9.761910e+000 -8.375871e+001  4.001000e+000
      vertex  9.761910e+000 -8.375871e+001  0.000000e+000
      vertex  9.867448e+000 -8.435725e+001  0.000000e+000
    endloop
  endfacet
  facet normal -9.848078e-001 -1.736478e-001  0.000000e+000
    outer loop
      vertex  9.761910e+000 -8.375871e+001  4.001000e+000
      vertex  9.867448e+000 -8.435725e+001  0.000000e+000
      vertex  9.867448e+000 -8.435725e+001  4.001000e+000
    endloop
  endfacet
  facet normal -9.848082e-001  1.736457e-001  0.000000e+000
    outer loop
      vertex  9.867448e+000 -8.435725e+001  4.001000e+000
      vertex  9.867448e+000 -8.435725e+001  0.000000e+000
      vertex  9.761910e+000 -8.495579e+001  0.000000e+000
    endloop
  endfacet
  facet normal -9.848082e-001  1.736457e-001  0.000000e+000
    outer loop
      vertex  9.867448e+000 -8.435725e+001  4.001000e+000
      vertex  9.761910e+000 -8.495579e+001  0.000000e+000
      vertex  9.761910e+000 -8.495579e+001  4.001000e+000
    endloop
  endfacet
  facet normal -8.660257e-001  4.999993e-001  0.000000e+000
    outer loop
      vertex  9.761910e+000 -8.495579e+001  4.001000e+000
      vertex  9.761910e+000 -8.495579e+001  0.000000e+000
      vertex  9.458026e+000 -8.548213e+001  0.000000e+000
    endloop
  endfacet
  facet normal -8.660257e-001  4.999993e-001  0.000000e+000
    outer loop
      vertex  9.761910e+000 -8.495579e+001  4.001000e+000
      vertex  9.458026e+000 -8.548213e+001  0.000000e+000
      vertex  9.458026e+000 -8.548213e+001  4.001000e+000
    endloop
  endfacet
  facet normal -6.427845e-001  7.660471e-001  0.000000e+000
    outer loop
      vertex  9.458026e+000 -8.548213e+001  4.001000e+000
      vertex  9.458026e+000 -8.548213e+001  0.000000e+000
      vertex  8.992448e+000 -8.587280e+001  0.000000e+000
    endloop
  endfacet
  facet normal -6.427845e-001  7.660471e-001  0.000000e+000
    outer loop
      vertex  9.458026e+000 -8.548213e+001  4.001000e+000
      vertex  8.992448e+000 -8.587280e+001  0.000000e+000
      vertex  8.992448e+000 -8.587280e+001  4.001000e+000
    endloop
  endfacet
  facet normal  6.427919e-001  7.660409e-001  0.000000e+000
    outer loop
      vertex -9.660919e+000 -8.554521e+001  0.000000e+000
      vertex -9.195341e+000 -8.593588e+001  4.001000e+000
      vertex -9.195341e+000 -8.593588e+001  0.000000e+000
    endloop
  endfacet
  facet normal  3.420222e-001  9.396919e-001  -0.000000e+000
    outer loop
      vertex -9.195341e+000 -8.593588e+001  0.000000e+000
      vertex -9.195341e+000 -8.593588e+001  4.001000e+000
      vertex -8.624226e+000 -8.614375e+001  4.001000e+000
    endloop
  endfacet
  facet normal  3.420222e-001  9.396919e-001  0.000000e+000
    outer loop
      vertex -9.195341e+000 -8.593588e+001  0.000000e+000
      vertex -8.624226e+000 -8.614375e+001  4.001000e+000
      vertex -8.624226e+000 -8.614375e+001  0.000000e+000
    endloop
  endfacet
  facet normal  0.000000e+000  1.000000e+000  0.000000e+000
    outer loop
      vertex -8.624226e+000 -8.614375e+001  0.000000e+000
      vertex -8.624226e+000 -8.614375e+001  4.001000e+000
      vertex -8.016457e+000 -8.614375e+001  4.001000e+000
    endloop
  endfacet
  facet normal  0.000000e+000  1.000000e+000  0.000000e+000
    outer loop
      vertex -8.624226e+000 -8.614375e+001  0.000000e+000
      vertex -8.016457e+000 -8.614375e+001  4.001000e+000
      vertex -8.016457e+000 -8.614375e+001  0.000000e+000
    endloop
  endfacet
  facet normal -3.420225e-001  9.396918e-001  0.000000e+000
    outer loop
      vertex -8.016457e+000 -8.614375e+001  0.000000e+000
      vertex -8.016457e+000 -8.614375e+001  4.001000e+000
      vertex -7.445342e+000 -8.593588e+001  4.001000e+000
    endloop
  endfacet
  facet normal -3.420225e-001  9.396918e-001  0.000000e+000
    outer loop
      vertex -8.016457e+000 -8.614375e+001  0.000000e+000
      vertex -7.445342e+000 -8.593588e+001  4.001000e+000
      vertex -7.445342e+000 -8.593588e+001  0.000000e+000
    endloop
  endfacet
  facet normal  6.427919e-001  7.660409e-001  -0.000000e+000
    outer loop
      vertex -9.195341e+000 -8.593588e+001  4.001000e+000
      vertex -9.660919e+000 -8.554521e+001  0.000000e+000
      vertex -9.660919e+000 -8.554521e+001  4.001000e+000
    endloop
  endfacet
  facet normal  8.660257e-001  4.999993e-001  0.000000e+000
    outer loop
      vertex -9.660919e+000 -8.554521e+001  4.001000e+000
      vertex -9.660919e+000 -8.554521e+001  0.000000e+000
      vertex -9.964804e+000 -8.501887e+001  0.000000e+000
    endloop
  endfacet
  facet normal  8.660257e-001  4.999993e-001  -0.000000e+000
    outer loop
      vertex -9.660919e+000 -8.554521e+001  4.001000e+000
      vertex -9.964804e+000 -8.501887e+001  0.000000e+000
      vertex -9.964804e+000 -8.501887e+001  4.001000e+000
    endloop
  endfacet
  facet normal  9.848078e-001  1.736478e-001  0.000000e+000
    outer loop
      vertex -9.964804e+000 -8.501887e+001  4.001000e+000
      vertex -9.964804e+000 -8.501887e+001  0.000000e+000
      vertex -1.007034e+001 -8.442033e+001  0.000000e+000
    endloop
  endfacet
  facet normal  9.848078e-001  1.736478e-001  -0.000000e+000
    outer loop
      vertex -9.964804e+000 -8.501887e+001  4.001000e+000
      vertex -1.007034e+001 -8.442033e+001  0.000000e+000
      vertex -1.007034e+001 -8.442033e+001  4.001000e+000
    endloop
  endfacet
  facet normal  9.848078e-001 -1.736478e-001  0.000000e+000
    outer loop
      vertex -1.007034e+001 -8.442033e+001  4.001000e+000
      vertex -1.007034e+001 -8.442033e+001  0.000000e+000
      vertex -9.964804e+000 -8.382180e+001  0.000000e+000
    endloop
  endfacet
  facet normal  9.848078e-001 -1.736478e-001  0.000000e+000
    outer loop
      vertex -1.007034e+001 -8.442033e+001  4.001000e+000
      vertex -9.964804e+000 -8.382180e+001  0.000000e+000
      vertex -9.964804e+000 -8.382180e+001  4.001000e+000
    endloop
  endfacet
  facet normal  8.660257e-001 -4.999993e-001  0.000000e+000
    outer loop
      vertex -9.964804e+000 -8.382180e+001  4.001000e+000
      vertex -9.964804e+000 -8.382180e+001  0.000000e+000
      vertex -9.660919e+000 -8.329546e+001  0.000000e+000
    endloop
  endfacet
  facet normal  8.660257e-001 -4.999993e-001  0.000000e+000
    outer loop
      vertex -9.964804e+000 -8.382180e+001  4.001000e+000
      vertex -9.660919e+000 -8.329546e+001  0.000000e+000
      vertex -9.660919e+000 -8.329546e+001  4.001000e+000
    endloop
  endfacet
  facet normal  6.427845e-001 -7.660471e-001  0.000000e+000
    outer loop
      vertex -9.660919e+000 -8.329546e+001  4.001000e+000
      vertex -9.660919e+000 -8.329546e+001  0.000000e+000
      vertex -9.195341e+000 -8.290479e+001  0.000000e+000
    endloop
  endfacet
  facet normal  6.427845e-001 -7.660471e-001  0.000000e+000
    outer loop
      vertex -9.660919e+000 -8.329546e+001  4.001000e+000
      vertex -9.195341e+000 -8.290479e+001  0.000000e+000
      vertex -9.195341e+000 -8.290479e+001  4.001000e+000
    endloop
  endfacet
  facet normal -6.427845e-001 -7.660471e-001  -0.000000e+000
    outer loop
      vertex -6.979764e+000 -8.329546e+001  0.000000e+000
      vertex -7.445342e+000 -8.290479e+001  4.001000e+000
      vertex -7.445342e+000 -8.290479e+001  0.000000e+000
    endloop
  endfacet
  facet normal -3.420225e-001 -9.396918e-001  0.000000e+000
    outer loop
      vertex -7.445342e+000 -8.290479e+001  0.000000e+000
      vertex -7.445342e+000 -8.290479e+001  4.001000e+000
      vertex -8.016457e+000 -8.269692e+001  4.001000e+000
    endloop
  endfacet
  facet normal -3.420225e-001 -9.396918e-001  -0.000000e+000
    outer loop
      vertex -7.445342e+000 -8.290479e+001  0.000000e+000
      vertex -8.016457e+000 -8.269692e+001  4.001000e+000
      vertex -8.016457e+000 -8.269692e+001  0.000000e+000
    endloop
  endfacet
  facet normal  0.000000e+000 -1.000000e+000  0.000000e+000
    outer loop
      vertex -8.016457e+000 -8.269692e+001  0.000000e+000
      vertex -8.016457e+000 -8.269692e+001  4.001000e+000
      vertex -8.624226e+000 -8.269692e+001  4.001000e+000
    endloop
  endfacet
  facet normal  0.000000e+000 -1.000000e+000  0.000000e+000
    outer loop
      vertex -8.016457e+000 -8.269692e+001  0.000000e+000
      vertex -8.624226e+000 -8.269692e+001  4.001000e+000
      vertex -8.624226e+000 -8.269692e+001  0.000000e+000
    endloop
  endfacet
  facet normal  3.420222e-001 -9.396919e-001  0.000000e+000
    outer loop
      vertex -8.624226e+000 -8.269692e+001  0.000000e+000
      vertex -8.624226e+000 -8.269692e+001  4.001000e+000
      vertex -9.195341e+000 -8.290479e+001  4.001000e+000
    endloop
  endfacet
  facet normal  3.420222e-001 -9.396919e-001  0.000000e+000
    outer loop
      vertex -8.624226e+000 -8.269692e+001  0.000000e+000
      vertex -9.195341e+000 -8.290479e+001  4.001000e+000
      vertex -9.195341e+000 -8.290479e+001  0.000000e+000
    endloop
  endfacet
  facet normal -6.427845e-001 -7.660471e-001  0.000000e+000
    outer loop
      vertex -7.445342e+000 -8.290479e+001  4.001000e+000
      vertex -6.979764e+000 -8.329546e+001  0.000000e+000
      vertex -6.979764e+000 -8.329546e+001  4.001000e+000
    endloop
  endfacet
  facet normal -8.660261e-001 -4.999988e-001  -0.000000e+000
    outer loop
      vertex -6.979764e+000 -8.329546e+001  4.001000e+000
      vertex -6.979764e+000 -8.329546e+001  0.000000e+000
      vertex -6.675879e+000 -8.382180e+001  0.000000e+000
    endloop
  endfacet
  facet normal -8.660261e-001 -4.999988e-001  0.000000e+000
    outer loop
      vertex -6.979764e+000 -8.329546e+001  4.001000e+000
      vertex -6.675879e+000 -8.382180e+001  0.000000e+000
      vertex -6.675879e+000 -8.382180e+001  4.001000e+000
    endloop
  endfacet
  facet normal -9.848077e-001 -1.736486e-001  -0.000000e+000
    outer loop
      vertex -6.675879e+000 -8.382180e+001  4.001000e+000
      vertex -6.675879e+000 -8.382180e+001  0.000000e+000
      vertex -6.570342e+000 -8.442033e+001  0.000000e+000
    endloop
  endfacet
  facet normal -9.848077e-001 -1.736486e-001  0.000000e+000
    outer loop
      vertex -6.675879e+000 -8.382180e+001  4.001000e+000
      vertex -6.570342e+000 -8.442033e+001  0.000000e+000
      vertex -6.570342e+000 -8.442033e+001  4.001000e+000
    endloop
  endfacet
  facet normal -9.848077e-001  1.736486e-001  0.000000e+000
    outer loop
      vertex -6.570342e+000 -8.442033e+001  4.001000e+000
      vertex -6.570342e+000 -8.442033e+001  0.000000e+000
      vertex -6.675879e+000 -8.501887e+001  0.000000e+000
    endloop
  endfacet
  facet normal -9.848077e-001  1.736486e-001  0.000000e+000
    outer loop
      vertex -6.570342e+000 -8.442033e+001  4.001000e+000
      vertex -6.675879e+000 -8.501887e+001  0.000000e+000
      vertex -6.675879e+000 -8.501887e+001  4.001000e+000
    endloop
  endfacet
  facet normal -8.660261e-001  4.999988e-001  0.000000e+000
    outer loop
      vertex -6.675879e+000 -8.501887e+001  4.001000e+000
      vertex -6.675879e+000 -8.501887e+001  0.000000e+000
      vertex -6.979764e+000 -8.554521e+001  0.000000e+000
    endloop
  endfacet
  facet normal -8.660261e-001  4.999988e-001  0.000000e+000
    outer loop
      vertex -6.675879e+000 -8.501887e+001  4.001000e+000
      vertex -6.979764e+000 -8.554521e+001  0.000000e+000
      vertex -6.979764e+000 -8.554521e+001  4.001000e+000
    endloop
  endfacet
  facet normal -6.427919e-001  7.660409e-001  0.000000e+000
    outer loop
      vertex -6.979764e+000 -8.554521e+001  4.001000e+000
      vertex -6.979764e+000 -8.554521e+001  0.000000e+000
      vertex -7.445342e+000 -8.593588e+001  0.000000e+000
    endloop
  endfacet
  facet normal -6.427919e-001  7.660409e-001  0.000000e+000
    outer loop
      vertex -6.979764e+000 -8.554521e+001  4.001000e+000
      vertex -7.445342e+000 -8.593588e+001  0.000000e+000
      vertex -7.445342e+000 -8.593588e+001  4.001000e+000
    endloop
  endfacet
  facet normal  6.427845e-001  7.660471e-001  0.000000e+000
    outer loop
      vertex -1.290653e+001 -1.051230e+002  0.000000e+000
      vertex -1.244095e+001 -1.055137e+002  4.001000e+000
      vertex -1.244095e+001 -1.055137e+002  0.000000e+000
    endloop
  endfacet
  facet normal  3.420222e-001  9.396919e-001  -0.000000e+000
    outer loop
      vertex -1.244095e+001 -1.055137e+002  0.000000e+000
      vertex -1.244095e+001 -1.055137e+002  4.001000e+000
      vertex -1.186983e+001 -1.057215e+002  4.001000e+000
    endloop
  endfacet
  facet normal  3.420222e-001  9.396919e-001  0.000000e+000
    outer loop
      vertex -1.244095e+001 -1.055137e+002  0.000000e+000
      vertex -1.186983e+001 -1.057215e+002  4.001000e+000
      vertex -1.186983e+001 -1.057215e+002  0.000000e+000
    endloop
  endfacet
  facet normal  0.000000e+000  9.999999e-001  0.000000e+000
    outer loop
      vertex -1.186983e+001 -1.057215e+002  0.000000e+000
      vertex -1.186983e+001 -1.057215e+002  4.001000e+000
      vertex -1.126206e+001 -1.057215e+002  4.001000e+000
    endloop
  endfacet
  facet normal  0.000000e+000  9.999999e-001  0.000000e+000
    outer loop
      vertex -1.186983e+001 -1.057215e+002  0.000000e+000
      vertex -1.126206e+001 -1.057215e+002  4.001000e+000
      vertex -1.126206e+001 -1.057215e+002  0.000000e+000
    endloop
  endfacet
  facet normal -3.420217e-001  9.396920e-001  0.000000e+000
    outer loop
      vertex -1.126206e+001 -1.057215e+002  0.000000e+000
      vertex -1.126206e+001 -1.057215e+002  4.001000e+000
      vertex -1.069095e+001 -1.055137e+002  4.001000e+000
    endloop
  endfacet
  facet normal -3.420217e-001  9.396920e-001  0.000000e+000
    outer loop
      vertex -1.126206e+001 -1.057215e+002  0.000000e+000
      vertex -1.069095e+001 -1.055137e+002  4.001000e+000
      vertex -1.069095e+001 -1.055137e+002  0.000000e+000
    endloop
  endfacet
  facet normal  6.427845e-001  7.660471e-001  -0.000000e+000
    outer loop
      vertex -1.244095e+001 -1.055137e+002  4.001000e+000
      vertex -1.290653e+001 -1.051230e+002  0.000000e+000
      vertex -1.290653e+001 -1.051230e+002  4.001000e+000
    endloop
  endfacet
  facet normal  8.660257e-001  4.999993e-001  0.000000e+000
    outer loop
      vertex -1.290653e+001 -1.051230e+002  4.001000e+000
      vertex -1.290653e+001 -1.051230e+002  0.000000e+000
      vertex -1.321041e+001 -1.045967e+002  0.000000e+000
    endloop
  endfacet
  facet normal  8.660257e-001  4.999993e-001  -0.000000e+000
    outer loop
      vertex -1.290653e+001 -1.051230e+002  4.001000e+000
      vertex -1.321041e+001 -1.045967e+002  0.000000e+000
      vertex -1.321041e+001 -1.045967e+002  4.001000e+000
    endloop
  endfacet
  facet normal  9.848078e-001  1.736478e-001  0.000000e+000
    outer loop
      vertex -1.321041e+001 -1.045967e+002  4.001000e+000
      vertex -1.321041e+001 -1.045967e+002  0.000000e+000
      vertex -1.331595e+001 -1.039981e+002  0.000000e+000
    endloop
  endfacet
  facet normal  9.848078e-001  1.736478e-001  -0.000000e+000
    outer loop
      vertex -1.321041e+001 -1.045967e+002  4.001000e+000
      vertex -1.331595e+001 -1.039981e+002  0.000000e+000
      vertex -1.331595e+001 -1.039981e+002  4.001000e+000
    endloop
  endfacet
  facet normal  9.848078e-001 -1.736478e-001  0.000000e+000
    outer loop
      vertex -1.331595e+001 -1.039981e+002  4.001000e+000
      vertex -1.331595e+001 -1.039981e+002  0.000000e+000
      vertex -1.321041e+001 -1.033996e+002  0.000000e+000
    endloop
  endfacet
  facet normal  9.848078e-001 -1.736478e-001  0.000000e+000
    outer loop
      vertex -1.331595e+001 -1.039981e+002  4.001000e+000
      vertex -1.321041e+001 -1.033996e+002  0.000000e+000
      vertex -1.321041e+001 -1.033996e+002  4.001000e+000
    endloop
  endfacet
  facet normal  8.660257e-001 -4.999993e-001  0.000000e+000
    outer loop
      vertex -1.321041e+001 -1.033996e+002  4.001000e+000
      vertex -1.321041e+001 -1.033996e+002  0.000000e+000
      vertex -1.290653e+001 -1.028733e+002  0.000000e+000
    endloop
  endfacet
  facet normal  8.660257e-001 -4.999993e-001  0.000000e+000
    outer loop
      vertex -1.321041e+001 -1.033996e+002  4.001000e+000
      vertex -1.290653e+001 -1.028733e+002  0.000000e+000
      vertex -1.290653e+001 -1.028733e+002  4.001000e+000
    endloop
  endfacet
  facet normal  6.427919e-001 -7.660409e-001  0.000000e+000
    outer loop
      vertex -1.290653e+001 -1.028733e+002  4.001000e+000
      vertex -1.290653e+001 -1.028733e+002  0.000000e+000
      vertex -1.244095e+001 -1.024826e+002  0.000000e+000
    endloop
  endfacet
  facet normal  6.427919e-001 -7.660409e-001  0.000000e+000
    outer loop
      vertex -1.290653e+001 -1.028733e+002  4.001000e+000
      vertex -1.244095e+001 -1.024826e+002  0.000000e+000
      vertex -1.244095e+001 -1.024826e+002  4.001000e+000
    endloop
  endfacet
  facet normal -6.427926e-001 -7.660402e-001  -0.000000e+000
    outer loop
      vertex -1.022537e+001 -1.028733e+002  0.000000e+000
      vertex -1.069095e+001 -1.024826e+002  4.001000e+000
      vertex -1.069095e+001 -1.024826e+002  0.000000e+000
    endloop
  endfacet
  facet normal -3.420217e-001 -9.396920e-001  0.000000e+000
    outer loop
      vertex -1.069095e+001 -1.024826e+002  0.000000e+000
      vertex -1.069095e+001 -1.024826e+002  4.001000e+000
      vertex -1.126206e+001 -1.022747e+002  4.001000e+000
    endloop
  endfacet
  facet normal -3.420217e-001 -9.396920e-001  -0.000000e+000
    outer loop
      vertex -1.069095e+001 -1.024826e+002  0.000000e+000
      vertex -1.126206e+001 -1.022747e+002  4.001000e+000
      vertex -1.126206e+001 -1.022747e+002  0.000000e+000
    endloop
  endfacet
  facet normal  0.000000e+000 -9.999999e-001  0.000000e+000
    outer loop
      vertex -1.126206e+001 -1.022747e+002  0.000000e+000
      vertex -1.126206e+001 -1.022747e+002  4.001000e+000
      vertex -1.186983e+001 -1.022747e+002  4.001000e+000
    endloop
  endfacet
  facet normal  0.000000e+000 -9.999999e-001  0.000000e+000
    outer loop
      vertex -1.126206e+001 -1.022747e+002  0.000000e+000
      vertex -1.186983e+001 -1.022747e+002  4.001000e+000
      vertex -1.186983e+001 -1.022747e+002  0.000000e+000
    endloop
  endfacet
  facet normal  3.420222e-001 -9.396919e-001  0.000000e+000
    outer loop
      vertex -1.186983e+001 -1.022747e+002  0.000000e+000
      vertex -1.186983e+001 -1.022747e+002  4.001000e+000
      vertex -1.244095e+001 -1.024826e+002  4.001000e+000
    endloop
  endfacet
  facet normal  3.420222e-001 -9.396919e-001  0.000000e+000
    outer loop
      vertex -1.186983e+001 -1.022747e+002  0.000000e+000
      vertex -1.244095e+001 -1.024826e+002  4.001000e+000
      vertex -1.244095e+001 -1.024826e+002  0.000000e+000
    endloop
  endfacet
  facet normal -6.427926e-001 -7.660402e-001  0.000000e+000
    outer loop
      vertex -1.069095e+001 -1.024826e+002  4.001000e+000
      vertex -1.022537e+001 -1.028733e+002  0.000000e+000
      vertex -1.022537e+001 -1.028733e+002  4.001000e+000
    endloop
  endfacet
  facet normal -8.660257e-001 -4.999993e-001  -0.000000e+000
    outer loop
      vertex -1.022537e+001 -1.028733e+002  4.001000e+000
      vertex -1.022537e+001 -1.028733e+002  0.000000e+000
      vertex -9.921486e+000 -1.033996e+002  0.000000e+000
    endloop
  endfacet
  facet normal -8.660257e-001 -4.999993e-001  0.000000e+000
    outer loop
      vertex -1.022537e+001 -1.028733e+002  4.001000e+000
      vertex -9.921486e+000 -1.033996e+002  0.000000e+000
      vertex -9.921486e+000 -1.033996e+002  4.001000e+000
    endloop
  endfacet
  facet normal -9.848075e-001 -1.736494e-001  -0.000000e+000
    outer loop
      vertex -9.921486e+000 -1.033996e+002  4.001000e+000
      vertex -9.921486e+000 -1.033996e+002  0.000000e+000
      vertex -9.815948e+000 -1.039981e+002  0.000000e+000
    endloop
  endfacet
  facet normal -9.848075e-001 -1.736494e-001  0.000000e+000
    outer loop
      vertex -9.921486e+000 -1.033996e+002  4.001000e+000
      vertex -9.815948e+000 -1.039981e+002  0.000000e+000
      vertex -9.815948e+000 -1.039981e+002  4.001000e+000
    endloop
  endfacet
  facet normal -9.848075e-001  1.736494e-001  0.000000e+000
    outer loop
      vertex -9.815948e+000 -1.039981e+002  4.001000e+000
      vertex -9.815948e+000 -1.039981e+002  0.000000e+000
      vertex -9.921486e+000 -1.045967e+002  0.000000e+000
    endloop
  endfacet
  facet normal -9.848075e-001  1.736494e-001  0.000000e+000
    outer loop
      vertex -9.815948e+000 -1.039981e+002  4.001000e+000
      vertex -9.921486e+000 -1.045967e+002  0.000000e+000
      vertex -9.921486e+000 -1.045967e+002  4.001000e+000
    endloop
  endfacet
  facet normal -8.660257e-001  4.999993e-001  0.000000e+000
    outer loop
      vertex -9.921486e+000 -1.045967e+002  4.001000e+000
      vertex -9.921486e+000 -1.045967e+002  0.000000e+000
      vertex -1.022537e+001 -1.051230e+002  0.000000e+000
    endloop
  endfacet
  facet normal -8.660257e-001  4.999993e-001  0.000000e+000
    outer loop
      vertex -9.921486e+000 -1.045967e+002  4.001000e+000
      vertex -1.022537e+001 -1.051230e+002  0.000000e+000
      vertex -1.022537e+001 -1.051230e+002  4.001000e+000
    endloop
  endfacet
  facet normal -6.427852e-001  7.660463e-001  0.000000e+000
    outer loop
      vertex -1.022537e+001 -1.051230e+002  4.001000e+000
      vertex -1.022537e+001 -1.051230e+002  0.000000e+000
      vertex -1.069095e+001 -1.055137e+002  0.000000e+000
    endloop
  endfacet
  facet normal -6.427852e-001  7.660463e-001  0.000000e+000
    outer loop
      vertex -1.022537e+001 -1.051230e+002  4.001000e+000
      vertex -1.069095e+001 -1.055137e+002  0.000000e+000
      vertex -1.069095e+001 -1.055137e+002  4.001000e+000
    endloop
  endfacet
  facet normal  6.427845e-001  7.660471e-001  0.000000e+000
    outer loop
      vertex  1.022527e+001 -1.052080e+002  0.000000e+000
      vertex  1.069085e+001 -1.055986e+002  4.001000e+000
      vertex  1.069085e+001 -1.055986e+002  0.000000e+000
    endloop
  endfacet
  facet normal  3.420222e-001  9.396919e-001  -0.000000e+000
    outer loop
      vertex  1.069085e+001 -1.055986e+002  0.000000e+000
      vertex  1.069085e+001 -1.055986e+002  4.001000e+000
      vertex  1.126197e+001 -1.058065e+002  4.001000e+000
    endloop
  endfacet
  facet normal  3.420222e-001  9.396919e-001  0.000000e+000
    outer loop
      vertex  1.069085e+001 -1.055986e+002  0.000000e+000
      vertex  1.126197e+001 -1.058065e+002  4.001000e+000
      vertex  1.126197e+001 -1.058065e+002  0.000000e+000
    endloop
  endfacet
  facet normal  0.000000e+000  1.000000e+000  0.000000e+000
    outer loop
      vertex  1.126197e+001 -1.058065e+002  0.000000e+000
      vertex  1.126197e+001 -1.058065e+002  4.001000e+000
      vertex  1.186974e+001 -1.058065e+002  4.001000e+000
    endloop
  endfacet
  facet normal  0.000000e+000  1.000000e+000  0.000000e+000
    outer loop
      vertex  1.126197e+001 -1.058065e+002  0.000000e+000
      vertex  1.186974e+001 -1.058065e+002  4.001000e+000
      vertex  1.186974e+001 -1.058065e+002  0.000000e+000
    endloop
  endfacet
  facet normal -3.420222e-001  9.396919e-001  0.000000e+000
    outer loop
      vertex  1.186974e+001 -1.058065e+002  0.000000e+000
      vertex  1.186974e+001 -1.058065e+002  4.001000e+000
      vertex  1.244085e+001 -1.055986e+002  4.001000e+000
    endloop
  endfacet
  facet normal -3.420222e-001  9.396919e-001  0.000000e+000
    outer loop
      vertex  1.186974e+001 -1.058065e+002  0.000000e+000
      vertex  1.244085e+001 -1.055986e+002  4.001000e+000
      vertex  1.244085e+001 -1.055986e+002  0.000000e+000
    endloop
  endfacet
  facet normal  6.427845e-001  7.660471e-001  -0.000000e+000
    outer loop
      vertex  1.069085e+001 -1.055986e+002  4.001000e+000
      vertex  1.022527e+001 -1.052080e+002  0.000000e+000
      vertex  1.022527e+001 -1.052080e+002  4.001000e+000
    endloop
  endfacet
  facet normal  8.660257e-001  4.999993e-001  0.000000e+000
    outer loop
      vertex  1.022527e+001 -1.052080e+002  4.001000e+000
      vertex  1.022527e+001 -1.052080e+002  0.000000e+000
      vertex  9.921390e+000 -1.046816e+002  0.000000e+000
    endloop
  endfacet
  facet normal  8.660257e-001  4.999993e-001  -0.000000e+000
    outer loop
      vertex  1.022527e+001 -1.052080e+002  4.001000e+000
      vertex  9.921390e+000 -1.046816e+002  0.000000e+000
      vertex  9.921390e+000 -1.046816e+002  4.001000e+000
    endloop
  endfacet
  facet normal  9.848078e-001  1.736478e-001  0.000000e+000
    outer loop
      vertex  9.921390e+000 -1.046816e+002  4.001000e+000
      vertex  9.921390e+000 -1.046816e+002  0.000000e+000
      vertex  9.815852e+000 -1.040831e+002  0.000000e+000
    endloop
  endfacet
  facet normal  9.848078e-001  1.736478e-001  -0.000000e+000
    outer loop
      vertex  9.921390e+000 -1.046816e+002  4.001000e+000
      vertex  9.815852e+000 -1.040831e+002  0.000000e+000
      vertex  9.815852e+000 -1.040831e+002  4.001000e+000
    endloop
  endfacet
  facet normal  9.848078e-001 -1.736478e-001  0.000000e+000
    outer loop
      vertex  9.815852e+000 -1.040831e+002  4.001000e+000
      vertex  9.815852e+000 -1.040831e+002  0.000000e+000
      vertex  9.921390e+000 -1.034846e+002  0.000000e+000
    endloop
  endfacet
  facet normal  9.848078e-001 -1.736478e-001  0.000000e+000
    outer loop
      vertex  9.815852e+000 -1.040831e+002  4.001000e+000
      vertex  9.921390e+000 -1.034846e+002  0.000000e+000
      vertex  9.921390e+000 -1.034846e+002  4.001000e+000
    endloop
  endfacet
  facet normal  8.660257e-001 -4.999993e-001  0.000000e+000
    outer loop
      vertex  9.921390e+000 -1.034846e+002  4.001000e+000
      vertex  9.921390e+000 -1.034846e+002  0.000000e+000
      vertex  1.022527e+001 -1.029582e+002  0.000000e+000
    endloop
  endfacet
  facet normal  8.660257e-001 -4.999993e-001  0.000000e+000
    outer loop
      vertex  9.921390e+000 -1.034846e+002  4.001000e+000
      vertex  1.022527e+001 -1.029582e+002  0.000000e+000
      vertex  1.022527e+001 -1.029582e+002  4.001000e+000
    endloop
  endfacet
  facet normal  6.427919e-001 -7.660409e-001  0.000000e+000
    outer loop
      vertex  1.022527e+001 -1.029582e+002  4.001000e+000
      vertex  1.022527e+001 -1.029582e+002  0.000000e+000
      vertex  1.069085e+001 -1.025675e+002  0.000000e+000
    endloop
  endfacet
  facet normal  6.427919e-001 -7.660409e-001  0.000000e+000
    outer loop
      vertex  1.022527e+001 -1.029582e+002  4.001000e+000
      vertex  1.069085e+001 -1.025675e+002  0.000000e+000
      vertex  1.069085e+001 -1.025675e+002  4.001000e+000
    endloop
  endfacet
  facet normal -6.427919e-001 -7.660409e-001  -0.000000e+000
    outer loop
      vertex  1.290643e+001 -1.029582e+002  0.000000e+000
      vertex  1.244085e+001 -1.025675e+002  4.001000e+000
      vertex  1.244085e+001 -1.025675e+002  0.000000e+000
    endloop
  endfacet
  facet normal -3.420112e-001 -9.396959e-001  0.000000e+000
    outer loop
      vertex  1.244085e+001 -1.025675e+002  0.000000e+000
      vertex  1.244085e+001 -1.025675e+002  4.001000e+000
      vertex  1.186974e+001 -1.023597e+002  4.001000e+000
    endloop
  endfacet
  facet normal -3.420112e-001 -9.396959e-001  -0.000000e+000
    outer loop
      vertex  1.244085e+001 -1.025675e+002  0.000000e+000
      vertex  1.186974e+001 -1.023597e+002  4.001000e+000
      vertex  1.186974e+001 -1.023597e+002  0.000000e+000
    endloop
  endfacet
  facet normal  0.000000e+000 -1.000000e+000  0.000000e+000
    outer loop
      vertex  1.186974e+001 -1.023597e+002  0.000000e+000
      vertex  1.186974e+001 -1.023597e+002  4.001000e+000
      vertex  1.126197e+001 -1.023597e+002  4.001000e+000
    endloop
  endfacet
  facet normal  0.000000e+000 -1.000000e+000  0.000000e+000
    outer loop
      vertex  1.186974e+001 -1.023597e+002  0.000000e+000
      vertex  1.126197e+001 -1.023597e+002  4.001000e+000
      vertex  1.126197e+001 -1.023597e+002  0.000000e+000
    endloop
  endfacet
  facet normal  3.420112e-001 -9.396959e-001  0.000000e+000
    outer loop
      vertex  1.126197e+001 -1.023597e+002  0.000000e+000
      vertex  1.126197e+001 -1.023597e+002  4.001000e+000
      vertex  1.069085e+001 -1.025675e+002  4.001000e+000
    endloop
  endfacet
  facet normal  3.420112e-001 -9.396959e-001  0.000000e+000
    outer loop
      vertex  1.126197e+001 -1.023597e+002  0.000000e+000
      vertex  1.069085e+001 -1.025675e+002  4.001000e+000
      vertex  1.069085e+001 -1.025675e+002  0.000000e+000
    endloop
  endfacet
  facet normal -6.427919e-001 -7.660409e-001  0.000000e+000
    outer loop
      vertex  1.244085e+001 -1.025675e+002  4.001000e+000
      vertex  1.290643e+001 -1.029582e+002  0.000000e+000
      vertex  1.290643e+001 -1.029582e+002  4.001000e+000
    endloop
  endfacet
  facet normal -8.660264e-001 -4.999982e-001  -0.000000e+000
    outer loop
      vertex  1.290643e+001 -1.029582e+002  4.001000e+000
      vertex  1.290643e+001 -1.029582e+002  0.000000e+000
      vertex  1.321031e+001 -1.034846e+002  0.000000e+000
    endloop
  endfacet
  facet normal -8.660264e-001 -4.999982e-001  0.000000e+000
    outer loop
      vertex  1.290643e+001 -1.029582e+002  4.001000e+000
      vertex  1.321031e+001 -1.034846e+002  0.000000e+000
      vertex  1.321031e+001 -1.034846e+002  4.001000e+000
    endloop
  endfacet
  facet normal -9.848075e-001 -1.736494e-001  -0.000000e+000
    outer loop
      vertex  1.321031e+001 -1.034846e+002  4.001000e+000
      vertex  1.321031e+001 -1.034846e+002  0.000000e+000
      vertex  1.331585e+001 -1.040831e+002  0.000000e+000
    endloop
  endfacet
  facet normal -9.848075e-001 -1.736494e-001  0.000000e+000
    outer loop
      vertex  1.321031e+001 -1.034846e+002  4.001000e+000
      vertex  1.331585e+001 -1.040831e+002  0.000000e+000
      vertex  1.331585e+001 -1.040831e+002  4.001000e+000
    endloop
  endfacet
  facet normal -9.848075e-001  1.736494e-001  0.000000e+000
    outer loop
      vertex  1.331585e+001 -1.040831e+002  4.001000e+000
      vertex  1.331585e+001 -1.040831e+002  0.000000e+000
      vertex  1.321031e+001 -1.046816e+002  0.000000e+000
    endloop
  endfacet
  facet normal -9.848075e-001  1.736494e-001  0.000000e+000
    outer loop
      vertex  1.331585e+001 -1.040831e+002  4.001000e+000
      vertex  1.321031e+001 -1.046816e+002  0.000000e+000
      vertex  1.321031e+001 -1.046816e+002  4.001000e+000
    endloop
  endfacet
  facet normal -8.660264e-001  4.999982e-001  0.000000e+000
    outer loop
      vertex  1.321031e+001 -1.046816e+002  4.001000e+000
      vertex  1.321031e+001 -1.046816e+002  0.000000e+000
      vertex  1.290643e+001 -1.052080e+002  0.000000e+000
    endloop
  endfacet
  facet normal -8.660264e-001  4.999982e-001  0.000000e+000
    outer loop
      vertex  1.321031e+001 -1.046816e+002  4.001000e+000
      vertex  1.290643e+001 -1.052080e+002  0.000000e+000
      vertex  1.290643e+001 -1.052080e+002  4.001000e+000
    endloop
  endfacet
  facet normal -6.427845e-001  7.660471e-001  0.000000e+000
    outer loop
      vertex  1.290643e+001 -1.052080e+002  4.001000e+000
      vertex  1.290643e+001 -1.052080e+002  0.000000e+000
      vertex  1.244085e+001 -1.055986e+002  0.000000e+000
    endloop
  endfacet
  facet normal -6.427845e-001  7.660471e-001  0.000000e+000
    outer loop
      vertex  1.290643e+001 -1.052080e+002  4.001000e+000
      vertex  1.244085e+001 -1.055986e+002  0.000000e+000
      vertex  1.244085e+001 -1.055986e+002  4.001000e+000
    endloop
  endfacet
  facet normal  0.000000e+000  -0.000000e+000 -1.000000e+000
    outer loop
      vertex -1.381452e+001 -1.100617e+002  0.000000e+000
      vertex -1.126206e+001 -1.057215e+002  0.000000e+000
      vertex -1.069095e+001 -1.055137e+002  0.000000e+000
    endloop
  endfacet
  facet normal  0.000000e+000  0.000000e+000 -1.000000e+000
    outer loop
      vertex  0.000000e+000 -1.100617e+002  0.000000e+000
      vertex -1.381452e+001 -1.100617e+002  0.000000e+000
      vertex -1.069095e+001 -1.055137e+002  0.000000e+000
    endloop
  endfacet
  facet normal  0.000000e+000  0.000000e+000 -1.000000e+000
    outer loop
      vertex  0.000000e+000 -1.100617e+002  0.000000e+000
      vertex -1.069095e+001 -1.055137e+002  0.000000e+000
      vertex -1.022537e+001 -1.051230e+002  0.000000e+000
    endloop
  endfacet
  facet normal  0.000000e+000  0.000000e+000 -9.999999e-001
    outer loop
      vertex  0.000000e+000 -1.100617e+002  0.000000e+000
      vertex -1.022537e+001 -1.051230e+002  0.000000e+000
      vertex -9.921486e+000 -1.045967e+002  0.000000e+000
    endloop
  endfacet
  facet normal  0.000000e+000  0.000000e+000 -9.999999e-001
    outer loop
      vertex  0.000000e+000 -1.100617e+002  0.000000e+000
      vertex -9.921486e+000 -1.045967e+002  0.000000e+000
      vertex -9.815948e+000 -1.039981e+002  0.000000e+000
    endloop
  endfacet
  facet normal  0.000000e+000  0.000000e+000 -1.000000e+000
    outer loop
      vertex  0.000000e+000 -1.100617e+002  0.000000e+000
      vertex -9.815948e+000 -1.039981e+002  0.000000e+000
      vertex -8.624226e+000 -8.614375e+001  0.000000e+000
    endloop
  endfacet
  facet normal  0.000000e+000  0.000000e+000 -1.000000e+000
    outer loop
      vertex  0.000000e+000 -1.100617e+002  0.000000e+000
      vertex -8.624226e+000 -8.614375e+001  0.000000e+000
      vertex -8.016457e+000 -8.614375e+001  0.000000e+000
    endloop
  endfacet
  facet normal  0.000000e+000  0.000000e+000 -1.000000e+000
    outer loop
      vertex  0.000000e+000 -1.100617e+002  0.000000e+000
      vertex -8.016457e+000 -8.614375e+001  0.000000e+000
      vertex  7.813564e+000 -8.608067e+001  0.000000e+000
    endloop
  endfacet
  facet normal  0.000000e+000  -0.000000e+000 -1.000000e+000
    outer loop
      vertex  0.000000e+000 -1.100617e+002  0.000000e+000
      vertex  7.813564e+000 -8.608067e+001  0.000000e+000
      vertex  8.421332e+000 -8.608067e+001  0.000000e+000
    endloop
  endfacet
  facet normal  0.000000e+000  -0.000000e+000 -1.000000e+000
    outer loop
      vertex  0.000000e+000 -1.100617e+002  0.000000e+000
      vertex  8.421332e+000 -8.608067e+001  0.000000e+000
      vertex  9.921390e+000 -1.034846e+002  0.000000e+000
    endloop
  endfacet
  facet normal  0.000000e+000  0.000000e+000 -9.999999e-001
    outer loop
      vertex  0.000000e+000 -1.100617e+002  0.000000e+000
      vertex  9.921390e+000 -1.034846e+002  0.000000e+000
      vertex  9.815852e+000 -1.040831e+002  0.000000e+000
    endloop
  endfacet
  facet normal  0.000000e+000  -0.000000e+000 -1.000000e+000
    outer loop
      vertex  0.000000e+000 -1.100617e+002  0.000000e+000
      vertex  9.815852e+000 -1.040831e+002  0.000000e+000
      vertex  9.921390e+000 -1.046816e+002  0.000000e+000
    endloop
  endfacet
  facet normal  0.000000e+000  -0.000000e+000 -1.000000e+000
    outer loop
      vertex  0.000000e+000 -1.100617e+002  0.000000e+000
      vertex  9.921390e+000 -1.046816e+002  0.000000e+000
      vertex  1.022527e+001 -1.052080e+002  0.000000e+000
    endloop
  endfacet
  facet normal  0.000000e+000  -0.000000e+000 -1.000000e+000
    outer loop
      vertex  0.000000e+000 -1.100617e+002  0.000000e+000
      vertex  1.022527e+001 -1.052080e+002  0.000000e+000
      vertex  1.069085e+001 -1.055986e+002  0.000000e+000
    endloop
  endfacet
  facet normal  0.000000e+000  -0.000000e+000 -1.000000e+000
    outer loop
      vertex  0.000000e+000 -1.100617e+002  0.000000e+000
      vertex  1.069085e+001 -1.055986e+002  0.000000e+000
      vertex  1.126197e+001 -1.058065e+002  0.000000e+000
    endloop
  endfacet
  facet normal  0.000000e+000  -0.000000e+000 -1.000000e+000
    outer loop
      vertex  0.000000e+000 -1.100617e+002  0.000000e+000
      vertex  1.126197e+001 -1.058065e+002  0.000000e+000
      vertex  1.186974e+001 -1.058065e+002  0.000000e+000
    endloop
  endfacet
  facet normal  0.000000e+000  -0.000000e+000 -1.000000e+000
    outer loop
      vertex  0.000000e+000 -1.100617e+002  0.000000e+000
      vertex  1.186974e+001 -1.058065e+002  0.000000e+000
      vertex  1.619285e+001 -1.088803e+002  0.000000e+000
    endloop
  endfacet
  facet normal  0.000000e+000  0.000000e+000 -1.000000e+000
    outer loop
      vertex  0.000000e+000 -1.100617e+002  0.000000e+000
      vertex  1.619285e+001 -1.088803e+002  0.000000e+000
      vertex  1.381452e+001 -1.100617e+002  0.000000e+000
    endloop
  endfacet
  facet normal  0.000000e+000  0.000000e+000 -1.000000e+000
    outer loop
      vertex -1.936800e+001 -5.006166e+001  0.000000e+000
      vertex  9.458026e+000 -8.323237e+001  0.000000e+000
      vertex  8.992448e+000 -8.284171e+001  0.000000e+000
    endloop
  endfacet
  facet normal  0.000000e+000  0.000000e+000 -1.000000e+000
    outer loop
      vertex -1.936800e+001 -5.006166e+001  0.000000e+000
      vertex  8.992448e+000 -8.284171e+001  0.000000e+000
      vertex  8.421332e+000 -8.263383e+001  0.000000e+000
    endloop
  endfacet
  facet normal  0.000000e+000  0.000000e+000 -1.000000e+000
    outer loop
      vertex -1.936800e+001 -5.006166e+001  0.000000e+000
      vertex  8.421332e+000 -8.263383e+001  0.000000e+000
      vertex  7.813564e+000 -8.263383e+001  0.000000e+000
    endloop
  endfacet
  facet normal  -0.000000e+000  0.000000e+000 -9.999999e-001
    outer loop
      vertex -1.936800e+001 -5.006166e+001  0.000000e+000
      vertex  7.813564e+000 -8.263383e+001  0.000000e+000
      vertex -8.016457e+000 -8.269692e+001  0.000000e+000
    endloop
  endfacet
  facet normal  0.000000e+000  0.000000e+000 -1.000000e+000
    outer loop
      vertex -1.936800e+001 -5.006166e+001  0.000000e+000
      vertex -8.016457e+000 -8.269692e+001  0.000000e+000
      vertex -8.624226e+000 -8.269692e+001  0.000000e+000
    endloop
  endfacet
  facet normal  -0.000000e+000  0.000000e+000 -1.000000e+000
    outer loop
      vertex -1.936800e+001 -5.006166e+001  0.000000e+000
      vertex -8.624226e+000 -8.269692e+001  0.000000e+000
      vertex -9.195341e+000 -8.290479e+001  0.000000e+000
    endloop
  endfacet
  facet normal  -0.000000e+000  0.000000e+000 -1.000000e+000
    outer loop
      vertex -1.936800e+001 -5.006166e+001  0.000000e+000
      vertex -9.195341e+000 -8.290479e+001  0.000000e+000
      vertex -9.660919e+000 -8.329546e+001  0.000000e+000
    endloop
  endfacet
  facet normal  -0.000000e+000  0.000000e+000 -1.000000e+000
    outer loop
      vertex -1.936800e+001 -5.006166e+001  0.000000e+000
      vertex -9.660919e+000 -8.329546e+001  0.000000e+000
      vertex -9.964804e+000 -8.382180e+001  0.000000e+000
    endloop
  endfacet
  facet normal  -0.000000e+000  0.000000e+000 -1.000000e+000
    outer loop
      vertex -1.936800e+001 -5.006166e+001  0.000000e+000
      vertex -9.964804e+000 -8.382180e+001  0.000000e+000
      vertex -1.007034e+001 -8.442033e+001  0.000000e+000
    endloop
  endfacet
  facet normal  -0.000000e+000  0.000000e+000 -1.000000e+000
    outer loop
      vertex -1.936800e+001 -5.006166e+001  0.000000e+000
      vertex -1.007034e+001 -8.442033e+001  0.000000e+000
      vertex -1.126206e+001 -1.022747e+002  0.000000e+000
    endloop
  endfacet
  facet normal  0.000000e+000  0.000000e+000 -1.000000e+000
    outer loop
      vertex -1.936800e+001 -5.006166e+001  0.000000e+000
      vertex -1.126206e+001 -1.022747e+002  0.000000e+000
      vertex -1.186983e+001 -1.022747e+002  0.000000e+000
    endloop
  endfacet
  facet normal  0.000000e+000  0.000000e+000 -1.000000e+000
    outer loop
      vertex -1.936800e+001 -5.006166e+001  0.000000e+000
      vertex -1.186983e+001 -1.022747e+002  0.000000e+000
      vertex -1.936800e+001 -8.539384e+001  0.000000e+000
    endloop
  endfacet
  facet normal  0.000000e+000  0.000000e+000 -1.000000e+000
    outer loop
      vertex  1.126197e+001 -1.023597e+002  0.000000e+000
      vertex  8.421332e+000 -8.608067e+001  0.000000e+000
      vertex  8.992448e+000 -8.587280e+001  0.000000e+000
    endloop
  endfacet
  facet normal  0.000000e+000  0.000000e+000 -1.000000e+000
    outer loop
      vertex  1.126197e+001 -1.023597e+002  0.000000e+000
      vertex  8.992448e+000 -8.587280e+001  0.000000e+000
      vertex  9.458026e+000 -8.548213e+001  0.000000e+000
    endloop
  endfacet
  facet normal  0.000000e+000  0.000000e+000 -1.000000e+000
    outer loop
      vertex  1.126197e+001 -1.023597e+002  0.000000e+000
      vertex  9.458026e+000 -8.548213e+001  0.000000e+000
      vertex  9.761910e+000 -8.495579e+001  0.000000e+000
    endloop
  endfacet
  facet normal  0.000000e+000  0.000000e+000 -1.000000e+000
    outer loop
      vertex  1.126197e+001 -1.023597e+002  0.000000e+000
      vertex  9.761910e+000 -8.495579e+001  0.000000e+000
      vertex  9.867448e+000 -8.435725e+001  0.000000e+000
    endloop
  endfacet
  facet normal  0.000000e+000  -0.000000e+000 -1.000000e+000
    outer loop
      vertex  9.867448e+000 -8.435725e+001  0.000000e+000
      vertex  1.936800e+001 -5.006166e+001  0.000000e+000
      vertex  1.936800e+001 -8.539384e+001  0.000000e+000
    endloop
  endfacet
  facet normal  -0.000000e+000  0.000000e+000 -9.999999e-001
    outer loop
      vertex  9.867448e+000 -8.435725e+001  0.000000e+000
      vertex  1.936800e+001 -8.539384e+001  0.000000e+000
      vertex  1.186974e+001 -1.023597e+002  0.000000e+000
    endloop
  endfacet
  facet normal  0.000000e+000  0.000000e+000 -1.000000e+000
    outer loop
      vertex  9.867448e+000 -8.435725e+001  0.000000e+000
      vertex  1.186974e+001 -1.023597e+002  0.000000e+000
      vertex  1.126197e+001 -1.023597e+002  0.000000e+000
    endloop
  endfacet
  facet normal  -0.000000e+000  0.000000e+000 -1.000000e+000
    outer loop
      vertex  8.421332e+000 -8.608067e+001  0.000000e+000
      vertex  1.126197e+001 -1.023597e+002  0.000000e+000
      vertex  1.069085e+001 -1.025675e+002  0.000000e+000
    endloop
  endfacet
  facet normal  -0.000000e+000  0.000000e+000 -1.000000e+000
    outer loop
      vertex  8.421332e+000 -8.608067e+001  0.000000e+000
      vertex  1.069085e+001 -1.025675e+002  0.000000e+000
      vertex  1.022527e+001 -1.029582e+002  0.000000e+000
    endloop
  endfacet
  facet normal  -0.000000e+000  0.000000e+000 -1.000000e+000
    outer loop
      vertex  8.421332e+000 -8.608067e+001  0.000000e+000
      vertex  1.022527e+001 -1.029582e+002  0.000000e+000
      vertex  9.921390e+000 -1.034846e+002  0.000000e+000
    endloop
  endfacet
  facet normal  0.000000e+000  -0.000000e+000 -1.000000e+000
    outer loop
      vertex -1.126206e+001 -1.022747e+002  0.000000e+000
      vertex -1.007034e+001 -8.442033e+001  0.000000e+000
      vertex -9.964804e+000 -8.501887e+001  0.000000e+000
    endloop
  endfacet
  facet normal  0.000000e+000  -0.000000e+000 -1.000000e+000
    outer loop
      vertex -1.126206e+001 -1.022747e+002  0.000000e+000
      vertex -9.964804e+000 -8.501887e+001  0.000000e+000
      vertex -9.660919e+000 -8.554521e+001  0.000000e+000
    endloop
  endfacet
  facet normal  0.000000e+000  -0.000000e+000 -1.000000e+000
    outer loop
      vertex -1.126206e+001 -1.022747e+002  0.000000e+000
      vertex -9.660919e+000 -8.554521e+001  0.000000e+000
      vertex -9.195341e+000 -8.593588e+001  0.000000e+000
    endloop
  endfacet
  facet normal  0.000000e+000  -0.000000e+000 -1.000000e+000
    outer loop
      vertex -1.126206e+001 -1.022747e+002  0.000000e+000
      vertex -9.195341e+000 -8.593588e+001  0.000000e+000
      vertex -8.624226e+000 -8.614375e+001  0.000000e+000
    endloop
  endfacet
  facet normal  0.000000e+000  0.000000e+000 -1.000000e+000
    outer loop
      vertex -8.624226e+000 -8.614375e+001  0.000000e+000
      vertex -9.815948e+000 -1.039981e+002  0.000000e+000
      vertex -9.921486e+000 -1.033996e+002  0.000000e+000
    endloop
  endfacet
  facet normal  0.000000e+000  0.000000e+000 -1.000000e+000
    outer loop
      vertex -8.624226e+000 -8.614375e+001  0.000000e+000
      vertex -9.921486e+000 -1.033996e+002  0.000000e+000
      vertex -1.022537e+001 -1.028733e+002  0.000000e+000
    endloop
  endfacet
  facet normal  0.000000e+000  0.000000e+000 -9.999999e-001
    outer loop
      vertex -8.624226e+000 -8.614375e+001  0.000000e+000
      vertex -1.022537e+001 -1.028733e+002  0.000000e+000
      vertex -1.069095e+001 -1.024826e+002  0.000000e+000
    endloop
  endfacet
  facet normal  0.000000e+000  0.000000e+000 -1.000000e+000
    outer loop
      vertex -8.624226e+000 -8.614375e+001  0.000000e+000
      vertex -1.069095e+001 -1.024826e+002  0.000000e+000
      vertex -1.126206e+001 -1.022747e+002  0.000000e+000
    endloop
  endfacet
  facet normal  0.000000e+000  0.000000e+000 -1.000000e+000
    outer loop
      vertex  1.936800e+001 -5.006166e+001  0.000000e+000
      vertex  9.867448e+000 -8.435725e+001  0.000000e+000
      vertex  9.761910e+000 -8.375871e+001  0.000000e+000
    endloop
  endfacet
  facet normal  0.000000e+000  0.000000e+000 -9.999999e-001
    outer loop
      vertex  1.936800e+001 -5.006166e+001  0.000000e+000
      vertex  9.761910e+000 -8.375871e+001  0.000000e+000
      vertex  9.458026e+000 -8.323237e+001  0.000000e+000
    endloop
  endfacet
  facet normal  0.000000e+000  0.000000e+000 -1.000000e+000
    outer loop
      vertex  1.936800e+001 -5.006166e+001  0.000000e+000
      vertex  9.458026e+000 -8.323237e+001  0.000000e+000
      vertex -1.936800e+001 -5.006166e+001  0.000000e+000
    endloop
  endfacet
  facet normal  0.000000e+000  0.000000e+000 -1.000000e+000
    outer loop
      vertex -1.619285e+001 -1.088803e+002  0.000000e+000
      vertex -1.321041e+001 -1.033996e+002  0.000000e+000
      vertex -1.331595e+001 -1.039981e+002  0.000000e+000
    endloop
  endfacet
  facet normal  0.000000e+000  -0.000000e+000 -1.000000e+000
    outer loop
      vertex -1.619285e+001 -1.088803e+002  0.000000e+000
      vertex -1.331595e+001 -1.039981e+002  0.000000e+000
      vertex -1.321041e+001 -1.045967e+002  0.000000e+000
    endloop
  endfacet
  facet normal  0.000000e+000  -0.000000e+000 -9.999999e-001
    outer loop
      vertex -1.619285e+001 -1.088803e+002  0.000000e+000
      vertex -1.321041e+001 -1.045967e+002  0.000000e+000
      vertex -1.290653e+001 -1.051230e+002  0.000000e+000
    endloop
  endfacet
  facet normal  0.000000e+000  -0.000000e+000 -9.999999e-001
    outer loop
      vertex -1.619285e+001 -1.088803e+002  0.000000e+000
      vertex -1.290653e+001 -1.051230e+002  0.000000e+000
      vertex -1.244095e+001 -1.055137e+002  0.000000e+000
    endloop
  endfacet
  facet normal  0.000000e+000  -0.000000e+000 -1.000000e+000
    outer loop
      vertex -1.619285e+001 -1.088803e+002  0.000000e+000
      vertex -1.244095e+001 -1.055137e+002  0.000000e+000
      vertex -1.186983e+001 -1.057215e+002  0.000000e+000
    endloop
  endfacet
  facet normal  0.000000e+000  -0.000000e+000 -1.000000e+000
    outer loop
      vertex -1.619285e+001 -1.088803e+002  0.000000e+000
      vertex -1.186983e+001 -1.057215e+002  0.000000e+000
      vertex -1.126206e+001 -1.057215e+002  0.000000e+000
    endloop
  endfacet
  facet normal  0.000000e+000  0.000000e+000 -1.000000e+000
    outer loop
      vertex -1.619285e+001 -1.088803e+002  0.000000e+000
      vertex -1.126206e+001 -1.057215e+002  0.000000e+000
      vertex -1.381452e+001 -1.100617e+002  0.000000e+000
    endloop
  endfacet
  facet normal  -0.000000e+000  0.000000e+000 -1.000000e+000
    outer loop
      vertex -1.936800e+001 -8.539384e+001  0.000000e+000
      vertex -1.186983e+001 -1.022747e+002  0.000000e+000
      vertex -1.244095e+001 -1.024826e+002  0.000000e+000
    endloop
  endfacet
  facet normal  -0.000000e+000  0.000000e+000 -1.000000e+000
    outer loop
      vertex -1.936800e+001 -8.539384e+001  0.000000e+000
      vertex -1.244095e+001 -1.024826e+002  0.000000e+000
      vertex -1.290653e+001 -1.028733e+002  0.000000e+000
    endloop
  endfacet
  facet normal  -0.000000e+000  0.000000e+000 -1.000000e+000
    outer loop
      vertex -1.936800e+001 -8.539384e+001  0.000000e+000
      vertex -1.290653e+001 -1.028733e+002  0.000000e+000
      vertex -1.321041e+001 -1.033996e+002  0.000000e+000
    endloop
  endfacet
  facet normal  -0.000000e+000  0.000000e+000 -9.999999e-001
    outer loop
      vertex -1.936800e+001 -8.539384e+001  0.000000e+000
      vertex -1.321041e+001 -1.033996e+002  0.000000e+000
      vertex -1.619285e+001 -1.088803e+002  0.000000e+000
    endloop
  endfacet
  facet normal  0.000000e+000  0.000000e+000 -1.000000e+000
    outer loop
      vertex  1.619285e+001 -1.088803e+002  0.000000e+000
      vertex  1.186974e+001 -1.058065e+002  0.000000e+000
      vertex  1.244085e+001 -1.055986e+002  0.000000e+000
    endloop
  endfacet
  facet normal  0.000000e+000  0.000000e+000 -1.000000e+000
    outer loop
      vertex  1.619285e+001 -1.088803e+002  0.000000e+000
      vertex  1.244085e+001 -1.055986e+002  0.000000e+000
      vertex  1.290643e+001 -1.052080e+002  0.000000e+000
    endloop
  endfacet
  facet normal  0.000000e+000  0.000000e+000 -1.000000e+000
    outer loop
      vertex  1.619285e+001 -1.088803e+002  0.000000e+000
      vertex  1.290643e+001 -1.052080e+002  0.000000e+000
      vertex  1.321031e+001 -1.046816e+002  0.000000e+000
    endloop
  endfacet
  facet normal  0.000000e+000  0.000000e+000 -1.000000e+000
    outer loop
      vertex  1.619285e+001 -1.088803e+002  0.000000e+000
      vertex  1.321031e+001 -1.046816e+002  0.000000e+000
      vertex  1.331585e+001 -1.040831e+002  0.000000e+000
    endloop
  endfacet
  facet normal  0.000000e+000  0.000000e+000 -1.000000e+000
    outer loop
      vertex  1.619285e+001 -1.088803e+002  0.000000e+000
      vertex  1.331585e+001 -1.040831e+002  0.000000e+000
      vertex  1.321031e+001 -1.034846e+002  0.000000e+000
    endloop
  endfacet
  facet normal  0.000000e+000  0.000000e+000 -1.000000e+000
    outer loop
      vertex  1.936800e+001 -8.539384e+001  0.000000e+000
      vertex  1.619285e+001 -1.088803e+002  0.000000e+000
      vertex  1.321031e+001 -1.034846e+002  0.000000e+000
    endloop
  endfacet
  facet normal  0.000000e+000  0.000000e+000 -1.000000e+000
    outer loop
      vertex  1.936800e+001 -8.539384e+001  0.000000e+000
      vertex  1.321031e+001 -1.034846e+002  0.000000e+000
      vertex  1.290643e+001 -1.029582e+002  0.000000e+000
    endloop
  endfacet
  facet normal  0.000000e+000  0.000000e+000 -1.000000e+000
    outer loop
      vertex  1.936800e+001 -8.539384e+001  0.000000e+000
      vertex  1.290643e+001 -1.029582e+002  0.000000e+000
      vertex  1.244085e+001 -1.025675e+002  0.000000e+000
    endloop
  endfacet
  facet normal  0.000000e+000  0.000000e+000 -1.000000e+000
    outer loop
      vertex  1.936800e+001 -8.539384e+001  0.000000e+000
      vertex  1.244085e+001 -1.025675e+002  0.000000e+000
      vertex  1.186974e+001 -1.023597e+002  0.000000e+000
    endloop
  endfacet
  facet normal  0.000000e+000  0.000000e+000 -1.000000e+000
    outer loop
      vertex  6.367448e+000 -8.435725e+001  0.000000e+000
      vertex -6.675879e+000 -8.382180e+001  0.000000e+000
      vertex  6.472986e+000 -8.375871e+001  0.000000e+000
    endloop
  endfacet
  facet normal  -0.000000e+000  0.000000e+000 -1.000000e+000
    outer loop
      vertex  6.472986e+000 -8.375871e+001  0.000000e+000
      vertex -6.675879e+000 -8.382180e+001  0.000000e+000
      vertex -6.979764e+000 -8.329546e+001  0.000000e+000
    endloop
  endfacet
  facet normal  0.000000e+000  0.000000e+000 -9.999999e-001
    outer loop
      vertex  6.472986e+000 -8.375871e+001  0.000000e+000
      vertex -6.979764e+000 -8.329546e+001  0.000000e+000
      vertex  6.776870e+000 -8.323237e+001  0.000000e+000
    endloop
  endfacet
  facet normal  -0.000000e+000  0.000000e+000 -1.000000e+000
    outer loop
      vertex  6.776870e+000 -8.323237e+001  0.000000e+000
      vertex -6.979764e+000 -8.329546e+001  0.000000e+000
      vertex -7.445342e+000 -8.290479e+001  0.000000e+000
    endloop
  endfacet
  facet normal  0.000000e+000  0.000000e+000 -1.000000e+000
    outer loop
      vertex  6.776870e+000 -8.323237e+001  0.000000e+000
      vertex -7.445342e+000 -8.290479e+001  0.000000e+000
      vertex  7.242448e+000 -8.284171e+001  0.000000e+000
    endloop
  endfacet
  facet normal  -0.000000e+000  0.000000e+000 -9.999999e-001
    outer loop
      vertex  7.242448e+000 -8.284171e+001  0.000000e+000
      vertex -7.445342e+000 -8.290479e+001  0.000000e+000
      vertex -8.016457e+000 -8.269692e+001  0.000000e+000
    endloop
  endfacet
  facet normal  0.000000e+000  0.000000e+000 -1.000000e+000
    outer loop
      vertex  7.242448e+000 -8.284171e+001  0.000000e+000
      vertex -8.016457e+000 -8.269692e+001  0.000000e+000
      vertex  7.813564e+000 -8.263383e+001  0.000000e+000
    endloop
  endfacet
  facet normal  -0.000000e+000  0.000000e+000 -9.999999e-001
    outer loop
      vertex -6.675879e+000 -8.382180e+001  0.000000e+000
      vertex  6.367448e+000 -8.435725e+001  0.000000e+000
      vertex -6.570342e+000 -8.442033e+001  0.000000e+000
    endloop
  endfacet
  facet normal  0.000000e+000  0.000000e+000 -1.000000e+000
    outer loop
      vertex -6.570342e+000 -8.442033e+001  0.000000e+000
      vertex  6.367448e+000 -8.435725e+001  0.000000e+000
      vertex  6.472986e+000 -8.495579e+001  0.000000e+000
    endloop
  endfacet
  facet normal  -0.000000e+000  0.000000e+000 -1.000000e+000
    outer loop
      vertex -6.570342e+000 -8.442033e+001  0.000000e+000
      vertex  6.472986e+000 -8.495579e+001  0.000000e+000
      vertex -6.675879e+000 -8.501887e+001  0.000000e+000
    endloop
  endfacet
  facet normal  0.000000e+000  0.000000e+000 -1.000000e+000
    outer loop
      vertex -6.675879e+000 -8.501887e+001  0.000000e+000
      vertex  6.472986e+000 -8.495579e+001  0.000000e+000
      vertex  6.776870e+000 -8.548213e+001  0.000000e+000
    endloop
  endfacet
  facet normal  -0.000000e+000  0.000000e+000 -1.000000e+000
    outer loop
      vertex -6.675879e+000 -8.501887e+001  0.000000e+000
      vertex  6.776870e+000 -8.548213e+001  0.000000e+000
      vertex -6.979764e+000 -8.554521e+001  0.000000e+000
    endloop
  endfacet
  facet normal  0.000000e+000  0.000000e+000 -1.000000e+000
    outer loop
      vertex -6.979764e+000 -8.554521e+001  0.000000e+000
      vertex  6.776870e+000 -8.548213e+001  0.000000e+000
      vertex  7.242448e+000 -8.587280e+001  0.000000e+000
    endloop
  endfacet
  facet normal  -0.000000e+000  0.000000e+000 -1.000000e+000
    outer loop
      vertex -6.979764e+000 -8.554521e+001  0.000000e+000
      vertex  7.242448e+000 -8.587280e+001  0.000000e+000
      vertex -7.445342e+000 -8.593588e+001  0.000000e+000
    endloop
  endfacet
  facet normal  0.000000e+000  0.000000e+000 -9.999999e-001
    outer loop
      vertex -7.445342e+000 -8.593588e+001  0.000000e+000
      vertex  7.242448e+000 -8.587280e+001  0.000000e+000
      vertex  7.813564e+000 -8.608067e+001  0.000000e+000
    endloop
  endfacet
  facet normal  -0.000000e+000  0.000000e+000 -1.000000e+000
    outer loop
      vertex -7.445342e+000 -8.593588e+001  0.000000e+000
      vertex  7.813564e+000 -8.608067e+001  0.000000e+000
      vertex -8.016457e+000 -8.614375e+001  0.000000e+000
    endloop
  endfacet
endsolid CATIA STL
