solid CATIA STL
  facet normal  0.000000e+000  0.000000e+000  9.999999e-001
    outer loop
      vertex  2.055319e+001  0.000000e+000  9.123554e+001
      vertex  4.048802e+001  3.880238e+001  9.123554e+001
      vertex  2.962996e+001  3.880238e+001  9.123554e+001
    endloop
  endfacet
  facet normal  0.000000e+000  0.000000e+000  1.000000e+000
    outer loop
      vertex  2.055319e+001  0.000000e+000  9.123554e+001
      vertex  2.962996e+001  3.880238e+001  9.123554e+001
      vertex  9.741105e+000  3.880238e+001  9.123554e+001
    endloop
  endfacet
  facet normal  0.000000e+000  0.000000e+000  1.000000e+000
    outer loop
      vertex  2.055319e+001  0.000000e+000  9.123554e+001
      vertex  9.741105e+000  3.880238e+001  9.123554e+001
      vertex  9.741105e+000 -3.880238e+001  9.123554e+001
    endloop
  endfacet
  facet normal  0.000000e+000  0.000000e+000  1.000000e+000
    outer loop
      vertex  2.055319e+001  0.000000e+000  9.123554e+001
      vertex  9.741105e+000 -3.880238e+001  9.123554e+001
      vertex  2.962996e+001 -3.880238e+001  9.123554e+001
    endloop
  endfacet
  facet normal  0.000000e+000  0.000000e+000  1.000000e+000
    outer loop
      vertex  0.000000e+000 -7.060993e+001  9.123554e+001
      vertex  5.100000e+001 -7.060993e+001  9.123554e+001
      vertex  4.048802e+001 -5.975820e+001  9.123554e+001
    endloop
  endfacet
  facet normal  0.000000e+000  0.000000e+000  1.000000e+000
    outer loop
      vertex  0.000000e+000 -7.060993e+001  9.123554e+001
      vertex  4.048802e+001 -5.975820e+001  9.123554e+001
      vertex  9.741105e+000 -5.975820e+001  9.123554e+001
    endloop
  endfacet
  facet normal  0.000000e+000  -0.000000e+000  1.000000e+000
    outer loop
      vertex  0.000000e+000 -7.060993e+001  9.123554e+001
      vertex  9.741105e+000 -5.975820e+001  9.123554e+001
      vertex  9.741105e+000 -3.880238e+001  9.123554e+001
    endloop
  endfacet
  facet normal  0.000000e+000  -0.000000e+000  1.000000e+000
    outer loop
      vertex  0.000000e+000 -7.060993e+001  9.123554e+001
      vertex  9.741105e+000 -3.880238e+001  9.123554e+001
      vertex  9.741105e+000  3.880238e+001  9.123554e+001
    endloop
  endfacet
  facet normal  0.000000e+000  -0.000000e+000  1.000000e+000
    outer loop
      vertex  0.000000e+000 -7.060993e+001  9.123554e+001
      vertex  9.741105e+000  3.880238e+001  9.123554e+001
      vertex  9.741105e+000  5.993717e+001  9.123554e+001
    endloop
  endfacet
  facet normal  0.000000e+000  0.000000e+000  9.999999e-001
    outer loop
      vertex  0.000000e+000 -7.060993e+001  9.123554e+001
      vertex  9.741105e+000  5.993717e+001  9.123554e+001
      vertex  0.000000e+000  7.060993e+001  9.123554e+001
    endloop
  endfacet
  facet normal  0.000000e+000  -0.000000e+000  9.999999e-001
    outer loop
      vertex  2.055319e+001  0.000000e+000  9.123554e+001
      vertex  2.962996e+001 -3.880238e+001  9.123554e+001
      vertex  4.048802e+001 -3.880238e+001  9.123554e+001
    endloop
  endfacet
  facet normal  0.000000e+000  0.000000e+000  1.000000e+000
    outer loop
      vertex  4.048802e+001 -3.880238e+001  9.123554e+001
      vertex  2.962996e+001 -3.880238e+001  9.123554e+001
      vertex  4.048802e+001 -5.975820e+001  9.123554e+001
    endloop
  endfacet
  facet normal  -0.000000e+000  0.000000e+000  1.000000e+000
    outer loop
      vertex  4.048802e+001 -3.880238e+001  9.123554e+001
      vertex  4.048802e+001 -5.975820e+001  9.123554e+001
      vertex  5.100000e+001 -7.060993e+001  9.123554e+001
    endloop
  endfacet
  facet normal  0.000000e+000  -0.000000e+000  1.000000e+000
    outer loop
      vertex  2.962996e+001  3.880238e+001  9.123554e+001
      vertex  4.048802e+001  3.880238e+001  9.123554e+001
      vertex  4.048802e+001  5.993717e+001  9.123554e+001
    endloop
  endfacet
  facet normal  -0.000000e+000  0.000000e+000  9.999999e-001
    outer loop
      vertex  4.048802e+001  5.993717e+001  9.123554e+001
      vertex  4.048802e+001  3.880238e+001  9.123554e+001
      vertex  5.100000e+001  7.060993e+001  9.123554e+001
    endloop
  endfacet
  facet normal  0.000000e+000  0.000000e+000  1.000000e+000
    outer loop
      vertex  4.048802e+001  5.993717e+001  9.123554e+001
      vertex  5.100000e+001  7.060993e+001  9.123554e+001
      vertex  9.741105e+000  5.993717e+001  9.123554e+001
    endloop
  endfacet
  facet normal  0.000000e+000  -0.000000e+000  1.000000e+000
    outer loop
      vertex  9.741105e+000  5.993717e+001  9.123554e+001
      vertex  5.100000e+001  7.060993e+001  9.123554e+001
      vertex  0.000000e+000  7.060993e+001  9.123554e+001
    endloop
  endfacet
  facet normal  -0.000000e+000  0.000000e+000  1.000000e+000
    outer loop
      vertex  5.100000e+001  7.060993e+001  9.123554e+001
      vertex  4.048802e+001  3.880238e+001  9.123554e+001
      vertex  5.100000e+001 -7.060993e+001  9.123554e+001
    endloop
  endfacet
  facet normal  0.000000e+000  0.000000e+000  1.000000e+000
    outer loop
      vertex  5.100000e+001 -7.060993e+001  9.123554e+001
      vertex  4.048802e+001  3.880238e+001  9.123554e+001
      vertex  4.048802e+001 -3.880238e+001  9.123554e+001
    endloop
  endfacet
  facet normal -7.086021e-001  3.528042e-001  6.110746e-001
    outer loop
      vertex  9.900798e+000 -8.544024e+001  6.554868e+001
      vertex  3.557379e+001 -7.254928e+001  8.787649e+001
      vertex  9.900798e+000 -7.308400e+001  5.841480e+001
    endloop
  endfacet
  facet normal -7.086022e-001  3.528043e-001  6.110745e-001
    outer loop
      vertex  9.900798e+000 -7.308400e+001  5.841480e+001
      vertex  3.557379e+001 -7.254928e+001  8.787649e+001
      vertex  3.228677e+001 -6.184352e+001  7.788388e+001
    endloop
  endfacet
  facet normal -7.086026e-001  3.528038e-001  6.110742e-001
    outer loop
      vertex  3.557379e+001 -7.254928e+001  8.787649e+001
      vertex  3.557379e+001 -5.975820e+001  8.049155e+001
      vertex  3.228677e+001 -6.184352e+001  7.788388e+001
    endloop
  endfacet
  facet normal -7.086026e-001  3.528035e-001  6.110745e-001
    outer loop
      vertex  3.228677e+001 -6.184352e+001  7.788388e+001
      vertex  3.557379e+001 -5.975820e+001  8.049155e+001
      vertex  3.332502e+001 -5.975820e+001  7.788388e+001
    endloop
  endfacet
  facet normal  1.000000e+000  0.000000e+000  -0.000000e+000
    outer loop
      vertex  9.900798e+000 -8.544024e+001  6.554868e+001
      vertex  9.900798e+000 -7.308400e+001  5.841480e+001
      vertex  9.900798e+000 -7.254928e+001  8.787649e+001
    endloop
  endfacet
  facet normal  1.000000e+000  0.000000e+000  0.000000e+000
    outer loop
      vertex  9.900798e+000 -7.254928e+001  8.787649e+001
      vertex  9.900798e+000 -7.308400e+001  5.841480e+001
      vertex  9.900798e+000 -6.184352e+001  7.788388e+001
    endloop
  endfacet
  facet normal  1.000000e+000  0.000000e+000  -0.000000e+000
    outer loop
      vertex  9.900798e+000 -7.254928e+001  8.787649e+001
      vertex  9.900798e+000 -6.184352e+001  7.788388e+001
      vertex  9.900798e+000 -5.975820e+001  8.049155e+001
    endloop
  endfacet
  facet normal  1.000000e+000  0.000000e+000  0.000000e+000
    outer loop
      vertex  9.900798e+000 -5.975820e+001  8.049155e+001
      vertex  9.900798e+000 -6.184352e+001  7.788388e+001
      vertex  9.900798e+000 -5.975820e+001  7.788388e+001
    endloop
  endfacet
  facet normal  0.000000e+000 -5.000000e-001 -8.660254e-001
    outer loop
      vertex  9.900798e+000 -7.254928e+001  8.787649e+001
      vertex  9.900798e+000 -5.975820e+001  8.049155e+001
      vertex  3.557379e+001 -7.254928e+001  8.787649e+001
    endloop
  endfacet
  facet normal  0.000000e+000 -5.000000e-001 -8.660254e-001
    outer loop
      vertex  3.557379e+001 -7.254928e+001  8.787649e+001
      vertex  9.900798e+000 -5.975820e+001  8.049155e+001
      vertex  3.557379e+001 -5.975820e+001  8.049155e+001
    endloop
  endfacet
  facet normal  0.000000e+000  0.000000e+000 -9.999999e-001
    outer loop
      vertex  4.048802e+001  5.993717e+001  7.788388e+001
      vertex  3.323592e+001  5.993717e+001  7.788388e+001
      vertex  3.228677e+001  6.184352e+001  7.788388e+001
    endloop
  endfacet
  facet normal  0.000000e+000  0.000000e+000 -1.000000e+000
    outer loop
      vertex  4.048802e+001  5.993717e+001  7.788388e+001
      vertex  3.228677e+001  6.184352e+001  7.788388e+001
      vertex  5.100000e+001  6.184352e+001  7.788388e+001
    endloop
  endfacet
  facet normal  0.000000e+000  0.000000e+000 -1.000000e+000
    outer loop
      vertex  4.048802e+001  5.993717e+001  7.788388e+001
      vertex  5.100000e+001  6.184352e+001  7.788388e+001
      vertex  4.048802e+001  3.880238e+001  7.788388e+001
    endloop
  endfacet
  facet normal  -0.000000e+000  0.000000e+000 -1.000000e+000
    outer loop
      vertex  4.048802e+001  5.993717e+001  7.788388e+001
      vertex  4.048802e+001  3.880238e+001  7.788388e+001
      vertex  2.055319e+001  0.000000e+000  7.788388e+001
    endloop
  endfacet
  facet normal  0.000000e+000  0.000000e+000 -1.000000e+000
    outer loop
      vertex  4.048802e+001  5.993717e+001  7.788388e+001
      vertex  2.055319e+001  0.000000e+000  7.788388e+001
      vertex  2.962996e+001  3.880238e+001  7.788388e+001
    endloop
  endfacet
  facet normal  0.000000e+000  0.000000e+000 -1.000000e+000
    outer loop
      vertex  2.550000e+001  2.180000e+001  7.788388e+001
      vertex  2.550000e+001  3.383295e+001  7.788388e+001
      vertex  2.962996e+001  3.880238e+001  7.788388e+001
    endloop
  endfacet
  facet normal  0.000000e+000  0.000000e+000 -1.000000e+000
    outer loop
      vertex  2.550000e+001  2.180000e+001  7.788388e+001
      vertex  2.962996e+001  3.880238e+001  7.788388e+001
      vertex  2.055319e+001  0.000000e+000  7.788388e+001
    endloop
  endfacet
  facet normal  -0.000000e+000  0.000000e+000 -1.000000e+000
    outer loop
      vertex  2.550000e+001  2.180000e+001  7.788388e+001
      vertex  2.055319e+001  0.000000e+000  7.788388e+001
      vertex -3.552714e-015 -2.180000e+001  7.788388e+001
    endloop
  endfacet
  facet normal  0.000000e+000  0.000000e+000 -1.000000e+000
    outer loop
      vertex  2.550000e+001  2.180000e+001  7.788388e+001
      vertex -3.552714e-015 -2.180000e+001  7.788388e+001
      vertex -3.552714e-015  2.180000e+001  7.788388e+001
    endloop
  endfacet
  facet normal  0.000000e+000  0.000000e+000 -1.000000e+000
    outer loop
      vertex  2.550000e+001 -2.180000e+001  7.788388e+001
      vertex -3.552714e-015 -2.180000e+001  7.788388e+001
      vertex  2.055319e+001  0.000000e+000  7.788388e+001
    endloop
  endfacet
  facet normal  0.000000e+000  0.000000e+000 -1.000000e+000
    outer loop
      vertex  2.550000e+001 -2.180000e+001  7.788388e+001
      vertex  2.055319e+001  0.000000e+000  7.788388e+001
      vertex  2.962996e+001 -3.880238e+001  7.788388e+001
    endloop
  endfacet
  facet normal  0.000000e+000  0.000000e+000 -1.000000e+000
    outer loop
      vertex  2.550000e+001 -2.180000e+001  7.788388e+001
      vertex  2.962996e+001 -3.880238e+001  7.788388e+001
      vertex  2.550000e+001 -3.383295e+001  7.788388e+001
    endloop
  endfacet
  facet normal  0.000000e+000  0.000000e+000 -1.000000e+000
    outer loop
      vertex  0.000000e+000 -6.184352e+001  7.788388e+001
      vertex -3.552714e-015 -3.383295e+001  7.788388e+001
      vertex  9.741105e+000 -3.880238e+001  7.788388e+001
    endloop
  endfacet
  facet normal  0.000000e+000  -0.000000e+000 -1.000000e+000
    outer loop
      vertex  0.000000e+000 -6.184352e+001  7.788388e+001
      vertex  9.741105e+000 -3.880238e+001  7.788388e+001
      vertex  9.741105e+000 -5.975820e+001  7.788388e+001
    endloop
  endfacet
  facet normal  0.000000e+000  -0.000000e+000 -1.000000e+000
    outer loop
      vertex  0.000000e+000 -6.184352e+001  7.788388e+001
      vertex  9.741105e+000 -5.975820e+001  7.788388e+001
      vertex  9.900798e+000 -5.975820e+001  7.788388e+001
    endloop
  endfacet
  facet normal  0.000000e+000  -0.000000e+000 -1.000000e+000
    outer loop
      vertex  0.000000e+000 -6.184352e+001  7.788388e+001
      vertex  9.900798e+000 -5.975820e+001  7.788388e+001
      vertex  9.900798e+000 -6.184352e+001  7.788388e+001
    endloop
  endfacet
  facet normal  0.000000e+000  0.000000e+000 -9.999999e-001
    outer loop
      vertex  2.962996e+001 -3.880238e+001  7.788388e+001
      vertex  2.055319e+001  0.000000e+000  7.788388e+001
      vertex  4.048802e+001 -5.975820e+001  7.788388e+001
    endloop
  endfacet
  facet normal  0.000000e+000  0.000000e+000 -9.999999e-001
    outer loop
      vertex  4.048802e+001 -5.975820e+001  7.788388e+001
      vertex  2.055319e+001  0.000000e+000  7.788388e+001
      vertex  4.048802e+001 -3.880238e+001  7.788388e+001
    endloop
  endfacet
  facet normal  0.000000e+000  0.000000e+000 -1.000000e+000
    outer loop
      vertex  4.048802e+001 -5.975820e+001  7.788388e+001
      vertex  4.048802e+001 -3.880238e+001  7.788388e+001
      vertex  5.100000e+001 -6.184352e+001  7.788388e+001
    endloop
  endfacet
  facet normal  0.000000e+000  0.000000e+000 -1.000000e+000
    outer loop
      vertex  9.900798e+000  6.184352e+001  7.788388e+001
      vertex  9.900798e+000  5.993717e+001  7.788388e+001
      vertex  0.000000e+000  6.184352e+001  7.788388e+001
    endloop
  endfacet
  facet normal  0.000000e+000  0.000000e+000 -1.000000e+000
    outer loop
      vertex  0.000000e+000  6.184352e+001  7.788388e+001
      vertex  9.900798e+000  5.993717e+001  7.788388e+001
      vertex  9.741105e+000  5.993717e+001  7.788388e+001
    endloop
  endfacet
  facet normal  -0.000000e+000  0.000000e+000 -1.000000e+000
    outer loop
      vertex  0.000000e+000  6.184352e+001  7.788388e+001
      vertex  9.741105e+000  5.993717e+001  7.788388e+001
      vertex -3.552714e-015  3.383295e+001  7.788388e+001
    endloop
  endfacet
  facet normal  0.000000e+000  0.000000e+000 -1.000000e+000
    outer loop
      vertex -3.552714e-015  3.383295e+001  7.788388e+001
      vertex  9.741105e+000  5.993717e+001  7.788388e+001
      vertex  9.741105e+000  3.880238e+001  7.788388e+001
    endloop
  endfacet
  facet normal  0.000000e+000  -0.000000e+000 -9.999999e-001
    outer loop
      vertex -3.552714e-015  3.383295e+001  7.788388e+001
      vertex  9.741105e+000  3.880238e+001  7.788388e+001
      vertex  2.550000e+001  3.383295e+001  7.788388e+001
    endloop
  endfacet
  facet normal  0.000000e+000  0.000000e+000 -9.999999e-001
    outer loop
      vertex  2.550000e+001  3.383295e+001  7.788388e+001
      vertex  9.741105e+000  3.880238e+001  7.788388e+001
      vertex  2.962996e+001  3.880238e+001  7.788388e+001
    endloop
  endfacet
  facet normal  0.000000e+000  0.000000e+000 -1.000000e+000
    outer loop
      vertex  2.962996e+001 -3.880238e+001  7.788388e+001
      vertex  9.741105e+000 -3.880238e+001  7.788388e+001
      vertex  2.550000e+001 -3.383295e+001  7.788388e+001
    endloop
  endfacet
  facet normal  -0.000000e+000  0.000000e+000 -1.000000e+000
    outer loop
      vertex  2.550000e+001 -3.383295e+001  7.788388e+001
      vertex  9.741105e+000 -3.880238e+001  7.788388e+001
      vertex -3.552714e-015 -3.383295e+001  7.788388e+001
    endloop
  endfacet
  facet normal  0.000000e+000  0.000000e+000 -1.000000e+000
    outer loop
      vertex  5.100000e+001 -6.184352e+001  7.788388e+001
      vertex  4.048802e+001 -3.880238e+001  7.788388e+001
      vertex  5.100000e+001  6.184352e+001  7.788388e+001
    endloop
  endfacet
  facet normal  0.000000e+000  0.000000e+000 -1.000000e+000
    outer loop
      vertex  5.100000e+001  6.184352e+001  7.788388e+001
      vertex  4.048802e+001 -3.880238e+001  7.788388e+001
      vertex  4.048802e+001  3.880238e+001  7.788388e+001
    endloop
  endfacet
  facet normal  0.000000e+000  0.000000e+000 -1.000000e+000
    outer loop
      vertex  5.100000e+001 -6.184352e+001  7.788388e+001
      vertex  3.228677e+001 -6.184352e+001  7.788388e+001
      vertex  4.048802e+001 -5.975820e+001  7.788388e+001
    endloop
  endfacet
  facet normal  -0.000000e+000  0.000000e+000 -9.999999e-001
    outer loop
      vertex  4.048802e+001 -5.975820e+001  7.788388e+001
      vertex  3.228677e+001 -6.184352e+001  7.788388e+001
      vertex  3.332502e+001 -5.975820e+001  7.788388e+001
    endloop
  endfacet
  facet normal -8.878917e-001 -4.600527e-001  0.000000e+000
    outer loop
      vertex  2.962996e+001 -3.880238e+001  9.123554e+001
      vertex  2.962996e+001 -3.880238e+001  7.788388e+001
      vertex  4.048802e+001 -5.975820e+001  9.123554e+001
    endloop
  endfacet
  facet normal -8.878917e-001 -4.600527e-001  -0.000000e+000
    outer loop
      vertex  4.048802e+001 -5.975820e+001  9.123554e+001
      vertex  2.962996e+001 -3.880238e+001  7.788388e+001
      vertex  4.048802e+001 -5.975820e+001  7.788388e+001
    endloop
  endfacet
  facet normal  0.000000e+000 -1.000000e+000  0.000000e+000
    outer loop
      vertex  9.741105e+000 -3.880238e+001  9.123554e+001
      vertex  9.741105e+000 -3.880238e+001  7.788388e+001
      vertex  2.962996e+001 -3.880238e+001  9.123554e+001
    endloop
  endfacet
  facet normal  0.000000e+000 -1.000000e+000  -0.000000e+000
    outer loop
      vertex  2.962996e+001 -3.880238e+001  9.123554e+001
      vertex  9.741105e+000 -3.880238e+001  7.788388e+001
      vertex  2.962996e+001 -3.880238e+001  7.788388e+001
    endloop
  endfacet
  facet normal  1.000000e+000  0.000000e+000  0.000000e+000
    outer loop
      vertex  9.741105e+000 -3.880238e+001  7.788388e+001
      vertex  9.741105e+000 -3.880238e+001  9.123554e+001
      vertex  9.741105e+000 -5.975820e+001  7.788388e+001
    endloop
  endfacet
  facet normal  1.000000e+000  0.000000e+000  0.000000e+000
    outer loop
      vertex  9.741105e+000 -5.975820e+001  7.788388e+001
      vertex  9.741105e+000 -3.880238e+001  9.123554e+001
      vertex  9.741105e+000 -5.975820e+001  9.123554e+001
    endloop
  endfacet
  facet normal  0.000000e+000  1.000000e+000  0.000000e+000
    outer loop
      vertex  4.048802e+001 -5.975820e+001  7.788388e+001
      vertex  3.332502e+001 -5.975820e+001  7.788388e+001
      vertex  3.557379e+001 -5.975820e+001  8.049155e+001
    endloop
  endfacet
  facet normal  -0.000000e+000  1.000000e+000  0.000000e+000
    outer loop
      vertex  4.048802e+001 -5.975820e+001  7.788388e+001
      vertex  3.557379e+001 -5.975820e+001  8.049155e+001
      vertex  4.048802e+001 -5.975820e+001  9.123554e+001
    endloop
  endfacet
  facet normal  0.000000e+000  1.000000e+000  0.000000e+000
    outer loop
      vertex  4.048802e+001 -5.975820e+001  9.123554e+001
      vertex  3.557379e+001 -5.975820e+001  8.049155e+001
      vertex  9.900798e+000 -5.975820e+001  8.049155e+001
    endloop
  endfacet
  facet normal  0.000000e+000  1.000000e+000  -0.000000e+000
    outer loop
      vertex  4.048802e+001 -5.975820e+001  9.123554e+001
      vertex  9.900798e+000 -5.975820e+001  8.049155e+001
      vertex  9.741105e+000 -5.975820e+001  9.123554e+001
    endloop
  endfacet
  facet normal  0.000000e+000  9.999999e-001  0.000000e+000
    outer loop
      vertex  9.741105e+000 -5.975820e+001  9.123554e+001
      vertex  9.900798e+000 -5.975820e+001  8.049155e+001
      vertex  9.900798e+000 -5.975820e+001  7.788388e+001
    endloop
  endfacet
  facet normal  0.000000e+000  1.000000e+000  0.000000e+000
    outer loop
      vertex  9.741105e+000 -5.975820e+001  9.123554e+001
      vertex  9.900798e+000 -5.975820e+001  7.788388e+001
      vertex  9.741105e+000 -5.975820e+001  7.788388e+001
    endloop
  endfacet
  facet normal  8.894805e-001 -4.569731e-001  0.000000e+000
    outer loop
      vertex  2.055319e+001  0.000000e+000  9.123554e+001
      vertex  2.055319e+001  0.000000e+000  7.788388e+001
      vertex  4.048802e+001  3.880238e+001  9.123554e+001
    endloop
  endfacet
  facet normal  8.894805e-001 -4.569731e-001  0.000000e+000
    outer loop
      vertex  4.048802e+001  3.880238e+001  9.123554e+001
      vertex  2.055319e+001  0.000000e+000  7.788388e+001
      vertex  4.048802e+001  3.880238e+001  7.788388e+001
    endloop
  endfacet
  facet normal  8.894805e-001  4.569731e-001  0.000000e+000
    outer loop
      vertex  2.055319e+001  0.000000e+000  9.123554e+001
      vertex  4.048802e+001 -3.880238e+001  9.123554e+001
      vertex  2.055319e+001  0.000000e+000  7.788388e+001
    endloop
  endfacet
  facet normal  8.894805e-001  4.569731e-001  0.000000e+000
    outer loop
      vertex  2.055319e+001  0.000000e+000  7.788388e+001
      vertex  4.048802e+001 -3.880238e+001  9.123554e+001
      vertex  4.048802e+001 -3.880238e+001  7.788388e+001
    endloop
  endfacet
  facet normal -1.000000e+000  -0.000000e+000  0.000000e+000
    outer loop
      vertex  4.048802e+001 -3.880238e+001  9.123554e+001
      vertex  4.048802e+001  3.880238e+001  9.123554e+001
      vertex  4.048802e+001 -3.880238e+001  7.788388e+001
    endloop
  endfacet
  facet normal -1.000000e+000  0.000000e+000  0.000000e+000
    outer loop
      vertex  4.048802e+001 -3.880238e+001  7.788388e+001
      vertex  4.048802e+001  3.880238e+001  9.123554e+001
      vertex  4.048802e+001  3.880238e+001  7.788388e+001
    endloop
  endfacet
  facet normal  0.000000e+000  5.000002e-001 -8.660253e-001
    outer loop
      vertex  9.900798e+000  7.254928e+001  8.787649e+001
      vertex  3.557379e+001  7.254928e+001  8.787649e+001
      vertex  9.900798e+000  5.993717e+001  8.059488e+001
    endloop
  endfacet
  facet normal  0.000000e+000  5.000002e-001 -8.660253e-001
    outer loop
      vertex  9.900798e+000  5.993717e+001  8.059488e+001
      vertex  3.557379e+001  7.254928e+001  8.787649e+001
      vertex  3.557379e+001  5.993717e+001  8.059488e+001
    endloop
  endfacet
  facet normal  1.000000e+000  0.000000e+000  0.000000e+000
    outer loop
      vertex  9.900798e+000  7.308400e+001  5.841480e+001
      vertex  9.900798e+000  8.544024e+001  6.554868e+001
      vertex  9.900798e+000  6.184352e+001  7.788388e+001
    endloop
  endfacet
  facet normal  1.000000e+000  -0.000000e+000  0.000000e+000
    outer loop
      vertex  9.900798e+000  6.184352e+001  7.788388e+001
      vertex  9.900798e+000  8.544024e+001  6.554868e+001
      vertex  9.900798e+000  7.254928e+001  8.787649e+001
    endloop
  endfacet
  facet normal  1.000000e+000  0.000000e+000  0.000000e+000
    outer loop
      vertex  9.900798e+000  6.184352e+001  7.788388e+001
      vertex  9.900798e+000  7.254928e+001  8.787649e+001
      vertex  9.900798e+000  5.993717e+001  7.788388e+001
    endloop
  endfacet
  facet normal  1.000000e+000  0.000000e+000  0.000000e+000
    outer loop
      vertex  9.900798e+000  5.993717e+001  7.788388e+001
      vertex  9.900798e+000  7.254928e+001  8.787649e+001
      vertex  9.900798e+000  5.993717e+001  8.059488e+001
    endloop
  endfacet
  facet normal -7.086021e-001 -3.528042e-001  6.110746e-001
    outer loop
      vertex  9.900798e+000  8.544024e+001  6.554868e+001
      vertex  9.900798e+000  7.308400e+001  5.841480e+001
      vertex  3.557379e+001  7.254928e+001  8.787649e+001
    endloop
  endfacet
  facet normal -7.086022e-001 -3.528044e-001  6.110745e-001
    outer loop
      vertex  3.557379e+001  7.254928e+001  8.787649e+001
      vertex  9.900798e+000  7.308400e+001  5.841480e+001
      vertex  3.228677e+001  6.184352e+001  7.788388e+001
    endloop
  endfacet
  facet normal -7.086023e-001 -3.528042e-001  6.110744e-001
    outer loop
      vertex  3.557379e+001  7.254928e+001  8.787649e+001
      vertex  3.228677e+001  6.184352e+001  7.788388e+001
      vertex  3.557379e+001  5.993717e+001  8.059488e+001
    endloop
  endfacet
  facet normal -7.086022e-001 -3.528031e-001  6.110751e-001
    outer loop
      vertex  3.557379e+001  5.993717e+001  8.059488e+001
      vertex  3.228677e+001  6.184352e+001  7.788388e+001
      vertex  3.323592e+001  5.993717e+001  7.788388e+001
    endloop
  endfacet
  facet normal  1.000000e+000  0.000000e+000  0.000000e+000
    outer loop
      vertex  9.741105e+000  5.993717e+001  7.788388e+001
      vertex  9.741105e+000  5.993717e+001  9.123554e+001
      vertex  9.741105e+000  3.880238e+001  7.788388e+001
    endloop
  endfacet
  facet normal  1.000000e+000  0.000000e+000  0.000000e+000
    outer loop
      vertex  9.741105e+000  3.880238e+001  7.788388e+001
      vertex  9.741105e+000  5.993717e+001  9.123554e+001
      vertex  9.741105e+000  3.880238e+001  9.123554e+001
    endloop
  endfacet
  facet normal  0.000000e+000  1.000000e+000  0.000000e+000
    outer loop
      vertex  9.741105e+000  3.880238e+001  9.123554e+001
      vertex  2.962996e+001  3.880238e+001  9.123554e+001
      vertex  9.741105e+000  3.880238e+001  7.788388e+001
    endloop
  endfacet
  facet normal  0.000000e+000  1.000000e+000  0.000000e+000
    outer loop
      vertex  9.741105e+000  3.880238e+001  7.788388e+001
      vertex  2.962996e+001  3.880238e+001  9.123554e+001
      vertex  2.962996e+001  3.880238e+001  7.788388e+001
    endloop
  endfacet
  facet normal -8.894804e-001  4.569732e-001  0.000000e+000
    outer loop
      vertex  4.048802e+001  5.993717e+001  9.123554e+001
      vertex  4.048802e+001  5.993717e+001  7.788388e+001
      vertex  2.962996e+001  3.880238e+001  9.123554e+001
    endloop
  endfacet
  facet normal -8.894804e-001  4.569732e-001  0.000000e+000
    outer loop
      vertex  2.962996e+001  3.880238e+001  9.123554e+001
      vertex  4.048802e+001  5.993717e+001  7.788388e+001
      vertex  2.962996e+001  3.880238e+001  7.788388e+001
    endloop
  endfacet
  facet normal  0.000000e+000 -1.000000e+000  0.000000e+000
    outer loop
      vertex  3.557379e+001  5.993717e+001  8.059488e+001
      vertex  3.323592e+001  5.993717e+001  7.788388e+001
      vertex  4.048802e+001  5.993717e+001  7.788388e+001
    endloop
  endfacet
  facet normal  0.000000e+000 -1.000000e+000  -0.000000e+000
    outer loop
      vertex  4.048802e+001  5.993717e+001  7.788388e+001
      vertex  4.048802e+001  5.993717e+001  9.123554e+001
      vertex  3.557379e+001  5.993717e+001  8.059488e+001
    endloop
  endfacet
  facet normal  0.000000e+000 -1.000000e+000  0.000000e+000
    outer loop
      vertex  3.557379e+001  5.993717e+001  8.059488e+001
      vertex  4.048802e+001  5.993717e+001  9.123554e+001
      vertex  9.741105e+000  5.993717e+001  9.123554e+001
    endloop
  endfacet
  facet normal  0.000000e+000 -1.000000e+000  0.000000e+000
    outer loop
      vertex  3.557379e+001  5.993717e+001  8.059488e+001
      vertex  9.741105e+000  5.993717e+001  9.123554e+001
      vertex  9.900798e+000  5.993717e+001  8.059488e+001
    endloop
  endfacet
  facet normal  -0.000000e+000 -1.000000e+000  0.000000e+000
    outer loop
      vertex  9.900798e+000  5.993717e+001  8.059488e+001
      vertex  9.741105e+000  5.993717e+001  9.123554e+001
      vertex  9.741105e+000  5.993717e+001  7.788388e+001
    endloop
  endfacet
  facet normal  0.000000e+000 -1.000000e+000  0.000000e+000
    outer loop
      vertex  9.900798e+000  5.993717e+001  8.059488e+001
      vertex  9.741105e+000  5.993717e+001  7.788388e+001
      vertex  9.900798e+000  5.993717e+001  7.788388e+001
    endloop
  endfacet
  facet normal  -0.000000e+000 -8.660254e-001 -5.000002e-001
    outer loop
      vertex  0.000000e+000  8.010735e+001  4.625000e+001
      vertex  5.100000e+001  8.010735e+001  4.625000e+001
      vertex  3.980553e+001  7.525065e+001  5.466206e+001
    endloop
  endfacet
  facet normal  3.210694e-008 -8.660253e-001 -5.000003e-001
    outer loop
      vertex  0.000000e+000  8.010735e+001  4.625000e+001
      vertex  3.980553e+001  7.525065e+001  5.466206e+001
      vertex  1.404095e+001  7.515288e+001  5.483140e+001
    endloop
  endfacet
  facet normal -2.309076e-007 -8.660253e-001 -4.999999e-001
    outer loop
      vertex  0.000000e+000  8.010735e+001  4.625000e+001
      vertex  1.404095e+001  7.515288e+001  5.483140e+001
      vertex  9.900798e+000  7.308400e+001  5.841480e+001
    endloop
  endfacet
  facet normal -6.855436e-008 -8.660253e-001 -5.000000e-001
    outer loop
      vertex  0.000000e+000  8.010735e+001  4.625000e+001
      vertex  9.900798e+000  7.308400e+001  5.841480e+001
      vertex  9.900798e+000  6.184352e+001  7.788388e+001
    endloop
  endfacet
  facet normal  -0.000000e+000 -8.660254e-001 -5.000001e-001
    outer loop
      vertex  0.000000e+000  8.010735e+001  4.625000e+001
      vertex  9.900798e+000  6.184352e+001  7.788388e+001
      vertex  0.000000e+000  6.184352e+001  7.788388e+001
    endloop
  endfacet
  facet normal  0.000000e+000 -8.660262e-001 -4.999987e-001
    outer loop
      vertex  5.100000e+001  6.184352e+001  7.788388e+001
      vertex  3.228677e+001  6.184352e+001  7.788388e+001
      vertex  3.980553e+001  6.231012e+001  7.707570e+001
    endloop
  endfacet
  facet normal -1.757512e-007 -8.660254e-001 -4.999998e-001
    outer loop
      vertex  3.980553e+001  6.231012e+001  7.707570e+001
      vertex  3.228677e+001  6.184352e+001  7.788388e+001
      vertex  9.900798e+000  7.308400e+001  5.841480e+001
    endloop
  endfacet
  facet normal -1.791362e-007 -8.660254e-001 -4.999999e-001
    outer loop
      vertex  3.980553e+001  6.231012e+001  7.707570e+001
      vertex  9.900798e+000  7.308400e+001  5.841480e+001
      vertex  1.404095e+001  7.515288e+001  5.483140e+001
    endloop
  endfacet
  facet normal  7.463191e-008 -8.660253e-001 -5.000001e-001
    outer loop
      vertex  5.100000e+001  8.010735e+001  4.625000e+001
      vertex  5.100000e+001  6.184352e+001  7.788388e+001
      vertex  3.980553e+001  7.525065e+001  5.466206e+001
    endloop
  endfacet
  facet normal  1.053330e-007 -8.660254e-001 -5.000001e-001
    outer loop
      vertex  3.980553e+001  7.525065e+001  5.466206e+001
      vertex  5.100000e+001  6.184352e+001  7.788388e+001
      vertex  3.980553e+001  6.231012e+001  7.707570e+001
    endloop
  endfacet
  facet normal  3.702413e-007  8.660254e-001  4.999999e-001
    outer loop
      vertex  0.000000e+000  9.246359e+001  5.338388e+001
      vertex  0.000000e+000  7.060993e+001  9.123554e+001
      vertex  9.900798e+000  7.254928e+001  8.787649e+001
    endloop
  endfacet
  facet normal  2.391082e-007  8.660254e-001  4.999999e-001
    outer loop
      vertex  0.000000e+000  9.246359e+001  5.338388e+001
      vertex  9.900798e+000  7.254928e+001  8.787649e+001
      vertex  9.900798e+000  8.544024e+001  6.554868e+001
    endloop
  endfacet
  facet normal  2.309076e-007  8.660254e-001  4.999999e-001
    outer loop
      vertex  0.000000e+000  9.246359e+001  5.338388e+001
      vertex  9.900798e+000  8.544024e+001  6.554868e+001
      vertex  1.404095e+001  8.750912e+001  6.196528e+001
    endloop
  endfacet
  facet normal -3.187595e-008  8.660252e-001  5.000002e-001
    outer loop
      vertex  0.000000e+000  9.246359e+001  5.338388e+001
      vertex  1.404095e+001  8.750912e+001  6.196528e+001
      vertex  3.980553e+001  8.760689e+001  6.179594e+001
    endloop
  endfacet
  facet normal  0.000000e+000  8.660253e-001  5.000002e-001
    outer loop
      vertex  0.000000e+000  9.246359e+001  5.338388e+001
      vertex  3.980553e+001  8.760689e+001  6.179594e+001
      vertex  5.100000e+001  9.246359e+001  5.338388e+001
    endloop
  endfacet
  facet normal  1.074817e-007  8.660255e-001  4.999999e-001
    outer loop
      vertex  1.404095e+001  8.750912e+001  6.196528e+001
      vertex  9.900798e+000  8.544024e+001  6.554868e+001
      vertex  3.980553e+001  7.466637e+001  8.420958e+001
    endloop
  endfacet
  facet normal  1.576275e-007  8.660255e-001  4.999998e-001
    outer loop
      vertex  3.980553e+001  7.466637e+001  8.420958e+001
      vertex  9.900798e+000  8.544024e+001  6.554868e+001
      vertex  3.557379e+001  7.254928e+001  8.787649e+001
    endloop
  endfacet
  facet normal -1.283530e-007  8.660256e-001  4.999995e-001
    outer loop
      vertex  3.980553e+001  7.466637e+001  8.420958e+001
      vertex  3.557379e+001  7.254928e+001  8.787649e+001
      vertex  5.100000e+001  7.060993e+001  9.123554e+001
    endloop
  endfacet
  facet normal -2.806756e-007  8.660255e-001  4.999999e-001
    outer loop
      vertex  5.100000e+001  9.246359e+001  5.338388e+001
      vertex  3.980553e+001  8.760689e+001  6.179594e+001
      vertex  5.100000e+001  7.060993e+001  9.123554e+001
    endloop
  endfacet
  facet normal -5.003319e-007  8.660254e-001  4.999999e-001
    outer loop
      vertex  5.100000e+001  7.060993e+001  9.123554e+001
      vertex  3.980553e+001  8.760689e+001  6.179594e+001
      vertex  3.980553e+001  7.466637e+001  8.420958e+001
    endloop
  endfacet
  facet normal  -0.000000e+000  8.660260e-001  4.999991e-001
    outer loop
      vertex  3.557379e+001  7.254928e+001  8.787649e+001
      vertex  9.900798e+000  7.254928e+001  8.787649e+001
      vertex  5.100000e+001  7.060993e+001  9.123554e+001
    endloop
  endfacet
  facet normal  0.000000e+000  8.660259e-001  4.999991e-001
    outer loop
      vertex  5.100000e+001  7.060993e+001  9.123554e+001
      vertex  9.900798e+000  7.254928e+001  8.787649e+001
      vertex  0.000000e+000  7.060993e+001  9.123554e+001
    endloop
  endfacet
  facet normal  7.060193e-001  3.540963e-001 -6.133128e-001
    outer loop
      vertex  3.980553e+001  7.466637e+001  8.420958e+001
      vertex  3.980553e+001  6.231012e+001  7.707570e+001
      vertex  1.404095e+001  8.750912e+001  6.196528e+001
    endloop
  endfacet
  facet normal  7.060193e-001  3.540964e-001 -6.133127e-001
    outer loop
      vertex  1.404095e+001  8.750912e+001  6.196528e+001
      vertex  3.980553e+001  6.231012e+001  7.707570e+001
      vertex  1.404095e+001  7.515288e+001  5.483140e+001
    endloop
  endfacet
  facet normal  7.589267e-003 -4.999858e-001  8.660004e-001
    outer loop
      vertex  3.980553e+001  8.760689e+001  6.179594e+001
      vertex  1.404095e+001  8.750912e+001  6.196528e+001
      vertex  3.980553e+001  7.525065e+001  5.466206e+001
    endloop
  endfacet
  facet normal  7.589267e-003 -4.999858e-001  8.660004e-001
    outer loop
      vertex  3.980553e+001  7.525065e+001  5.466206e+001
      vertex  1.404095e+001  8.750912e+001  6.196528e+001
      vertex  1.404095e+001  7.515288e+001  5.483140e+001
    endloop
  endfacet
  facet normal -1.000000e+000  0.000000e+000  0.000000e+000
    outer loop
      vertex  3.980553e+001  7.525065e+001  5.466206e+001
      vertex  3.980553e+001  6.231012e+001  7.707570e+001
      vertex  3.980553e+001  8.760689e+001  6.179594e+001
    endloop
  endfacet
  facet normal -1.000000e+000  0.000000e+000  0.000000e+000
    outer loop
      vertex  3.980553e+001  8.760689e+001  6.179594e+001
      vertex  3.980553e+001  6.231012e+001  7.707570e+001
      vertex  3.980553e+001  7.466637e+001  8.420958e+001
    endloop
  endfacet
  facet normal  0.000000e+000  8.660254e-001 -5.000001e-001
    outer loop
      vertex  0.000000e+000 -8.010735e+001  4.625000e+001
      vertex  0.000000e+000 -6.184352e+001  7.788388e+001
      vertex  9.900798e+000 -6.184352e+001  7.788388e+001
    endloop
  endfacet
  facet normal -1.371087e-007  8.660253e-001 -5.000000e-001
    outer loop
      vertex  0.000000e+000 -8.010735e+001  4.625000e+001
      vertex  9.900798e+000 -6.184352e+001  7.788388e+001
      vertex  9.900798e+000 -7.308400e+001  5.841480e+001
    endloop
  endfacet
  facet normal -2.309076e-007  8.660254e-001 -4.999999e-001
    outer loop
      vertex  0.000000e+000 -8.010735e+001  4.625000e+001
      vertex  9.900798e+000 -7.308400e+001  5.841480e+001
      vertex  1.404095e+001 -7.515288e+001  5.483140e+001
    endloop
  endfacet
  facet normal  3.187595e-008  8.660252e-001 -5.000002e-001
    outer loop
      vertex  0.000000e+000 -8.010735e+001  4.625000e+001
      vertex  1.404095e+001 -7.515288e+001  5.483140e+001
      vertex  3.980553e+001 -7.525065e+001  5.466206e+001
    endloop
  endfacet
  facet normal  0.000000e+000  8.660253e-001 -5.000002e-001
    outer loop
      vertex  0.000000e+000 -8.010735e+001  4.625000e+001
      vertex  3.980553e+001 -7.525065e+001  5.466206e+001
      vertex  5.100000e+001 -8.010735e+001  4.625000e+001
    endloop
  endfacet
  facet normal -1.791362e-007  8.660254e-001 -4.999999e-001
    outer loop
      vertex  1.404095e+001 -7.515288e+001  5.483140e+001
      vertex  9.900798e+000 -7.308400e+001  5.841480e+001
      vertex  3.980553e+001 -6.231012e+001  7.707570e+001
    endloop
  endfacet
  facet normal -1.757512e-007  8.660254e-001 -4.999998e-001
    outer loop
      vertex  3.980553e+001 -6.231012e+001  7.707570e+001
      vertex  9.900798e+000 -7.308400e+001  5.841480e+001
      vertex  3.228677e+001 -6.184352e+001  7.788388e+001
    endloop
  endfacet
  facet normal  0.000000e+000  8.660262e-001 -4.999987e-001
    outer loop
      vertex  3.980553e+001 -6.231012e+001  7.707570e+001
      vertex  3.228677e+001 -6.184352e+001  7.788388e+001
      vertex  5.100000e+001 -6.184352e+001  7.788388e+001
    endloop
  endfacet
  facet normal  9.328988e-008  8.660253e-001 -5.000001e-001
    outer loop
      vertex  5.100000e+001 -8.010735e+001  4.625000e+001
      vertex  3.980553e+001 -7.525065e+001  5.466206e+001
      vertex  5.100000e+001 -6.184352e+001  7.788388e+001
    endloop
  endfacet
  facet normal  1.316663e-007  8.660254e-001 -5.000001e-001
    outer loop
      vertex  5.100000e+001 -6.184352e+001  7.788388e+001
      vertex  3.980553e+001 -7.525065e+001  5.466206e+001
      vertex  3.980553e+001 -6.231012e+001  7.707570e+001
    endloop
  endfacet
  facet normal  0.000000e+000 -8.660254e-001  5.000002e-001
    outer loop
      vertex  0.000000e+000 -9.246359e+001  5.338388e+001
      vertex  5.100000e+001 -9.246359e+001  5.338388e+001
      vertex  3.980553e+001 -8.760689e+001  6.179594e+001
    endloop
  endfacet
  facet normal -3.210694e-008 -8.660253e-001  5.000003e-001
    outer loop
      vertex  0.000000e+000 -9.246359e+001  5.338388e+001
      vertex  3.980553e+001 -8.760689e+001  6.179594e+001
      vertex  1.404095e+001 -8.750912e+001  6.196528e+001
    endloop
  endfacet
  facet normal  2.309076e-007 -8.660253e-001  4.999999e-001
    outer loop
      vertex  0.000000e+000 -9.246359e+001  5.338388e+001
      vertex  1.404095e+001 -8.750912e+001  6.196528e+001
      vertex  9.900798e+000 -8.544024e+001  6.554868e+001
    endloop
  endfacet
  facet normal  2.988853e-007 -8.660254e-001  4.999999e-001
    outer loop
      vertex  0.000000e+000 -9.246359e+001  5.338388e+001
      vertex  9.900798e+000 -8.544024e+001  6.554868e+001
      vertex  9.900798e+000 -7.254928e+001  8.787649e+001
    endloop
  endfacet
  facet normal  3.526108e-007 -8.660254e-001  4.999999e-001
    outer loop
      vertex  0.000000e+000 -9.246359e+001  5.338388e+001
      vertex  9.900798e+000 -7.254928e+001  8.787649e+001
      vertex  0.000000e+000 -7.060993e+001  9.123554e+001
    endloop
  endfacet
  facet normal -1.283530e-007 -8.660256e-001  4.999995e-001
    outer loop
      vertex  5.100000e+001 -7.060993e+001  9.123554e+001
      vertex  3.557379e+001 -7.254928e+001  8.787649e+001
      vertex  3.980553e+001 -7.466637e+001  8.420958e+001
    endloop
  endfacet
  facet normal  1.576275e-007 -8.660255e-001  4.999998e-001
    outer loop
      vertex  3.980553e+001 -7.466637e+001  8.420958e+001
      vertex  3.557379e+001 -7.254928e+001  8.787649e+001
      vertex  9.900798e+000 -8.544024e+001  6.554868e+001
    endloop
  endfacet
  facet normal  1.074817e-007 -8.660255e-001  4.999999e-001
    outer loop
      vertex  3.980553e+001 -7.466637e+001  8.420958e+001
      vertex  9.900798e+000 -8.544024e+001  6.554868e+001
      vertex  1.404095e+001 -8.750912e+001  6.196528e+001
    endloop
  endfacet
  facet normal -2.494894e-007 -8.660255e-001  4.999999e-001
    outer loop
      vertex  5.100000e+001 -9.246359e+001  5.338388e+001
      vertex  5.100000e+001 -7.060993e+001  9.123554e+001
      vertex  3.980553e+001 -8.760689e+001  6.179594e+001
    endloop
  endfacet
  facet normal -5.266652e-007 -8.660255e-001  5.000000e-001
    outer loop
      vertex  3.980553e+001 -8.760689e+001  6.179594e+001
      vertex  5.100000e+001 -7.060993e+001  9.123554e+001
      vertex  3.980553e+001 -7.466637e+001  8.420958e+001
    endloop
  endfacet
  facet normal  0.000000e+000 -8.660260e-001  4.999990e-001
    outer loop
      vertex  3.557379e+001 -7.254928e+001  8.787649e+001
      vertex  5.100000e+001 -7.060993e+001  9.123554e+001
      vertex  9.900798e+000 -7.254928e+001  8.787649e+001
    endloop
  endfacet
  facet normal  0.000000e+000 -8.660259e-001  4.999991e-001
    outer loop
      vertex  9.900798e+000 -7.254928e+001  8.787649e+001
      vertex  5.100000e+001 -7.060993e+001  9.123554e+001
      vertex  0.000000e+000 -7.060993e+001  9.123554e+001
    endloop
  endfacet
  facet normal  7.060193e-001 -3.540963e-001 -6.133128e-001
    outer loop
      vertex  3.980553e+001 -7.466637e+001  8.420958e+001
      vertex  1.404095e+001 -8.750912e+001  6.196528e+001
      vertex  3.980553e+001 -6.231012e+001  7.707570e+001
    endloop
  endfacet
  facet normal  7.060193e-001 -3.540964e-001 -6.133127e-001
    outer loop
      vertex  3.980553e+001 -6.231012e+001  7.707570e+001
      vertex  1.404095e+001 -8.750912e+001  6.196528e+001
      vertex  1.404095e+001 -7.515288e+001  5.483140e+001
    endloop
  endfacet
  facet normal  7.589251e-003  4.999857e-001  8.660004e-001
    outer loop
      vertex  3.980553e+001 -8.760689e+001  6.179594e+001
      vertex  3.980553e+001 -7.525065e+001  5.466206e+001
      vertex  1.404095e+001 -8.750912e+001  6.196528e+001
    endloop
  endfacet
  facet normal  7.589251e-003  4.999857e-001  8.660004e-001
    outer loop
      vertex  1.404095e+001 -8.750912e+001  6.196528e+001
      vertex  3.980553e+001 -7.525065e+001  5.466206e+001
      vertex  1.404095e+001 -7.515288e+001  5.483140e+001
    endloop
  endfacet
  facet normal -1.000000e+000  0.000000e+000  0.000000e+000
    outer loop
      vertex  3.980553e+001 -8.760689e+001  6.179594e+001
      vertex  3.980553e+001 -7.466637e+001  8.420958e+001
      vertex  3.980553e+001 -7.525065e+001  5.466206e+001
    endloop
  endfacet
  facet normal -1.000000e+000  0.000000e+000  0.000000e+000
    outer loop
      vertex  3.980553e+001 -7.525065e+001  5.466206e+001
      vertex  3.980553e+001 -7.466637e+001  8.420958e+001
      vertex  3.980553e+001 -6.231012e+001  7.707570e+001
    endloop
  endfacet
  facet normal  0.000000e+000  0.000000e+000  1.000000e+000
    outer loop
      vertex -3.552714e-015 -3.383295e+001  7.788388e+001
      vertex -3.552714e-015 -2.180000e+001  7.788388e+001
      vertex -1.800000e+001 -3.383295e+001  7.788388e+001
    endloop
  endfacet
  facet normal  0.000000e+000  0.000000e+000  1.000000e+000
    outer loop
      vertex -1.800000e+001 -3.383295e+001  7.788388e+001
      vertex -3.552714e-015 -2.180000e+001  7.788388e+001
      vertex -1.800000e+001 -2.180000e+001  7.788388e+001
    endloop
  endfacet
  facet normal  0.000000e+000  0.000000e+000  1.000000e+000
    outer loop
      vertex -3.552714e-015  2.180000e+001  7.788388e+001
      vertex -3.552714e-015  3.383295e+001  7.788388e+001
      vertex -1.800000e+001  2.180000e+001  7.788388e+001
    endloop
  endfacet
  facet normal  0.000000e+000  0.000000e+000  1.000000e+000
    outer loop
      vertex -1.800000e+001  2.180000e+001  7.788388e+001
      vertex -3.552714e-015  3.383295e+001  7.788388e+001
      vertex -1.800000e+001  3.383295e+001  7.788388e+001
    endloop
  endfacet
  facet normal  1.000000e+000  -0.000000e+000  0.000000e+000
    outer loop
      vertex  2.550000e+001  3.383295e+001  7.788388e+001
      vertex  2.550000e+001  2.180000e+001  7.788388e+001
      vertex  2.550000e+001  2.419972e+001  5.018388e+001
    endloop
  endfacet
  facet normal  1.000000e+000  0.000000e+000  0.000000e+000
    outer loop
      vertex  2.550000e+001  2.419972e+001  5.018388e+001
      vertex  2.550000e+001  2.180000e+001  7.788388e+001
      vertex  2.550000e+001  2.180000e+001  5.318388e+001
    endloop
  endfacet
  facet normal  9.999999e-001  0.000000e+000  0.000000e+000
    outer loop
      vertex  2.550000e+001  2.419972e+001  5.018388e+001
      vertex  2.550000e+001  2.180000e+001  5.318388e+001
      vertex  2.550000e+001  2.180000e+001  5.018388e+001
    endloop
  endfacet
  facet normal  1.000000e+000  0.000000e+000  -0.000000e+000
    outer loop
      vertex  2.550000e+001  2.180000e+001  5.018388e+001
      vertex  2.550000e+001  2.180000e+001  5.318388e+001
      vertex  2.550000e+001 -2.180000e+001  5.318388e+001
    endloop
  endfacet
  facet normal  1.000000e+000  0.000000e+000  0.000000e+000
    outer loop
      vertex  2.550000e+001  2.180000e+001  5.018388e+001
      vertex  2.550000e+001 -2.180000e+001  5.318388e+001
      vertex  2.550000e+001 -2.180000e+001  5.018388e+001
    endloop
  endfacet
  facet normal  9.999999e-001  -0.000000e+000  0.000000e+000
    outer loop
      vertex  2.550000e+001 -2.180000e+001  7.788388e+001
      vertex  2.550000e+001 -3.383295e+001  7.788388e+001
      vertex  2.550000e+001 -2.180000e+001  5.318388e+001
    endloop
  endfacet
  facet normal  1.000000e+000  0.000000e+000  0.000000e+000
    outer loop
      vertex  2.550000e+001 -2.180000e+001  5.318388e+001
      vertex  2.550000e+001 -3.383295e+001  7.788388e+001
      vertex  2.550000e+001 -2.419972e+001  5.018388e+001
    endloop
  endfacet
  facet normal  9.999999e-001  0.000000e+000  0.000000e+000
    outer loop
      vertex  2.550000e+001 -2.180000e+001  5.318388e+001
      vertex  2.550000e+001 -2.419972e+001  5.018388e+001
      vertex  2.550000e+001 -2.180000e+001  5.018388e+001
    endloop
  endfacet
  facet normal  0.000000e+000  1.000000e+000  0.000000e+000
    outer loop
      vertex -1.800000e+001 -2.180000e+001  5.318388e+001
      vertex -1.800000e+001 -2.180000e+001  7.788388e+001
      vertex  2.550000e+001 -2.180000e+001  5.318388e+001
    endloop
  endfacet
  facet normal  0.000000e+000  1.000000e+000  0.000000e+000
    outer loop
      vertex  2.550000e+001 -2.180000e+001  5.318388e+001
      vertex -1.800000e+001 -2.180000e+001  7.788388e+001
      vertex -3.552714e-015 -2.180000e+001  7.788388e+001
    endloop
  endfacet
  facet normal  -0.000000e+000  1.000000e+000  0.000000e+000
    outer loop
      vertex  2.550000e+001 -2.180000e+001  5.318388e+001
      vertex -3.552714e-015 -2.180000e+001  7.788388e+001
      vertex  2.550000e+001 -2.180000e+001  7.788388e+001
    endloop
  endfacet
  facet normal  0.000000e+000 -1.000000e+000  0.000000e+000
    outer loop
      vertex  2.550000e+001  2.180000e+001  7.788388e+001
      vertex -3.552714e-015  2.180000e+001  7.788388e+001
      vertex  2.550000e+001  2.180000e+001  5.318388e+001
    endloop
  endfacet
  facet normal  0.000000e+000 -1.000000e+000  0.000000e+000
    outer loop
      vertex  2.550000e+001  2.180000e+001  5.318388e+001
      vertex -3.552714e-015  2.180000e+001  7.788388e+001
      vertex -1.800000e+001  2.180000e+001  7.788388e+001
    endloop
  endfacet
  facet normal  0.000000e+000 -1.000000e+000  0.000000e+000
    outer loop
      vertex  2.550000e+001  2.180000e+001  5.318388e+001
      vertex -1.800000e+001  2.180000e+001  7.788388e+001
      vertex -1.800000e+001  2.180000e+001  5.318388e+001
    endloop
  endfacet
  facet normal  0.000000e+000  9.445132e-001 -3.284734e-001
    outer loop
      vertex  2.550000e+001  3.383295e+001  7.788388e+001
      vertex  2.550000e+001  2.419972e+001  5.018388e+001
      vertex -3.552714e-015  3.383295e+001  7.788388e+001
    endloop
  endfacet
  facet normal  0.000000e+000  9.445132e-001 -3.284734e-001
    outer loop
      vertex -3.552714e-015  3.383295e+001  7.788388e+001
      vertex  2.550000e+001  2.419972e+001  5.018388e+001
      vertex -1.800000e+001  2.419972e+001  5.018388e+001
    endloop
  endfacet
  facet normal  0.000000e+000  9.445132e-001 -3.284734e-001
    outer loop
      vertex -3.552714e-015  3.383295e+001  7.788388e+001
      vertex -1.800000e+001  2.419972e+001  5.018388e+001
      vertex -1.800000e+001  3.383295e+001  7.788388e+001
    endloop
  endfacet
  facet normal  0.000000e+000 -9.445132e-001 -3.284734e-001
    outer loop
      vertex -1.800000e+001 -3.383295e+001  7.788388e+001
      vertex -1.800000e+001 -2.419972e+001  5.018388e+001
      vertex -3.552714e-015 -3.383295e+001  7.788388e+001
    endloop
  endfacet
  facet normal  0.000000e+000 -9.445132e-001 -3.284734e-001
    outer loop
      vertex -3.552714e-015 -3.383295e+001  7.788388e+001
      vertex -1.800000e+001 -2.419972e+001  5.018388e+001
      vertex  2.550000e+001 -2.419972e+001  5.018388e+001
    endloop
  endfacet
  facet normal  0.000000e+000 -9.445132e-001 -3.284734e-001
    outer loop
      vertex -3.552714e-015 -3.383295e+001  7.788388e+001
      vertex  2.550000e+001 -2.419972e+001  5.018388e+001
      vertex  2.550000e+001 -3.383295e+001  7.788388e+001
    endloop
  endfacet
  facet normal -1.000000e+000  0.000000e+000  2.660877e-016
    outer loop
      vertex -3.552714e-015 -3.383295e+001  7.788388e+001
      vertex  0.000000e+000  7.060993e+001  9.123554e+001
      vertex -3.552714e-015 -2.180000e+001  7.788388e+001
    endloop
  endfacet
  facet normal -1.000000e+000  0.000000e+000  2.660878e-016
    outer loop
      vertex  0.000000e+000  7.060993e+001  9.123554e+001
      vertex -3.552714e-015  2.180000e+001  7.788388e+001
      vertex -3.552714e-015 -2.180000e+001  7.788388e+001
    endloop
  endfacet
  facet normal -1.000000e+000  0.000000e+000  2.660878e-016
    outer loop
      vertex -3.552714e-015  2.180000e+001  7.788388e+001
      vertex  0.000000e+000  7.060993e+001  9.123554e+001
      vertex -3.552714e-015  3.383295e+001  7.788388e+001
    endloop
  endfacet
  facet normal -1.000000e+000  0.000000e+000  0.000000e+000
    outer loop
      vertex  0.000000e+000 -6.184352e+001  7.788388e+001
      vertex  0.000000e+000 -8.010735e+001  4.625000e+001
      vertex  0.000000e+000 -9.246359e+001  5.338388e+001
    endloop
  endfacet
  facet normal -1.000000e+000  0.000000e+000  0.000000e+000
    outer loop
      vertex  0.000000e+000 -6.184352e+001  7.788388e+001
      vertex  0.000000e+000 -9.246359e+001  5.338388e+001
      vertex  0.000000e+000 -7.060993e+001  9.123554e+001
    endloop
  endfacet
  facet normal -1.000000e+000  0.000000e+000  0.000000e+000
    outer loop
      vertex  0.000000e+000 -6.184352e+001  7.788388e+001
      vertex  0.000000e+000 -7.060993e+001  9.123554e+001
      vertex  0.000000e+000  7.060993e+001  9.123554e+001
    endloop
  endfacet
  facet normal -1.000000e+000 -1.268347e-016  1.258248e-015
    outer loop
      vertex  0.000000e+000 -6.184352e+001  7.788388e+001
      vertex  0.000000e+000  7.060993e+001  9.123554e+001
      vertex -3.552714e-015 -3.383295e+001  7.788388e+001
    endloop
  endfacet
  facet normal -1.000000e+000  0.000000e+000  -0.000000e+000
    outer loop
      vertex  0.000000e+000 -1.055220e+002 -1.065814e-014
      vertex  0.000000e+000 -9.246359e+001  5.338388e+001
      vertex  0.000000e+000 -8.010735e+001  4.625000e+001
    endloop
  endfacet
  facet normal -1.000000e+000  0.000000e+000  0.000000e+000
    outer loop
      vertex  0.000000e+000 -1.055220e+002 -1.065814e-014
      vertex  0.000000e+000 -8.010735e+001  4.625000e+001
      vertex  0.000000e+000 -8.221728e+001  4.238595e+001
    endloop
  endfacet
  facet normal -1.000000e+000  0.000000e+000  0.000000e+000
    outer loop
      vertex  0.000000e+000 -1.055220e+002 -1.065814e-014
      vertex  0.000000e+000 -8.221728e+001  4.238595e+001
      vertex  0.000000e+000 -8.414096e+001  3.842589e+001
    endloop
  endfacet
  facet normal -1.000000e+000  0.000000e+000  0.000000e+000
    outer loop
      vertex  0.000000e+000 -1.055220e+002 -1.065814e-014
      vertex  0.000000e+000 -8.414096e+001  3.842589e+001
      vertex  0.000000e+000 -8.587403e+001  3.437878e+001
    endloop
  endfacet
  facet normal -1.000000e+000  0.000000e+000  0.000000e+000
    outer loop
      vertex  0.000000e+000 -1.055220e+002 -1.065814e-014
      vertex  0.000000e+000 -8.587403e+001  3.437878e+001
      vertex  0.000000e+000 -8.741257e+001  3.025379e+001
    endloop
  endfacet
  facet normal -1.000000e+000  0.000000e+000  0.000000e+000
    outer loop
      vertex  0.000000e+000 -1.055220e+002 -1.065814e-014
      vertex  0.000000e+000 -8.741257e+001  3.025379e+001
      vertex  0.000000e+000 -8.875310e+001  2.606026e+001
    endloop
  endfacet
  facet normal -9.999999e-001  0.000000e+000  0.000000e+000
    outer loop
      vertex  0.000000e+000 -1.055220e+002 -1.065814e-014
      vertex  0.000000e+000 -8.875310e+001  2.606026e+001
      vertex  0.000000e+000 -8.989257e+001  2.180770e+001
    endloop
  endfacet
  facet normal -1.000000e+000  0.000000e+000  0.000000e+000
    outer loop
      vertex  0.000000e+000 -1.055220e+002 -1.065814e-014
      vertex  0.000000e+000 -8.989257e+001  2.180770e+001
      vertex  0.000000e+000 -9.082841e+001  1.750574e+001
    endloop
  endfacet
  facet normal -1.000000e+000  0.000000e+000  0.000000e+000
    outer loop
      vertex  0.000000e+000 -1.055220e+002 -1.065814e-014
      vertex  0.000000e+000 -9.082841e+001  1.750574e+001
      vertex  0.000000e+000 -9.155849e+001  1.316412e+001
    endloop
  endfacet
  facet normal -9.999999e-001  0.000000e+000  0.000000e+000
    outer loop
      vertex  0.000000e+000 -1.055220e+002 -1.065814e-014
      vertex  0.000000e+000 -9.155849e+001  1.316412e+001
      vertex  0.000000e+000 -9.208115e+001  8.792684e+000
    endloop
  endfacet
  facet normal -1.000000e+000  0.000000e+000  0.000000e+000
    outer loop
      vertex  0.000000e+000 -1.055220e+002 -1.065814e-014
      vertex  0.000000e+000 -9.208115e+001  8.792684e+000
      vertex  0.000000e+000 -9.239523e+001  4.401327e+000
    endloop
  endfacet
  facet normal -1.000000e+000  0.000000e+000  0.000000e+000
    outer loop
      vertex  0.000000e+000 -1.055220e+002 -1.065814e-014
      vertex  0.000000e+000 -9.239523e+001  4.401327e+000
      vertex  0.000000e+000 -9.250000e+001  0.000000e+000
    endloop
  endfacet
  facet normal -1.000000e+000  0.000000e+000  0.000000e+000
    outer loop
      vertex  0.000000e+000  1.055220e+002  0.000000e+000
      vertex  0.000000e+000  9.250000e+001  0.000000e+000
      vertex  0.000000e+000  9.239523e+001  4.401327e+000
    endloop
  endfacet
  facet normal -1.000000e+000  0.000000e+000  0.000000e+000
    outer loop
      vertex  0.000000e+000  1.055220e+002  0.000000e+000
      vertex  0.000000e+000  9.239523e+001  4.401327e+000
      vertex  0.000000e+000  9.208115e+001  8.792684e+000
    endloop
  endfacet
  facet normal -9.999999e-001  0.000000e+000  0.000000e+000
    outer loop
      vertex  0.000000e+000  1.055220e+002  0.000000e+000
      vertex  0.000000e+000  9.208115e+001  8.792684e+000
      vertex  0.000000e+000  9.155849e+001  1.316412e+001
    endloop
  endfacet
  facet normal -1.000000e+000  0.000000e+000  0.000000e+000
    outer loop
      vertex  0.000000e+000  1.055220e+002  0.000000e+000
      vertex  0.000000e+000  9.155849e+001  1.316412e+001
      vertex  0.000000e+000  9.082841e+001  1.750574e+001
    endloop
  endfacet
  facet normal -1.000000e+000  0.000000e+000  0.000000e+000
    outer loop
      vertex  0.000000e+000  1.055220e+002  0.000000e+000
      vertex  0.000000e+000  9.082841e+001  1.750574e+001
      vertex  0.000000e+000  8.989257e+001  2.180770e+001
    endloop
  endfacet
  facet normal -1.000000e+000  0.000000e+000  0.000000e+000
    outer loop
      vertex  0.000000e+000  1.055220e+002  0.000000e+000
      vertex  0.000000e+000  8.989257e+001  2.180770e+001
      vertex  0.000000e+000  8.875310e+001  2.606026e+001
    endloop
  endfacet
  facet normal -1.000000e+000  0.000000e+000  0.000000e+000
    outer loop
      vertex  0.000000e+000  1.055220e+002  0.000000e+000
      vertex  0.000000e+000  8.875310e+001  2.606026e+001
      vertex  0.000000e+000  8.741257e+001  3.025379e+001
    endloop
  endfacet
  facet normal -1.000000e+000  0.000000e+000  0.000000e+000
    outer loop
      vertex  0.000000e+000  1.055220e+002  0.000000e+000
      vertex  0.000000e+000  8.741257e+001  3.025379e+001
      vertex  0.000000e+000  8.587403e+001  3.437878e+001
    endloop
  endfacet
  facet normal -1.000000e+000  0.000000e+000  0.000000e+000
    outer loop
      vertex  0.000000e+000  1.055220e+002  0.000000e+000
      vertex  0.000000e+000  8.587403e+001  3.437878e+001
      vertex  0.000000e+000  8.414096e+001  3.842589e+001
    endloop
  endfacet
  facet normal -1.000000e+000  0.000000e+000  0.000000e+000
    outer loop
      vertex  0.000000e+000  1.055220e+002  0.000000e+000
      vertex  0.000000e+000  8.414096e+001  3.842589e+001
      vertex  0.000000e+000  8.221728e+001  4.238595e+001
    endloop
  endfacet
  facet normal -1.000000e+000  0.000000e+000  0.000000e+000
    outer loop
      vertex  0.000000e+000  1.055220e+002  0.000000e+000
      vertex  0.000000e+000  8.221728e+001  4.238595e+001
      vertex  0.000000e+000  8.010735e+001  4.625000e+001
    endloop
  endfacet
  facet normal -1.000000e+000  0.000000e+000  0.000000e+000
    outer loop
      vertex  0.000000e+000  1.055220e+002  0.000000e+000
      vertex  0.000000e+000  8.010735e+001  4.625000e+001
      vertex  0.000000e+000  9.246359e+001  5.338388e+001
    endloop
  endfacet
  facet normal -9.999999e-001  1.268347e-016 -8.327692e-017
    outer loop
      vertex -3.552714e-015  3.383295e+001  7.788388e+001
      vertex  0.000000e+000  7.060993e+001  9.123554e+001
      vertex  0.000000e+000  6.184352e+001  7.788388e+001
    endloop
  endfacet
  facet normal -1.000000e+000  0.000000e+000  0.000000e+000
    outer loop
      vertex  0.000000e+000  6.184352e+001  7.788388e+001
      vertex  0.000000e+000  7.060993e+001  9.123554e+001
      vertex  0.000000e+000  9.246359e+001  5.338388e+001
    endloop
  endfacet
  facet normal -1.000000e+000  -0.000000e+000  0.000000e+000
    outer loop
      vertex  0.000000e+000  6.184352e+001  7.788388e+001
      vertex  0.000000e+000  9.246359e+001  5.338388e+001
      vertex  0.000000e+000  8.010735e+001  4.625000e+001
    endloop
  endfacet
  facet normal -1.000000e+000  0.000000e+000  0.000000e+000
    outer loop
      vertex -1.800000e+001 -2.180000e+001  5.018388e+001
      vertex -1.800000e+001 -2.180000e+001  5.318388e+001
      vertex -1.800000e+001  2.180000e+001  5.018388e+001
    endloop
  endfacet
  facet normal -1.000000e+000  0.000000e+000  0.000000e+000
    outer loop
      vertex -1.800000e+001  2.180000e+001  5.018388e+001
      vertex -1.800000e+001 -2.180000e+001  5.318388e+001
      vertex -1.800000e+001  2.180000e+001  5.318388e+001
    endloop
  endfacet
  facet normal -9.999999e-001  0.000000e+000  0.000000e+000
    outer loop
      vertex -1.800000e+001  2.180000e+001  5.018388e+001
      vertex -1.800000e+001  2.180000e+001  5.318388e+001
      vertex -1.800000e+001  2.419972e+001  5.018388e+001
    endloop
  endfacet
  facet normal -1.000000e+000  0.000000e+000  0.000000e+000
    outer loop
      vertex -1.800000e+001  2.419972e+001  5.018388e+001
      vertex -1.800000e+001  2.180000e+001  5.318388e+001
      vertex -1.800000e+001  2.180000e+001  7.788388e+001
    endloop
  endfacet
  facet normal -1.000000e+000  0.000000e+000  0.000000e+000
    outer loop
      vertex -1.800000e+001  2.419972e+001  5.018388e+001
      vertex -1.800000e+001  2.180000e+001  7.788388e+001
      vertex -1.800000e+001  3.383295e+001  7.788388e+001
    endloop
  endfacet
  facet normal -9.999999e-001  0.000000e+000  0.000000e+000
    outer loop
      vertex -1.800000e+001 -2.180000e+001  5.018388e+001
      vertex -1.800000e+001 -2.419972e+001  5.018388e+001
      vertex -1.800000e+001 -2.180000e+001  5.318388e+001
    endloop
  endfacet
  facet normal -1.000000e+000  -0.000000e+000  0.000000e+000
    outer loop
      vertex -1.800000e+001 -2.180000e+001  5.318388e+001
      vertex -1.800000e+001 -2.419972e+001  5.018388e+001
      vertex -1.800000e+001 -3.383295e+001  7.788388e+001
    endloop
  endfacet
  facet normal -9.999999e-001  0.000000e+000  0.000000e+000
    outer loop
      vertex -1.800000e+001 -2.180000e+001  5.318388e+001
      vertex -1.800000e+001 -3.383295e+001  7.788388e+001
      vertex -1.800000e+001 -2.180000e+001  7.788388e+001
    endloop
  endfacet
  facet normal  0.000000e+000  0.000000e+000  1.000000e+000
    outer loop
      vertex -1.800000e+001  2.180000e+001  5.318388e+001
      vertex -1.800000e+001 -2.180000e+001  5.318388e+001
      vertex  2.550000e+001  2.180000e+001  5.318388e+001
    endloop
  endfacet
  facet normal  0.000000e+000  0.000000e+000  1.000000e+000
    outer loop
      vertex  2.550000e+001  2.180000e+001  5.318388e+001
      vertex -1.800000e+001 -2.180000e+001  5.318388e+001
      vertex  2.550000e+001 -2.180000e+001  5.318388e+001
    endloop
  endfacet
  facet normal  -0.000000e+000  0.000000e+000 -1.000000e+000
    outer loop
      vertex -1.800000e+001  2.419972e+001  5.018388e+001
      vertex  2.550000e+001  2.419972e+001  5.018388e+001
      vertex -1.800000e+001  2.180000e+001  5.018388e+001
    endloop
  endfacet
  facet normal  0.000000e+000  0.000000e+000 -1.000000e+000
    outer loop
      vertex -1.800000e+001  2.180000e+001  5.018388e+001
      vertex  2.550000e+001  2.419972e+001  5.018388e+001
      vertex  2.550000e+001  2.180000e+001  5.018388e+001
    endloop
  endfacet
  facet normal  -0.000000e+000  0.000000e+000 -1.000000e+000
    outer loop
      vertex -1.800000e+001  2.180000e+001  5.018388e+001
      vertex  2.550000e+001  2.180000e+001  5.018388e+001
      vertex -1.800000e+001 -2.180000e+001  5.018388e+001
    endloop
  endfacet
  facet normal  0.000000e+000  0.000000e+000 -1.000000e+000
    outer loop
      vertex -1.800000e+001 -2.180000e+001  5.018388e+001
      vertex  2.550000e+001  2.180000e+001  5.018388e+001
      vertex  2.550000e+001 -2.180000e+001  5.018388e+001
    endloop
  endfacet
  facet normal  -0.000000e+000  0.000000e+000 -1.000000e+000
    outer loop
      vertex -1.800000e+001 -2.180000e+001  5.018388e+001
      vertex  2.550000e+001 -2.180000e+001  5.018388e+001
      vertex -1.800000e+001 -2.419972e+001  5.018388e+001
    endloop
  endfacet
  facet normal  0.000000e+000  0.000000e+000 -1.000000e+000
    outer loop
      vertex -1.800000e+001 -2.419972e+001  5.018388e+001
      vertex  2.550000e+001 -2.180000e+001  5.018388e+001
      vertex  2.550000e+001 -2.419972e+001  5.018388e+001
    endloop
  endfacet
  facet normal  1.000000e+000  0.000000e+000  -0.000000e+000
    outer loop
      vertex  5.100000e+001 -6.184352e+001  7.788388e+001
      vertex  5.100000e+001  6.184352e+001  7.788388e+001
      vertex  5.100000e+001  7.060993e+001  9.123554e+001
    endloop
  endfacet
  facet normal  1.000000e+000  0.000000e+000  0.000000e+000
    outer loop
      vertex  5.100000e+001 -6.184352e+001  7.788388e+001
      vertex  5.100000e+001  7.060993e+001  9.123554e+001
      vertex  5.100000e+001 -7.060993e+001  9.123554e+001
    endloop
  endfacet
  facet normal  1.000000e+000  0.000000e+000  0.000000e+000
    outer loop
      vertex  5.100000e+001 -6.184352e+001  7.788388e+001
      vertex  5.100000e+001 -7.060993e+001  9.123554e+001
      vertex  5.100000e+001 -9.246359e+001  5.338388e+001
    endloop
  endfacet
  facet normal  1.000000e+000  -0.000000e+000  0.000000e+000
    outer loop
      vertex  5.100000e+001 -6.184352e+001  7.788388e+001
      vertex  5.100000e+001 -9.246359e+001  5.338388e+001
      vertex  5.100000e+001 -8.010735e+001  4.625000e+001
    endloop
  endfacet
  facet normal  1.000000e+000  0.000000e+000  -0.000000e+000
    outer loop
      vertex  5.100000e+001 -1.055220e+002 -1.065814e-014
      vertex  5.100000e+001 -9.250000e+001  0.000000e+000
      vertex  5.100000e+001 -9.239523e+001  4.401327e+000
    endloop
  endfacet
  facet normal  1.000000e+000  0.000000e+000  -0.000000e+000
    outer loop
      vertex  5.100000e+001 -1.055220e+002 -1.065814e-014
      vertex  5.100000e+001 -9.239523e+001  4.401327e+000
      vertex  5.100000e+001 -9.208115e+001  8.792684e+000
    endloop
  endfacet
  facet normal  9.999999e-001  0.000000e+000  -0.000000e+000
    outer loop
      vertex  5.100000e+001 -1.055220e+002 -1.065814e-014
      vertex  5.100000e+001 -9.208115e+001  8.792684e+000
      vertex  5.100000e+001 -9.155849e+001  1.316412e+001
    endloop
  endfacet
  facet normal  1.000000e+000  0.000000e+000  -0.000000e+000
    outer loop
      vertex  5.100000e+001 -1.055220e+002 -1.065814e-014
      vertex  5.100000e+001 -9.155849e+001  1.316412e+001
      vertex  5.100000e+001 -9.082841e+001  1.750574e+001
    endloop
  endfacet
  facet normal  1.000000e+000  0.000000e+000  -0.000000e+000
    outer loop
      vertex  5.100000e+001 -1.055220e+002 -1.065814e-014
      vertex  5.100000e+001 -9.082841e+001  1.750574e+001
      vertex  5.100000e+001 -8.989257e+001  2.180770e+001
    endloop
  endfacet
  facet normal  1.000000e+000  0.000000e+000  -0.000000e+000
    outer loop
      vertex  5.100000e+001 -1.055220e+002 -1.065814e-014
      vertex  5.100000e+001 -8.989257e+001  2.180770e+001
      vertex  5.100000e+001 -8.875310e+001  2.606026e+001
    endloop
  endfacet
  facet normal  1.000000e+000  0.000000e+000  -0.000000e+000
    outer loop
      vertex  5.100000e+001 -1.055220e+002 -1.065814e-014
      vertex  5.100000e+001 -8.875310e+001  2.606026e+001
      vertex  5.100000e+001 -8.741257e+001  3.025379e+001
    endloop
  endfacet
  facet normal  1.000000e+000  0.000000e+000  -0.000000e+000
    outer loop
      vertex  5.100000e+001 -1.055220e+002 -1.065814e-014
      vertex  5.100000e+001 -8.741257e+001  3.025379e+001
      vertex  5.100000e+001 -8.587403e+001  3.437878e+001
    endloop
  endfacet
  facet normal  1.000000e+000  0.000000e+000  -0.000000e+000
    outer loop
      vertex  5.100000e+001 -1.055220e+002 -1.065814e-014
      vertex  5.100000e+001 -8.587403e+001  3.437878e+001
      vertex  5.100000e+001 -8.414096e+001  3.842589e+001
    endloop
  endfacet
  facet normal  1.000000e+000  0.000000e+000  -0.000000e+000
    outer loop
      vertex  5.100000e+001 -1.055220e+002 -1.065814e-014
      vertex  5.100000e+001 -8.414096e+001  3.842589e+001
      vertex  5.100000e+001 -8.221728e+001  4.238595e+001
    endloop
  endfacet
  facet normal  1.000000e+000  0.000000e+000  -0.000000e+000
    outer loop
      vertex  5.100000e+001 -1.055220e+002 -1.065814e-014
      vertex  5.100000e+001 -8.221728e+001  4.238595e+001
      vertex  5.100000e+001 -8.010735e+001  4.625000e+001
    endloop
  endfacet
  facet normal  1.000000e+000  0.000000e+000  0.000000e+000
    outer loop
      vertex  5.100000e+001 -1.055220e+002 -1.065814e-014
      vertex  5.100000e+001 -8.010735e+001  4.625000e+001
      vertex  5.100000e+001 -9.246359e+001  5.338388e+001
    endloop
  endfacet
  facet normal  1.000000e+000  0.000000e+000  0.000000e+000
    outer loop
      vertex  5.100000e+001  1.055220e+002  0.000000e+000
      vertex  5.100000e+001  9.246359e+001  5.338388e+001
      vertex  5.100000e+001  8.010735e+001  4.625000e+001
    endloop
  endfacet
  facet normal  1.000000e+000  0.000000e+000  0.000000e+000
    outer loop
      vertex  5.100000e+001  1.055220e+002  0.000000e+000
      vertex  5.100000e+001  8.010735e+001  4.625000e+001
      vertex  5.100000e+001  8.221728e+001  4.238595e+001
    endloop
  endfacet
  facet normal  1.000000e+000  0.000000e+000  0.000000e+000
    outer loop
      vertex  5.100000e+001  1.055220e+002  0.000000e+000
      vertex  5.100000e+001  8.221728e+001  4.238595e+001
      vertex  5.100000e+001  8.414096e+001  3.842589e+001
    endloop
  endfacet
  facet normal  1.000000e+000  0.000000e+000  0.000000e+000
    outer loop
      vertex  5.100000e+001  1.055220e+002  0.000000e+000
      vertex  5.100000e+001  8.414096e+001  3.842589e+001
      vertex  5.100000e+001  8.587403e+001  3.437878e+001
    endloop
  endfacet
  facet normal  1.000000e+000  0.000000e+000  0.000000e+000
    outer loop
      vertex  5.100000e+001  1.055220e+002  0.000000e+000
      vertex  5.100000e+001  8.587403e+001  3.437878e+001
      vertex  5.100000e+001  8.741257e+001  3.025379e+001
    endloop
  endfacet
  facet normal  1.000000e+000  0.000000e+000  0.000000e+000
    outer loop
      vertex  5.100000e+001  1.055220e+002  0.000000e+000
      vertex  5.100000e+001  8.741257e+001  3.025379e+001
      vertex  5.100000e+001  8.875310e+001  2.606026e+001
    endloop
  endfacet
  facet normal  9.999999e-001  0.000000e+000  0.000000e+000
    outer loop
      vertex  5.100000e+001  1.055220e+002  0.000000e+000
      vertex  5.100000e+001  8.875310e+001  2.606026e+001
      vertex  5.100000e+001  8.989257e+001  2.180770e+001
    endloop
  endfacet
  facet normal  1.000000e+000  0.000000e+000  0.000000e+000
    outer loop
      vertex  5.100000e+001  1.055220e+002  0.000000e+000
      vertex  5.100000e+001  8.989257e+001  2.180770e+001
      vertex  5.100000e+001  9.082841e+001  1.750574e+001
    endloop
  endfacet
  facet normal  1.000000e+000  0.000000e+000  0.000000e+000
    outer loop
      vertex  5.100000e+001  1.055220e+002  0.000000e+000
      vertex  5.100000e+001  9.082841e+001  1.750574e+001
      vertex  5.100000e+001  9.155849e+001  1.316412e+001
    endloop
  endfacet
  facet normal  9.999999e-001  0.000000e+000  0.000000e+000
    outer loop
      vertex  5.100000e+001  1.055220e+002  0.000000e+000
      vertex  5.100000e+001  9.155849e+001  1.316412e+001
      vertex  5.100000e+001  9.208115e+001  8.792684e+000
    endloop
  endfacet
  facet normal  1.000000e+000  0.000000e+000  0.000000e+000
    outer loop
      vertex  5.100000e+001  1.055220e+002  0.000000e+000
      vertex  5.100000e+001  9.208115e+001  8.792684e+000
      vertex  5.100000e+001  9.239523e+001  4.401327e+000
    endloop
  endfacet
  facet normal  1.000000e+000  0.000000e+000  0.000000e+000
    outer loop
      vertex  5.100000e+001  1.055220e+002  0.000000e+000
      vertex  5.100000e+001  9.239523e+001  4.401327e+000
      vertex  5.100000e+001  9.250000e+001  0.000000e+000
    endloop
  endfacet
  facet normal  1.000000e+000  0.000000e+000  0.000000e+000
    outer loop
      vertex  5.100000e+001  6.184352e+001  7.788388e+001
      vertex  5.100000e+001  8.010735e+001  4.625000e+001
      vertex  5.100000e+001  7.060993e+001  9.123554e+001
    endloop
  endfacet
  facet normal  1.000000e+000  0.000000e+000  0.000000e+000
    outer loop
      vertex  5.100000e+001  7.060993e+001  9.123554e+001
      vertex  5.100000e+001  8.010735e+001  4.625000e+001
      vertex  5.100000e+001  9.246359e+001  5.338388e+001
    endloop
  endfacet
  facet normal  0.000000e+000  9.771469e-001 -2.125658e-001
    outer loop
      vertex  0.000000e+000 -8.989257e+001  2.180770e+001
      vertex  5.100000e+001 -9.082841e+001  1.750574e+001
      vertex  0.000000e+000 -9.082841e+001  1.750574e+001
    endloop
  endfacet
  facet normal  0.000000e+000  9.861544e-001 -1.658302e-001
    outer loop
      vertex  0.000000e+000 -9.082841e+001  1.750574e+001
      vertex  5.100000e+001 -9.082841e+001  1.750574e+001
      vertex  5.100000e+001 -9.155849e+001  1.316412e+001
    endloop
  endfacet
  facet normal  0.000000e+000  9.861544e-001 -1.658302e-001
    outer loop
      vertex  0.000000e+000 -9.082841e+001  1.750574e+001
      vertex  5.100000e+001 -9.155849e+001  1.316412e+001
      vertex  0.000000e+000 -9.155849e+001  1.316412e+001
    endloop
  endfacet
  facet normal  0.000000e+000  9.929280e-001 -1.187185e-001
    outer loop
      vertex  0.000000e+000 -9.155849e+001  1.316412e+001
      vertex  5.100000e+001 -9.155849e+001  1.316412e+001
      vertex  5.100000e+001 -9.208115e+001  8.792684e+000
    endloop
  endfacet
  facet normal  0.000000e+000  9.929280e-001 -1.187185e-001
    outer loop
      vertex  0.000000e+000 -9.155849e+001  1.316412e+001
      vertex  5.100000e+001 -9.208115e+001  8.792684e+000
      vertex  0.000000e+000 -9.208115e+001  8.792684e+000
    endloop
  endfacet
  facet normal  0.000000e+000  9.974521e-001 -7.133819e-002
    outer loop
      vertex  0.000000e+000 -9.208115e+001  8.792684e+000
      vertex  5.100000e+001 -9.208115e+001  8.792684e+000
      vertex  5.100000e+001 -9.239523e+001  4.401327e+000
    endloop
  endfacet
  facet normal  0.000000e+000  9.974521e-001 -7.133819e-002
    outer loop
      vertex  0.000000e+000 -9.208115e+001  8.792684e+000
      vertex  5.100000e+001 -9.239523e+001  4.401327e+000
      vertex  0.000000e+000 -9.239523e+001  4.401327e+000
    endloop
  endfacet
  facet normal  0.000000e+000  9.997168e-001 -2.379846e-002
    outer loop
      vertex  0.000000e+000 -9.239523e+001  4.401327e+000
      vertex  5.100000e+001 -9.239523e+001  4.401327e+000
      vertex  5.100000e+001 -9.250000e+001  0.000000e+000
    endloop
  endfacet
  facet normal  0.000000e+000  9.997168e-001 -2.379846e-002
    outer loop
      vertex  0.000000e+000 -9.239523e+001  4.401327e+000
      vertex  5.100000e+001 -9.250000e+001  0.000000e+000
      vertex  0.000000e+000 -9.250000e+001  0.000000e+000
    endloop
  endfacet
  facet normal  0.000000e+000  9.771469e-001 -2.125658e-001
    outer loop
      vertex  5.100000e+001 -9.082841e+001  1.750574e+001
      vertex  0.000000e+000 -8.989257e+001  2.180770e+001
      vertex  5.100000e+001 -8.989257e+001  2.180770e+001
    endloop
  endfacet
  facet normal  0.000000e+000  9.659256e-001 -2.588197e-001
    outer loop
      vertex  5.100000e+001 -8.989257e+001  2.180770e+001
      vertex  0.000000e+000 -8.989257e+001  2.180770e+001
      vertex  0.000000e+000 -8.875310e+001  2.606026e+001
    endloop
  endfacet
  facet normal  0.000000e+000  9.659256e-001 -2.588197e-001
    outer loop
      vertex  5.100000e+001 -8.989257e+001  2.180770e+001
      vertex  0.000000e+000 -8.875310e+001  2.606026e+001
      vertex  5.100000e+001 -8.875310e+001  2.606026e+001
    endloop
  endfacet
  facet normal  0.000000e+000  9.525168e-001 -3.044862e-001
    outer loop
      vertex  5.100000e+001 -8.875310e+001  2.606026e+001
      vertex  0.000000e+000 -8.875310e+001  2.606026e+001
      vertex  0.000000e+000 -8.741257e+001  3.025379e+001
    endloop
  endfacet
  facet normal  0.000000e+000  9.525168e-001 -3.044862e-001
    outer loop
      vertex  5.100000e+001 -8.875310e+001  2.606026e+001
      vertex  0.000000e+000 -8.741257e+001  3.025379e+001
      vertex  5.100000e+001 -8.741257e+001  3.025379e+001
    endloop
  endfacet
  facet normal  0.000000e+000  9.369496e-001 -3.494645e-001
    outer loop
      vertex  5.100000e+001 -8.741257e+001  3.025379e+001
      vertex  0.000000e+000 -8.741257e+001  3.025379e+001
      vertex  0.000000e+000 -8.587403e+001  3.437878e+001
    endloop
  endfacet
  facet normal  0.000000e+000  9.369496e-001 -3.494645e-001
    outer loop
      vertex  5.100000e+001 -8.741257e+001  3.025379e+001
      vertex  0.000000e+000 -8.587403e+001  3.437878e+001
      vertex  5.100000e+001 -8.587403e+001  3.437878e+001
    endloop
  endfacet
  facet normal  0.000000e+000  9.192606e-001 -3.936495e-001
    outer loop
      vertex  5.100000e+001 -8.587403e+001  3.437878e+001
      vertex  0.000000e+000 -8.587403e+001  3.437878e+001
      vertex  0.000000e+000 -8.414096e+001  3.842589e+001
    endloop
  endfacet
  facet normal  0.000000e+000  9.192606e-001 -3.936495e-001
    outer loop
      vertex  5.100000e+001 -8.587403e+001  3.437878e+001
      vertex  0.000000e+000 -8.414096e+001  3.842589e+001
      vertex  5.100000e+001 -8.414096e+001  3.842589e+001
    endloop
  endfacet
  facet normal  0.000000e+000  8.994882e-001 -4.369451e-001
    outer loop
      vertex  5.100000e+001 -8.414096e+001  3.842589e+001
      vertex  0.000000e+000 -8.414096e+001  3.842589e+001
      vertex  0.000000e+000 -8.221728e+001  4.238595e+001
    endloop
  endfacet
  facet normal  0.000000e+000  8.994882e-001 -4.369451e-001
    outer loop
      vertex  5.100000e+001 -8.414096e+001  3.842589e+001
      vertex  0.000000e+000 -8.221728e+001  4.238595e+001
      vertex  5.100000e+001 -8.221728e+001  4.238595e+001
    endloop
  endfacet
  facet normal  0.000000e+000  8.776795e-001 -4.792480e-001
    outer loop
      vertex  5.100000e+001 -8.221728e+001  4.238595e+001
      vertex  0.000000e+000 -8.221728e+001  4.238595e+001
      vertex  0.000000e+000 -8.010735e+001  4.625000e+001
    endloop
  endfacet
  facet normal  0.000000e+000  8.776795e-001 -4.792480e-001
    outer loop
      vertex  5.100000e+001 -8.221728e+001  4.238595e+001
      vertex  0.000000e+000 -8.010735e+001  4.625000e+001
      vertex  5.100000e+001 -8.010735e+001  4.625000e+001
    endloop
  endfacet
  facet normal  0.000000e+000  8.184688e-016 -1.000000e+000
    outer loop
      vertex  5.100000e+001 -1.055220e+002 -1.065814e-014
      vertex  0.000000e+000 -1.055220e+002 -1.065814e-014
      vertex  5.100000e+001 -9.250000e+001  0.000000e+000
    endloop
  endfacet
  facet normal  0.000000e+000  8.184688e-016 -1.000000e+000
    outer loop
      vertex  5.100000e+001 -9.250000e+001  0.000000e+000
      vertex  0.000000e+000 -1.055220e+002 -1.065814e-014
      vertex  0.000000e+000 -9.250000e+001  0.000000e+000
    endloop
  endfacet
  facet normal  0.000000e+000 -9.713609e-001  2.376087e-001
    outer loop
      vertex  5.100000e+001 -1.055220e+002 -1.065814e-014
      vertex  5.100000e+001 -9.246359e+001  5.338388e+001
      vertex  0.000000e+000 -1.055220e+002 -1.065814e-014
    endloop
  endfacet
  facet normal  0.000000e+000 -9.713609e-001  2.376087e-001
    outer loop
      vertex  0.000000e+000 -1.055220e+002 -1.065814e-014
      vertex  5.100000e+001 -9.246359e+001  5.338388e+001
      vertex  0.000000e+000 -9.246359e+001  5.338388e+001
    endloop
  endfacet
  facet normal  -0.000000e+000  9.713609e-001  2.376087e-001
    outer loop
      vertex  5.100000e+001  1.055220e+002  0.000000e+000
      vertex  0.000000e+000  1.055220e+002  0.000000e+000
      vertex  5.100000e+001  9.246359e+001  5.338388e+001
    endloop
  endfacet
  facet normal  0.000000e+000  9.713609e-001  2.376087e-001
    outer loop
      vertex  5.100000e+001  9.246359e+001  5.338388e+001
      vertex  0.000000e+000  1.055220e+002  0.000000e+000
      vertex  0.000000e+000  9.246359e+001  5.338388e+001
    endloop
  endfacet
  facet normal  0.000000e+000  0.000000e+000 -1.000000e+000
    outer loop
      vertex  5.100000e+001  9.250000e+001  0.000000e+000
      vertex  0.000000e+000  9.250000e+001  0.000000e+000
      vertex  5.100000e+001  1.055220e+002  0.000000e+000
    endloop
  endfacet
  facet normal  -0.000000e+000  0.000000e+000 -1.000000e+000
    outer loop
      vertex  5.100000e+001  1.055220e+002  0.000000e+000
      vertex  0.000000e+000  9.250000e+001  0.000000e+000
      vertex  0.000000e+000  1.055220e+002  0.000000e+000
    endloop
  endfacet
  facet normal  -0.000000e+000 -9.525168e-001 -3.044862e-001
    outer loop
      vertex  0.000000e+000  8.875310e+001  2.606026e+001
      vertex  5.100000e+001  8.741257e+001  3.025379e+001
      vertex  0.000000e+000  8.741257e+001  3.025379e+001
    endloop
  endfacet
  facet normal  0.000000e+000 -9.369496e-001 -3.494645e-001
    outer loop
      vertex  0.000000e+000  8.741257e+001  3.025379e+001
      vertex  5.100000e+001  8.741257e+001  3.025379e+001
      vertex  5.100000e+001  8.587403e+001  3.437878e+001
    endloop
  endfacet
  facet normal  -0.000000e+000 -9.369496e-001 -3.494645e-001
    outer loop
      vertex  0.000000e+000  8.741257e+001  3.025379e+001
      vertex  5.100000e+001  8.587403e+001  3.437878e+001
      vertex  0.000000e+000  8.587403e+001  3.437878e+001
    endloop
  endfacet
  facet normal  0.000000e+000 -9.192606e-001 -3.936495e-001
    outer loop
      vertex  0.000000e+000  8.587403e+001  3.437878e+001
      vertex  5.100000e+001  8.587403e+001  3.437878e+001
      vertex  5.100000e+001  8.414096e+001  3.842589e+001
    endloop
  endfacet
  facet normal  -0.000000e+000 -9.192606e-001 -3.936495e-001
    outer loop
      vertex  0.000000e+000  8.587403e+001  3.437878e+001
      vertex  5.100000e+001  8.414096e+001  3.842589e+001
      vertex  0.000000e+000  8.414096e+001  3.842589e+001
    endloop
  endfacet
  facet normal  0.000000e+000 -8.994882e-001 -4.369451e-001
    outer loop
      vertex  0.000000e+000  8.414096e+001  3.842589e+001
      vertex  5.100000e+001  8.414096e+001  3.842589e+001
      vertex  5.100000e+001  8.221728e+001  4.238595e+001
    endloop
  endfacet
  facet normal  -0.000000e+000 -8.994882e-001 -4.369451e-001
    outer loop
      vertex  0.000000e+000  8.414096e+001  3.842589e+001
      vertex  5.100000e+001  8.221728e+001  4.238595e+001
      vertex  0.000000e+000  8.221728e+001  4.238595e+001
    endloop
  endfacet
  facet normal  0.000000e+000 -8.776795e-001 -4.792480e-001
    outer loop
      vertex  0.000000e+000  8.221728e+001  4.238595e+001
      vertex  5.100000e+001  8.221728e+001  4.238595e+001
      vertex  5.100000e+001  8.010735e+001  4.625000e+001
    endloop
  endfacet
  facet normal  -0.000000e+000 -8.776795e-001 -4.792480e-001
    outer loop
      vertex  0.000000e+000  8.221728e+001  4.238595e+001
      vertex  5.100000e+001  8.010735e+001  4.625000e+001
      vertex  0.000000e+000  8.010735e+001  4.625000e+001
    endloop
  endfacet
  facet normal  0.000000e+000 -9.525168e-001 -3.044862e-001
    outer loop
      vertex  5.100000e+001  8.741257e+001  3.025379e+001
      vertex  0.000000e+000  8.875310e+001  2.606026e+001
      vertex  5.100000e+001  8.875310e+001  2.606026e+001
    endloop
  endfacet
  facet normal  -0.000000e+000 -9.659256e-001 -2.588197e-001
    outer loop
      vertex  5.100000e+001  8.875310e+001  2.606026e+001
      vertex  0.000000e+000  8.875310e+001  2.606026e+001
      vertex  0.000000e+000  8.989257e+001  2.180770e+001
    endloop
  endfacet
  facet normal  0.000000e+000 -9.659256e-001 -2.588197e-001
    outer loop
      vertex  5.100000e+001  8.875310e+001  2.606026e+001
      vertex  0.000000e+000  8.989257e+001  2.180770e+001
      vertex  5.100000e+001  8.989257e+001  2.180770e+001
    endloop
  endfacet
  facet normal  -0.000000e+000 -9.771469e-001 -2.125658e-001
    outer loop
      vertex  5.100000e+001  8.989257e+001  2.180770e+001
      vertex  0.000000e+000  8.989257e+001  2.180770e+001
      vertex  0.000000e+000  9.082841e+001  1.750574e+001
    endloop
  endfacet
  facet normal  0.000000e+000 -9.771469e-001 -2.125658e-001
    outer loop
      vertex  5.100000e+001  8.989257e+001  2.180770e+001
      vertex  0.000000e+000  9.082841e+001  1.750574e+001
      vertex  5.100000e+001  9.082841e+001  1.750574e+001
    endloop
  endfacet
  facet normal  -0.000000e+000 -9.861544e-001 -1.658302e-001
    outer loop
      vertex  5.100000e+001  9.082841e+001  1.750574e+001
      vertex  0.000000e+000  9.082841e+001  1.750574e+001
      vertex  0.000000e+000  9.155849e+001  1.316412e+001
    endloop
  endfacet
  facet normal  0.000000e+000 -9.861544e-001 -1.658302e-001
    outer loop
      vertex  5.100000e+001  9.082841e+001  1.750574e+001
      vertex  0.000000e+000  9.155849e+001  1.316412e+001
      vertex  5.100000e+001  9.155849e+001  1.316412e+001
    endloop
  endfacet
  facet normal  -0.000000e+000 -9.929280e-001 -1.187185e-001
    outer loop
      vertex  5.100000e+001  9.155849e+001  1.316412e+001
      vertex  0.000000e+000  9.155849e+001  1.316412e+001
      vertex  0.000000e+000  9.208115e+001  8.792684e+000
    endloop
  endfacet
  facet normal  0.000000e+000 -9.929280e-001 -1.187185e-001
    outer loop
      vertex  5.100000e+001  9.155849e+001  1.316412e+001
      vertex  0.000000e+000  9.208115e+001  8.792684e+000
      vertex  5.100000e+001  9.208115e+001  8.792684e+000
    endloop
  endfacet
  facet normal  -0.000000e+000 -9.974521e-001 -7.133819e-002
    outer loop
      vertex  5.100000e+001  9.208115e+001  8.792684e+000
      vertex  0.000000e+000  9.208115e+001  8.792684e+000
      vertex  0.000000e+000  9.239523e+001  4.401327e+000
    endloop
  endfacet
  facet normal  0.000000e+000 -9.974521e-001 -7.133819e-002
    outer loop
      vertex  5.100000e+001  9.208115e+001  8.792684e+000
      vertex  0.000000e+000  9.239523e+001  4.401327e+000
      vertex  5.100000e+001  9.239523e+001  4.401327e+000
    endloop
  endfacet
  facet normal  -0.000000e+000 -9.997168e-001 -2.379846e-002
    outer loop
      vertex  5.100000e+001  9.239523e+001  4.401327e+000
      vertex  0.000000e+000  9.239523e+001  4.401327e+000
      vertex  0.000000e+000  9.250000e+001  0.000000e+000
    endloop
  endfacet
  facet normal  0.000000e+000 -9.997168e-001 -2.379846e-002
    outer loop
      vertex  5.100000e+001  9.239523e+001  4.401327e+000
      vertex  0.000000e+000  9.250000e+001  0.000000e+000
      vertex  5.100000e+001  9.250000e+001  0.000000e+000
    endloop
  endfacet
endsolid CATIA STL
