solid CATIA STL
  facet normal -1.000000e+000  0.000000e+000  0.000000e+000
    outer loop
      vertex  0.000000e+000  4.913543e+000  8.748099e+000
      vertex  0.000000e+000  2.991354e+001  1.374810e+001
      vertex  0.000000e+000  2.741783e+001  2.253110e-001
    endloop
  endfacet
  facet normal -1.000000e+000  0.000000e+000  0.000000e+000
    outer loop
      vertex  0.000000e+000  4.913543e+000  8.748099e+000
      vertex  0.000000e+000  2.741783e+001  2.253110e-001
      vertex  0.000000e+000  2.689689e+001  2.253110e-001
    endloop
  endfacet
  facet normal -1.000000e+000  -0.000000e+000  0.000000e+000
    outer loop
      vertex  0.000000e+000  4.913543e+000  8.748099e+000
      vertex  0.000000e+000  2.689689e+001  2.253110e-001
      vertex  0.000000e+000  2.640736e+001  4.713743e-002
    endloop
  endfacet
  facet normal -1.000000e+000  -0.000000e+000  0.000000e+000
    outer loop
      vertex  0.000000e+000  4.913543e+000  8.748099e+000
      vertex  0.000000e+000  2.640736e+001  4.713743e-002
      vertex  0.000000e+000  4.913543e+000 -7.751901e+000
    endloop
  endfacet
  facet normal -1.000000e+000  -0.000000e+000  0.000000e+000
    outer loop
      vertex  0.000000e+000 -2.108646e+001  1.374810e+001
      vertex  0.000000e+000  2.991354e+001  1.374810e+001
      vertex  0.000000e+000  4.913543e+000  8.748099e+000
    endloop
  endfacet
  facet normal -1.000000e+000  0.000000e+000  0.000000e+000
    outer loop
      vertex  0.000000e+000 -2.108646e+001  1.374810e+001
      vertex  0.000000e+000  4.913543e+000  8.748099e+000
      vertex  0.000000e+000 -1.608646e+001  8.748099e+000
    endloop
  endfacet
  facet normal -1.000000e+000  -0.000000e+000  0.000000e+000
    outer loop
      vertex  0.000000e+000 -2.108646e+001  1.374810e+001
      vertex  0.000000e+000 -1.608646e+001  8.748099e+000
      vertex  0.000000e+000 -1.841207e+001  2.253110e-001
    endloop
  endfacet
  facet normal -1.000000e+000  0.000000e+000  0.000000e+000
    outer loop
      vertex  0.000000e+000 -2.108646e+001  1.374810e+001
      vertex  0.000000e+000 -1.841207e+001  2.253110e-001
      vertex  0.000000e+000 -1.893302e+001  2.253110e-001
    endloop
  endfacet
  facet normal -1.000000e+000  -0.000000e+000  0.000000e+000
    outer loop
      vertex  0.000000e+000 -2.108646e+001  1.374810e+001
      vertex  0.000000e+000 -1.893302e+001  2.253110e-001
      vertex  0.000000e+000 -1.942254e+001  4.713743e-002
    endloop
  endfacet
  facet normal -1.000000e+000  -0.000000e+000  0.000000e+000
    outer loop
      vertex  0.000000e+000 -2.108646e+001  1.374810e+001
      vertex  0.000000e+000 -1.942254e+001  4.713743e-002
      vertex  0.000000e+000 -1.982161e+001 -2.877192e-001
    endloop
  endfacet
  facet normal -1.000000e+000  -0.000000e+000  0.000000e+000
    outer loop
      vertex  0.000000e+000 -2.108646e+001  1.374810e+001
      vertex  0.000000e+000 -1.982161e+001 -2.877192e-001
      vertex  0.000000e+000 -2.008208e+001 -7.388704e-001
    endloop
  endfacet
  facet normal -9.999999e-001  -0.000000e+000  0.000000e+000
    outer loop
      vertex  0.000000e+000 -2.108646e+001  1.374810e+001
      vertex  0.000000e+000 -2.008208e+001 -7.388704e-001
      vertex  0.000000e+000 -2.017254e+001 -1.251901e+000
    endloop
  endfacet
  facet normal -1.000000e+000  -0.000000e+000  0.000000e+000
    outer loop
      vertex  0.000000e+000 -2.108646e+001  1.374810e+001
      vertex  0.000000e+000 -2.017254e+001 -1.251901e+000
      vertex  0.000000e+000 -2.108646e+001 -1.275190e+001
    endloop
  endfacet
  facet normal -1.000000e+000  0.000000e+000  -0.000000e+000
    outer loop
      vertex  0.000000e+000 -2.108646e+001 -1.275190e+001
      vertex  0.000000e+000 -2.017254e+001 -1.251901e+000
      vertex  0.000000e+000 -2.008208e+001 -1.764931e+000
    endloop
  endfacet
  facet normal -1.000000e+000  0.000000e+000  -0.000000e+000
    outer loop
      vertex  0.000000e+000 -2.108646e+001 -1.275190e+001
      vertex  0.000000e+000 -2.008208e+001 -1.764931e+000
      vertex  0.000000e+000 -1.982161e+001 -2.216082e+000
    endloop
  endfacet
  facet normal -1.000000e+000  0.000000e+000  -0.000000e+000
    outer loop
      vertex  0.000000e+000 -2.108646e+001 -1.275190e+001
      vertex  0.000000e+000 -1.982161e+001 -2.216082e+000
      vertex  0.000000e+000 -1.942254e+001 -2.550939e+000
    endloop
  endfacet
  facet normal -1.000000e+000  0.000000e+000  -0.000000e+000
    outer loop
      vertex  0.000000e+000 -2.108646e+001 -1.275190e+001
      vertex  0.000000e+000 -1.942254e+001 -2.550939e+000
      vertex  0.000000e+000 -1.893302e+001 -2.729112e+000
    endloop
  endfacet
  facet normal -1.000000e+000  0.000000e+000  -0.000000e+000
    outer loop
      vertex  0.000000e+000 -2.108646e+001 -1.275190e+001
      vertex  0.000000e+000 -1.893302e+001 -2.729112e+000
      vertex  0.000000e+000 -1.841207e+001 -2.729112e+000
    endloop
  endfacet
  facet normal -1.000000e+000  0.000000e+000  -0.000000e+000
    outer loop
      vertex  0.000000e+000 -2.108646e+001 -1.275190e+001
      vertex  0.000000e+000 -1.841207e+001 -2.729112e+000
      vertex  0.000000e+000 -1.608646e+001 -7.751901e+000
    endloop
  endfacet
  facet normal -1.000000e+000  0.000000e+000  -0.000000e+000
    outer loop
      vertex  0.000000e+000 -2.108646e+001 -1.275190e+001
      vertex  0.000000e+000 -1.608646e+001 -7.751901e+000
      vertex  0.000000e+000  4.913543e+000 -7.751901e+000
    endloop
  endfacet
  facet normal -1.000000e+000  0.000000e+000  -0.000000e+000
    outer loop
      vertex  0.000000e+000 -2.108646e+001 -1.275190e+001
      vertex  0.000000e+000  4.913543e+000 -7.751901e+000
      vertex  0.000000e+000  2.991354e+001 -1.275190e+001
    endloop
  endfacet
  facet normal -1.000000e+000  0.000000e+000  0.000000e+000
    outer loop
      vertex  0.000000e+000 -1.608646e+001 -7.751901e+000
      vertex  0.000000e+000 -1.841207e+001 -2.729112e+000
      vertex  0.000000e+000 -1.792254e+001 -2.550939e+000
    endloop
  endfacet
  facet normal -1.000000e+000  0.000000e+000  0.000000e+000
    outer loop
      vertex  0.000000e+000 -1.608646e+001 -7.751901e+000
      vertex  0.000000e+000 -1.792254e+001 -2.550939e+000
      vertex  0.000000e+000 -1.752348e+001 -2.216082e+000
    endloop
  endfacet
  facet normal -1.000000e+000  0.000000e+000  0.000000e+000
    outer loop
      vertex  0.000000e+000 -1.608646e+001 -7.751901e+000
      vertex  0.000000e+000 -1.752348e+001 -2.216082e+000
      vertex  0.000000e+000 -1.726301e+001 -1.764931e+000
    endloop
  endfacet
  facet normal -1.000000e+000  0.000000e+000  0.000000e+000
    outer loop
      vertex  0.000000e+000 -1.608646e+001 -7.751901e+000
      vertex  0.000000e+000 -1.726301e+001 -1.764931e+000
      vertex  0.000000e+000 -1.717254e+001 -1.251901e+000
    endloop
  endfacet
  facet normal -1.000000e+000  0.000000e+000  0.000000e+000
    outer loop
      vertex  0.000000e+000 -1.608646e+001  8.748099e+000
      vertex  0.000000e+000 -1.608646e+001 -7.751901e+000
      vertex  0.000000e+000 -1.717254e+001 -1.251901e+000
    endloop
  endfacet
  facet normal -9.999999e-001  0.000000e+000  0.000000e+000
    outer loop
      vertex  0.000000e+000 -1.608646e+001  8.748099e+000
      vertex  0.000000e+000 -1.717254e+001 -1.251901e+000
      vertex  0.000000e+000 -1.726301e+001 -7.388704e-001
    endloop
  endfacet
  facet normal -1.000000e+000  0.000000e+000  0.000000e+000
    outer loop
      vertex  0.000000e+000 -1.608646e+001  8.748099e+000
      vertex  0.000000e+000 -1.726301e+001 -7.388704e-001
      vertex  0.000000e+000 -1.752348e+001 -2.877192e-001
    endloop
  endfacet
  facet normal -1.000000e+000  0.000000e+000  0.000000e+000
    outer loop
      vertex  0.000000e+000 -1.608646e+001  8.748099e+000
      vertex  0.000000e+000 -1.752348e+001 -2.877192e-001
      vertex  0.000000e+000 -1.792254e+001  4.713743e-002
    endloop
  endfacet
  facet normal -1.000000e+000  0.000000e+000  0.000000e+000
    outer loop
      vertex  0.000000e+000 -1.608646e+001  8.748099e+000
      vertex  0.000000e+000 -1.792254e+001  4.713743e-002
      vertex  0.000000e+000 -1.841207e+001  2.253110e-001
    endloop
  endfacet
  facet normal -1.000000e+000  0.000000e+000  0.000000e+000
    outer loop
      vertex  0.000000e+000  4.913543e+000 -7.751901e+000
      vertex  0.000000e+000  2.640736e+001  4.713743e-002
      vertex  0.000000e+000  2.600830e+001 -2.877192e-001
    endloop
  endfacet
  facet normal -1.000000e+000  0.000000e+000  0.000000e+000
    outer loop
      vertex  0.000000e+000  4.913543e+000 -7.751901e+000
      vertex  0.000000e+000  2.600830e+001 -2.877192e-001
      vertex  0.000000e+000  2.574782e+001 -7.388704e-001
    endloop
  endfacet
  facet normal -1.000000e+000  0.000000e+000  0.000000e+000
    outer loop
      vertex  0.000000e+000  4.913543e+000 -7.751901e+000
      vertex  0.000000e+000  2.574782e+001 -7.388704e-001
      vertex  0.000000e+000  2.565736e+001 -1.251901e+000
    endloop
  endfacet
  facet normal -9.999999e-001  0.000000e+000  -0.000000e+000
    outer loop
      vertex  0.000000e+000  4.913543e+000 -7.751901e+000
      vertex  0.000000e+000  2.565736e+001 -1.251901e+000
      vertex  0.000000e+000  2.574782e+001 -1.764931e+000
    endloop
  endfacet
  facet normal -1.000000e+000  0.000000e+000  -0.000000e+000
    outer loop
      vertex  0.000000e+000  4.913543e+000 -7.751901e+000
      vertex  0.000000e+000  2.574782e+001 -1.764931e+000
      vertex  0.000000e+000  2.600830e+001 -2.216082e+000
    endloop
  endfacet
  facet normal -1.000000e+000  0.000000e+000  -0.000000e+000
    outer loop
      vertex  0.000000e+000  4.913543e+000 -7.751901e+000
      vertex  0.000000e+000  2.600830e+001 -2.216082e+000
      vertex  0.000000e+000  2.640736e+001 -2.550939e+000
    endloop
  endfacet
  facet normal -1.000000e+000  0.000000e+000  -0.000000e+000
    outer loop
      vertex  0.000000e+000  4.913543e+000 -7.751901e+000
      vertex  0.000000e+000  2.640736e+001 -2.550939e+000
      vertex  0.000000e+000  2.689689e+001 -2.729112e+000
    endloop
  endfacet
  facet normal -1.000000e+000  0.000000e+000  -0.000000e+000
    outer loop
      vertex  0.000000e+000  4.913543e+000 -7.751901e+000
      vertex  0.000000e+000  2.689689e+001 -2.729112e+000
      vertex  0.000000e+000  2.741783e+001 -2.729112e+000
    endloop
  endfacet
  facet normal -1.000000e+000  0.000000e+000  -0.000000e+000
    outer loop
      vertex  0.000000e+000  4.913543e+000 -7.751901e+000
      vertex  0.000000e+000  2.741783e+001 -2.729112e+000
      vertex  0.000000e+000  2.991354e+001 -1.275190e+001
    endloop
  endfacet
  facet normal -9.999999e-001  0.000000e+000  0.000000e+000
    outer loop
      vertex  0.000000e+000  2.991354e+001 -1.275190e+001
      vertex  0.000000e+000  2.741783e+001 -2.729112e+000
      vertex  0.000000e+000  2.790736e+001 -2.550939e+000
    endloop
  endfacet
  facet normal -1.000000e+000  0.000000e+000  0.000000e+000
    outer loop
      vertex  0.000000e+000  2.991354e+001 -1.275190e+001
      vertex  0.000000e+000  2.790736e+001 -2.550939e+000
      vertex  0.000000e+000  2.830643e+001 -2.216082e+000
    endloop
  endfacet
  facet normal -1.000000e+000  0.000000e+000  0.000000e+000
    outer loop
      vertex  0.000000e+000  2.991354e+001 -1.275190e+001
      vertex  0.000000e+000  2.830643e+001 -2.216082e+000
      vertex  0.000000e+000  2.856690e+001 -1.764931e+000
    endloop
  endfacet
  facet normal -1.000000e+000  0.000000e+000  0.000000e+000
    outer loop
      vertex  0.000000e+000  2.991354e+001 -1.275190e+001
      vertex  0.000000e+000  2.856690e+001 -1.764931e+000
      vertex  0.000000e+000  2.865736e+001 -1.251901e+000
    endloop
  endfacet
  facet normal -1.000000e+000  0.000000e+000  0.000000e+000
    outer loop
      vertex  0.000000e+000  2.991354e+001  1.374810e+001
      vertex  0.000000e+000  2.991354e+001 -1.275190e+001
      vertex  0.000000e+000  2.865736e+001 -1.251901e+000
    endloop
  endfacet
  facet normal -1.000000e+000  0.000000e+000  0.000000e+000
    outer loop
      vertex  0.000000e+000  2.991354e+001  1.374810e+001
      vertex  0.000000e+000  2.865736e+001 -1.251901e+000
      vertex  0.000000e+000  2.856690e+001 -7.388704e-001
    endloop
  endfacet
  facet normal -1.000000e+000  0.000000e+000  0.000000e+000
    outer loop
      vertex  0.000000e+000  2.991354e+001  1.374810e+001
      vertex  0.000000e+000  2.856690e+001 -7.388704e-001
      vertex  0.000000e+000  2.830643e+001 -2.877192e-001
    endloop
  endfacet
  facet normal -9.999999e-001  0.000000e+000  0.000000e+000
    outer loop
      vertex  0.000000e+000  2.991354e+001  1.374810e+001
      vertex  0.000000e+000  2.830643e+001 -2.877192e-001
      vertex  0.000000e+000  2.790736e+001  4.713743e-002
    endloop
  endfacet
  facet normal -1.000000e+000  0.000000e+000  0.000000e+000
    outer loop
      vertex  0.000000e+000  2.991354e+001  1.374810e+001
      vertex  0.000000e+000  2.790736e+001  4.713743e-002
      vertex  0.000000e+000  2.741783e+001  2.253110e-001
    endloop
  endfacet
  facet normal  1.000000e+000  0.000000e+000  0.000000e+000
    outer loop
      vertex  3.000000e+000  4.913543e+000  8.748099e+000
      vertex  3.000000e+000  4.913543e+000 -7.751901e+000
      vertex  3.000000e+000  2.640736e+001  4.713743e-002
    endloop
  endfacet
  facet normal  1.000000e+000  0.000000e+000  -0.000000e+000
    outer loop
      vertex  3.000000e+000  4.913543e+000  8.748099e+000
      vertex  3.000000e+000  2.640736e+001  4.713743e-002
      vertex  3.000000e+000  2.689689e+001  2.253110e-001
    endloop
  endfacet
  facet normal  1.000000e+000  0.000000e+000  -0.000000e+000
    outer loop
      vertex  3.000000e+000  4.913543e+000  8.748099e+000
      vertex  3.000000e+000  2.689689e+001  2.253110e-001
      vertex  3.000000e+000  2.741783e+001  2.253110e-001
    endloop
  endfacet
  facet normal  1.000000e+000  0.000000e+000  -0.000000e+000
    outer loop
      vertex  3.000000e+000  4.913543e+000  8.748099e+000
      vertex  3.000000e+000  2.741783e+001  2.253110e-001
      vertex  3.000000e+000  2.991354e+001  1.374810e+001
    endloop
  endfacet
  facet normal  1.000000e+000  0.000000e+000  0.000000e+000
    outer loop
      vertex  3.000000e+000 -2.108646e+001  1.374810e+001
      vertex  3.000000e+000 -2.108646e+001 -1.275190e+001
      vertex  3.000000e+000 -2.017254e+001 -1.251901e+000
    endloop
  endfacet
  facet normal  9.999999e-001  0.000000e+000  -0.000000e+000
    outer loop
      vertex  3.000000e+000 -2.108646e+001  1.374810e+001
      vertex  3.000000e+000 -2.017254e+001 -1.251901e+000
      vertex  3.000000e+000 -2.008208e+001 -7.388704e-001
    endloop
  endfacet
  facet normal  1.000000e+000  0.000000e+000  -0.000000e+000
    outer loop
      vertex  3.000000e+000 -2.108646e+001  1.374810e+001
      vertex  3.000000e+000 -2.008208e+001 -7.388704e-001
      vertex  3.000000e+000 -1.982161e+001 -2.877192e-001
    endloop
  endfacet
  facet normal  1.000000e+000  0.000000e+000  -0.000000e+000
    outer loop
      vertex  3.000000e+000 -2.108646e+001  1.374810e+001
      vertex  3.000000e+000 -1.982161e+001 -2.877192e-001
      vertex  3.000000e+000 -1.942254e+001  4.713743e-002
    endloop
  endfacet
  facet normal  1.000000e+000  0.000000e+000  -0.000000e+000
    outer loop
      vertex  3.000000e+000 -2.108646e+001  1.374810e+001
      vertex  3.000000e+000 -1.942254e+001  4.713743e-002
      vertex  3.000000e+000 -1.893302e+001  2.253110e-001
    endloop
  endfacet
  facet normal  1.000000e+000  0.000000e+000  -0.000000e+000
    outer loop
      vertex  3.000000e+000 -2.108646e+001  1.374810e+001
      vertex  3.000000e+000 -1.893302e+001  2.253110e-001
      vertex  3.000000e+000 -1.841207e+001  2.253110e-001
    endloop
  endfacet
  facet normal  1.000000e+000  0.000000e+000  -0.000000e+000
    outer loop
      vertex  3.000000e+000 -2.108646e+001  1.374810e+001
      vertex  3.000000e+000 -1.841207e+001  2.253110e-001
      vertex  3.000000e+000 -1.608646e+001  8.748099e+000
    endloop
  endfacet
  facet normal  1.000000e+000  0.000000e+000  -0.000000e+000
    outer loop
      vertex  3.000000e+000 -2.108646e+001  1.374810e+001
      vertex  3.000000e+000 -1.608646e+001  8.748099e+000
      vertex  3.000000e+000  4.913543e+000  8.748099e+000
    endloop
  endfacet
  facet normal  1.000000e+000  0.000000e+000  -0.000000e+000
    outer loop
      vertex  3.000000e+000 -2.108646e+001  1.374810e+001
      vertex  3.000000e+000  4.913543e+000  8.748099e+000
      vertex  3.000000e+000  2.991354e+001  1.374810e+001
    endloop
  endfacet
  facet normal  1.000000e+000  0.000000e+000  0.000000e+000
    outer loop
      vertex  3.000000e+000 -2.108646e+001 -1.275190e+001
      vertex  3.000000e+000  2.991354e+001 -1.275190e+001
      vertex  3.000000e+000  4.913543e+000 -7.751901e+000
    endloop
  endfacet
  facet normal  1.000000e+000  0.000000e+000  0.000000e+000
    outer loop
      vertex  3.000000e+000 -2.108646e+001 -1.275190e+001
      vertex  3.000000e+000  4.913543e+000 -7.751901e+000
      vertex  3.000000e+000 -1.608646e+001 -7.751901e+000
    endloop
  endfacet
  facet normal  1.000000e+000  0.000000e+000  0.000000e+000
    outer loop
      vertex  3.000000e+000 -2.108646e+001 -1.275190e+001
      vertex  3.000000e+000 -1.608646e+001 -7.751901e+000
      vertex  3.000000e+000 -1.841207e+001 -2.729112e+000
    endloop
  endfacet
  facet normal  1.000000e+000  0.000000e+000  0.000000e+000
    outer loop
      vertex  3.000000e+000 -2.108646e+001 -1.275190e+001
      vertex  3.000000e+000 -1.841207e+001 -2.729112e+000
      vertex  3.000000e+000 -1.893302e+001 -2.729112e+000
    endloop
  endfacet
  facet normal  1.000000e+000  0.000000e+000  0.000000e+000
    outer loop
      vertex  3.000000e+000 -2.108646e+001 -1.275190e+001
      vertex  3.000000e+000 -1.893302e+001 -2.729112e+000
      vertex  3.000000e+000 -1.942254e+001 -2.550939e+000
    endloop
  endfacet
  facet normal  1.000000e+000  0.000000e+000  0.000000e+000
    outer loop
      vertex  3.000000e+000 -2.108646e+001 -1.275190e+001
      vertex  3.000000e+000 -1.942254e+001 -2.550939e+000
      vertex  3.000000e+000 -1.982161e+001 -2.216082e+000
    endloop
  endfacet
  facet normal  9.999999e-001  0.000000e+000  0.000000e+000
    outer loop
      vertex  3.000000e+000 -2.108646e+001 -1.275190e+001
      vertex  3.000000e+000 -1.982161e+001 -2.216082e+000
      vertex  3.000000e+000 -2.008208e+001 -1.764931e+000
    endloop
  endfacet
  facet normal  1.000000e+000  0.000000e+000  0.000000e+000
    outer loop
      vertex  3.000000e+000 -2.108646e+001 -1.275190e+001
      vertex  3.000000e+000 -2.008208e+001 -1.764931e+000
      vertex  3.000000e+000 -2.017254e+001 -1.251901e+000
    endloop
  endfacet
  facet normal  1.000000e+000  0.000000e+000  0.000000e+000
    outer loop
      vertex  3.000000e+000 -1.608646e+001 -7.751901e+000
      vertex  3.000000e+000 -1.717254e+001 -1.251901e+000
      vertex  3.000000e+000 -1.726301e+001 -1.764931e+000
    endloop
  endfacet
  facet normal  1.000000e+000  0.000000e+000  0.000000e+000
    outer loop
      vertex  3.000000e+000 -1.608646e+001 -7.751901e+000
      vertex  3.000000e+000 -1.726301e+001 -1.764931e+000
      vertex  3.000000e+000 -1.752348e+001 -2.216082e+000
    endloop
  endfacet
  facet normal  1.000000e+000  0.000000e+000  0.000000e+000
    outer loop
      vertex  3.000000e+000 -1.608646e+001 -7.751901e+000
      vertex  3.000000e+000 -1.752348e+001 -2.216082e+000
      vertex  3.000000e+000 -1.792254e+001 -2.550939e+000
    endloop
  endfacet
  facet normal  1.000000e+000  0.000000e+000  0.000000e+000
    outer loop
      vertex  3.000000e+000 -1.608646e+001 -7.751901e+000
      vertex  3.000000e+000 -1.792254e+001 -2.550939e+000
      vertex  3.000000e+000 -1.841207e+001 -2.729112e+000
    endloop
  endfacet
  facet normal  1.000000e+000  -0.000000e+000  0.000000e+000
    outer loop
      vertex  3.000000e+000 -1.608646e+001  8.748099e+000
      vertex  3.000000e+000 -1.841207e+001  2.253110e-001
      vertex  3.000000e+000 -1.792254e+001  4.713743e-002
    endloop
  endfacet
  facet normal  1.000000e+000  -0.000000e+000  0.000000e+000
    outer loop
      vertex  3.000000e+000 -1.608646e+001  8.748099e+000
      vertex  3.000000e+000 -1.792254e+001  4.713743e-002
      vertex  3.000000e+000 -1.752348e+001 -2.877192e-001
    endloop
  endfacet
  facet normal  1.000000e+000  -0.000000e+000  0.000000e+000
    outer loop
      vertex  3.000000e+000 -1.608646e+001  8.748099e+000
      vertex  3.000000e+000 -1.752348e+001 -2.877192e-001
      vertex  3.000000e+000 -1.726301e+001 -7.388704e-001
    endloop
  endfacet
  facet normal  9.999999e-001  -0.000000e+000  0.000000e+000
    outer loop
      vertex  3.000000e+000 -1.608646e+001  8.748099e+000
      vertex  3.000000e+000 -1.726301e+001 -7.388704e-001
      vertex  3.000000e+000 -1.717254e+001 -1.251901e+000
    endloop
  endfacet
  facet normal  1.000000e+000  -0.000000e+000  0.000000e+000
    outer loop
      vertex  3.000000e+000 -1.608646e+001  8.748099e+000
      vertex  3.000000e+000 -1.717254e+001 -1.251901e+000
      vertex  3.000000e+000 -1.608646e+001 -7.751901e+000
    endloop
  endfacet
  facet normal  1.000000e+000  0.000000e+000  0.000000e+000
    outer loop
      vertex  3.000000e+000  4.913543e+000 -7.751901e+000
      vertex  3.000000e+000  2.991354e+001 -1.275190e+001
      vertex  3.000000e+000  2.741783e+001 -2.729112e+000
    endloop
  endfacet
  facet normal  1.000000e+000  0.000000e+000  0.000000e+000
    outer loop
      vertex  3.000000e+000  4.913543e+000 -7.751901e+000
      vertex  3.000000e+000  2.741783e+001 -2.729112e+000
      vertex  3.000000e+000  2.689689e+001 -2.729112e+000
    endloop
  endfacet
  facet normal  1.000000e+000  0.000000e+000  0.000000e+000
    outer loop
      vertex  3.000000e+000  4.913543e+000 -7.751901e+000
      vertex  3.000000e+000  2.689689e+001 -2.729112e+000
      vertex  3.000000e+000  2.640736e+001 -2.550939e+000
    endloop
  endfacet
  facet normal  1.000000e+000  0.000000e+000  0.000000e+000
    outer loop
      vertex  3.000000e+000  4.913543e+000 -7.751901e+000
      vertex  3.000000e+000  2.640736e+001 -2.550939e+000
      vertex  3.000000e+000  2.600830e+001 -2.216082e+000
    endloop
  endfacet
  facet normal  1.000000e+000  0.000000e+000  0.000000e+000
    outer loop
      vertex  3.000000e+000  4.913543e+000 -7.751901e+000
      vertex  3.000000e+000  2.600830e+001 -2.216082e+000
      vertex  3.000000e+000  2.574782e+001 -1.764931e+000
    endloop
  endfacet
  facet normal  9.999999e-001  0.000000e+000  0.000000e+000
    outer loop
      vertex  3.000000e+000  4.913543e+000 -7.751901e+000
      vertex  3.000000e+000  2.574782e+001 -1.764931e+000
      vertex  3.000000e+000  2.565736e+001 -1.251901e+000
    endloop
  endfacet
  facet normal  1.000000e+000  0.000000e+000  -0.000000e+000
    outer loop
      vertex  3.000000e+000  4.913543e+000 -7.751901e+000
      vertex  3.000000e+000  2.565736e+001 -1.251901e+000
      vertex  3.000000e+000  2.574782e+001 -7.388704e-001
    endloop
  endfacet
  facet normal  1.000000e+000  0.000000e+000  -0.000000e+000
    outer loop
      vertex  3.000000e+000  4.913543e+000 -7.751901e+000
      vertex  3.000000e+000  2.574782e+001 -7.388704e-001
      vertex  3.000000e+000  2.600830e+001 -2.877192e-001
    endloop
  endfacet
  facet normal  1.000000e+000  0.000000e+000  -0.000000e+000
    outer loop
      vertex  3.000000e+000  4.913543e+000 -7.751901e+000
      vertex  3.000000e+000  2.600830e+001 -2.877192e-001
      vertex  3.000000e+000  2.640736e+001  4.713743e-002
    endloop
  endfacet
  facet normal  1.000000e+000  0.000000e+000  0.000000e+000
    outer loop
      vertex  3.000000e+000  2.991354e+001 -1.275190e+001
      vertex  3.000000e+000  2.865736e+001 -1.251901e+000
      vertex  3.000000e+000  2.856690e+001 -1.764931e+000
    endloop
  endfacet
  facet normal  9.999999e-001  0.000000e+000  0.000000e+000
    outer loop
      vertex  3.000000e+000  2.991354e+001 -1.275190e+001
      vertex  3.000000e+000  2.856690e+001 -1.764931e+000
      vertex  3.000000e+000  2.830643e+001 -2.216082e+000
    endloop
  endfacet
  facet normal  1.000000e+000  0.000000e+000  0.000000e+000
    outer loop
      vertex  3.000000e+000  2.991354e+001 -1.275190e+001
      vertex  3.000000e+000  2.830643e+001 -2.216082e+000
      vertex  3.000000e+000  2.790736e+001 -2.550939e+000
    endloop
  endfacet
  facet normal  9.999999e-001  0.000000e+000  0.000000e+000
    outer loop
      vertex  3.000000e+000  2.991354e+001 -1.275190e+001
      vertex  3.000000e+000  2.790736e+001 -2.550939e+000
      vertex  3.000000e+000  2.741783e+001 -2.729112e+000
    endloop
  endfacet
  facet normal  9.999999e-001  -0.000000e+000  0.000000e+000
    outer loop
      vertex  3.000000e+000  2.991354e+001  1.374810e+001
      vertex  3.000000e+000  2.741783e+001  2.253110e-001
      vertex  3.000000e+000  2.790736e+001  4.713743e-002
    endloop
  endfacet
  facet normal  1.000000e+000  -0.000000e+000  0.000000e+000
    outer loop
      vertex  3.000000e+000  2.991354e+001  1.374810e+001
      vertex  3.000000e+000  2.790736e+001  4.713743e-002
      vertex  3.000000e+000  2.830643e+001 -2.877192e-001
    endloop
  endfacet
  facet normal  1.000000e+000  -0.000000e+000  0.000000e+000
    outer loop
      vertex  3.000000e+000  2.991354e+001  1.374810e+001
      vertex  3.000000e+000  2.830643e+001 -2.877192e-001
      vertex  3.000000e+000  2.856690e+001 -7.388704e-001
    endloop
  endfacet
  facet normal  1.000000e+000  -0.000000e+000  0.000000e+000
    outer loop
      vertex  3.000000e+000  2.991354e+001  1.374810e+001
      vertex  3.000000e+000  2.856690e+001 -7.388704e-001
      vertex  3.000000e+000  2.865736e+001 -1.251901e+000
    endloop
  endfacet
  facet normal  1.000000e+000  -0.000000e+000  0.000000e+000
    outer loop
      vertex  3.000000e+000  2.991354e+001  1.374810e+001
      vertex  3.000000e+000  2.865736e+001 -1.251901e+000
      vertex  3.000000e+000  2.991354e+001 -1.275190e+001
    endloop
  endfacet
  facet normal  0.000000e+000 -3.420196e-001  9.396929e-001
    outer loop
      vertex  0.000000e+000 -1.841207e+001 -2.729112e+000
      vertex  3.000000e+000 -1.792254e+001 -2.550939e+000
      vertex  0.000000e+000 -1.792254e+001 -2.550939e+000
    endloop
  endfacet
  facet normal  0.000000e+000 -6.427875e-001  7.660446e-001
    outer loop
      vertex  0.000000e+000 -1.792254e+001 -2.550939e+000
      vertex  3.000000e+000 -1.792254e+001 -2.550939e+000
      vertex  3.000000e+000 -1.752348e+001 -2.216082e+000
    endloop
  endfacet
  facet normal  0.000000e+000 -6.427875e-001  7.660446e-001
    outer loop
      vertex  0.000000e+000 -1.792254e+001 -2.550939e+000
      vertex  3.000000e+000 -1.752348e+001 -2.216082e+000
      vertex  0.000000e+000 -1.752348e+001 -2.216082e+000
    endloop
  endfacet
  facet normal  0.000000e+000 -8.660262e-001  4.999986e-001
    outer loop
      vertex  0.000000e+000 -1.752348e+001 -2.216082e+000
      vertex  3.000000e+000 -1.752348e+001 -2.216082e+000
      vertex  3.000000e+000 -1.726301e+001 -1.764931e+000
    endloop
  endfacet
  facet normal  0.000000e+000 -8.660262e-001  4.999986e-001
    outer loop
      vertex  0.000000e+000 -1.752348e+001 -2.216082e+000
      vertex  3.000000e+000 -1.726301e+001 -1.764931e+000
      vertex  0.000000e+000 -1.726301e+001 -1.764931e+000
    endloop
  endfacet
  facet normal  0.000000e+000 -9.848076e-001  1.736494e-001
    outer loop
      vertex  0.000000e+000 -1.726301e+001 -1.764931e+000
      vertex  3.000000e+000 -1.726301e+001 -1.764931e+000
      vertex  3.000000e+000 -1.717254e+001 -1.251901e+000
    endloop
  endfacet
  facet normal  0.000000e+000 -9.848076e-001  1.736494e-001
    outer loop
      vertex  0.000000e+000 -1.726301e+001 -1.764931e+000
      vertex  3.000000e+000 -1.717254e+001 -1.251901e+000
      vertex  0.000000e+000 -1.717254e+001 -1.251901e+000
    endloop
  endfacet
  facet normal  0.000000e+000 -3.420196e-001  9.396929e-001
    outer loop
      vertex  3.000000e+000 -1.792254e+001 -2.550939e+000
      vertex  0.000000e+000 -1.841207e+001 -2.729112e+000
      vertex  3.000000e+000 -1.841207e+001 -2.729112e+000
    endloop
  endfacet
  facet normal  0.000000e+000  0.000000e+000  1.000000e+000
    outer loop
      vertex  3.000000e+000 -1.841207e+001 -2.729112e+000
      vertex  0.000000e+000 -1.841207e+001 -2.729112e+000
      vertex  0.000000e+000 -1.893302e+001 -2.729112e+000
    endloop
  endfacet
  facet normal  0.000000e+000  0.000000e+000  1.000000e+000
    outer loop
      vertex  3.000000e+000 -1.841207e+001 -2.729112e+000
      vertex  0.000000e+000 -1.893302e+001 -2.729112e+000
      vertex  3.000000e+000 -1.893302e+001 -2.729112e+000
    endloop
  endfacet
  facet normal  0.000000e+000  3.420196e-001  9.396929e-001
    outer loop
      vertex  3.000000e+000 -1.893302e+001 -2.729112e+000
      vertex  0.000000e+000 -1.893302e+001 -2.729112e+000
      vertex  0.000000e+000 -1.942254e+001 -2.550939e+000
    endloop
  endfacet
  facet normal  -0.000000e+000  3.420196e-001  9.396929e-001
    outer loop
      vertex  3.000000e+000 -1.893302e+001 -2.729112e+000
      vertex  0.000000e+000 -1.942254e+001 -2.550939e+000
      vertex  3.000000e+000 -1.942254e+001 -2.550939e+000
    endloop
  endfacet
  facet normal  0.000000e+000  6.427875e-001  7.660446e-001
    outer loop
      vertex  3.000000e+000 -1.942254e+001 -2.550939e+000
      vertex  0.000000e+000 -1.942254e+001 -2.550939e+000
      vertex  0.000000e+000 -1.982161e+001 -2.216082e+000
    endloop
  endfacet
  facet normal  -0.000000e+000  6.427875e-001  7.660446e-001
    outer loop
      vertex  3.000000e+000 -1.942254e+001 -2.550939e+000
      vertex  0.000000e+000 -1.982161e+001 -2.216082e+000
      vertex  3.000000e+000 -1.982161e+001 -2.216082e+000
    endloop
  endfacet
  facet normal  0.000000e+000  8.660262e-001  4.999986e-001
    outer loop
      vertex  3.000000e+000 -1.982161e+001 -2.216082e+000
      vertex  0.000000e+000 -1.982161e+001 -2.216082e+000
      vertex  0.000000e+000 -2.008208e+001 -1.764931e+000
    endloop
  endfacet
  facet normal  -0.000000e+000  8.660262e-001  4.999986e-001
    outer loop
      vertex  3.000000e+000 -1.982161e+001 -2.216082e+000
      vertex  0.000000e+000 -2.008208e+001 -1.764931e+000
      vertex  3.000000e+000 -2.008208e+001 -1.764931e+000
    endloop
  endfacet
  facet normal  0.000000e+000  9.848076e-001  1.736494e-001
    outer loop
      vertex  3.000000e+000 -2.008208e+001 -1.764931e+000
      vertex  0.000000e+000 -2.008208e+001 -1.764931e+000
      vertex  0.000000e+000 -2.017254e+001 -1.251901e+000
    endloop
  endfacet
  facet normal  -0.000000e+000  9.848076e-001  1.736494e-001
    outer loop
      vertex  3.000000e+000 -2.008208e+001 -1.764931e+000
      vertex  0.000000e+000 -2.017254e+001 -1.251901e+000
      vertex  3.000000e+000 -2.017254e+001 -1.251901e+000
    endloop
  endfacet
  facet normal  0.000000e+000  3.420196e-001 -9.396929e-001
    outer loop
      vertex  0.000000e+000 -1.893302e+001  2.253110e-001
      vertex  3.000000e+000 -1.942254e+001  4.713743e-002
      vertex  0.000000e+000 -1.942254e+001  4.713743e-002
    endloop
  endfacet
  facet normal  0.000000e+000  6.427874e-001 -7.660447e-001
    outer loop
      vertex  0.000000e+000 -1.942254e+001  4.713743e-002
      vertex  3.000000e+000 -1.942254e+001  4.713743e-002
      vertex  3.000000e+000 -1.982161e+001 -2.877192e-001
    endloop
  endfacet
  facet normal  0.000000e+000  6.427874e-001 -7.660447e-001
    outer loop
      vertex  0.000000e+000 -1.942254e+001  4.713743e-002
      vertex  3.000000e+000 -1.982161e+001 -2.877192e-001
      vertex  0.000000e+000 -1.982161e+001 -2.877192e-001
    endloop
  endfacet
  facet normal  0.000000e+000  8.660262e-001 -4.999987e-001
    outer loop
      vertex  0.000000e+000 -1.982161e+001 -2.877192e-001
      vertex  3.000000e+000 -1.982161e+001 -2.877192e-001
      vertex  3.000000e+000 -2.008208e+001 -7.388704e-001
    endloop
  endfacet
  facet normal  0.000000e+000  8.660262e-001 -4.999987e-001
    outer loop
      vertex  0.000000e+000 -1.982161e+001 -2.877192e-001
      vertex  3.000000e+000 -2.008208e+001 -7.388704e-001
      vertex  0.000000e+000 -2.008208e+001 -7.388704e-001
    endloop
  endfacet
  facet normal  0.000000e+000  9.848076e-001 -1.736494e-001
    outer loop
      vertex  0.000000e+000 -2.008208e+001 -7.388704e-001
      vertex  3.000000e+000 -2.008208e+001 -7.388704e-001
      vertex  3.000000e+000 -2.017254e+001 -1.251901e+000
    endloop
  endfacet
  facet normal  0.000000e+000  9.848076e-001 -1.736494e-001
    outer loop
      vertex  0.000000e+000 -2.008208e+001 -7.388704e-001
      vertex  3.000000e+000 -2.017254e+001 -1.251901e+000
      vertex  0.000000e+000 -2.017254e+001 -1.251901e+000
    endloop
  endfacet
  facet normal  0.000000e+000  3.420196e-001 -9.396929e-001
    outer loop
      vertex  3.000000e+000 -1.942254e+001  4.713743e-002
      vertex  0.000000e+000 -1.893302e+001  2.253110e-001
      vertex  3.000000e+000 -1.893302e+001  2.253110e-001
    endloop
  endfacet
  facet normal  0.000000e+000  0.000000e+000 -1.000000e+000
    outer loop
      vertex  3.000000e+000 -1.893302e+001  2.253110e-001
      vertex  0.000000e+000 -1.893302e+001  2.253110e-001
      vertex  0.000000e+000 -1.841207e+001  2.253110e-001
    endloop
  endfacet
  facet normal  0.000000e+000  0.000000e+000 -1.000000e+000
    outer loop
      vertex  3.000000e+000 -1.893302e+001  2.253110e-001
      vertex  0.000000e+000 -1.841207e+001  2.253110e-001
      vertex  3.000000e+000 -1.841207e+001  2.253110e-001
    endloop
  endfacet
  facet normal  -0.000000e+000 -3.420196e-001 -9.396929e-001
    outer loop
      vertex  3.000000e+000 -1.841207e+001  2.253110e-001
      vertex  0.000000e+000 -1.841207e+001  2.253110e-001
      vertex  0.000000e+000 -1.792254e+001  4.713743e-002
    endloop
  endfacet
  facet normal  0.000000e+000 -3.420196e-001 -9.396929e-001
    outer loop
      vertex  3.000000e+000 -1.841207e+001  2.253110e-001
      vertex  0.000000e+000 -1.792254e+001  4.713743e-002
      vertex  3.000000e+000 -1.792254e+001  4.713743e-002
    endloop
  endfacet
  facet normal  -0.000000e+000 -6.427874e-001 -7.660447e-001
    outer loop
      vertex  3.000000e+000 -1.792254e+001  4.713743e-002
      vertex  0.000000e+000 -1.792254e+001  4.713743e-002
      vertex  0.000000e+000 -1.752348e+001 -2.877192e-001
    endloop
  endfacet
  facet normal  0.000000e+000 -6.427874e-001 -7.660447e-001
    outer loop
      vertex  3.000000e+000 -1.792254e+001  4.713743e-002
      vertex  0.000000e+000 -1.752348e+001 -2.877192e-001
      vertex  3.000000e+000 -1.752348e+001 -2.877192e-001
    endloop
  endfacet
  facet normal  -0.000000e+000 -8.660262e-001 -4.999987e-001
    outer loop
      vertex  3.000000e+000 -1.752348e+001 -2.877192e-001
      vertex  0.000000e+000 -1.752348e+001 -2.877192e-001
      vertex  0.000000e+000 -1.726301e+001 -7.388704e-001
    endloop
  endfacet
  facet normal  0.000000e+000 -8.660262e-001 -4.999987e-001
    outer loop
      vertex  3.000000e+000 -1.752348e+001 -2.877192e-001
      vertex  0.000000e+000 -1.726301e+001 -7.388704e-001
      vertex  3.000000e+000 -1.726301e+001 -7.388704e-001
    endloop
  endfacet
  facet normal  -0.000000e+000 -9.848076e-001 -1.736494e-001
    outer loop
      vertex  3.000000e+000 -1.726301e+001 -7.388704e-001
      vertex  0.000000e+000 -1.726301e+001 -7.388704e-001
      vertex  0.000000e+000 -1.717254e+001 -1.251901e+000
    endloop
  endfacet
  facet normal  0.000000e+000 -9.848076e-001 -1.736494e-001
    outer loop
      vertex  3.000000e+000 -1.726301e+001 -7.388704e-001
      vertex  0.000000e+000 -1.717254e+001 -1.251901e+000
      vertex  3.000000e+000 -1.717254e+001 -1.251901e+000
    endloop
  endfacet
  facet normal  0.000000e+000 -3.420196e-001  9.396929e-001
    outer loop
      vertex  0.000000e+000  2.741783e+001 -2.729112e+000
      vertex  3.000000e+000  2.790736e+001 -2.550939e+000
      vertex  0.000000e+000  2.790736e+001 -2.550939e+000
    endloop
  endfacet
  facet normal  0.000000e+000 -6.427875e-001  7.660446e-001
    outer loop
      vertex  0.000000e+000  2.790736e+001 -2.550939e+000
      vertex  3.000000e+000  2.790736e+001 -2.550939e+000
      vertex  3.000000e+000  2.830643e+001 -2.216082e+000
    endloop
  endfacet
  facet normal  0.000000e+000 -6.427875e-001  7.660446e-001
    outer loop
      vertex  0.000000e+000  2.790736e+001 -2.550939e+000
      vertex  3.000000e+000  2.830643e+001 -2.216082e+000
      vertex  0.000000e+000  2.830643e+001 -2.216082e+000
    endloop
  endfacet
  facet normal  0.000000e+000 -8.660262e-001  4.999986e-001
    outer loop
      vertex  0.000000e+000  2.830643e+001 -2.216082e+000
      vertex  3.000000e+000  2.830643e+001 -2.216082e+000
      vertex  3.000000e+000  2.856690e+001 -1.764931e+000
    endloop
  endfacet
  facet normal  0.000000e+000 -8.660262e-001  4.999986e-001
    outer loop
      vertex  0.000000e+000  2.830643e+001 -2.216082e+000
      vertex  3.000000e+000  2.856690e+001 -1.764931e+000
      vertex  0.000000e+000  2.856690e+001 -1.764931e+000
    endloop
  endfacet
  facet normal  0.000000e+000 -9.848076e-001  1.736494e-001
    outer loop
      vertex  0.000000e+000  2.856690e+001 -1.764931e+000
      vertex  3.000000e+000  2.856690e+001 -1.764931e+000
      vertex  3.000000e+000  2.865736e+001 -1.251901e+000
    endloop
  endfacet
  facet normal  0.000000e+000 -9.848076e-001  1.736494e-001
    outer loop
      vertex  0.000000e+000  2.856690e+001 -1.764931e+000
      vertex  3.000000e+000  2.865736e+001 -1.251901e+000
      vertex  0.000000e+000  2.865736e+001 -1.251901e+000
    endloop
  endfacet
  facet normal  0.000000e+000 -3.420196e-001  9.396929e-001
    outer loop
      vertex  3.000000e+000  2.790736e+001 -2.550939e+000
      vertex  0.000000e+000  2.741783e+001 -2.729112e+000
      vertex  3.000000e+000  2.741783e+001 -2.729112e+000
    endloop
  endfacet
  facet normal  0.000000e+000  0.000000e+000  1.000000e+000
    outer loop
      vertex  3.000000e+000  2.741783e+001 -2.729112e+000
      vertex  0.000000e+000  2.741783e+001 -2.729112e+000
      vertex  0.000000e+000  2.689689e+001 -2.729112e+000
    endloop
  endfacet
  facet normal  0.000000e+000  0.000000e+000  1.000000e+000
    outer loop
      vertex  3.000000e+000  2.741783e+001 -2.729112e+000
      vertex  0.000000e+000  2.689689e+001 -2.729112e+000
      vertex  3.000000e+000  2.689689e+001 -2.729112e+000
    endloop
  endfacet
  facet normal  0.000000e+000  3.420196e-001  9.396929e-001
    outer loop
      vertex  3.000000e+000  2.689689e+001 -2.729112e+000
      vertex  0.000000e+000  2.689689e+001 -2.729112e+000
      vertex  0.000000e+000  2.640736e+001 -2.550939e+000
    endloop
  endfacet
  facet normal  -0.000000e+000  3.420196e-001  9.396929e-001
    outer loop
      vertex  3.000000e+000  2.689689e+001 -2.729112e+000
      vertex  0.000000e+000  2.640736e+001 -2.550939e+000
      vertex  3.000000e+000  2.640736e+001 -2.550939e+000
    endloop
  endfacet
  facet normal  0.000000e+000  6.427875e-001  7.660446e-001
    outer loop
      vertex  3.000000e+000  2.640736e+001 -2.550939e+000
      vertex  0.000000e+000  2.640736e+001 -2.550939e+000
      vertex  0.000000e+000  2.600830e+001 -2.216082e+000
    endloop
  endfacet
  facet normal  -0.000000e+000  6.427875e-001  7.660446e-001
    outer loop
      vertex  3.000000e+000  2.640736e+001 -2.550939e+000
      vertex  0.000000e+000  2.600830e+001 -2.216082e+000
      vertex  3.000000e+000  2.600830e+001 -2.216082e+000
    endloop
  endfacet
  facet normal  0.000000e+000  8.660262e-001  4.999986e-001
    outer loop
      vertex  3.000000e+000  2.600830e+001 -2.216082e+000
      vertex  0.000000e+000  2.600830e+001 -2.216082e+000
      vertex  0.000000e+000  2.574782e+001 -1.764931e+000
    endloop
  endfacet
  facet normal  -0.000000e+000  8.660262e-001  4.999986e-001
    outer loop
      vertex  3.000000e+000  2.600830e+001 -2.216082e+000
      vertex  0.000000e+000  2.574782e+001 -1.764931e+000
      vertex  3.000000e+000  2.574782e+001 -1.764931e+000
    endloop
  endfacet
  facet normal  0.000000e+000  9.848076e-001  1.736494e-001
    outer loop
      vertex  3.000000e+000  2.574782e+001 -1.764931e+000
      vertex  0.000000e+000  2.574782e+001 -1.764931e+000
      vertex  0.000000e+000  2.565736e+001 -1.251901e+000
    endloop
  endfacet
  facet normal  -0.000000e+000  9.848076e-001  1.736494e-001
    outer loop
      vertex  3.000000e+000  2.574782e+001 -1.764931e+000
      vertex  0.000000e+000  2.565736e+001 -1.251901e+000
      vertex  3.000000e+000  2.565736e+001 -1.251901e+000
    endloop
  endfacet
  facet normal  0.000000e+000  3.420196e-001 -9.396929e-001
    outer loop
      vertex  0.000000e+000  2.689689e+001  2.253110e-001
      vertex  3.000000e+000  2.640736e+001  4.713743e-002
      vertex  0.000000e+000  2.640736e+001  4.713743e-002
    endloop
  endfacet
  facet normal  0.000000e+000  6.427874e-001 -7.660447e-001
    outer loop
      vertex  0.000000e+000  2.640736e+001  4.713743e-002
      vertex  3.000000e+000  2.640736e+001  4.713743e-002
      vertex  3.000000e+000  2.600830e+001 -2.877192e-001
    endloop
  endfacet
  facet normal  0.000000e+000  6.427874e-001 -7.660447e-001
    outer loop
      vertex  0.000000e+000  2.640736e+001  4.713743e-002
      vertex  3.000000e+000  2.600830e+001 -2.877192e-001
      vertex  0.000000e+000  2.600830e+001 -2.877192e-001
    endloop
  endfacet
  facet normal  0.000000e+000  8.660262e-001 -4.999987e-001
    outer loop
      vertex  0.000000e+000  2.600830e+001 -2.877192e-001
      vertex  3.000000e+000  2.600830e+001 -2.877192e-001
      vertex  3.000000e+000  2.574782e+001 -7.388704e-001
    endloop
  endfacet
  facet normal  0.000000e+000  8.660262e-001 -4.999987e-001
    outer loop
      vertex  0.000000e+000  2.600830e+001 -2.877192e-001
      vertex  3.000000e+000  2.574782e+001 -7.388704e-001
      vertex  0.000000e+000  2.574782e+001 -7.388704e-001
    endloop
  endfacet
  facet normal  0.000000e+000  9.848076e-001 -1.736494e-001
    outer loop
      vertex  0.000000e+000  2.574782e+001 -7.388704e-001
      vertex  3.000000e+000  2.574782e+001 -7.388704e-001
      vertex  3.000000e+000  2.565736e+001 -1.251901e+000
    endloop
  endfacet
  facet normal  0.000000e+000  9.848076e-001 -1.736494e-001
    outer loop
      vertex  0.000000e+000  2.574782e+001 -7.388704e-001
      vertex  3.000000e+000  2.565736e+001 -1.251901e+000
      vertex  0.000000e+000  2.565736e+001 -1.251901e+000
    endloop
  endfacet
  facet normal  0.000000e+000  3.420196e-001 -9.396929e-001
    outer loop
      vertex  3.000000e+000  2.640736e+001  4.713743e-002
      vertex  0.000000e+000  2.689689e+001  2.253110e-001
      vertex  3.000000e+000  2.689689e+001  2.253110e-001
    endloop
  endfacet
  facet normal  0.000000e+000  0.000000e+000 -1.000000e+000
    outer loop
      vertex  3.000000e+000  2.689689e+001  2.253110e-001
      vertex  0.000000e+000  2.689689e+001  2.253110e-001
      vertex  0.000000e+000  2.741783e+001  2.253110e-001
    endloop
  endfacet
  facet normal  0.000000e+000  0.000000e+000 -1.000000e+000
    outer loop
      vertex  3.000000e+000  2.689689e+001  2.253110e-001
      vertex  0.000000e+000  2.741783e+001  2.253110e-001
      vertex  3.000000e+000  2.741783e+001  2.253110e-001
    endloop
  endfacet
  facet normal  -0.000000e+000 -3.420196e-001 -9.396929e-001
    outer loop
      vertex  3.000000e+000  2.741783e+001  2.253110e-001
      vertex  0.000000e+000  2.741783e+001  2.253110e-001
      vertex  0.000000e+000  2.790736e+001  4.713743e-002
    endloop
  endfacet
  facet normal  0.000000e+000 -3.420196e-001 -9.396929e-001
    outer loop
      vertex  3.000000e+000  2.741783e+001  2.253110e-001
      vertex  0.000000e+000  2.790736e+001  4.713743e-002
      vertex  3.000000e+000  2.790736e+001  4.713743e-002
    endloop
  endfacet
  facet normal  -0.000000e+000 -6.427874e-001 -7.660447e-001
    outer loop
      vertex  3.000000e+000  2.790736e+001  4.713743e-002
      vertex  0.000000e+000  2.790736e+001  4.713743e-002
      vertex  0.000000e+000  2.830643e+001 -2.877192e-001
    endloop
  endfacet
  facet normal  0.000000e+000 -6.427874e-001 -7.660447e-001
    outer loop
      vertex  3.000000e+000  2.790736e+001  4.713743e-002
      vertex  0.000000e+000  2.830643e+001 -2.877192e-001
      vertex  3.000000e+000  2.830643e+001 -2.877192e-001
    endloop
  endfacet
  facet normal  -0.000000e+000 -8.660262e-001 -4.999987e-001
    outer loop
      vertex  3.000000e+000  2.830643e+001 -2.877192e-001
      vertex  0.000000e+000  2.830643e+001 -2.877192e-001
      vertex  0.000000e+000  2.856690e+001 -7.388704e-001
    endloop
  endfacet
  facet normal  0.000000e+000 -8.660262e-001 -4.999987e-001
    outer loop
      vertex  3.000000e+000  2.830643e+001 -2.877192e-001
      vertex  0.000000e+000  2.856690e+001 -7.388704e-001
      vertex  3.000000e+000  2.856690e+001 -7.388704e-001
    endloop
  endfacet
  facet normal  -0.000000e+000 -9.848076e-001 -1.736494e-001
    outer loop
      vertex  3.000000e+000  2.856690e+001 -7.388704e-001
      vertex  0.000000e+000  2.856690e+001 -7.388704e-001
      vertex  0.000000e+000  2.865736e+001 -1.251901e+000
    endloop
  endfacet
  facet normal  0.000000e+000 -9.848076e-001 -1.736494e-001
    outer loop
      vertex  3.000000e+000  2.856690e+001 -7.388704e-001
      vertex  0.000000e+000  2.865736e+001 -1.251901e+000
      vertex  3.000000e+000  2.865736e+001 -1.251901e+000
    endloop
  endfacet
  facet normal  0.000000e+000 -1.000000e+000  0.000000e+000
    outer loop
      vertex  3.000000e+000  4.913543e+000  8.748099e+000
      vertex  0.000000e+000  4.913543e+000  8.748099e+000
      vertex  3.000000e+000  4.913543e+000 -7.751901e+000
    endloop
  endfacet
  facet normal  0.000000e+000 -1.000000e+000  0.000000e+000
    outer loop
      vertex  3.000000e+000  4.913543e+000 -7.751901e+000
      vertex  0.000000e+000  4.913543e+000  8.748099e+000
      vertex  0.000000e+000  4.913543e+000 -7.751901e+000
    endloop
  endfacet
  facet normal  0.000000e+000  0.000000e+000 -1.000000e+000
    outer loop
      vertex  3.000000e+000 -1.608646e+001  8.748099e+000
      vertex  0.000000e+000 -1.608646e+001  8.748099e+000
      vertex  3.000000e+000  4.913543e+000  8.748099e+000
    endloop
  endfacet
  facet normal  -0.000000e+000  0.000000e+000 -1.000000e+000
    outer loop
      vertex  3.000000e+000  4.913543e+000  8.748099e+000
      vertex  0.000000e+000 -1.608646e+001  8.748099e+000
      vertex  0.000000e+000  4.913543e+000  8.748099e+000
    endloop
  endfacet
  facet normal  0.000000e+000  1.000000e+000  -0.000000e+000
    outer loop
      vertex  3.000000e+000 -1.608646e+001  8.748099e+000
      vertex  3.000000e+000 -1.608646e+001 -7.751901e+000
      vertex  0.000000e+000 -1.608646e+001  8.748099e+000
    endloop
  endfacet
  facet normal  0.000000e+000  1.000000e+000  0.000000e+000
    outer loop
      vertex  0.000000e+000 -1.608646e+001  8.748099e+000
      vertex  3.000000e+000 -1.608646e+001 -7.751901e+000
      vertex  0.000000e+000 -1.608646e+001 -7.751901e+000
    endloop
  endfacet
  facet normal  -0.000000e+000  0.000000e+000  1.000000e+000
    outer loop
      vertex  3.000000e+000  4.913543e+000 -7.751901e+000
      vertex  0.000000e+000  4.913543e+000 -7.751901e+000
      vertex  3.000000e+000 -1.608646e+001 -7.751901e+000
    endloop
  endfacet
  facet normal  0.000000e+000  0.000000e+000  1.000000e+000
    outer loop
      vertex  3.000000e+000 -1.608646e+001 -7.751901e+000
      vertex  0.000000e+000  4.913543e+000 -7.751901e+000
      vertex  0.000000e+000 -1.608646e+001 -7.751901e+000
    endloop
  endfacet
  facet normal  0.000000e+000  0.000000e+000  1.000000e+000
    outer loop
      vertex  3.000000e+000 -2.108646e+001  1.374810e+001
      vertex  3.000000e+000  2.991354e+001  1.374810e+001
      vertex  0.000000e+000 -2.108646e+001  1.374810e+001
    endloop
  endfacet
  facet normal  0.000000e+000  0.000000e+000  1.000000e+000
    outer loop
      vertex  0.000000e+000 -2.108646e+001  1.374810e+001
      vertex  3.000000e+000  2.991354e+001  1.374810e+001
      vertex  0.000000e+000  2.991354e+001  1.374810e+001
    endloop
  endfacet
  facet normal  0.000000e+000  9.999999e-001  0.000000e+000
    outer loop
      vertex  3.000000e+000  2.991354e+001 -1.275190e+001
      vertex  0.000000e+000  2.991354e+001 -1.275190e+001
      vertex  3.000000e+000  2.991354e+001  1.374810e+001
    endloop
  endfacet
  facet normal  0.000000e+000  9.999999e-001  0.000000e+000
    outer loop
      vertex  3.000000e+000  2.991354e+001  1.374810e+001
      vertex  0.000000e+000  2.991354e+001 -1.275190e+001
      vertex  0.000000e+000  2.991354e+001  1.374810e+001
    endloop
  endfacet
  facet normal  0.000000e+000  0.000000e+000 -1.000000e+000
    outer loop
      vertex  3.000000e+000  2.991354e+001 -1.275190e+001
      vertex  3.000000e+000 -2.108646e+001 -1.275190e+001
      vertex  0.000000e+000  2.991354e+001 -1.275190e+001
    endloop
  endfacet
  facet normal  0.000000e+000  0.000000e+000 -1.000000e+000
    outer loop
      vertex  0.000000e+000  2.991354e+001 -1.275190e+001
      vertex  3.000000e+000 -2.108646e+001 -1.275190e+001
      vertex  0.000000e+000 -2.108646e+001 -1.275190e+001
    endloop
  endfacet
  facet normal  0.000000e+000 -9.999999e-001  0.000000e+000
    outer loop
      vertex  3.000000e+000 -2.108646e+001  1.374810e+001
      vertex  0.000000e+000 -2.108646e+001  1.374810e+001
      vertex  3.000000e+000 -2.108646e+001 -1.275190e+001
    endloop
  endfacet
  facet normal  0.000000e+000 -9.999999e-001  0.000000e+000
    outer loop
      vertex  3.000000e+000 -2.108646e+001 -1.275190e+001
      vertex  0.000000e+000 -2.108646e+001  1.374810e+001
      vertex  0.000000e+000 -2.108646e+001 -1.275190e+001
    endloop
  endfacet
endsolid CATIA STL
